G04 #@! TF.GenerationSoftware,KiCad,Pcbnew,5.1.5-52549c5~84~ubuntu18.04.1*
G04 #@! TF.CreationDate,2020-03-25T13:03:39-07:00*
G04 #@! TF.ProjectId,Marlin_UIBOX,4d61726c-696e-45f5-9549-424f582e6b69,rev?*
G04 #@! TF.SameCoordinates,PX55c0260PY70276d0*
G04 #@! TF.FileFunction,Copper,L2,Bot*
G04 #@! TF.FilePolarity,Positive*
%FSLAX46Y46*%
G04 Gerber Fmt 4.6, Leading zero omitted, Abs format (unit mm)*
G04 Created by KiCad (PCBNEW 5.1.5-52549c5~84~ubuntu18.04.1) date 2020-03-25 13:03:39*
%MOMM*%
%LPD*%
G04 APERTURE LIST*
G04 #@! TA.AperFunction,ComponentPad*
%ADD10O,1.700000X1.700000*%
G04 #@! TD*
G04 #@! TA.AperFunction,ComponentPad*
%ADD11R,1.700000X1.700000*%
G04 #@! TD*
G04 #@! TA.AperFunction,ComponentPad*
%ADD12R,1.727200X1.727200*%
G04 #@! TD*
G04 #@! TA.AperFunction,ComponentPad*
%ADD13O,1.727200X1.727200*%
G04 #@! TD*
G04 #@! TA.AperFunction,ComponentPad*
%ADD14R,1.600000X1.600000*%
G04 #@! TD*
G04 #@! TA.AperFunction,ComponentPad*
%ADD15O,1.600000X1.600000*%
G04 #@! TD*
G04 #@! TA.AperFunction,ComponentPad*
%ADD16R,2.000000X2.000000*%
G04 #@! TD*
G04 #@! TA.AperFunction,ComponentPad*
%ADD17C,2.000000*%
G04 #@! TD*
G04 #@! TA.AperFunction,ComponentPad*
%ADD18O,1.500000X1.050000*%
G04 #@! TD*
G04 #@! TA.AperFunction,ComponentPad*
%ADD19R,1.500000X1.050000*%
G04 #@! TD*
G04 #@! TA.AperFunction,ComponentPad*
%ADD20C,1.600000*%
G04 #@! TD*
G04 #@! TA.AperFunction,ComponentPad*
%ADD21O,1.050000X1.500000*%
G04 #@! TD*
G04 #@! TA.AperFunction,ComponentPad*
%ADD22R,1.050000X1.500000*%
G04 #@! TD*
G04 #@! TA.AperFunction,ComponentPad*
%ADD23C,1.400000*%
G04 #@! TD*
G04 #@! TA.AperFunction,Conductor*
%ADD24C,0.250000*%
G04 #@! TD*
G04 #@! TA.AperFunction,Conductor*
%ADD25C,0.400000*%
G04 #@! TD*
G04 #@! TA.AperFunction,Conductor*
%ADD26C,0.254000*%
G04 #@! TD*
G04 APERTURE END LIST*
D10*
G04 #@! TO.P,J3,7*
G04 #@! TO.N,/LCD_CS*
X13434000Y29522000D03*
G04 #@! TO.P,J3,6*
G04 #@! TO.N,/LCD_DC*
X13434000Y26982000D03*
G04 #@! TO.P,J3,5*
G04 #@! TO.N,/LCD_RES*
X13434000Y24442000D03*
G04 #@! TO.P,J3,4*
G04 #@! TO.N,/LCD_MOSI*
X13434000Y21902000D03*
G04 #@! TO.P,J3,3*
G04 #@! TO.N,/LCD_SCK*
X13434000Y19362000D03*
G04 #@! TO.P,J3,2*
G04 #@! TO.N,/3P3_VCC*
X13434000Y16822000D03*
D11*
G04 #@! TO.P,J3,1*
G04 #@! TO.N,GND*
X13434000Y14282000D03*
G04 #@! TD*
G04 #@! TO.P,J4,1*
G04 #@! TO.N,GND*
X20611000Y4790000D03*
D10*
G04 #@! TO.P,J4,2*
G04 #@! TO.N,VCC*
X23151000Y4790000D03*
G04 #@! TO.P,J4,3*
G04 #@! TO.N,/MISO*
X25691000Y4790000D03*
G04 #@! TO.P,J4,4*
G04 #@! TO.N,/MOSI*
X28231000Y4790000D03*
G04 #@! TO.P,J4,5*
G04 #@! TO.N,/SCK*
X30771000Y4790000D03*
G04 #@! TO.P,J4,6*
G04 #@! TO.N,/SD_SS*
X33311000Y4790000D03*
G04 #@! TO.P,J4,7*
G04 #@! TO.N,/SD_DET*
X35851000Y4790000D03*
G04 #@! TD*
D12*
G04 #@! TO.P,J1,1*
G04 #@! TO.N,VCC*
X43942000Y6350000D03*
D13*
G04 #@! TO.P,J1,2*
G04 #@! TO.N,GND*
X43942000Y3810000D03*
G04 #@! TO.P,J1,3*
G04 #@! TO.N,Net-(J1-Pad3)*
X46482000Y6350000D03*
G04 #@! TO.P,J1,4*
G04 #@! TO.N,/LCD_DC*
X46482000Y3810000D03*
G04 #@! TO.P,J1,5*
G04 #@! TO.N,/LCD_CS*
X49022000Y6350000D03*
G04 #@! TO.P,J1,6*
G04 #@! TO.N,Net-(J1-Pad6)*
X49022000Y3810000D03*
G04 #@! TO.P,J1,7*
G04 #@! TO.N,/LCD_RES*
X51562000Y6350000D03*
G04 #@! TO.P,J1,8*
G04 #@! TO.N,Net-(J1-Pad8)*
X51562000Y3810000D03*
G04 #@! TO.P,J1,9*
G04 #@! TO.N,/BT_SW*
X54102000Y6350000D03*
G04 #@! TO.P,J1,10*
G04 #@! TO.N,/BEEPER*
X54102000Y3810000D03*
G04 #@! TD*
G04 #@! TO.P,J2,10*
G04 #@! TO.N,/MISO*
X76454000Y3810000D03*
G04 #@! TO.P,J2,9*
G04 #@! TO.N,/SCK*
X76454000Y6350000D03*
G04 #@! TO.P,J2,8*
G04 #@! TO.N,/BT_EN2*
X73914000Y3810000D03*
G04 #@! TO.P,J2,7*
G04 #@! TO.N,/SD_SS*
X73914000Y6350000D03*
G04 #@! TO.P,J2,6*
G04 #@! TO.N,/BT_EN1*
X71374000Y3810000D03*
G04 #@! TO.P,J2,5*
G04 #@! TO.N,/MOSI*
X71374000Y6350000D03*
G04 #@! TO.P,J2,4*
G04 #@! TO.N,/SD_DET*
X68834000Y3810000D03*
G04 #@! TO.P,J2,3*
G04 #@! TO.N,Net-(J2-Pad3)*
X68834000Y6350000D03*
G04 #@! TO.P,J2,2*
G04 #@! TO.N,GND*
X66294000Y3810000D03*
D12*
G04 #@! TO.P,J2,1*
G04 #@! TO.N,Net-(J2-Pad1)*
X66294000Y6350000D03*
G04 #@! TD*
D11*
G04 #@! TO.P,J4,1*
G04 #@! TO.N,GND*
X20611000Y24770000D03*
D10*
G04 #@! TO.P,J4,2*
G04 #@! TO.N,VCC*
X23151000Y24770000D03*
G04 #@! TO.P,J4,3*
G04 #@! TO.N,/MISO*
X25691000Y24770000D03*
G04 #@! TO.P,J4,4*
G04 #@! TO.N,/MOSI*
X28231000Y24770000D03*
G04 #@! TO.P,J4,5*
G04 #@! TO.N,/SCK*
X30771000Y24770000D03*
G04 #@! TO.P,J4,6*
G04 #@! TO.N,/SD_SS*
X33311000Y24770000D03*
G04 #@! TO.P,J4,7*
G04 #@! TO.N,/SD_DET*
X35851000Y24770000D03*
G04 #@! TD*
D14*
G04 #@! TO.P,D1,1*
G04 #@! TO.N,VCC*
X82804000Y24892000D03*
D15*
G04 #@! TO.P,D1,2*
G04 #@! TO.N,Net-(D1-Pad2)*
X82804000Y32512000D03*
G04 #@! TD*
D11*
G04 #@! TO.P,J5,1*
G04 #@! TO.N,GND*
X101429000Y8893000D03*
D10*
G04 #@! TO.P,J5,2*
G04 #@! TO.N,VCC*
X103969000Y8893000D03*
G04 #@! TO.P,J5,3*
G04 #@! TO.N,/BT_SW*
X106509000Y8893000D03*
G04 #@! TO.P,J5,4*
G04 #@! TO.N,/BT_EN1*
X109049000Y8893000D03*
G04 #@! TO.P,J5,5*
G04 #@! TO.N,/BT_EN2*
X111589000Y8893000D03*
G04 #@! TD*
D16*
G04 #@! TO.P,LS1,1*
G04 #@! TO.N,VCC*
X69850000Y33020000D03*
D17*
G04 #@! TO.P,LS1,2*
G04 #@! TO.N,Net-(D1-Pad2)*
X69850000Y25420000D03*
G04 #@! TD*
D18*
G04 #@! TO.P,Q1,2*
G04 #@! TO.N,Net-(Q1-Pad2)*
X78740000Y20574000D03*
G04 #@! TO.P,Q1,3*
G04 #@! TO.N,Net-(Q1-Pad3)*
X78740000Y21844000D03*
D19*
G04 #@! TO.P,Q1,1*
G04 #@! TO.N,GND*
X78740000Y19304000D03*
G04 #@! TD*
D15*
G04 #@! TO.P,R1,2*
G04 #@! TO.N,Net-(Q1-Pad2)*
X49784000Y32004000D03*
D20*
G04 #@! TO.P,R1,1*
G04 #@! TO.N,/BEEPER*
X49784000Y24384000D03*
G04 #@! TD*
G04 #@! TO.P,R2,1*
G04 #@! TO.N,Net-(D1-Pad2)*
X78740000Y32512000D03*
D15*
G04 #@! TO.P,R2,2*
G04 #@! TO.N,Net-(Q1-Pad3)*
X78740000Y24892000D03*
G04 #@! TD*
G04 #@! TO.P,R3,2*
G04 #@! TO.N,/LCD_MOSI*
X38760400Y19050000D03*
D20*
G04 #@! TO.P,R3,1*
G04 #@! TO.N,/3P3_VCC*
X46380400Y19050000D03*
G04 #@! TD*
G04 #@! TO.P,R4,1*
G04 #@! TO.N,/3P3_VCC*
X48971200Y13970000D03*
D15*
G04 #@! TO.P,R4,2*
G04 #@! TO.N,/LCD_SCK*
X41351200Y13970000D03*
G04 #@! TD*
D20*
G04 #@! TO.P,R5,1*
G04 #@! TO.N,/SCK*
X30784800Y13970000D03*
D15*
G04 #@! TO.P,R5,2*
G04 #@! TO.N,/LCD_SCK*
X38404800Y13970000D03*
G04 #@! TD*
G04 #@! TO.P,R6,2*
G04 #@! TO.N,/LCD_MOSI*
X35864800Y19050000D03*
D20*
G04 #@! TO.P,R6,1*
G04 #@! TO.N,/MOSI*
X28244800Y19050000D03*
G04 #@! TD*
D21*
G04 #@! TO.P,U1,2*
G04 #@! TO.N,VCC*
X54356000Y18084800D03*
G04 #@! TO.P,U1,3*
G04 #@! TO.N,/3P3_VCC*
X53086000Y18084800D03*
D22*
G04 #@! TO.P,U1,1*
G04 #@! TO.N,GND*
X55626000Y18084800D03*
G04 #@! TD*
D23*
G04 #@! TO.P,C1,1*
G04 #@! TO.N,VCC*
X53126000Y14528800D03*
G04 #@! TO.P,C1,2*
G04 #@! TO.N,GND*
X55626000Y14528800D03*
G04 #@! TD*
G04 #@! TO.P,C2,2*
G04 #@! TO.N,GND*
X55626000Y22301200D03*
G04 #@! TO.P,C2,1*
G04 #@! TO.N,/3P3_VCC*
X53126000Y22301200D03*
G04 #@! TD*
D24*
G04 #@! TO.N,Net-(D1-Pad2)*
X78740000Y32512000D02*
X82804000Y32512000D01*
X73426000Y25420000D02*
X69850000Y25420000D01*
X78740000Y32512000D02*
X78740000Y30734000D01*
X78740000Y30734000D02*
X73426000Y25420000D01*
D25*
G04 #@! TO.N,VCC*
X23151000Y15277000D02*
X23151000Y15330000D01*
X23151000Y15277000D02*
X23151000Y4790000D01*
X23151000Y24770000D02*
X23151000Y15277000D01*
X53126000Y10200000D02*
X53126000Y12192000D01*
X51562000Y8636000D02*
X53126000Y10200000D01*
X45008800Y8636000D02*
X51562000Y8636000D01*
X43942000Y6350000D02*
X43942000Y7569200D01*
X43942000Y7569200D02*
X45008800Y8636000D01*
X23151000Y26707000D02*
X23151000Y24770000D01*
X31597600Y35153600D02*
X23151000Y26707000D01*
X69850000Y33020000D02*
X63500000Y33020000D01*
X61366400Y35153600D02*
X31597600Y35153600D01*
X63500000Y33020000D02*
X61366400Y35153600D01*
X53126000Y12192000D02*
X53126000Y14528800D01*
G04 #@! TO.N,GND*
X89408000Y8893000D02*
X101429000Y8893000D01*
X89151000Y8893000D02*
X89408000Y8893000D01*
X78740000Y15494000D02*
X85341000Y8893000D01*
X85341000Y8893000D02*
X89408000Y8893000D01*
X78740000Y19304000D02*
X78740000Y15494000D01*
X13434000Y14282000D02*
X13434000Y9426000D01*
X13434000Y9426000D02*
X18070000Y4790000D01*
X20611000Y4790000D02*
X18070000Y4790000D01*
X20611000Y3540000D02*
X20611000Y4790000D01*
X21547500Y2603500D02*
X20611000Y3540000D01*
X38671500Y2603500D02*
X21547500Y2603500D01*
X39878000Y3810000D02*
X38671500Y2603500D01*
X43942000Y3810000D02*
X39878000Y3810000D01*
D24*
G04 #@! TO.N,/LCD_DC*
X11742000Y26982000D02*
X13434000Y26982000D01*
X46482000Y2286000D02*
X45974000Y1778000D01*
X9144000Y11684000D02*
X9144000Y24384000D01*
X45974000Y1778000D02*
X19050000Y1778000D01*
X9144000Y24384000D02*
X11742000Y26982000D01*
X46482000Y3810000D02*
X46482000Y2286000D01*
X19050000Y1778000D02*
X9144000Y11684000D01*
G04 #@! TO.N,/BEEPER*
X56337200Y24384000D02*
X49784000Y24384000D01*
X58775600Y21945600D02*
X56337200Y24384000D01*
X58775600Y7262286D02*
X58775600Y21945600D01*
X54102000Y3810000D02*
X55323314Y3810000D01*
X55323314Y3810000D02*
X58775600Y7262286D01*
G04 #@! TO.N,/MISO*
X25691000Y24770000D02*
X25691000Y4790000D01*
X25691000Y26707000D02*
X25691000Y24770000D01*
X77978000Y3810000D02*
X78740000Y4572000D01*
X78740000Y4572000D02*
X78740000Y10058400D01*
X78740000Y10058400D02*
X58826400Y29972000D01*
X76454000Y3810000D02*
X77978000Y3810000D01*
X58826400Y29972000D02*
X28956000Y29972000D01*
X28956000Y29972000D02*
X25691000Y26707000D01*
G04 #@! TO.N,/SCK*
X30771000Y24770000D02*
X30771000Y23567919D01*
X30771000Y23567919D02*
X30784800Y23554119D01*
X32766000Y28702000D02*
X30771000Y26707000D01*
X58318400Y28702000D02*
X32766000Y28702000D01*
X30771000Y26707000D02*
X30771000Y24770000D01*
X76454000Y10566400D02*
X58318400Y28702000D01*
X76454000Y6350000D02*
X76454000Y10566400D01*
X30771000Y13983800D02*
X30784800Y13970000D01*
X30771000Y24770000D02*
X30771000Y13983800D01*
X30771000Y13956200D02*
X30784800Y13970000D01*
X30771000Y4790000D02*
X30771000Y13956200D01*
G04 #@! TO.N,/BT_EN2*
X111589000Y7195000D02*
X111589000Y8893000D01*
X73914000Y2603500D02*
X74485500Y2032000D01*
X98044000Y5588000D02*
X109982000Y5588000D01*
X73914000Y3810000D02*
X73914000Y2603500D01*
X74485500Y2032000D02*
X79248000Y2032000D01*
X79248000Y2032000D02*
X85090000Y7874000D01*
X109982000Y5588000D02*
X111589000Y7195000D01*
X85090000Y7874000D02*
X95758000Y7874000D01*
X95758000Y7874000D02*
X98044000Y5588000D01*
G04 #@! TO.N,/SD_SS*
X33311000Y4790000D02*
X33311000Y24770000D01*
X33311000Y26707000D02*
X33311000Y24770000D01*
X34036000Y27432000D02*
X33311000Y26707000D01*
X57912000Y27432000D02*
X34036000Y27432000D01*
X73914000Y11430000D02*
X57912000Y27432000D01*
X73914000Y6350000D02*
X73914000Y11430000D01*
G04 #@! TO.N,/BT_EN1*
X112522000Y10922000D02*
X109728000Y10922000D01*
X109049000Y10243000D02*
X109049000Y8893000D01*
X113284000Y6604000D02*
X113284000Y10160000D01*
X113284000Y10160000D02*
X112522000Y10922000D01*
X110998000Y4318000D02*
X113284000Y6604000D01*
X109728000Y10922000D02*
X109049000Y10243000D01*
X71374000Y2286000D02*
X72199500Y1460500D01*
X71374000Y3810000D02*
X71374000Y2286000D01*
X85852000Y6604000D02*
X95250000Y6604000D01*
X72199500Y1460500D02*
X80708500Y1460500D01*
X80708500Y1460500D02*
X85852000Y6604000D01*
X97536000Y4318000D02*
X110998000Y4318000D01*
X95250000Y6604000D02*
X97536000Y4318000D01*
G04 #@! TO.N,/MOSI*
X28231000Y19775000D02*
X28244800Y19761200D01*
X28231000Y19747400D02*
X28244800Y19761200D01*
X28231000Y19063800D02*
X28244800Y19050000D01*
X28231000Y24770000D02*
X28231000Y19063800D01*
X28231000Y19036200D02*
X28244800Y19050000D01*
X28231000Y4790000D02*
X28231000Y19036200D01*
G04 #@! TO.N,/SD_DET*
X35851000Y23567919D02*
X34226500Y21943419D01*
X35851000Y24770000D02*
X35851000Y23567919D01*
X34226500Y21943419D02*
X34226500Y12763500D01*
X35851000Y11139000D02*
X35851000Y4790000D01*
X34226500Y12763500D02*
X35851000Y11139000D01*
X68834000Y2222500D02*
X68834000Y3810000D01*
X68072000Y1460500D02*
X68834000Y2222500D01*
X62547500Y1460500D02*
X68072000Y1460500D01*
X59944000Y4064000D02*
X62547500Y1460500D01*
X35851000Y24770000D02*
X37053081Y24770000D01*
X37053081Y24770000D02*
X38445081Y26162000D01*
X38445081Y26162000D02*
X56286400Y26162000D01*
X56286400Y26162000D02*
X59944000Y22504400D01*
X59944000Y22504400D02*
X59944000Y4064000D01*
G04 #@! TO.N,Net-(Q1-Pad3)*
X78740000Y21844000D02*
X78740000Y24892000D01*
G04 #@! TO.N,Net-(Q1-Pad2)*
X58420000Y32004000D02*
X49784000Y32004000D01*
X78740000Y20574000D02*
X69850000Y20574000D01*
X69850000Y20574000D02*
X58420000Y32004000D01*
G04 #@! TD*
D26*
G04 #@! TO.N,GND*
G36*
X23565746Y38307807D02*
G01*
X23588762Y38279762D01*
X23700680Y38187913D01*
X23828367Y38119663D01*
X23966915Y38077635D01*
X24074895Y38067000D01*
X24074904Y38067000D01*
X24110999Y38063445D01*
X24147094Y38067000D01*
X31074895Y38067000D01*
X31111000Y38063444D01*
X31147105Y38067000D01*
X31255085Y38077635D01*
X31393633Y38119663D01*
X31521320Y38187913D01*
X31633238Y38279762D01*
X31656259Y38307813D01*
X32870574Y39522128D01*
X86299000Y39522128D01*
X86299000Y39081872D01*
X86384890Y38650075D01*
X86553369Y38243331D01*
X86797962Y37877271D01*
X87109271Y37565962D01*
X87475331Y37321369D01*
X87882075Y37152890D01*
X88313872Y37067000D01*
X88754128Y37067000D01*
X89185925Y37152890D01*
X89592669Y37321369D01*
X89958729Y37565962D01*
X90270038Y37877271D01*
X90514631Y38243331D01*
X90683110Y38650075D01*
X90769000Y39081872D01*
X90769000Y39522128D01*
X90683110Y39953925D01*
X90514631Y40360669D01*
X90270038Y40726729D01*
X89958729Y41038038D01*
X89592669Y41282631D01*
X89185925Y41451110D01*
X88754128Y41537000D01*
X88313872Y41537000D01*
X87882075Y41451110D01*
X87475331Y41282631D01*
X87109271Y41038038D01*
X86797962Y40726729D01*
X86553369Y40360669D01*
X86384890Y39953925D01*
X86299000Y39522128D01*
X32870574Y39522128D01*
X34915447Y41567000D01*
X125229554Y41567000D01*
X125458241Y41338313D01*
X125185925Y41451110D01*
X124754128Y41537000D01*
X124313872Y41537000D01*
X123882075Y41451110D01*
X123475331Y41282631D01*
X123109271Y41038038D01*
X122797962Y40726729D01*
X122553369Y40360669D01*
X122384890Y39953925D01*
X122299000Y39522128D01*
X122299000Y39081872D01*
X122384890Y38650075D01*
X122553369Y38243331D01*
X122797962Y37877271D01*
X123109271Y37565962D01*
X123475331Y37321369D01*
X123882075Y37152890D01*
X124313872Y37067000D01*
X124754128Y37067000D01*
X125185925Y37152890D01*
X125592669Y37321369D01*
X125958729Y37565962D01*
X126270038Y37877271D01*
X126514631Y38243331D01*
X126683110Y38650075D01*
X126769000Y39081872D01*
X126769000Y39522128D01*
X126683110Y39953925D01*
X126570313Y40226240D01*
X128799000Y37997553D01*
X128799001Y4606448D01*
X126570313Y2377760D01*
X126683110Y2650075D01*
X126769000Y3081872D01*
X126769000Y3522128D01*
X126683110Y3953925D01*
X126514631Y4360669D01*
X126270038Y4726729D01*
X125958729Y5038038D01*
X125592669Y5282631D01*
X125185925Y5451110D01*
X124754128Y5537000D01*
X124313872Y5537000D01*
X123882075Y5451110D01*
X123475331Y5282631D01*
X123109271Y5038038D01*
X122797962Y4726729D01*
X122553369Y4360669D01*
X122384890Y3953925D01*
X122299000Y3522128D01*
X122299000Y3081872D01*
X122384890Y2650075D01*
X122553369Y2243331D01*
X122797962Y1877271D01*
X123109271Y1565962D01*
X123475331Y1321369D01*
X123882075Y1152890D01*
X124313872Y1067000D01*
X124754128Y1067000D01*
X125185925Y1152890D01*
X125458241Y1265687D01*
X125229554Y1037000D01*
X81359801Y1037000D01*
X83844930Y3522128D01*
X86299000Y3522128D01*
X86299000Y3081872D01*
X86384890Y2650075D01*
X86553369Y2243331D01*
X86797962Y1877271D01*
X87109271Y1565962D01*
X87475331Y1321369D01*
X87882075Y1152890D01*
X88313872Y1067000D01*
X88754128Y1067000D01*
X89185925Y1152890D01*
X89592669Y1321369D01*
X89958729Y1565962D01*
X90270038Y1877271D01*
X90514631Y2243331D01*
X90683110Y2650075D01*
X90769000Y3081872D01*
X90769000Y3522128D01*
X90683110Y3953925D01*
X90514631Y4360669D01*
X90270038Y4726729D01*
X89958729Y5038038D01*
X89592669Y5282631D01*
X89185925Y5451110D01*
X88754128Y5537000D01*
X88313872Y5537000D01*
X87882075Y5451110D01*
X87475331Y5282631D01*
X87109271Y5038038D01*
X86797962Y4726729D01*
X86553369Y4360669D01*
X86384890Y3953925D01*
X86299000Y3522128D01*
X83844930Y3522128D01*
X86166803Y5844000D01*
X94935199Y5844000D01*
X96972201Y3806997D01*
X96995999Y3777999D01*
X97111724Y3683026D01*
X97243753Y3612454D01*
X97387014Y3568997D01*
X97498667Y3558000D01*
X97498676Y3558000D01*
X97535999Y3554324D01*
X97573322Y3558000D01*
X110960678Y3558000D01*
X110998000Y3554324D01*
X111035322Y3558000D01*
X111035333Y3558000D01*
X111146986Y3568997D01*
X111290247Y3612454D01*
X111422276Y3683026D01*
X111538001Y3777999D01*
X111561804Y3807003D01*
X113795004Y6040202D01*
X113824001Y6063999D01*
X113918974Y6179724D01*
X113989546Y6311753D01*
X114033003Y6455014D01*
X114044000Y6566667D01*
X114044000Y6566676D01*
X114047676Y6603999D01*
X114044000Y6641322D01*
X114044000Y10122675D01*
X114047676Y10160000D01*
X114044000Y10197325D01*
X114044000Y10197333D01*
X114033003Y10308986D01*
X113989546Y10452247D01*
X113918974Y10584276D01*
X113824001Y10700001D01*
X113795002Y10723799D01*
X113451802Y11067000D01*
X123997895Y11067000D01*
X124034000Y11063444D01*
X124070105Y11067000D01*
X124178085Y11077635D01*
X124316633Y11119663D01*
X124444320Y11187913D01*
X124556238Y11279762D01*
X124648087Y11391680D01*
X124716337Y11519367D01*
X124758365Y11657915D01*
X124772556Y11802000D01*
X124769000Y11838105D01*
X124769000Y33180120D01*
X124772555Y33216215D01*
X124769000Y33252310D01*
X124769000Y33252319D01*
X124758365Y33360299D01*
X124716337Y33498847D01*
X124648087Y33626534D01*
X124631514Y33646727D01*
X124579253Y33710408D01*
X124579250Y33710411D01*
X124556237Y33738452D01*
X124528198Y33761463D01*
X118993473Y39296187D01*
X118970452Y39324238D01*
X118858534Y39416087D01*
X118730847Y39484337D01*
X118592299Y39526365D01*
X118484319Y39537000D01*
X118448214Y39540556D01*
X118412109Y39537000D01*
X94655892Y39537000D01*
X94619787Y39540556D01*
X94583682Y39537000D01*
X94475702Y39526365D01*
X94337154Y39484337D01*
X94209467Y39416087D01*
X94097549Y39324238D01*
X94074534Y39296194D01*
X88539808Y33761468D01*
X88511762Y33738451D01*
X88419913Y33626533D01*
X88351663Y33498846D01*
X88347811Y33486146D01*
X88309635Y33360299D01*
X88295444Y33216214D01*
X88299000Y33180109D01*
X88299001Y11838115D01*
X88295444Y11802000D01*
X88309635Y11657915D01*
X88351663Y11519367D01*
X88419913Y11391680D01*
X88511762Y11279762D01*
X88623680Y11187913D01*
X88751367Y11119663D01*
X88889915Y11077635D01*
X88997895Y11067000D01*
X89034000Y11063444D01*
X89070105Y11067000D01*
X108798199Y11067000D01*
X108538002Y10806803D01*
X108508999Y10783001D01*
X108460952Y10724455D01*
X108414026Y10667276D01*
X108360107Y10566401D01*
X108343454Y10535246D01*
X108299997Y10391985D01*
X108289000Y10280332D01*
X108289000Y10280322D01*
X108285324Y10243000D01*
X108289000Y10205677D01*
X108289000Y10171179D01*
X108102368Y10046475D01*
X107895525Y9839632D01*
X107779000Y9665240D01*
X107662475Y9839632D01*
X107455632Y10046475D01*
X107212411Y10208990D01*
X106942158Y10320932D01*
X106655260Y10378000D01*
X106362740Y10378000D01*
X106075842Y10320932D01*
X105805589Y10208990D01*
X105562368Y10046475D01*
X105355525Y9839632D01*
X105239000Y9665240D01*
X105122475Y9839632D01*
X104915632Y10046475D01*
X104672411Y10208990D01*
X104402158Y10320932D01*
X104115260Y10378000D01*
X103822740Y10378000D01*
X103535842Y10320932D01*
X103265589Y10208990D01*
X103022368Y10046475D01*
X102890513Y9914620D01*
X102868502Y9987180D01*
X102809537Y10097494D01*
X102730185Y10194185D01*
X102633494Y10273537D01*
X102523180Y10332502D01*
X102403482Y10368812D01*
X102279000Y10381072D01*
X101714750Y10378000D01*
X101556000Y10219250D01*
X101556000Y9020000D01*
X101576000Y9020000D01*
X101576000Y8766000D01*
X101556000Y8766000D01*
X101556000Y7566750D01*
X101714750Y7408000D01*
X102279000Y7404928D01*
X102403482Y7417188D01*
X102523180Y7453498D01*
X102633494Y7512463D01*
X102730185Y7591815D01*
X102809537Y7688506D01*
X102868502Y7798820D01*
X102890513Y7871380D01*
X103022368Y7739525D01*
X103265589Y7577010D01*
X103535842Y7465068D01*
X103822740Y7408000D01*
X104115260Y7408000D01*
X104402158Y7465068D01*
X104672411Y7577010D01*
X104915632Y7739525D01*
X105122475Y7946368D01*
X105239000Y8120760D01*
X105355525Y7946368D01*
X105562368Y7739525D01*
X105805589Y7577010D01*
X106075842Y7465068D01*
X106362740Y7408000D01*
X106655260Y7408000D01*
X106942158Y7465068D01*
X107212411Y7577010D01*
X107455632Y7739525D01*
X107662475Y7946368D01*
X107779000Y8120760D01*
X107895525Y7946368D01*
X108102368Y7739525D01*
X108345589Y7577010D01*
X108615842Y7465068D01*
X108902740Y7408000D01*
X109195260Y7408000D01*
X109482158Y7465068D01*
X109752411Y7577010D01*
X109995632Y7739525D01*
X110202475Y7946368D01*
X110319000Y8120760D01*
X110435525Y7946368D01*
X110642368Y7739525D01*
X110829000Y7614821D01*
X110829000Y7509802D01*
X109667199Y6348000D01*
X98358802Y6348000D01*
X96663802Y8043000D01*
X99940928Y8043000D01*
X99953188Y7918518D01*
X99989498Y7798820D01*
X100048463Y7688506D01*
X100127815Y7591815D01*
X100224506Y7512463D01*
X100334820Y7453498D01*
X100454518Y7417188D01*
X100579000Y7404928D01*
X101143250Y7408000D01*
X101302000Y7566750D01*
X101302000Y8766000D01*
X100102750Y8766000D01*
X99944000Y8607250D01*
X99940928Y8043000D01*
X96663802Y8043000D01*
X96321804Y8384997D01*
X96298001Y8414001D01*
X96182276Y8508974D01*
X96050247Y8579546D01*
X95906986Y8623003D01*
X95795333Y8634000D01*
X95795322Y8634000D01*
X95758000Y8637676D01*
X95720678Y8634000D01*
X85127325Y8634000D01*
X85090000Y8637676D01*
X85052675Y8634000D01*
X85052667Y8634000D01*
X84941014Y8623003D01*
X84797753Y8579546D01*
X84665724Y8508974D01*
X84549999Y8414001D01*
X84526201Y8385003D01*
X78933199Y2792000D01*
X77555341Y2792000D01*
X77618039Y2854698D01*
X77748535Y3050000D01*
X77940678Y3050000D01*
X77978000Y3046324D01*
X78015322Y3050000D01*
X78015333Y3050000D01*
X78126986Y3060997D01*
X78270247Y3104454D01*
X78402276Y3175026D01*
X78518001Y3269999D01*
X78541803Y3299002D01*
X79251004Y4008202D01*
X79280001Y4031999D01*
X79374974Y4147724D01*
X79445546Y4279753D01*
X79489003Y4423014D01*
X79500000Y4534667D01*
X79500000Y4534675D01*
X79503676Y4572000D01*
X79500000Y4609325D01*
X79500000Y9743000D01*
X99940928Y9743000D01*
X99944000Y9178750D01*
X100102750Y9020000D01*
X101302000Y9020000D01*
X101302000Y10219250D01*
X101143250Y10378000D01*
X100579000Y10381072D01*
X100454518Y10368812D01*
X100334820Y10332502D01*
X100224506Y10273537D01*
X100127815Y10194185D01*
X100048463Y10097494D01*
X99989498Y9987180D01*
X99953188Y9867482D01*
X99940928Y9743000D01*
X79500000Y9743000D01*
X79500000Y10021078D01*
X79503676Y10058401D01*
X79500000Y10095724D01*
X79500000Y10095733D01*
X79489003Y10207386D01*
X79445546Y10350647D01*
X79374974Y10482676D01*
X79280001Y10598401D01*
X79251003Y10622199D01*
X71094202Y18779000D01*
X77351928Y18779000D01*
X77364188Y18654518D01*
X77400498Y18534820D01*
X77459463Y18424506D01*
X77538815Y18327815D01*
X77635506Y18248463D01*
X77745820Y18189498D01*
X77865518Y18153188D01*
X77990000Y18140928D01*
X78454250Y18144000D01*
X78613000Y18302750D01*
X78613000Y19177000D01*
X78867000Y19177000D01*
X78867000Y18302750D01*
X79025750Y18144000D01*
X79490000Y18140928D01*
X79614482Y18153188D01*
X79734180Y18189498D01*
X79844494Y18248463D01*
X79941185Y18327815D01*
X80020537Y18424506D01*
X80079502Y18534820D01*
X80115812Y18654518D01*
X80128072Y18779000D01*
X80125000Y19018250D01*
X79966250Y19177000D01*
X78867000Y19177000D01*
X78613000Y19177000D01*
X77513750Y19177000D01*
X77355000Y19018250D01*
X77351928Y18779000D01*
X71094202Y18779000D01*
X70059202Y19814000D01*
X77352121Y19814000D01*
X77355000Y19589750D01*
X77513750Y19431000D01*
X78286891Y19431000D01*
X78287600Y19430785D01*
X78458021Y19414000D01*
X79021979Y19414000D01*
X79192400Y19430785D01*
X79193109Y19431000D01*
X79966250Y19431000D01*
X80125000Y19589750D01*
X80128072Y19829000D01*
X80115812Y19953482D01*
X80079502Y20073180D01*
X80044907Y20137902D01*
X80108215Y20346600D01*
X80130612Y20574000D01*
X80108215Y20801400D01*
X80041885Y21020060D01*
X79940895Y21209000D01*
X80041885Y21397940D01*
X80108215Y21616600D01*
X80130612Y21844000D01*
X80108215Y22071400D01*
X80041885Y22290060D01*
X79934171Y22491579D01*
X79789212Y22668212D01*
X79612579Y22813171D01*
X79500000Y22873346D01*
X79500000Y23673957D01*
X79654759Y23777363D01*
X79854637Y23977241D01*
X80011680Y24212273D01*
X80119853Y24473426D01*
X80175000Y24750665D01*
X80175000Y25033335D01*
X80119853Y25310574D01*
X80011680Y25571727D01*
X79931317Y25692000D01*
X81365928Y25692000D01*
X81365928Y24092000D01*
X81378188Y23967518D01*
X81414498Y23847820D01*
X81473463Y23737506D01*
X81552815Y23640815D01*
X81649506Y23561463D01*
X81759820Y23502498D01*
X81879518Y23466188D01*
X82004000Y23453928D01*
X83604000Y23453928D01*
X83728482Y23466188D01*
X83848180Y23502498D01*
X83958494Y23561463D01*
X84055185Y23640815D01*
X84134537Y23737506D01*
X84193502Y23847820D01*
X84229812Y23967518D01*
X84242072Y24092000D01*
X84242072Y25692000D01*
X84229812Y25816482D01*
X84193502Y25936180D01*
X84134537Y26046494D01*
X84055185Y26143185D01*
X83958494Y26222537D01*
X83848180Y26281502D01*
X83728482Y26317812D01*
X83604000Y26330072D01*
X82004000Y26330072D01*
X81879518Y26317812D01*
X81759820Y26281502D01*
X81649506Y26222537D01*
X81552815Y26143185D01*
X81473463Y26046494D01*
X81414498Y25936180D01*
X81378188Y25816482D01*
X81365928Y25692000D01*
X79931317Y25692000D01*
X79854637Y25806759D01*
X79654759Y26006637D01*
X79419727Y26163680D01*
X79158574Y26271853D01*
X78881335Y26327000D01*
X78598665Y26327000D01*
X78321426Y26271853D01*
X78060273Y26163680D01*
X77825241Y26006637D01*
X77625363Y25806759D01*
X77468320Y25571727D01*
X77360147Y25310574D01*
X77305000Y25033335D01*
X77305000Y24750665D01*
X77360147Y24473426D01*
X77468320Y24212273D01*
X77625363Y23977241D01*
X77825241Y23777363D01*
X77980001Y23673956D01*
X77980000Y22873346D01*
X77867421Y22813171D01*
X77690788Y22668212D01*
X77545829Y22491579D01*
X77438115Y22290060D01*
X77371785Y22071400D01*
X77349388Y21844000D01*
X77371785Y21616600D01*
X77438115Y21397940D01*
X77472292Y21334000D01*
X70164802Y21334000D01*
X65917769Y25581033D01*
X68215000Y25581033D01*
X68215000Y25258967D01*
X68277832Y24943088D01*
X68401082Y24645537D01*
X68580013Y24377748D01*
X68807748Y24150013D01*
X69075537Y23971082D01*
X69373088Y23847832D01*
X69688967Y23785000D01*
X70011033Y23785000D01*
X70326912Y23847832D01*
X70624463Y23971082D01*
X70892252Y24150013D01*
X71119987Y24377748D01*
X71298918Y24645537D01*
X71304909Y24660000D01*
X73388678Y24660000D01*
X73426000Y24656324D01*
X73463322Y24660000D01*
X73463333Y24660000D01*
X73574986Y24670997D01*
X73718247Y24714454D01*
X73850276Y24785026D01*
X73966001Y24879999D01*
X73989804Y24909003D01*
X79251003Y30170201D01*
X79280001Y30193999D01*
X79374974Y30309724D01*
X79445546Y30441753D01*
X79489003Y30585014D01*
X79500000Y30696667D01*
X79500000Y30696677D01*
X79503676Y30734000D01*
X79500000Y30771323D01*
X79500000Y31293957D01*
X79654759Y31397363D01*
X79854637Y31597241D01*
X79958043Y31752000D01*
X81585957Y31752000D01*
X81689363Y31597241D01*
X81889241Y31397363D01*
X82124273Y31240320D01*
X82385426Y31132147D01*
X82662665Y31077000D01*
X82945335Y31077000D01*
X83222574Y31132147D01*
X83483727Y31240320D01*
X83718759Y31397363D01*
X83918637Y31597241D01*
X84075680Y31832273D01*
X84183853Y32093426D01*
X84239000Y32370665D01*
X84239000Y32653335D01*
X84183853Y32930574D01*
X84075680Y33191727D01*
X83918637Y33426759D01*
X83718759Y33626637D01*
X83483727Y33783680D01*
X83222574Y33891853D01*
X82945335Y33947000D01*
X82662665Y33947000D01*
X82385426Y33891853D01*
X82124273Y33783680D01*
X81889241Y33626637D01*
X81689363Y33426759D01*
X81585957Y33272000D01*
X79958043Y33272000D01*
X79854637Y33426759D01*
X79654759Y33626637D01*
X79419727Y33783680D01*
X79158574Y33891853D01*
X78881335Y33947000D01*
X78598665Y33947000D01*
X78321426Y33891853D01*
X78060273Y33783680D01*
X77825241Y33626637D01*
X77625363Y33426759D01*
X77468320Y33191727D01*
X77360147Y32930574D01*
X77305000Y32653335D01*
X77305000Y32370665D01*
X77360147Y32093426D01*
X77468320Y31832273D01*
X77625363Y31597241D01*
X77825241Y31397363D01*
X77980001Y31293956D01*
X77980001Y31048803D01*
X73111199Y26180000D01*
X71304909Y26180000D01*
X71298918Y26194463D01*
X71119987Y26462252D01*
X70892252Y26689987D01*
X70624463Y26868918D01*
X70326912Y26992168D01*
X70011033Y27055000D01*
X69688967Y27055000D01*
X69373088Y26992168D01*
X69075537Y26868918D01*
X68807748Y26689987D01*
X68580013Y26462252D01*
X68401082Y26194463D01*
X68277832Y25896912D01*
X68215000Y25581033D01*
X65917769Y25581033D01*
X58983804Y32514997D01*
X58960001Y32544001D01*
X58844276Y32638974D01*
X58712247Y32709546D01*
X58568986Y32753003D01*
X58457333Y32764000D01*
X58457322Y32764000D01*
X58420000Y32767676D01*
X58382678Y32764000D01*
X51002043Y32764000D01*
X50898637Y32918759D01*
X50698759Y33118637D01*
X50463727Y33275680D01*
X50202574Y33383853D01*
X49925335Y33439000D01*
X49642665Y33439000D01*
X49365426Y33383853D01*
X49104273Y33275680D01*
X48869241Y33118637D01*
X48669363Y32918759D01*
X48512320Y32683727D01*
X48404147Y32422574D01*
X48349000Y32145335D01*
X48349000Y31862665D01*
X48404147Y31585426D01*
X48512320Y31324273D01*
X48669363Y31089241D01*
X48869241Y30889363D01*
X49104273Y30732320D01*
X49105046Y30732000D01*
X28993322Y30732000D01*
X28955999Y30735676D01*
X28918676Y30732000D01*
X28918667Y30732000D01*
X28807014Y30721003D01*
X28663753Y30677546D01*
X28531724Y30606974D01*
X28415999Y30512001D01*
X28392201Y30483003D01*
X25180003Y27270804D01*
X25150999Y27247001D01*
X25095871Y27179826D01*
X25056026Y27131276D01*
X24989986Y27007724D01*
X24985454Y26999246D01*
X24941997Y26855985D01*
X24931000Y26744332D01*
X24931000Y26744322D01*
X24927324Y26707000D01*
X24931000Y26669677D01*
X24931000Y26048179D01*
X24744368Y25923475D01*
X24537525Y25716632D01*
X24421000Y25542240D01*
X24304475Y25716632D01*
X24097632Y25923475D01*
X23986000Y25998065D01*
X23986000Y26361133D01*
X31943468Y34318600D01*
X61020533Y34318600D01*
X62880559Y32458573D01*
X62906709Y32426709D01*
X62974999Y32370665D01*
X63033854Y32322364D01*
X63178913Y32244828D01*
X63336311Y32197082D01*
X63499999Y32180960D01*
X63541018Y32185000D01*
X68211928Y32185000D01*
X68211928Y32020000D01*
X68224188Y31895518D01*
X68260498Y31775820D01*
X68319463Y31665506D01*
X68398815Y31568815D01*
X68495506Y31489463D01*
X68605820Y31430498D01*
X68725518Y31394188D01*
X68850000Y31381928D01*
X70850000Y31381928D01*
X70974482Y31394188D01*
X71094180Y31430498D01*
X71204494Y31489463D01*
X71301185Y31568815D01*
X71380537Y31665506D01*
X71439502Y31775820D01*
X71475812Y31895518D01*
X71488072Y32020000D01*
X71488072Y34020000D01*
X71475812Y34144482D01*
X71439502Y34264180D01*
X71380537Y34374494D01*
X71301185Y34471185D01*
X71204494Y34550537D01*
X71094180Y34609502D01*
X70974482Y34645812D01*
X70850000Y34658072D01*
X68850000Y34658072D01*
X68725518Y34645812D01*
X68605820Y34609502D01*
X68495506Y34550537D01*
X68398815Y34471185D01*
X68319463Y34374494D01*
X68260498Y34264180D01*
X68224188Y34144482D01*
X68211928Y34020000D01*
X68211928Y33855000D01*
X63845868Y33855000D01*
X61985846Y35715021D01*
X61959691Y35746891D01*
X61832546Y35851236D01*
X61687487Y35928772D01*
X61530089Y35976518D01*
X61407419Y35988600D01*
X61407418Y35988600D01*
X61366400Y35992640D01*
X61325382Y35988600D01*
X31638607Y35988600D01*
X31597599Y35992639D01*
X31556591Y35988600D01*
X31556581Y35988600D01*
X31433911Y35976518D01*
X31276513Y35928772D01*
X31131454Y35851236D01*
X31004309Y35746891D01*
X30978159Y35715027D01*
X22589579Y27326446D01*
X22557709Y27300291D01*
X22490177Y27218002D01*
X22453364Y27173145D01*
X22375828Y27028086D01*
X22328082Y26870688D01*
X22311960Y26707000D01*
X22316000Y26665981D01*
X22316000Y25998065D01*
X22204368Y25923475D01*
X22072513Y25791620D01*
X22050502Y25864180D01*
X21991537Y25974494D01*
X21912185Y26071185D01*
X21815494Y26150537D01*
X21705180Y26209502D01*
X21585482Y26245812D01*
X21461000Y26258072D01*
X20896750Y26255000D01*
X20738000Y26096250D01*
X20738000Y24897000D01*
X20758000Y24897000D01*
X20758000Y24643000D01*
X20738000Y24643000D01*
X20738000Y23443750D01*
X20896750Y23285000D01*
X21461000Y23281928D01*
X21585482Y23294188D01*
X21705180Y23330498D01*
X21815494Y23389463D01*
X21912185Y23468815D01*
X21991537Y23565506D01*
X22050502Y23675820D01*
X22072513Y23748380D01*
X22204368Y23616525D01*
X22316000Y23541935D01*
X22316001Y15371029D01*
X22316000Y15371019D01*
X22316000Y15318018D01*
X22316001Y6018066D01*
X22204368Y5943475D01*
X22072513Y5811620D01*
X22050502Y5884180D01*
X21991537Y5994494D01*
X21912185Y6091185D01*
X21815494Y6170537D01*
X21705180Y6229502D01*
X21585482Y6265812D01*
X21461000Y6278072D01*
X20896750Y6275000D01*
X20738000Y6116250D01*
X20738000Y4917000D01*
X20758000Y4917000D01*
X20758000Y4663000D01*
X20738000Y4663000D01*
X20738000Y3463750D01*
X20896750Y3305000D01*
X21461000Y3301928D01*
X21585482Y3314188D01*
X21705180Y3350498D01*
X21815494Y3409463D01*
X21912185Y3488815D01*
X21991537Y3585506D01*
X22050502Y3695820D01*
X22072513Y3768380D01*
X22204368Y3636525D01*
X22447589Y3474010D01*
X22717842Y3362068D01*
X23004740Y3305000D01*
X23297260Y3305000D01*
X23584158Y3362068D01*
X23854411Y3474010D01*
X24097632Y3636525D01*
X24304475Y3843368D01*
X24421000Y4017760D01*
X24537525Y3843368D01*
X24744368Y3636525D01*
X24987589Y3474010D01*
X25257842Y3362068D01*
X25544740Y3305000D01*
X25837260Y3305000D01*
X26124158Y3362068D01*
X26394411Y3474010D01*
X26637632Y3636525D01*
X26844475Y3843368D01*
X26961000Y4017760D01*
X27077525Y3843368D01*
X27284368Y3636525D01*
X27527589Y3474010D01*
X27797842Y3362068D01*
X28084740Y3305000D01*
X28377260Y3305000D01*
X28664158Y3362068D01*
X28934411Y3474010D01*
X29177632Y3636525D01*
X29384475Y3843368D01*
X29501000Y4017760D01*
X29617525Y3843368D01*
X29824368Y3636525D01*
X30067589Y3474010D01*
X30337842Y3362068D01*
X30624740Y3305000D01*
X30917260Y3305000D01*
X31204158Y3362068D01*
X31474411Y3474010D01*
X31717632Y3636525D01*
X31924475Y3843368D01*
X32041000Y4017760D01*
X32157525Y3843368D01*
X32364368Y3636525D01*
X32607589Y3474010D01*
X32877842Y3362068D01*
X33164740Y3305000D01*
X33457260Y3305000D01*
X33744158Y3362068D01*
X34014411Y3474010D01*
X34257632Y3636525D01*
X34464475Y3843368D01*
X34581000Y4017760D01*
X34697525Y3843368D01*
X34904368Y3636525D01*
X35147589Y3474010D01*
X35417842Y3362068D01*
X35704740Y3305000D01*
X35997260Y3305000D01*
X36284158Y3362068D01*
X36554411Y3474010D01*
X36797632Y3636525D01*
X37004475Y3843368D01*
X37166990Y4086589D01*
X37278932Y4356842D01*
X37336000Y4643740D01*
X37336000Y4936260D01*
X37278932Y5223158D01*
X37166990Y5493411D01*
X37004475Y5736632D01*
X36797632Y5943475D01*
X36611000Y6068178D01*
X36611000Y11101677D01*
X36614676Y11139000D01*
X36611000Y11176323D01*
X36611000Y11176333D01*
X36600003Y11287986D01*
X36556546Y11431247D01*
X36485974Y11563277D01*
X36414799Y11650003D01*
X36391001Y11679001D01*
X36362004Y11702798D01*
X34986500Y13078301D01*
X34986500Y14111335D01*
X36969800Y14111335D01*
X36969800Y13828665D01*
X37024947Y13551426D01*
X37133120Y13290273D01*
X37290163Y13055241D01*
X37490041Y12855363D01*
X37725073Y12698320D01*
X37986226Y12590147D01*
X38263465Y12535000D01*
X38546135Y12535000D01*
X38823374Y12590147D01*
X39084527Y12698320D01*
X39319559Y12855363D01*
X39519437Y13055241D01*
X39676480Y13290273D01*
X39784653Y13551426D01*
X39839800Y13828665D01*
X39839800Y14111335D01*
X39916200Y14111335D01*
X39916200Y13828665D01*
X39971347Y13551426D01*
X40079520Y13290273D01*
X40236563Y13055241D01*
X40436441Y12855363D01*
X40671473Y12698320D01*
X40932626Y12590147D01*
X41209865Y12535000D01*
X41492535Y12535000D01*
X41769774Y12590147D01*
X42030927Y12698320D01*
X42265959Y12855363D01*
X42465837Y13055241D01*
X42622880Y13290273D01*
X42731053Y13551426D01*
X42786200Y13828665D01*
X42786200Y14111335D01*
X47536200Y14111335D01*
X47536200Y13828665D01*
X47591347Y13551426D01*
X47699520Y13290273D01*
X47856563Y13055241D01*
X48056441Y12855363D01*
X48291473Y12698320D01*
X48552626Y12590147D01*
X48829865Y12535000D01*
X49112535Y12535000D01*
X49389774Y12590147D01*
X49650927Y12698320D01*
X49885959Y12855363D01*
X50085837Y13055241D01*
X50242880Y13290273D01*
X50351053Y13551426D01*
X50406200Y13828665D01*
X50406200Y14111335D01*
X50351053Y14388574D01*
X50242880Y14649727D01*
X50085837Y14884759D01*
X49885959Y15084637D01*
X49650927Y15241680D01*
X49389774Y15349853D01*
X49112535Y15405000D01*
X48829865Y15405000D01*
X48552626Y15349853D01*
X48291473Y15241680D01*
X48056441Y15084637D01*
X47856563Y14884759D01*
X47699520Y14649727D01*
X47591347Y14388574D01*
X47536200Y14111335D01*
X42786200Y14111335D01*
X42731053Y14388574D01*
X42622880Y14649727D01*
X42465837Y14884759D01*
X42265959Y15084637D01*
X42030927Y15241680D01*
X41769774Y15349853D01*
X41492535Y15405000D01*
X41209865Y15405000D01*
X40932626Y15349853D01*
X40671473Y15241680D01*
X40436441Y15084637D01*
X40236563Y14884759D01*
X40079520Y14649727D01*
X39971347Y14388574D01*
X39916200Y14111335D01*
X39839800Y14111335D01*
X39784653Y14388574D01*
X39676480Y14649727D01*
X39519437Y14884759D01*
X39319559Y15084637D01*
X39084527Y15241680D01*
X38823374Y15349853D01*
X38546135Y15405000D01*
X38263465Y15405000D01*
X37986226Y15349853D01*
X37725073Y15241680D01*
X37490041Y15084637D01*
X37290163Y14884759D01*
X37133120Y14649727D01*
X37024947Y14388574D01*
X36969800Y14111335D01*
X34986500Y14111335D01*
X34986500Y17911002D01*
X35185073Y17778320D01*
X35446226Y17670147D01*
X35723465Y17615000D01*
X36006135Y17615000D01*
X36283374Y17670147D01*
X36544527Y17778320D01*
X36779559Y17935363D01*
X36979437Y18135241D01*
X37136480Y18370273D01*
X37244653Y18631426D01*
X37299800Y18908665D01*
X37299800Y19191335D01*
X37325400Y19191335D01*
X37325400Y18908665D01*
X37380547Y18631426D01*
X37488720Y18370273D01*
X37645763Y18135241D01*
X37845641Y17935363D01*
X38080673Y17778320D01*
X38341826Y17670147D01*
X38619065Y17615000D01*
X38901735Y17615000D01*
X39178974Y17670147D01*
X39440127Y17778320D01*
X39675159Y17935363D01*
X39875037Y18135241D01*
X40032080Y18370273D01*
X40140253Y18631426D01*
X40195400Y18908665D01*
X40195400Y19191335D01*
X44945400Y19191335D01*
X44945400Y18908665D01*
X45000547Y18631426D01*
X45108720Y18370273D01*
X45265763Y18135241D01*
X45465641Y17935363D01*
X45700673Y17778320D01*
X45961826Y17670147D01*
X46239065Y17615000D01*
X46521735Y17615000D01*
X46798974Y17670147D01*
X47060127Y17778320D01*
X47295159Y17935363D01*
X47495037Y18135241D01*
X47649745Y18366779D01*
X51926000Y18366779D01*
X51926000Y17802822D01*
X51942785Y17632401D01*
X52009115Y17413741D01*
X52116829Y17212222D01*
X52261788Y17035588D01*
X52438421Y16890629D01*
X52639940Y16782915D01*
X52858600Y16716585D01*
X53086000Y16694188D01*
X53313399Y16716585D01*
X53532059Y16782915D01*
X53721000Y16883906D01*
X53909940Y16782915D01*
X54128600Y16716585D01*
X54356000Y16694188D01*
X54583399Y16716585D01*
X54792098Y16779893D01*
X54856820Y16745298D01*
X54976518Y16708988D01*
X55101000Y16696728D01*
X55340250Y16699800D01*
X55499000Y16858550D01*
X55499000Y17631691D01*
X55499215Y17632400D01*
X55516000Y17802821D01*
X55516000Y17957800D01*
X55753000Y17957800D01*
X55753000Y16858550D01*
X55911750Y16699800D01*
X56151000Y16696728D01*
X56275482Y16708988D01*
X56395180Y16745298D01*
X56505494Y16804263D01*
X56602185Y16883615D01*
X56681537Y16980306D01*
X56740502Y17090620D01*
X56776812Y17210318D01*
X56789072Y17334800D01*
X56786000Y17799050D01*
X56627250Y17957800D01*
X55753000Y17957800D01*
X55516000Y17957800D01*
X55516000Y18366778D01*
X55499215Y18537199D01*
X55499000Y18537908D01*
X55499000Y19311050D01*
X55753000Y19311050D01*
X55753000Y18211800D01*
X56627250Y18211800D01*
X56786000Y18370550D01*
X56789072Y18834800D01*
X56776812Y18959282D01*
X56740502Y19078980D01*
X56681537Y19189294D01*
X56602185Y19285985D01*
X56505494Y19365337D01*
X56395180Y19424302D01*
X56275482Y19460612D01*
X56151000Y19472872D01*
X55911750Y19469800D01*
X55753000Y19311050D01*
X55499000Y19311050D01*
X55340250Y19469800D01*
X55101000Y19472872D01*
X54976518Y19460612D01*
X54856820Y19424302D01*
X54792098Y19389707D01*
X54583400Y19453015D01*
X54356000Y19475412D01*
X54128601Y19453015D01*
X53909941Y19386685D01*
X53721001Y19285694D01*
X53532060Y19386685D01*
X53313400Y19453015D01*
X53086000Y19475412D01*
X52858601Y19453015D01*
X52639941Y19386685D01*
X52438422Y19278971D01*
X52261789Y19134012D01*
X52116830Y18957379D01*
X52009115Y18755860D01*
X51942785Y18537200D01*
X51926000Y18366779D01*
X47649745Y18366779D01*
X47652080Y18370273D01*
X47760253Y18631426D01*
X47815400Y18908665D01*
X47815400Y19191335D01*
X47760253Y19468574D01*
X47652080Y19729727D01*
X47495037Y19964759D01*
X47295159Y20164637D01*
X47060127Y20321680D01*
X46798974Y20429853D01*
X46521735Y20485000D01*
X46239065Y20485000D01*
X45961826Y20429853D01*
X45700673Y20321680D01*
X45465641Y20164637D01*
X45265763Y19964759D01*
X45108720Y19729727D01*
X45000547Y19468574D01*
X44945400Y19191335D01*
X40195400Y19191335D01*
X40140253Y19468574D01*
X40032080Y19729727D01*
X39875037Y19964759D01*
X39675159Y20164637D01*
X39440127Y20321680D01*
X39178974Y20429853D01*
X38901735Y20485000D01*
X38619065Y20485000D01*
X38341826Y20429853D01*
X38080673Y20321680D01*
X37845641Y20164637D01*
X37645763Y19964759D01*
X37488720Y19729727D01*
X37380547Y19468574D01*
X37325400Y19191335D01*
X37299800Y19191335D01*
X37244653Y19468574D01*
X37136480Y19729727D01*
X36979437Y19964759D01*
X36779559Y20164637D01*
X36544527Y20321680D01*
X36283374Y20429853D01*
X36006135Y20485000D01*
X35723465Y20485000D01*
X35446226Y20429853D01*
X35185073Y20321680D01*
X34986500Y20188998D01*
X34986500Y21628618D01*
X36362003Y23004120D01*
X36391001Y23027918D01*
X36460268Y23112320D01*
X36485974Y23143642D01*
X36556546Y23275672D01*
X36573177Y23330498D01*
X36600003Y23418933D01*
X36606913Y23489091D01*
X36797632Y23616525D01*
X37004475Y23823368D01*
X37131909Y24014087D01*
X37202067Y24020997D01*
X37345328Y24064454D01*
X37477357Y24135026D01*
X37593082Y24229999D01*
X37616885Y24259003D01*
X38759883Y25402000D01*
X48772604Y25402000D01*
X48669363Y25298759D01*
X48512320Y25063727D01*
X48404147Y24802574D01*
X48349000Y24525335D01*
X48349000Y24242665D01*
X48404147Y23965426D01*
X48512320Y23704273D01*
X48669363Y23469241D01*
X48869241Y23269363D01*
X49104273Y23112320D01*
X49365426Y23004147D01*
X49642665Y22949000D01*
X49925335Y22949000D01*
X50202574Y23004147D01*
X50463727Y23112320D01*
X50698759Y23269363D01*
X50898637Y23469241D01*
X51002043Y23624000D01*
X52933181Y23624000D01*
X52736595Y23584896D01*
X52493641Y23484261D01*
X52274987Y23338162D01*
X52089038Y23152213D01*
X51942939Y22933559D01*
X51842304Y22690605D01*
X51791000Y22432686D01*
X51791000Y22169714D01*
X51842304Y21911795D01*
X51942939Y21668841D01*
X52089038Y21450187D01*
X52274987Y21264238D01*
X52493641Y21118139D01*
X52736595Y21017504D01*
X52994514Y20966200D01*
X53257486Y20966200D01*
X53515405Y21017504D01*
X53758359Y21118139D01*
X53977013Y21264238D01*
X54092706Y21379931D01*
X54884336Y21379931D01*
X54943797Y21146163D01*
X55182242Y21035266D01*
X55437740Y20973017D01*
X55700473Y20961810D01*
X55960344Y21002075D01*
X56207366Y21092265D01*
X56308203Y21146163D01*
X56367664Y21379931D01*
X55626000Y22121595D01*
X54884336Y21379931D01*
X54092706Y21379931D01*
X54162962Y21450187D01*
X54309061Y21668841D01*
X54376361Y21831318D01*
X54417065Y21719834D01*
X54470963Y21618997D01*
X54704731Y21559536D01*
X55446395Y22301200D01*
X54704731Y23042864D01*
X54470963Y22983403D01*
X54374408Y22775796D01*
X54309061Y22933559D01*
X54162962Y23152213D01*
X53977013Y23338162D01*
X53758359Y23484261D01*
X53515405Y23584896D01*
X53318819Y23624000D01*
X55444455Y23624000D01*
X55291656Y23600325D01*
X55044634Y23510135D01*
X54943797Y23456237D01*
X54884336Y23222469D01*
X55626000Y22480805D01*
X55640143Y22494947D01*
X55819748Y22315342D01*
X55805605Y22301200D01*
X56547269Y21559536D01*
X56781037Y21618997D01*
X56891934Y21857442D01*
X56954183Y22112940D01*
X56965390Y22375673D01*
X56925125Y22635544D01*
X56875824Y22770574D01*
X58015601Y21630797D01*
X58015600Y7577088D01*
X55234927Y4796414D01*
X55057302Y4974039D01*
X54898719Y5080000D01*
X55057302Y5185961D01*
X55266039Y5394698D01*
X55430042Y5640147D01*
X55543010Y5912875D01*
X55600600Y6202401D01*
X55600600Y6497599D01*
X55543010Y6787125D01*
X55430042Y7059853D01*
X55266039Y7305302D01*
X55057302Y7514039D01*
X54811853Y7678042D01*
X54539125Y7791010D01*
X54249599Y7848600D01*
X53954401Y7848600D01*
X53664875Y7791010D01*
X53392147Y7678042D01*
X53146698Y7514039D01*
X52937961Y7305302D01*
X52832000Y7146719D01*
X52726039Y7305302D01*
X52517302Y7514039D01*
X52271853Y7678042D01*
X51999125Y7791010D01*
X51790034Y7832601D01*
X51883087Y7860828D01*
X52028146Y7938364D01*
X52155291Y8042709D01*
X52181446Y8074579D01*
X53687428Y9580560D01*
X53719291Y9606709D01*
X53823636Y9733854D01*
X53901172Y9878913D01*
X53948918Y10036311D01*
X53961000Y10158981D01*
X53961000Y10158982D01*
X53965040Y10199999D01*
X53961000Y10241018D01*
X53961000Y13481139D01*
X53977013Y13491838D01*
X54092706Y13607531D01*
X54884336Y13607531D01*
X54943797Y13373763D01*
X55182242Y13262866D01*
X55437740Y13200617D01*
X55700473Y13189410D01*
X55960344Y13229675D01*
X56207366Y13319865D01*
X56308203Y13373763D01*
X56367664Y13607531D01*
X55626000Y14349195D01*
X54884336Y13607531D01*
X54092706Y13607531D01*
X54162962Y13677787D01*
X54309061Y13896441D01*
X54376361Y14058918D01*
X54417065Y13947434D01*
X54470963Y13846597D01*
X54704731Y13787136D01*
X55446395Y14528800D01*
X55805605Y14528800D01*
X56547269Y13787136D01*
X56781037Y13846597D01*
X56891934Y14085042D01*
X56954183Y14340540D01*
X56965390Y14603273D01*
X56925125Y14863144D01*
X56834935Y15110166D01*
X56781037Y15211003D01*
X56547269Y15270464D01*
X55805605Y14528800D01*
X55446395Y14528800D01*
X54704731Y15270464D01*
X54470963Y15211003D01*
X54374408Y15003396D01*
X54309061Y15161159D01*
X54162962Y15379813D01*
X54092706Y15450069D01*
X54884336Y15450069D01*
X55626000Y14708405D01*
X56367664Y15450069D01*
X56308203Y15683837D01*
X56069758Y15794734D01*
X55814260Y15856983D01*
X55551527Y15868190D01*
X55291656Y15827925D01*
X55044634Y15737735D01*
X54943797Y15683837D01*
X54884336Y15450069D01*
X54092706Y15450069D01*
X53977013Y15565762D01*
X53758359Y15711861D01*
X53515405Y15812496D01*
X53257486Y15863800D01*
X52994514Y15863800D01*
X52736595Y15812496D01*
X52493641Y15711861D01*
X52274987Y15565762D01*
X52089038Y15379813D01*
X51942939Y15161159D01*
X51842304Y14918205D01*
X51791000Y14660286D01*
X51791000Y14397314D01*
X51842304Y14139395D01*
X51942939Y13896441D01*
X52089038Y13677787D01*
X52274987Y13491838D01*
X52291001Y13481138D01*
X52291000Y12150982D01*
X52291001Y12150972D01*
X52291000Y10545868D01*
X51216133Y9471000D01*
X45049818Y9471000D01*
X45008799Y9475040D01*
X44967781Y9471000D01*
X44845111Y9458918D01*
X44687713Y9411172D01*
X44542654Y9333636D01*
X44415509Y9229291D01*
X44389361Y9197429D01*
X43380574Y8188641D01*
X43348710Y8162491D01*
X43322562Y8130629D01*
X43244364Y8035345D01*
X43166828Y7890286D01*
X43155115Y7851672D01*
X43078400Y7851672D01*
X42953918Y7839412D01*
X42834220Y7803102D01*
X42723906Y7744137D01*
X42627215Y7664785D01*
X42547863Y7568094D01*
X42488898Y7457780D01*
X42452588Y7338082D01*
X42440328Y7213600D01*
X42440328Y5486400D01*
X42452588Y5361918D01*
X42488898Y5242220D01*
X42547863Y5131906D01*
X42627215Y5035215D01*
X42723906Y4955863D01*
X42834220Y4896898D01*
X42896692Y4877947D01*
X42735183Y4698488D01*
X42585036Y4445978D01*
X42487037Y4169027D01*
X42607536Y3937000D01*
X43815000Y3937000D01*
X43815000Y3957000D01*
X44069000Y3957000D01*
X44069000Y3937000D01*
X44089000Y3937000D01*
X44089000Y3683000D01*
X44069000Y3683000D01*
X44069000Y3663000D01*
X43815000Y3663000D01*
X43815000Y3683000D01*
X42607536Y3683000D01*
X42487037Y3450973D01*
X42585036Y3174022D01*
X42735183Y2921512D01*
X42931707Y2703146D01*
X43152755Y2538000D01*
X19364802Y2538000D01*
X17962802Y3940000D01*
X19122928Y3940000D01*
X19135188Y3815518D01*
X19171498Y3695820D01*
X19230463Y3585506D01*
X19309815Y3488815D01*
X19406506Y3409463D01*
X19516820Y3350498D01*
X19636518Y3314188D01*
X19761000Y3301928D01*
X20325250Y3305000D01*
X20484000Y3463750D01*
X20484000Y4663000D01*
X19284750Y4663000D01*
X19126000Y4504250D01*
X19122928Y3940000D01*
X17962802Y3940000D01*
X16262802Y5640000D01*
X19122928Y5640000D01*
X19126000Y5075750D01*
X19284750Y4917000D01*
X20484000Y4917000D01*
X20484000Y6116250D01*
X20325250Y6275000D01*
X19761000Y6278072D01*
X19636518Y6265812D01*
X19516820Y6229502D01*
X19406506Y6170537D01*
X19309815Y6091185D01*
X19230463Y5994494D01*
X19171498Y5884180D01*
X19135188Y5764482D01*
X19122928Y5640000D01*
X16262802Y5640000D01*
X9904000Y11998801D01*
X9904000Y13432000D01*
X11945928Y13432000D01*
X11958188Y13307518D01*
X11994498Y13187820D01*
X12053463Y13077506D01*
X12132815Y12980815D01*
X12229506Y12901463D01*
X12339820Y12842498D01*
X12459518Y12806188D01*
X12584000Y12793928D01*
X13148250Y12797000D01*
X13307000Y12955750D01*
X13307000Y14155000D01*
X13561000Y14155000D01*
X13561000Y12955750D01*
X13719750Y12797000D01*
X14284000Y12793928D01*
X14408482Y12806188D01*
X14528180Y12842498D01*
X14638494Y12901463D01*
X14735185Y12980815D01*
X14814537Y13077506D01*
X14873502Y13187820D01*
X14909812Y13307518D01*
X14922072Y13432000D01*
X14919000Y13996250D01*
X14760250Y14155000D01*
X13561000Y14155000D01*
X13307000Y14155000D01*
X12107750Y14155000D01*
X11949000Y13996250D01*
X11945928Y13432000D01*
X9904000Y13432000D01*
X9904000Y24069199D01*
X12056802Y26222000D01*
X12155822Y26222000D01*
X12280525Y26035368D01*
X12487368Y25828525D01*
X12661760Y25712000D01*
X12487368Y25595475D01*
X12280525Y25388632D01*
X12118010Y25145411D01*
X12006068Y24875158D01*
X11949000Y24588260D01*
X11949000Y24295740D01*
X12006068Y24008842D01*
X12118010Y23738589D01*
X12280525Y23495368D01*
X12487368Y23288525D01*
X12661760Y23172000D01*
X12487368Y23055475D01*
X12280525Y22848632D01*
X12118010Y22605411D01*
X12006068Y22335158D01*
X11949000Y22048260D01*
X11949000Y21755740D01*
X12006068Y21468842D01*
X12118010Y21198589D01*
X12280525Y20955368D01*
X12487368Y20748525D01*
X12661760Y20632000D01*
X12487368Y20515475D01*
X12280525Y20308632D01*
X12118010Y20065411D01*
X12006068Y19795158D01*
X11949000Y19508260D01*
X11949000Y19215740D01*
X12006068Y18928842D01*
X12118010Y18658589D01*
X12280525Y18415368D01*
X12487368Y18208525D01*
X12661760Y18092000D01*
X12487368Y17975475D01*
X12280525Y17768632D01*
X12118010Y17525411D01*
X12006068Y17255158D01*
X11949000Y16968260D01*
X11949000Y16675740D01*
X12006068Y16388842D01*
X12118010Y16118589D01*
X12280525Y15875368D01*
X12412380Y15743513D01*
X12339820Y15721502D01*
X12229506Y15662537D01*
X12132815Y15583185D01*
X12053463Y15486494D01*
X11994498Y15376180D01*
X11958188Y15256482D01*
X11945928Y15132000D01*
X11949000Y14567750D01*
X12107750Y14409000D01*
X13307000Y14409000D01*
X13307000Y14429000D01*
X13561000Y14429000D01*
X13561000Y14409000D01*
X14760250Y14409000D01*
X14919000Y14567750D01*
X14922072Y15132000D01*
X14909812Y15256482D01*
X14873502Y15376180D01*
X14814537Y15486494D01*
X14735185Y15583185D01*
X14638494Y15662537D01*
X14528180Y15721502D01*
X14455620Y15743513D01*
X14587475Y15875368D01*
X14749990Y16118589D01*
X14861932Y16388842D01*
X14919000Y16675740D01*
X14919000Y16968260D01*
X14861932Y17255158D01*
X14749990Y17525411D01*
X14587475Y17768632D01*
X14380632Y17975475D01*
X14206240Y18092000D01*
X14380632Y18208525D01*
X14587475Y18415368D01*
X14749990Y18658589D01*
X14861932Y18928842D01*
X14919000Y19215740D01*
X14919000Y19508260D01*
X14861932Y19795158D01*
X14749990Y20065411D01*
X14587475Y20308632D01*
X14380632Y20515475D01*
X14206240Y20632000D01*
X14380632Y20748525D01*
X14587475Y20955368D01*
X14749990Y21198589D01*
X14861932Y21468842D01*
X14919000Y21755740D01*
X14919000Y22048260D01*
X14861932Y22335158D01*
X14749990Y22605411D01*
X14587475Y22848632D01*
X14380632Y23055475D01*
X14206240Y23172000D01*
X14380632Y23288525D01*
X14587475Y23495368D01*
X14749990Y23738589D01*
X14825132Y23920000D01*
X19122928Y23920000D01*
X19135188Y23795518D01*
X19171498Y23675820D01*
X19230463Y23565506D01*
X19309815Y23468815D01*
X19406506Y23389463D01*
X19516820Y23330498D01*
X19636518Y23294188D01*
X19761000Y23281928D01*
X20325250Y23285000D01*
X20484000Y23443750D01*
X20484000Y24643000D01*
X19284750Y24643000D01*
X19126000Y24484250D01*
X19122928Y23920000D01*
X14825132Y23920000D01*
X14861932Y24008842D01*
X14919000Y24295740D01*
X14919000Y24588260D01*
X14861932Y24875158D01*
X14749990Y25145411D01*
X14587475Y25388632D01*
X14380632Y25595475D01*
X14343928Y25620000D01*
X19122928Y25620000D01*
X19126000Y25055750D01*
X19284750Y24897000D01*
X20484000Y24897000D01*
X20484000Y26096250D01*
X20325250Y26255000D01*
X19761000Y26258072D01*
X19636518Y26245812D01*
X19516820Y26209502D01*
X19406506Y26150537D01*
X19309815Y26071185D01*
X19230463Y25974494D01*
X19171498Y25864180D01*
X19135188Y25744482D01*
X19122928Y25620000D01*
X14343928Y25620000D01*
X14206240Y25712000D01*
X14380632Y25828525D01*
X14587475Y26035368D01*
X14749990Y26278589D01*
X14861932Y26548842D01*
X14919000Y26835740D01*
X14919000Y27128260D01*
X14861932Y27415158D01*
X14749990Y27685411D01*
X14587475Y27928632D01*
X14380632Y28135475D01*
X14206240Y28252000D01*
X14380632Y28368525D01*
X14587475Y28575368D01*
X14749990Y28818589D01*
X14861932Y29088842D01*
X14919000Y29375740D01*
X14919000Y29668260D01*
X14861932Y29955158D01*
X14749990Y30225411D01*
X14587475Y30468632D01*
X14380632Y30675475D01*
X14137411Y30837990D01*
X13867158Y30949932D01*
X13580260Y31007000D01*
X13287740Y31007000D01*
X13000842Y30949932D01*
X12730589Y30837990D01*
X12487368Y30675475D01*
X12280525Y30468632D01*
X12118010Y30225411D01*
X12006068Y29955158D01*
X11949000Y29668260D01*
X11949000Y29375740D01*
X12006068Y29088842D01*
X12118010Y28818589D01*
X12280525Y28575368D01*
X12487368Y28368525D01*
X12661760Y28252000D01*
X12487368Y28135475D01*
X12280525Y27928632D01*
X12155822Y27742000D01*
X11779323Y27742000D01*
X11742000Y27745676D01*
X11704677Y27742000D01*
X11704667Y27742000D01*
X11593014Y27731003D01*
X11449753Y27687546D01*
X11317724Y27616974D01*
X11201999Y27522001D01*
X11178201Y27493003D01*
X8632998Y24947799D01*
X8604000Y24924001D01*
X8580202Y24895003D01*
X8580201Y24895002D01*
X8509026Y24808276D01*
X8438454Y24676246D01*
X8411765Y24588260D01*
X8394998Y24532986D01*
X8390198Y24484250D01*
X8380324Y24384000D01*
X8384001Y24346668D01*
X8384000Y11721322D01*
X8380324Y11684000D01*
X8384000Y11646678D01*
X8384000Y11646668D01*
X8394997Y11535015D01*
X8426852Y11430001D01*
X8438454Y11391754D01*
X8509026Y11259724D01*
X8546348Y11214247D01*
X8603999Y11143999D01*
X8633003Y11120196D01*
X18486201Y1266997D01*
X18509999Y1237999D01*
X18538997Y1214201D01*
X18625724Y1143026D01*
X18757753Y1072454D01*
X18874631Y1037000D01*
X4638447Y1037000D01*
X4409760Y1265686D01*
X4682075Y1152890D01*
X5113872Y1067000D01*
X5554128Y1067000D01*
X5985925Y1152890D01*
X6392669Y1321369D01*
X6758729Y1565962D01*
X7070038Y1877271D01*
X7314631Y2243331D01*
X7483110Y2650075D01*
X7569000Y3081872D01*
X7569000Y3522128D01*
X7483110Y3953925D01*
X7314631Y4360669D01*
X7070038Y4726729D01*
X6758729Y5038038D01*
X6392669Y5282631D01*
X5985925Y5451110D01*
X5554128Y5537000D01*
X5113872Y5537000D01*
X4682075Y5451110D01*
X4275331Y5282631D01*
X3909271Y5038038D01*
X3597962Y4726729D01*
X3353369Y4360669D01*
X3184890Y3953925D01*
X3099000Y3522128D01*
X3099000Y3081872D01*
X3184890Y2650075D01*
X3297687Y2377760D01*
X1069000Y4606446D01*
X1069000Y37997554D01*
X3297687Y40226240D01*
X3184890Y39953925D01*
X3099000Y39522128D01*
X3099000Y39081872D01*
X3184890Y38650075D01*
X3353369Y38243331D01*
X3597962Y37877271D01*
X3909271Y37565962D01*
X4275331Y37321369D01*
X4682075Y37152890D01*
X5113872Y37067000D01*
X5554128Y37067000D01*
X5985925Y37152890D01*
X6392669Y37321369D01*
X6758729Y37565962D01*
X7070038Y37877271D01*
X7314631Y38243331D01*
X7483110Y38650075D01*
X7569000Y39081872D01*
X7569000Y39522128D01*
X7483110Y39953925D01*
X7314631Y40360669D01*
X7070038Y40726729D01*
X6758729Y41038038D01*
X6392669Y41282631D01*
X5985925Y41451110D01*
X5554128Y41537000D01*
X5113872Y41537000D01*
X4682075Y41451110D01*
X4409760Y41338314D01*
X4638447Y41567000D01*
X20306554Y41567000D01*
X23565746Y38307807D01*
G37*
X23565746Y38307807D02*
X23588762Y38279762D01*
X23700680Y38187913D01*
X23828367Y38119663D01*
X23966915Y38077635D01*
X24074895Y38067000D01*
X24074904Y38067000D01*
X24110999Y38063445D01*
X24147094Y38067000D01*
X31074895Y38067000D01*
X31111000Y38063444D01*
X31147105Y38067000D01*
X31255085Y38077635D01*
X31393633Y38119663D01*
X31521320Y38187913D01*
X31633238Y38279762D01*
X31656259Y38307813D01*
X32870574Y39522128D01*
X86299000Y39522128D01*
X86299000Y39081872D01*
X86384890Y38650075D01*
X86553369Y38243331D01*
X86797962Y37877271D01*
X87109271Y37565962D01*
X87475331Y37321369D01*
X87882075Y37152890D01*
X88313872Y37067000D01*
X88754128Y37067000D01*
X89185925Y37152890D01*
X89592669Y37321369D01*
X89958729Y37565962D01*
X90270038Y37877271D01*
X90514631Y38243331D01*
X90683110Y38650075D01*
X90769000Y39081872D01*
X90769000Y39522128D01*
X90683110Y39953925D01*
X90514631Y40360669D01*
X90270038Y40726729D01*
X89958729Y41038038D01*
X89592669Y41282631D01*
X89185925Y41451110D01*
X88754128Y41537000D01*
X88313872Y41537000D01*
X87882075Y41451110D01*
X87475331Y41282631D01*
X87109271Y41038038D01*
X86797962Y40726729D01*
X86553369Y40360669D01*
X86384890Y39953925D01*
X86299000Y39522128D01*
X32870574Y39522128D01*
X34915447Y41567000D01*
X125229554Y41567000D01*
X125458241Y41338313D01*
X125185925Y41451110D01*
X124754128Y41537000D01*
X124313872Y41537000D01*
X123882075Y41451110D01*
X123475331Y41282631D01*
X123109271Y41038038D01*
X122797962Y40726729D01*
X122553369Y40360669D01*
X122384890Y39953925D01*
X122299000Y39522128D01*
X122299000Y39081872D01*
X122384890Y38650075D01*
X122553369Y38243331D01*
X122797962Y37877271D01*
X123109271Y37565962D01*
X123475331Y37321369D01*
X123882075Y37152890D01*
X124313872Y37067000D01*
X124754128Y37067000D01*
X125185925Y37152890D01*
X125592669Y37321369D01*
X125958729Y37565962D01*
X126270038Y37877271D01*
X126514631Y38243331D01*
X126683110Y38650075D01*
X126769000Y39081872D01*
X126769000Y39522128D01*
X126683110Y39953925D01*
X126570313Y40226240D01*
X128799000Y37997553D01*
X128799001Y4606448D01*
X126570313Y2377760D01*
X126683110Y2650075D01*
X126769000Y3081872D01*
X126769000Y3522128D01*
X126683110Y3953925D01*
X126514631Y4360669D01*
X126270038Y4726729D01*
X125958729Y5038038D01*
X125592669Y5282631D01*
X125185925Y5451110D01*
X124754128Y5537000D01*
X124313872Y5537000D01*
X123882075Y5451110D01*
X123475331Y5282631D01*
X123109271Y5038038D01*
X122797962Y4726729D01*
X122553369Y4360669D01*
X122384890Y3953925D01*
X122299000Y3522128D01*
X122299000Y3081872D01*
X122384890Y2650075D01*
X122553369Y2243331D01*
X122797962Y1877271D01*
X123109271Y1565962D01*
X123475331Y1321369D01*
X123882075Y1152890D01*
X124313872Y1067000D01*
X124754128Y1067000D01*
X125185925Y1152890D01*
X125458241Y1265687D01*
X125229554Y1037000D01*
X81359801Y1037000D01*
X83844930Y3522128D01*
X86299000Y3522128D01*
X86299000Y3081872D01*
X86384890Y2650075D01*
X86553369Y2243331D01*
X86797962Y1877271D01*
X87109271Y1565962D01*
X87475331Y1321369D01*
X87882075Y1152890D01*
X88313872Y1067000D01*
X88754128Y1067000D01*
X89185925Y1152890D01*
X89592669Y1321369D01*
X89958729Y1565962D01*
X90270038Y1877271D01*
X90514631Y2243331D01*
X90683110Y2650075D01*
X90769000Y3081872D01*
X90769000Y3522128D01*
X90683110Y3953925D01*
X90514631Y4360669D01*
X90270038Y4726729D01*
X89958729Y5038038D01*
X89592669Y5282631D01*
X89185925Y5451110D01*
X88754128Y5537000D01*
X88313872Y5537000D01*
X87882075Y5451110D01*
X87475331Y5282631D01*
X87109271Y5038038D01*
X86797962Y4726729D01*
X86553369Y4360669D01*
X86384890Y3953925D01*
X86299000Y3522128D01*
X83844930Y3522128D01*
X86166803Y5844000D01*
X94935199Y5844000D01*
X96972201Y3806997D01*
X96995999Y3777999D01*
X97111724Y3683026D01*
X97243753Y3612454D01*
X97387014Y3568997D01*
X97498667Y3558000D01*
X97498676Y3558000D01*
X97535999Y3554324D01*
X97573322Y3558000D01*
X110960678Y3558000D01*
X110998000Y3554324D01*
X111035322Y3558000D01*
X111035333Y3558000D01*
X111146986Y3568997D01*
X111290247Y3612454D01*
X111422276Y3683026D01*
X111538001Y3777999D01*
X111561804Y3807003D01*
X113795004Y6040202D01*
X113824001Y6063999D01*
X113918974Y6179724D01*
X113989546Y6311753D01*
X114033003Y6455014D01*
X114044000Y6566667D01*
X114044000Y6566676D01*
X114047676Y6603999D01*
X114044000Y6641322D01*
X114044000Y10122675D01*
X114047676Y10160000D01*
X114044000Y10197325D01*
X114044000Y10197333D01*
X114033003Y10308986D01*
X113989546Y10452247D01*
X113918974Y10584276D01*
X113824001Y10700001D01*
X113795002Y10723799D01*
X113451802Y11067000D01*
X123997895Y11067000D01*
X124034000Y11063444D01*
X124070105Y11067000D01*
X124178085Y11077635D01*
X124316633Y11119663D01*
X124444320Y11187913D01*
X124556238Y11279762D01*
X124648087Y11391680D01*
X124716337Y11519367D01*
X124758365Y11657915D01*
X124772556Y11802000D01*
X124769000Y11838105D01*
X124769000Y33180120D01*
X124772555Y33216215D01*
X124769000Y33252310D01*
X124769000Y33252319D01*
X124758365Y33360299D01*
X124716337Y33498847D01*
X124648087Y33626534D01*
X124631514Y33646727D01*
X124579253Y33710408D01*
X124579250Y33710411D01*
X124556237Y33738452D01*
X124528198Y33761463D01*
X118993473Y39296187D01*
X118970452Y39324238D01*
X118858534Y39416087D01*
X118730847Y39484337D01*
X118592299Y39526365D01*
X118484319Y39537000D01*
X118448214Y39540556D01*
X118412109Y39537000D01*
X94655892Y39537000D01*
X94619787Y39540556D01*
X94583682Y39537000D01*
X94475702Y39526365D01*
X94337154Y39484337D01*
X94209467Y39416087D01*
X94097549Y39324238D01*
X94074534Y39296194D01*
X88539808Y33761468D01*
X88511762Y33738451D01*
X88419913Y33626533D01*
X88351663Y33498846D01*
X88347811Y33486146D01*
X88309635Y33360299D01*
X88295444Y33216214D01*
X88299000Y33180109D01*
X88299001Y11838115D01*
X88295444Y11802000D01*
X88309635Y11657915D01*
X88351663Y11519367D01*
X88419913Y11391680D01*
X88511762Y11279762D01*
X88623680Y11187913D01*
X88751367Y11119663D01*
X88889915Y11077635D01*
X88997895Y11067000D01*
X89034000Y11063444D01*
X89070105Y11067000D01*
X108798199Y11067000D01*
X108538002Y10806803D01*
X108508999Y10783001D01*
X108460952Y10724455D01*
X108414026Y10667276D01*
X108360107Y10566401D01*
X108343454Y10535246D01*
X108299997Y10391985D01*
X108289000Y10280332D01*
X108289000Y10280322D01*
X108285324Y10243000D01*
X108289000Y10205677D01*
X108289000Y10171179D01*
X108102368Y10046475D01*
X107895525Y9839632D01*
X107779000Y9665240D01*
X107662475Y9839632D01*
X107455632Y10046475D01*
X107212411Y10208990D01*
X106942158Y10320932D01*
X106655260Y10378000D01*
X106362740Y10378000D01*
X106075842Y10320932D01*
X105805589Y10208990D01*
X105562368Y10046475D01*
X105355525Y9839632D01*
X105239000Y9665240D01*
X105122475Y9839632D01*
X104915632Y10046475D01*
X104672411Y10208990D01*
X104402158Y10320932D01*
X104115260Y10378000D01*
X103822740Y10378000D01*
X103535842Y10320932D01*
X103265589Y10208990D01*
X103022368Y10046475D01*
X102890513Y9914620D01*
X102868502Y9987180D01*
X102809537Y10097494D01*
X102730185Y10194185D01*
X102633494Y10273537D01*
X102523180Y10332502D01*
X102403482Y10368812D01*
X102279000Y10381072D01*
X101714750Y10378000D01*
X101556000Y10219250D01*
X101556000Y9020000D01*
X101576000Y9020000D01*
X101576000Y8766000D01*
X101556000Y8766000D01*
X101556000Y7566750D01*
X101714750Y7408000D01*
X102279000Y7404928D01*
X102403482Y7417188D01*
X102523180Y7453498D01*
X102633494Y7512463D01*
X102730185Y7591815D01*
X102809537Y7688506D01*
X102868502Y7798820D01*
X102890513Y7871380D01*
X103022368Y7739525D01*
X103265589Y7577010D01*
X103535842Y7465068D01*
X103822740Y7408000D01*
X104115260Y7408000D01*
X104402158Y7465068D01*
X104672411Y7577010D01*
X104915632Y7739525D01*
X105122475Y7946368D01*
X105239000Y8120760D01*
X105355525Y7946368D01*
X105562368Y7739525D01*
X105805589Y7577010D01*
X106075842Y7465068D01*
X106362740Y7408000D01*
X106655260Y7408000D01*
X106942158Y7465068D01*
X107212411Y7577010D01*
X107455632Y7739525D01*
X107662475Y7946368D01*
X107779000Y8120760D01*
X107895525Y7946368D01*
X108102368Y7739525D01*
X108345589Y7577010D01*
X108615842Y7465068D01*
X108902740Y7408000D01*
X109195260Y7408000D01*
X109482158Y7465068D01*
X109752411Y7577010D01*
X109995632Y7739525D01*
X110202475Y7946368D01*
X110319000Y8120760D01*
X110435525Y7946368D01*
X110642368Y7739525D01*
X110829000Y7614821D01*
X110829000Y7509802D01*
X109667199Y6348000D01*
X98358802Y6348000D01*
X96663802Y8043000D01*
X99940928Y8043000D01*
X99953188Y7918518D01*
X99989498Y7798820D01*
X100048463Y7688506D01*
X100127815Y7591815D01*
X100224506Y7512463D01*
X100334820Y7453498D01*
X100454518Y7417188D01*
X100579000Y7404928D01*
X101143250Y7408000D01*
X101302000Y7566750D01*
X101302000Y8766000D01*
X100102750Y8766000D01*
X99944000Y8607250D01*
X99940928Y8043000D01*
X96663802Y8043000D01*
X96321804Y8384997D01*
X96298001Y8414001D01*
X96182276Y8508974D01*
X96050247Y8579546D01*
X95906986Y8623003D01*
X95795333Y8634000D01*
X95795322Y8634000D01*
X95758000Y8637676D01*
X95720678Y8634000D01*
X85127325Y8634000D01*
X85090000Y8637676D01*
X85052675Y8634000D01*
X85052667Y8634000D01*
X84941014Y8623003D01*
X84797753Y8579546D01*
X84665724Y8508974D01*
X84549999Y8414001D01*
X84526201Y8385003D01*
X78933199Y2792000D01*
X77555341Y2792000D01*
X77618039Y2854698D01*
X77748535Y3050000D01*
X77940678Y3050000D01*
X77978000Y3046324D01*
X78015322Y3050000D01*
X78015333Y3050000D01*
X78126986Y3060997D01*
X78270247Y3104454D01*
X78402276Y3175026D01*
X78518001Y3269999D01*
X78541803Y3299002D01*
X79251004Y4008202D01*
X79280001Y4031999D01*
X79374974Y4147724D01*
X79445546Y4279753D01*
X79489003Y4423014D01*
X79500000Y4534667D01*
X79500000Y4534675D01*
X79503676Y4572000D01*
X79500000Y4609325D01*
X79500000Y9743000D01*
X99940928Y9743000D01*
X99944000Y9178750D01*
X100102750Y9020000D01*
X101302000Y9020000D01*
X101302000Y10219250D01*
X101143250Y10378000D01*
X100579000Y10381072D01*
X100454518Y10368812D01*
X100334820Y10332502D01*
X100224506Y10273537D01*
X100127815Y10194185D01*
X100048463Y10097494D01*
X99989498Y9987180D01*
X99953188Y9867482D01*
X99940928Y9743000D01*
X79500000Y9743000D01*
X79500000Y10021078D01*
X79503676Y10058401D01*
X79500000Y10095724D01*
X79500000Y10095733D01*
X79489003Y10207386D01*
X79445546Y10350647D01*
X79374974Y10482676D01*
X79280001Y10598401D01*
X79251003Y10622199D01*
X71094202Y18779000D01*
X77351928Y18779000D01*
X77364188Y18654518D01*
X77400498Y18534820D01*
X77459463Y18424506D01*
X77538815Y18327815D01*
X77635506Y18248463D01*
X77745820Y18189498D01*
X77865518Y18153188D01*
X77990000Y18140928D01*
X78454250Y18144000D01*
X78613000Y18302750D01*
X78613000Y19177000D01*
X78867000Y19177000D01*
X78867000Y18302750D01*
X79025750Y18144000D01*
X79490000Y18140928D01*
X79614482Y18153188D01*
X79734180Y18189498D01*
X79844494Y18248463D01*
X79941185Y18327815D01*
X80020537Y18424506D01*
X80079502Y18534820D01*
X80115812Y18654518D01*
X80128072Y18779000D01*
X80125000Y19018250D01*
X79966250Y19177000D01*
X78867000Y19177000D01*
X78613000Y19177000D01*
X77513750Y19177000D01*
X77355000Y19018250D01*
X77351928Y18779000D01*
X71094202Y18779000D01*
X70059202Y19814000D01*
X77352121Y19814000D01*
X77355000Y19589750D01*
X77513750Y19431000D01*
X78286891Y19431000D01*
X78287600Y19430785D01*
X78458021Y19414000D01*
X79021979Y19414000D01*
X79192400Y19430785D01*
X79193109Y19431000D01*
X79966250Y19431000D01*
X80125000Y19589750D01*
X80128072Y19829000D01*
X80115812Y19953482D01*
X80079502Y20073180D01*
X80044907Y20137902D01*
X80108215Y20346600D01*
X80130612Y20574000D01*
X80108215Y20801400D01*
X80041885Y21020060D01*
X79940895Y21209000D01*
X80041885Y21397940D01*
X80108215Y21616600D01*
X80130612Y21844000D01*
X80108215Y22071400D01*
X80041885Y22290060D01*
X79934171Y22491579D01*
X79789212Y22668212D01*
X79612579Y22813171D01*
X79500000Y22873346D01*
X79500000Y23673957D01*
X79654759Y23777363D01*
X79854637Y23977241D01*
X80011680Y24212273D01*
X80119853Y24473426D01*
X80175000Y24750665D01*
X80175000Y25033335D01*
X80119853Y25310574D01*
X80011680Y25571727D01*
X79931317Y25692000D01*
X81365928Y25692000D01*
X81365928Y24092000D01*
X81378188Y23967518D01*
X81414498Y23847820D01*
X81473463Y23737506D01*
X81552815Y23640815D01*
X81649506Y23561463D01*
X81759820Y23502498D01*
X81879518Y23466188D01*
X82004000Y23453928D01*
X83604000Y23453928D01*
X83728482Y23466188D01*
X83848180Y23502498D01*
X83958494Y23561463D01*
X84055185Y23640815D01*
X84134537Y23737506D01*
X84193502Y23847820D01*
X84229812Y23967518D01*
X84242072Y24092000D01*
X84242072Y25692000D01*
X84229812Y25816482D01*
X84193502Y25936180D01*
X84134537Y26046494D01*
X84055185Y26143185D01*
X83958494Y26222537D01*
X83848180Y26281502D01*
X83728482Y26317812D01*
X83604000Y26330072D01*
X82004000Y26330072D01*
X81879518Y26317812D01*
X81759820Y26281502D01*
X81649506Y26222537D01*
X81552815Y26143185D01*
X81473463Y26046494D01*
X81414498Y25936180D01*
X81378188Y25816482D01*
X81365928Y25692000D01*
X79931317Y25692000D01*
X79854637Y25806759D01*
X79654759Y26006637D01*
X79419727Y26163680D01*
X79158574Y26271853D01*
X78881335Y26327000D01*
X78598665Y26327000D01*
X78321426Y26271853D01*
X78060273Y26163680D01*
X77825241Y26006637D01*
X77625363Y25806759D01*
X77468320Y25571727D01*
X77360147Y25310574D01*
X77305000Y25033335D01*
X77305000Y24750665D01*
X77360147Y24473426D01*
X77468320Y24212273D01*
X77625363Y23977241D01*
X77825241Y23777363D01*
X77980001Y23673956D01*
X77980000Y22873346D01*
X77867421Y22813171D01*
X77690788Y22668212D01*
X77545829Y22491579D01*
X77438115Y22290060D01*
X77371785Y22071400D01*
X77349388Y21844000D01*
X77371785Y21616600D01*
X77438115Y21397940D01*
X77472292Y21334000D01*
X70164802Y21334000D01*
X65917769Y25581033D01*
X68215000Y25581033D01*
X68215000Y25258967D01*
X68277832Y24943088D01*
X68401082Y24645537D01*
X68580013Y24377748D01*
X68807748Y24150013D01*
X69075537Y23971082D01*
X69373088Y23847832D01*
X69688967Y23785000D01*
X70011033Y23785000D01*
X70326912Y23847832D01*
X70624463Y23971082D01*
X70892252Y24150013D01*
X71119987Y24377748D01*
X71298918Y24645537D01*
X71304909Y24660000D01*
X73388678Y24660000D01*
X73426000Y24656324D01*
X73463322Y24660000D01*
X73463333Y24660000D01*
X73574986Y24670997D01*
X73718247Y24714454D01*
X73850276Y24785026D01*
X73966001Y24879999D01*
X73989804Y24909003D01*
X79251003Y30170201D01*
X79280001Y30193999D01*
X79374974Y30309724D01*
X79445546Y30441753D01*
X79489003Y30585014D01*
X79500000Y30696667D01*
X79500000Y30696677D01*
X79503676Y30734000D01*
X79500000Y30771323D01*
X79500000Y31293957D01*
X79654759Y31397363D01*
X79854637Y31597241D01*
X79958043Y31752000D01*
X81585957Y31752000D01*
X81689363Y31597241D01*
X81889241Y31397363D01*
X82124273Y31240320D01*
X82385426Y31132147D01*
X82662665Y31077000D01*
X82945335Y31077000D01*
X83222574Y31132147D01*
X83483727Y31240320D01*
X83718759Y31397363D01*
X83918637Y31597241D01*
X84075680Y31832273D01*
X84183853Y32093426D01*
X84239000Y32370665D01*
X84239000Y32653335D01*
X84183853Y32930574D01*
X84075680Y33191727D01*
X83918637Y33426759D01*
X83718759Y33626637D01*
X83483727Y33783680D01*
X83222574Y33891853D01*
X82945335Y33947000D01*
X82662665Y33947000D01*
X82385426Y33891853D01*
X82124273Y33783680D01*
X81889241Y33626637D01*
X81689363Y33426759D01*
X81585957Y33272000D01*
X79958043Y33272000D01*
X79854637Y33426759D01*
X79654759Y33626637D01*
X79419727Y33783680D01*
X79158574Y33891853D01*
X78881335Y33947000D01*
X78598665Y33947000D01*
X78321426Y33891853D01*
X78060273Y33783680D01*
X77825241Y33626637D01*
X77625363Y33426759D01*
X77468320Y33191727D01*
X77360147Y32930574D01*
X77305000Y32653335D01*
X77305000Y32370665D01*
X77360147Y32093426D01*
X77468320Y31832273D01*
X77625363Y31597241D01*
X77825241Y31397363D01*
X77980001Y31293956D01*
X77980001Y31048803D01*
X73111199Y26180000D01*
X71304909Y26180000D01*
X71298918Y26194463D01*
X71119987Y26462252D01*
X70892252Y26689987D01*
X70624463Y26868918D01*
X70326912Y26992168D01*
X70011033Y27055000D01*
X69688967Y27055000D01*
X69373088Y26992168D01*
X69075537Y26868918D01*
X68807748Y26689987D01*
X68580013Y26462252D01*
X68401082Y26194463D01*
X68277832Y25896912D01*
X68215000Y25581033D01*
X65917769Y25581033D01*
X58983804Y32514997D01*
X58960001Y32544001D01*
X58844276Y32638974D01*
X58712247Y32709546D01*
X58568986Y32753003D01*
X58457333Y32764000D01*
X58457322Y32764000D01*
X58420000Y32767676D01*
X58382678Y32764000D01*
X51002043Y32764000D01*
X50898637Y32918759D01*
X50698759Y33118637D01*
X50463727Y33275680D01*
X50202574Y33383853D01*
X49925335Y33439000D01*
X49642665Y33439000D01*
X49365426Y33383853D01*
X49104273Y33275680D01*
X48869241Y33118637D01*
X48669363Y32918759D01*
X48512320Y32683727D01*
X48404147Y32422574D01*
X48349000Y32145335D01*
X48349000Y31862665D01*
X48404147Y31585426D01*
X48512320Y31324273D01*
X48669363Y31089241D01*
X48869241Y30889363D01*
X49104273Y30732320D01*
X49105046Y30732000D01*
X28993322Y30732000D01*
X28955999Y30735676D01*
X28918676Y30732000D01*
X28918667Y30732000D01*
X28807014Y30721003D01*
X28663753Y30677546D01*
X28531724Y30606974D01*
X28415999Y30512001D01*
X28392201Y30483003D01*
X25180003Y27270804D01*
X25150999Y27247001D01*
X25095871Y27179826D01*
X25056026Y27131276D01*
X24989986Y27007724D01*
X24985454Y26999246D01*
X24941997Y26855985D01*
X24931000Y26744332D01*
X24931000Y26744322D01*
X24927324Y26707000D01*
X24931000Y26669677D01*
X24931000Y26048179D01*
X24744368Y25923475D01*
X24537525Y25716632D01*
X24421000Y25542240D01*
X24304475Y25716632D01*
X24097632Y25923475D01*
X23986000Y25998065D01*
X23986000Y26361133D01*
X31943468Y34318600D01*
X61020533Y34318600D01*
X62880559Y32458573D01*
X62906709Y32426709D01*
X62974999Y32370665D01*
X63033854Y32322364D01*
X63178913Y32244828D01*
X63336311Y32197082D01*
X63499999Y32180960D01*
X63541018Y32185000D01*
X68211928Y32185000D01*
X68211928Y32020000D01*
X68224188Y31895518D01*
X68260498Y31775820D01*
X68319463Y31665506D01*
X68398815Y31568815D01*
X68495506Y31489463D01*
X68605820Y31430498D01*
X68725518Y31394188D01*
X68850000Y31381928D01*
X70850000Y31381928D01*
X70974482Y31394188D01*
X71094180Y31430498D01*
X71204494Y31489463D01*
X71301185Y31568815D01*
X71380537Y31665506D01*
X71439502Y31775820D01*
X71475812Y31895518D01*
X71488072Y32020000D01*
X71488072Y34020000D01*
X71475812Y34144482D01*
X71439502Y34264180D01*
X71380537Y34374494D01*
X71301185Y34471185D01*
X71204494Y34550537D01*
X71094180Y34609502D01*
X70974482Y34645812D01*
X70850000Y34658072D01*
X68850000Y34658072D01*
X68725518Y34645812D01*
X68605820Y34609502D01*
X68495506Y34550537D01*
X68398815Y34471185D01*
X68319463Y34374494D01*
X68260498Y34264180D01*
X68224188Y34144482D01*
X68211928Y34020000D01*
X68211928Y33855000D01*
X63845868Y33855000D01*
X61985846Y35715021D01*
X61959691Y35746891D01*
X61832546Y35851236D01*
X61687487Y35928772D01*
X61530089Y35976518D01*
X61407419Y35988600D01*
X61407418Y35988600D01*
X61366400Y35992640D01*
X61325382Y35988600D01*
X31638607Y35988600D01*
X31597599Y35992639D01*
X31556591Y35988600D01*
X31556581Y35988600D01*
X31433911Y35976518D01*
X31276513Y35928772D01*
X31131454Y35851236D01*
X31004309Y35746891D01*
X30978159Y35715027D01*
X22589579Y27326446D01*
X22557709Y27300291D01*
X22490177Y27218002D01*
X22453364Y27173145D01*
X22375828Y27028086D01*
X22328082Y26870688D01*
X22311960Y26707000D01*
X22316000Y26665981D01*
X22316000Y25998065D01*
X22204368Y25923475D01*
X22072513Y25791620D01*
X22050502Y25864180D01*
X21991537Y25974494D01*
X21912185Y26071185D01*
X21815494Y26150537D01*
X21705180Y26209502D01*
X21585482Y26245812D01*
X21461000Y26258072D01*
X20896750Y26255000D01*
X20738000Y26096250D01*
X20738000Y24897000D01*
X20758000Y24897000D01*
X20758000Y24643000D01*
X20738000Y24643000D01*
X20738000Y23443750D01*
X20896750Y23285000D01*
X21461000Y23281928D01*
X21585482Y23294188D01*
X21705180Y23330498D01*
X21815494Y23389463D01*
X21912185Y23468815D01*
X21991537Y23565506D01*
X22050502Y23675820D01*
X22072513Y23748380D01*
X22204368Y23616525D01*
X22316000Y23541935D01*
X22316001Y15371029D01*
X22316000Y15371019D01*
X22316000Y15318018D01*
X22316001Y6018066D01*
X22204368Y5943475D01*
X22072513Y5811620D01*
X22050502Y5884180D01*
X21991537Y5994494D01*
X21912185Y6091185D01*
X21815494Y6170537D01*
X21705180Y6229502D01*
X21585482Y6265812D01*
X21461000Y6278072D01*
X20896750Y6275000D01*
X20738000Y6116250D01*
X20738000Y4917000D01*
X20758000Y4917000D01*
X20758000Y4663000D01*
X20738000Y4663000D01*
X20738000Y3463750D01*
X20896750Y3305000D01*
X21461000Y3301928D01*
X21585482Y3314188D01*
X21705180Y3350498D01*
X21815494Y3409463D01*
X21912185Y3488815D01*
X21991537Y3585506D01*
X22050502Y3695820D01*
X22072513Y3768380D01*
X22204368Y3636525D01*
X22447589Y3474010D01*
X22717842Y3362068D01*
X23004740Y3305000D01*
X23297260Y3305000D01*
X23584158Y3362068D01*
X23854411Y3474010D01*
X24097632Y3636525D01*
X24304475Y3843368D01*
X24421000Y4017760D01*
X24537525Y3843368D01*
X24744368Y3636525D01*
X24987589Y3474010D01*
X25257842Y3362068D01*
X25544740Y3305000D01*
X25837260Y3305000D01*
X26124158Y3362068D01*
X26394411Y3474010D01*
X26637632Y3636525D01*
X26844475Y3843368D01*
X26961000Y4017760D01*
X27077525Y3843368D01*
X27284368Y3636525D01*
X27527589Y3474010D01*
X27797842Y3362068D01*
X28084740Y3305000D01*
X28377260Y3305000D01*
X28664158Y3362068D01*
X28934411Y3474010D01*
X29177632Y3636525D01*
X29384475Y3843368D01*
X29501000Y4017760D01*
X29617525Y3843368D01*
X29824368Y3636525D01*
X30067589Y3474010D01*
X30337842Y3362068D01*
X30624740Y3305000D01*
X30917260Y3305000D01*
X31204158Y3362068D01*
X31474411Y3474010D01*
X31717632Y3636525D01*
X31924475Y3843368D01*
X32041000Y4017760D01*
X32157525Y3843368D01*
X32364368Y3636525D01*
X32607589Y3474010D01*
X32877842Y3362068D01*
X33164740Y3305000D01*
X33457260Y3305000D01*
X33744158Y3362068D01*
X34014411Y3474010D01*
X34257632Y3636525D01*
X34464475Y3843368D01*
X34581000Y4017760D01*
X34697525Y3843368D01*
X34904368Y3636525D01*
X35147589Y3474010D01*
X35417842Y3362068D01*
X35704740Y3305000D01*
X35997260Y3305000D01*
X36284158Y3362068D01*
X36554411Y3474010D01*
X36797632Y3636525D01*
X37004475Y3843368D01*
X37166990Y4086589D01*
X37278932Y4356842D01*
X37336000Y4643740D01*
X37336000Y4936260D01*
X37278932Y5223158D01*
X37166990Y5493411D01*
X37004475Y5736632D01*
X36797632Y5943475D01*
X36611000Y6068178D01*
X36611000Y11101677D01*
X36614676Y11139000D01*
X36611000Y11176323D01*
X36611000Y11176333D01*
X36600003Y11287986D01*
X36556546Y11431247D01*
X36485974Y11563277D01*
X36414799Y11650003D01*
X36391001Y11679001D01*
X36362004Y11702798D01*
X34986500Y13078301D01*
X34986500Y14111335D01*
X36969800Y14111335D01*
X36969800Y13828665D01*
X37024947Y13551426D01*
X37133120Y13290273D01*
X37290163Y13055241D01*
X37490041Y12855363D01*
X37725073Y12698320D01*
X37986226Y12590147D01*
X38263465Y12535000D01*
X38546135Y12535000D01*
X38823374Y12590147D01*
X39084527Y12698320D01*
X39319559Y12855363D01*
X39519437Y13055241D01*
X39676480Y13290273D01*
X39784653Y13551426D01*
X39839800Y13828665D01*
X39839800Y14111335D01*
X39916200Y14111335D01*
X39916200Y13828665D01*
X39971347Y13551426D01*
X40079520Y13290273D01*
X40236563Y13055241D01*
X40436441Y12855363D01*
X40671473Y12698320D01*
X40932626Y12590147D01*
X41209865Y12535000D01*
X41492535Y12535000D01*
X41769774Y12590147D01*
X42030927Y12698320D01*
X42265959Y12855363D01*
X42465837Y13055241D01*
X42622880Y13290273D01*
X42731053Y13551426D01*
X42786200Y13828665D01*
X42786200Y14111335D01*
X47536200Y14111335D01*
X47536200Y13828665D01*
X47591347Y13551426D01*
X47699520Y13290273D01*
X47856563Y13055241D01*
X48056441Y12855363D01*
X48291473Y12698320D01*
X48552626Y12590147D01*
X48829865Y12535000D01*
X49112535Y12535000D01*
X49389774Y12590147D01*
X49650927Y12698320D01*
X49885959Y12855363D01*
X50085837Y13055241D01*
X50242880Y13290273D01*
X50351053Y13551426D01*
X50406200Y13828665D01*
X50406200Y14111335D01*
X50351053Y14388574D01*
X50242880Y14649727D01*
X50085837Y14884759D01*
X49885959Y15084637D01*
X49650927Y15241680D01*
X49389774Y15349853D01*
X49112535Y15405000D01*
X48829865Y15405000D01*
X48552626Y15349853D01*
X48291473Y15241680D01*
X48056441Y15084637D01*
X47856563Y14884759D01*
X47699520Y14649727D01*
X47591347Y14388574D01*
X47536200Y14111335D01*
X42786200Y14111335D01*
X42731053Y14388574D01*
X42622880Y14649727D01*
X42465837Y14884759D01*
X42265959Y15084637D01*
X42030927Y15241680D01*
X41769774Y15349853D01*
X41492535Y15405000D01*
X41209865Y15405000D01*
X40932626Y15349853D01*
X40671473Y15241680D01*
X40436441Y15084637D01*
X40236563Y14884759D01*
X40079520Y14649727D01*
X39971347Y14388574D01*
X39916200Y14111335D01*
X39839800Y14111335D01*
X39784653Y14388574D01*
X39676480Y14649727D01*
X39519437Y14884759D01*
X39319559Y15084637D01*
X39084527Y15241680D01*
X38823374Y15349853D01*
X38546135Y15405000D01*
X38263465Y15405000D01*
X37986226Y15349853D01*
X37725073Y15241680D01*
X37490041Y15084637D01*
X37290163Y14884759D01*
X37133120Y14649727D01*
X37024947Y14388574D01*
X36969800Y14111335D01*
X34986500Y14111335D01*
X34986500Y17911002D01*
X35185073Y17778320D01*
X35446226Y17670147D01*
X35723465Y17615000D01*
X36006135Y17615000D01*
X36283374Y17670147D01*
X36544527Y17778320D01*
X36779559Y17935363D01*
X36979437Y18135241D01*
X37136480Y18370273D01*
X37244653Y18631426D01*
X37299800Y18908665D01*
X37299800Y19191335D01*
X37325400Y19191335D01*
X37325400Y18908665D01*
X37380547Y18631426D01*
X37488720Y18370273D01*
X37645763Y18135241D01*
X37845641Y17935363D01*
X38080673Y17778320D01*
X38341826Y17670147D01*
X38619065Y17615000D01*
X38901735Y17615000D01*
X39178974Y17670147D01*
X39440127Y17778320D01*
X39675159Y17935363D01*
X39875037Y18135241D01*
X40032080Y18370273D01*
X40140253Y18631426D01*
X40195400Y18908665D01*
X40195400Y19191335D01*
X44945400Y19191335D01*
X44945400Y18908665D01*
X45000547Y18631426D01*
X45108720Y18370273D01*
X45265763Y18135241D01*
X45465641Y17935363D01*
X45700673Y17778320D01*
X45961826Y17670147D01*
X46239065Y17615000D01*
X46521735Y17615000D01*
X46798974Y17670147D01*
X47060127Y17778320D01*
X47295159Y17935363D01*
X47495037Y18135241D01*
X47649745Y18366779D01*
X51926000Y18366779D01*
X51926000Y17802822D01*
X51942785Y17632401D01*
X52009115Y17413741D01*
X52116829Y17212222D01*
X52261788Y17035588D01*
X52438421Y16890629D01*
X52639940Y16782915D01*
X52858600Y16716585D01*
X53086000Y16694188D01*
X53313399Y16716585D01*
X53532059Y16782915D01*
X53721000Y16883906D01*
X53909940Y16782915D01*
X54128600Y16716585D01*
X54356000Y16694188D01*
X54583399Y16716585D01*
X54792098Y16779893D01*
X54856820Y16745298D01*
X54976518Y16708988D01*
X55101000Y16696728D01*
X55340250Y16699800D01*
X55499000Y16858550D01*
X55499000Y17631691D01*
X55499215Y17632400D01*
X55516000Y17802821D01*
X55516000Y17957800D01*
X55753000Y17957800D01*
X55753000Y16858550D01*
X55911750Y16699800D01*
X56151000Y16696728D01*
X56275482Y16708988D01*
X56395180Y16745298D01*
X56505494Y16804263D01*
X56602185Y16883615D01*
X56681537Y16980306D01*
X56740502Y17090620D01*
X56776812Y17210318D01*
X56789072Y17334800D01*
X56786000Y17799050D01*
X56627250Y17957800D01*
X55753000Y17957800D01*
X55516000Y17957800D01*
X55516000Y18366778D01*
X55499215Y18537199D01*
X55499000Y18537908D01*
X55499000Y19311050D01*
X55753000Y19311050D01*
X55753000Y18211800D01*
X56627250Y18211800D01*
X56786000Y18370550D01*
X56789072Y18834800D01*
X56776812Y18959282D01*
X56740502Y19078980D01*
X56681537Y19189294D01*
X56602185Y19285985D01*
X56505494Y19365337D01*
X56395180Y19424302D01*
X56275482Y19460612D01*
X56151000Y19472872D01*
X55911750Y19469800D01*
X55753000Y19311050D01*
X55499000Y19311050D01*
X55340250Y19469800D01*
X55101000Y19472872D01*
X54976518Y19460612D01*
X54856820Y19424302D01*
X54792098Y19389707D01*
X54583400Y19453015D01*
X54356000Y19475412D01*
X54128601Y19453015D01*
X53909941Y19386685D01*
X53721001Y19285694D01*
X53532060Y19386685D01*
X53313400Y19453015D01*
X53086000Y19475412D01*
X52858601Y19453015D01*
X52639941Y19386685D01*
X52438422Y19278971D01*
X52261789Y19134012D01*
X52116830Y18957379D01*
X52009115Y18755860D01*
X51942785Y18537200D01*
X51926000Y18366779D01*
X47649745Y18366779D01*
X47652080Y18370273D01*
X47760253Y18631426D01*
X47815400Y18908665D01*
X47815400Y19191335D01*
X47760253Y19468574D01*
X47652080Y19729727D01*
X47495037Y19964759D01*
X47295159Y20164637D01*
X47060127Y20321680D01*
X46798974Y20429853D01*
X46521735Y20485000D01*
X46239065Y20485000D01*
X45961826Y20429853D01*
X45700673Y20321680D01*
X45465641Y20164637D01*
X45265763Y19964759D01*
X45108720Y19729727D01*
X45000547Y19468574D01*
X44945400Y19191335D01*
X40195400Y19191335D01*
X40140253Y19468574D01*
X40032080Y19729727D01*
X39875037Y19964759D01*
X39675159Y20164637D01*
X39440127Y20321680D01*
X39178974Y20429853D01*
X38901735Y20485000D01*
X38619065Y20485000D01*
X38341826Y20429853D01*
X38080673Y20321680D01*
X37845641Y20164637D01*
X37645763Y19964759D01*
X37488720Y19729727D01*
X37380547Y19468574D01*
X37325400Y19191335D01*
X37299800Y19191335D01*
X37244653Y19468574D01*
X37136480Y19729727D01*
X36979437Y19964759D01*
X36779559Y20164637D01*
X36544527Y20321680D01*
X36283374Y20429853D01*
X36006135Y20485000D01*
X35723465Y20485000D01*
X35446226Y20429853D01*
X35185073Y20321680D01*
X34986500Y20188998D01*
X34986500Y21628618D01*
X36362003Y23004120D01*
X36391001Y23027918D01*
X36460268Y23112320D01*
X36485974Y23143642D01*
X36556546Y23275672D01*
X36573177Y23330498D01*
X36600003Y23418933D01*
X36606913Y23489091D01*
X36797632Y23616525D01*
X37004475Y23823368D01*
X37131909Y24014087D01*
X37202067Y24020997D01*
X37345328Y24064454D01*
X37477357Y24135026D01*
X37593082Y24229999D01*
X37616885Y24259003D01*
X38759883Y25402000D01*
X48772604Y25402000D01*
X48669363Y25298759D01*
X48512320Y25063727D01*
X48404147Y24802574D01*
X48349000Y24525335D01*
X48349000Y24242665D01*
X48404147Y23965426D01*
X48512320Y23704273D01*
X48669363Y23469241D01*
X48869241Y23269363D01*
X49104273Y23112320D01*
X49365426Y23004147D01*
X49642665Y22949000D01*
X49925335Y22949000D01*
X50202574Y23004147D01*
X50463727Y23112320D01*
X50698759Y23269363D01*
X50898637Y23469241D01*
X51002043Y23624000D01*
X52933181Y23624000D01*
X52736595Y23584896D01*
X52493641Y23484261D01*
X52274987Y23338162D01*
X52089038Y23152213D01*
X51942939Y22933559D01*
X51842304Y22690605D01*
X51791000Y22432686D01*
X51791000Y22169714D01*
X51842304Y21911795D01*
X51942939Y21668841D01*
X52089038Y21450187D01*
X52274987Y21264238D01*
X52493641Y21118139D01*
X52736595Y21017504D01*
X52994514Y20966200D01*
X53257486Y20966200D01*
X53515405Y21017504D01*
X53758359Y21118139D01*
X53977013Y21264238D01*
X54092706Y21379931D01*
X54884336Y21379931D01*
X54943797Y21146163D01*
X55182242Y21035266D01*
X55437740Y20973017D01*
X55700473Y20961810D01*
X55960344Y21002075D01*
X56207366Y21092265D01*
X56308203Y21146163D01*
X56367664Y21379931D01*
X55626000Y22121595D01*
X54884336Y21379931D01*
X54092706Y21379931D01*
X54162962Y21450187D01*
X54309061Y21668841D01*
X54376361Y21831318D01*
X54417065Y21719834D01*
X54470963Y21618997D01*
X54704731Y21559536D01*
X55446395Y22301200D01*
X54704731Y23042864D01*
X54470963Y22983403D01*
X54374408Y22775796D01*
X54309061Y22933559D01*
X54162962Y23152213D01*
X53977013Y23338162D01*
X53758359Y23484261D01*
X53515405Y23584896D01*
X53318819Y23624000D01*
X55444455Y23624000D01*
X55291656Y23600325D01*
X55044634Y23510135D01*
X54943797Y23456237D01*
X54884336Y23222469D01*
X55626000Y22480805D01*
X55640143Y22494947D01*
X55819748Y22315342D01*
X55805605Y22301200D01*
X56547269Y21559536D01*
X56781037Y21618997D01*
X56891934Y21857442D01*
X56954183Y22112940D01*
X56965390Y22375673D01*
X56925125Y22635544D01*
X56875824Y22770574D01*
X58015601Y21630797D01*
X58015600Y7577088D01*
X55234927Y4796414D01*
X55057302Y4974039D01*
X54898719Y5080000D01*
X55057302Y5185961D01*
X55266039Y5394698D01*
X55430042Y5640147D01*
X55543010Y5912875D01*
X55600600Y6202401D01*
X55600600Y6497599D01*
X55543010Y6787125D01*
X55430042Y7059853D01*
X55266039Y7305302D01*
X55057302Y7514039D01*
X54811853Y7678042D01*
X54539125Y7791010D01*
X54249599Y7848600D01*
X53954401Y7848600D01*
X53664875Y7791010D01*
X53392147Y7678042D01*
X53146698Y7514039D01*
X52937961Y7305302D01*
X52832000Y7146719D01*
X52726039Y7305302D01*
X52517302Y7514039D01*
X52271853Y7678042D01*
X51999125Y7791010D01*
X51790034Y7832601D01*
X51883087Y7860828D01*
X52028146Y7938364D01*
X52155291Y8042709D01*
X52181446Y8074579D01*
X53687428Y9580560D01*
X53719291Y9606709D01*
X53823636Y9733854D01*
X53901172Y9878913D01*
X53948918Y10036311D01*
X53961000Y10158981D01*
X53961000Y10158982D01*
X53965040Y10199999D01*
X53961000Y10241018D01*
X53961000Y13481139D01*
X53977013Y13491838D01*
X54092706Y13607531D01*
X54884336Y13607531D01*
X54943797Y13373763D01*
X55182242Y13262866D01*
X55437740Y13200617D01*
X55700473Y13189410D01*
X55960344Y13229675D01*
X56207366Y13319865D01*
X56308203Y13373763D01*
X56367664Y13607531D01*
X55626000Y14349195D01*
X54884336Y13607531D01*
X54092706Y13607531D01*
X54162962Y13677787D01*
X54309061Y13896441D01*
X54376361Y14058918D01*
X54417065Y13947434D01*
X54470963Y13846597D01*
X54704731Y13787136D01*
X55446395Y14528800D01*
X55805605Y14528800D01*
X56547269Y13787136D01*
X56781037Y13846597D01*
X56891934Y14085042D01*
X56954183Y14340540D01*
X56965390Y14603273D01*
X56925125Y14863144D01*
X56834935Y15110166D01*
X56781037Y15211003D01*
X56547269Y15270464D01*
X55805605Y14528800D01*
X55446395Y14528800D01*
X54704731Y15270464D01*
X54470963Y15211003D01*
X54374408Y15003396D01*
X54309061Y15161159D01*
X54162962Y15379813D01*
X54092706Y15450069D01*
X54884336Y15450069D01*
X55626000Y14708405D01*
X56367664Y15450069D01*
X56308203Y15683837D01*
X56069758Y15794734D01*
X55814260Y15856983D01*
X55551527Y15868190D01*
X55291656Y15827925D01*
X55044634Y15737735D01*
X54943797Y15683837D01*
X54884336Y15450069D01*
X54092706Y15450069D01*
X53977013Y15565762D01*
X53758359Y15711861D01*
X53515405Y15812496D01*
X53257486Y15863800D01*
X52994514Y15863800D01*
X52736595Y15812496D01*
X52493641Y15711861D01*
X52274987Y15565762D01*
X52089038Y15379813D01*
X51942939Y15161159D01*
X51842304Y14918205D01*
X51791000Y14660286D01*
X51791000Y14397314D01*
X51842304Y14139395D01*
X51942939Y13896441D01*
X52089038Y13677787D01*
X52274987Y13491838D01*
X52291001Y13481138D01*
X52291000Y12150982D01*
X52291001Y12150972D01*
X52291000Y10545868D01*
X51216133Y9471000D01*
X45049818Y9471000D01*
X45008799Y9475040D01*
X44967781Y9471000D01*
X44845111Y9458918D01*
X44687713Y9411172D01*
X44542654Y9333636D01*
X44415509Y9229291D01*
X44389361Y9197429D01*
X43380574Y8188641D01*
X43348710Y8162491D01*
X43322562Y8130629D01*
X43244364Y8035345D01*
X43166828Y7890286D01*
X43155115Y7851672D01*
X43078400Y7851672D01*
X42953918Y7839412D01*
X42834220Y7803102D01*
X42723906Y7744137D01*
X42627215Y7664785D01*
X42547863Y7568094D01*
X42488898Y7457780D01*
X42452588Y7338082D01*
X42440328Y7213600D01*
X42440328Y5486400D01*
X42452588Y5361918D01*
X42488898Y5242220D01*
X42547863Y5131906D01*
X42627215Y5035215D01*
X42723906Y4955863D01*
X42834220Y4896898D01*
X42896692Y4877947D01*
X42735183Y4698488D01*
X42585036Y4445978D01*
X42487037Y4169027D01*
X42607536Y3937000D01*
X43815000Y3937000D01*
X43815000Y3957000D01*
X44069000Y3957000D01*
X44069000Y3937000D01*
X44089000Y3937000D01*
X44089000Y3683000D01*
X44069000Y3683000D01*
X44069000Y3663000D01*
X43815000Y3663000D01*
X43815000Y3683000D01*
X42607536Y3683000D01*
X42487037Y3450973D01*
X42585036Y3174022D01*
X42735183Y2921512D01*
X42931707Y2703146D01*
X43152755Y2538000D01*
X19364802Y2538000D01*
X17962802Y3940000D01*
X19122928Y3940000D01*
X19135188Y3815518D01*
X19171498Y3695820D01*
X19230463Y3585506D01*
X19309815Y3488815D01*
X19406506Y3409463D01*
X19516820Y3350498D01*
X19636518Y3314188D01*
X19761000Y3301928D01*
X20325250Y3305000D01*
X20484000Y3463750D01*
X20484000Y4663000D01*
X19284750Y4663000D01*
X19126000Y4504250D01*
X19122928Y3940000D01*
X17962802Y3940000D01*
X16262802Y5640000D01*
X19122928Y5640000D01*
X19126000Y5075750D01*
X19284750Y4917000D01*
X20484000Y4917000D01*
X20484000Y6116250D01*
X20325250Y6275000D01*
X19761000Y6278072D01*
X19636518Y6265812D01*
X19516820Y6229502D01*
X19406506Y6170537D01*
X19309815Y6091185D01*
X19230463Y5994494D01*
X19171498Y5884180D01*
X19135188Y5764482D01*
X19122928Y5640000D01*
X16262802Y5640000D01*
X9904000Y11998801D01*
X9904000Y13432000D01*
X11945928Y13432000D01*
X11958188Y13307518D01*
X11994498Y13187820D01*
X12053463Y13077506D01*
X12132815Y12980815D01*
X12229506Y12901463D01*
X12339820Y12842498D01*
X12459518Y12806188D01*
X12584000Y12793928D01*
X13148250Y12797000D01*
X13307000Y12955750D01*
X13307000Y14155000D01*
X13561000Y14155000D01*
X13561000Y12955750D01*
X13719750Y12797000D01*
X14284000Y12793928D01*
X14408482Y12806188D01*
X14528180Y12842498D01*
X14638494Y12901463D01*
X14735185Y12980815D01*
X14814537Y13077506D01*
X14873502Y13187820D01*
X14909812Y13307518D01*
X14922072Y13432000D01*
X14919000Y13996250D01*
X14760250Y14155000D01*
X13561000Y14155000D01*
X13307000Y14155000D01*
X12107750Y14155000D01*
X11949000Y13996250D01*
X11945928Y13432000D01*
X9904000Y13432000D01*
X9904000Y24069199D01*
X12056802Y26222000D01*
X12155822Y26222000D01*
X12280525Y26035368D01*
X12487368Y25828525D01*
X12661760Y25712000D01*
X12487368Y25595475D01*
X12280525Y25388632D01*
X12118010Y25145411D01*
X12006068Y24875158D01*
X11949000Y24588260D01*
X11949000Y24295740D01*
X12006068Y24008842D01*
X12118010Y23738589D01*
X12280525Y23495368D01*
X12487368Y23288525D01*
X12661760Y23172000D01*
X12487368Y23055475D01*
X12280525Y22848632D01*
X12118010Y22605411D01*
X12006068Y22335158D01*
X11949000Y22048260D01*
X11949000Y21755740D01*
X12006068Y21468842D01*
X12118010Y21198589D01*
X12280525Y20955368D01*
X12487368Y20748525D01*
X12661760Y20632000D01*
X12487368Y20515475D01*
X12280525Y20308632D01*
X12118010Y20065411D01*
X12006068Y19795158D01*
X11949000Y19508260D01*
X11949000Y19215740D01*
X12006068Y18928842D01*
X12118010Y18658589D01*
X12280525Y18415368D01*
X12487368Y18208525D01*
X12661760Y18092000D01*
X12487368Y17975475D01*
X12280525Y17768632D01*
X12118010Y17525411D01*
X12006068Y17255158D01*
X11949000Y16968260D01*
X11949000Y16675740D01*
X12006068Y16388842D01*
X12118010Y16118589D01*
X12280525Y15875368D01*
X12412380Y15743513D01*
X12339820Y15721502D01*
X12229506Y15662537D01*
X12132815Y15583185D01*
X12053463Y15486494D01*
X11994498Y15376180D01*
X11958188Y15256482D01*
X11945928Y15132000D01*
X11949000Y14567750D01*
X12107750Y14409000D01*
X13307000Y14409000D01*
X13307000Y14429000D01*
X13561000Y14429000D01*
X13561000Y14409000D01*
X14760250Y14409000D01*
X14919000Y14567750D01*
X14922072Y15132000D01*
X14909812Y15256482D01*
X14873502Y15376180D01*
X14814537Y15486494D01*
X14735185Y15583185D01*
X14638494Y15662537D01*
X14528180Y15721502D01*
X14455620Y15743513D01*
X14587475Y15875368D01*
X14749990Y16118589D01*
X14861932Y16388842D01*
X14919000Y16675740D01*
X14919000Y16968260D01*
X14861932Y17255158D01*
X14749990Y17525411D01*
X14587475Y17768632D01*
X14380632Y17975475D01*
X14206240Y18092000D01*
X14380632Y18208525D01*
X14587475Y18415368D01*
X14749990Y18658589D01*
X14861932Y18928842D01*
X14919000Y19215740D01*
X14919000Y19508260D01*
X14861932Y19795158D01*
X14749990Y20065411D01*
X14587475Y20308632D01*
X14380632Y20515475D01*
X14206240Y20632000D01*
X14380632Y20748525D01*
X14587475Y20955368D01*
X14749990Y21198589D01*
X14861932Y21468842D01*
X14919000Y21755740D01*
X14919000Y22048260D01*
X14861932Y22335158D01*
X14749990Y22605411D01*
X14587475Y22848632D01*
X14380632Y23055475D01*
X14206240Y23172000D01*
X14380632Y23288525D01*
X14587475Y23495368D01*
X14749990Y23738589D01*
X14825132Y23920000D01*
X19122928Y23920000D01*
X19135188Y23795518D01*
X19171498Y23675820D01*
X19230463Y23565506D01*
X19309815Y23468815D01*
X19406506Y23389463D01*
X19516820Y23330498D01*
X19636518Y23294188D01*
X19761000Y23281928D01*
X20325250Y23285000D01*
X20484000Y23443750D01*
X20484000Y24643000D01*
X19284750Y24643000D01*
X19126000Y24484250D01*
X19122928Y23920000D01*
X14825132Y23920000D01*
X14861932Y24008842D01*
X14919000Y24295740D01*
X14919000Y24588260D01*
X14861932Y24875158D01*
X14749990Y25145411D01*
X14587475Y25388632D01*
X14380632Y25595475D01*
X14343928Y25620000D01*
X19122928Y25620000D01*
X19126000Y25055750D01*
X19284750Y24897000D01*
X20484000Y24897000D01*
X20484000Y26096250D01*
X20325250Y26255000D01*
X19761000Y26258072D01*
X19636518Y26245812D01*
X19516820Y26209502D01*
X19406506Y26150537D01*
X19309815Y26071185D01*
X19230463Y25974494D01*
X19171498Y25864180D01*
X19135188Y25744482D01*
X19122928Y25620000D01*
X14343928Y25620000D01*
X14206240Y25712000D01*
X14380632Y25828525D01*
X14587475Y26035368D01*
X14749990Y26278589D01*
X14861932Y26548842D01*
X14919000Y26835740D01*
X14919000Y27128260D01*
X14861932Y27415158D01*
X14749990Y27685411D01*
X14587475Y27928632D01*
X14380632Y28135475D01*
X14206240Y28252000D01*
X14380632Y28368525D01*
X14587475Y28575368D01*
X14749990Y28818589D01*
X14861932Y29088842D01*
X14919000Y29375740D01*
X14919000Y29668260D01*
X14861932Y29955158D01*
X14749990Y30225411D01*
X14587475Y30468632D01*
X14380632Y30675475D01*
X14137411Y30837990D01*
X13867158Y30949932D01*
X13580260Y31007000D01*
X13287740Y31007000D01*
X13000842Y30949932D01*
X12730589Y30837990D01*
X12487368Y30675475D01*
X12280525Y30468632D01*
X12118010Y30225411D01*
X12006068Y29955158D01*
X11949000Y29668260D01*
X11949000Y29375740D01*
X12006068Y29088842D01*
X12118010Y28818589D01*
X12280525Y28575368D01*
X12487368Y28368525D01*
X12661760Y28252000D01*
X12487368Y28135475D01*
X12280525Y27928632D01*
X12155822Y27742000D01*
X11779323Y27742000D01*
X11742000Y27745676D01*
X11704677Y27742000D01*
X11704667Y27742000D01*
X11593014Y27731003D01*
X11449753Y27687546D01*
X11317724Y27616974D01*
X11201999Y27522001D01*
X11178201Y27493003D01*
X8632998Y24947799D01*
X8604000Y24924001D01*
X8580202Y24895003D01*
X8580201Y24895002D01*
X8509026Y24808276D01*
X8438454Y24676246D01*
X8411765Y24588260D01*
X8394998Y24532986D01*
X8390198Y24484250D01*
X8380324Y24384000D01*
X8384001Y24346668D01*
X8384000Y11721322D01*
X8380324Y11684000D01*
X8384000Y11646678D01*
X8384000Y11646668D01*
X8394997Y11535015D01*
X8426852Y11430001D01*
X8438454Y11391754D01*
X8509026Y11259724D01*
X8546348Y11214247D01*
X8603999Y11143999D01*
X8633003Y11120196D01*
X18486201Y1266997D01*
X18509999Y1237999D01*
X18538997Y1214201D01*
X18625724Y1143026D01*
X18757753Y1072454D01*
X18874631Y1037000D01*
X4638447Y1037000D01*
X4409760Y1265686D01*
X4682075Y1152890D01*
X5113872Y1067000D01*
X5554128Y1067000D01*
X5985925Y1152890D01*
X6392669Y1321369D01*
X6758729Y1565962D01*
X7070038Y1877271D01*
X7314631Y2243331D01*
X7483110Y2650075D01*
X7569000Y3081872D01*
X7569000Y3522128D01*
X7483110Y3953925D01*
X7314631Y4360669D01*
X7070038Y4726729D01*
X6758729Y5038038D01*
X6392669Y5282631D01*
X5985925Y5451110D01*
X5554128Y5537000D01*
X5113872Y5537000D01*
X4682075Y5451110D01*
X4275331Y5282631D01*
X3909271Y5038038D01*
X3597962Y4726729D01*
X3353369Y4360669D01*
X3184890Y3953925D01*
X3099000Y3522128D01*
X3099000Y3081872D01*
X3184890Y2650075D01*
X3297687Y2377760D01*
X1069000Y4606446D01*
X1069000Y37997554D01*
X3297687Y40226240D01*
X3184890Y39953925D01*
X3099000Y39522128D01*
X3099000Y39081872D01*
X3184890Y38650075D01*
X3353369Y38243331D01*
X3597962Y37877271D01*
X3909271Y37565962D01*
X4275331Y37321369D01*
X4682075Y37152890D01*
X5113872Y37067000D01*
X5554128Y37067000D01*
X5985925Y37152890D01*
X6392669Y37321369D01*
X6758729Y37565962D01*
X7070038Y37877271D01*
X7314631Y38243331D01*
X7483110Y38650075D01*
X7569000Y39081872D01*
X7569000Y39522128D01*
X7483110Y39953925D01*
X7314631Y40360669D01*
X7070038Y40726729D01*
X6758729Y41038038D01*
X6392669Y41282631D01*
X5985925Y41451110D01*
X5554128Y41537000D01*
X5113872Y41537000D01*
X4682075Y41451110D01*
X4409760Y41338314D01*
X4638447Y41567000D01*
X20306554Y41567000D01*
X23565746Y38307807D01*
G36*
X73154001Y11115196D02*
G01*
X73154000Y7644535D01*
X72958698Y7514039D01*
X72749961Y7305302D01*
X72644000Y7146719D01*
X72538039Y7305302D01*
X72329302Y7514039D01*
X72083853Y7678042D01*
X71811125Y7791010D01*
X71521599Y7848600D01*
X71226401Y7848600D01*
X70936875Y7791010D01*
X70664147Y7678042D01*
X70418698Y7514039D01*
X70209961Y7305302D01*
X70104000Y7146719D01*
X69998039Y7305302D01*
X69789302Y7514039D01*
X69543853Y7678042D01*
X69271125Y7791010D01*
X68981599Y7848600D01*
X68686401Y7848600D01*
X68396875Y7791010D01*
X68124147Y7678042D01*
X67878698Y7514039D01*
X67764636Y7399977D01*
X67747102Y7457780D01*
X67688137Y7568094D01*
X67608785Y7664785D01*
X67512094Y7744137D01*
X67401780Y7803102D01*
X67282082Y7839412D01*
X67157600Y7851672D01*
X65430400Y7851672D01*
X65305918Y7839412D01*
X65186220Y7803102D01*
X65075906Y7744137D01*
X64979215Y7664785D01*
X64899863Y7568094D01*
X64840898Y7457780D01*
X64804588Y7338082D01*
X64792328Y7213600D01*
X64792328Y5486400D01*
X64804588Y5361918D01*
X64840898Y5242220D01*
X64899863Y5131906D01*
X64979215Y5035215D01*
X65075906Y4955863D01*
X65186220Y4896898D01*
X65248692Y4877947D01*
X65087183Y4698488D01*
X64937036Y4445978D01*
X64839037Y4169027D01*
X64959536Y3937000D01*
X66167000Y3937000D01*
X66167000Y3957000D01*
X66421000Y3957000D01*
X66421000Y3937000D01*
X66441000Y3937000D01*
X66441000Y3683000D01*
X66421000Y3683000D01*
X66421000Y2476183D01*
X66653026Y2355042D01*
X66803814Y2400778D01*
X67068944Y2527316D01*
X67304293Y2703146D01*
X67500817Y2921512D01*
X67559441Y3020103D01*
X67669961Y2854698D01*
X67878698Y2645961D01*
X68060910Y2524212D01*
X67757199Y2220500D01*
X62862302Y2220500D01*
X61631829Y3450973D01*
X64839037Y3450973D01*
X64937036Y3174022D01*
X65087183Y2921512D01*
X65283707Y2703146D01*
X65519056Y2527316D01*
X65784186Y2400778D01*
X65934974Y2355042D01*
X66167000Y2476183D01*
X66167000Y3683000D01*
X64959536Y3683000D01*
X64839037Y3450973D01*
X61631829Y3450973D01*
X60704000Y4378801D01*
X60704000Y22467067D01*
X60707677Y22504400D01*
X60693003Y22653386D01*
X60649546Y22796647D01*
X60578974Y22928676D01*
X60507799Y23015403D01*
X60484001Y23044401D01*
X60455004Y23068198D01*
X56851201Y26672000D01*
X57597199Y26672000D01*
X73154001Y11115196D01*
G37*
X73154001Y11115196D02*
X73154000Y7644535D01*
X72958698Y7514039D01*
X72749961Y7305302D01*
X72644000Y7146719D01*
X72538039Y7305302D01*
X72329302Y7514039D01*
X72083853Y7678042D01*
X71811125Y7791010D01*
X71521599Y7848600D01*
X71226401Y7848600D01*
X70936875Y7791010D01*
X70664147Y7678042D01*
X70418698Y7514039D01*
X70209961Y7305302D01*
X70104000Y7146719D01*
X69998039Y7305302D01*
X69789302Y7514039D01*
X69543853Y7678042D01*
X69271125Y7791010D01*
X68981599Y7848600D01*
X68686401Y7848600D01*
X68396875Y7791010D01*
X68124147Y7678042D01*
X67878698Y7514039D01*
X67764636Y7399977D01*
X67747102Y7457780D01*
X67688137Y7568094D01*
X67608785Y7664785D01*
X67512094Y7744137D01*
X67401780Y7803102D01*
X67282082Y7839412D01*
X67157600Y7851672D01*
X65430400Y7851672D01*
X65305918Y7839412D01*
X65186220Y7803102D01*
X65075906Y7744137D01*
X64979215Y7664785D01*
X64899863Y7568094D01*
X64840898Y7457780D01*
X64804588Y7338082D01*
X64792328Y7213600D01*
X64792328Y5486400D01*
X64804588Y5361918D01*
X64840898Y5242220D01*
X64899863Y5131906D01*
X64979215Y5035215D01*
X65075906Y4955863D01*
X65186220Y4896898D01*
X65248692Y4877947D01*
X65087183Y4698488D01*
X64937036Y4445978D01*
X64839037Y4169027D01*
X64959536Y3937000D01*
X66167000Y3937000D01*
X66167000Y3957000D01*
X66421000Y3957000D01*
X66421000Y3937000D01*
X66441000Y3937000D01*
X66441000Y3683000D01*
X66421000Y3683000D01*
X66421000Y2476183D01*
X66653026Y2355042D01*
X66803814Y2400778D01*
X67068944Y2527316D01*
X67304293Y2703146D01*
X67500817Y2921512D01*
X67559441Y3020103D01*
X67669961Y2854698D01*
X67878698Y2645961D01*
X68060910Y2524212D01*
X67757199Y2220500D01*
X62862302Y2220500D01*
X61631829Y3450973D01*
X64839037Y3450973D01*
X64937036Y3174022D01*
X65087183Y2921512D01*
X65283707Y2703146D01*
X65519056Y2527316D01*
X65784186Y2400778D01*
X65934974Y2355042D01*
X66167000Y2476183D01*
X66167000Y3683000D01*
X64959536Y3683000D01*
X64839037Y3450973D01*
X61631829Y3450973D01*
X60704000Y4378801D01*
X60704000Y22467067D01*
X60707677Y22504400D01*
X60693003Y22653386D01*
X60649546Y22796647D01*
X60578974Y22928676D01*
X60507799Y23015403D01*
X60484001Y23044401D01*
X60455004Y23068198D01*
X56851201Y26672000D01*
X57597199Y26672000D01*
X73154001Y11115196D01*
G04 #@! TD*
M02*
