M48
; DRILL file {KiCad 5.1.5-52549c5~84~ubuntu18.04.1} date Tue 18 Feb 2020 09:49:27 PM PST
; FORMAT={-:-/ absolute / inch / decimal}
; #@! TF.CreationDate,2020-02-18T21:49:27-08:00
; #@! TF.GenerationSoftware,Kicad,Pcbnew,5.1.5-52549c5~84~ubuntu18.04.1
FMAT,2
INCH
T1C0.0295
T2C0.0315
T3C0.0394
T4C0.0400
T5C0.1260
%
G90
G05
T1
X6.64Y-3.77
X6.64Y-3.82
X6.64Y-3.87
T2
X6.64Y-3.35
X6.64Y-3.65
X4.98Y-3.28
X5.28Y-3.28
X5.5Y-3.37
X5.5Y-3.67
T3
X6.29Y-3.33
X6.29Y-3.6292
X4.0689Y-3.4677
X4.0689Y-3.5677
X4.0689Y-3.6677
X4.0689Y-3.7677
X4.0689Y-3.8677
X4.0689Y-3.9677
X4.0689Y-4.0677
X4.3515Y-4.4414
X4.4515Y-4.4414
X4.5515Y-4.4414
X4.6515Y-4.4414
X4.7515Y-4.4414
X4.8515Y-4.4414
X4.9515Y-4.4414
X4.3515Y-3.6548
X4.4515Y-3.6548
X4.5515Y-3.6548
X4.6515Y-3.6548
X4.7515Y-3.6548
X4.8515Y-3.6548
X4.9515Y-3.6548
X7.5333Y-4.2799
X7.6333Y-4.2799
X7.7333Y-4.2799
X7.8333Y-4.2799
X7.9333Y-4.2799
T4
X5.27Y-4.38
X5.27Y-4.48
X5.37Y-4.38
X5.37Y-4.48
X5.47Y-4.38
X5.47Y-4.48
X5.57Y-4.38
X5.57Y-4.48
X5.67Y-4.38
X5.67Y-4.48
X6.15Y-4.38
X6.15Y-4.48
X6.25Y-4.38
X6.25Y-4.48
X6.35Y-4.38
X6.35Y-4.48
X6.45Y-4.38
X6.45Y-4.48
X6.55Y-4.38
X6.55Y-4.48
T5
X3.75Y-3.0827
X7.0256Y-3.0827
X3.75Y-4.5
X7.0256Y-4.5
X8.4429Y-3.0827
X8.4429Y-4.5
T0
M30
