M48
; DRILL file {KiCad 5.1.5-52549c5~84~ubuntu18.04.1} date Wed 25 Mar 2020 01:04:10 PM PDT
; FORMAT={-:-/ absolute / inch / decimal}
; #@! TF.CreationDate,2020-03-25T13:04:10-07:00
; #@! TF.GenerationSoftware,Kicad,Pcbnew,5.1.5-52549c5~84~ubuntu18.04.1
FMAT,2
INCH
T1C0.0276
T2C0.0295
T3C0.0315
T4C0.0394
T5C0.0400
T6C0.1260
%
G90
G05
T1
X2.0916Y0.572
X2.19Y0.572
X2.0916Y0.878
X2.19Y0.878
T2
X3.1Y0.86
X3.1Y0.81
X3.1Y0.76
X2.09Y0.712
X2.14Y0.712
X2.19Y0.712
T3
X3.1Y1.28
X3.1Y0.98
X3.26Y1.28
X3.26Y0.98
X1.212Y0.55
X1.512Y0.55
X1.526Y0.75
X1.826Y0.75
X1.96Y1.26
X1.96Y0.96
X1.628Y0.55
X1.928Y0.55
X1.112Y0.75
X1.412Y0.75
T4
X3.9933Y0.3501
X4.0933Y0.3501
X4.1933Y0.3501
X4.2933Y0.3501
X4.3933Y0.3501
X0.5289Y1.1623
X0.5289Y1.0623
X0.5289Y0.9623
X0.5289Y0.8623
X0.5289Y0.7623
X0.5289Y0.6623
X0.5289Y0.5623
X0.8115Y0.9752
X0.9115Y0.9752
X1.0115Y0.9752
X1.1115Y0.9752
X1.2115Y0.9752
X1.3115Y0.9752
X1.4115Y0.9752
X2.75Y1.3
X2.75Y1.0008
X0.8115Y0.1886
X0.9115Y0.1886
X1.0115Y0.1886
X1.1115Y0.1886
X1.2115Y0.1886
X1.3115Y0.1886
X1.4115Y0.1886
T5
X2.61Y0.25
X2.61Y0.15
X2.71Y0.25
X2.71Y0.15
X2.81Y0.25
X2.81Y0.15
X2.91Y0.25
X2.91Y0.15
X3.01Y0.25
X3.01Y0.15
X1.73Y0.25
X1.73Y0.15
X1.83Y0.25
X1.83Y0.15
X1.93Y0.25
X1.93Y0.15
X2.03Y0.25
X2.03Y0.15
X2.13Y0.25
X2.13Y0.15
T6
X3.4856Y0.13
X4.9029Y0.13
X4.9029Y1.5473
X0.21Y0.13
X3.4856Y1.5473
X0.21Y1.5473
T0
M30
