G04 #@! TF.GenerationSoftware,KiCad,Pcbnew,5.0.2-bee76a0~70~ubuntu18.04.1*
G04 #@! TF.CreationDate,2019-01-16T04:19:47-08:00*
G04 #@! TF.ProjectId,Marlin_UIBOX,4d61726c-696e-45f5-9549-424f582e6b69,rev?*
G04 #@! TF.SameCoordinates,PX55c0260PY70276d0*
G04 #@! TF.FileFunction,Copper,L1,Top*
G04 #@! TF.FilePolarity,Positive*
%FSLAX46Y46*%
G04 Gerber Fmt 4.6, Leading zero omitted, Abs format (unit mm)*
G04 Created by KiCad (PCBNEW 5.0.2-bee76a0~70~ubuntu18.04.1) date Wed 16 Jan 2019 04:19:47 AM PST*
%MOMM*%
%LPD*%
G01*
G04 APERTURE LIST*
G04 #@! TA.AperFunction,ComponentPad*
%ADD10R,1.727200X1.727200*%
G04 #@! TD*
G04 #@! TA.AperFunction,ComponentPad*
%ADD11O,1.727200X1.727200*%
G04 #@! TD*
G04 #@! TA.AperFunction,ComponentPad*
%ADD12R,1.700000X1.700000*%
G04 #@! TD*
G04 #@! TA.AperFunction,ComponentPad*
%ADD13O,1.700000X1.700000*%
G04 #@! TD*
G04 #@! TA.AperFunction,ComponentPad*
%ADD14R,1.600000X1.600000*%
G04 #@! TD*
G04 #@! TA.AperFunction,ComponentPad*
%ADD15O,1.600000X1.600000*%
G04 #@! TD*
G04 #@! TA.AperFunction,ComponentPad*
%ADD16R,2.000000X2.000000*%
G04 #@! TD*
G04 #@! TA.AperFunction,ComponentPad*
%ADD17C,2.000000*%
G04 #@! TD*
G04 #@! TA.AperFunction,ComponentPad*
%ADD18O,1.500000X1.050000*%
G04 #@! TD*
G04 #@! TA.AperFunction,ComponentPad*
%ADD19R,1.500000X1.050000*%
G04 #@! TD*
G04 #@! TA.AperFunction,ComponentPad*
%ADD20C,1.600000*%
G04 #@! TD*
G04 #@! TA.AperFunction,Conductor*
%ADD21C,0.250000*%
G04 #@! TD*
G04 #@! TA.AperFunction,Conductor*
%ADD22C,0.254000*%
G04 #@! TD*
G04 APERTURE END LIST*
D10*
G04 #@! TO.P,J1,1*
G04 #@! TO.N,VCC*
X43942000Y6350000D03*
D11*
G04 #@! TO.P,J1,2*
G04 #@! TO.N,GND*
X43942000Y3810000D03*
G04 #@! TO.P,J1,3*
G04 #@! TO.N,Net-(J1-Pad3)*
X46482000Y6350000D03*
G04 #@! TO.P,J1,4*
G04 #@! TO.N,/LCD_DC*
X46482000Y3810000D03*
G04 #@! TO.P,J1,5*
G04 #@! TO.N,/LCD_CS*
X49022000Y6350000D03*
G04 #@! TO.P,J1,6*
G04 #@! TO.N,Net-(J1-Pad6)*
X49022000Y3810000D03*
G04 #@! TO.P,J1,7*
G04 #@! TO.N,/LCD_RES*
X51562000Y6350000D03*
G04 #@! TO.P,J1,8*
G04 #@! TO.N,Net-(J1-Pad8)*
X51562000Y3810000D03*
G04 #@! TO.P,J1,9*
G04 #@! TO.N,/BT_SW*
X54102000Y6350000D03*
G04 #@! TO.P,J1,10*
G04 #@! TO.N,/BEEPER*
X54102000Y3810000D03*
G04 #@! TD*
G04 #@! TO.P,J2,10*
G04 #@! TO.N,/MISO*
X76454000Y3810000D03*
G04 #@! TO.P,J2,9*
G04 #@! TO.N,/SCK*
X76454000Y6350000D03*
G04 #@! TO.P,J2,8*
G04 #@! TO.N,/BT_EN2*
X73914000Y3810000D03*
G04 #@! TO.P,J2,7*
G04 #@! TO.N,/SD_SS*
X73914000Y6350000D03*
G04 #@! TO.P,J2,6*
G04 #@! TO.N,/BT_EN1*
X71374000Y3810000D03*
G04 #@! TO.P,J2,5*
G04 #@! TO.N,/MOSI*
X71374000Y6350000D03*
G04 #@! TO.P,J2,4*
G04 #@! TO.N,/SD_DET*
X68834000Y3810000D03*
G04 #@! TO.P,J2,3*
G04 #@! TO.N,Net-(J2-Pad3)*
X68834000Y6350000D03*
G04 #@! TO.P,J2,2*
G04 #@! TO.N,GND*
X66294000Y3810000D03*
D10*
G04 #@! TO.P,J2,1*
G04 #@! TO.N,Net-(J2-Pad1)*
X66294000Y6350000D03*
G04 #@! TD*
D12*
G04 #@! TO.P,J4,1*
G04 #@! TO.N,GND*
X20611000Y24770000D03*
D13*
G04 #@! TO.P,J4,2*
G04 #@! TO.N,VCC*
X23151000Y24770000D03*
G04 #@! TO.P,J4,3*
G04 #@! TO.N,/MISO*
X25691000Y24770000D03*
G04 #@! TO.P,J4,4*
G04 #@! TO.N,/MOSI*
X28231000Y24770000D03*
G04 #@! TO.P,J4,5*
G04 #@! TO.N,/SCK*
X30771000Y24770000D03*
G04 #@! TO.P,J4,6*
G04 #@! TO.N,/SD_SS*
X33311000Y24770000D03*
G04 #@! TO.P,J4,7*
G04 #@! TO.N,/SD_DET*
X35851000Y24770000D03*
G04 #@! TD*
D14*
G04 #@! TO.P,D1,1*
G04 #@! TO.N,VCC*
X36576000Y34290000D03*
D15*
G04 #@! TO.P,D1,2*
G04 #@! TO.N,Net-(D1-Pad2)*
X44196000Y34290000D03*
G04 #@! TD*
D12*
G04 #@! TO.P,J3,1*
G04 #@! TO.N,GND*
X13434000Y14282000D03*
D13*
G04 #@! TO.P,J3,2*
G04 #@! TO.N,VCC*
X13434000Y16822000D03*
G04 #@! TO.P,J3,3*
G04 #@! TO.N,/SCK*
X13434000Y19362000D03*
G04 #@! TO.P,J3,4*
G04 #@! TO.N,/MOSI*
X13434000Y21902000D03*
G04 #@! TO.P,J3,5*
G04 #@! TO.N,/LCD_RES*
X13434000Y24442000D03*
G04 #@! TO.P,J3,6*
G04 #@! TO.N,/LCD_DC*
X13434000Y26982000D03*
G04 #@! TO.P,J3,7*
G04 #@! TO.N,/LCD_CS*
X13434000Y29522000D03*
G04 #@! TD*
D12*
G04 #@! TO.P,J5,1*
G04 #@! TO.N,GND*
X101429000Y8893000D03*
D13*
G04 #@! TO.P,J5,2*
G04 #@! TO.N,VCC*
X103969000Y8893000D03*
G04 #@! TO.P,J5,3*
G04 #@! TO.N,/BT_SW*
X106509000Y8893000D03*
G04 #@! TO.P,J5,4*
G04 #@! TO.N,/BT_EN1*
X109049000Y8893000D03*
G04 #@! TO.P,J5,5*
G04 #@! TO.N,/BT_EN2*
X111589000Y8893000D03*
G04 #@! TD*
D16*
G04 #@! TO.P,LS1,1*
G04 #@! TO.N,VCC*
X69850000Y33020000D03*
D17*
G04 #@! TO.P,LS1,2*
G04 #@! TO.N,Net-(D1-Pad2)*
X69850000Y25420000D03*
G04 #@! TD*
D18*
G04 #@! TO.P,Q1,2*
G04 #@! TO.N,Net-(Q1-Pad2)*
X78740000Y20574000D03*
G04 #@! TO.P,Q1,3*
G04 #@! TO.N,Net-(Q1-Pad3)*
X78740000Y21844000D03*
D19*
G04 #@! TO.P,Q1,1*
G04 #@! TO.N,GND*
X78740000Y19304000D03*
G04 #@! TD*
D15*
G04 #@! TO.P,R1,2*
G04 #@! TO.N,Net-(Q1-Pad2)*
X49784000Y32004000D03*
D20*
G04 #@! TO.P,R1,1*
G04 #@! TO.N,/BEEPER*
X49784000Y24384000D03*
G04 #@! TD*
G04 #@! TO.P,R2,1*
G04 #@! TO.N,Net-(D1-Pad2)*
X78740000Y32512000D03*
D15*
G04 #@! TO.P,R2,2*
G04 #@! TO.N,Net-(Q1-Pad3)*
X78740000Y24892000D03*
G04 #@! TD*
D21*
G04 #@! TO.N,/LCD_CS*
X11742000Y29522000D02*
X13434000Y29522000D01*
X9906000Y27686000D02*
X11742000Y29522000D01*
X9906000Y11938000D02*
X9906000Y27686000D01*
X12446000Y9398000D02*
X9906000Y11938000D01*
X44958000Y9398000D02*
X44450000Y9398000D01*
X44450000Y9398000D02*
X12446000Y9398000D01*
X48006000Y9398000D02*
X44450000Y9398000D01*
X49022000Y6350000D02*
X49022000Y8382000D01*
X49022000Y8382000D02*
X48006000Y9398000D01*
G04 #@! TO.N,/LCD_RES*
X12700000Y10414000D02*
X10668000Y12446000D01*
X10668000Y23368000D02*
X11742000Y24442000D01*
X11742000Y24442000D02*
X13434000Y24442000D01*
X10668000Y12446000D02*
X10668000Y23368000D01*
X48514000Y10414000D02*
X48260000Y10414000D01*
X48260000Y10414000D02*
X12700000Y10414000D01*
X49530000Y10414000D02*
X48260000Y10414000D01*
X51562000Y6350000D02*
X51562000Y8382000D01*
X51562000Y8382000D02*
X49530000Y10414000D01*
G04 #@! TO.N,/BT_SW*
X106509000Y7195000D02*
X106509000Y8893000D01*
X105156000Y5842000D02*
X106509000Y7195000D01*
X97028000Y5842000D02*
X105156000Y5842000D01*
X61468000Y1016000D02*
X79248000Y1016000D01*
X94488000Y8382000D02*
X97028000Y5842000D01*
X56134000Y6350000D02*
X61468000Y1016000D01*
X79248000Y1016000D02*
X86614000Y8382000D01*
X54102000Y6350000D02*
X56134000Y6350000D01*
X86614000Y8382000D02*
X94488000Y8382000D01*
G04 #@! TO.N,/SCK*
X30771000Y22897000D02*
X30771000Y24770000D01*
X13434000Y19362000D02*
X27236000Y19362000D01*
X27236000Y19362000D02*
X30771000Y22897000D01*
G04 #@! TO.N,/MOSI*
X28231000Y22643000D02*
X28231000Y24770000D01*
X27432000Y21844000D02*
X28231000Y22643000D01*
X13434000Y21902000D02*
X13492000Y21844000D01*
X13492000Y21844000D02*
X27432000Y21844000D01*
G04 #@! TO.N,/SD_DET*
X39238000Y24770000D02*
X35851000Y24770000D01*
X61976000Y2032000D02*
X39238000Y24770000D01*
X67310000Y2032000D02*
X67056000Y2032000D01*
X67056000Y2032000D02*
X61976000Y2032000D01*
X68580000Y2032000D02*
X67056000Y2032000D01*
X68834000Y3810000D02*
X68834000Y2286000D01*
X68834000Y2286000D02*
X68580000Y2032000D01*
G04 #@! TD*
D22*
G04 #@! TO.N,GND*
G36*
X23540090Y38333463D02*
X23581095Y38272095D01*
X23824217Y38109646D01*
X24038612Y38067000D01*
X24038615Y38067000D01*
X24110999Y38052602D01*
X24183383Y38067000D01*
X31038616Y38067000D01*
X31111000Y38052602D01*
X31183384Y38067000D01*
X31183388Y38067000D01*
X31397783Y38109646D01*
X31640905Y38272095D01*
X31681911Y38333465D01*
X33095015Y39746569D01*
X86299000Y39746569D01*
X86299000Y38857431D01*
X86639259Y38035974D01*
X87267974Y37407259D01*
X88089431Y37067000D01*
X88978569Y37067000D01*
X89800026Y37407259D01*
X90428741Y38035974D01*
X90769000Y38857431D01*
X90769000Y39746569D01*
X90428741Y40568026D01*
X89800026Y41196741D01*
X88978569Y41537000D01*
X88089431Y41537000D01*
X87267974Y41196741D01*
X86639259Y40568026D01*
X86299000Y39746569D01*
X33095015Y39746569D01*
X34915447Y41567000D01*
X125229554Y41567000D01*
X125458241Y41338313D01*
X124978569Y41537000D01*
X124089431Y41537000D01*
X123267974Y41196741D01*
X122639259Y40568026D01*
X122299000Y39746569D01*
X122299000Y38857431D01*
X122639259Y38035974D01*
X123267974Y37407259D01*
X124089431Y37067000D01*
X124978569Y37067000D01*
X125800026Y37407259D01*
X126428741Y38035974D01*
X126769000Y38857431D01*
X126769000Y39746569D01*
X126570314Y40226240D01*
X128799000Y37997553D01*
X128799001Y4606448D01*
X126570314Y2377760D01*
X126769000Y2857431D01*
X126769000Y3746569D01*
X126428741Y4568026D01*
X125800026Y5196741D01*
X124978569Y5537000D01*
X124089431Y5537000D01*
X123267974Y5196741D01*
X122639259Y4568026D01*
X122299000Y3746569D01*
X122299000Y2857431D01*
X122639259Y2035974D01*
X123267974Y1407259D01*
X124089431Y1067000D01*
X124978569Y1067000D01*
X125458241Y1265687D01*
X125229554Y1037000D01*
X80343801Y1037000D01*
X83053370Y3746569D01*
X86299000Y3746569D01*
X86299000Y2857431D01*
X86639259Y2035974D01*
X87267974Y1407259D01*
X88089431Y1067000D01*
X88978569Y1067000D01*
X89800026Y1407259D01*
X90428741Y2035974D01*
X90769000Y2857431D01*
X90769000Y3746569D01*
X90428741Y4568026D01*
X89800026Y5196741D01*
X88978569Y5537000D01*
X88089431Y5537000D01*
X87267974Y5196741D01*
X86639259Y4568026D01*
X86299000Y3746569D01*
X83053370Y3746569D01*
X86928802Y7622000D01*
X94173199Y7622000D01*
X96437673Y5357524D01*
X96480071Y5294071D01*
X96543524Y5251673D01*
X96543526Y5251671D01*
X96625735Y5196741D01*
X96731463Y5126096D01*
X96953148Y5082000D01*
X96953152Y5082000D01*
X97027999Y5067112D01*
X97102846Y5082000D01*
X105081153Y5082000D01*
X105156000Y5067112D01*
X105230847Y5082000D01*
X105230852Y5082000D01*
X105452537Y5126096D01*
X105703929Y5294071D01*
X105746331Y5357530D01*
X106993473Y6604671D01*
X107056929Y6647071D01*
X107224904Y6898463D01*
X107269000Y7120148D01*
X107269000Y7120153D01*
X107283888Y7195000D01*
X107269000Y7269847D01*
X107269000Y7614822D01*
X107579625Y7822375D01*
X107779000Y8120761D01*
X107978375Y7822375D01*
X108469582Y7494161D01*
X108902744Y7408000D01*
X109195256Y7408000D01*
X109628418Y7494161D01*
X110119625Y7822375D01*
X110319000Y8120761D01*
X110518375Y7822375D01*
X111009582Y7494161D01*
X111442744Y7408000D01*
X111735256Y7408000D01*
X112168418Y7494161D01*
X112659625Y7822375D01*
X112987839Y8313582D01*
X113103092Y8893000D01*
X112987839Y9472418D01*
X112659625Y9963625D01*
X112168418Y10291839D01*
X111735256Y10378000D01*
X111442744Y10378000D01*
X111009582Y10291839D01*
X110518375Y9963625D01*
X110319000Y9665239D01*
X110119625Y9963625D01*
X109628418Y10291839D01*
X109195256Y10378000D01*
X108902744Y10378000D01*
X108469582Y10291839D01*
X107978375Y9963625D01*
X107779000Y9665239D01*
X107579625Y9963625D01*
X107088418Y10291839D01*
X106655256Y10378000D01*
X106362744Y10378000D01*
X105929582Y10291839D01*
X105438375Y9963625D01*
X105239000Y9665239D01*
X105039625Y9963625D01*
X104548418Y10291839D01*
X104115256Y10378000D01*
X103822744Y10378000D01*
X103389582Y10291839D01*
X102898375Y9963625D01*
X102883904Y9941967D01*
X102817327Y10102698D01*
X102638699Y10281327D01*
X102405310Y10378000D01*
X101714750Y10378000D01*
X101556000Y10219250D01*
X101556000Y9020000D01*
X101576000Y9020000D01*
X101576000Y8766000D01*
X101556000Y8766000D01*
X101556000Y7566750D01*
X101714750Y7408000D01*
X102405310Y7408000D01*
X102638699Y7504673D01*
X102817327Y7683302D01*
X102883904Y7844033D01*
X102898375Y7822375D01*
X103389582Y7494161D01*
X103822744Y7408000D01*
X104115256Y7408000D01*
X104548418Y7494161D01*
X105039625Y7822375D01*
X105239000Y8120761D01*
X105438375Y7822375D01*
X105749000Y7614822D01*
X105749000Y7509802D01*
X104841199Y6602000D01*
X97342803Y6602000D01*
X95337552Y8607250D01*
X99944000Y8607250D01*
X99944000Y7916691D01*
X100040673Y7683302D01*
X100219301Y7504673D01*
X100452690Y7408000D01*
X101143250Y7408000D01*
X101302000Y7566750D01*
X101302000Y8766000D01*
X100102750Y8766000D01*
X99944000Y8607250D01*
X95337552Y8607250D01*
X95078331Y8866470D01*
X95035929Y8929929D01*
X94784537Y9097904D01*
X94562852Y9142000D01*
X94562847Y9142000D01*
X94488000Y9156888D01*
X94413153Y9142000D01*
X86688846Y9142000D01*
X86613999Y9156888D01*
X86539152Y9142000D01*
X86539148Y9142000D01*
X86317463Y9097904D01*
X86066071Y8929929D01*
X86023671Y8866473D01*
X78933199Y1776000D01*
X69407272Y1776000D01*
X69549904Y1989463D01*
X69594000Y2211148D01*
X69594000Y2211152D01*
X69608888Y2285999D01*
X69594000Y2360846D01*
X69594000Y2515465D01*
X69914430Y2729570D01*
X70104000Y3013281D01*
X70293570Y2729570D01*
X70789275Y2398350D01*
X71226402Y2311400D01*
X71521598Y2311400D01*
X71958725Y2398350D01*
X72454430Y2729570D01*
X72644000Y3013281D01*
X72833570Y2729570D01*
X73329275Y2398350D01*
X73766402Y2311400D01*
X74061598Y2311400D01*
X74498725Y2398350D01*
X74994430Y2729570D01*
X75184000Y3013281D01*
X75373570Y2729570D01*
X75869275Y2398350D01*
X76306402Y2311400D01*
X76601598Y2311400D01*
X77038725Y2398350D01*
X77534430Y2729570D01*
X77865650Y3225275D01*
X77981959Y3810000D01*
X77865650Y4394725D01*
X77534430Y4890430D01*
X77250719Y5080000D01*
X77534430Y5269570D01*
X77865650Y5765275D01*
X77981959Y6350000D01*
X77865650Y6934725D01*
X77534430Y7430430D01*
X77038725Y7761650D01*
X76601598Y7848600D01*
X76306402Y7848600D01*
X75869275Y7761650D01*
X75373570Y7430430D01*
X75184000Y7146719D01*
X74994430Y7430430D01*
X74498725Y7761650D01*
X74061598Y7848600D01*
X73766402Y7848600D01*
X73329275Y7761650D01*
X72833570Y7430430D01*
X72644000Y7146719D01*
X72454430Y7430430D01*
X71958725Y7761650D01*
X71521598Y7848600D01*
X71226402Y7848600D01*
X70789275Y7761650D01*
X70293570Y7430430D01*
X70104000Y7146719D01*
X69914430Y7430430D01*
X69418725Y7761650D01*
X68981598Y7848600D01*
X68686402Y7848600D01*
X68249275Y7761650D01*
X67760932Y7435349D01*
X67755757Y7461365D01*
X67615409Y7671409D01*
X67405365Y7811757D01*
X67157600Y7861040D01*
X65430400Y7861040D01*
X65182635Y7811757D01*
X64972591Y7671409D01*
X64832243Y7461365D01*
X64782960Y7213600D01*
X64782960Y5486400D01*
X64832243Y5238635D01*
X64972591Y5028591D01*
X65182635Y4888243D01*
X65274950Y4869881D01*
X65087179Y4698490D01*
X64839032Y4169027D01*
X64959531Y3937000D01*
X66167000Y3937000D01*
X66167000Y3957000D01*
X66421000Y3957000D01*
X66421000Y3937000D01*
X66441000Y3937000D01*
X66441000Y3683000D01*
X66421000Y3683000D01*
X66421000Y3663000D01*
X66167000Y3663000D01*
X66167000Y3683000D01*
X64959531Y3683000D01*
X64839032Y3450973D01*
X65087179Y2921510D01*
X65229067Y2792000D01*
X62290802Y2792000D01*
X55213493Y9869309D01*
X99944000Y9869309D01*
X99944000Y9178750D01*
X100102750Y9020000D01*
X101302000Y9020000D01*
X101302000Y10219250D01*
X101143250Y10378000D01*
X100452690Y10378000D01*
X100219301Y10281327D01*
X100040673Y10102698D01*
X99944000Y9869309D01*
X55213493Y9869309D01*
X53280802Y11802000D01*
X88284601Y11802000D01*
X88341646Y11515217D01*
X88504095Y11272095D01*
X88747217Y11109646D01*
X88961612Y11067000D01*
X89034000Y11052601D01*
X89106388Y11067000D01*
X123961612Y11067000D01*
X124034000Y11052601D01*
X124106388Y11067000D01*
X124320783Y11109646D01*
X124563905Y11272095D01*
X124726354Y11515217D01*
X124783399Y11802000D01*
X124769000Y11874388D01*
X124769000Y33143831D01*
X124783398Y33216215D01*
X124769000Y33288601D01*
X124769000Y33288602D01*
X124726354Y33502997D01*
X124563905Y33746119D01*
X124502538Y33787123D01*
X119019125Y39270535D01*
X118978119Y39331905D01*
X118734997Y39494354D01*
X118520602Y39537000D01*
X118520598Y39537000D01*
X118448214Y39551398D01*
X118375830Y39537000D01*
X94692171Y39537000D01*
X94619787Y39551398D01*
X94547403Y39537000D01*
X94547399Y39537000D01*
X94333004Y39494354D01*
X94089882Y39331905D01*
X94048878Y39270538D01*
X88565465Y33787125D01*
X88504095Y33746119D01*
X88341646Y33502996D01*
X88299000Y33288601D01*
X88299000Y33288598D01*
X88284602Y33216214D01*
X88299000Y33143830D01*
X88299001Y11874393D01*
X88284601Y11802000D01*
X53280802Y11802000D01*
X46064552Y19018250D01*
X77355000Y19018250D01*
X77355000Y18652691D01*
X77451673Y18419302D01*
X77630301Y18240673D01*
X77863690Y18144000D01*
X78454250Y18144000D01*
X78613000Y18302750D01*
X78613000Y19177000D01*
X78867000Y19177000D01*
X78867000Y18302750D01*
X79025750Y18144000D01*
X79616310Y18144000D01*
X79849699Y18240673D01*
X80028327Y18419302D01*
X80125000Y18652691D01*
X80125000Y19018250D01*
X79966250Y19177000D01*
X78867000Y19177000D01*
X78613000Y19177000D01*
X77513750Y19177000D01*
X77355000Y19018250D01*
X46064552Y19018250D01*
X43238802Y21844000D01*
X77332275Y21844000D01*
X77422305Y21391391D01*
X77544174Y21209000D01*
X77422305Y21026609D01*
X77332275Y20574000D01*
X77422305Y20121391D01*
X77423224Y20120016D01*
X77355000Y19955309D01*
X77355000Y19589750D01*
X77513750Y19431000D01*
X78315290Y19431000D01*
X78400754Y19414000D01*
X79079246Y19414000D01*
X79164710Y19431000D01*
X79966250Y19431000D01*
X80125000Y19589750D01*
X80125000Y19955309D01*
X80056776Y20120016D01*
X80057695Y20121391D01*
X80147725Y20574000D01*
X80057695Y21026609D01*
X79935826Y21209000D01*
X80057695Y21391391D01*
X80147725Y21844000D01*
X80057695Y22296609D01*
X79801313Y22680313D01*
X79417609Y22936695D01*
X79079246Y23004000D01*
X78400754Y23004000D01*
X78062391Y22936695D01*
X77678687Y22680313D01*
X77422305Y22296609D01*
X77332275Y21844000D01*
X43238802Y21844000D01*
X40413363Y24669439D01*
X48349000Y24669439D01*
X48349000Y24098561D01*
X48567466Y23571138D01*
X48971138Y23167466D01*
X49498561Y22949000D01*
X50069439Y22949000D01*
X50596862Y23167466D01*
X51000534Y23571138D01*
X51219000Y24098561D01*
X51219000Y24669439D01*
X51000534Y25196862D01*
X50596862Y25600534D01*
X50247555Y25745222D01*
X68215000Y25745222D01*
X68215000Y25094778D01*
X68463914Y24493847D01*
X68923847Y24033914D01*
X69524778Y23785000D01*
X70175222Y23785000D01*
X70776153Y24033914D01*
X71236086Y24493847D01*
X71401006Y24892000D01*
X77276887Y24892000D01*
X77388260Y24332091D01*
X77705423Y23857423D01*
X78180091Y23540260D01*
X78598667Y23457000D01*
X78881333Y23457000D01*
X79299909Y23540260D01*
X79774577Y23857423D01*
X80091740Y24332091D01*
X80203113Y24892000D01*
X80091740Y25451909D01*
X79774577Y25926577D01*
X79299909Y26243740D01*
X78881333Y26327000D01*
X78598667Y26327000D01*
X78180091Y26243740D01*
X77705423Y25926577D01*
X77388260Y25451909D01*
X77276887Y24892000D01*
X71401006Y24892000D01*
X71485000Y25094778D01*
X71485000Y25745222D01*
X71236086Y26346153D01*
X70776153Y26806086D01*
X70175222Y27055000D01*
X69524778Y27055000D01*
X68923847Y26806086D01*
X68463914Y26346153D01*
X68215000Y25745222D01*
X50247555Y25745222D01*
X50069439Y25819000D01*
X49498561Y25819000D01*
X48971138Y25600534D01*
X48567466Y25196862D01*
X48349000Y24669439D01*
X40413363Y24669439D01*
X39828331Y25254470D01*
X39785929Y25317929D01*
X39534537Y25485904D01*
X39312852Y25530000D01*
X39312847Y25530000D01*
X39238000Y25544888D01*
X39163153Y25530000D01*
X37129178Y25530000D01*
X36921625Y25840625D01*
X36430418Y26168839D01*
X35997256Y26255000D01*
X35704744Y26255000D01*
X35271582Y26168839D01*
X34780375Y25840625D01*
X34581000Y25542239D01*
X34381625Y25840625D01*
X33890418Y26168839D01*
X33457256Y26255000D01*
X33164744Y26255000D01*
X32731582Y26168839D01*
X32240375Y25840625D01*
X32041000Y25542239D01*
X31841625Y25840625D01*
X31350418Y26168839D01*
X30917256Y26255000D01*
X30624744Y26255000D01*
X30191582Y26168839D01*
X29700375Y25840625D01*
X29501000Y25542239D01*
X29301625Y25840625D01*
X28810418Y26168839D01*
X28377256Y26255000D01*
X28084744Y26255000D01*
X27651582Y26168839D01*
X27160375Y25840625D01*
X26961000Y25542239D01*
X26761625Y25840625D01*
X26270418Y26168839D01*
X25837256Y26255000D01*
X25544744Y26255000D01*
X25111582Y26168839D01*
X24620375Y25840625D01*
X24421000Y25542239D01*
X24221625Y25840625D01*
X23730418Y26168839D01*
X23297256Y26255000D01*
X23004744Y26255000D01*
X22571582Y26168839D01*
X22080375Y25840625D01*
X22065904Y25818967D01*
X21999327Y25979698D01*
X21820699Y26158327D01*
X21587310Y26255000D01*
X20896750Y26255000D01*
X20738000Y26096250D01*
X20738000Y24897000D01*
X20758000Y24897000D01*
X20758000Y24643000D01*
X20738000Y24643000D01*
X20738000Y23443750D01*
X20896750Y23285000D01*
X21587310Y23285000D01*
X21820699Y23381673D01*
X21999327Y23560302D01*
X22065904Y23721033D01*
X22080375Y23699375D01*
X22571582Y23371161D01*
X23004744Y23285000D01*
X23297256Y23285000D01*
X23730418Y23371161D01*
X24221625Y23699375D01*
X24421000Y23997761D01*
X24620375Y23699375D01*
X25111582Y23371161D01*
X25544744Y23285000D01*
X25837256Y23285000D01*
X26270418Y23371161D01*
X26761625Y23699375D01*
X26961000Y23997761D01*
X27160375Y23699375D01*
X27471000Y23491822D01*
X27471000Y22957802D01*
X27117199Y22604000D01*
X14750932Y22604000D01*
X14504625Y22972625D01*
X14206239Y23172000D01*
X14504625Y23371375D01*
X14832839Y23862582D01*
X14948092Y24442000D01*
X14939688Y24484250D01*
X19126000Y24484250D01*
X19126000Y23793691D01*
X19222673Y23560302D01*
X19401301Y23381673D01*
X19634690Y23285000D01*
X20325250Y23285000D01*
X20484000Y23443750D01*
X20484000Y24643000D01*
X19284750Y24643000D01*
X19126000Y24484250D01*
X14939688Y24484250D01*
X14832839Y25021418D01*
X14504625Y25512625D01*
X14206239Y25712000D01*
X14257586Y25746309D01*
X19126000Y25746309D01*
X19126000Y25055750D01*
X19284750Y24897000D01*
X20484000Y24897000D01*
X20484000Y26096250D01*
X20325250Y26255000D01*
X19634690Y26255000D01*
X19401301Y26158327D01*
X19222673Y25979698D01*
X19126000Y25746309D01*
X14257586Y25746309D01*
X14504625Y25911375D01*
X14832839Y26402582D01*
X14948092Y26982000D01*
X14832839Y27561418D01*
X14504625Y28052625D01*
X14206239Y28252000D01*
X14504625Y28451375D01*
X14832839Y28942582D01*
X14948092Y29522000D01*
X14832839Y30101418D01*
X14504625Y30592625D01*
X14013418Y30920839D01*
X13580256Y31007000D01*
X13287744Y31007000D01*
X12854582Y30920839D01*
X12363375Y30592625D01*
X12155822Y30282000D01*
X11816846Y30282000D01*
X11741999Y30296888D01*
X11667152Y30282000D01*
X11667148Y30282000D01*
X11445463Y30237904D01*
X11194071Y30069929D01*
X11151671Y30006473D01*
X9421528Y28276329D01*
X9358072Y28233929D01*
X9315672Y28170473D01*
X9315671Y28170472D01*
X9190097Y27982537D01*
X9131112Y27686000D01*
X9146001Y27611148D01*
X9146000Y12012847D01*
X9131112Y11938000D01*
X9146000Y11863153D01*
X9146000Y11863149D01*
X9190096Y11641464D01*
X9358071Y11390071D01*
X9421530Y11347669D01*
X11855673Y8913524D01*
X11898071Y8850071D01*
X11961524Y8807673D01*
X11961526Y8807671D01*
X12086902Y8723898D01*
X12149463Y8682096D01*
X12371148Y8638000D01*
X12371152Y8638000D01*
X12445999Y8623112D01*
X12520846Y8638000D01*
X47691199Y8638000D01*
X48262001Y8067197D01*
X48262001Y7644535D01*
X47941570Y7430430D01*
X47752000Y7146719D01*
X47562430Y7430430D01*
X47066725Y7761650D01*
X46629598Y7848600D01*
X46334402Y7848600D01*
X45897275Y7761650D01*
X45408932Y7435349D01*
X45403757Y7461365D01*
X45263409Y7671409D01*
X45053365Y7811757D01*
X44805600Y7861040D01*
X43078400Y7861040D01*
X42830635Y7811757D01*
X42620591Y7671409D01*
X42480243Y7461365D01*
X42430960Y7213600D01*
X42430960Y5486400D01*
X42480243Y5238635D01*
X42620591Y5028591D01*
X42830635Y4888243D01*
X42922950Y4869881D01*
X42735179Y4698490D01*
X42487032Y4169027D01*
X42607531Y3937000D01*
X43815000Y3937000D01*
X43815000Y3957000D01*
X44069000Y3957000D01*
X44069000Y3937000D01*
X44089000Y3937000D01*
X44089000Y3683000D01*
X44069000Y3683000D01*
X44069000Y2476183D01*
X44301026Y2355042D01*
X44716947Y2527312D01*
X45148821Y2921510D01*
X45200146Y3031021D01*
X45401570Y2729570D01*
X45897275Y2398350D01*
X46334402Y2311400D01*
X46629598Y2311400D01*
X47066725Y2398350D01*
X47562430Y2729570D01*
X47752000Y3013281D01*
X47941570Y2729570D01*
X48437275Y2398350D01*
X48874402Y2311400D01*
X49169598Y2311400D01*
X49606725Y2398350D01*
X50102430Y2729570D01*
X50292000Y3013281D01*
X50481570Y2729570D01*
X50977275Y2398350D01*
X51414402Y2311400D01*
X51709598Y2311400D01*
X52146725Y2398350D01*
X52642430Y2729570D01*
X52832000Y3013281D01*
X53021570Y2729570D01*
X53517275Y2398350D01*
X53954402Y2311400D01*
X54249598Y2311400D01*
X54686725Y2398350D01*
X55182430Y2729570D01*
X55513650Y3225275D01*
X55629959Y3810000D01*
X55513650Y4394725D01*
X55182430Y4890430D01*
X54898719Y5080000D01*
X55182430Y5269570D01*
X55396535Y5590000D01*
X55819199Y5590000D01*
X60372198Y1037000D01*
X34416560Y1037000D01*
X32001622Y3450973D01*
X42487032Y3450973D01*
X42735179Y2921510D01*
X43167053Y2527312D01*
X43582974Y2355042D01*
X43815000Y2476183D01*
X43815000Y3683000D01*
X42607531Y3683000D01*
X42487032Y3450973D01*
X32001622Y3450973D01*
X31681869Y3770598D01*
X31640905Y3831905D01*
X31579474Y3872952D01*
X31579423Y3873003D01*
X31521658Y3911584D01*
X31397783Y3994354D01*
X31397705Y3994369D01*
X31397643Y3994411D01*
X31257647Y4022229D01*
X31183388Y4037000D01*
X31183310Y4037000D01*
X31110851Y4051398D01*
X31038542Y4037000D01*
X24183607Y4037000D01*
X24111449Y4051398D01*
X24038837Y4037000D01*
X24038612Y4037000D01*
X23967250Y4022805D01*
X23824633Y3994526D01*
X23824442Y3994399D01*
X23824217Y3994354D01*
X23702927Y3913311D01*
X23642804Y3873190D01*
X23642646Y3873032D01*
X23581095Y3831905D01*
X23540215Y3770724D01*
X20803212Y1037000D01*
X4638447Y1037000D01*
X4409761Y1265686D01*
X4889431Y1067000D01*
X5778569Y1067000D01*
X6600026Y1407259D01*
X7228741Y2035974D01*
X7569000Y2857431D01*
X7569000Y3746569D01*
X7228741Y4568026D01*
X6600026Y5196741D01*
X5778569Y5537000D01*
X4889431Y5537000D01*
X4067974Y5196741D01*
X3439259Y4568026D01*
X3099000Y3746569D01*
X3099000Y2857431D01*
X3297686Y2377760D01*
X1069000Y4606446D01*
X1069000Y32004000D01*
X48320887Y32004000D01*
X48432260Y31444091D01*
X48749423Y30969423D01*
X49224091Y30652260D01*
X49642667Y30569000D01*
X49925333Y30569000D01*
X50343909Y30652260D01*
X50818577Y30969423D01*
X51135740Y31444091D01*
X51247113Y32004000D01*
X51135740Y32563909D01*
X50818577Y33038577D01*
X50343909Y33355740D01*
X49925333Y33439000D01*
X49642667Y33439000D01*
X49224091Y33355740D01*
X48749423Y33038577D01*
X48432260Y32563909D01*
X48320887Y32004000D01*
X1069000Y32004000D01*
X1069000Y35090000D01*
X35128560Y35090000D01*
X35128560Y33490000D01*
X35177843Y33242235D01*
X35318191Y33032191D01*
X35528235Y32891843D01*
X35776000Y32842560D01*
X37376000Y32842560D01*
X37623765Y32891843D01*
X37833809Y33032191D01*
X37974157Y33242235D01*
X38023440Y33490000D01*
X38023440Y34290000D01*
X42732887Y34290000D01*
X42844260Y33730091D01*
X43161423Y33255423D01*
X43636091Y32938260D01*
X44054667Y32855000D01*
X44337333Y32855000D01*
X44755909Y32938260D01*
X45230577Y33255423D01*
X45547740Y33730091D01*
X45605406Y34020000D01*
X68202560Y34020000D01*
X68202560Y32020000D01*
X68251843Y31772235D01*
X68392191Y31562191D01*
X68602235Y31421843D01*
X68850000Y31372560D01*
X70850000Y31372560D01*
X71097765Y31421843D01*
X71307809Y31562191D01*
X71448157Y31772235D01*
X71497440Y32020000D01*
X71497440Y32797439D01*
X77305000Y32797439D01*
X77305000Y32226561D01*
X77523466Y31699138D01*
X77927138Y31295466D01*
X78454561Y31077000D01*
X79025439Y31077000D01*
X79552862Y31295466D01*
X79956534Y31699138D01*
X80175000Y32226561D01*
X80175000Y32797439D01*
X79956534Y33324862D01*
X79552862Y33728534D01*
X79025439Y33947000D01*
X78454561Y33947000D01*
X77927138Y33728534D01*
X77523466Y33324862D01*
X77305000Y32797439D01*
X71497440Y32797439D01*
X71497440Y34020000D01*
X71448157Y34267765D01*
X71307809Y34477809D01*
X71097765Y34618157D01*
X70850000Y34667440D01*
X68850000Y34667440D01*
X68602235Y34618157D01*
X68392191Y34477809D01*
X68251843Y34267765D01*
X68202560Y34020000D01*
X45605406Y34020000D01*
X45659113Y34290000D01*
X45547740Y34849909D01*
X45230577Y35324577D01*
X44755909Y35641740D01*
X44337333Y35725000D01*
X44054667Y35725000D01*
X43636091Y35641740D01*
X43161423Y35324577D01*
X42844260Y34849909D01*
X42732887Y34290000D01*
X38023440Y34290000D01*
X38023440Y35090000D01*
X37974157Y35337765D01*
X37833809Y35547809D01*
X37623765Y35688157D01*
X37376000Y35737440D01*
X35776000Y35737440D01*
X35528235Y35688157D01*
X35318191Y35547809D01*
X35177843Y35337765D01*
X35128560Y35090000D01*
X1069000Y35090000D01*
X1069000Y37997554D01*
X3297686Y40226240D01*
X3099000Y39746569D01*
X3099000Y38857431D01*
X3439259Y38035974D01*
X4067974Y37407259D01*
X4889431Y37067000D01*
X5778569Y37067000D01*
X6600026Y37407259D01*
X7228741Y38035974D01*
X7569000Y38857431D01*
X7569000Y39746569D01*
X7228741Y40568026D01*
X6600026Y41196741D01*
X5778569Y41537000D01*
X4889431Y41537000D01*
X4409761Y41338314D01*
X4638447Y41567000D01*
X20306554Y41567000D01*
X23540090Y38333463D01*
X23540090Y38333463D01*
G37*
X23540090Y38333463D02*
X23581095Y38272095D01*
X23824217Y38109646D01*
X24038612Y38067000D01*
X24038615Y38067000D01*
X24110999Y38052602D01*
X24183383Y38067000D01*
X31038616Y38067000D01*
X31111000Y38052602D01*
X31183384Y38067000D01*
X31183388Y38067000D01*
X31397783Y38109646D01*
X31640905Y38272095D01*
X31681911Y38333465D01*
X33095015Y39746569D01*
X86299000Y39746569D01*
X86299000Y38857431D01*
X86639259Y38035974D01*
X87267974Y37407259D01*
X88089431Y37067000D01*
X88978569Y37067000D01*
X89800026Y37407259D01*
X90428741Y38035974D01*
X90769000Y38857431D01*
X90769000Y39746569D01*
X90428741Y40568026D01*
X89800026Y41196741D01*
X88978569Y41537000D01*
X88089431Y41537000D01*
X87267974Y41196741D01*
X86639259Y40568026D01*
X86299000Y39746569D01*
X33095015Y39746569D01*
X34915447Y41567000D01*
X125229554Y41567000D01*
X125458241Y41338313D01*
X124978569Y41537000D01*
X124089431Y41537000D01*
X123267974Y41196741D01*
X122639259Y40568026D01*
X122299000Y39746569D01*
X122299000Y38857431D01*
X122639259Y38035974D01*
X123267974Y37407259D01*
X124089431Y37067000D01*
X124978569Y37067000D01*
X125800026Y37407259D01*
X126428741Y38035974D01*
X126769000Y38857431D01*
X126769000Y39746569D01*
X126570314Y40226240D01*
X128799000Y37997553D01*
X128799001Y4606448D01*
X126570314Y2377760D01*
X126769000Y2857431D01*
X126769000Y3746569D01*
X126428741Y4568026D01*
X125800026Y5196741D01*
X124978569Y5537000D01*
X124089431Y5537000D01*
X123267974Y5196741D01*
X122639259Y4568026D01*
X122299000Y3746569D01*
X122299000Y2857431D01*
X122639259Y2035974D01*
X123267974Y1407259D01*
X124089431Y1067000D01*
X124978569Y1067000D01*
X125458241Y1265687D01*
X125229554Y1037000D01*
X80343801Y1037000D01*
X83053370Y3746569D01*
X86299000Y3746569D01*
X86299000Y2857431D01*
X86639259Y2035974D01*
X87267974Y1407259D01*
X88089431Y1067000D01*
X88978569Y1067000D01*
X89800026Y1407259D01*
X90428741Y2035974D01*
X90769000Y2857431D01*
X90769000Y3746569D01*
X90428741Y4568026D01*
X89800026Y5196741D01*
X88978569Y5537000D01*
X88089431Y5537000D01*
X87267974Y5196741D01*
X86639259Y4568026D01*
X86299000Y3746569D01*
X83053370Y3746569D01*
X86928802Y7622000D01*
X94173199Y7622000D01*
X96437673Y5357524D01*
X96480071Y5294071D01*
X96543524Y5251673D01*
X96543526Y5251671D01*
X96625735Y5196741D01*
X96731463Y5126096D01*
X96953148Y5082000D01*
X96953152Y5082000D01*
X97027999Y5067112D01*
X97102846Y5082000D01*
X105081153Y5082000D01*
X105156000Y5067112D01*
X105230847Y5082000D01*
X105230852Y5082000D01*
X105452537Y5126096D01*
X105703929Y5294071D01*
X105746331Y5357530D01*
X106993473Y6604671D01*
X107056929Y6647071D01*
X107224904Y6898463D01*
X107269000Y7120148D01*
X107269000Y7120153D01*
X107283888Y7195000D01*
X107269000Y7269847D01*
X107269000Y7614822D01*
X107579625Y7822375D01*
X107779000Y8120761D01*
X107978375Y7822375D01*
X108469582Y7494161D01*
X108902744Y7408000D01*
X109195256Y7408000D01*
X109628418Y7494161D01*
X110119625Y7822375D01*
X110319000Y8120761D01*
X110518375Y7822375D01*
X111009582Y7494161D01*
X111442744Y7408000D01*
X111735256Y7408000D01*
X112168418Y7494161D01*
X112659625Y7822375D01*
X112987839Y8313582D01*
X113103092Y8893000D01*
X112987839Y9472418D01*
X112659625Y9963625D01*
X112168418Y10291839D01*
X111735256Y10378000D01*
X111442744Y10378000D01*
X111009582Y10291839D01*
X110518375Y9963625D01*
X110319000Y9665239D01*
X110119625Y9963625D01*
X109628418Y10291839D01*
X109195256Y10378000D01*
X108902744Y10378000D01*
X108469582Y10291839D01*
X107978375Y9963625D01*
X107779000Y9665239D01*
X107579625Y9963625D01*
X107088418Y10291839D01*
X106655256Y10378000D01*
X106362744Y10378000D01*
X105929582Y10291839D01*
X105438375Y9963625D01*
X105239000Y9665239D01*
X105039625Y9963625D01*
X104548418Y10291839D01*
X104115256Y10378000D01*
X103822744Y10378000D01*
X103389582Y10291839D01*
X102898375Y9963625D01*
X102883904Y9941967D01*
X102817327Y10102698D01*
X102638699Y10281327D01*
X102405310Y10378000D01*
X101714750Y10378000D01*
X101556000Y10219250D01*
X101556000Y9020000D01*
X101576000Y9020000D01*
X101576000Y8766000D01*
X101556000Y8766000D01*
X101556000Y7566750D01*
X101714750Y7408000D01*
X102405310Y7408000D01*
X102638699Y7504673D01*
X102817327Y7683302D01*
X102883904Y7844033D01*
X102898375Y7822375D01*
X103389582Y7494161D01*
X103822744Y7408000D01*
X104115256Y7408000D01*
X104548418Y7494161D01*
X105039625Y7822375D01*
X105239000Y8120761D01*
X105438375Y7822375D01*
X105749000Y7614822D01*
X105749000Y7509802D01*
X104841199Y6602000D01*
X97342803Y6602000D01*
X95337552Y8607250D01*
X99944000Y8607250D01*
X99944000Y7916691D01*
X100040673Y7683302D01*
X100219301Y7504673D01*
X100452690Y7408000D01*
X101143250Y7408000D01*
X101302000Y7566750D01*
X101302000Y8766000D01*
X100102750Y8766000D01*
X99944000Y8607250D01*
X95337552Y8607250D01*
X95078331Y8866470D01*
X95035929Y8929929D01*
X94784537Y9097904D01*
X94562852Y9142000D01*
X94562847Y9142000D01*
X94488000Y9156888D01*
X94413153Y9142000D01*
X86688846Y9142000D01*
X86613999Y9156888D01*
X86539152Y9142000D01*
X86539148Y9142000D01*
X86317463Y9097904D01*
X86066071Y8929929D01*
X86023671Y8866473D01*
X78933199Y1776000D01*
X69407272Y1776000D01*
X69549904Y1989463D01*
X69594000Y2211148D01*
X69594000Y2211152D01*
X69608888Y2285999D01*
X69594000Y2360846D01*
X69594000Y2515465D01*
X69914430Y2729570D01*
X70104000Y3013281D01*
X70293570Y2729570D01*
X70789275Y2398350D01*
X71226402Y2311400D01*
X71521598Y2311400D01*
X71958725Y2398350D01*
X72454430Y2729570D01*
X72644000Y3013281D01*
X72833570Y2729570D01*
X73329275Y2398350D01*
X73766402Y2311400D01*
X74061598Y2311400D01*
X74498725Y2398350D01*
X74994430Y2729570D01*
X75184000Y3013281D01*
X75373570Y2729570D01*
X75869275Y2398350D01*
X76306402Y2311400D01*
X76601598Y2311400D01*
X77038725Y2398350D01*
X77534430Y2729570D01*
X77865650Y3225275D01*
X77981959Y3810000D01*
X77865650Y4394725D01*
X77534430Y4890430D01*
X77250719Y5080000D01*
X77534430Y5269570D01*
X77865650Y5765275D01*
X77981959Y6350000D01*
X77865650Y6934725D01*
X77534430Y7430430D01*
X77038725Y7761650D01*
X76601598Y7848600D01*
X76306402Y7848600D01*
X75869275Y7761650D01*
X75373570Y7430430D01*
X75184000Y7146719D01*
X74994430Y7430430D01*
X74498725Y7761650D01*
X74061598Y7848600D01*
X73766402Y7848600D01*
X73329275Y7761650D01*
X72833570Y7430430D01*
X72644000Y7146719D01*
X72454430Y7430430D01*
X71958725Y7761650D01*
X71521598Y7848600D01*
X71226402Y7848600D01*
X70789275Y7761650D01*
X70293570Y7430430D01*
X70104000Y7146719D01*
X69914430Y7430430D01*
X69418725Y7761650D01*
X68981598Y7848600D01*
X68686402Y7848600D01*
X68249275Y7761650D01*
X67760932Y7435349D01*
X67755757Y7461365D01*
X67615409Y7671409D01*
X67405365Y7811757D01*
X67157600Y7861040D01*
X65430400Y7861040D01*
X65182635Y7811757D01*
X64972591Y7671409D01*
X64832243Y7461365D01*
X64782960Y7213600D01*
X64782960Y5486400D01*
X64832243Y5238635D01*
X64972591Y5028591D01*
X65182635Y4888243D01*
X65274950Y4869881D01*
X65087179Y4698490D01*
X64839032Y4169027D01*
X64959531Y3937000D01*
X66167000Y3937000D01*
X66167000Y3957000D01*
X66421000Y3957000D01*
X66421000Y3937000D01*
X66441000Y3937000D01*
X66441000Y3683000D01*
X66421000Y3683000D01*
X66421000Y3663000D01*
X66167000Y3663000D01*
X66167000Y3683000D01*
X64959531Y3683000D01*
X64839032Y3450973D01*
X65087179Y2921510D01*
X65229067Y2792000D01*
X62290802Y2792000D01*
X55213493Y9869309D01*
X99944000Y9869309D01*
X99944000Y9178750D01*
X100102750Y9020000D01*
X101302000Y9020000D01*
X101302000Y10219250D01*
X101143250Y10378000D01*
X100452690Y10378000D01*
X100219301Y10281327D01*
X100040673Y10102698D01*
X99944000Y9869309D01*
X55213493Y9869309D01*
X53280802Y11802000D01*
X88284601Y11802000D01*
X88341646Y11515217D01*
X88504095Y11272095D01*
X88747217Y11109646D01*
X88961612Y11067000D01*
X89034000Y11052601D01*
X89106388Y11067000D01*
X123961612Y11067000D01*
X124034000Y11052601D01*
X124106388Y11067000D01*
X124320783Y11109646D01*
X124563905Y11272095D01*
X124726354Y11515217D01*
X124783399Y11802000D01*
X124769000Y11874388D01*
X124769000Y33143831D01*
X124783398Y33216215D01*
X124769000Y33288601D01*
X124769000Y33288602D01*
X124726354Y33502997D01*
X124563905Y33746119D01*
X124502538Y33787123D01*
X119019125Y39270535D01*
X118978119Y39331905D01*
X118734997Y39494354D01*
X118520602Y39537000D01*
X118520598Y39537000D01*
X118448214Y39551398D01*
X118375830Y39537000D01*
X94692171Y39537000D01*
X94619787Y39551398D01*
X94547403Y39537000D01*
X94547399Y39537000D01*
X94333004Y39494354D01*
X94089882Y39331905D01*
X94048878Y39270538D01*
X88565465Y33787125D01*
X88504095Y33746119D01*
X88341646Y33502996D01*
X88299000Y33288601D01*
X88299000Y33288598D01*
X88284602Y33216214D01*
X88299000Y33143830D01*
X88299001Y11874393D01*
X88284601Y11802000D01*
X53280802Y11802000D01*
X46064552Y19018250D01*
X77355000Y19018250D01*
X77355000Y18652691D01*
X77451673Y18419302D01*
X77630301Y18240673D01*
X77863690Y18144000D01*
X78454250Y18144000D01*
X78613000Y18302750D01*
X78613000Y19177000D01*
X78867000Y19177000D01*
X78867000Y18302750D01*
X79025750Y18144000D01*
X79616310Y18144000D01*
X79849699Y18240673D01*
X80028327Y18419302D01*
X80125000Y18652691D01*
X80125000Y19018250D01*
X79966250Y19177000D01*
X78867000Y19177000D01*
X78613000Y19177000D01*
X77513750Y19177000D01*
X77355000Y19018250D01*
X46064552Y19018250D01*
X43238802Y21844000D01*
X77332275Y21844000D01*
X77422305Y21391391D01*
X77544174Y21209000D01*
X77422305Y21026609D01*
X77332275Y20574000D01*
X77422305Y20121391D01*
X77423224Y20120016D01*
X77355000Y19955309D01*
X77355000Y19589750D01*
X77513750Y19431000D01*
X78315290Y19431000D01*
X78400754Y19414000D01*
X79079246Y19414000D01*
X79164710Y19431000D01*
X79966250Y19431000D01*
X80125000Y19589750D01*
X80125000Y19955309D01*
X80056776Y20120016D01*
X80057695Y20121391D01*
X80147725Y20574000D01*
X80057695Y21026609D01*
X79935826Y21209000D01*
X80057695Y21391391D01*
X80147725Y21844000D01*
X80057695Y22296609D01*
X79801313Y22680313D01*
X79417609Y22936695D01*
X79079246Y23004000D01*
X78400754Y23004000D01*
X78062391Y22936695D01*
X77678687Y22680313D01*
X77422305Y22296609D01*
X77332275Y21844000D01*
X43238802Y21844000D01*
X40413363Y24669439D01*
X48349000Y24669439D01*
X48349000Y24098561D01*
X48567466Y23571138D01*
X48971138Y23167466D01*
X49498561Y22949000D01*
X50069439Y22949000D01*
X50596862Y23167466D01*
X51000534Y23571138D01*
X51219000Y24098561D01*
X51219000Y24669439D01*
X51000534Y25196862D01*
X50596862Y25600534D01*
X50247555Y25745222D01*
X68215000Y25745222D01*
X68215000Y25094778D01*
X68463914Y24493847D01*
X68923847Y24033914D01*
X69524778Y23785000D01*
X70175222Y23785000D01*
X70776153Y24033914D01*
X71236086Y24493847D01*
X71401006Y24892000D01*
X77276887Y24892000D01*
X77388260Y24332091D01*
X77705423Y23857423D01*
X78180091Y23540260D01*
X78598667Y23457000D01*
X78881333Y23457000D01*
X79299909Y23540260D01*
X79774577Y23857423D01*
X80091740Y24332091D01*
X80203113Y24892000D01*
X80091740Y25451909D01*
X79774577Y25926577D01*
X79299909Y26243740D01*
X78881333Y26327000D01*
X78598667Y26327000D01*
X78180091Y26243740D01*
X77705423Y25926577D01*
X77388260Y25451909D01*
X77276887Y24892000D01*
X71401006Y24892000D01*
X71485000Y25094778D01*
X71485000Y25745222D01*
X71236086Y26346153D01*
X70776153Y26806086D01*
X70175222Y27055000D01*
X69524778Y27055000D01*
X68923847Y26806086D01*
X68463914Y26346153D01*
X68215000Y25745222D01*
X50247555Y25745222D01*
X50069439Y25819000D01*
X49498561Y25819000D01*
X48971138Y25600534D01*
X48567466Y25196862D01*
X48349000Y24669439D01*
X40413363Y24669439D01*
X39828331Y25254470D01*
X39785929Y25317929D01*
X39534537Y25485904D01*
X39312852Y25530000D01*
X39312847Y25530000D01*
X39238000Y25544888D01*
X39163153Y25530000D01*
X37129178Y25530000D01*
X36921625Y25840625D01*
X36430418Y26168839D01*
X35997256Y26255000D01*
X35704744Y26255000D01*
X35271582Y26168839D01*
X34780375Y25840625D01*
X34581000Y25542239D01*
X34381625Y25840625D01*
X33890418Y26168839D01*
X33457256Y26255000D01*
X33164744Y26255000D01*
X32731582Y26168839D01*
X32240375Y25840625D01*
X32041000Y25542239D01*
X31841625Y25840625D01*
X31350418Y26168839D01*
X30917256Y26255000D01*
X30624744Y26255000D01*
X30191582Y26168839D01*
X29700375Y25840625D01*
X29501000Y25542239D01*
X29301625Y25840625D01*
X28810418Y26168839D01*
X28377256Y26255000D01*
X28084744Y26255000D01*
X27651582Y26168839D01*
X27160375Y25840625D01*
X26961000Y25542239D01*
X26761625Y25840625D01*
X26270418Y26168839D01*
X25837256Y26255000D01*
X25544744Y26255000D01*
X25111582Y26168839D01*
X24620375Y25840625D01*
X24421000Y25542239D01*
X24221625Y25840625D01*
X23730418Y26168839D01*
X23297256Y26255000D01*
X23004744Y26255000D01*
X22571582Y26168839D01*
X22080375Y25840625D01*
X22065904Y25818967D01*
X21999327Y25979698D01*
X21820699Y26158327D01*
X21587310Y26255000D01*
X20896750Y26255000D01*
X20738000Y26096250D01*
X20738000Y24897000D01*
X20758000Y24897000D01*
X20758000Y24643000D01*
X20738000Y24643000D01*
X20738000Y23443750D01*
X20896750Y23285000D01*
X21587310Y23285000D01*
X21820699Y23381673D01*
X21999327Y23560302D01*
X22065904Y23721033D01*
X22080375Y23699375D01*
X22571582Y23371161D01*
X23004744Y23285000D01*
X23297256Y23285000D01*
X23730418Y23371161D01*
X24221625Y23699375D01*
X24421000Y23997761D01*
X24620375Y23699375D01*
X25111582Y23371161D01*
X25544744Y23285000D01*
X25837256Y23285000D01*
X26270418Y23371161D01*
X26761625Y23699375D01*
X26961000Y23997761D01*
X27160375Y23699375D01*
X27471000Y23491822D01*
X27471000Y22957802D01*
X27117199Y22604000D01*
X14750932Y22604000D01*
X14504625Y22972625D01*
X14206239Y23172000D01*
X14504625Y23371375D01*
X14832839Y23862582D01*
X14948092Y24442000D01*
X14939688Y24484250D01*
X19126000Y24484250D01*
X19126000Y23793691D01*
X19222673Y23560302D01*
X19401301Y23381673D01*
X19634690Y23285000D01*
X20325250Y23285000D01*
X20484000Y23443750D01*
X20484000Y24643000D01*
X19284750Y24643000D01*
X19126000Y24484250D01*
X14939688Y24484250D01*
X14832839Y25021418D01*
X14504625Y25512625D01*
X14206239Y25712000D01*
X14257586Y25746309D01*
X19126000Y25746309D01*
X19126000Y25055750D01*
X19284750Y24897000D01*
X20484000Y24897000D01*
X20484000Y26096250D01*
X20325250Y26255000D01*
X19634690Y26255000D01*
X19401301Y26158327D01*
X19222673Y25979698D01*
X19126000Y25746309D01*
X14257586Y25746309D01*
X14504625Y25911375D01*
X14832839Y26402582D01*
X14948092Y26982000D01*
X14832839Y27561418D01*
X14504625Y28052625D01*
X14206239Y28252000D01*
X14504625Y28451375D01*
X14832839Y28942582D01*
X14948092Y29522000D01*
X14832839Y30101418D01*
X14504625Y30592625D01*
X14013418Y30920839D01*
X13580256Y31007000D01*
X13287744Y31007000D01*
X12854582Y30920839D01*
X12363375Y30592625D01*
X12155822Y30282000D01*
X11816846Y30282000D01*
X11741999Y30296888D01*
X11667152Y30282000D01*
X11667148Y30282000D01*
X11445463Y30237904D01*
X11194071Y30069929D01*
X11151671Y30006473D01*
X9421528Y28276329D01*
X9358072Y28233929D01*
X9315672Y28170473D01*
X9315671Y28170472D01*
X9190097Y27982537D01*
X9131112Y27686000D01*
X9146001Y27611148D01*
X9146000Y12012847D01*
X9131112Y11938000D01*
X9146000Y11863153D01*
X9146000Y11863149D01*
X9190096Y11641464D01*
X9358071Y11390071D01*
X9421530Y11347669D01*
X11855673Y8913524D01*
X11898071Y8850071D01*
X11961524Y8807673D01*
X11961526Y8807671D01*
X12086902Y8723898D01*
X12149463Y8682096D01*
X12371148Y8638000D01*
X12371152Y8638000D01*
X12445999Y8623112D01*
X12520846Y8638000D01*
X47691199Y8638000D01*
X48262001Y8067197D01*
X48262001Y7644535D01*
X47941570Y7430430D01*
X47752000Y7146719D01*
X47562430Y7430430D01*
X47066725Y7761650D01*
X46629598Y7848600D01*
X46334402Y7848600D01*
X45897275Y7761650D01*
X45408932Y7435349D01*
X45403757Y7461365D01*
X45263409Y7671409D01*
X45053365Y7811757D01*
X44805600Y7861040D01*
X43078400Y7861040D01*
X42830635Y7811757D01*
X42620591Y7671409D01*
X42480243Y7461365D01*
X42430960Y7213600D01*
X42430960Y5486400D01*
X42480243Y5238635D01*
X42620591Y5028591D01*
X42830635Y4888243D01*
X42922950Y4869881D01*
X42735179Y4698490D01*
X42487032Y4169027D01*
X42607531Y3937000D01*
X43815000Y3937000D01*
X43815000Y3957000D01*
X44069000Y3957000D01*
X44069000Y3937000D01*
X44089000Y3937000D01*
X44089000Y3683000D01*
X44069000Y3683000D01*
X44069000Y2476183D01*
X44301026Y2355042D01*
X44716947Y2527312D01*
X45148821Y2921510D01*
X45200146Y3031021D01*
X45401570Y2729570D01*
X45897275Y2398350D01*
X46334402Y2311400D01*
X46629598Y2311400D01*
X47066725Y2398350D01*
X47562430Y2729570D01*
X47752000Y3013281D01*
X47941570Y2729570D01*
X48437275Y2398350D01*
X48874402Y2311400D01*
X49169598Y2311400D01*
X49606725Y2398350D01*
X50102430Y2729570D01*
X50292000Y3013281D01*
X50481570Y2729570D01*
X50977275Y2398350D01*
X51414402Y2311400D01*
X51709598Y2311400D01*
X52146725Y2398350D01*
X52642430Y2729570D01*
X52832000Y3013281D01*
X53021570Y2729570D01*
X53517275Y2398350D01*
X53954402Y2311400D01*
X54249598Y2311400D01*
X54686725Y2398350D01*
X55182430Y2729570D01*
X55513650Y3225275D01*
X55629959Y3810000D01*
X55513650Y4394725D01*
X55182430Y4890430D01*
X54898719Y5080000D01*
X55182430Y5269570D01*
X55396535Y5590000D01*
X55819199Y5590000D01*
X60372198Y1037000D01*
X34416560Y1037000D01*
X32001622Y3450973D01*
X42487032Y3450973D01*
X42735179Y2921510D01*
X43167053Y2527312D01*
X43582974Y2355042D01*
X43815000Y2476183D01*
X43815000Y3683000D01*
X42607531Y3683000D01*
X42487032Y3450973D01*
X32001622Y3450973D01*
X31681869Y3770598D01*
X31640905Y3831905D01*
X31579474Y3872952D01*
X31579423Y3873003D01*
X31521658Y3911584D01*
X31397783Y3994354D01*
X31397705Y3994369D01*
X31397643Y3994411D01*
X31257647Y4022229D01*
X31183388Y4037000D01*
X31183310Y4037000D01*
X31110851Y4051398D01*
X31038542Y4037000D01*
X24183607Y4037000D01*
X24111449Y4051398D01*
X24038837Y4037000D01*
X24038612Y4037000D01*
X23967250Y4022805D01*
X23824633Y3994526D01*
X23824442Y3994399D01*
X23824217Y3994354D01*
X23702927Y3913311D01*
X23642804Y3873190D01*
X23642646Y3873032D01*
X23581095Y3831905D01*
X23540215Y3770724D01*
X20803212Y1037000D01*
X4638447Y1037000D01*
X4409761Y1265686D01*
X4889431Y1067000D01*
X5778569Y1067000D01*
X6600026Y1407259D01*
X7228741Y2035974D01*
X7569000Y2857431D01*
X7569000Y3746569D01*
X7228741Y4568026D01*
X6600026Y5196741D01*
X5778569Y5537000D01*
X4889431Y5537000D01*
X4067974Y5196741D01*
X3439259Y4568026D01*
X3099000Y3746569D01*
X3099000Y2857431D01*
X3297686Y2377760D01*
X1069000Y4606446D01*
X1069000Y32004000D01*
X48320887Y32004000D01*
X48432260Y31444091D01*
X48749423Y30969423D01*
X49224091Y30652260D01*
X49642667Y30569000D01*
X49925333Y30569000D01*
X50343909Y30652260D01*
X50818577Y30969423D01*
X51135740Y31444091D01*
X51247113Y32004000D01*
X51135740Y32563909D01*
X50818577Y33038577D01*
X50343909Y33355740D01*
X49925333Y33439000D01*
X49642667Y33439000D01*
X49224091Y33355740D01*
X48749423Y33038577D01*
X48432260Y32563909D01*
X48320887Y32004000D01*
X1069000Y32004000D01*
X1069000Y35090000D01*
X35128560Y35090000D01*
X35128560Y33490000D01*
X35177843Y33242235D01*
X35318191Y33032191D01*
X35528235Y32891843D01*
X35776000Y32842560D01*
X37376000Y32842560D01*
X37623765Y32891843D01*
X37833809Y33032191D01*
X37974157Y33242235D01*
X38023440Y33490000D01*
X38023440Y34290000D01*
X42732887Y34290000D01*
X42844260Y33730091D01*
X43161423Y33255423D01*
X43636091Y32938260D01*
X44054667Y32855000D01*
X44337333Y32855000D01*
X44755909Y32938260D01*
X45230577Y33255423D01*
X45547740Y33730091D01*
X45605406Y34020000D01*
X68202560Y34020000D01*
X68202560Y32020000D01*
X68251843Y31772235D01*
X68392191Y31562191D01*
X68602235Y31421843D01*
X68850000Y31372560D01*
X70850000Y31372560D01*
X71097765Y31421843D01*
X71307809Y31562191D01*
X71448157Y31772235D01*
X71497440Y32020000D01*
X71497440Y32797439D01*
X77305000Y32797439D01*
X77305000Y32226561D01*
X77523466Y31699138D01*
X77927138Y31295466D01*
X78454561Y31077000D01*
X79025439Y31077000D01*
X79552862Y31295466D01*
X79956534Y31699138D01*
X80175000Y32226561D01*
X80175000Y32797439D01*
X79956534Y33324862D01*
X79552862Y33728534D01*
X79025439Y33947000D01*
X78454561Y33947000D01*
X77927138Y33728534D01*
X77523466Y33324862D01*
X77305000Y32797439D01*
X71497440Y32797439D01*
X71497440Y34020000D01*
X71448157Y34267765D01*
X71307809Y34477809D01*
X71097765Y34618157D01*
X70850000Y34667440D01*
X68850000Y34667440D01*
X68602235Y34618157D01*
X68392191Y34477809D01*
X68251843Y34267765D01*
X68202560Y34020000D01*
X45605406Y34020000D01*
X45659113Y34290000D01*
X45547740Y34849909D01*
X45230577Y35324577D01*
X44755909Y35641740D01*
X44337333Y35725000D01*
X44054667Y35725000D01*
X43636091Y35641740D01*
X43161423Y35324577D01*
X42844260Y34849909D01*
X42732887Y34290000D01*
X38023440Y34290000D01*
X38023440Y35090000D01*
X37974157Y35337765D01*
X37833809Y35547809D01*
X37623765Y35688157D01*
X37376000Y35737440D01*
X35776000Y35737440D01*
X35528235Y35688157D01*
X35318191Y35547809D01*
X35177843Y35337765D01*
X35128560Y35090000D01*
X1069000Y35090000D01*
X1069000Y37997554D01*
X3297686Y40226240D01*
X3099000Y39746569D01*
X3099000Y38857431D01*
X3439259Y38035974D01*
X4067974Y37407259D01*
X4889431Y37067000D01*
X5778569Y37067000D01*
X6600026Y37407259D01*
X7228741Y38035974D01*
X7569000Y38857431D01*
X7569000Y39746569D01*
X7228741Y40568026D01*
X6600026Y41196741D01*
X5778569Y41537000D01*
X4889431Y41537000D01*
X4409761Y41338314D01*
X4638447Y41567000D01*
X20306554Y41567000D01*
X23540090Y38333463D01*
G36*
X55823198Y7110000D02*
X55396535Y7110000D01*
X55182430Y7430430D01*
X54686725Y7761650D01*
X54249598Y7848600D01*
X53954402Y7848600D01*
X53517275Y7761650D01*
X53021570Y7430430D01*
X52832000Y7146719D01*
X52642430Y7430430D01*
X52322000Y7644535D01*
X52322000Y8307153D01*
X52336888Y8382000D01*
X52322000Y8456847D01*
X52322000Y8456852D01*
X52277904Y8678537D01*
X52109929Y8929929D01*
X52046473Y8972329D01*
X50120331Y10898470D01*
X50077929Y10961929D01*
X49826537Y11129904D01*
X49604852Y11174000D01*
X49604847Y11174000D01*
X49530000Y11188888D01*
X49455153Y11174000D01*
X13014802Y11174000D01*
X11428000Y12760801D01*
X11428000Y13996250D01*
X11949000Y13996250D01*
X11949000Y13305690D01*
X12045673Y13072301D01*
X12224302Y12893673D01*
X12457691Y12797000D01*
X13148250Y12797000D01*
X13307000Y12955750D01*
X13307000Y14155000D01*
X13561000Y14155000D01*
X13561000Y12955750D01*
X13719750Y12797000D01*
X14410309Y12797000D01*
X14643698Y12893673D01*
X14822327Y13072301D01*
X14919000Y13305690D01*
X14919000Y13996250D01*
X14760250Y14155000D01*
X13561000Y14155000D01*
X13307000Y14155000D01*
X12107750Y14155000D01*
X11949000Y13996250D01*
X11428000Y13996250D01*
X11428000Y23053199D01*
X12056803Y23682000D01*
X12155822Y23682000D01*
X12363375Y23371375D01*
X12661761Y23172000D01*
X12363375Y22972625D01*
X12035161Y22481418D01*
X11919908Y21902000D01*
X12035161Y21322582D01*
X12363375Y20831375D01*
X12661761Y20632000D01*
X12363375Y20432625D01*
X12035161Y19941418D01*
X11919908Y19362000D01*
X12035161Y18782582D01*
X12363375Y18291375D01*
X12661761Y18092000D01*
X12363375Y17892625D01*
X12035161Y17401418D01*
X11919908Y16822000D01*
X12035161Y16242582D01*
X12363375Y15751375D01*
X12385033Y15736904D01*
X12224302Y15670327D01*
X12045673Y15491699D01*
X11949000Y15258310D01*
X11949000Y14567750D01*
X12107750Y14409000D01*
X13307000Y14409000D01*
X13307000Y14429000D01*
X13561000Y14429000D01*
X13561000Y14409000D01*
X14760250Y14409000D01*
X14919000Y14567750D01*
X14919000Y15258310D01*
X14822327Y15491699D01*
X14643698Y15670327D01*
X14482967Y15736904D01*
X14504625Y15751375D01*
X14832839Y16242582D01*
X14948092Y16822000D01*
X14832839Y17401418D01*
X14504625Y17892625D01*
X14206239Y18092000D01*
X14504625Y18291375D01*
X14712178Y18602000D01*
X27161153Y18602000D01*
X27236000Y18587112D01*
X27310847Y18602000D01*
X27310852Y18602000D01*
X27532537Y18646096D01*
X27783929Y18814071D01*
X27826331Y18877530D01*
X31255473Y22306671D01*
X31318929Y22349071D01*
X31486904Y22600463D01*
X31531000Y22822148D01*
X31531000Y22822153D01*
X31545888Y22897000D01*
X31531000Y22971847D01*
X31531000Y23491822D01*
X31841625Y23699375D01*
X32041000Y23997761D01*
X32240375Y23699375D01*
X32731582Y23371161D01*
X33164744Y23285000D01*
X33457256Y23285000D01*
X33890418Y23371161D01*
X34381625Y23699375D01*
X34581000Y23997761D01*
X34780375Y23699375D01*
X35271582Y23371161D01*
X35704744Y23285000D01*
X35997256Y23285000D01*
X36430418Y23371161D01*
X36921625Y23699375D01*
X37129178Y24010000D01*
X38923199Y24010000D01*
X55823198Y7110000D01*
X55823198Y7110000D01*
G37*
X55823198Y7110000D02*
X55396535Y7110000D01*
X55182430Y7430430D01*
X54686725Y7761650D01*
X54249598Y7848600D01*
X53954402Y7848600D01*
X53517275Y7761650D01*
X53021570Y7430430D01*
X52832000Y7146719D01*
X52642430Y7430430D01*
X52322000Y7644535D01*
X52322000Y8307153D01*
X52336888Y8382000D01*
X52322000Y8456847D01*
X52322000Y8456852D01*
X52277904Y8678537D01*
X52109929Y8929929D01*
X52046473Y8972329D01*
X50120331Y10898470D01*
X50077929Y10961929D01*
X49826537Y11129904D01*
X49604852Y11174000D01*
X49604847Y11174000D01*
X49530000Y11188888D01*
X49455153Y11174000D01*
X13014802Y11174000D01*
X11428000Y12760801D01*
X11428000Y13996250D01*
X11949000Y13996250D01*
X11949000Y13305690D01*
X12045673Y13072301D01*
X12224302Y12893673D01*
X12457691Y12797000D01*
X13148250Y12797000D01*
X13307000Y12955750D01*
X13307000Y14155000D01*
X13561000Y14155000D01*
X13561000Y12955750D01*
X13719750Y12797000D01*
X14410309Y12797000D01*
X14643698Y12893673D01*
X14822327Y13072301D01*
X14919000Y13305690D01*
X14919000Y13996250D01*
X14760250Y14155000D01*
X13561000Y14155000D01*
X13307000Y14155000D01*
X12107750Y14155000D01*
X11949000Y13996250D01*
X11428000Y13996250D01*
X11428000Y23053199D01*
X12056803Y23682000D01*
X12155822Y23682000D01*
X12363375Y23371375D01*
X12661761Y23172000D01*
X12363375Y22972625D01*
X12035161Y22481418D01*
X11919908Y21902000D01*
X12035161Y21322582D01*
X12363375Y20831375D01*
X12661761Y20632000D01*
X12363375Y20432625D01*
X12035161Y19941418D01*
X11919908Y19362000D01*
X12035161Y18782582D01*
X12363375Y18291375D01*
X12661761Y18092000D01*
X12363375Y17892625D01*
X12035161Y17401418D01*
X11919908Y16822000D01*
X12035161Y16242582D01*
X12363375Y15751375D01*
X12385033Y15736904D01*
X12224302Y15670327D01*
X12045673Y15491699D01*
X11949000Y15258310D01*
X11949000Y14567750D01*
X12107750Y14409000D01*
X13307000Y14409000D01*
X13307000Y14429000D01*
X13561000Y14429000D01*
X13561000Y14409000D01*
X14760250Y14409000D01*
X14919000Y14567750D01*
X14919000Y15258310D01*
X14822327Y15491699D01*
X14643698Y15670327D01*
X14482967Y15736904D01*
X14504625Y15751375D01*
X14832839Y16242582D01*
X14948092Y16822000D01*
X14832839Y17401418D01*
X14504625Y17892625D01*
X14206239Y18092000D01*
X14504625Y18291375D01*
X14712178Y18602000D01*
X27161153Y18602000D01*
X27236000Y18587112D01*
X27310847Y18602000D01*
X27310852Y18602000D01*
X27532537Y18646096D01*
X27783929Y18814071D01*
X27826331Y18877530D01*
X31255473Y22306671D01*
X31318929Y22349071D01*
X31486904Y22600463D01*
X31531000Y22822148D01*
X31531000Y22822153D01*
X31545888Y22897000D01*
X31531000Y22971847D01*
X31531000Y23491822D01*
X31841625Y23699375D01*
X32041000Y23997761D01*
X32240375Y23699375D01*
X32731582Y23371161D01*
X33164744Y23285000D01*
X33457256Y23285000D01*
X33890418Y23371161D01*
X34381625Y23699375D01*
X34581000Y23997761D01*
X34780375Y23699375D01*
X35271582Y23371161D01*
X35704744Y23285000D01*
X35997256Y23285000D01*
X36430418Y23371161D01*
X36921625Y23699375D01*
X37129178Y24010000D01*
X38923199Y24010000D01*
X55823198Y7110000D01*
G04 #@! TD*
M02*
