G04 #@! TF.GenerationSoftware,KiCad,Pcbnew,5.1.5-52549c5~84~ubuntu18.04.1*
G04 #@! TF.CreationDate,2020-03-25T13:03:39-07:00*
G04 #@! TF.ProjectId,Marlin_UIBOX,4d61726c-696e-45f5-9549-424f582e6b69,rev?*
G04 #@! TF.SameCoordinates,PX55c0260PY70276d0*
G04 #@! TF.FileFunction,Legend,Top*
G04 #@! TF.FilePolarity,Positive*
%FSLAX46Y46*%
G04 Gerber Fmt 4.6, Leading zero omitted, Abs format (unit mm)*
G04 Created by KiCad (PCBNEW 5.1.5-52549c5~84~ubuntu18.04.1) date 2020-03-25 13:03:39*
%MOMM*%
%LPD*%
G04 APERTURE LIST*
%ADD10C,0.150000*%
%ADD11C,0.120000*%
G04 APERTURE END LIST*
D10*
X111498071Y1522358D02*
X111545690Y1665215D01*
X111593309Y1712834D01*
X111688547Y1760453D01*
X111831404Y1760453D01*
X111926642Y1712834D01*
X111974261Y1665215D01*
X112021880Y1569977D01*
X112021880Y1189024D01*
X111021880Y1189024D01*
X111021880Y1522358D01*
X111069500Y1617596D01*
X111117119Y1665215D01*
X111212357Y1712834D01*
X111307595Y1712834D01*
X111402833Y1665215D01*
X111450452Y1617596D01*
X111498071Y1522358D01*
X111498071Y1189024D01*
X111021880Y2046167D02*
X111021880Y2617596D01*
X112021880Y2331881D02*
X111021880Y2331881D01*
X112117119Y2712834D02*
X112117119Y3474739D01*
X111498071Y3712834D02*
X111498071Y4046167D01*
X112021880Y4189024D02*
X112021880Y3712834D01*
X111021880Y3712834D01*
X111021880Y4189024D01*
X112021880Y4617596D02*
X111021880Y4617596D01*
X112021880Y5189024D01*
X111021880Y5189024D01*
X111117119Y5617596D02*
X111069500Y5665215D01*
X111021880Y5760453D01*
X111021880Y5998548D01*
X111069500Y6093786D01*
X111117119Y6141405D01*
X111212357Y6189024D01*
X111307595Y6189024D01*
X111450452Y6141405D01*
X112021880Y5569977D01*
X112021880Y6189024D01*
X100973000Y4093786D02*
X100925380Y3998548D01*
X100925380Y3855691D01*
X100973000Y3712834D01*
X101068238Y3617596D01*
X101163476Y3569977D01*
X101353952Y3522358D01*
X101496809Y3522358D01*
X101687285Y3569977D01*
X101782523Y3617596D01*
X101877761Y3712834D01*
X101925380Y3855691D01*
X101925380Y3950929D01*
X101877761Y4093786D01*
X101830142Y4141405D01*
X101496809Y4141405D01*
X101496809Y3950929D01*
X101925380Y4569977D02*
X100925380Y4569977D01*
X101925380Y5141405D01*
X100925380Y5141405D01*
X101925380Y5617596D02*
X100925380Y5617596D01*
X100925380Y5855691D01*
X100973000Y5998548D01*
X101068238Y6093786D01*
X101163476Y6141405D01*
X101353952Y6189024D01*
X101496809Y6189024D01*
X101687285Y6141405D01*
X101782523Y6093786D01*
X101877761Y5998548D01*
X101925380Y5855691D01*
X101925380Y5617596D01*
X106418071Y2331881D02*
X106465690Y2474739D01*
X106513309Y2522358D01*
X106608547Y2569977D01*
X106751404Y2569977D01*
X106846642Y2522358D01*
X106894261Y2474739D01*
X106941880Y2379500D01*
X106941880Y1998548D01*
X105941880Y1998548D01*
X105941880Y2331881D01*
X105989500Y2427120D01*
X106037119Y2474739D01*
X106132357Y2522358D01*
X106227595Y2522358D01*
X106322833Y2474739D01*
X106370452Y2427120D01*
X106418071Y2331881D01*
X106418071Y1998548D01*
X105941880Y2855691D02*
X105941880Y3427120D01*
X106941880Y3141405D02*
X105941880Y3141405D01*
X107037119Y3522358D02*
X107037119Y4284262D01*
X106894261Y4474739D02*
X106941880Y4617596D01*
X106941880Y4855691D01*
X106894261Y4950929D01*
X106846642Y4998548D01*
X106751404Y5046167D01*
X106656166Y5046167D01*
X106560928Y4998548D01*
X106513309Y4950929D01*
X106465690Y4855691D01*
X106418071Y4665215D01*
X106370452Y4569977D01*
X106322833Y4522358D01*
X106227595Y4474739D01*
X106132357Y4474739D01*
X106037119Y4522358D01*
X105989500Y4569977D01*
X105941880Y4665215D01*
X105941880Y4903310D01*
X105989500Y5046167D01*
X105941880Y5379500D02*
X106941880Y5617596D01*
X106227595Y5808072D01*
X106941880Y5998548D01*
X105941880Y6236643D01*
X109021571Y1522358D02*
X109069190Y1665215D01*
X109116809Y1712834D01*
X109212047Y1760453D01*
X109354904Y1760453D01*
X109450142Y1712834D01*
X109497761Y1665215D01*
X109545380Y1569977D01*
X109545380Y1189024D01*
X108545380Y1189024D01*
X108545380Y1522358D01*
X108593000Y1617596D01*
X108640619Y1665215D01*
X108735857Y1712834D01*
X108831095Y1712834D01*
X108926333Y1665215D01*
X108973952Y1617596D01*
X109021571Y1522358D01*
X109021571Y1189024D01*
X108545380Y2046167D02*
X108545380Y2617596D01*
X109545380Y2331881D02*
X108545380Y2331881D01*
X109640619Y2712834D02*
X109640619Y3474739D01*
X109021571Y3712834D02*
X109021571Y4046167D01*
X109545380Y4189024D02*
X109545380Y3712834D01*
X108545380Y3712834D01*
X108545380Y4189024D01*
X109545380Y4617596D02*
X108545380Y4617596D01*
X109545380Y5189024D01*
X108545380Y5189024D01*
X109545380Y6189024D02*
X109545380Y5617596D01*
X109545380Y5903310D02*
X108545380Y5903310D01*
X108688238Y5808072D01*
X108783476Y5712834D01*
X108831095Y5617596D01*
X103465380Y3617596D02*
X104465380Y3950929D01*
X103465380Y4284262D01*
X104370142Y5189024D02*
X104417761Y5141405D01*
X104465380Y4998548D01*
X104465380Y4903310D01*
X104417761Y4760453D01*
X104322523Y4665215D01*
X104227285Y4617596D01*
X104036809Y4569977D01*
X103893952Y4569977D01*
X103703476Y4617596D01*
X103608238Y4665215D01*
X103513000Y4760453D01*
X103465380Y4903310D01*
X103465380Y4998548D01*
X103513000Y5141405D01*
X103560619Y5189024D01*
X104370142Y6189024D02*
X104417761Y6141405D01*
X104465380Y5998548D01*
X104465380Y5903310D01*
X104417761Y5760453D01*
X104322523Y5665215D01*
X104227285Y5617596D01*
X104036809Y5569977D01*
X103893952Y5569977D01*
X103703476Y5617596D01*
X103608238Y5665215D01*
X103513000Y5760453D01*
X103465380Y5903310D01*
X103465380Y5998548D01*
X103513000Y6141405D01*
X103560619Y6189024D01*
D11*
G04 #@! TO.C,J3*
X13434000Y12952000D02*
X12104000Y12952000D01*
X12104000Y12952000D02*
X12104000Y14282000D01*
X12104000Y15552000D02*
X12104000Y30852000D01*
X14764000Y30852000D02*
X12104000Y30852000D01*
X14764000Y15552000D02*
X14764000Y30852000D01*
X14764000Y15552000D02*
X12104000Y15552000D01*
D10*
X13100666Y12059620D02*
X13100666Y11345334D01*
X13053047Y11202477D01*
X12957809Y11107239D01*
X12814952Y11059620D01*
X12719714Y11059620D01*
X13481619Y12059620D02*
X14100666Y12059620D01*
X13767333Y11678667D01*
X13910190Y11678667D01*
X14005428Y11631048D01*
X14053047Y11583429D01*
X14100666Y11488191D01*
X14100666Y11250096D01*
X14053047Y11154858D01*
X14005428Y11107239D01*
X13910190Y11059620D01*
X13624476Y11059620D01*
X13529238Y11107239D01*
X13481619Y11154858D01*
G04 #@! TD*
M02*
