G04 #@! TF.GenerationSoftware,KiCad,Pcbnew,5.0.2-bee76a0~70~ubuntu18.04.1*
G04 #@! TF.CreationDate,2018-12-25T16:41:34-08:00*
G04 #@! TF.ProjectId,Marlin_UIBOX,4d61726c-696e-45f5-9549-424f582e6b69,rev?*
G04 #@! TF.SameCoordinates,PX7bfa480PY68e7780*
G04 #@! TF.FileFunction,Legend,Top*
G04 #@! TF.FilePolarity,Positive*
%FSLAX46Y46*%
G04 Gerber Fmt 4.6, Leading zero omitted, Abs format (unit mm)*
G04 Created by KiCad (PCBNEW 5.0.2-bee76a0~70~ubuntu18.04.1) date Tue 25 Dec 2018 04:41:34 PM PST*
%MOMM*%
%LPD*%
G01*
G04 APERTURE LIST*
%ADD10C,0.120000*%
%ADD11C,0.150000*%
G04 APERTURE END LIST*
D10*
G04 #@! TO.C,R4*
X6744000Y26906000D02*
X6744000Y27236000D01*
X6744000Y27236000D02*
X13164000Y27236000D01*
X13164000Y27236000D02*
X13164000Y26906000D01*
X6744000Y24946000D02*
X6744000Y24616000D01*
X6744000Y24616000D02*
X13164000Y24616000D01*
X13164000Y24616000D02*
X13164000Y24946000D01*
G04 #@! TO.C,R3*
X22106000Y13064000D02*
X22436000Y13064000D01*
X22106000Y19484000D02*
X22106000Y13064000D01*
X22436000Y19484000D02*
X22106000Y19484000D01*
X24726000Y13064000D02*
X24396000Y13064000D01*
X24726000Y19484000D02*
X24726000Y13064000D01*
X24396000Y19484000D02*
X24726000Y19484000D01*
G04 #@! TO.C,J1*
X43752000Y27855000D02*
X22892000Y27855000D01*
X22892000Y27855000D02*
X22892000Y37205000D01*
X22892000Y37205000D02*
X43752000Y37205000D01*
X43752000Y37205000D02*
X43752000Y27855000D01*
X44002000Y37455000D02*
X41462000Y37455000D01*
X44002000Y37455000D02*
X44002000Y34915000D01*
G04 #@! TO.C,J2*
X21650000Y37455000D02*
X21650000Y34915000D01*
X21650000Y37455000D02*
X19110000Y37455000D01*
X21400000Y37205000D02*
X21400000Y27855000D01*
X540000Y37205000D02*
X21400000Y37205000D01*
X540000Y27855000D02*
X540000Y37205000D01*
X21400000Y27855000D02*
X540000Y27855000D01*
G04 #@! TO.C,J3*
X9640000Y23192000D02*
X10970000Y23192000D01*
X9640000Y21862000D02*
X9640000Y23192000D01*
X9640000Y20592000D02*
X12300000Y20592000D01*
X12300000Y20592000D02*
X12300000Y5292000D01*
X9640000Y20592000D02*
X9640000Y5292000D01*
X9640000Y5292000D02*
X12300000Y5292000D01*
G04 #@! TO.C,J4*
X5576000Y5292000D02*
X8236000Y5292000D01*
X5576000Y20592000D02*
X5576000Y5292000D01*
X8236000Y20592000D02*
X8236000Y5292000D01*
X5576000Y20592000D02*
X8236000Y20592000D01*
X5576000Y21862000D02*
X5576000Y23192000D01*
X5576000Y23192000D02*
X6906000Y23192000D01*
G04 #@! TO.C,J5*
X36818000Y17096000D02*
X38148000Y17096000D01*
X36818000Y15766000D02*
X36818000Y17096000D01*
X36818000Y14496000D02*
X39478000Y14496000D01*
X39478000Y14496000D02*
X39478000Y4276000D01*
X36818000Y14496000D02*
X36818000Y4276000D01*
X36818000Y4276000D02*
X39478000Y4276000D01*
G04 #@! TO.C,Q1*
X17513522Y9476478D02*
G75*
G03X19352000Y5038000I1838478J-1838478D01*
G01*
X21190478Y9476478D02*
G75*
G02X19352000Y5038000I-1838478J-1838478D01*
G01*
X21152000Y9488000D02*
X17552000Y9488000D01*
G04 #@! TO.C,R1*
X20332000Y19484000D02*
X20662000Y19484000D01*
X20662000Y19484000D02*
X20662000Y13064000D01*
X20662000Y13064000D02*
X20332000Y13064000D01*
X18372000Y19484000D02*
X18042000Y19484000D01*
X18042000Y19484000D02*
X18042000Y13064000D01*
X18042000Y13064000D02*
X18372000Y13064000D01*
G04 #@! TO.C,R2*
X15634000Y4630000D02*
X15634000Y4300000D01*
X22054000Y4630000D02*
X15634000Y4630000D01*
X22054000Y4300000D02*
X22054000Y4630000D01*
X15634000Y2010000D02*
X15634000Y2340000D01*
X22054000Y2010000D02*
X15634000Y2010000D01*
X22054000Y2340000D02*
X22054000Y2010000D01*
G04 #@! TO.C,LS1*
X35866000Y7648000D02*
G75*
G03X35866000Y7648000I-6100000J0D01*
G01*
G04 #@! TO.C,R4*
D11*
X3818333Y26489620D02*
X3485000Y26965810D01*
X3246904Y26489620D02*
X3246904Y27489620D01*
X3627857Y27489620D01*
X3723095Y27442000D01*
X3770714Y27394381D01*
X3818333Y27299143D01*
X3818333Y27156286D01*
X3770714Y27061048D01*
X3723095Y27013429D01*
X3627857Y26965810D01*
X3246904Y26965810D01*
X4675476Y27156286D02*
X4675476Y26489620D01*
X4437380Y27537239D02*
X4199285Y26822953D01*
X4818333Y26822953D01*
G04 #@! TO.C,R3*
X25789333Y18361620D02*
X25456000Y18837810D01*
X25217904Y18361620D02*
X25217904Y19361620D01*
X25598857Y19361620D01*
X25694095Y19314000D01*
X25741714Y19266381D01*
X25789333Y19171143D01*
X25789333Y19028286D01*
X25741714Y18933048D01*
X25694095Y18885429D01*
X25598857Y18837810D01*
X25217904Y18837810D01*
X26122666Y19361620D02*
X26741714Y19361620D01*
X26408380Y18980667D01*
X26551238Y18980667D01*
X26646476Y18933048D01*
X26694095Y18885429D01*
X26741714Y18790191D01*
X26741714Y18552096D01*
X26694095Y18456858D01*
X26646476Y18409239D01*
X26551238Y18361620D01*
X26265523Y18361620D01*
X26170285Y18409239D01*
X26122666Y18456858D01*
G04 #@! TO.C,J1*
X38576666Y26981620D02*
X38576666Y26267334D01*
X38529047Y26124477D01*
X38433809Y26029239D01*
X38290952Y25981620D01*
X38195714Y25981620D01*
X39576666Y25981620D02*
X39005238Y25981620D01*
X39290952Y25981620D02*
X39290952Y26981620D01*
X39195714Y26838762D01*
X39100476Y26743524D01*
X39005238Y26695905D01*
G04 #@! TO.C,J2*
X15970666Y27235620D02*
X15970666Y26521334D01*
X15923047Y26378477D01*
X15827809Y26283239D01*
X15684952Y26235620D01*
X15589714Y26235620D01*
X16399238Y27140381D02*
X16446857Y27188000D01*
X16542095Y27235620D01*
X16780190Y27235620D01*
X16875428Y27188000D01*
X16923047Y27140381D01*
X16970666Y27045143D01*
X16970666Y26949905D01*
X16923047Y26807048D01*
X16351619Y26235620D01*
X16970666Y26235620D01*
G04 #@! TO.C,J3*
X10636666Y24739620D02*
X10636666Y24025334D01*
X10589047Y23882477D01*
X10493809Y23787239D01*
X10350952Y23739620D01*
X10255714Y23739620D01*
X11017619Y24739620D02*
X11636666Y24739620D01*
X11303333Y24358667D01*
X11446190Y24358667D01*
X11541428Y24311048D01*
X11589047Y24263429D01*
X11636666Y24168191D01*
X11636666Y23930096D01*
X11589047Y23834858D01*
X11541428Y23787239D01*
X11446190Y23739620D01*
X11160476Y23739620D01*
X11065238Y23787239D01*
X11017619Y23834858D01*
G04 #@! TO.C,J4*
X6572666Y24739620D02*
X6572666Y24025334D01*
X6525047Y23882477D01*
X6429809Y23787239D01*
X6286952Y23739620D01*
X6191714Y23739620D01*
X7477428Y24406286D02*
X7477428Y23739620D01*
X7239333Y24787239D02*
X7001238Y24072953D01*
X7620285Y24072953D01*
G04 #@! TO.C,J5*
X37814666Y18643620D02*
X37814666Y17929334D01*
X37767047Y17786477D01*
X37671809Y17691239D01*
X37528952Y17643620D01*
X37433714Y17643620D01*
X38767047Y18643620D02*
X38290857Y18643620D01*
X38243238Y18167429D01*
X38290857Y18215048D01*
X38386095Y18262667D01*
X38624190Y18262667D01*
X38719428Y18215048D01*
X38767047Y18167429D01*
X38814666Y18072191D01*
X38814666Y17834096D01*
X38767047Y17738858D01*
X38719428Y17691239D01*
X38624190Y17643620D01*
X38386095Y17643620D01*
X38290857Y17691239D01*
X38243238Y17738858D01*
G04 #@! TO.C,Q1*
X16772380Y10781239D02*
X16820000Y10876477D01*
X16915238Y10971715D01*
X17058095Y11114572D01*
X17105714Y11209810D01*
X17105714Y11305048D01*
X16867619Y11257429D02*
X16915238Y11352667D01*
X17010476Y11447905D01*
X17200952Y11495524D01*
X17534285Y11495524D01*
X17724761Y11447905D01*
X17820000Y11352667D01*
X17867619Y11257429D01*
X17867619Y11066953D01*
X17820000Y10971715D01*
X17724761Y10876477D01*
X17534285Y10828858D01*
X17200952Y10828858D01*
X17010476Y10876477D01*
X16915238Y10971715D01*
X16867619Y11066953D01*
X16867619Y11257429D01*
X16867619Y9876477D02*
X16867619Y10447905D01*
X16867619Y10162191D02*
X17867619Y10162191D01*
X17724761Y10257429D01*
X17629523Y10352667D01*
X17581904Y10447905D01*
G04 #@! TO.C,R1*
X16645333Y18361620D02*
X16312000Y18837810D01*
X16073904Y18361620D02*
X16073904Y19361620D01*
X16454857Y19361620D01*
X16550095Y19314000D01*
X16597714Y19266381D01*
X16645333Y19171143D01*
X16645333Y19028286D01*
X16597714Y18933048D01*
X16550095Y18885429D01*
X16454857Y18837810D01*
X16073904Y18837810D01*
X17597714Y18361620D02*
X17026285Y18361620D01*
X17312000Y18361620D02*
X17312000Y19361620D01*
X17216761Y19218762D01*
X17121523Y19123524D01*
X17026285Y19075905D01*
G04 #@! TO.C,R2*
X16756380Y613334D02*
X16280190Y280000D01*
X16756380Y41905D02*
X15756380Y41905D01*
X15756380Y422858D01*
X15804000Y518096D01*
X15851619Y565715D01*
X15946857Y613334D01*
X16089714Y613334D01*
X16184952Y565715D01*
X16232571Y518096D01*
X16280190Y422858D01*
X16280190Y41905D01*
X15851619Y994286D02*
X15804000Y1041905D01*
X15756380Y1137143D01*
X15756380Y1375239D01*
X15804000Y1470477D01*
X15851619Y1518096D01*
X15946857Y1565715D01*
X16042095Y1565715D01*
X16184952Y1518096D01*
X16756380Y946667D01*
X16756380Y1565715D01*
G04 #@! TO.C,LS1*
X32377428Y11077048D02*
X32377428Y11838953D01*
X32758380Y11458000D02*
X31996476Y11458000D01*
G04 #@! TD*
M02*
