G04 #@! TF.GenerationSoftware,KiCad,Pcbnew,5.0.2-bee76a0~70~ubuntu18.04.1*
G04 #@! TF.CreationDate,2018-12-25T16:41:34-08:00*
G04 #@! TF.ProjectId,Marlin_UIBOX,4d61726c-696e-45f5-9549-424f582e6b69,rev?*
G04 #@! TF.SameCoordinates,PX7bfa480PY68e7780*
G04 #@! TF.FileFunction,Soldermask,Bot*
G04 #@! TF.FilePolarity,Negative*
%FSLAX46Y46*%
G04 Gerber Fmt 4.6, Leading zero omitted, Abs format (unit mm)*
G04 Created by KiCad (PCBNEW 5.0.2-bee76a0~70~ubuntu18.04.1) date Tue 25 Dec 2018 04:41:34 PM PST*
%MOMM*%
%LPD*%
G01*
G04 APERTURE LIST*
%ADD10C,0.100000*%
G04 APERTURE END LIST*
D10*
G36*
X22902228Y4138297D02*
X23057100Y4074147D01*
X23196481Y3981015D01*
X23315015Y3862481D01*
X23408147Y3723100D01*
X23472297Y3568228D01*
X23505000Y3403816D01*
X23505000Y3236184D01*
X23472297Y3071772D01*
X23408147Y2916900D01*
X23315015Y2777519D01*
X23196481Y2658985D01*
X23057100Y2565853D01*
X22902228Y2501703D01*
X22737816Y2469000D01*
X22570184Y2469000D01*
X22405772Y2501703D01*
X22250900Y2565853D01*
X22111519Y2658985D01*
X21992985Y2777519D01*
X21899853Y2916900D01*
X21835703Y3071772D01*
X21803000Y3236184D01*
X21803000Y3403816D01*
X21835703Y3568228D01*
X21899853Y3723100D01*
X21992985Y3862481D01*
X22111519Y3981015D01*
X22250900Y4074147D01*
X22405772Y4138297D01*
X22570184Y4171000D01*
X22737816Y4171000D01*
X22902228Y4138297D01*
X22902228Y4138297D01*
G37*
G36*
X15200821Y4158687D02*
X15200824Y4158686D01*
X15200825Y4158686D01*
X15361239Y4110025D01*
X15361241Y4110024D01*
X15361244Y4110023D01*
X15509078Y4031005D01*
X15638659Y3924659D01*
X15745005Y3795078D01*
X15824023Y3647244D01*
X15824024Y3647241D01*
X15824025Y3647239D01*
X15856120Y3541435D01*
X15872687Y3486821D01*
X15889117Y3320000D01*
X15872687Y3153179D01*
X15872686Y3153176D01*
X15872686Y3153175D01*
X15835818Y3031637D01*
X15824023Y2992756D01*
X15745005Y2844922D01*
X15638659Y2715341D01*
X15509078Y2608995D01*
X15361244Y2529977D01*
X15361241Y2529976D01*
X15361239Y2529975D01*
X15200825Y2481314D01*
X15200824Y2481314D01*
X15200821Y2481313D01*
X15075804Y2469000D01*
X14992196Y2469000D01*
X14867179Y2481313D01*
X14867176Y2481314D01*
X14867175Y2481314D01*
X14706761Y2529975D01*
X14706759Y2529976D01*
X14706756Y2529977D01*
X14558922Y2608995D01*
X14429341Y2715341D01*
X14322995Y2844922D01*
X14243977Y2992756D01*
X14232183Y3031637D01*
X14195314Y3153175D01*
X14195314Y3153176D01*
X14195313Y3153179D01*
X14178883Y3320000D01*
X14195313Y3486821D01*
X14211880Y3541435D01*
X14243975Y3647239D01*
X14243976Y3647241D01*
X14243977Y3647244D01*
X14322995Y3795078D01*
X14429341Y3924659D01*
X14558922Y4031005D01*
X14706756Y4110023D01*
X14706759Y4110024D01*
X14706761Y4110025D01*
X14867175Y4158686D01*
X14867176Y4158686D01*
X14867179Y4158687D01*
X14992196Y4171000D01*
X15075804Y4171000D01*
X15200821Y4158687D01*
X15200821Y4158687D01*
G37*
G36*
X30072565Y4858611D02*
X30263834Y4779385D01*
X30435976Y4664363D01*
X30582363Y4517976D01*
X30697385Y4345834D01*
X30776611Y4154565D01*
X30817000Y3951516D01*
X30817000Y3744484D01*
X30776611Y3541435D01*
X30697385Y3350166D01*
X30582363Y3178024D01*
X30435976Y3031637D01*
X30263834Y2916615D01*
X30072565Y2837389D01*
X29869516Y2797000D01*
X29662484Y2797000D01*
X29459435Y2837389D01*
X29268166Y2916615D01*
X29096024Y3031637D01*
X28949637Y3178024D01*
X28834615Y3350166D01*
X28755389Y3541435D01*
X28715000Y3744484D01*
X28715000Y3951516D01*
X28755389Y4154565D01*
X28834615Y4345834D01*
X28949637Y4517976D01*
X29096024Y4664363D01*
X29268166Y4779385D01*
X29459435Y4858611D01*
X29662484Y4899000D01*
X29869516Y4899000D01*
X30072565Y4858611D01*
X30072565Y4858611D01*
G37*
G36*
X38258442Y6500482D02*
X38324627Y6493963D01*
X38437853Y6459616D01*
X38494467Y6442443D01*
X38633087Y6368348D01*
X38650991Y6358778D01*
X38686729Y6329448D01*
X38788186Y6246186D01*
X38871448Y6144729D01*
X38900778Y6108991D01*
X38900779Y6108989D01*
X38984443Y5952467D01*
X38984443Y5952466D01*
X39035963Y5782627D01*
X39053359Y5606000D01*
X39035963Y5429373D01*
X39001616Y5316147D01*
X38984443Y5259533D01*
X38910348Y5120913D01*
X38900778Y5103009D01*
X38871448Y5067271D01*
X38788186Y4965814D01*
X38686729Y4882552D01*
X38650991Y4853222D01*
X38650989Y4853221D01*
X38494467Y4769557D01*
X38437853Y4752384D01*
X38324627Y4718037D01*
X38258443Y4711519D01*
X38192260Y4705000D01*
X38103740Y4705000D01*
X38037558Y4711518D01*
X37971373Y4718037D01*
X37858147Y4752384D01*
X37801533Y4769557D01*
X37645011Y4853221D01*
X37645009Y4853222D01*
X37609271Y4882552D01*
X37507814Y4965814D01*
X37424552Y5067271D01*
X37395222Y5103009D01*
X37385652Y5120913D01*
X37311557Y5259533D01*
X37294384Y5316147D01*
X37260037Y5429373D01*
X37242641Y5606000D01*
X37260037Y5782627D01*
X37311557Y5952466D01*
X37311557Y5952467D01*
X37395221Y6108989D01*
X37395222Y6108991D01*
X37424552Y6144729D01*
X37507814Y6246186D01*
X37609271Y6329448D01*
X37645009Y6358778D01*
X37662913Y6368348D01*
X37801533Y6442443D01*
X37858147Y6459616D01*
X37971373Y6493963D01*
X38037557Y6500481D01*
X38103740Y6507000D01*
X38192260Y6507000D01*
X38258442Y6500482D01*
X38258442Y6500482D01*
G37*
G36*
X11080442Y7516482D02*
X11146627Y7509963D01*
X11259853Y7475616D01*
X11316467Y7458443D01*
X11438485Y7393222D01*
X11472991Y7374778D01*
X11508729Y7345448D01*
X11610186Y7262186D01*
X11693448Y7160729D01*
X11722778Y7124991D01*
X11722779Y7124989D01*
X11806443Y6968467D01*
X11806443Y6968466D01*
X11857963Y6798627D01*
X11875359Y6622000D01*
X11857963Y6445373D01*
X11857074Y6442443D01*
X11806443Y6275533D01*
X11790756Y6246186D01*
X11722778Y6119009D01*
X11693448Y6083271D01*
X11610186Y5981814D01*
X11508729Y5898552D01*
X11472991Y5869222D01*
X11472989Y5869221D01*
X11316467Y5785557D01*
X11259853Y5768384D01*
X11146627Y5734037D01*
X11080442Y5727518D01*
X11014260Y5721000D01*
X10925740Y5721000D01*
X10859558Y5727518D01*
X10793373Y5734037D01*
X10680147Y5768384D01*
X10623533Y5785557D01*
X10467011Y5869221D01*
X10467009Y5869222D01*
X10431271Y5898552D01*
X10329814Y5981814D01*
X10246552Y6083271D01*
X10217222Y6119009D01*
X10149244Y6246186D01*
X10133557Y6275533D01*
X10082926Y6442443D01*
X10082037Y6445373D01*
X10064641Y6622000D01*
X10082037Y6798627D01*
X10133557Y6968466D01*
X10133557Y6968467D01*
X10217221Y7124989D01*
X10217222Y7124991D01*
X10246552Y7160729D01*
X10329814Y7262186D01*
X10431271Y7345448D01*
X10467009Y7374778D01*
X10501515Y7393222D01*
X10623533Y7458443D01*
X10680147Y7475616D01*
X10793373Y7509963D01*
X10859558Y7516482D01*
X10925740Y7523000D01*
X11014260Y7523000D01*
X11080442Y7516482D01*
X11080442Y7516482D01*
G37*
G36*
X7016442Y7516482D02*
X7082627Y7509963D01*
X7195853Y7475616D01*
X7252467Y7458443D01*
X7374485Y7393222D01*
X7408991Y7374778D01*
X7444729Y7345448D01*
X7546186Y7262186D01*
X7629448Y7160729D01*
X7658778Y7124991D01*
X7658779Y7124989D01*
X7742443Y6968467D01*
X7742443Y6968466D01*
X7793963Y6798627D01*
X7811359Y6622000D01*
X7793963Y6445373D01*
X7793074Y6442443D01*
X7742443Y6275533D01*
X7726756Y6246186D01*
X7658778Y6119009D01*
X7629448Y6083271D01*
X7546186Y5981814D01*
X7444729Y5898552D01*
X7408991Y5869222D01*
X7408989Y5869221D01*
X7252467Y5785557D01*
X7195853Y5768384D01*
X7082627Y5734037D01*
X7016442Y5727518D01*
X6950260Y5721000D01*
X6861740Y5721000D01*
X6795558Y5727518D01*
X6729373Y5734037D01*
X6616147Y5768384D01*
X6559533Y5785557D01*
X6403011Y5869221D01*
X6403009Y5869222D01*
X6367271Y5898552D01*
X6265814Y5981814D01*
X6182552Y6083271D01*
X6153222Y6119009D01*
X6085244Y6246186D01*
X6069557Y6275533D01*
X6018926Y6442443D01*
X6018037Y6445373D01*
X6000641Y6622000D01*
X6018037Y6798627D01*
X6069557Y6968466D01*
X6069557Y6968467D01*
X6153221Y7124989D01*
X6153222Y7124991D01*
X6182552Y7160729D01*
X6265814Y7262186D01*
X6367271Y7345448D01*
X6403009Y7374778D01*
X6437515Y7393222D01*
X6559533Y7458443D01*
X6616147Y7475616D01*
X6729373Y7509963D01*
X6795558Y7516482D01*
X6861740Y7523000D01*
X6950260Y7523000D01*
X7016442Y7516482D01*
X7016442Y7516482D01*
G37*
G36*
X19450212Y8431751D02*
X19544651Y8403103D01*
X19631687Y8356582D01*
X19707975Y8293975D01*
X19770582Y8217687D01*
X19817103Y8130652D01*
X19845751Y8036213D01*
X19853000Y7962612D01*
X19853000Y7313388D01*
X19845751Y7239787D01*
X19817103Y7145348D01*
X19770582Y7058313D01*
X19707975Y6982025D01*
X19631687Y6919418D01*
X19544652Y6872897D01*
X19450213Y6844249D01*
X19352000Y6834576D01*
X19253788Y6844249D01*
X19159349Y6872897D01*
X19072314Y6919418D01*
X18996026Y6982025D01*
X18933419Y7058313D01*
X18897779Y7124991D01*
X18886898Y7145347D01*
X18877349Y7176828D01*
X18858250Y7239787D01*
X18851001Y7313388D01*
X18851000Y7313398D01*
X18851000Y7962611D01*
X18858249Y8036212D01*
X18886897Y8130651D01*
X18933418Y8217687D01*
X18996025Y8293975D01*
X19072313Y8356582D01*
X19159348Y8403103D01*
X19253787Y8431751D01*
X19352000Y8441424D01*
X19450212Y8431751D01*
X19450212Y8431751D01*
G37*
G36*
X18180212Y8431751D02*
X18274651Y8403103D01*
X18361687Y8356582D01*
X18437975Y8293975D01*
X18500582Y8217687D01*
X18547103Y8130652D01*
X18575751Y8036213D01*
X18583000Y7962612D01*
X18583000Y7313388D01*
X18575751Y7239787D01*
X18547103Y7145348D01*
X18500582Y7058313D01*
X18437975Y6982025D01*
X18361687Y6919418D01*
X18274652Y6872897D01*
X18180213Y6844249D01*
X18082000Y6834576D01*
X17983788Y6844249D01*
X17889349Y6872897D01*
X17802314Y6919418D01*
X17726026Y6982025D01*
X17663419Y7058313D01*
X17627779Y7124991D01*
X17616898Y7145347D01*
X17607349Y7176828D01*
X17588250Y7239787D01*
X17581001Y7313388D01*
X17581000Y7313398D01*
X17581000Y7962611D01*
X17588249Y8036212D01*
X17616897Y8130651D01*
X17663418Y8217687D01*
X17726025Y8293975D01*
X17802313Y8356582D01*
X17889348Y8403103D01*
X17983787Y8431751D01*
X18082000Y8441424D01*
X18180212Y8431751D01*
X18180212Y8431751D01*
G37*
G36*
X21123000Y6837000D02*
X20121000Y6837000D01*
X20121000Y8439000D01*
X21123000Y8439000D01*
X21123000Y6837000D01*
X21123000Y6837000D01*
G37*
G36*
X38258443Y9040481D02*
X38324627Y9033963D01*
X38437853Y8999616D01*
X38494467Y8982443D01*
X38633087Y8908348D01*
X38650991Y8898778D01*
X38686729Y8869448D01*
X38788186Y8786186D01*
X38871448Y8684729D01*
X38900778Y8648991D01*
X38900779Y8648989D01*
X38984443Y8492467D01*
X38984443Y8492466D01*
X39035963Y8322627D01*
X39053359Y8146000D01*
X39035963Y7969373D01*
X39001616Y7856147D01*
X38984443Y7799533D01*
X38910348Y7660913D01*
X38900778Y7643009D01*
X38871448Y7607271D01*
X38788186Y7505814D01*
X38686729Y7422552D01*
X38650991Y7393222D01*
X38650989Y7393221D01*
X38494467Y7309557D01*
X38437853Y7292384D01*
X38324627Y7258037D01*
X38258442Y7251518D01*
X38192260Y7245000D01*
X38103740Y7245000D01*
X38037557Y7251519D01*
X37971373Y7258037D01*
X37858147Y7292384D01*
X37801533Y7309557D01*
X37645011Y7393221D01*
X37645009Y7393222D01*
X37609271Y7422552D01*
X37507814Y7505814D01*
X37424552Y7607271D01*
X37395222Y7643009D01*
X37385652Y7660913D01*
X37311557Y7799533D01*
X37294384Y7856147D01*
X37260037Y7969373D01*
X37242641Y8146000D01*
X37260037Y8322627D01*
X37311557Y8492466D01*
X37311557Y8492467D01*
X37395221Y8648989D01*
X37395222Y8648991D01*
X37424552Y8684729D01*
X37507814Y8786186D01*
X37609271Y8869448D01*
X37645009Y8898778D01*
X37662913Y8908348D01*
X37801533Y8982443D01*
X37858147Y8999616D01*
X37971373Y9033963D01*
X38037558Y9040482D01*
X38103740Y9047000D01*
X38192260Y9047000D01*
X38258443Y9040481D01*
X38258443Y9040481D01*
G37*
G36*
X7016443Y10056481D02*
X7082627Y10049963D01*
X7195853Y10015616D01*
X7252467Y9998443D01*
X7374485Y9933222D01*
X7408991Y9914778D01*
X7444729Y9885448D01*
X7546186Y9802186D01*
X7629448Y9700729D01*
X7658778Y9664991D01*
X7658779Y9664989D01*
X7742443Y9508467D01*
X7742443Y9508466D01*
X7793963Y9338627D01*
X7811359Y9162000D01*
X7793963Y8985373D01*
X7793074Y8982443D01*
X7742443Y8815533D01*
X7726756Y8786186D01*
X7658778Y8659009D01*
X7629448Y8623271D01*
X7546186Y8521814D01*
X7448229Y8441424D01*
X7408991Y8409222D01*
X7408989Y8409221D01*
X7252467Y8325557D01*
X7195853Y8308384D01*
X7082627Y8274037D01*
X7016443Y8267519D01*
X6950260Y8261000D01*
X6861740Y8261000D01*
X6795557Y8267519D01*
X6729373Y8274037D01*
X6616147Y8308384D01*
X6559533Y8325557D01*
X6403011Y8409221D01*
X6403009Y8409222D01*
X6363771Y8441424D01*
X6265814Y8521814D01*
X6182552Y8623271D01*
X6153222Y8659009D01*
X6085244Y8786186D01*
X6069557Y8815533D01*
X6018926Y8982443D01*
X6018037Y8985373D01*
X6000641Y9162000D01*
X6018037Y9338627D01*
X6069557Y9508466D01*
X6069557Y9508467D01*
X6153221Y9664989D01*
X6153222Y9664991D01*
X6182552Y9700729D01*
X6265814Y9802186D01*
X6367271Y9885448D01*
X6403009Y9914778D01*
X6437515Y9933222D01*
X6559533Y9998443D01*
X6616147Y10015616D01*
X6729373Y10049963D01*
X6795557Y10056481D01*
X6861740Y10063000D01*
X6950260Y10063000D01*
X7016443Y10056481D01*
X7016443Y10056481D01*
G37*
G36*
X11080443Y10056481D02*
X11146627Y10049963D01*
X11259853Y10015616D01*
X11316467Y9998443D01*
X11438485Y9933222D01*
X11472991Y9914778D01*
X11508729Y9885448D01*
X11610186Y9802186D01*
X11693448Y9700729D01*
X11722778Y9664991D01*
X11722779Y9664989D01*
X11806443Y9508467D01*
X11806443Y9508466D01*
X11857963Y9338627D01*
X11875359Y9162000D01*
X11857963Y8985373D01*
X11857074Y8982443D01*
X11806443Y8815533D01*
X11790756Y8786186D01*
X11722778Y8659009D01*
X11693448Y8623271D01*
X11610186Y8521814D01*
X11512229Y8441424D01*
X11472991Y8409222D01*
X11472989Y8409221D01*
X11316467Y8325557D01*
X11259853Y8308384D01*
X11146627Y8274037D01*
X11080443Y8267519D01*
X11014260Y8261000D01*
X10925740Y8261000D01*
X10859557Y8267519D01*
X10793373Y8274037D01*
X10680147Y8308384D01*
X10623533Y8325557D01*
X10467011Y8409221D01*
X10467009Y8409222D01*
X10427771Y8441424D01*
X10329814Y8521814D01*
X10246552Y8623271D01*
X10217222Y8659009D01*
X10149244Y8786186D01*
X10133557Y8815533D01*
X10082926Y8982443D01*
X10082037Y8985373D01*
X10064641Y9162000D01*
X10082037Y9338627D01*
X10133557Y9508466D01*
X10133557Y9508467D01*
X10217221Y9664989D01*
X10217222Y9664991D01*
X10246552Y9700729D01*
X10329814Y9802186D01*
X10431271Y9885448D01*
X10467009Y9914778D01*
X10501515Y9933222D01*
X10623533Y9998443D01*
X10680147Y10015616D01*
X10793373Y10049963D01*
X10859557Y10056481D01*
X10925740Y10063000D01*
X11014260Y10063000D01*
X11080443Y10056481D01*
X11080443Y10056481D01*
G37*
G36*
X38258443Y11580481D02*
X38324627Y11573963D01*
X38437853Y11539616D01*
X38494467Y11522443D01*
X38633087Y11448348D01*
X38650991Y11438778D01*
X38686729Y11409448D01*
X38788186Y11326186D01*
X38871448Y11224729D01*
X38900778Y11188991D01*
X38900779Y11188989D01*
X38984443Y11032467D01*
X38984443Y11032466D01*
X39035963Y10862627D01*
X39053359Y10686000D01*
X39035963Y10509373D01*
X39001875Y10397000D01*
X38984443Y10339533D01*
X38910348Y10200913D01*
X38900778Y10183009D01*
X38871448Y10147271D01*
X38788186Y10045814D01*
X38686729Y9962552D01*
X38650991Y9933222D01*
X38650989Y9933221D01*
X38494467Y9849557D01*
X38437853Y9832384D01*
X38324627Y9798037D01*
X38258442Y9791518D01*
X38192260Y9785000D01*
X38103740Y9785000D01*
X38037558Y9791518D01*
X37971373Y9798037D01*
X37858147Y9832384D01*
X37801533Y9849557D01*
X37645011Y9933221D01*
X37645009Y9933222D01*
X37609271Y9962552D01*
X37507814Y10045814D01*
X37424552Y10147271D01*
X37395222Y10183009D01*
X37385652Y10200913D01*
X37311557Y10339533D01*
X37294125Y10397000D01*
X37260037Y10509373D01*
X37242641Y10686000D01*
X37260037Y10862627D01*
X37311557Y11032466D01*
X37311557Y11032467D01*
X37395221Y11188989D01*
X37395222Y11188991D01*
X37424552Y11224729D01*
X37507814Y11326186D01*
X37609271Y11409448D01*
X37645009Y11438778D01*
X37662913Y11448348D01*
X37801533Y11522443D01*
X37858147Y11539616D01*
X37971373Y11573963D01*
X38037557Y11580481D01*
X38103740Y11587000D01*
X38192260Y11587000D01*
X38258443Y11580481D01*
X38258443Y11580481D01*
G37*
G36*
X30817000Y10397000D02*
X28715000Y10397000D01*
X28715000Y12499000D01*
X30817000Y12499000D01*
X30817000Y10397000D01*
X30817000Y10397000D01*
G37*
G36*
X11080442Y12596482D02*
X11146627Y12589963D01*
X11259853Y12555616D01*
X11316467Y12538443D01*
X11438485Y12473222D01*
X11472991Y12454778D01*
X11508729Y12425448D01*
X11610186Y12342186D01*
X11693448Y12240729D01*
X11722778Y12204991D01*
X11722779Y12204989D01*
X11806443Y12048467D01*
X11806443Y12048466D01*
X11857963Y11878627D01*
X11875359Y11702000D01*
X11857963Y11525373D01*
X11857074Y11522443D01*
X11806443Y11355533D01*
X11790756Y11326186D01*
X11722778Y11199009D01*
X11693448Y11163271D01*
X11610186Y11061814D01*
X11508729Y10978552D01*
X11472991Y10949222D01*
X11472989Y10949221D01*
X11316467Y10865557D01*
X11259853Y10848384D01*
X11146627Y10814037D01*
X11080443Y10807519D01*
X11014260Y10801000D01*
X10925740Y10801000D01*
X10859557Y10807519D01*
X10793373Y10814037D01*
X10680147Y10848384D01*
X10623533Y10865557D01*
X10467011Y10949221D01*
X10467009Y10949222D01*
X10431271Y10978552D01*
X10329814Y11061814D01*
X10246552Y11163271D01*
X10217222Y11199009D01*
X10149244Y11326186D01*
X10133557Y11355533D01*
X10082926Y11522443D01*
X10082037Y11525373D01*
X10064641Y11702000D01*
X10082037Y11878627D01*
X10133557Y12048466D01*
X10133557Y12048467D01*
X10217221Y12204989D01*
X10217222Y12204991D01*
X10246552Y12240729D01*
X10329814Y12342186D01*
X10431271Y12425448D01*
X10467009Y12454778D01*
X10501515Y12473222D01*
X10623533Y12538443D01*
X10680147Y12555616D01*
X10793373Y12589963D01*
X10859558Y12596482D01*
X10925740Y12603000D01*
X11014260Y12603000D01*
X11080442Y12596482D01*
X11080442Y12596482D01*
G37*
G36*
X7016442Y12596482D02*
X7082627Y12589963D01*
X7195853Y12555616D01*
X7252467Y12538443D01*
X7374485Y12473222D01*
X7408991Y12454778D01*
X7444729Y12425448D01*
X7546186Y12342186D01*
X7629448Y12240729D01*
X7658778Y12204991D01*
X7658779Y12204989D01*
X7742443Y12048467D01*
X7742443Y12048466D01*
X7793963Y11878627D01*
X7811359Y11702000D01*
X7793963Y11525373D01*
X7793074Y11522443D01*
X7742443Y11355533D01*
X7726756Y11326186D01*
X7658778Y11199009D01*
X7629448Y11163271D01*
X7546186Y11061814D01*
X7444729Y10978552D01*
X7408991Y10949222D01*
X7408989Y10949221D01*
X7252467Y10865557D01*
X7195853Y10848384D01*
X7082627Y10814037D01*
X7016443Y10807519D01*
X6950260Y10801000D01*
X6861740Y10801000D01*
X6795557Y10807519D01*
X6729373Y10814037D01*
X6616147Y10848384D01*
X6559533Y10865557D01*
X6403011Y10949221D01*
X6403009Y10949222D01*
X6367271Y10978552D01*
X6265814Y11061814D01*
X6182552Y11163271D01*
X6153222Y11199009D01*
X6085244Y11326186D01*
X6069557Y11355533D01*
X6018926Y11522443D01*
X6018037Y11525373D01*
X6000641Y11702000D01*
X6018037Y11878627D01*
X6069557Y12048466D01*
X6069557Y12048467D01*
X6153221Y12204989D01*
X6153222Y12204991D01*
X6182552Y12240729D01*
X6265814Y12342186D01*
X6367271Y12425448D01*
X6403009Y12454778D01*
X6437515Y12473222D01*
X6559533Y12538443D01*
X6616147Y12555616D01*
X6729373Y12589963D01*
X6795558Y12596482D01*
X6861740Y12603000D01*
X6950260Y12603000D01*
X7016442Y12596482D01*
X7016442Y12596482D01*
G37*
G36*
X23582821Y13302687D02*
X23582824Y13302686D01*
X23582825Y13302686D01*
X23743239Y13254025D01*
X23743241Y13254024D01*
X23743244Y13254023D01*
X23891078Y13175005D01*
X24020659Y13068659D01*
X24127005Y12939078D01*
X24206023Y12791244D01*
X24206024Y12791241D01*
X24206025Y12791239D01*
X24226722Y12723009D01*
X24254687Y12630821D01*
X24271117Y12464000D01*
X24254687Y12297179D01*
X24254686Y12297176D01*
X24254686Y12297175D01*
X24226722Y12204989D01*
X24206023Y12136756D01*
X24127005Y11988922D01*
X24020659Y11859341D01*
X23891078Y11752995D01*
X23743244Y11673977D01*
X23743241Y11673976D01*
X23743239Y11673975D01*
X23582825Y11625314D01*
X23582824Y11625314D01*
X23582821Y11625313D01*
X23457804Y11613000D01*
X23374196Y11613000D01*
X23249179Y11625313D01*
X23249176Y11625314D01*
X23249175Y11625314D01*
X23088761Y11673975D01*
X23088759Y11673976D01*
X23088756Y11673977D01*
X22940922Y11752995D01*
X22811341Y11859341D01*
X22704995Y11988922D01*
X22625977Y12136756D01*
X22605279Y12204989D01*
X22577314Y12297175D01*
X22577314Y12297176D01*
X22577313Y12297179D01*
X22560883Y12464000D01*
X22577313Y12630821D01*
X22605278Y12723009D01*
X22625975Y12791239D01*
X22625976Y12791241D01*
X22625977Y12791244D01*
X22704995Y12939078D01*
X22811341Y13068659D01*
X22940922Y13175005D01*
X23088756Y13254023D01*
X23088759Y13254024D01*
X23088761Y13254025D01*
X23249175Y13302686D01*
X23249176Y13302686D01*
X23249179Y13302687D01*
X23374196Y13315000D01*
X23457804Y13315000D01*
X23582821Y13302687D01*
X23582821Y13302687D01*
G37*
G36*
X19518821Y13302687D02*
X19518824Y13302686D01*
X19518825Y13302686D01*
X19679239Y13254025D01*
X19679241Y13254024D01*
X19679244Y13254023D01*
X19827078Y13175005D01*
X19956659Y13068659D01*
X20063005Y12939078D01*
X20142023Y12791244D01*
X20142024Y12791241D01*
X20142025Y12791239D01*
X20162722Y12723009D01*
X20190687Y12630821D01*
X20207117Y12464000D01*
X20190687Y12297179D01*
X20190686Y12297176D01*
X20190686Y12297175D01*
X20162722Y12204989D01*
X20142023Y12136756D01*
X20063005Y11988922D01*
X19956659Y11859341D01*
X19827078Y11752995D01*
X19679244Y11673977D01*
X19679241Y11673976D01*
X19679239Y11673975D01*
X19518825Y11625314D01*
X19518824Y11625314D01*
X19518821Y11625313D01*
X19393804Y11613000D01*
X19310196Y11613000D01*
X19185179Y11625313D01*
X19185176Y11625314D01*
X19185175Y11625314D01*
X19024761Y11673975D01*
X19024759Y11673976D01*
X19024756Y11673977D01*
X18876922Y11752995D01*
X18747341Y11859341D01*
X18640995Y11988922D01*
X18561977Y12136756D01*
X18541279Y12204989D01*
X18513314Y12297175D01*
X18513314Y12297176D01*
X18513313Y12297179D01*
X18496883Y12464000D01*
X18513313Y12630821D01*
X18541278Y12723009D01*
X18561975Y12791239D01*
X18561976Y12791241D01*
X18561977Y12791244D01*
X18640995Y12939078D01*
X18747341Y13068659D01*
X18876922Y13175005D01*
X19024756Y13254023D01*
X19024759Y13254024D01*
X19024761Y13254025D01*
X19185175Y13302686D01*
X19185176Y13302686D01*
X19185179Y13302687D01*
X19310196Y13315000D01*
X19393804Y13315000D01*
X19518821Y13302687D01*
X19518821Y13302687D01*
G37*
G36*
X38258442Y14120482D02*
X38324627Y14113963D01*
X38437853Y14079616D01*
X38494467Y14062443D01*
X38633087Y13988348D01*
X38650991Y13978778D01*
X38686729Y13949448D01*
X38788186Y13866186D01*
X38871448Y13764729D01*
X38900778Y13728991D01*
X38900779Y13728989D01*
X38984443Y13572467D01*
X38984443Y13572466D01*
X39035963Y13402627D01*
X39053359Y13226000D01*
X39035963Y13049373D01*
X39002505Y12939078D01*
X38984443Y12879533D01*
X38937251Y12791244D01*
X38900778Y12723009D01*
X38871448Y12687271D01*
X38788186Y12585814D01*
X38686729Y12502552D01*
X38650991Y12473222D01*
X38650989Y12473221D01*
X38494467Y12389557D01*
X38437853Y12372384D01*
X38324627Y12338037D01*
X38258443Y12331519D01*
X38192260Y12325000D01*
X38103740Y12325000D01*
X38037557Y12331519D01*
X37971373Y12338037D01*
X37858147Y12372384D01*
X37801533Y12389557D01*
X37645011Y12473221D01*
X37645009Y12473222D01*
X37609271Y12502552D01*
X37507814Y12585814D01*
X37424552Y12687271D01*
X37395222Y12723009D01*
X37358749Y12791244D01*
X37311557Y12879533D01*
X37293495Y12939078D01*
X37260037Y13049373D01*
X37242641Y13226000D01*
X37260037Y13402627D01*
X37311557Y13572466D01*
X37311557Y13572467D01*
X37395221Y13728989D01*
X37395222Y13728991D01*
X37424552Y13764729D01*
X37507814Y13866186D01*
X37609271Y13949448D01*
X37645009Y13978778D01*
X37662913Y13988348D01*
X37801533Y14062443D01*
X37858147Y14079616D01*
X37971373Y14113963D01*
X38037557Y14120481D01*
X38103740Y14127000D01*
X38192260Y14127000D01*
X38258442Y14120482D01*
X38258442Y14120482D01*
G37*
G36*
X7016443Y15136481D02*
X7082627Y15129963D01*
X7195853Y15095616D01*
X7252467Y15078443D01*
X7391087Y15004348D01*
X7408991Y14994778D01*
X7444729Y14965448D01*
X7546186Y14882186D01*
X7629448Y14780729D01*
X7658778Y14744991D01*
X7658779Y14744989D01*
X7742443Y14588467D01*
X7742443Y14588466D01*
X7793963Y14418627D01*
X7811359Y14242000D01*
X7793963Y14065373D01*
X7793074Y14062443D01*
X7742443Y13895533D01*
X7726756Y13866186D01*
X7658778Y13739009D01*
X7629448Y13703271D01*
X7546186Y13601814D01*
X7444729Y13518552D01*
X7408991Y13489222D01*
X7408989Y13489221D01*
X7252467Y13405557D01*
X7195853Y13388384D01*
X7082627Y13354037D01*
X7016443Y13347519D01*
X6950260Y13341000D01*
X6861740Y13341000D01*
X6795558Y13347518D01*
X6729373Y13354037D01*
X6616147Y13388384D01*
X6559533Y13405557D01*
X6403011Y13489221D01*
X6403009Y13489222D01*
X6367271Y13518552D01*
X6265814Y13601814D01*
X6182552Y13703271D01*
X6153222Y13739009D01*
X6085244Y13866186D01*
X6069557Y13895533D01*
X6018926Y14062443D01*
X6018037Y14065373D01*
X6000641Y14242000D01*
X6018037Y14418627D01*
X6069557Y14588466D01*
X6069557Y14588467D01*
X6153221Y14744989D01*
X6153222Y14744991D01*
X6182552Y14780729D01*
X6265814Y14882186D01*
X6367271Y14965448D01*
X6403009Y14994778D01*
X6420913Y15004348D01*
X6559533Y15078443D01*
X6616147Y15095616D01*
X6729373Y15129963D01*
X6795558Y15136482D01*
X6861740Y15143000D01*
X6950260Y15143000D01*
X7016443Y15136481D01*
X7016443Y15136481D01*
G37*
G36*
X11080443Y15136481D02*
X11146627Y15129963D01*
X11259853Y15095616D01*
X11316467Y15078443D01*
X11455087Y15004348D01*
X11472991Y14994778D01*
X11508729Y14965448D01*
X11610186Y14882186D01*
X11693448Y14780729D01*
X11722778Y14744991D01*
X11722779Y14744989D01*
X11806443Y14588467D01*
X11806443Y14588466D01*
X11857963Y14418627D01*
X11875359Y14242000D01*
X11857963Y14065373D01*
X11857074Y14062443D01*
X11806443Y13895533D01*
X11790756Y13866186D01*
X11722778Y13739009D01*
X11693448Y13703271D01*
X11610186Y13601814D01*
X11508729Y13518552D01*
X11472991Y13489222D01*
X11472989Y13489221D01*
X11316467Y13405557D01*
X11259853Y13388384D01*
X11146627Y13354037D01*
X11080443Y13347519D01*
X11014260Y13341000D01*
X10925740Y13341000D01*
X10859558Y13347518D01*
X10793373Y13354037D01*
X10680147Y13388384D01*
X10623533Y13405557D01*
X10467011Y13489221D01*
X10467009Y13489222D01*
X10431271Y13518552D01*
X10329814Y13601814D01*
X10246552Y13703271D01*
X10217222Y13739009D01*
X10149244Y13866186D01*
X10133557Y13895533D01*
X10082926Y14062443D01*
X10082037Y14065373D01*
X10064641Y14242000D01*
X10082037Y14418627D01*
X10133557Y14588466D01*
X10133557Y14588467D01*
X10217221Y14744989D01*
X10217222Y14744991D01*
X10246552Y14780729D01*
X10329814Y14882186D01*
X10431271Y14965448D01*
X10467009Y14994778D01*
X10484913Y15004348D01*
X10623533Y15078443D01*
X10680147Y15095616D01*
X10793373Y15129963D01*
X10859558Y15136482D01*
X10925740Y15143000D01*
X11014260Y15143000D01*
X11080443Y15136481D01*
X11080443Y15136481D01*
G37*
G36*
X39049000Y14865000D02*
X37247000Y14865000D01*
X37247000Y16667000D01*
X39049000Y16667000D01*
X39049000Y14865000D01*
X39049000Y14865000D01*
G37*
G36*
X11080442Y17676482D02*
X11146627Y17669963D01*
X11259853Y17635616D01*
X11316467Y17618443D01*
X11455087Y17544348D01*
X11472991Y17534778D01*
X11508729Y17505448D01*
X11610186Y17422186D01*
X11693448Y17320729D01*
X11722778Y17284991D01*
X11722779Y17284989D01*
X11806443Y17128467D01*
X11806443Y17128466D01*
X11857963Y16958627D01*
X11875359Y16782000D01*
X11857963Y16605373D01*
X11823616Y16492147D01*
X11806443Y16435533D01*
X11732348Y16296913D01*
X11722778Y16279009D01*
X11693448Y16243271D01*
X11610186Y16141814D01*
X11508729Y16058552D01*
X11472991Y16029222D01*
X11472989Y16029221D01*
X11316467Y15945557D01*
X11259853Y15928384D01*
X11146627Y15894037D01*
X11080442Y15887518D01*
X11014260Y15881000D01*
X10925740Y15881000D01*
X10859558Y15887518D01*
X10793373Y15894037D01*
X10680147Y15928384D01*
X10623533Y15945557D01*
X10467011Y16029221D01*
X10467009Y16029222D01*
X10431271Y16058552D01*
X10329814Y16141814D01*
X10246552Y16243271D01*
X10217222Y16279009D01*
X10207652Y16296913D01*
X10133557Y16435533D01*
X10116384Y16492147D01*
X10082037Y16605373D01*
X10064641Y16782000D01*
X10082037Y16958627D01*
X10133557Y17128466D01*
X10133557Y17128467D01*
X10217221Y17284989D01*
X10217222Y17284991D01*
X10246552Y17320729D01*
X10329814Y17422186D01*
X10431271Y17505448D01*
X10467009Y17534778D01*
X10484913Y17544348D01*
X10623533Y17618443D01*
X10680147Y17635616D01*
X10793373Y17669963D01*
X10859558Y17676482D01*
X10925740Y17683000D01*
X11014260Y17683000D01*
X11080442Y17676482D01*
X11080442Y17676482D01*
G37*
G36*
X7016442Y17676482D02*
X7082627Y17669963D01*
X7195853Y17635616D01*
X7252467Y17618443D01*
X7391087Y17544348D01*
X7408991Y17534778D01*
X7444729Y17505448D01*
X7546186Y17422186D01*
X7629448Y17320729D01*
X7658778Y17284991D01*
X7658779Y17284989D01*
X7742443Y17128467D01*
X7742443Y17128466D01*
X7793963Y16958627D01*
X7811359Y16782000D01*
X7793963Y16605373D01*
X7759616Y16492147D01*
X7742443Y16435533D01*
X7668348Y16296913D01*
X7658778Y16279009D01*
X7629448Y16243271D01*
X7546186Y16141814D01*
X7444729Y16058552D01*
X7408991Y16029222D01*
X7408989Y16029221D01*
X7252467Y15945557D01*
X7195853Y15928384D01*
X7082627Y15894037D01*
X7016442Y15887518D01*
X6950260Y15881000D01*
X6861740Y15881000D01*
X6795558Y15887518D01*
X6729373Y15894037D01*
X6616147Y15928384D01*
X6559533Y15945557D01*
X6403011Y16029221D01*
X6403009Y16029222D01*
X6367271Y16058552D01*
X6265814Y16141814D01*
X6182552Y16243271D01*
X6153222Y16279009D01*
X6143652Y16296913D01*
X6069557Y16435533D01*
X6052384Y16492147D01*
X6018037Y16605373D01*
X6000641Y16782000D01*
X6018037Y16958627D01*
X6069557Y17128466D01*
X6069557Y17128467D01*
X6153221Y17284989D01*
X6153222Y17284991D01*
X6182552Y17320729D01*
X6265814Y17422186D01*
X6367271Y17505448D01*
X6403009Y17534778D01*
X6420913Y17544348D01*
X6559533Y17618443D01*
X6616147Y17635616D01*
X6729373Y17669963D01*
X6795558Y17676482D01*
X6861740Y17683000D01*
X6950260Y17683000D01*
X7016442Y17676482D01*
X7016442Y17676482D01*
G37*
G36*
X11080443Y20216481D02*
X11146627Y20209963D01*
X11259853Y20175616D01*
X11316467Y20158443D01*
X11455087Y20084348D01*
X11472991Y20074778D01*
X11508729Y20045448D01*
X11610186Y19962186D01*
X11693448Y19860729D01*
X11722778Y19824991D01*
X11722779Y19824989D01*
X11806443Y19668467D01*
X11806443Y19668466D01*
X11857963Y19498627D01*
X11875359Y19322000D01*
X11857963Y19145373D01*
X11823616Y19032147D01*
X11806443Y18975533D01*
X11732348Y18836913D01*
X11722778Y18819009D01*
X11693448Y18783271D01*
X11610186Y18681814D01*
X11508729Y18598552D01*
X11472991Y18569222D01*
X11472989Y18569221D01*
X11316467Y18485557D01*
X11259853Y18468384D01*
X11146627Y18434037D01*
X11080443Y18427519D01*
X11014260Y18421000D01*
X10925740Y18421000D01*
X10859557Y18427519D01*
X10793373Y18434037D01*
X10680147Y18468384D01*
X10623533Y18485557D01*
X10467011Y18569221D01*
X10467009Y18569222D01*
X10431271Y18598552D01*
X10329814Y18681814D01*
X10246552Y18783271D01*
X10217222Y18819009D01*
X10207652Y18836913D01*
X10133557Y18975533D01*
X10116384Y19032147D01*
X10082037Y19145373D01*
X10064641Y19322000D01*
X10082037Y19498627D01*
X10133557Y19668466D01*
X10133557Y19668467D01*
X10217221Y19824989D01*
X10217222Y19824991D01*
X10246552Y19860729D01*
X10329814Y19962186D01*
X10431271Y20045448D01*
X10467009Y20074778D01*
X10484913Y20084348D01*
X10623533Y20158443D01*
X10680147Y20175616D01*
X10793373Y20209963D01*
X10859557Y20216481D01*
X10925740Y20223000D01*
X11014260Y20223000D01*
X11080443Y20216481D01*
X11080443Y20216481D01*
G37*
G36*
X7016443Y20216481D02*
X7082627Y20209963D01*
X7195853Y20175616D01*
X7252467Y20158443D01*
X7391087Y20084348D01*
X7408991Y20074778D01*
X7444729Y20045448D01*
X7546186Y19962186D01*
X7629448Y19860729D01*
X7658778Y19824991D01*
X7658779Y19824989D01*
X7742443Y19668467D01*
X7742443Y19668466D01*
X7793963Y19498627D01*
X7811359Y19322000D01*
X7793963Y19145373D01*
X7759616Y19032147D01*
X7742443Y18975533D01*
X7668348Y18836913D01*
X7658778Y18819009D01*
X7629448Y18783271D01*
X7546186Y18681814D01*
X7444729Y18598552D01*
X7408991Y18569222D01*
X7408989Y18569221D01*
X7252467Y18485557D01*
X7195853Y18468384D01*
X7082627Y18434037D01*
X7016443Y18427519D01*
X6950260Y18421000D01*
X6861740Y18421000D01*
X6795557Y18427519D01*
X6729373Y18434037D01*
X6616147Y18468384D01*
X6559533Y18485557D01*
X6403011Y18569221D01*
X6403009Y18569222D01*
X6367271Y18598552D01*
X6265814Y18681814D01*
X6182552Y18783271D01*
X6153222Y18819009D01*
X6143652Y18836913D01*
X6069557Y18975533D01*
X6052384Y19032147D01*
X6018037Y19145373D01*
X6000641Y19322000D01*
X6018037Y19498627D01*
X6069557Y19668466D01*
X6069557Y19668467D01*
X6153221Y19824989D01*
X6153222Y19824991D01*
X6182552Y19860729D01*
X6265814Y19962186D01*
X6367271Y20045448D01*
X6403009Y20074778D01*
X6420913Y20084348D01*
X6559533Y20158443D01*
X6616147Y20175616D01*
X6729373Y20209963D01*
X6795557Y20216481D01*
X6861740Y20223000D01*
X6950260Y20223000D01*
X7016443Y20216481D01*
X7016443Y20216481D01*
G37*
G36*
X23664228Y20902297D02*
X23819100Y20838147D01*
X23958481Y20745015D01*
X24077015Y20626481D01*
X24170147Y20487100D01*
X24234297Y20332228D01*
X24267000Y20167816D01*
X24267000Y20000184D01*
X24234297Y19835772D01*
X24170147Y19680900D01*
X24077015Y19541519D01*
X23958481Y19422985D01*
X23819100Y19329853D01*
X23664228Y19265703D01*
X23499816Y19233000D01*
X23332184Y19233000D01*
X23167772Y19265703D01*
X23012900Y19329853D01*
X22873519Y19422985D01*
X22754985Y19541519D01*
X22661853Y19680900D01*
X22597703Y19835772D01*
X22565000Y20000184D01*
X22565000Y20167816D01*
X22597703Y20332228D01*
X22661853Y20487100D01*
X22754985Y20626481D01*
X22873519Y20745015D01*
X23012900Y20838147D01*
X23167772Y20902297D01*
X23332184Y20935000D01*
X23499816Y20935000D01*
X23664228Y20902297D01*
X23664228Y20902297D01*
G37*
G36*
X19600228Y20902297D02*
X19755100Y20838147D01*
X19894481Y20745015D01*
X20013015Y20626481D01*
X20106147Y20487100D01*
X20170297Y20332228D01*
X20203000Y20167816D01*
X20203000Y20000184D01*
X20170297Y19835772D01*
X20106147Y19680900D01*
X20013015Y19541519D01*
X19894481Y19422985D01*
X19755100Y19329853D01*
X19600228Y19265703D01*
X19435816Y19233000D01*
X19268184Y19233000D01*
X19103772Y19265703D01*
X18948900Y19329853D01*
X18809519Y19422985D01*
X18690985Y19541519D01*
X18597853Y19680900D01*
X18533703Y19835772D01*
X18501000Y20000184D01*
X18501000Y20167816D01*
X18533703Y20332228D01*
X18597853Y20487100D01*
X18690985Y20626481D01*
X18809519Y20745015D01*
X18948900Y20838147D01*
X19103772Y20902297D01*
X19268184Y20935000D01*
X19435816Y20935000D01*
X19600228Y20902297D01*
X19600228Y20902297D01*
G37*
G36*
X11871000Y20961000D02*
X10069000Y20961000D01*
X10069000Y22763000D01*
X11871000Y22763000D01*
X11871000Y20961000D01*
X11871000Y20961000D01*
G37*
G36*
X7807000Y20961000D02*
X6005000Y20961000D01*
X6005000Y22763000D01*
X7807000Y22763000D01*
X7807000Y20961000D01*
X7807000Y20961000D01*
G37*
G36*
X13930821Y26764687D02*
X13930824Y26764686D01*
X13930825Y26764686D01*
X14091239Y26716025D01*
X14091241Y26716024D01*
X14091244Y26716023D01*
X14239078Y26637005D01*
X14368659Y26530659D01*
X14475005Y26401078D01*
X14554023Y26253244D01*
X14554024Y26253241D01*
X14554025Y26253239D01*
X14602686Y26092825D01*
X14602687Y26092821D01*
X14619117Y25926000D01*
X14602687Y25759179D01*
X14602686Y25759176D01*
X14602686Y25759175D01*
X14577993Y25677772D01*
X14554023Y25598756D01*
X14475005Y25450922D01*
X14368659Y25321341D01*
X14239078Y25214995D01*
X14091244Y25135977D01*
X14091241Y25135976D01*
X14091239Y25135975D01*
X13930825Y25087314D01*
X13930824Y25087314D01*
X13930821Y25087313D01*
X13805804Y25075000D01*
X13722196Y25075000D01*
X13597179Y25087313D01*
X13597176Y25087314D01*
X13597175Y25087314D01*
X13436761Y25135975D01*
X13436759Y25135976D01*
X13436756Y25135977D01*
X13288922Y25214995D01*
X13159341Y25321341D01*
X13052995Y25450922D01*
X12973977Y25598756D01*
X12950008Y25677772D01*
X12925314Y25759175D01*
X12925314Y25759176D01*
X12925313Y25759179D01*
X12908883Y25926000D01*
X12925313Y26092821D01*
X12925314Y26092825D01*
X12973975Y26253239D01*
X12973976Y26253241D01*
X12973977Y26253244D01*
X13052995Y26401078D01*
X13159341Y26530659D01*
X13288922Y26637005D01*
X13436756Y26716023D01*
X13436759Y26716024D01*
X13436761Y26716025D01*
X13597175Y26764686D01*
X13597176Y26764686D01*
X13597179Y26764687D01*
X13722196Y26777000D01*
X13805804Y26777000D01*
X13930821Y26764687D01*
X13930821Y26764687D01*
G37*
G36*
X6392228Y26744297D02*
X6547100Y26680147D01*
X6686481Y26587015D01*
X6805015Y26468481D01*
X6898147Y26329100D01*
X6962297Y26174228D01*
X6995000Y26009816D01*
X6995000Y25842184D01*
X6962297Y25677772D01*
X6898147Y25522900D01*
X6805015Y25383519D01*
X6686481Y25264985D01*
X6547100Y25171853D01*
X6392228Y25107703D01*
X6227816Y25075000D01*
X6060184Y25075000D01*
X5895772Y25107703D01*
X5740900Y25171853D01*
X5601519Y25264985D01*
X5482985Y25383519D01*
X5389853Y25522900D01*
X5325703Y25677772D01*
X5293000Y25842184D01*
X5293000Y26009816D01*
X5325703Y26174228D01*
X5389853Y26329100D01*
X5482985Y26468481D01*
X5601519Y26587015D01*
X5740900Y26680147D01*
X5895772Y26744297D01*
X6060184Y26777000D01*
X6227816Y26777000D01*
X6392228Y26744297D01*
X6392228Y26744297D01*
G37*
G36*
X16229294Y32161367D02*
X16401694Y32109069D01*
X16401696Y32109068D01*
X16560583Y32024141D01*
X16560585Y32024140D01*
X16560584Y32024140D01*
X16699849Y31909849D01*
X16814140Y31770584D01*
X16899069Y31611694D01*
X16951367Y31439294D01*
X16969025Y31260000D01*
X16951367Y31080706D01*
X16899069Y30908306D01*
X16899068Y30908304D01*
X16814141Y30749417D01*
X16699849Y30610151D01*
X16560583Y30495859D01*
X16401696Y30410932D01*
X16401694Y30410931D01*
X16229294Y30358633D01*
X16094931Y30345400D01*
X16005069Y30345400D01*
X15870706Y30358633D01*
X15698306Y30410931D01*
X15698304Y30410932D01*
X15539417Y30495859D01*
X15400151Y30610151D01*
X15285859Y30749417D01*
X15200932Y30908304D01*
X15200931Y30908306D01*
X15148633Y31080706D01*
X15130975Y31260000D01*
X15148633Y31439294D01*
X15200931Y31611694D01*
X15285860Y31770584D01*
X15400151Y31909849D01*
X15539416Y32024140D01*
X15539415Y32024140D01*
X15539417Y32024141D01*
X15698304Y32109068D01*
X15698306Y32109069D01*
X15870706Y32161367D01*
X16005069Y32174600D01*
X16094931Y32174600D01*
X16229294Y32161367D01*
X16229294Y32161367D01*
G37*
G36*
X33501294Y32161367D02*
X33673694Y32109069D01*
X33673696Y32109068D01*
X33832583Y32024141D01*
X33832585Y32024140D01*
X33832584Y32024140D01*
X33971849Y31909849D01*
X34086140Y31770584D01*
X34171069Y31611694D01*
X34223367Y31439294D01*
X34241025Y31260000D01*
X34223367Y31080706D01*
X34171069Y30908306D01*
X34171068Y30908304D01*
X34086141Y30749417D01*
X33971849Y30610151D01*
X33832583Y30495859D01*
X33673696Y30410932D01*
X33673694Y30410931D01*
X33501294Y30358633D01*
X33366931Y30345400D01*
X33277069Y30345400D01*
X33142706Y30358633D01*
X32970306Y30410931D01*
X32970304Y30410932D01*
X32811417Y30495859D01*
X32672151Y30610151D01*
X32557859Y30749417D01*
X32472932Y30908304D01*
X32472931Y30908306D01*
X32420633Y31080706D01*
X32402975Y31260000D01*
X32420633Y31439294D01*
X32472931Y31611694D01*
X32557860Y31770584D01*
X32672151Y31909849D01*
X32811416Y32024140D01*
X32811415Y32024140D01*
X32811417Y32024141D01*
X32970304Y32109068D01*
X32970306Y32109069D01*
X33142706Y32161367D01*
X33277069Y32174600D01*
X33366931Y32174600D01*
X33501294Y32161367D01*
X33501294Y32161367D01*
G37*
G36*
X28421294Y32161367D02*
X28593694Y32109069D01*
X28593696Y32109068D01*
X28752583Y32024141D01*
X28752585Y32024140D01*
X28752584Y32024140D01*
X28891849Y31909849D01*
X29006140Y31770584D01*
X29091069Y31611694D01*
X29143367Y31439294D01*
X29161025Y31260000D01*
X29143367Y31080706D01*
X29091069Y30908306D01*
X29091068Y30908304D01*
X29006141Y30749417D01*
X28891849Y30610151D01*
X28752583Y30495859D01*
X28593696Y30410932D01*
X28593694Y30410931D01*
X28421294Y30358633D01*
X28286931Y30345400D01*
X28197069Y30345400D01*
X28062706Y30358633D01*
X27890306Y30410931D01*
X27890304Y30410932D01*
X27731417Y30495859D01*
X27592151Y30610151D01*
X27477859Y30749417D01*
X27392932Y30908304D01*
X27392931Y30908306D01*
X27340633Y31080706D01*
X27322975Y31260000D01*
X27340633Y31439294D01*
X27392931Y31611694D01*
X27477860Y31770584D01*
X27592151Y31909849D01*
X27731416Y32024140D01*
X27731415Y32024140D01*
X27731417Y32024141D01*
X27890304Y32109068D01*
X27890306Y32109069D01*
X28062706Y32161367D01*
X28197069Y32174600D01*
X28286931Y32174600D01*
X28421294Y32161367D01*
X28421294Y32161367D01*
G37*
G36*
X38581294Y32161367D02*
X38753694Y32109069D01*
X38753696Y32109068D01*
X38912583Y32024141D01*
X38912585Y32024140D01*
X38912584Y32024140D01*
X39051849Y31909849D01*
X39166140Y31770584D01*
X39251069Y31611694D01*
X39303367Y31439294D01*
X39321025Y31260000D01*
X39303367Y31080706D01*
X39251069Y30908306D01*
X39251068Y30908304D01*
X39166141Y30749417D01*
X39051849Y30610151D01*
X38912583Y30495859D01*
X38753696Y30410932D01*
X38753694Y30410931D01*
X38581294Y30358633D01*
X38446931Y30345400D01*
X38357069Y30345400D01*
X38222706Y30358633D01*
X38050306Y30410931D01*
X38050304Y30410932D01*
X37891417Y30495859D01*
X37752151Y30610151D01*
X37637859Y30749417D01*
X37552932Y30908304D01*
X37552931Y30908306D01*
X37500633Y31080706D01*
X37482975Y31260000D01*
X37500633Y31439294D01*
X37552931Y31611694D01*
X37637860Y31770584D01*
X37752151Y31909849D01*
X37891416Y32024140D01*
X37891415Y32024140D01*
X37891417Y32024141D01*
X38050304Y32109068D01*
X38050306Y32109069D01*
X38222706Y32161367D01*
X38357069Y32174600D01*
X38446931Y32174600D01*
X38581294Y32161367D01*
X38581294Y32161367D01*
G37*
G36*
X13689294Y32161367D02*
X13861694Y32109069D01*
X13861696Y32109068D01*
X14020583Y32024141D01*
X14020585Y32024140D01*
X14020584Y32024140D01*
X14159849Y31909849D01*
X14274140Y31770584D01*
X14359069Y31611694D01*
X14411367Y31439294D01*
X14429025Y31260000D01*
X14411367Y31080706D01*
X14359069Y30908306D01*
X14359068Y30908304D01*
X14274141Y30749417D01*
X14159849Y30610151D01*
X14020583Y30495859D01*
X13861696Y30410932D01*
X13861694Y30410931D01*
X13689294Y30358633D01*
X13554931Y30345400D01*
X13465069Y30345400D01*
X13330706Y30358633D01*
X13158306Y30410931D01*
X13158304Y30410932D01*
X12999417Y30495859D01*
X12860151Y30610151D01*
X12745859Y30749417D01*
X12660932Y30908304D01*
X12660931Y30908306D01*
X12608633Y31080706D01*
X12590975Y31260000D01*
X12608633Y31439294D01*
X12660931Y31611694D01*
X12745860Y31770584D01*
X12860151Y31909849D01*
X12999416Y32024140D01*
X12999415Y32024140D01*
X12999417Y32024141D01*
X13158304Y32109068D01*
X13158306Y32109069D01*
X13330706Y32161367D01*
X13465069Y32174600D01*
X13554931Y32174600D01*
X13689294Y32161367D01*
X13689294Y32161367D01*
G37*
G36*
X36041294Y32161367D02*
X36213694Y32109069D01*
X36213696Y32109068D01*
X36372583Y32024141D01*
X36372585Y32024140D01*
X36372584Y32024140D01*
X36511849Y31909849D01*
X36626140Y31770584D01*
X36711069Y31611694D01*
X36763367Y31439294D01*
X36781025Y31260000D01*
X36763367Y31080706D01*
X36711069Y30908306D01*
X36711068Y30908304D01*
X36626141Y30749417D01*
X36511849Y30610151D01*
X36372583Y30495859D01*
X36213696Y30410932D01*
X36213694Y30410931D01*
X36041294Y30358633D01*
X35906931Y30345400D01*
X35817069Y30345400D01*
X35682706Y30358633D01*
X35510306Y30410931D01*
X35510304Y30410932D01*
X35351417Y30495859D01*
X35212151Y30610151D01*
X35097859Y30749417D01*
X35012932Y30908304D01*
X35012931Y30908306D01*
X34960633Y31080706D01*
X34942975Y31260000D01*
X34960633Y31439294D01*
X35012931Y31611694D01*
X35097860Y31770584D01*
X35212151Y31909849D01*
X35351416Y32024140D01*
X35351415Y32024140D01*
X35351417Y32024141D01*
X35510304Y32109068D01*
X35510306Y32109069D01*
X35682706Y32161367D01*
X35817069Y32174600D01*
X35906931Y32174600D01*
X36041294Y32161367D01*
X36041294Y32161367D01*
G37*
G36*
X11149294Y32161367D02*
X11321694Y32109069D01*
X11321696Y32109068D01*
X11480583Y32024141D01*
X11480585Y32024140D01*
X11480584Y32024140D01*
X11619849Y31909849D01*
X11734140Y31770584D01*
X11819069Y31611694D01*
X11871367Y31439294D01*
X11889025Y31260000D01*
X11871367Y31080706D01*
X11819069Y30908306D01*
X11819068Y30908304D01*
X11734141Y30749417D01*
X11619849Y30610151D01*
X11480583Y30495859D01*
X11321696Y30410932D01*
X11321694Y30410931D01*
X11149294Y30358633D01*
X11014931Y30345400D01*
X10925069Y30345400D01*
X10790706Y30358633D01*
X10618306Y30410931D01*
X10618304Y30410932D01*
X10459417Y30495859D01*
X10320151Y30610151D01*
X10205859Y30749417D01*
X10120932Y30908304D01*
X10120931Y30908306D01*
X10068633Y31080706D01*
X10050975Y31260000D01*
X10068633Y31439294D01*
X10120931Y31611694D01*
X10205860Y31770584D01*
X10320151Y31909849D01*
X10459416Y32024140D01*
X10459415Y32024140D01*
X10459417Y32024141D01*
X10618304Y32109068D01*
X10618306Y32109069D01*
X10790706Y32161367D01*
X10925069Y32174600D01*
X11014931Y32174600D01*
X11149294Y32161367D01*
X11149294Y32161367D01*
G37*
G36*
X8609294Y32161367D02*
X8781694Y32109069D01*
X8781696Y32109068D01*
X8940583Y32024141D01*
X8940585Y32024140D01*
X8940584Y32024140D01*
X9079849Y31909849D01*
X9194140Y31770584D01*
X9279069Y31611694D01*
X9331367Y31439294D01*
X9349025Y31260000D01*
X9331367Y31080706D01*
X9279069Y30908306D01*
X9279068Y30908304D01*
X9194141Y30749417D01*
X9079849Y30610151D01*
X8940583Y30495859D01*
X8781696Y30410932D01*
X8781694Y30410931D01*
X8609294Y30358633D01*
X8474931Y30345400D01*
X8385069Y30345400D01*
X8250706Y30358633D01*
X8078306Y30410931D01*
X8078304Y30410932D01*
X7919417Y30495859D01*
X7780151Y30610151D01*
X7665859Y30749417D01*
X7580932Y30908304D01*
X7580931Y30908306D01*
X7528633Y31080706D01*
X7510975Y31260000D01*
X7528633Y31439294D01*
X7580931Y31611694D01*
X7665860Y31770584D01*
X7780151Y31909849D01*
X7919416Y32024140D01*
X7919415Y32024140D01*
X7919417Y32024141D01*
X8078304Y32109068D01*
X8078306Y32109069D01*
X8250706Y32161367D01*
X8385069Y32174600D01*
X8474931Y32174600D01*
X8609294Y32161367D01*
X8609294Y32161367D01*
G37*
G36*
X6069294Y32161367D02*
X6241694Y32109069D01*
X6241696Y32109068D01*
X6400583Y32024141D01*
X6400585Y32024140D01*
X6400584Y32024140D01*
X6539849Y31909849D01*
X6654140Y31770584D01*
X6739069Y31611694D01*
X6791367Y31439294D01*
X6809025Y31260000D01*
X6791367Y31080706D01*
X6739069Y30908306D01*
X6739068Y30908304D01*
X6654141Y30749417D01*
X6539849Y30610151D01*
X6400583Y30495859D01*
X6241696Y30410932D01*
X6241694Y30410931D01*
X6069294Y30358633D01*
X5934931Y30345400D01*
X5845069Y30345400D01*
X5710706Y30358633D01*
X5538306Y30410931D01*
X5538304Y30410932D01*
X5379417Y30495859D01*
X5240151Y30610151D01*
X5125859Y30749417D01*
X5040932Y30908304D01*
X5040931Y30908306D01*
X4988633Y31080706D01*
X4970975Y31260000D01*
X4988633Y31439294D01*
X5040931Y31611694D01*
X5125860Y31770584D01*
X5240151Y31909849D01*
X5379416Y32024140D01*
X5379415Y32024140D01*
X5379417Y32024141D01*
X5538304Y32109068D01*
X5538306Y32109069D01*
X5710706Y32161367D01*
X5845069Y32174600D01*
X5934931Y32174600D01*
X6069294Y32161367D01*
X6069294Y32161367D01*
G37*
G36*
X30961294Y32161367D02*
X31133694Y32109069D01*
X31133696Y32109068D01*
X31292583Y32024141D01*
X31292585Y32024140D01*
X31292584Y32024140D01*
X31431849Y31909849D01*
X31546140Y31770584D01*
X31631069Y31611694D01*
X31683367Y31439294D01*
X31701025Y31260000D01*
X31683367Y31080706D01*
X31631069Y30908306D01*
X31631068Y30908304D01*
X31546141Y30749417D01*
X31431849Y30610151D01*
X31292583Y30495859D01*
X31133696Y30410932D01*
X31133694Y30410931D01*
X30961294Y30358633D01*
X30826931Y30345400D01*
X30737069Y30345400D01*
X30602706Y30358633D01*
X30430306Y30410931D01*
X30430304Y30410932D01*
X30271417Y30495859D01*
X30132151Y30610151D01*
X30017859Y30749417D01*
X29932932Y30908304D01*
X29932931Y30908306D01*
X29880633Y31080706D01*
X29862975Y31260000D01*
X29880633Y31439294D01*
X29932931Y31611694D01*
X30017860Y31770584D01*
X30132151Y31909849D01*
X30271416Y32024140D01*
X30271415Y32024140D01*
X30271417Y32024141D01*
X30430304Y32109068D01*
X30430306Y32109069D01*
X30602706Y32161367D01*
X30737069Y32174600D01*
X30826931Y32174600D01*
X30961294Y32161367D01*
X30961294Y32161367D01*
G37*
G36*
X6069294Y34701367D02*
X6241694Y34649069D01*
X6241696Y34649068D01*
X6400583Y34564141D01*
X6400585Y34564140D01*
X6400584Y34564140D01*
X6539849Y34449849D01*
X6654140Y34310584D01*
X6739069Y34151694D01*
X6791367Y33979294D01*
X6809025Y33800000D01*
X6791367Y33620706D01*
X6739069Y33448306D01*
X6739068Y33448304D01*
X6654141Y33289417D01*
X6539849Y33150151D01*
X6400583Y33035859D01*
X6241696Y32950932D01*
X6241694Y32950931D01*
X6069294Y32898633D01*
X5934931Y32885400D01*
X5845069Y32885400D01*
X5710706Y32898633D01*
X5538306Y32950931D01*
X5538304Y32950932D01*
X5379417Y33035859D01*
X5240151Y33150151D01*
X5125859Y33289417D01*
X5040932Y33448304D01*
X5040931Y33448306D01*
X4988633Y33620706D01*
X4970975Y33800000D01*
X4988633Y33979294D01*
X5040931Y34151694D01*
X5125860Y34310584D01*
X5240151Y34449849D01*
X5379416Y34564140D01*
X5379415Y34564140D01*
X5379417Y34564141D01*
X5538304Y34649068D01*
X5538306Y34649069D01*
X5710706Y34701367D01*
X5845069Y34714600D01*
X5934931Y34714600D01*
X6069294Y34701367D01*
X6069294Y34701367D01*
G37*
G36*
X39316600Y32885400D02*
X37487400Y32885400D01*
X37487400Y34714600D01*
X39316600Y34714600D01*
X39316600Y32885400D01*
X39316600Y32885400D01*
G37*
G36*
X36041294Y34701367D02*
X36213694Y34649069D01*
X36213696Y34649068D01*
X36372583Y34564141D01*
X36372585Y34564140D01*
X36372584Y34564140D01*
X36511849Y34449849D01*
X36626140Y34310584D01*
X36711069Y34151694D01*
X36763367Y33979294D01*
X36781025Y33800000D01*
X36763367Y33620706D01*
X36711069Y33448306D01*
X36711068Y33448304D01*
X36626141Y33289417D01*
X36511849Y33150151D01*
X36372583Y33035859D01*
X36213696Y32950932D01*
X36213694Y32950931D01*
X36041294Y32898633D01*
X35906931Y32885400D01*
X35817069Y32885400D01*
X35682706Y32898633D01*
X35510306Y32950931D01*
X35510304Y32950932D01*
X35351417Y33035859D01*
X35212151Y33150151D01*
X35097859Y33289417D01*
X35012932Y33448304D01*
X35012931Y33448306D01*
X34960633Y33620706D01*
X34942975Y33800000D01*
X34960633Y33979294D01*
X35012931Y34151694D01*
X35097860Y34310584D01*
X35212151Y34449849D01*
X35351416Y34564140D01*
X35351415Y34564140D01*
X35351417Y34564141D01*
X35510304Y34649068D01*
X35510306Y34649069D01*
X35682706Y34701367D01*
X35817069Y34714600D01*
X35906931Y34714600D01*
X36041294Y34701367D01*
X36041294Y34701367D01*
G37*
G36*
X33501294Y34701367D02*
X33673694Y34649069D01*
X33673696Y34649068D01*
X33832583Y34564141D01*
X33832585Y34564140D01*
X33832584Y34564140D01*
X33971849Y34449849D01*
X34086140Y34310584D01*
X34171069Y34151694D01*
X34223367Y33979294D01*
X34241025Y33800000D01*
X34223367Y33620706D01*
X34171069Y33448306D01*
X34171068Y33448304D01*
X34086141Y33289417D01*
X33971849Y33150151D01*
X33832583Y33035859D01*
X33673696Y32950932D01*
X33673694Y32950931D01*
X33501294Y32898633D01*
X33366931Y32885400D01*
X33277069Y32885400D01*
X33142706Y32898633D01*
X32970306Y32950931D01*
X32970304Y32950932D01*
X32811417Y33035859D01*
X32672151Y33150151D01*
X32557859Y33289417D01*
X32472932Y33448304D01*
X32472931Y33448306D01*
X32420633Y33620706D01*
X32402975Y33800000D01*
X32420633Y33979294D01*
X32472931Y34151694D01*
X32557860Y34310584D01*
X32672151Y34449849D01*
X32811416Y34564140D01*
X32811415Y34564140D01*
X32811417Y34564141D01*
X32970304Y34649068D01*
X32970306Y34649069D01*
X33142706Y34701367D01*
X33277069Y34714600D01*
X33366931Y34714600D01*
X33501294Y34701367D01*
X33501294Y34701367D01*
G37*
G36*
X30961294Y34701367D02*
X31133694Y34649069D01*
X31133696Y34649068D01*
X31292583Y34564141D01*
X31292585Y34564140D01*
X31292584Y34564140D01*
X31431849Y34449849D01*
X31546140Y34310584D01*
X31631069Y34151694D01*
X31683367Y33979294D01*
X31701025Y33800000D01*
X31683367Y33620706D01*
X31631069Y33448306D01*
X31631068Y33448304D01*
X31546141Y33289417D01*
X31431849Y33150151D01*
X31292583Y33035859D01*
X31133696Y32950932D01*
X31133694Y32950931D01*
X30961294Y32898633D01*
X30826931Y32885400D01*
X30737069Y32885400D01*
X30602706Y32898633D01*
X30430306Y32950931D01*
X30430304Y32950932D01*
X30271417Y33035859D01*
X30132151Y33150151D01*
X30017859Y33289417D01*
X29932932Y33448304D01*
X29932931Y33448306D01*
X29880633Y33620706D01*
X29862975Y33800000D01*
X29880633Y33979294D01*
X29932931Y34151694D01*
X30017860Y34310584D01*
X30132151Y34449849D01*
X30271416Y34564140D01*
X30271415Y34564140D01*
X30271417Y34564141D01*
X30430304Y34649068D01*
X30430306Y34649069D01*
X30602706Y34701367D01*
X30737069Y34714600D01*
X30826931Y34714600D01*
X30961294Y34701367D01*
X30961294Y34701367D01*
G37*
G36*
X28421294Y34701367D02*
X28593694Y34649069D01*
X28593696Y34649068D01*
X28752583Y34564141D01*
X28752585Y34564140D01*
X28752584Y34564140D01*
X28891849Y34449849D01*
X29006140Y34310584D01*
X29091069Y34151694D01*
X29143367Y33979294D01*
X29161025Y33800000D01*
X29143367Y33620706D01*
X29091069Y33448306D01*
X29091068Y33448304D01*
X29006141Y33289417D01*
X28891849Y33150151D01*
X28752583Y33035859D01*
X28593696Y32950932D01*
X28593694Y32950931D01*
X28421294Y32898633D01*
X28286931Y32885400D01*
X28197069Y32885400D01*
X28062706Y32898633D01*
X27890306Y32950931D01*
X27890304Y32950932D01*
X27731417Y33035859D01*
X27592151Y33150151D01*
X27477859Y33289417D01*
X27392932Y33448304D01*
X27392931Y33448306D01*
X27340633Y33620706D01*
X27322975Y33800000D01*
X27340633Y33979294D01*
X27392931Y34151694D01*
X27477860Y34310584D01*
X27592151Y34449849D01*
X27731416Y34564140D01*
X27731415Y34564140D01*
X27731417Y34564141D01*
X27890304Y34649068D01*
X27890306Y34649069D01*
X28062706Y34701367D01*
X28197069Y34714600D01*
X28286931Y34714600D01*
X28421294Y34701367D01*
X28421294Y34701367D01*
G37*
G36*
X16964600Y32885400D02*
X15135400Y32885400D01*
X15135400Y34714600D01*
X16964600Y34714600D01*
X16964600Y32885400D01*
X16964600Y32885400D01*
G37*
G36*
X13689294Y34701367D02*
X13861694Y34649069D01*
X13861696Y34649068D01*
X14020583Y34564141D01*
X14020585Y34564140D01*
X14020584Y34564140D01*
X14159849Y34449849D01*
X14274140Y34310584D01*
X14359069Y34151694D01*
X14411367Y33979294D01*
X14429025Y33800000D01*
X14411367Y33620706D01*
X14359069Y33448306D01*
X14359068Y33448304D01*
X14274141Y33289417D01*
X14159849Y33150151D01*
X14020583Y33035859D01*
X13861696Y32950932D01*
X13861694Y32950931D01*
X13689294Y32898633D01*
X13554931Y32885400D01*
X13465069Y32885400D01*
X13330706Y32898633D01*
X13158306Y32950931D01*
X13158304Y32950932D01*
X12999417Y33035859D01*
X12860151Y33150151D01*
X12745859Y33289417D01*
X12660932Y33448304D01*
X12660931Y33448306D01*
X12608633Y33620706D01*
X12590975Y33800000D01*
X12608633Y33979294D01*
X12660931Y34151694D01*
X12745860Y34310584D01*
X12860151Y34449849D01*
X12999416Y34564140D01*
X12999415Y34564140D01*
X12999417Y34564141D01*
X13158304Y34649068D01*
X13158306Y34649069D01*
X13330706Y34701367D01*
X13465069Y34714600D01*
X13554931Y34714600D01*
X13689294Y34701367D01*
X13689294Y34701367D01*
G37*
G36*
X11149294Y34701367D02*
X11321694Y34649069D01*
X11321696Y34649068D01*
X11480583Y34564141D01*
X11480585Y34564140D01*
X11480584Y34564140D01*
X11619849Y34449849D01*
X11734140Y34310584D01*
X11819069Y34151694D01*
X11871367Y33979294D01*
X11889025Y33800000D01*
X11871367Y33620706D01*
X11819069Y33448306D01*
X11819068Y33448304D01*
X11734141Y33289417D01*
X11619849Y33150151D01*
X11480583Y33035859D01*
X11321696Y32950932D01*
X11321694Y32950931D01*
X11149294Y32898633D01*
X11014931Y32885400D01*
X10925069Y32885400D01*
X10790706Y32898633D01*
X10618306Y32950931D01*
X10618304Y32950932D01*
X10459417Y33035859D01*
X10320151Y33150151D01*
X10205859Y33289417D01*
X10120932Y33448304D01*
X10120931Y33448306D01*
X10068633Y33620706D01*
X10050975Y33800000D01*
X10068633Y33979294D01*
X10120931Y34151694D01*
X10205860Y34310584D01*
X10320151Y34449849D01*
X10459416Y34564140D01*
X10459415Y34564140D01*
X10459417Y34564141D01*
X10618304Y34649068D01*
X10618306Y34649069D01*
X10790706Y34701367D01*
X10925069Y34714600D01*
X11014931Y34714600D01*
X11149294Y34701367D01*
X11149294Y34701367D01*
G37*
G36*
X8609294Y34701367D02*
X8781694Y34649069D01*
X8781696Y34649068D01*
X8940583Y34564141D01*
X8940585Y34564140D01*
X8940584Y34564140D01*
X9079849Y34449849D01*
X9194140Y34310584D01*
X9279069Y34151694D01*
X9331367Y33979294D01*
X9349025Y33800000D01*
X9331367Y33620706D01*
X9279069Y33448306D01*
X9279068Y33448304D01*
X9194141Y33289417D01*
X9079849Y33150151D01*
X8940583Y33035859D01*
X8781696Y32950932D01*
X8781694Y32950931D01*
X8609294Y32898633D01*
X8474931Y32885400D01*
X8385069Y32885400D01*
X8250706Y32898633D01*
X8078306Y32950931D01*
X8078304Y32950932D01*
X7919417Y33035859D01*
X7780151Y33150151D01*
X7665859Y33289417D01*
X7580932Y33448304D01*
X7580931Y33448306D01*
X7528633Y33620706D01*
X7510975Y33800000D01*
X7528633Y33979294D01*
X7580931Y34151694D01*
X7665860Y34310584D01*
X7780151Y34449849D01*
X7919416Y34564140D01*
X7919415Y34564140D01*
X7919417Y34564141D01*
X8078304Y34649068D01*
X8078306Y34649069D01*
X8250706Y34701367D01*
X8385069Y34714600D01*
X8474931Y34714600D01*
X8609294Y34701367D01*
X8609294Y34701367D01*
G37*
M02*
