M48
;DRILL file {KiCad 5.0.2-bee76a0~70~ubuntu18.04.1} date Tue 15 Jan 2019 04:16:53 PM PST
;FORMAT={-:-/ absolute / metric / decimal}
FMAT,2
METRIC,TZ
T1C0.750
T2C0.800
T3C1.000
T4C1.016
T5C3.200
%
G90
G05
T1
X81.788Y21.844
X81.788Y20.574
X81.788Y19.304
T2
X74.168Y26.416
X81.788Y26.416
X64.77Y38.862
X64.77Y31.242
X49.784Y32.004
X49.784Y24.384
T3
X74.168Y38.862
X74.168Y31.262
X13.434Y29.522
X13.434Y26.982
X13.434Y24.442
X13.434Y21.902
X13.434Y19.362
X13.434Y16.822
X13.434Y14.282
X101.429Y8.893
X103.969Y8.893
X106.509Y8.893
X109.049Y8.893
X111.589Y8.893
X20.611Y24.77
X23.151Y24.77
X25.691Y24.77
X28.231Y24.77
X30.771Y24.77
X33.311Y24.77
X35.851Y24.77
T4
X67.247Y6.35
X67.247Y3.81
X69.787Y6.35
X69.787Y3.81
X72.327Y6.35
X72.327Y3.81
X74.867Y6.35
X74.867Y3.81
X77.407Y6.35
X77.407Y3.81
X41.607Y6.223
X41.607Y3.683
X44.147Y6.223
X44.147Y3.683
X46.687Y6.223
X46.687Y3.683
X49.227Y6.223
X49.227Y3.683
X51.767Y6.223
X51.767Y3.683
T5
X5.334Y3.302
X88.534Y39.302
X124.534Y3.302
X88.534Y3.302
X124.534Y39.302
X5.334Y39.302
T0
M30
