G04 #@! TF.GenerationSoftware,KiCad,Pcbnew,5.1.5-52549c5~84~ubuntu18.04.1*
G04 #@! TF.CreationDate,2020-03-25T13:03:39-07:00*
G04 #@! TF.ProjectId,Marlin_UIBOX,4d61726c-696e-45f5-9549-424f582e6b69,rev?*
G04 #@! TF.SameCoordinates,PX55c0260PY70276d0*
G04 #@! TF.FileFunction,Legend,Bot*
G04 #@! TF.FilePolarity,Positive*
%FSLAX46Y46*%
G04 Gerber Fmt 4.6, Leading zero omitted, Abs format (unit mm)*
G04 Created by KiCad (PCBNEW 5.1.5-52549c5~84~ubuntu18.04.1) date 2020-03-25 13:03:39*
%MOMM*%
%LPD*%
G04 APERTURE LIST*
%ADD10C,0.300000*%
%ADD11C,0.150000*%
%ADD12C,0.120000*%
G04 APERTURE END LIST*
D10*
X26977657Y33662229D02*
X26977657Y35162229D01*
X26477657Y34090800D01*
X25977657Y35162229D01*
X25977657Y33662229D01*
X24620514Y33662229D02*
X24620514Y34447943D01*
X24691942Y34590800D01*
X24834800Y34662229D01*
X25120514Y34662229D01*
X25263371Y34590800D01*
X24620514Y33733658D02*
X24763371Y33662229D01*
X25120514Y33662229D01*
X25263371Y33733658D01*
X25334800Y33876515D01*
X25334800Y34019372D01*
X25263371Y34162229D01*
X25120514Y34233658D01*
X24763371Y34233658D01*
X24620514Y34305086D01*
X23906228Y33662229D02*
X23906228Y34662229D01*
X23906228Y34376515D02*
X23834800Y34519372D01*
X23763371Y34590800D01*
X23620514Y34662229D01*
X23477657Y34662229D01*
X22763371Y33662229D02*
X22906228Y33733658D01*
X22977657Y33876515D01*
X22977657Y35162229D01*
X22191942Y33662229D02*
X22191942Y34662229D01*
X22191942Y35162229D02*
X22263371Y35090800D01*
X22191942Y35019372D01*
X22120514Y35090800D01*
X22191942Y35162229D01*
X22191942Y35019372D01*
X21477657Y34662229D02*
X21477657Y33662229D01*
X21477657Y34519372D02*
X21406228Y34590800D01*
X21263371Y34662229D01*
X21049085Y34662229D01*
X20906228Y34590800D01*
X20834800Y34447943D01*
X20834800Y33662229D01*
X20477657Y33519372D02*
X19334800Y33519372D01*
X18977657Y35162229D02*
X18977657Y33947943D01*
X18906228Y33805086D01*
X18834800Y33733658D01*
X18691942Y33662229D01*
X18406228Y33662229D01*
X18263371Y33733658D01*
X18191942Y33805086D01*
X18120514Y33947943D01*
X18120514Y35162229D01*
X17406228Y33662229D02*
X17406228Y35162229D01*
X16191942Y34447943D02*
X15977657Y34376515D01*
X15906228Y34305086D01*
X15834800Y34162229D01*
X15834800Y33947943D01*
X15906228Y33805086D01*
X15977657Y33733658D01*
X16120514Y33662229D01*
X16691942Y33662229D01*
X16691942Y35162229D01*
X16191942Y35162229D01*
X16049085Y35090800D01*
X15977657Y35019372D01*
X15906228Y34876515D01*
X15906228Y34733658D01*
X15977657Y34590800D01*
X16049085Y34519372D01*
X16191942Y34447943D01*
X16691942Y34447943D01*
X14906228Y35162229D02*
X14620514Y35162229D01*
X14477657Y35090800D01*
X14334800Y34947943D01*
X14263371Y34662229D01*
X14263371Y34162229D01*
X14334800Y33876515D01*
X14477657Y33733658D01*
X14620514Y33662229D01*
X14906228Y33662229D01*
X15049085Y33733658D01*
X15191942Y33876515D01*
X15263371Y34162229D01*
X15263371Y34662229D01*
X15191942Y34947943D01*
X15049085Y35090800D01*
X14906228Y35162229D01*
X13763371Y35162229D02*
X12763371Y33662229D01*
X12763371Y35162229D02*
X13763371Y33662229D01*
X11191942Y34662229D02*
X10834800Y33662229D01*
X10477657Y34662229D01*
X9263371Y34662229D02*
X9263371Y33662229D01*
X9620514Y35233658D02*
X9977657Y34162229D01*
X9049085Y34162229D01*
D11*
X31189561Y9717405D02*
X31237180Y9574548D01*
X31237180Y9336453D01*
X31189561Y9241215D01*
X31141942Y9193596D01*
X31046704Y9145977D01*
X30951466Y9145977D01*
X30856228Y9193596D01*
X30808609Y9241215D01*
X30760990Y9336453D01*
X30713371Y9526929D01*
X30665752Y9622167D01*
X30618133Y9669786D01*
X30522895Y9717405D01*
X30427657Y9717405D01*
X30332419Y9669786D01*
X30284800Y9622167D01*
X30237180Y9526929D01*
X30237180Y9288834D01*
X30284800Y9145977D01*
X31141942Y8145977D02*
X31189561Y8193596D01*
X31237180Y8336453D01*
X31237180Y8431691D01*
X31189561Y8574548D01*
X31094323Y8669786D01*
X30999085Y8717405D01*
X30808609Y8765024D01*
X30665752Y8765024D01*
X30475276Y8717405D01*
X30380038Y8669786D01*
X30284800Y8574548D01*
X30237180Y8431691D01*
X30237180Y8336453D01*
X30284800Y8193596D01*
X30332419Y8145977D01*
X31237180Y7717405D02*
X30237180Y7717405D01*
X31237180Y7145977D02*
X30665752Y7574548D01*
X30237180Y7145977D02*
X30808609Y7717405D01*
X26157180Y10336453D02*
X25157180Y10336453D01*
X25871466Y10003120D01*
X25157180Y9669786D01*
X26157180Y9669786D01*
X26157180Y9193596D02*
X25157180Y9193596D01*
X26109561Y8765024D02*
X26157180Y8622167D01*
X26157180Y8384072D01*
X26109561Y8288834D01*
X26061942Y8241215D01*
X25966704Y8193596D01*
X25871466Y8193596D01*
X25776228Y8241215D01*
X25728609Y8288834D01*
X25680990Y8384072D01*
X25633371Y8574548D01*
X25585752Y8669786D01*
X25538133Y8717405D01*
X25442895Y8765024D01*
X25347657Y8765024D01*
X25252419Y8717405D01*
X25204800Y8669786D01*
X25157180Y8574548D01*
X25157180Y8336453D01*
X25204800Y8193596D01*
X25157180Y7574548D02*
X25157180Y7384072D01*
X25204800Y7288834D01*
X25300038Y7193596D01*
X25490514Y7145977D01*
X25823847Y7145977D01*
X26014323Y7193596D01*
X26109561Y7288834D01*
X26157180Y7384072D01*
X26157180Y7574548D01*
X26109561Y7669786D01*
X26014323Y7765024D01*
X25823847Y7812643D01*
X25490514Y7812643D01*
X25300038Y7765024D01*
X25204800Y7669786D01*
X25157180Y7574548D01*
X22667980Y9717405D02*
X23667980Y9384072D01*
X22667980Y9050739D01*
X23572742Y8145977D02*
X23620361Y8193596D01*
X23667980Y8336453D01*
X23667980Y8431691D01*
X23620361Y8574548D01*
X23525123Y8669786D01*
X23429885Y8717405D01*
X23239409Y8765024D01*
X23096552Y8765024D01*
X22906076Y8717405D01*
X22810838Y8669786D01*
X22715600Y8574548D01*
X22667980Y8431691D01*
X22667980Y8336453D01*
X22715600Y8193596D01*
X22763219Y8145977D01*
X23572742Y7145977D02*
X23620361Y7193596D01*
X23667980Y7336453D01*
X23667980Y7431691D01*
X23620361Y7574548D01*
X23525123Y7669786D01*
X23429885Y7717405D01*
X23239409Y7765024D01*
X23096552Y7765024D01*
X22906076Y7717405D01*
X22810838Y7669786D01*
X22715600Y7574548D01*
X22667980Y7431691D01*
X22667980Y7336453D01*
X22715600Y7193596D01*
X22763219Y7145977D01*
X20124800Y9241215D02*
X20077180Y9336453D01*
X20077180Y9479310D01*
X20124800Y9622167D01*
X20220038Y9717405D01*
X20315276Y9765024D01*
X20505752Y9812643D01*
X20648609Y9812643D01*
X20839085Y9765024D01*
X20934323Y9717405D01*
X21029561Y9622167D01*
X21077180Y9479310D01*
X21077180Y9384072D01*
X21029561Y9241215D01*
X20981942Y9193596D01*
X20648609Y9193596D01*
X20648609Y9384072D01*
X21077180Y8765024D02*
X20077180Y8765024D01*
X21077180Y8193596D01*
X20077180Y8193596D01*
X21077180Y7717405D02*
X20077180Y7717405D01*
X20077180Y7479310D01*
X20124800Y7336453D01*
X20220038Y7241215D01*
X20315276Y7193596D01*
X20505752Y7145977D01*
X20648609Y7145977D01*
X20839085Y7193596D01*
X20934323Y7241215D01*
X21029561Y7336453D01*
X21077180Y7479310D01*
X21077180Y7717405D01*
X33729561Y11384072D02*
X33777180Y11241215D01*
X33777180Y11003120D01*
X33729561Y10907881D01*
X33681942Y10860262D01*
X33586704Y10812643D01*
X33491466Y10812643D01*
X33396228Y10860262D01*
X33348609Y10907881D01*
X33300990Y11003120D01*
X33253371Y11193596D01*
X33205752Y11288834D01*
X33158133Y11336453D01*
X33062895Y11384072D01*
X32967657Y11384072D01*
X32872419Y11336453D01*
X32824800Y11288834D01*
X32777180Y11193596D01*
X32777180Y10955500D01*
X32824800Y10812643D01*
X33777180Y10384072D02*
X32777180Y10384072D01*
X32777180Y10145977D01*
X32824800Y10003120D01*
X32920038Y9907881D01*
X33015276Y9860262D01*
X33205752Y9812643D01*
X33348609Y9812643D01*
X33539085Y9860262D01*
X33634323Y9907881D01*
X33729561Y10003120D01*
X33777180Y10145977D01*
X33777180Y10384072D01*
X33872419Y9622167D02*
X33872419Y8860262D01*
X33729561Y8669786D02*
X33777180Y8526929D01*
X33777180Y8288834D01*
X33729561Y8193596D01*
X33681942Y8145977D01*
X33586704Y8098358D01*
X33491466Y8098358D01*
X33396228Y8145977D01*
X33348609Y8193596D01*
X33300990Y8288834D01*
X33253371Y8479310D01*
X33205752Y8574548D01*
X33158133Y8622167D01*
X33062895Y8669786D01*
X32967657Y8669786D01*
X32872419Y8622167D01*
X32824800Y8574548D01*
X32777180Y8479310D01*
X32777180Y8241215D01*
X32824800Y8098358D01*
X33729561Y7717405D02*
X33777180Y7574548D01*
X33777180Y7336453D01*
X33729561Y7241215D01*
X33681942Y7193596D01*
X33586704Y7145977D01*
X33491466Y7145977D01*
X33396228Y7193596D01*
X33348609Y7241215D01*
X33300990Y7336453D01*
X33253371Y7526929D01*
X33205752Y7622167D01*
X33158133Y7669786D01*
X33062895Y7717405D01*
X32967657Y7717405D01*
X32872419Y7669786D01*
X32824800Y7622167D01*
X32777180Y7526929D01*
X32777180Y7288834D01*
X32824800Y7145977D01*
X28697180Y10336453D02*
X27697180Y10336453D01*
X28411466Y10003120D01*
X27697180Y9669786D01*
X28697180Y9669786D01*
X27697180Y9003120D02*
X27697180Y8812643D01*
X27744800Y8717405D01*
X27840038Y8622167D01*
X28030514Y8574548D01*
X28363847Y8574548D01*
X28554323Y8622167D01*
X28649561Y8717405D01*
X28697180Y8812643D01*
X28697180Y9003120D01*
X28649561Y9098358D01*
X28554323Y9193596D01*
X28363847Y9241215D01*
X28030514Y9241215D01*
X27840038Y9193596D01*
X27744800Y9098358D01*
X27697180Y9003120D01*
X28649561Y8193596D02*
X28697180Y8050739D01*
X28697180Y7812643D01*
X28649561Y7717405D01*
X28601942Y7669786D01*
X28506704Y7622167D01*
X28411466Y7622167D01*
X28316228Y7669786D01*
X28268609Y7717405D01*
X28220990Y7812643D01*
X28173371Y8003120D01*
X28125752Y8098358D01*
X28078133Y8145977D01*
X27982895Y8193596D01*
X27887657Y8193596D01*
X27792419Y8145977D01*
X27744800Y8098358D01*
X27697180Y8003120D01*
X27697180Y7765024D01*
X27744800Y7622167D01*
X28697180Y7193596D02*
X27697180Y7193596D01*
X36269561Y12145977D02*
X36317180Y12003120D01*
X36317180Y11765024D01*
X36269561Y11669786D01*
X36221942Y11622167D01*
X36126704Y11574548D01*
X36031466Y11574548D01*
X35936228Y11622167D01*
X35888609Y11669786D01*
X35840990Y11765024D01*
X35793371Y11955500D01*
X35745752Y12050739D01*
X35698133Y12098358D01*
X35602895Y12145977D01*
X35507657Y12145977D01*
X35412419Y12098358D01*
X35364800Y12050739D01*
X35317180Y11955500D01*
X35317180Y11717405D01*
X35364800Y11574548D01*
X36317180Y11145977D02*
X35317180Y11145977D01*
X35317180Y10907881D01*
X35364800Y10765024D01*
X35460038Y10669786D01*
X35555276Y10622167D01*
X35745752Y10574548D01*
X35888609Y10574548D01*
X36079085Y10622167D01*
X36174323Y10669786D01*
X36269561Y10765024D01*
X36317180Y10907881D01*
X36317180Y11145977D01*
X36412419Y10384072D02*
X36412419Y9622167D01*
X36317180Y9384072D02*
X35317180Y9384072D01*
X35317180Y9145977D01*
X35364800Y9003120D01*
X35460038Y8907881D01*
X35555276Y8860262D01*
X35745752Y8812643D01*
X35888609Y8812643D01*
X36079085Y8860262D01*
X36174323Y8907881D01*
X36269561Y9003120D01*
X36317180Y9145977D01*
X36317180Y9384072D01*
X35793371Y8384072D02*
X35793371Y8050739D01*
X36317180Y7907881D02*
X36317180Y8384072D01*
X35317180Y8384072D01*
X35317180Y7907881D01*
X35317180Y7622167D02*
X35317180Y7050739D01*
X36317180Y7336453D02*
X35317180Y7336453D01*
X10282213Y26535120D02*
X10758404Y26535120D01*
X10758404Y27535120D01*
X9377451Y26630358D02*
X9425071Y26582739D01*
X9567928Y26535120D01*
X9663166Y26535120D01*
X9806023Y26582739D01*
X9901261Y26677977D01*
X9948880Y26773215D01*
X9996499Y26963691D01*
X9996499Y27106548D01*
X9948880Y27297024D01*
X9901261Y27392262D01*
X9806023Y27487500D01*
X9663166Y27535120D01*
X9567928Y27535120D01*
X9425071Y27487500D01*
X9377451Y27439881D01*
X8948880Y26535120D02*
X8948880Y27535120D01*
X8710785Y27535120D01*
X8567928Y27487500D01*
X8472690Y27392262D01*
X8425071Y27297024D01*
X8377451Y27106548D01*
X8377451Y26963691D01*
X8425071Y26773215D01*
X8472690Y26677977D01*
X8567928Y26582739D01*
X8710785Y26535120D01*
X8948880Y26535120D01*
X8186975Y26439881D02*
X7425071Y26439881D01*
X7186975Y26535120D02*
X7186975Y27535120D01*
X6948880Y27535120D01*
X6806023Y27487500D01*
X6710785Y27392262D01*
X6663166Y27297024D01*
X6615547Y27106548D01*
X6615547Y26963691D01*
X6663166Y26773215D01*
X6710785Y26677977D01*
X6806023Y26582739D01*
X6948880Y26535120D01*
X7186975Y26535120D01*
X5615547Y26630358D02*
X5663166Y26582739D01*
X5806023Y26535120D01*
X5901261Y26535120D01*
X6044118Y26582739D01*
X6139356Y26677977D01*
X6186975Y26773215D01*
X6234594Y26963691D01*
X6234594Y27106548D01*
X6186975Y27297024D01*
X6139356Y27392262D01*
X6044118Y27487500D01*
X5901261Y27535120D01*
X5806023Y27535120D01*
X5663166Y27487500D01*
X5615547Y27439881D01*
X10282214Y23995120D02*
X10758405Y23995120D01*
X10758405Y24995120D01*
X9377452Y24090358D02*
X9425071Y24042739D01*
X9567929Y23995120D01*
X9663167Y23995120D01*
X9806024Y24042739D01*
X9901262Y24137977D01*
X9948881Y24233215D01*
X9996500Y24423691D01*
X9996500Y24566548D01*
X9948881Y24757024D01*
X9901262Y24852262D01*
X9806024Y24947500D01*
X9663167Y24995120D01*
X9567929Y24995120D01*
X9425071Y24947500D01*
X9377452Y24899881D01*
X8948881Y23995120D02*
X8948881Y24995120D01*
X8710786Y24995120D01*
X8567929Y24947500D01*
X8472690Y24852262D01*
X8425071Y24757024D01*
X8377452Y24566548D01*
X8377452Y24423691D01*
X8425071Y24233215D01*
X8472690Y24137977D01*
X8567929Y24042739D01*
X8710786Y23995120D01*
X8948881Y23995120D01*
X8186976Y23899881D02*
X7425071Y23899881D01*
X6615548Y23995120D02*
X6948881Y24471310D01*
X7186976Y23995120D02*
X7186976Y24995120D01*
X6806024Y24995120D01*
X6710786Y24947500D01*
X6663167Y24899881D01*
X6615548Y24804643D01*
X6615548Y24661786D01*
X6663167Y24566548D01*
X6710786Y24518929D01*
X6806024Y24471310D01*
X7186976Y24471310D01*
X6186976Y24518929D02*
X5853643Y24518929D01*
X5710786Y23995120D02*
X6186976Y23995120D01*
X6186976Y24995120D01*
X5710786Y24995120D01*
X5329833Y24042739D02*
X5186976Y23995120D01*
X4948881Y23995120D01*
X4853643Y24042739D01*
X4806024Y24090358D01*
X4758405Y24185596D01*
X4758405Y24280834D01*
X4806024Y24376072D01*
X4853643Y24423691D01*
X4948881Y24471310D01*
X5139357Y24518929D01*
X5234595Y24566548D01*
X5282214Y24614167D01*
X5329833Y24709405D01*
X5329833Y24804643D01*
X5282214Y24899881D01*
X5234595Y24947500D01*
X5139357Y24995120D01*
X4901262Y24995120D01*
X4758405Y24947500D01*
X10282213Y29075120D02*
X10758404Y29075120D01*
X10758404Y30075120D01*
X9377451Y29170358D02*
X9425070Y29122739D01*
X9567928Y29075120D01*
X9663166Y29075120D01*
X9806023Y29122739D01*
X9901261Y29217977D01*
X9948880Y29313215D01*
X9996499Y29503691D01*
X9996499Y29646548D01*
X9948880Y29837024D01*
X9901261Y29932262D01*
X9806023Y30027500D01*
X9663166Y30075120D01*
X9567928Y30075120D01*
X9425070Y30027500D01*
X9377451Y29979881D01*
X8948880Y29075120D02*
X8948880Y30075120D01*
X8710785Y30075120D01*
X8567928Y30027500D01*
X8472690Y29932262D01*
X8425070Y29837024D01*
X8377451Y29646548D01*
X8377451Y29503691D01*
X8425070Y29313215D01*
X8472690Y29217977D01*
X8567928Y29122739D01*
X8710785Y29075120D01*
X8948880Y29075120D01*
X8186975Y28979881D02*
X7425070Y28979881D01*
X6615547Y29170358D02*
X6663166Y29122739D01*
X6806023Y29075120D01*
X6901261Y29075120D01*
X7044118Y29122739D01*
X7139356Y29217977D01*
X7186975Y29313215D01*
X7234594Y29503691D01*
X7234594Y29646548D01*
X7186975Y29837024D01*
X7139356Y29932262D01*
X7044118Y30027500D01*
X6901261Y30075120D01*
X6806023Y30075120D01*
X6663166Y30027500D01*
X6615547Y29979881D01*
X6234594Y29122739D02*
X6091737Y29075120D01*
X5853642Y29075120D01*
X5758404Y29122739D01*
X5710785Y29170358D01*
X5663166Y29265596D01*
X5663166Y29360834D01*
X5710785Y29456072D01*
X5758404Y29503691D01*
X5853642Y29551310D01*
X6044118Y29598929D01*
X6139356Y29646548D01*
X6186975Y29694167D01*
X6234594Y29789405D01*
X6234594Y29884643D01*
X6186975Y29979881D01*
X6139356Y30027500D01*
X6044118Y30075120D01*
X5806023Y30075120D01*
X5663166Y30027500D01*
X10758404Y21391620D02*
X10758404Y22391620D01*
X10425071Y21677334D01*
X10091737Y22391620D01*
X10091737Y21391620D01*
X9425071Y22391620D02*
X9234594Y22391620D01*
X9139356Y22344000D01*
X9044118Y22248762D01*
X8996499Y22058286D01*
X8996499Y21724953D01*
X9044118Y21534477D01*
X9139356Y21439239D01*
X9234594Y21391620D01*
X9425071Y21391620D01*
X9520309Y21439239D01*
X9615547Y21534477D01*
X9663166Y21724953D01*
X9663166Y22058286D01*
X9615547Y22248762D01*
X9520309Y22344000D01*
X9425071Y22391620D01*
X8615547Y21439239D02*
X8472690Y21391620D01*
X8234594Y21391620D01*
X8139356Y21439239D01*
X8091737Y21486858D01*
X8044118Y21582096D01*
X8044118Y21677334D01*
X8091737Y21772572D01*
X8139356Y21820191D01*
X8234594Y21867810D01*
X8425071Y21915429D01*
X8520309Y21963048D01*
X8567928Y22010667D01*
X8615547Y22105905D01*
X8615547Y22201143D01*
X8567928Y22296381D01*
X8520309Y22344000D01*
X8425071Y22391620D01*
X8186975Y22391620D01*
X8044118Y22344000D01*
X7615547Y21391620D02*
X7615547Y22391620D01*
X10806023Y18962739D02*
X10663166Y18915120D01*
X10425071Y18915120D01*
X10329833Y18962739D01*
X10282214Y19010358D01*
X10234595Y19105596D01*
X10234595Y19200834D01*
X10282214Y19296072D01*
X10329833Y19343691D01*
X10425071Y19391310D01*
X10615547Y19438929D01*
X10710785Y19486548D01*
X10758404Y19534167D01*
X10806023Y19629405D01*
X10806023Y19724643D01*
X10758404Y19819881D01*
X10710785Y19867500D01*
X10615547Y19915120D01*
X10377452Y19915120D01*
X10234595Y19867500D01*
X9234595Y19010358D02*
X9282214Y18962739D01*
X9425071Y18915120D01*
X9520309Y18915120D01*
X9663166Y18962739D01*
X9758404Y19057977D01*
X9806023Y19153215D01*
X9853642Y19343691D01*
X9853642Y19486548D01*
X9806023Y19677024D01*
X9758404Y19772262D01*
X9663166Y19867500D01*
X9520309Y19915120D01*
X9425071Y19915120D01*
X9282214Y19867500D01*
X9234595Y19819881D01*
X8806023Y18915120D02*
X8806023Y19915120D01*
X8234595Y18915120D02*
X8663166Y19486548D01*
X8234595Y19915120D02*
X8806023Y19343691D01*
X10853642Y17375120D02*
X10234594Y17375120D01*
X10567928Y16994167D01*
X10425070Y16994167D01*
X10329832Y16946548D01*
X10282213Y16898929D01*
X10234594Y16803691D01*
X10234594Y16565596D01*
X10282213Y16470358D01*
X10329832Y16422739D01*
X10425070Y16375120D01*
X10710785Y16375120D01*
X10806023Y16422739D01*
X10853642Y16470358D01*
X9806023Y16375120D02*
X9806023Y17375120D01*
X9425070Y17375120D01*
X9329832Y17327500D01*
X9282213Y17279881D01*
X9234594Y17184643D01*
X9234594Y17041786D01*
X9282213Y16946548D01*
X9329832Y16898929D01*
X9425070Y16851310D01*
X9806023Y16851310D01*
X8901261Y17375120D02*
X8282213Y17375120D01*
X8615547Y16994167D01*
X8472690Y16994167D01*
X8377451Y16946548D01*
X8329832Y16898929D01*
X8282213Y16803691D01*
X8282213Y16565596D01*
X8329832Y16470358D01*
X8377451Y16422739D01*
X8472690Y16375120D01*
X8758404Y16375120D01*
X8853642Y16422739D01*
X8901261Y16470358D01*
X8091737Y16279881D02*
X7329832Y16279881D01*
X7234594Y17375120D02*
X6901261Y16375120D01*
X6567928Y17375120D01*
X5663166Y16470358D02*
X5710785Y16422739D01*
X5853642Y16375120D01*
X5948880Y16375120D01*
X6091737Y16422739D01*
X6186975Y16517977D01*
X6234594Y16613215D01*
X6282213Y16803691D01*
X6282213Y16946548D01*
X6234594Y17137024D01*
X6186975Y17232262D01*
X6091737Y17327500D01*
X5948880Y17375120D01*
X5853642Y17375120D01*
X5710785Y17327500D01*
X5663166Y17279881D01*
X4663166Y16470358D02*
X4710785Y16422739D01*
X4853642Y16375120D01*
X4948880Y16375120D01*
X5091737Y16422739D01*
X5186975Y16517977D01*
X5234594Y16613215D01*
X5282213Y16803691D01*
X5282213Y16946548D01*
X5234594Y17137024D01*
X5186975Y17232262D01*
X5091737Y17327500D01*
X4948880Y17375120D01*
X4853642Y17375120D01*
X4710785Y17327500D01*
X4663166Y17279881D01*
X10234595Y14851000D02*
X10329833Y14898620D01*
X10472690Y14898620D01*
X10615547Y14851000D01*
X10710785Y14755762D01*
X10758404Y14660524D01*
X10806023Y14470048D01*
X10806023Y14327191D01*
X10758404Y14136715D01*
X10710785Y14041477D01*
X10615547Y13946239D01*
X10472690Y13898620D01*
X10377452Y13898620D01*
X10234595Y13946239D01*
X10186976Y13993858D01*
X10186976Y14327191D01*
X10377452Y14327191D01*
X9758404Y13898620D02*
X9758404Y14898620D01*
X9186976Y13898620D01*
X9186976Y14898620D01*
X8710785Y13898620D02*
X8710785Y14898620D01*
X8472690Y14898620D01*
X8329833Y14851000D01*
X8234595Y14755762D01*
X8186976Y14660524D01*
X8139357Y14470048D01*
X8139357Y14327191D01*
X8186976Y14136715D01*
X8234595Y14041477D01*
X8329833Y13946239D01*
X8472690Y13898620D01*
X8710785Y13898620D01*
D12*
G04 #@! TO.C,J4*
X37181000Y6120000D02*
X37181000Y3460000D01*
X21881000Y6120000D02*
X37181000Y6120000D01*
X21881000Y3460000D02*
X37181000Y3460000D01*
X21881000Y6120000D02*
X21881000Y3460000D01*
X20611000Y6120000D02*
X19281000Y6120000D01*
X19281000Y6120000D02*
X19281000Y4790000D01*
G04 #@! TO.C,J1*
X38592000Y405000D02*
X59452000Y405000D01*
X59452000Y405000D02*
X59452000Y9755000D01*
X59452000Y9755000D02*
X38592000Y9755000D01*
X38592000Y9755000D02*
X38592000Y405000D01*
X38342000Y10005000D02*
X40882000Y10005000D01*
X38342000Y10005000D02*
X38342000Y7465000D01*
G04 #@! TO.C,J2*
X60694000Y10005000D02*
X60694000Y7465000D01*
X60694000Y10005000D02*
X63234000Y10005000D01*
X60944000Y9755000D02*
X60944000Y405000D01*
X81804000Y9755000D02*
X60944000Y9755000D01*
X81804000Y405000D02*
X81804000Y9755000D01*
X60944000Y405000D02*
X81804000Y405000D01*
G04 #@! TO.C,J4*
X37181000Y26100000D02*
X37181000Y23440000D01*
X21881000Y26100000D02*
X37181000Y26100000D01*
X21881000Y23440000D02*
X37181000Y23440000D01*
X21881000Y26100000D02*
X21881000Y23440000D01*
X20611000Y26100000D02*
X19281000Y26100000D01*
X19281000Y26100000D02*
X19281000Y24770000D01*
G04 #@! TO.C,D1*
X83924000Y26582000D02*
X81684000Y26582000D01*
X81684000Y26582000D02*
X81684000Y30822000D01*
X81684000Y30822000D02*
X83924000Y30822000D01*
X83924000Y30822000D02*
X83924000Y26582000D01*
X82804000Y25932000D02*
X82804000Y26582000D01*
X82804000Y31472000D02*
X82804000Y30822000D01*
X83924000Y27302000D02*
X81684000Y27302000D01*
X83924000Y27422000D02*
X81684000Y27422000D01*
X83924000Y27182000D02*
X81684000Y27182000D01*
G04 #@! TO.C,J5*
X102699000Y10223000D02*
X102699000Y7563000D01*
X102699000Y10223000D02*
X112919000Y10223000D01*
X112919000Y10223000D02*
X112919000Y7563000D01*
X102699000Y7563000D02*
X112919000Y7563000D01*
X100099000Y7563000D02*
X101429000Y7563000D01*
X100099000Y8893000D02*
X100099000Y7563000D01*
G04 #@! TO.C,LS1*
X75950000Y29220000D02*
G75*
G03X75950000Y29220000I-6100000J0D01*
G01*
G04 #@! TO.C,Q1*
X76890000Y18774000D02*
X76890000Y22374000D01*
X76901522Y18735522D02*
G75*
G03X81340000Y20574000I1838478J1838478D01*
G01*
X76901522Y22412478D02*
G75*
G02X81340000Y20574000I1838478J-1838478D01*
G01*
G04 #@! TO.C,R1*
X48414000Y31464000D02*
X48744000Y31464000D01*
X48414000Y24924000D02*
X48414000Y31464000D01*
X48744000Y24924000D02*
X48414000Y24924000D01*
X51154000Y31464000D02*
X50824000Y31464000D01*
X51154000Y24924000D02*
X51154000Y31464000D01*
X50824000Y24924000D02*
X51154000Y24924000D01*
G04 #@! TO.C,R2*
X77700000Y31972000D02*
X77370000Y31972000D01*
X77370000Y31972000D02*
X77370000Y25432000D01*
X77370000Y25432000D02*
X77700000Y25432000D01*
X79780000Y31972000D02*
X80110000Y31972000D01*
X80110000Y31972000D02*
X80110000Y25432000D01*
X80110000Y25432000D02*
X79780000Y25432000D01*
G04 #@! TO.C,R3*
X39300400Y17680000D02*
X39300400Y18010000D01*
X45840400Y17680000D02*
X39300400Y17680000D01*
X45840400Y18010000D02*
X45840400Y17680000D01*
X39300400Y20420000D02*
X39300400Y20090000D01*
X45840400Y20420000D02*
X39300400Y20420000D01*
X45840400Y20090000D02*
X45840400Y20420000D01*
G04 #@! TO.C,R4*
X48431200Y15010000D02*
X48431200Y15340000D01*
X48431200Y15340000D02*
X41891200Y15340000D01*
X41891200Y15340000D02*
X41891200Y15010000D01*
X48431200Y12930000D02*
X48431200Y12600000D01*
X48431200Y12600000D02*
X41891200Y12600000D01*
X41891200Y12600000D02*
X41891200Y12930000D01*
G04 #@! TO.C,R5*
X31324800Y12930000D02*
X31324800Y12600000D01*
X31324800Y12600000D02*
X37864800Y12600000D01*
X37864800Y12600000D02*
X37864800Y12930000D01*
X31324800Y15010000D02*
X31324800Y15340000D01*
X31324800Y15340000D02*
X37864800Y15340000D01*
X37864800Y15340000D02*
X37864800Y15010000D01*
G04 #@! TO.C,R6*
X35324800Y20420000D02*
X35324800Y20090000D01*
X28784800Y20420000D02*
X35324800Y20420000D01*
X28784800Y20090000D02*
X28784800Y20420000D01*
X35324800Y17680000D02*
X35324800Y18010000D01*
X28784800Y17680000D02*
X35324800Y17680000D01*
X28784800Y18010000D02*
X28784800Y17680000D01*
G04 #@! TO.C,U1*
X56156000Y16234800D02*
X52556000Y16234800D01*
X56194478Y16246322D02*
G75*
G03X54356000Y20684800I-1838478J1838478D01*
G01*
X52517522Y16246322D02*
G75*
G02X54356000Y20684800I1838478J1838478D01*
G01*
G04 #@! TO.C,C1*
X51956000Y13408800D02*
X56796000Y13408800D01*
X51956000Y15648800D02*
X56796000Y15648800D01*
X51956000Y13408800D02*
X51956000Y15648800D01*
X56796000Y13408800D02*
X56796000Y15648800D01*
G04 #@! TO.C,C2*
X56796000Y21181200D02*
X56796000Y23421200D01*
X51956000Y21181200D02*
X51956000Y23421200D01*
X51956000Y23421200D02*
X56796000Y23421200D01*
X51956000Y21181200D02*
X56796000Y21181200D01*
G04 #@! TO.C,J3*
D11*
X16657580Y26888439D02*
X16657580Y27459867D01*
X16657580Y27174153D02*
X15657580Y27174153D01*
X15800438Y27269391D01*
X15895676Y27364629D01*
X15943295Y27459867D01*
X15752819Y26507486D02*
X15705200Y26459867D01*
X15657580Y26364629D01*
X15657580Y26126534D01*
X15705200Y26031296D01*
X15752819Y25983677D01*
X15848057Y25936058D01*
X15943295Y25936058D01*
X16086152Y25983677D01*
X16657580Y26555105D01*
X16657580Y25936058D01*
X16086152Y25364629D02*
X16038533Y25459867D01*
X15990914Y25507486D01*
X15895676Y25555105D01*
X15848057Y25555105D01*
X15752819Y25507486D01*
X15705200Y25459867D01*
X15657580Y25364629D01*
X15657580Y25174153D01*
X15705200Y25078915D01*
X15752819Y25031296D01*
X15848057Y24983677D01*
X15895676Y24983677D01*
X15990914Y25031296D01*
X16038533Y25078915D01*
X16086152Y25174153D01*
X16086152Y25364629D01*
X16133771Y25459867D01*
X16181390Y25507486D01*
X16276628Y25555105D01*
X16467104Y25555105D01*
X16562342Y25507486D01*
X16609961Y25459867D01*
X16657580Y25364629D01*
X16657580Y25174153D01*
X16609961Y25078915D01*
X16562342Y25031296D01*
X16467104Y24983677D01*
X16276628Y24983677D01*
X16181390Y25031296D01*
X16133771Y25078915D01*
X16086152Y25174153D01*
X15657580Y24126534D02*
X15657580Y24317010D01*
X15705200Y24412248D01*
X15752819Y24459867D01*
X15895676Y24555105D01*
X16086152Y24602724D01*
X16467104Y24602724D01*
X16562342Y24555105D01*
X16609961Y24507486D01*
X16657580Y24412248D01*
X16657580Y24221772D01*
X16609961Y24126534D01*
X16562342Y24078915D01*
X16467104Y24031296D01*
X16229009Y24031296D01*
X16133771Y24078915D01*
X16086152Y24126534D01*
X16038533Y24221772D01*
X16038533Y24412248D01*
X16086152Y24507486D01*
X16133771Y24555105D01*
X16229009Y24602724D01*
X15990914Y23174153D02*
X16657580Y23174153D01*
X15609961Y23412248D02*
X16324247Y23650343D01*
X16324247Y23031296D01*
X15657580Y22459867D02*
X15657580Y22269391D01*
X15705200Y22174153D01*
X15800438Y22078915D01*
X15990914Y22031296D01*
X16324247Y22031296D01*
X16514723Y22078915D01*
X16609961Y22174153D01*
X16657580Y22269391D01*
X16657580Y22459867D01*
X16609961Y22555105D01*
X16514723Y22650343D01*
X16324247Y22697962D01*
X15990914Y22697962D01*
X15800438Y22650343D01*
X15705200Y22555105D01*
X15657580Y22459867D01*
X16657580Y21126534D02*
X16657580Y21602724D01*
X15657580Y21602724D01*
X16133771Y20793200D02*
X16133771Y20459867D01*
X16657580Y20317010D02*
X16657580Y20793200D01*
X15657580Y20793200D01*
X15657580Y20317010D01*
X16657580Y19888439D02*
X15657580Y19888439D01*
X15657580Y19650343D01*
X15705200Y19507486D01*
X15800438Y19412248D01*
X15895676Y19364629D01*
X16086152Y19317010D01*
X16229009Y19317010D01*
X16419485Y19364629D01*
X16514723Y19412248D01*
X16609961Y19507486D01*
X16657580Y19650343D01*
X16657580Y19888439D01*
X16752819Y19126534D02*
X16752819Y18364629D01*
X16609961Y18174153D02*
X16657580Y18031296D01*
X16657580Y17793200D01*
X16609961Y17697962D01*
X16562342Y17650343D01*
X16467104Y17602724D01*
X16371866Y17602724D01*
X16276628Y17650343D01*
X16229009Y17697962D01*
X16181390Y17793200D01*
X16133771Y17983677D01*
X16086152Y18078915D01*
X16038533Y18126534D01*
X15943295Y18174153D01*
X15848057Y18174153D01*
X15752819Y18126534D01*
X15705200Y18078915D01*
X15657580Y17983677D01*
X15657580Y17745581D01*
X15705200Y17602724D01*
X16657580Y17174153D02*
X15657580Y17174153D01*
X15657580Y16793200D01*
X15705200Y16697962D01*
X15752819Y16650343D01*
X15848057Y16602724D01*
X15990914Y16602724D01*
X16086152Y16650343D01*
X16133771Y16697962D01*
X16181390Y16793200D01*
X16181390Y17174153D01*
X16657580Y16174153D02*
X15657580Y16174153D01*
G04 #@! TO.C,J4*
X19891333Y2325620D02*
X19891333Y1611334D01*
X19938952Y1468477D01*
X20034190Y1373239D01*
X20177047Y1325620D01*
X20272285Y1325620D01*
X18986571Y1992286D02*
X18986571Y1325620D01*
X19224666Y2373239D02*
X19462761Y1658953D01*
X18843714Y1658953D01*
X31340038Y1373239D02*
X31197180Y1325620D01*
X30959085Y1325620D01*
X30863847Y1373239D01*
X30816228Y1420858D01*
X30768609Y1516096D01*
X30768609Y1611334D01*
X30816228Y1706572D01*
X30863847Y1754191D01*
X30959085Y1801810D01*
X31149561Y1849429D01*
X31244800Y1897048D01*
X31292419Y1944667D01*
X31340038Y2039905D01*
X31340038Y2135143D01*
X31292419Y2230381D01*
X31244800Y2278000D01*
X31149561Y2325620D01*
X30911466Y2325620D01*
X30768609Y2278000D01*
X30340038Y1325620D02*
X30340038Y2325620D01*
X30101942Y2325620D01*
X29959085Y2278000D01*
X29863847Y2182762D01*
X29816228Y2087524D01*
X29768609Y1897048D01*
X29768609Y1754191D01*
X29816228Y1563715D01*
X29863847Y1468477D01*
X29959085Y1373239D01*
X30101942Y1325620D01*
X30340038Y1325620D01*
X29578133Y1230381D02*
X28816228Y1230381D01*
X28006704Y1420858D02*
X28054323Y1373239D01*
X28197180Y1325620D01*
X28292419Y1325620D01*
X28435276Y1373239D01*
X28530514Y1468477D01*
X28578133Y1563715D01*
X28625752Y1754191D01*
X28625752Y1897048D01*
X28578133Y2087524D01*
X28530514Y2182762D01*
X28435276Y2278000D01*
X28292419Y2325620D01*
X28197180Y2325620D01*
X28054323Y2278000D01*
X28006704Y2230381D01*
X27625752Y1611334D02*
X27149561Y1611334D01*
X27720990Y1325620D02*
X27387657Y2325620D01*
X27054323Y1325620D01*
X26149561Y1325620D02*
X26482895Y1801810D01*
X26720990Y1325620D02*
X26720990Y2325620D01*
X26340038Y2325620D01*
X26244800Y2278000D01*
X26197180Y2230381D01*
X26149561Y2135143D01*
X26149561Y1992286D01*
X26197180Y1897048D01*
X26244800Y1849429D01*
X26340038Y1801810D01*
X26720990Y1801810D01*
X25720990Y1325620D02*
X25720990Y2325620D01*
X25482895Y2325620D01*
X25340038Y2278000D01*
X25244800Y2182762D01*
X25197180Y2087524D01*
X25149561Y1897048D01*
X25149561Y1754191D01*
X25197180Y1563715D01*
X25244800Y1468477D01*
X25340038Y1373239D01*
X25482895Y1325620D01*
X25720990Y1325620D01*
G04 #@! TO.C,J1*
X39398533Y11368020D02*
X39398533Y10653734D01*
X39446152Y10510877D01*
X39541390Y10415639D01*
X39684247Y10368020D01*
X39779485Y10368020D01*
X38398533Y10368020D02*
X38969961Y10368020D01*
X38684247Y10368020D02*
X38684247Y11368020D01*
X38779485Y11225162D01*
X38874723Y11129924D01*
X38969961Y11082305D01*
X51522000Y11029143D02*
X51022000Y11029143D01*
X50807714Y10243429D02*
X51522000Y10243429D01*
X51522000Y11743429D01*
X50807714Y11743429D01*
X50307714Y11743429D02*
X49307714Y10243429D01*
X49307714Y11743429D02*
X50307714Y10243429D01*
X48736285Y10243429D02*
X48736285Y11743429D01*
X48164857Y11743429D01*
X48022000Y11672000D01*
X47950571Y11600572D01*
X47879142Y11457715D01*
X47879142Y11243429D01*
X47950571Y11100572D01*
X48022000Y11029143D01*
X48164857Y10957715D01*
X48736285Y10957715D01*
X46450571Y10243429D02*
X47307714Y10243429D01*
X46879142Y10243429D02*
X46879142Y11743429D01*
X47022000Y11529143D01*
X47164857Y11386286D01*
X47307714Y11314858D01*
G04 #@! TO.C,J2*
X61598133Y11469620D02*
X61598133Y10755334D01*
X61645752Y10612477D01*
X61740990Y10517239D01*
X61883847Y10469620D01*
X61979085Y10469620D01*
X61169561Y11374381D02*
X61121942Y11422000D01*
X61026704Y11469620D01*
X60788609Y11469620D01*
X60693371Y11422000D01*
X60645752Y11374381D01*
X60598133Y11279143D01*
X60598133Y11183905D01*
X60645752Y11041048D01*
X61217180Y10469620D01*
X60598133Y10469620D01*
X73924800Y11029143D02*
X73424800Y11029143D01*
X73210514Y10243429D02*
X73924800Y10243429D01*
X73924800Y11743429D01*
X73210514Y11743429D01*
X72710514Y11743429D02*
X71710514Y10243429D01*
X71710514Y11743429D02*
X72710514Y10243429D01*
X71139085Y10243429D02*
X71139085Y11743429D01*
X70567657Y11743429D01*
X70424800Y11672000D01*
X70353371Y11600572D01*
X70281942Y11457715D01*
X70281942Y11243429D01*
X70353371Y11100572D01*
X70424800Y11029143D01*
X70567657Y10957715D01*
X71139085Y10957715D01*
X69710514Y11600572D02*
X69639085Y11672000D01*
X69496228Y11743429D01*
X69139085Y11743429D01*
X68996228Y11672000D01*
X68924800Y11600572D01*
X68853371Y11457715D01*
X68853371Y11314858D01*
X68924800Y11100572D01*
X69781942Y10243429D01*
X68853371Y10243429D01*
G04 #@! TO.C,J4*
X39131833Y25322620D02*
X39131833Y24608334D01*
X39179452Y24465477D01*
X39274690Y24370239D01*
X39417547Y24322620D01*
X39512785Y24322620D01*
X38227071Y24989286D02*
X38227071Y24322620D01*
X38465166Y25370239D02*
X38703261Y24655953D01*
X38084214Y24655953D01*
G04 #@! TO.C,D1*
X83542095Y33990020D02*
X83542095Y34990020D01*
X83304000Y34990020D01*
X83161142Y34942400D01*
X83065904Y34847162D01*
X83018285Y34751924D01*
X82970666Y34561448D01*
X82970666Y34418591D01*
X83018285Y34228115D01*
X83065904Y34132877D01*
X83161142Y34037639D01*
X83304000Y33990020D01*
X83542095Y33990020D01*
X82018285Y33990020D02*
X82589714Y33990020D01*
X82304000Y33990020D02*
X82304000Y34990020D01*
X82399238Y34847162D01*
X82494476Y34751924D01*
X82589714Y34704305D01*
G04 #@! TO.C,J5*
X98992333Y9440620D02*
X98992333Y8726334D01*
X99039952Y8583477D01*
X99135190Y8488239D01*
X99278047Y8440620D01*
X99373285Y8440620D01*
X98039952Y9440620D02*
X98516142Y9440620D01*
X98563761Y8964429D01*
X98516142Y9012048D01*
X98420904Y9059667D01*
X98182809Y9059667D01*
X98087571Y9012048D01*
X98039952Y8964429D01*
X97992333Y8869191D01*
X97992333Y8631096D01*
X98039952Y8535858D01*
X98087571Y8488239D01*
X98182809Y8440620D01*
X98420904Y8440620D01*
X98516142Y8488239D01*
X98563761Y8535858D01*
X110956171Y5034020D02*
X111289504Y5510210D01*
X111527600Y5034020D02*
X111527600Y6034020D01*
X111146647Y6034020D01*
X111051409Y5986400D01*
X111003790Y5938781D01*
X110956171Y5843543D01*
X110956171Y5700686D01*
X111003790Y5605448D01*
X111051409Y5557829D01*
X111146647Y5510210D01*
X111527600Y5510210D01*
X110337123Y6034020D02*
X110146647Y6034020D01*
X110051409Y5986400D01*
X109956171Y5891162D01*
X109908552Y5700686D01*
X109908552Y5367353D01*
X109956171Y5176877D01*
X110051409Y5081639D01*
X110146647Y5034020D01*
X110337123Y5034020D01*
X110432361Y5081639D01*
X110527600Y5176877D01*
X110575219Y5367353D01*
X110575219Y5700686D01*
X110527600Y5891162D01*
X110432361Y5986400D01*
X110337123Y6034020D01*
X109622838Y6034020D02*
X109051409Y6034020D01*
X109337123Y5034020D02*
X109337123Y6034020D01*
X108956171Y4938781D02*
X108194266Y4938781D01*
X107956171Y5557829D02*
X107622838Y5557829D01*
X107479980Y5034020D02*
X107956171Y5034020D01*
X107956171Y6034020D01*
X107479980Y6034020D01*
X107051409Y5034020D02*
X107051409Y6034020D01*
X106479980Y5034020D01*
X106479980Y6034020D01*
X105432361Y5129258D02*
X105479980Y5081639D01*
X105622838Y5034020D01*
X105718076Y5034020D01*
X105860933Y5081639D01*
X105956171Y5176877D01*
X106003790Y5272115D01*
X106051409Y5462591D01*
X106051409Y5605448D01*
X106003790Y5795924D01*
X105956171Y5891162D01*
X105860933Y5986400D01*
X105718076Y6034020D01*
X105622838Y6034020D01*
X105479980Y5986400D01*
X105432361Y5938781D01*
X104813314Y6034020D02*
X104622838Y6034020D01*
X104527600Y5986400D01*
X104432361Y5891162D01*
X104384742Y5700686D01*
X104384742Y5367353D01*
X104432361Y5176877D01*
X104527600Y5081639D01*
X104622838Y5034020D01*
X104813314Y5034020D01*
X104908552Y5081639D01*
X105003790Y5176877D01*
X105051409Y5367353D01*
X105051409Y5700686D01*
X105003790Y5891162D01*
X104908552Y5986400D01*
X104813314Y6034020D01*
X103956171Y5034020D02*
X103956171Y6034020D01*
X103718076Y6034020D01*
X103575219Y5986400D01*
X103479980Y5891162D01*
X103432361Y5795924D01*
X103384742Y5605448D01*
X103384742Y5462591D01*
X103432361Y5272115D01*
X103479980Y5176877D01*
X103575219Y5081639D01*
X103718076Y5034020D01*
X103956171Y5034020D01*
X102956171Y5557829D02*
X102622838Y5557829D01*
X102479980Y5034020D02*
X102956171Y5034020D01*
X102956171Y6034020D01*
X102479980Y6034020D01*
X101479980Y5034020D02*
X101813314Y5510210D01*
X102051409Y5034020D02*
X102051409Y6034020D01*
X101670457Y6034020D01*
X101575219Y5986400D01*
X101527600Y5938781D01*
X101479980Y5843543D01*
X101479980Y5700686D01*
X101527600Y5605448D01*
X101575219Y5557829D01*
X101670457Y5510210D01*
X102051409Y5510210D01*
G04 #@! TO.C,LS1*
X70492857Y28757620D02*
X70969047Y28757620D01*
X70969047Y29757620D01*
X70207142Y28805239D02*
X70064285Y28757620D01*
X69826190Y28757620D01*
X69730952Y28805239D01*
X69683333Y28852858D01*
X69635714Y28948096D01*
X69635714Y29043334D01*
X69683333Y29138572D01*
X69730952Y29186191D01*
X69826190Y29233810D01*
X70016666Y29281429D01*
X70111904Y29329048D01*
X70159523Y29376667D01*
X70207142Y29471905D01*
X70207142Y29567143D01*
X70159523Y29662381D01*
X70111904Y29710000D01*
X70016666Y29757620D01*
X69778571Y29757620D01*
X69635714Y29710000D01*
X68683333Y28757620D02*
X69254761Y28757620D01*
X68969047Y28757620D02*
X68969047Y29757620D01*
X69064285Y29614762D01*
X69159523Y29519524D01*
X69254761Y29471905D01*
X67381428Y33410953D02*
X67381428Y32649048D01*
X67762380Y33030000D02*
X67000476Y33030000D01*
G04 #@! TO.C,Q1*
X75380838Y18807181D02*
X75476076Y18854800D01*
X75571314Y18950039D01*
X75714171Y19092896D01*
X75809409Y19140515D01*
X75904647Y19140515D01*
X75857028Y18902420D02*
X75952266Y18950039D01*
X76047504Y19045277D01*
X76095123Y19235753D01*
X76095123Y19569086D01*
X76047504Y19759562D01*
X75952266Y19854800D01*
X75857028Y19902420D01*
X75666552Y19902420D01*
X75571314Y19854800D01*
X75476076Y19759562D01*
X75428457Y19569086D01*
X75428457Y19235753D01*
X75476076Y19045277D01*
X75571314Y18950039D01*
X75666552Y18902420D01*
X75857028Y18902420D01*
X74476076Y18902420D02*
X75047504Y18902420D01*
X74761790Y18902420D02*
X74761790Y19902420D01*
X74857028Y19759562D01*
X74952266Y19664324D01*
X75047504Y19616705D01*
G04 #@! TO.C,R1*
X49950666Y33647120D02*
X50284000Y34123310D01*
X50522095Y33647120D02*
X50522095Y34647120D01*
X50141142Y34647120D01*
X50045904Y34599500D01*
X49998285Y34551881D01*
X49950666Y34456643D01*
X49950666Y34313786D01*
X49998285Y34218548D01*
X50045904Y34170929D01*
X50141142Y34123310D01*
X50522095Y34123310D01*
X48998285Y33647120D02*
X49569714Y33647120D01*
X49284000Y33647120D02*
X49284000Y34647120D01*
X49379238Y34504262D01*
X49474476Y34409024D01*
X49569714Y34361405D01*
G04 #@! TO.C,R2*
X78906666Y34028120D02*
X79240000Y34504310D01*
X79478095Y34028120D02*
X79478095Y35028120D01*
X79097142Y35028120D01*
X79001904Y34980500D01*
X78954285Y34932881D01*
X78906666Y34837643D01*
X78906666Y34694786D01*
X78954285Y34599548D01*
X79001904Y34551929D01*
X79097142Y34504310D01*
X79478095Y34504310D01*
X78525714Y34932881D02*
X78478095Y34980500D01*
X78382857Y35028120D01*
X78144761Y35028120D01*
X78049523Y34980500D01*
X78001904Y34932881D01*
X77954285Y34837643D01*
X77954285Y34742405D01*
X78001904Y34599548D01*
X78573333Y34028120D01*
X77954285Y34028120D01*
G04 #@! TO.C,R3*
X46547066Y21036020D02*
X46880400Y21512210D01*
X47118495Y21036020D02*
X47118495Y22036020D01*
X46737542Y22036020D01*
X46642304Y21988400D01*
X46594685Y21940781D01*
X46547066Y21845543D01*
X46547066Y21702686D01*
X46594685Y21607448D01*
X46642304Y21559829D01*
X46737542Y21512210D01*
X47118495Y21512210D01*
X46213733Y22036020D02*
X45594685Y22036020D01*
X45928019Y21655067D01*
X45785161Y21655067D01*
X45689923Y21607448D01*
X45642304Y21559829D01*
X45594685Y21464591D01*
X45594685Y21226496D01*
X45642304Y21131258D01*
X45689923Y21083639D01*
X45785161Y21036020D01*
X46070876Y21036020D01*
X46166114Y21083639D01*
X46213733Y21131258D01*
X44778419Y20756667D02*
X44826038Y20804286D01*
X44921276Y20947143D01*
X44968895Y21042381D01*
X45016514Y21185239D01*
X45064133Y21423334D01*
X45064133Y21613810D01*
X45016514Y21851905D01*
X44968895Y21994762D01*
X44921276Y22090000D01*
X44826038Y22232858D01*
X44778419Y22280477D01*
X44206990Y22137620D02*
X44016514Y22137620D01*
X43921276Y22090000D01*
X43826038Y21994762D01*
X43778419Y21804286D01*
X43778419Y21470953D01*
X43826038Y21280477D01*
X43921276Y21185239D01*
X44016514Y21137620D01*
X44206990Y21137620D01*
X44302228Y21185239D01*
X44397466Y21280477D01*
X44445085Y21470953D01*
X44445085Y21804286D01*
X44397466Y21994762D01*
X44302228Y22090000D01*
X44206990Y22137620D01*
X43349847Y21137620D02*
X43349847Y22137620D01*
X42968895Y22137620D01*
X42873657Y22090000D01*
X42826038Y22042381D01*
X42778419Y21947143D01*
X42778419Y21804286D01*
X42826038Y21709048D01*
X42873657Y21661429D01*
X42968895Y21613810D01*
X43349847Y21613810D01*
X42492704Y22137620D02*
X41921276Y22137620D01*
X42206990Y21137620D02*
X42206990Y22137620D01*
X41683180Y20756667D02*
X41635561Y20804286D01*
X41540323Y20947143D01*
X41492704Y21042381D01*
X41445085Y21185239D01*
X41397466Y21423334D01*
X41397466Y21613810D01*
X41445085Y21851905D01*
X41492704Y21994762D01*
X41540323Y22090000D01*
X41635561Y22232858D01*
X41683180Y22280477D01*
G04 #@! TO.C,R4*
X49290266Y15905220D02*
X49623600Y16381410D01*
X49861695Y15905220D02*
X49861695Y16905220D01*
X49480742Y16905220D01*
X49385504Y16857600D01*
X49337885Y16809981D01*
X49290266Y16714743D01*
X49290266Y16571886D01*
X49337885Y16476648D01*
X49385504Y16429029D01*
X49480742Y16381410D01*
X49861695Y16381410D01*
X48433123Y16571886D02*
X48433123Y15905220D01*
X48671219Y16952839D02*
X48909314Y16238553D01*
X48290266Y16238553D01*
X47470819Y15625867D02*
X47518438Y15673486D01*
X47613676Y15816343D01*
X47661295Y15911581D01*
X47708914Y16054439D01*
X47756533Y16292534D01*
X47756533Y16483010D01*
X47708914Y16721105D01*
X47661295Y16863962D01*
X47613676Y16959200D01*
X47518438Y17102058D01*
X47470819Y17149677D01*
X46899390Y17006820D02*
X46708914Y17006820D01*
X46613676Y16959200D01*
X46518438Y16863962D01*
X46470819Y16673486D01*
X46470819Y16340153D01*
X46518438Y16149677D01*
X46613676Y16054439D01*
X46708914Y16006820D01*
X46899390Y16006820D01*
X46994628Y16054439D01*
X47089866Y16149677D01*
X47137485Y16340153D01*
X47137485Y16673486D01*
X47089866Y16863962D01*
X46994628Y16959200D01*
X46899390Y17006820D01*
X46042247Y16006820D02*
X46042247Y17006820D01*
X45661295Y17006820D01*
X45566057Y16959200D01*
X45518438Y16911581D01*
X45470819Y16816343D01*
X45470819Y16673486D01*
X45518438Y16578248D01*
X45566057Y16530629D01*
X45661295Y16483010D01*
X46042247Y16483010D01*
X45185104Y17006820D02*
X44613676Y17006820D01*
X44899390Y16006820D02*
X44899390Y17006820D01*
X44375580Y15625867D02*
X44327961Y15673486D01*
X44232723Y15816343D01*
X44185104Y15911581D01*
X44137485Y16054439D01*
X44089866Y16292534D01*
X44089866Y16483010D01*
X44137485Y16721105D01*
X44185104Y16863962D01*
X44232723Y16959200D01*
X44327961Y17102058D01*
X44375580Y17149677D01*
G04 #@! TO.C,R5*
X28792466Y13581120D02*
X29125800Y14057310D01*
X29363895Y13581120D02*
X29363895Y14581120D01*
X28982942Y14581120D01*
X28887704Y14533500D01*
X28840085Y14485881D01*
X28792466Y14390643D01*
X28792466Y14247786D01*
X28840085Y14152548D01*
X28887704Y14104929D01*
X28982942Y14057310D01*
X29363895Y14057310D01*
X27887704Y14581120D02*
X28363895Y14581120D01*
X28411514Y14104929D01*
X28363895Y14152548D01*
X28268657Y14200167D01*
X28030561Y14200167D01*
X27935323Y14152548D01*
X27887704Y14104929D01*
X27840085Y14009691D01*
X27840085Y13771596D01*
X27887704Y13676358D01*
X27935323Y13628739D01*
X28030561Y13581120D01*
X28268657Y13581120D01*
X28363895Y13628739D01*
X28411514Y13676358D01*
G04 #@! TO.C,R6*
X26315966Y18597620D02*
X26649300Y19073810D01*
X26887395Y18597620D02*
X26887395Y19597620D01*
X26506442Y19597620D01*
X26411204Y19550000D01*
X26363585Y19502381D01*
X26315966Y19407143D01*
X26315966Y19264286D01*
X26363585Y19169048D01*
X26411204Y19121429D01*
X26506442Y19073810D01*
X26887395Y19073810D01*
X25458823Y19597620D02*
X25649300Y19597620D01*
X25744538Y19550000D01*
X25792157Y19502381D01*
X25887395Y19359524D01*
X25935014Y19169048D01*
X25935014Y18788096D01*
X25887395Y18692858D01*
X25839776Y18645239D01*
X25744538Y18597620D01*
X25554061Y18597620D01*
X25458823Y18645239D01*
X25411204Y18692858D01*
X25363585Y18788096D01*
X25363585Y19026191D01*
X25411204Y19121429D01*
X25458823Y19169048D01*
X25554061Y19216667D01*
X25744538Y19216667D01*
X25839776Y19169048D01*
X25887395Y19121429D01*
X25935014Y19026191D01*
G04 #@! TO.C,U1*
X59131104Y18632420D02*
X59131104Y17822896D01*
X59083485Y17727658D01*
X59035866Y17680039D01*
X58940628Y17632420D01*
X58750152Y17632420D01*
X58654914Y17680039D01*
X58607295Y17727658D01*
X58559676Y17822896D01*
X58559676Y18632420D01*
X57559676Y17632420D02*
X58131104Y17632420D01*
X57845390Y17632420D02*
X57845390Y18632420D01*
X57940628Y18489562D01*
X58035866Y18394324D01*
X58131104Y18346705D01*
G04 #@! TO.C,C1*
X58434266Y14120858D02*
X58481885Y14073239D01*
X58624742Y14025620D01*
X58719980Y14025620D01*
X58862838Y14073239D01*
X58958076Y14168477D01*
X59005695Y14263715D01*
X59053314Y14454191D01*
X59053314Y14597048D01*
X59005695Y14787524D01*
X58958076Y14882762D01*
X58862838Y14978000D01*
X58719980Y15025620D01*
X58624742Y15025620D01*
X58481885Y14978000D01*
X58434266Y14930381D01*
X57481885Y14025620D02*
X58053314Y14025620D01*
X57767600Y14025620D02*
X57767600Y15025620D01*
X57862838Y14882762D01*
X57958076Y14787524D01*
X58053314Y14739905D01*
G04 #@! TO.C,C2*
X58586666Y21893258D02*
X58634285Y21845639D01*
X58777142Y21798020D01*
X58872380Y21798020D01*
X59015238Y21845639D01*
X59110476Y21940877D01*
X59158095Y22036115D01*
X59205714Y22226591D01*
X59205714Y22369448D01*
X59158095Y22559924D01*
X59110476Y22655162D01*
X59015238Y22750400D01*
X58872380Y22798020D01*
X58777142Y22798020D01*
X58634285Y22750400D01*
X58586666Y22702781D01*
X58205714Y22702781D02*
X58158095Y22750400D01*
X58062857Y22798020D01*
X57824761Y22798020D01*
X57729523Y22750400D01*
X57681904Y22702781D01*
X57634285Y22607543D01*
X57634285Y22512305D01*
X57681904Y22369448D01*
X58253333Y21798020D01*
X57634285Y21798020D01*
G04 #@! TD*
M02*
