G04 #@! TF.GenerationSoftware,KiCad,Pcbnew,5.0.2-bee76a0~70~ubuntu18.04.1*
G04 #@! TF.CreationDate,2018-12-25T16:41:34-08:00*
G04 #@! TF.ProjectId,Marlin_UIBOX,4d61726c-696e-45f5-9549-424f582e6b69,rev?*
G04 #@! TF.SameCoordinates,PX7bfa480PY68e7780*
G04 #@! TF.FileFunction,Copper,L2,Bot*
G04 #@! TF.FilePolarity,Positive*
%FSLAX46Y46*%
G04 Gerber Fmt 4.6, Leading zero omitted, Abs format (unit mm)*
G04 Created by KiCad (PCBNEW 5.0.2-bee76a0~70~ubuntu18.04.1) date Tue 25 Dec 2018 04:41:34 PM PST*
%MOMM*%
%LPD*%
G01*
G04 APERTURE LIST*
G04 #@! TA.AperFunction,ComponentPad*
%ADD10C,1.600000*%
G04 #@! TD*
G04 #@! TA.AperFunction,ComponentPad*
%ADD11O,1.600000X1.600000*%
G04 #@! TD*
G04 #@! TA.AperFunction,ComponentPad*
%ADD12R,1.727200X1.727200*%
G04 #@! TD*
G04 #@! TA.AperFunction,ComponentPad*
%ADD13O,1.727200X1.727200*%
G04 #@! TD*
G04 #@! TA.AperFunction,ComponentPad*
%ADD14O,1.700000X1.700000*%
G04 #@! TD*
G04 #@! TA.AperFunction,ComponentPad*
%ADD15R,1.700000X1.700000*%
G04 #@! TD*
G04 #@! TA.AperFunction,ComponentPad*
%ADD16R,0.900000X1.500000*%
G04 #@! TD*
G04 #@! TA.AperFunction,ComponentPad*
%ADD17O,0.900000X1.500000*%
G04 #@! TD*
G04 #@! TA.AperFunction,ComponentPad*
%ADD18C,2.000000*%
G04 #@! TD*
G04 #@! TA.AperFunction,ComponentPad*
%ADD19R,2.000000X2.000000*%
G04 #@! TD*
G04 #@! TA.AperFunction,Conductor*
%ADD20C,0.500000*%
G04 #@! TD*
G04 #@! TA.AperFunction,Conductor*
%ADD21C,0.300000*%
G04 #@! TD*
G04 APERTURE END LIST*
D10*
G04 #@! TO.P,R4,1*
G04 #@! TO.N,GND*
X6144000Y25926000D03*
D11*
G04 #@! TO.P,R4,2*
X13764000Y25926000D03*
G04 #@! TD*
G04 #@! TO.P,R3,2*
G04 #@! TO.N,VCC*
X23416000Y12464000D03*
D10*
G04 #@! TO.P,R3,1*
X23416000Y20084000D03*
G04 #@! TD*
D12*
G04 #@! TO.P,J1,1*
G04 #@! TO.N,VCC*
X38402000Y33800000D03*
D13*
G04 #@! TO.P,J1,2*
G04 #@! TO.N,GND*
X38402000Y31260000D03*
G04 #@! TO.P,J1,3*
G04 #@! TO.N,N/C*
X35862000Y33800000D03*
G04 #@! TO.P,J1,4*
G04 #@! TO.N,/LCD_DC*
X35862000Y31260000D03*
G04 #@! TO.P,J1,5*
G04 #@! TO.N,/LCD_CS*
X33322000Y33800000D03*
G04 #@! TO.P,J1,6*
G04 #@! TO.N,N/C*
X33322000Y31260000D03*
G04 #@! TO.P,J1,7*
G04 #@! TO.N,/LCD_RES*
X30782000Y33800000D03*
G04 #@! TO.P,J1,8*
G04 #@! TO.N,N/C*
X30782000Y31260000D03*
G04 #@! TO.P,J1,9*
G04 #@! TO.N,/BT_SW*
X28242000Y33800000D03*
G04 #@! TO.P,J1,10*
G04 #@! TO.N,/BEEPER*
X28242000Y31260000D03*
G04 #@! TD*
G04 #@! TO.P,J2,10*
G04 #@! TO.N,/MISO*
X5890000Y31260000D03*
G04 #@! TO.P,J2,9*
G04 #@! TO.N,/SCK*
X5890000Y33800000D03*
G04 #@! TO.P,J2,8*
G04 #@! TO.N,/BT_EN2*
X8430000Y31260000D03*
G04 #@! TO.P,J2,7*
G04 #@! TO.N,/SD_SS*
X8430000Y33800000D03*
G04 #@! TO.P,J2,6*
G04 #@! TO.N,/BT_EN1*
X10970000Y31260000D03*
G04 #@! TO.P,J2,5*
G04 #@! TO.N,/MOSI*
X10970000Y33800000D03*
G04 #@! TO.P,J2,4*
G04 #@! TO.N,/SD_DET*
X13510000Y31260000D03*
G04 #@! TO.P,J2,3*
G04 #@! TO.N,N/C*
X13510000Y33800000D03*
G04 #@! TO.P,J2,2*
G04 #@! TO.N,GND*
X16050000Y31260000D03*
D12*
G04 #@! TO.P,J2,1*
G04 #@! TO.N,N/C*
X16050000Y33800000D03*
G04 #@! TD*
D14*
G04 #@! TO.P,J3,7*
G04 #@! TO.N,/LCD_CS*
X10970000Y6622000D03*
G04 #@! TO.P,J3,6*
G04 #@! TO.N,/LCD_DC*
X10970000Y9162000D03*
G04 #@! TO.P,J3,5*
G04 #@! TO.N,/LCD_RES*
X10970000Y11702000D03*
G04 #@! TO.P,J3,4*
G04 #@! TO.N,/MOSI*
X10970000Y14242000D03*
G04 #@! TO.P,J3,3*
G04 #@! TO.N,/SCK*
X10970000Y16782000D03*
G04 #@! TO.P,J3,2*
G04 #@! TO.N,VCC*
X10970000Y19322000D03*
D15*
G04 #@! TO.P,J3,1*
G04 #@! TO.N,GND*
X10970000Y21862000D03*
G04 #@! TD*
G04 #@! TO.P,J4,1*
G04 #@! TO.N,GND*
X6906000Y21862000D03*
D14*
G04 #@! TO.P,J4,2*
G04 #@! TO.N,VCC*
X6906000Y19322000D03*
G04 #@! TO.P,J4,3*
G04 #@! TO.N,/MISO*
X6906000Y16782000D03*
G04 #@! TO.P,J4,4*
G04 #@! TO.N,/MOSI*
X6906000Y14242000D03*
G04 #@! TO.P,J4,5*
G04 #@! TO.N,/SCK*
X6906000Y11702000D03*
G04 #@! TO.P,J4,6*
G04 #@! TO.N,/SD_SS*
X6906000Y9162000D03*
G04 #@! TO.P,J4,7*
G04 #@! TO.N,/SD_DET*
X6906000Y6622000D03*
G04 #@! TD*
G04 #@! TO.P,J5,5*
G04 #@! TO.N,/BT_EN2*
X38148000Y5606000D03*
G04 #@! TO.P,J5,4*
G04 #@! TO.N,/BT_EN1*
X38148000Y8146000D03*
G04 #@! TO.P,J5,3*
G04 #@! TO.N,/BT_SW*
X38148000Y10686000D03*
G04 #@! TO.P,J5,2*
G04 #@! TO.N,VCC*
X38148000Y13226000D03*
D15*
G04 #@! TO.P,J5,1*
G04 #@! TO.N,GND*
X38148000Y15766000D03*
G04 #@! TD*
D16*
G04 #@! TO.P,Q1,1*
G04 #@! TO.N,GND*
X20622000Y7638000D03*
D17*
G04 #@! TO.P,Q1,3*
G04 #@! TO.N,Net-(Q1-Pad3)*
X18082000Y7638000D03*
G04 #@! TO.P,Q1,2*
G04 #@! TO.N,Net-(Q1-Pad2)*
X19352000Y7638000D03*
G04 #@! TD*
D10*
G04 #@! TO.P,R1,1*
G04 #@! TO.N,/BEEPER*
X19352000Y20084000D03*
D11*
G04 #@! TO.P,R1,2*
G04 #@! TO.N,Net-(Q1-Pad2)*
X19352000Y12464000D03*
G04 #@! TD*
G04 #@! TO.P,R2,2*
G04 #@! TO.N,Net-(Q1-Pad3)*
X15034000Y3320000D03*
D10*
G04 #@! TO.P,R2,1*
G04 #@! TO.N,Net-(LS1-Pad2)*
X22654000Y3320000D03*
G04 #@! TD*
D18*
G04 #@! TO.P,LS1,2*
G04 #@! TO.N,Net-(LS1-Pad2)*
X29766000Y3848000D03*
D19*
G04 #@! TO.P,LS1,1*
G04 #@! TO.N,VCC*
X29766000Y11448000D03*
G04 #@! TD*
D20*
G04 #@! TO.N,VCC*
X25702000Y11448000D02*
X29766000Y11448000D01*
X22908000Y12464000D02*
X24686000Y12464000D01*
X24686000Y12464000D02*
X25702000Y11448000D01*
X39665600Y33800000D02*
X38402000Y33800000D01*
X40434000Y14309919D02*
X40434000Y33031600D01*
X38148000Y13226000D02*
X39350081Y13226000D01*
X40434000Y33031600D02*
X39665600Y33800000D01*
X39350081Y13226000D02*
X40434000Y14309919D01*
X6906000Y19322000D02*
X10970000Y19322000D01*
X38148000Y13226000D02*
X35608000Y13226000D01*
X33830000Y11448000D02*
X29766000Y11448000D01*
X35608000Y13226000D02*
X33830000Y11448000D01*
X23416000Y19322000D02*
X23416000Y20084000D01*
X22400000Y18306000D02*
X23416000Y19322000D01*
X16050000Y18306000D02*
X22400000Y18306000D01*
X10970000Y19322000D02*
X15034000Y19322000D01*
X15034000Y19322000D02*
X16050000Y18306000D01*
G04 #@! TO.N,GND*
X10970000Y21862000D02*
X6906000Y21862000D01*
X6144000Y25926000D02*
X6144000Y24402000D01*
X6906000Y23640000D02*
X6906000Y21862000D01*
X6144000Y24402000D02*
X6906000Y23640000D01*
X16050000Y28212000D02*
X16050000Y31260000D01*
X13764000Y25926000D02*
X16050000Y28212000D01*
X38148000Y19830000D02*
X38148000Y15766000D01*
X38402000Y31260000D02*
X38402000Y20084000D01*
X38402000Y20084000D02*
X38148000Y19830000D01*
X36798000Y15766000D02*
X35782000Y14750000D01*
X38148000Y15766000D02*
X36798000Y15766000D01*
X20622000Y9416000D02*
X20622000Y7638000D01*
X21384000Y13734000D02*
X21384000Y10178000D01*
X22400000Y14750000D02*
X21384000Y13734000D01*
X35782000Y14750000D02*
X22400000Y14750000D01*
X21384000Y10178000D02*
X20622000Y9416000D01*
X26210000Y39134000D02*
X18336000Y31260000D01*
X41450000Y2812000D02*
X43990000Y5352000D01*
X18336000Y31260000D02*
X16050000Y31260000D01*
X43990000Y35832000D02*
X40688000Y39134000D01*
X20622000Y7638000D02*
X30782000Y7638000D01*
X40688000Y39134000D02*
X26210000Y39134000D01*
X30782000Y7638000D02*
X35608000Y2812000D01*
X35608000Y2812000D02*
X41450000Y2812000D01*
X43990000Y5352000D02*
X43990000Y35832000D01*
D21*
G04 #@! TO.N,/LCD_DC*
X35862000Y22624000D02*
X29766000Y16528000D01*
X35862000Y31260000D02*
X35862000Y22624000D01*
X29766000Y16528000D02*
X19860000Y16528000D01*
X19860000Y16528000D02*
X12494000Y9162000D01*
X12494000Y9162000D02*
X10970000Y9162000D01*
G04 #@! TO.N,/LCD_CS*
X11478000Y6622000D02*
X10970000Y6622000D01*
X20622000Y15766000D02*
X11478000Y6622000D01*
X31925000Y15766000D02*
X20622000Y15766000D01*
X33322000Y35070000D02*
X34084000Y35832000D01*
X33322000Y33800000D02*
X33322000Y35070000D01*
X34084000Y35832000D02*
X36370000Y35832000D01*
X36370000Y35832000D02*
X37132000Y35070000D01*
X37132000Y35070000D02*
X37132000Y20973000D01*
X37132000Y20973000D02*
X31925000Y15766000D01*
G04 #@! TO.N,/LCD_RES*
X29258000Y18814000D02*
X29512000Y19068000D01*
X30782000Y33800000D02*
X32052000Y32530000D01*
X32052000Y21608000D02*
X29258000Y18814000D01*
X32052000Y32530000D02*
X32052000Y21608000D01*
X13510000Y11702000D02*
X19098000Y17290000D01*
X10970000Y11702000D02*
X13510000Y11702000D01*
X19098000Y17290000D02*
X27734000Y17290000D01*
X27734000Y17290000D02*
X29258000Y18814000D01*
G04 #@! TO.N,/BT_SW*
X40180000Y10686000D02*
X38148000Y10686000D01*
X28242000Y35070000D02*
X29766000Y36594000D01*
X29766000Y36594000D02*
X39418000Y36594000D01*
X39418000Y36594000D02*
X41450000Y34562000D01*
X41450000Y34562000D02*
X41450000Y11956000D01*
X28242000Y33800000D02*
X28242000Y35070000D01*
X41450000Y11956000D02*
X40180000Y10686000D01*
G04 #@! TO.N,/BEEPER*
X21892000Y24910000D02*
X19352000Y22370000D01*
X25702000Y24910000D02*
X21892000Y24910000D01*
X28242000Y31260000D02*
X28242000Y27450000D01*
X19352000Y22370000D02*
X19352000Y20084000D01*
X28242000Y27450000D02*
X25702000Y24910000D01*
G04 #@! TO.N,/MISO*
X5128000Y16782000D02*
X6906000Y16782000D01*
X4620000Y17290000D02*
X5128000Y16782000D01*
X4620000Y28466000D02*
X4620000Y17290000D01*
X5890000Y31260000D02*
X5890000Y29736000D01*
X5890000Y29736000D02*
X4620000Y28466000D01*
G04 #@! TO.N,/SCK*
X12240000Y12972000D02*
X8176000Y12972000D01*
X12748000Y13480000D02*
X12240000Y12972000D01*
X8176000Y12972000D02*
X6906000Y11702000D01*
X12748000Y16206081D02*
X12748000Y13480000D01*
X10970000Y16782000D02*
X12172081Y16782000D01*
X12172081Y16782000D02*
X12748000Y16206081D01*
X5128000Y11702000D02*
X6906000Y11702000D01*
X3096000Y13734000D02*
X5128000Y11702000D01*
X3096000Y32530000D02*
X3096000Y13734000D01*
X5890000Y33800000D02*
X4366000Y33800000D01*
X4366000Y33800000D02*
X3096000Y32530000D01*
G04 #@! TO.N,/BT_EN2*
X11859000Y23640000D02*
X8430000Y27069000D01*
X15034000Y23640000D02*
X11859000Y23640000D01*
X26845000Y37356000D02*
X22527000Y33038000D01*
X39926000Y37356000D02*
X26845000Y37356000D01*
X42212000Y35070000D02*
X39926000Y37356000D01*
X38148000Y5606000D02*
X36878000Y5606000D01*
X8430000Y27069000D02*
X8430000Y31260000D01*
X40561000Y9416000D02*
X42212000Y11067000D01*
X22527000Y31133000D02*
X15034000Y23640000D01*
X36878000Y9416000D02*
X40561000Y9416000D01*
X36370000Y6114000D02*
X36370000Y8908000D01*
X22527000Y33038000D02*
X22527000Y31133000D01*
X42212000Y11067000D02*
X42212000Y35070000D01*
X36878000Y5606000D02*
X36370000Y6114000D01*
X36370000Y8908000D02*
X36878000Y9416000D01*
G04 #@! TO.N,/SD_SS*
X6906000Y35324000D02*
X8430000Y33800000D01*
X4366000Y35324000D02*
X6906000Y35324000D01*
X2334000Y33292000D02*
X4366000Y35324000D01*
X2334000Y11956000D02*
X2334000Y33292000D01*
X6906000Y9162000D02*
X5128000Y9162000D01*
X5128000Y9162000D02*
X2334000Y11956000D01*
G04 #@! TO.N,/BT_EN1*
X40942000Y8146000D02*
X38148000Y8146000D01*
X42974000Y10178000D02*
X40942000Y8146000D01*
X42974000Y35578000D02*
X42974000Y10178000D01*
X26591000Y38118000D02*
X40434000Y38118000D01*
X10970000Y25672000D02*
X12240000Y24402000D01*
X10970000Y31260000D02*
X10970000Y25672000D01*
X12240000Y24402000D02*
X14526000Y24402000D01*
X40434000Y38118000D02*
X42974000Y35578000D01*
X14526000Y24402000D02*
X21765000Y31641000D01*
X21765000Y31641000D02*
X21765000Y33292000D01*
X21765000Y33292000D02*
X26591000Y38118000D01*
G04 #@! TO.N,/MOSI*
X6906000Y14242000D02*
X10970000Y14242000D01*
X3858000Y15512000D02*
X5128000Y14242000D01*
X3858000Y32022000D02*
X3858000Y15512000D01*
X4366000Y32530000D02*
X3858000Y32022000D01*
X10970000Y33800000D02*
X9700000Y32530000D01*
X5128000Y14242000D02*
X6906000Y14242000D01*
X9700000Y32530000D02*
X4366000Y32530000D01*
G04 #@! TO.N,/SD_DET*
X1572000Y10178000D02*
X5128000Y6622000D01*
X12240000Y32530000D02*
X12240000Y35070000D01*
X13510000Y31260000D02*
X12240000Y32530000D01*
X5128000Y6622000D02*
X6906000Y6622000D01*
X12240000Y35070000D02*
X11224000Y36086000D01*
X3858000Y36086000D02*
X1572000Y33800000D01*
X11224000Y36086000D02*
X3858000Y36086000D01*
X1572000Y33800000D02*
X1572000Y10178000D01*
G04 #@! TO.N,Net-(LS1-Pad2)*
X22654000Y3320000D02*
X26210000Y3320000D01*
X26738000Y3848000D02*
X29766000Y3848000D01*
X26210000Y3320000D02*
X26738000Y3848000D01*
G04 #@! TO.N,Net-(Q1-Pad3)*
X18082000Y6588000D02*
X18082000Y7638000D01*
X18082000Y5236630D02*
X18082000Y6588000D01*
X16165370Y3320000D02*
X18082000Y5236630D01*
X15034000Y3320000D02*
X16165370Y3320000D01*
G04 #@! TO.N,Net-(Q1-Pad2)*
X19352000Y11332630D02*
X19352000Y7638000D01*
X19352000Y12464000D02*
X19352000Y11332630D01*
G04 #@! TD*
M02*
