G04 #@! TF.GenerationSoftware,KiCad,Pcbnew,5.0.2-bee76a0~70~ubuntu18.04.1*
G04 #@! TF.CreationDate,2019-01-15T16:16:46-08:00*
G04 #@! TF.ProjectId,Marlin_UIBOX,4d61726c-696e-45f5-9549-424f582e6b69,rev?*
G04 #@! TF.SameCoordinates,PX55c0260PY70276d0*
G04 #@! TF.FileFunction,Legend,Top*
G04 #@! TF.FilePolarity,Positive*
%FSLAX46Y46*%
G04 Gerber Fmt 4.6, Leading zero omitted, Abs format (unit mm)*
G04 Created by KiCad (PCBNEW 5.0.2-bee76a0~70~ubuntu18.04.1) date Tue 15 Jan 2019 04:16:46 PM PST*
%MOMM*%
%LPD*%
G01*
G04 APERTURE LIST*
%ADD10C,0.120000*%
%ADD11C,0.150000*%
G04 APERTURE END LIST*
D10*
G04 #@! TO.C,J4*
X37181000Y23440000D02*
X37181000Y26100000D01*
X21881000Y23440000D02*
X37181000Y23440000D01*
X21881000Y26100000D02*
X37181000Y26100000D01*
X21881000Y23440000D02*
X21881000Y26100000D01*
X20611000Y23440000D02*
X19281000Y23440000D01*
X19281000Y23440000D02*
X19281000Y24770000D01*
G04 #@! TO.C,D1*
X65890000Y37172000D02*
X63650000Y37172000D01*
X63650000Y37172000D02*
X63650000Y32932000D01*
X63650000Y32932000D02*
X65890000Y32932000D01*
X65890000Y32932000D02*
X65890000Y37172000D01*
X64770000Y37822000D02*
X64770000Y37172000D01*
X64770000Y32282000D02*
X64770000Y32932000D01*
X65890000Y36452000D02*
X63650000Y36452000D01*
X65890000Y36332000D02*
X63650000Y36332000D01*
X65890000Y36572000D02*
X63650000Y36572000D01*
G04 #@! TO.C,J3*
X14764000Y15552000D02*
X12104000Y15552000D01*
X14764000Y15552000D02*
X14764000Y30852000D01*
X14764000Y30852000D02*
X12104000Y30852000D01*
X12104000Y15552000D02*
X12104000Y30852000D01*
X12104000Y12952000D02*
X12104000Y14282000D01*
X13434000Y12952000D02*
X12104000Y12952000D01*
G04 #@! TO.C,LS1*
X80268000Y35062000D02*
G75*
G03X80268000Y35062000I-6100000J0D01*
G01*
G04 #@! TO.C,Q1*
X83638000Y18774000D02*
X83638000Y22374000D01*
X83626478Y18735522D02*
G75*
G02X79188000Y20574000I-1838478J1838478D01*
G01*
X83626478Y22412478D02*
G75*
G03X79188000Y20574000I-1838478J-1838478D01*
G01*
G04 #@! TO.C,R1*
X51154000Y31464000D02*
X50824000Y31464000D01*
X51154000Y24924000D02*
X51154000Y31464000D01*
X50824000Y24924000D02*
X51154000Y24924000D01*
X48414000Y31464000D02*
X48744000Y31464000D01*
X48414000Y24924000D02*
X48414000Y31464000D01*
X48744000Y24924000D02*
X48414000Y24924000D01*
G04 #@! TO.C,R2*
X74708000Y27456000D02*
X74708000Y27786000D01*
X74708000Y27786000D02*
X81248000Y27786000D01*
X81248000Y27786000D02*
X81248000Y27456000D01*
X74708000Y25376000D02*
X74708000Y25046000D01*
X74708000Y25046000D02*
X81248000Y25046000D01*
X81248000Y25046000D02*
X81248000Y25376000D01*
G04 #@! TO.C,J4*
D11*
X19478666Y22391620D02*
X19478666Y21677334D01*
X19431047Y21534477D01*
X19335809Y21439239D01*
X19192952Y21391620D01*
X19097714Y21391620D01*
X20383428Y22058286D02*
X20383428Y21391620D01*
X20145333Y22439239D02*
X19907238Y21724953D01*
X20526285Y21724953D01*
G04 #@! TO.C,D1*
X65222380Y34059905D02*
X64222380Y34059905D01*
X64222380Y34298000D01*
X64270000Y34440858D01*
X64365238Y34536096D01*
X64460476Y34583715D01*
X64650952Y34631334D01*
X64793809Y34631334D01*
X64984285Y34583715D01*
X65079523Y34536096D01*
X65174761Y34440858D01*
X65222380Y34298000D01*
X65222380Y34059905D01*
X65222380Y35583715D02*
X65222380Y35012286D01*
X65222380Y35298000D02*
X64222380Y35298000D01*
X64365238Y35202762D01*
X64460476Y35107524D01*
X64508095Y35012286D01*
G04 #@! TO.C,J3*
X13100666Y12059620D02*
X13100666Y11345334D01*
X13053047Y11202477D01*
X12957809Y11107239D01*
X12814952Y11059620D01*
X12719714Y11059620D01*
X13481619Y12059620D02*
X14100666Y12059620D01*
X13767333Y11678667D01*
X13910190Y11678667D01*
X14005428Y11631048D01*
X14053047Y11583429D01*
X14100666Y11488191D01*
X14100666Y11250096D01*
X14053047Y11154858D01*
X14005428Y11107239D01*
X13910190Y11059620D01*
X13624476Y11059620D01*
X13529238Y11107239D01*
X13481619Y11154858D01*
G04 #@! TO.C,LS1*
X73525142Y34599620D02*
X73048952Y34599620D01*
X73048952Y35599620D01*
X73810857Y34647239D02*
X73953714Y34599620D01*
X74191809Y34599620D01*
X74287047Y34647239D01*
X74334666Y34694858D01*
X74382285Y34790096D01*
X74382285Y34885334D01*
X74334666Y34980572D01*
X74287047Y35028191D01*
X74191809Y35075810D01*
X74001333Y35123429D01*
X73906095Y35171048D01*
X73858476Y35218667D01*
X73810857Y35313905D01*
X73810857Y35409143D01*
X73858476Y35504381D01*
X73906095Y35552000D01*
X74001333Y35599620D01*
X74239428Y35599620D01*
X74382285Y35552000D01*
X75334666Y34599620D02*
X74763238Y34599620D01*
X75048952Y34599620D02*
X75048952Y35599620D01*
X74953714Y35456762D01*
X74858476Y35361524D01*
X74763238Y35313905D01*
X76779428Y38491048D02*
X76779428Y39252953D01*
X77160380Y38872000D02*
X76398476Y38872000D01*
G04 #@! TO.C,Q1*
X77882761Y22058381D02*
X77787523Y22106000D01*
X77692285Y22201239D01*
X77549428Y22344096D01*
X77454190Y22391715D01*
X77358952Y22391715D01*
X77406571Y22153620D02*
X77311333Y22201239D01*
X77216095Y22296477D01*
X77168476Y22486953D01*
X77168476Y22820286D01*
X77216095Y23010762D01*
X77311333Y23106000D01*
X77406571Y23153620D01*
X77597047Y23153620D01*
X77692285Y23106000D01*
X77787523Y23010762D01*
X77835142Y22820286D01*
X77835142Y22486953D01*
X77787523Y22296477D01*
X77692285Y22201239D01*
X77597047Y22153620D01*
X77406571Y22153620D01*
X78787523Y22153620D02*
X78216095Y22153620D01*
X78501809Y22153620D02*
X78501809Y23153620D01*
X78406571Y23010762D01*
X78311333Y22915524D01*
X78216095Y22867905D01*
G04 #@! TO.C,R1*
X50236380Y28027334D02*
X49760190Y27694000D01*
X50236380Y27455905D02*
X49236380Y27455905D01*
X49236380Y27836858D01*
X49284000Y27932096D01*
X49331619Y27979715D01*
X49426857Y28027334D01*
X49569714Y28027334D01*
X49664952Y27979715D01*
X49712571Y27932096D01*
X49760190Y27836858D01*
X49760190Y27455905D01*
X50236380Y28979715D02*
X50236380Y28408286D01*
X50236380Y28694000D02*
X49236380Y28694000D01*
X49379238Y28598762D01*
X49474476Y28503524D01*
X49522095Y28408286D01*
G04 #@! TO.C,R2*
X77811333Y25963620D02*
X77478000Y26439810D01*
X77239904Y25963620D02*
X77239904Y26963620D01*
X77620857Y26963620D01*
X77716095Y26916000D01*
X77763714Y26868381D01*
X77811333Y26773143D01*
X77811333Y26630286D01*
X77763714Y26535048D01*
X77716095Y26487429D01*
X77620857Y26439810D01*
X77239904Y26439810D01*
X78192285Y26868381D02*
X78239904Y26916000D01*
X78335142Y26963620D01*
X78573238Y26963620D01*
X78668476Y26916000D01*
X78716095Y26868381D01*
X78763714Y26773143D01*
X78763714Y26677905D01*
X78716095Y26535048D01*
X78144666Y25963620D01*
X78763714Y25963620D01*
G04 #@! TD*
M02*
