G04 #@! TF.GenerationSoftware,KiCad,Pcbnew,5.1.5-52549c5~84~ubuntu18.04.1*
G04 #@! TF.CreationDate,2020-03-25T13:03:39-07:00*
G04 #@! TF.ProjectId,Marlin_UIBOX,4d61726c-696e-45f5-9549-424f582e6b69,rev?*
G04 #@! TF.SameCoordinates,PX55c0260PY70276d0*
G04 #@! TF.FileFunction,Soldermask,Top*
G04 #@! TF.FilePolarity,Negative*
%FSLAX46Y46*%
G04 Gerber Fmt 4.6, Leading zero omitted, Abs format (unit mm)*
G04 Created by KiCad (PCBNEW 5.1.5-52549c5~84~ubuntu18.04.1) date 2020-03-25 13:03:39*
%MOMM*%
%LPD*%
G04 APERTURE LIST*
%ADD10C,0.100000*%
G04 APERTURE END LIST*
D10*
G36*
X124909256Y4910702D02*
G01*
X125015579Y4889553D01*
X125316042Y4765097D01*
X125586451Y4584415D01*
X125816415Y4354451D01*
X125997097Y4084042D01*
X125997098Y4084040D01*
X126000106Y4076778D01*
X126121553Y3783579D01*
X126134216Y3719918D01*
X126185000Y3464611D01*
X126185000Y3139389D01*
X126157172Y2999491D01*
X126121553Y2820421D01*
X125997097Y2519958D01*
X125816415Y2249549D01*
X125586451Y2019585D01*
X125316042Y1838903D01*
X125015579Y1714447D01*
X124909256Y1693298D01*
X124696611Y1651000D01*
X124371389Y1651000D01*
X124158744Y1693298D01*
X124052421Y1714447D01*
X123751958Y1838903D01*
X123481549Y2019585D01*
X123251585Y2249549D01*
X123070903Y2519958D01*
X122946447Y2820421D01*
X122910828Y2999491D01*
X122883000Y3139389D01*
X122883000Y3464611D01*
X122933784Y3719918D01*
X122946447Y3783579D01*
X123067894Y4076778D01*
X123070902Y4084040D01*
X123070903Y4084042D01*
X123251585Y4354451D01*
X123481549Y4584415D01*
X123751958Y4765097D01*
X124052421Y4889553D01*
X124158744Y4910702D01*
X124371389Y4953000D01*
X124696611Y4953000D01*
X124909256Y4910702D01*
G37*
G36*
X88909256Y4910702D02*
G01*
X89015579Y4889553D01*
X89316042Y4765097D01*
X89586451Y4584415D01*
X89816415Y4354451D01*
X89997097Y4084042D01*
X89997098Y4084040D01*
X90000106Y4076778D01*
X90121553Y3783579D01*
X90134216Y3719918D01*
X90185000Y3464611D01*
X90185000Y3139389D01*
X90157172Y2999491D01*
X90121553Y2820421D01*
X89997097Y2519958D01*
X89816415Y2249549D01*
X89586451Y2019585D01*
X89316042Y1838903D01*
X89015579Y1714447D01*
X88909256Y1693298D01*
X88696611Y1651000D01*
X88371389Y1651000D01*
X88158744Y1693298D01*
X88052421Y1714447D01*
X87751958Y1838903D01*
X87481549Y2019585D01*
X87251585Y2249549D01*
X87070903Y2519958D01*
X86946447Y2820421D01*
X86910828Y2999491D01*
X86883000Y3139389D01*
X86883000Y3464611D01*
X86933784Y3719918D01*
X86946447Y3783579D01*
X87067894Y4076778D01*
X87070902Y4084040D01*
X87070903Y4084042D01*
X87251585Y4354451D01*
X87481549Y4584415D01*
X87751958Y4765097D01*
X88052421Y4889553D01*
X88158744Y4910702D01*
X88371389Y4953000D01*
X88696611Y4953000D01*
X88909256Y4910702D01*
G37*
G36*
X5709256Y4910702D02*
G01*
X5815579Y4889553D01*
X6116042Y4765097D01*
X6386451Y4584415D01*
X6616415Y4354451D01*
X6797097Y4084042D01*
X6797098Y4084040D01*
X6800106Y4076778D01*
X6921553Y3783579D01*
X6934216Y3719918D01*
X6985000Y3464611D01*
X6985000Y3139389D01*
X6957172Y2999491D01*
X6921553Y2820421D01*
X6797097Y2519958D01*
X6616415Y2249549D01*
X6386451Y2019585D01*
X6116042Y1838903D01*
X5815579Y1714447D01*
X5709256Y1693298D01*
X5496611Y1651000D01*
X5171389Y1651000D01*
X4958744Y1693298D01*
X4852421Y1714447D01*
X4551958Y1838903D01*
X4281549Y2019585D01*
X4051585Y2249549D01*
X3870903Y2519958D01*
X3746447Y2820421D01*
X3710828Y2999491D01*
X3683000Y3139389D01*
X3683000Y3464611D01*
X3733784Y3719918D01*
X3746447Y3783579D01*
X3867894Y4076778D01*
X3870902Y4084040D01*
X3870903Y4084042D01*
X4051585Y4354451D01*
X4281549Y4584415D01*
X4551958Y4765097D01*
X4852421Y4889553D01*
X4958744Y4910702D01*
X5171389Y4953000D01*
X5496611Y4953000D01*
X5709256Y4910702D01*
G37*
G36*
X69100778Y4689453D02*
G01*
X69267224Y4620509D01*
X69417022Y4520417D01*
X69544417Y4393022D01*
X69644509Y4243224D01*
X69713453Y4076778D01*
X69748600Y3900082D01*
X69748600Y3719918D01*
X69713453Y3543222D01*
X69644509Y3376776D01*
X69544417Y3226978D01*
X69417022Y3099583D01*
X69267224Y2999491D01*
X69100778Y2930547D01*
X68924082Y2895400D01*
X68743918Y2895400D01*
X68567222Y2930547D01*
X68400776Y2999491D01*
X68250978Y3099583D01*
X68123583Y3226978D01*
X68023491Y3376776D01*
X67954547Y3543222D01*
X67919400Y3719918D01*
X67919400Y3900082D01*
X67954547Y4076778D01*
X68023491Y4243224D01*
X68123583Y4393022D01*
X68250978Y4520417D01*
X68400776Y4620509D01*
X68567222Y4689453D01*
X68743918Y4724600D01*
X68924082Y4724600D01*
X69100778Y4689453D01*
G37*
G36*
X66560778Y4689453D02*
G01*
X66727224Y4620509D01*
X66877022Y4520417D01*
X67004417Y4393022D01*
X67104509Y4243224D01*
X67173453Y4076778D01*
X67208600Y3900082D01*
X67208600Y3719918D01*
X67173453Y3543222D01*
X67104509Y3376776D01*
X67004417Y3226978D01*
X66877022Y3099583D01*
X66727224Y2999491D01*
X66560778Y2930547D01*
X66384082Y2895400D01*
X66203918Y2895400D01*
X66027222Y2930547D01*
X65860776Y2999491D01*
X65710978Y3099583D01*
X65583583Y3226978D01*
X65483491Y3376776D01*
X65414547Y3543222D01*
X65379400Y3719918D01*
X65379400Y3900082D01*
X65414547Y4076778D01*
X65483491Y4243224D01*
X65583583Y4393022D01*
X65710978Y4520417D01*
X65860776Y4620509D01*
X66027222Y4689453D01*
X66203918Y4724600D01*
X66384082Y4724600D01*
X66560778Y4689453D01*
G37*
G36*
X76720778Y4689453D02*
G01*
X76887224Y4620509D01*
X77037022Y4520417D01*
X77164417Y4393022D01*
X77264509Y4243224D01*
X77333453Y4076778D01*
X77368600Y3900082D01*
X77368600Y3719918D01*
X77333453Y3543222D01*
X77264509Y3376776D01*
X77164417Y3226978D01*
X77037022Y3099583D01*
X76887224Y2999491D01*
X76720778Y2930547D01*
X76544082Y2895400D01*
X76363918Y2895400D01*
X76187222Y2930547D01*
X76020776Y2999491D01*
X75870978Y3099583D01*
X75743583Y3226978D01*
X75643491Y3376776D01*
X75574547Y3543222D01*
X75539400Y3719918D01*
X75539400Y3900082D01*
X75574547Y4076778D01*
X75643491Y4243224D01*
X75743583Y4393022D01*
X75870978Y4520417D01*
X76020776Y4620509D01*
X76187222Y4689453D01*
X76363918Y4724600D01*
X76544082Y4724600D01*
X76720778Y4689453D01*
G37*
G36*
X71640778Y4689453D02*
G01*
X71807224Y4620509D01*
X71957022Y4520417D01*
X72084417Y4393022D01*
X72184509Y4243224D01*
X72253453Y4076778D01*
X72288600Y3900082D01*
X72288600Y3719918D01*
X72253453Y3543222D01*
X72184509Y3376776D01*
X72084417Y3226978D01*
X71957022Y3099583D01*
X71807224Y2999491D01*
X71640778Y2930547D01*
X71464082Y2895400D01*
X71283918Y2895400D01*
X71107222Y2930547D01*
X70940776Y2999491D01*
X70790978Y3099583D01*
X70663583Y3226978D01*
X70563491Y3376776D01*
X70494547Y3543222D01*
X70459400Y3719918D01*
X70459400Y3900082D01*
X70494547Y4076778D01*
X70563491Y4243224D01*
X70663583Y4393022D01*
X70790978Y4520417D01*
X70940776Y4620509D01*
X71107222Y4689453D01*
X71283918Y4724600D01*
X71464082Y4724600D01*
X71640778Y4689453D01*
G37*
G36*
X74180778Y4689453D02*
G01*
X74347224Y4620509D01*
X74497022Y4520417D01*
X74624417Y4393022D01*
X74724509Y4243224D01*
X74793453Y4076778D01*
X74828600Y3900082D01*
X74828600Y3719918D01*
X74793453Y3543222D01*
X74724509Y3376776D01*
X74624417Y3226978D01*
X74497022Y3099583D01*
X74347224Y2999491D01*
X74180778Y2930547D01*
X74004082Y2895400D01*
X73823918Y2895400D01*
X73647222Y2930547D01*
X73480776Y2999491D01*
X73330978Y3099583D01*
X73203583Y3226978D01*
X73103491Y3376776D01*
X73034547Y3543222D01*
X72999400Y3719918D01*
X72999400Y3900082D01*
X73034547Y4076778D01*
X73103491Y4243224D01*
X73203583Y4393022D01*
X73330978Y4520417D01*
X73480776Y4620509D01*
X73647222Y4689453D01*
X73823918Y4724600D01*
X74004082Y4724600D01*
X74180778Y4689453D01*
G37*
G36*
X44208778Y4689453D02*
G01*
X44375224Y4620509D01*
X44525022Y4520417D01*
X44652417Y4393022D01*
X44752509Y4243224D01*
X44821453Y4076778D01*
X44856600Y3900082D01*
X44856600Y3719918D01*
X44821453Y3543222D01*
X44752509Y3376776D01*
X44652417Y3226978D01*
X44525022Y3099583D01*
X44375224Y2999491D01*
X44208778Y2930547D01*
X44032082Y2895400D01*
X43851918Y2895400D01*
X43675222Y2930547D01*
X43508776Y2999491D01*
X43358978Y3099583D01*
X43231583Y3226978D01*
X43131491Y3376776D01*
X43062547Y3543222D01*
X43027400Y3719918D01*
X43027400Y3900082D01*
X43062547Y4076778D01*
X43131491Y4243224D01*
X43231583Y4393022D01*
X43358978Y4520417D01*
X43508776Y4620509D01*
X43675222Y4689453D01*
X43851918Y4724600D01*
X44032082Y4724600D01*
X44208778Y4689453D01*
G37*
G36*
X46748778Y4689453D02*
G01*
X46915224Y4620509D01*
X47065022Y4520417D01*
X47192417Y4393022D01*
X47292509Y4243224D01*
X47361453Y4076778D01*
X47396600Y3900082D01*
X47396600Y3719918D01*
X47361453Y3543222D01*
X47292509Y3376776D01*
X47192417Y3226978D01*
X47065022Y3099583D01*
X46915224Y2999491D01*
X46748778Y2930547D01*
X46572082Y2895400D01*
X46391918Y2895400D01*
X46215222Y2930547D01*
X46048776Y2999491D01*
X45898978Y3099583D01*
X45771583Y3226978D01*
X45671491Y3376776D01*
X45602547Y3543222D01*
X45567400Y3719918D01*
X45567400Y3900082D01*
X45602547Y4076778D01*
X45671491Y4243224D01*
X45771583Y4393022D01*
X45898978Y4520417D01*
X46048776Y4620509D01*
X46215222Y4689453D01*
X46391918Y4724600D01*
X46572082Y4724600D01*
X46748778Y4689453D01*
G37*
G36*
X49288778Y4689453D02*
G01*
X49455224Y4620509D01*
X49605022Y4520417D01*
X49732417Y4393022D01*
X49832509Y4243224D01*
X49901453Y4076778D01*
X49936600Y3900082D01*
X49936600Y3719918D01*
X49901453Y3543222D01*
X49832509Y3376776D01*
X49732417Y3226978D01*
X49605022Y3099583D01*
X49455224Y2999491D01*
X49288778Y2930547D01*
X49112082Y2895400D01*
X48931918Y2895400D01*
X48755222Y2930547D01*
X48588776Y2999491D01*
X48438978Y3099583D01*
X48311583Y3226978D01*
X48211491Y3376776D01*
X48142547Y3543222D01*
X48107400Y3719918D01*
X48107400Y3900082D01*
X48142547Y4076778D01*
X48211491Y4243224D01*
X48311583Y4393022D01*
X48438978Y4520417D01*
X48588776Y4620509D01*
X48755222Y4689453D01*
X48931918Y4724600D01*
X49112082Y4724600D01*
X49288778Y4689453D01*
G37*
G36*
X51828778Y4689453D02*
G01*
X51995224Y4620509D01*
X52145022Y4520417D01*
X52272417Y4393022D01*
X52372509Y4243224D01*
X52441453Y4076778D01*
X52476600Y3900082D01*
X52476600Y3719918D01*
X52441453Y3543222D01*
X52372509Y3376776D01*
X52272417Y3226978D01*
X52145022Y3099583D01*
X51995224Y2999491D01*
X51828778Y2930547D01*
X51652082Y2895400D01*
X51471918Y2895400D01*
X51295222Y2930547D01*
X51128776Y2999491D01*
X50978978Y3099583D01*
X50851583Y3226978D01*
X50751491Y3376776D01*
X50682547Y3543222D01*
X50647400Y3719918D01*
X50647400Y3900082D01*
X50682547Y4076778D01*
X50751491Y4243224D01*
X50851583Y4393022D01*
X50978978Y4520417D01*
X51128776Y4620509D01*
X51295222Y4689453D01*
X51471918Y4724600D01*
X51652082Y4724600D01*
X51828778Y4689453D01*
G37*
G36*
X54368778Y4689453D02*
G01*
X54535224Y4620509D01*
X54685022Y4520417D01*
X54812417Y4393022D01*
X54912509Y4243224D01*
X54981453Y4076778D01*
X55016600Y3900082D01*
X55016600Y3719918D01*
X54981453Y3543222D01*
X54912509Y3376776D01*
X54812417Y3226978D01*
X54685022Y3099583D01*
X54535224Y2999491D01*
X54368778Y2930547D01*
X54192082Y2895400D01*
X54011918Y2895400D01*
X53835222Y2930547D01*
X53668776Y2999491D01*
X53518978Y3099583D01*
X53391583Y3226978D01*
X53291491Y3376776D01*
X53222547Y3543222D01*
X53187400Y3719918D01*
X53187400Y3900082D01*
X53222547Y4076778D01*
X53291491Y4243224D01*
X53391583Y4393022D01*
X53518978Y4520417D01*
X53668776Y4620509D01*
X53835222Y4689453D01*
X54011918Y4724600D01*
X54192082Y4724600D01*
X54368778Y4689453D01*
G37*
G36*
X23264512Y5686073D02*
G01*
X23413812Y5656376D01*
X23577784Y5588456D01*
X23725354Y5489853D01*
X23850853Y5364354D01*
X23949456Y5216784D01*
X24017376Y5052812D01*
X24037229Y4953000D01*
X24049850Y4889553D01*
X24052000Y4878741D01*
X24052000Y4701259D01*
X24017376Y4527188D01*
X23949456Y4363216D01*
X23850853Y4215646D01*
X23725354Y4090147D01*
X23577784Y3991544D01*
X23413812Y3923624D01*
X23264512Y3893927D01*
X23239742Y3889000D01*
X23062258Y3889000D01*
X23037488Y3893927D01*
X22888188Y3923624D01*
X22724216Y3991544D01*
X22576646Y4090147D01*
X22451147Y4215646D01*
X22352544Y4363216D01*
X22284624Y4527188D01*
X22250000Y4701259D01*
X22250000Y4878741D01*
X22252151Y4889553D01*
X22264771Y4953000D01*
X22284624Y5052812D01*
X22352544Y5216784D01*
X22451147Y5364354D01*
X22576646Y5489853D01*
X22724216Y5588456D01*
X22888188Y5656376D01*
X23037488Y5686073D01*
X23062258Y5691000D01*
X23239742Y5691000D01*
X23264512Y5686073D01*
G37*
G36*
X35964512Y5686073D02*
G01*
X36113812Y5656376D01*
X36277784Y5588456D01*
X36425354Y5489853D01*
X36550853Y5364354D01*
X36649456Y5216784D01*
X36717376Y5052812D01*
X36737229Y4953000D01*
X36749850Y4889553D01*
X36752000Y4878741D01*
X36752000Y4701259D01*
X36717376Y4527188D01*
X36649456Y4363216D01*
X36550853Y4215646D01*
X36425354Y4090147D01*
X36277784Y3991544D01*
X36113812Y3923624D01*
X35964512Y3893927D01*
X35939742Y3889000D01*
X35762258Y3889000D01*
X35737488Y3893927D01*
X35588188Y3923624D01*
X35424216Y3991544D01*
X35276646Y4090147D01*
X35151147Y4215646D01*
X35052544Y4363216D01*
X34984624Y4527188D01*
X34950000Y4701259D01*
X34950000Y4878741D01*
X34952151Y4889553D01*
X34964771Y4953000D01*
X34984624Y5052812D01*
X35052544Y5216784D01*
X35151147Y5364354D01*
X35276646Y5489853D01*
X35424216Y5588456D01*
X35588188Y5656376D01*
X35737488Y5686073D01*
X35762258Y5691000D01*
X35939742Y5691000D01*
X35964512Y5686073D01*
G37*
G36*
X33424512Y5686073D02*
G01*
X33573812Y5656376D01*
X33737784Y5588456D01*
X33885354Y5489853D01*
X34010853Y5364354D01*
X34109456Y5216784D01*
X34177376Y5052812D01*
X34197229Y4953000D01*
X34209850Y4889553D01*
X34212000Y4878741D01*
X34212000Y4701259D01*
X34177376Y4527188D01*
X34109456Y4363216D01*
X34010853Y4215646D01*
X33885354Y4090147D01*
X33737784Y3991544D01*
X33573812Y3923624D01*
X33424512Y3893927D01*
X33399742Y3889000D01*
X33222258Y3889000D01*
X33197488Y3893927D01*
X33048188Y3923624D01*
X32884216Y3991544D01*
X32736646Y4090147D01*
X32611147Y4215646D01*
X32512544Y4363216D01*
X32444624Y4527188D01*
X32410000Y4701259D01*
X32410000Y4878741D01*
X32412151Y4889553D01*
X32424771Y4953000D01*
X32444624Y5052812D01*
X32512544Y5216784D01*
X32611147Y5364354D01*
X32736646Y5489853D01*
X32884216Y5588456D01*
X33048188Y5656376D01*
X33197488Y5686073D01*
X33222258Y5691000D01*
X33399742Y5691000D01*
X33424512Y5686073D01*
G37*
G36*
X30884512Y5686073D02*
G01*
X31033812Y5656376D01*
X31197784Y5588456D01*
X31345354Y5489853D01*
X31470853Y5364354D01*
X31569456Y5216784D01*
X31637376Y5052812D01*
X31657229Y4953000D01*
X31669850Y4889553D01*
X31672000Y4878741D01*
X31672000Y4701259D01*
X31637376Y4527188D01*
X31569456Y4363216D01*
X31470853Y4215646D01*
X31345354Y4090147D01*
X31197784Y3991544D01*
X31033812Y3923624D01*
X30884512Y3893927D01*
X30859742Y3889000D01*
X30682258Y3889000D01*
X30657488Y3893927D01*
X30508188Y3923624D01*
X30344216Y3991544D01*
X30196646Y4090147D01*
X30071147Y4215646D01*
X29972544Y4363216D01*
X29904624Y4527188D01*
X29870000Y4701259D01*
X29870000Y4878741D01*
X29872151Y4889553D01*
X29884771Y4953000D01*
X29904624Y5052812D01*
X29972544Y5216784D01*
X30071147Y5364354D01*
X30196646Y5489853D01*
X30344216Y5588456D01*
X30508188Y5656376D01*
X30657488Y5686073D01*
X30682258Y5691000D01*
X30859742Y5691000D01*
X30884512Y5686073D01*
G37*
G36*
X28344512Y5686073D02*
G01*
X28493812Y5656376D01*
X28657784Y5588456D01*
X28805354Y5489853D01*
X28930853Y5364354D01*
X29029456Y5216784D01*
X29097376Y5052812D01*
X29117229Y4953000D01*
X29129850Y4889553D01*
X29132000Y4878741D01*
X29132000Y4701259D01*
X29097376Y4527188D01*
X29029456Y4363216D01*
X28930853Y4215646D01*
X28805354Y4090147D01*
X28657784Y3991544D01*
X28493812Y3923624D01*
X28344512Y3893927D01*
X28319742Y3889000D01*
X28142258Y3889000D01*
X28117488Y3893927D01*
X27968188Y3923624D01*
X27804216Y3991544D01*
X27656646Y4090147D01*
X27531147Y4215646D01*
X27432544Y4363216D01*
X27364624Y4527188D01*
X27330000Y4701259D01*
X27330000Y4878741D01*
X27332151Y4889553D01*
X27344771Y4953000D01*
X27364624Y5052812D01*
X27432544Y5216784D01*
X27531147Y5364354D01*
X27656646Y5489853D01*
X27804216Y5588456D01*
X27968188Y5656376D01*
X28117488Y5686073D01*
X28142258Y5691000D01*
X28319742Y5691000D01*
X28344512Y5686073D01*
G37*
G36*
X25804512Y5686073D02*
G01*
X25953812Y5656376D01*
X26117784Y5588456D01*
X26265354Y5489853D01*
X26390853Y5364354D01*
X26489456Y5216784D01*
X26557376Y5052812D01*
X26577229Y4953000D01*
X26589850Y4889553D01*
X26592000Y4878741D01*
X26592000Y4701259D01*
X26557376Y4527188D01*
X26489456Y4363216D01*
X26390853Y4215646D01*
X26265354Y4090147D01*
X26117784Y3991544D01*
X25953812Y3923624D01*
X25804512Y3893927D01*
X25779742Y3889000D01*
X25602258Y3889000D01*
X25577488Y3893927D01*
X25428188Y3923624D01*
X25264216Y3991544D01*
X25116646Y4090147D01*
X24991147Y4215646D01*
X24892544Y4363216D01*
X24824624Y4527188D01*
X24790000Y4701259D01*
X24790000Y4878741D01*
X24792151Y4889553D01*
X24804771Y4953000D01*
X24824624Y5052812D01*
X24892544Y5216784D01*
X24991147Y5364354D01*
X25116646Y5489853D01*
X25264216Y5588456D01*
X25428188Y5656376D01*
X25577488Y5686073D01*
X25602258Y5691000D01*
X25779742Y5691000D01*
X25804512Y5686073D01*
G37*
G36*
X21512000Y3889000D02*
G01*
X19710000Y3889000D01*
X19710000Y5691000D01*
X21512000Y5691000D01*
X21512000Y3889000D01*
G37*
G36*
X74180778Y7229453D02*
G01*
X74347224Y7160509D01*
X74497022Y7060417D01*
X74624417Y6933022D01*
X74724509Y6783224D01*
X74793453Y6616778D01*
X74828600Y6440082D01*
X74828600Y6259918D01*
X74793453Y6083222D01*
X74724509Y5916776D01*
X74624417Y5766978D01*
X74497022Y5639583D01*
X74347224Y5539491D01*
X74180778Y5470547D01*
X74004082Y5435400D01*
X73823918Y5435400D01*
X73647222Y5470547D01*
X73480776Y5539491D01*
X73330978Y5639583D01*
X73203583Y5766978D01*
X73103491Y5916776D01*
X73034547Y6083222D01*
X72999400Y6259918D01*
X72999400Y6440082D01*
X73034547Y6616778D01*
X73103491Y6783224D01*
X73203583Y6933022D01*
X73330978Y7060417D01*
X73480776Y7160509D01*
X73647222Y7229453D01*
X73823918Y7264600D01*
X74004082Y7264600D01*
X74180778Y7229453D01*
G37*
G36*
X71640778Y7229453D02*
G01*
X71807224Y7160509D01*
X71957022Y7060417D01*
X72084417Y6933022D01*
X72184509Y6783224D01*
X72253453Y6616778D01*
X72288600Y6440082D01*
X72288600Y6259918D01*
X72253453Y6083222D01*
X72184509Y5916776D01*
X72084417Y5766978D01*
X71957022Y5639583D01*
X71807224Y5539491D01*
X71640778Y5470547D01*
X71464082Y5435400D01*
X71283918Y5435400D01*
X71107222Y5470547D01*
X70940776Y5539491D01*
X70790978Y5639583D01*
X70663583Y5766978D01*
X70563491Y5916776D01*
X70494547Y6083222D01*
X70459400Y6259918D01*
X70459400Y6440082D01*
X70494547Y6616778D01*
X70563491Y6783224D01*
X70663583Y6933022D01*
X70790978Y7060417D01*
X70940776Y7160509D01*
X71107222Y7229453D01*
X71283918Y7264600D01*
X71464082Y7264600D01*
X71640778Y7229453D01*
G37*
G36*
X67208600Y5435400D02*
G01*
X65379400Y5435400D01*
X65379400Y7264600D01*
X67208600Y7264600D01*
X67208600Y5435400D01*
G37*
G36*
X69100778Y7229453D02*
G01*
X69267224Y7160509D01*
X69417022Y7060417D01*
X69544417Y6933022D01*
X69644509Y6783224D01*
X69713453Y6616778D01*
X69748600Y6440082D01*
X69748600Y6259918D01*
X69713453Y6083222D01*
X69644509Y5916776D01*
X69544417Y5766978D01*
X69417022Y5639583D01*
X69267224Y5539491D01*
X69100778Y5470547D01*
X68924082Y5435400D01*
X68743918Y5435400D01*
X68567222Y5470547D01*
X68400776Y5539491D01*
X68250978Y5639583D01*
X68123583Y5766978D01*
X68023491Y5916776D01*
X67954547Y6083222D01*
X67919400Y6259918D01*
X67919400Y6440082D01*
X67954547Y6616778D01*
X68023491Y6783224D01*
X68123583Y6933022D01*
X68250978Y7060417D01*
X68400776Y7160509D01*
X68567222Y7229453D01*
X68743918Y7264600D01*
X68924082Y7264600D01*
X69100778Y7229453D01*
G37*
G36*
X76720778Y7229453D02*
G01*
X76887224Y7160509D01*
X77037022Y7060417D01*
X77164417Y6933022D01*
X77264509Y6783224D01*
X77333453Y6616778D01*
X77368600Y6440082D01*
X77368600Y6259918D01*
X77333453Y6083222D01*
X77264509Y5916776D01*
X77164417Y5766978D01*
X77037022Y5639583D01*
X76887224Y5539491D01*
X76720778Y5470547D01*
X76544082Y5435400D01*
X76363918Y5435400D01*
X76187222Y5470547D01*
X76020776Y5539491D01*
X75870978Y5639583D01*
X75743583Y5766978D01*
X75643491Y5916776D01*
X75574547Y6083222D01*
X75539400Y6259918D01*
X75539400Y6440082D01*
X75574547Y6616778D01*
X75643491Y6783224D01*
X75743583Y6933022D01*
X75870978Y7060417D01*
X76020776Y7160509D01*
X76187222Y7229453D01*
X76363918Y7264600D01*
X76544082Y7264600D01*
X76720778Y7229453D01*
G37*
G36*
X54368778Y7229453D02*
G01*
X54535224Y7160509D01*
X54685022Y7060417D01*
X54812417Y6933022D01*
X54912509Y6783224D01*
X54981453Y6616778D01*
X55016600Y6440082D01*
X55016600Y6259918D01*
X54981453Y6083222D01*
X54912509Y5916776D01*
X54812417Y5766978D01*
X54685022Y5639583D01*
X54535224Y5539491D01*
X54368778Y5470547D01*
X54192082Y5435400D01*
X54011918Y5435400D01*
X53835222Y5470547D01*
X53668776Y5539491D01*
X53518978Y5639583D01*
X53391583Y5766978D01*
X53291491Y5916776D01*
X53222547Y6083222D01*
X53187400Y6259918D01*
X53187400Y6440082D01*
X53222547Y6616778D01*
X53291491Y6783224D01*
X53391583Y6933022D01*
X53518978Y7060417D01*
X53668776Y7160509D01*
X53835222Y7229453D01*
X54011918Y7264600D01*
X54192082Y7264600D01*
X54368778Y7229453D01*
G37*
G36*
X51828778Y7229453D02*
G01*
X51995224Y7160509D01*
X52145022Y7060417D01*
X52272417Y6933022D01*
X52372509Y6783224D01*
X52441453Y6616778D01*
X52476600Y6440082D01*
X52476600Y6259918D01*
X52441453Y6083222D01*
X52372509Y5916776D01*
X52272417Y5766978D01*
X52145022Y5639583D01*
X51995224Y5539491D01*
X51828778Y5470547D01*
X51652082Y5435400D01*
X51471918Y5435400D01*
X51295222Y5470547D01*
X51128776Y5539491D01*
X50978978Y5639583D01*
X50851583Y5766978D01*
X50751491Y5916776D01*
X50682547Y6083222D01*
X50647400Y6259918D01*
X50647400Y6440082D01*
X50682547Y6616778D01*
X50751491Y6783224D01*
X50851583Y6933022D01*
X50978978Y7060417D01*
X51128776Y7160509D01*
X51295222Y7229453D01*
X51471918Y7264600D01*
X51652082Y7264600D01*
X51828778Y7229453D01*
G37*
G36*
X49288778Y7229453D02*
G01*
X49455224Y7160509D01*
X49605022Y7060417D01*
X49732417Y6933022D01*
X49832509Y6783224D01*
X49901453Y6616778D01*
X49936600Y6440082D01*
X49936600Y6259918D01*
X49901453Y6083222D01*
X49832509Y5916776D01*
X49732417Y5766978D01*
X49605022Y5639583D01*
X49455224Y5539491D01*
X49288778Y5470547D01*
X49112082Y5435400D01*
X48931918Y5435400D01*
X48755222Y5470547D01*
X48588776Y5539491D01*
X48438978Y5639583D01*
X48311583Y5766978D01*
X48211491Y5916776D01*
X48142547Y6083222D01*
X48107400Y6259918D01*
X48107400Y6440082D01*
X48142547Y6616778D01*
X48211491Y6783224D01*
X48311583Y6933022D01*
X48438978Y7060417D01*
X48588776Y7160509D01*
X48755222Y7229453D01*
X48931918Y7264600D01*
X49112082Y7264600D01*
X49288778Y7229453D01*
G37*
G36*
X46748778Y7229453D02*
G01*
X46915224Y7160509D01*
X47065022Y7060417D01*
X47192417Y6933022D01*
X47292509Y6783224D01*
X47361453Y6616778D01*
X47396600Y6440082D01*
X47396600Y6259918D01*
X47361453Y6083222D01*
X47292509Y5916776D01*
X47192417Y5766978D01*
X47065022Y5639583D01*
X46915224Y5539491D01*
X46748778Y5470547D01*
X46572082Y5435400D01*
X46391918Y5435400D01*
X46215222Y5470547D01*
X46048776Y5539491D01*
X45898978Y5639583D01*
X45771583Y5766978D01*
X45671491Y5916776D01*
X45602547Y6083222D01*
X45567400Y6259918D01*
X45567400Y6440082D01*
X45602547Y6616778D01*
X45671491Y6783224D01*
X45771583Y6933022D01*
X45898978Y7060417D01*
X46048776Y7160509D01*
X46215222Y7229453D01*
X46391918Y7264600D01*
X46572082Y7264600D01*
X46748778Y7229453D01*
G37*
G36*
X44856600Y5435400D02*
G01*
X43027400Y5435400D01*
X43027400Y7264600D01*
X44856600Y7264600D01*
X44856600Y5435400D01*
G37*
G36*
X111702512Y9789073D02*
G01*
X111851812Y9759376D01*
X112015784Y9691456D01*
X112163354Y9592853D01*
X112288853Y9467354D01*
X112387456Y9319784D01*
X112455376Y9155812D01*
X112490000Y8981741D01*
X112490000Y8804259D01*
X112455376Y8630188D01*
X112387456Y8466216D01*
X112288853Y8318646D01*
X112163354Y8193147D01*
X112015784Y8094544D01*
X111851812Y8026624D01*
X111702512Y7996927D01*
X111677742Y7992000D01*
X111500258Y7992000D01*
X111475488Y7996927D01*
X111326188Y8026624D01*
X111162216Y8094544D01*
X111014646Y8193147D01*
X110889147Y8318646D01*
X110790544Y8466216D01*
X110722624Y8630188D01*
X110688000Y8804259D01*
X110688000Y8981741D01*
X110722624Y9155812D01*
X110790544Y9319784D01*
X110889147Y9467354D01*
X111014646Y9592853D01*
X111162216Y9691456D01*
X111326188Y9759376D01*
X111475488Y9789073D01*
X111500258Y9794000D01*
X111677742Y9794000D01*
X111702512Y9789073D01*
G37*
G36*
X106622512Y9789073D02*
G01*
X106771812Y9759376D01*
X106935784Y9691456D01*
X107083354Y9592853D01*
X107208853Y9467354D01*
X107307456Y9319784D01*
X107375376Y9155812D01*
X107410000Y8981741D01*
X107410000Y8804259D01*
X107375376Y8630188D01*
X107307456Y8466216D01*
X107208853Y8318646D01*
X107083354Y8193147D01*
X106935784Y8094544D01*
X106771812Y8026624D01*
X106622512Y7996927D01*
X106597742Y7992000D01*
X106420258Y7992000D01*
X106395488Y7996927D01*
X106246188Y8026624D01*
X106082216Y8094544D01*
X105934646Y8193147D01*
X105809147Y8318646D01*
X105710544Y8466216D01*
X105642624Y8630188D01*
X105608000Y8804259D01*
X105608000Y8981741D01*
X105642624Y9155812D01*
X105710544Y9319784D01*
X105809147Y9467354D01*
X105934646Y9592853D01*
X106082216Y9691456D01*
X106246188Y9759376D01*
X106395488Y9789073D01*
X106420258Y9794000D01*
X106597742Y9794000D01*
X106622512Y9789073D01*
G37*
G36*
X109162512Y9789073D02*
G01*
X109311812Y9759376D01*
X109475784Y9691456D01*
X109623354Y9592853D01*
X109748853Y9467354D01*
X109847456Y9319784D01*
X109915376Y9155812D01*
X109950000Y8981741D01*
X109950000Y8804259D01*
X109915376Y8630188D01*
X109847456Y8466216D01*
X109748853Y8318646D01*
X109623354Y8193147D01*
X109475784Y8094544D01*
X109311812Y8026624D01*
X109162512Y7996927D01*
X109137742Y7992000D01*
X108960258Y7992000D01*
X108935488Y7996927D01*
X108786188Y8026624D01*
X108622216Y8094544D01*
X108474646Y8193147D01*
X108349147Y8318646D01*
X108250544Y8466216D01*
X108182624Y8630188D01*
X108148000Y8804259D01*
X108148000Y8981741D01*
X108182624Y9155812D01*
X108250544Y9319784D01*
X108349147Y9467354D01*
X108474646Y9592853D01*
X108622216Y9691456D01*
X108786188Y9759376D01*
X108935488Y9789073D01*
X108960258Y9794000D01*
X109137742Y9794000D01*
X109162512Y9789073D01*
G37*
G36*
X104082512Y9789073D02*
G01*
X104231812Y9759376D01*
X104395784Y9691456D01*
X104543354Y9592853D01*
X104668853Y9467354D01*
X104767456Y9319784D01*
X104835376Y9155812D01*
X104870000Y8981741D01*
X104870000Y8804259D01*
X104835376Y8630188D01*
X104767456Y8466216D01*
X104668853Y8318646D01*
X104543354Y8193147D01*
X104395784Y8094544D01*
X104231812Y8026624D01*
X104082512Y7996927D01*
X104057742Y7992000D01*
X103880258Y7992000D01*
X103855488Y7996927D01*
X103706188Y8026624D01*
X103542216Y8094544D01*
X103394646Y8193147D01*
X103269147Y8318646D01*
X103170544Y8466216D01*
X103102624Y8630188D01*
X103068000Y8804259D01*
X103068000Y8981741D01*
X103102624Y9155812D01*
X103170544Y9319784D01*
X103269147Y9467354D01*
X103394646Y9592853D01*
X103542216Y9691456D01*
X103706188Y9759376D01*
X103855488Y9789073D01*
X103880258Y9794000D01*
X104057742Y9794000D01*
X104082512Y9789073D01*
G37*
G36*
X102330000Y7992000D02*
G01*
X100528000Y7992000D01*
X100528000Y9794000D01*
X102330000Y9794000D01*
X102330000Y7992000D01*
G37*
G36*
X49219428Y14788297D02*
G01*
X49374300Y14724147D01*
X49513681Y14631015D01*
X49632215Y14512481D01*
X49725347Y14373100D01*
X49789497Y14218228D01*
X49822200Y14053816D01*
X49822200Y13886184D01*
X49789497Y13721772D01*
X49725347Y13566900D01*
X49632215Y13427519D01*
X49513681Y13308985D01*
X49374300Y13215853D01*
X49219428Y13151703D01*
X49055016Y13119000D01*
X48887384Y13119000D01*
X48722972Y13151703D01*
X48568100Y13215853D01*
X48428719Y13308985D01*
X48310185Y13427519D01*
X48217053Y13566900D01*
X48152903Y13721772D01*
X48120200Y13886184D01*
X48120200Y14053816D01*
X48152903Y14218228D01*
X48217053Y14373100D01*
X48310185Y14512481D01*
X48428719Y14631015D01*
X48568100Y14724147D01*
X48722972Y14788297D01*
X48887384Y14821000D01*
X49055016Y14821000D01*
X49219428Y14788297D01*
G37*
G36*
X41599428Y14788297D02*
G01*
X41754300Y14724147D01*
X41893681Y14631015D01*
X42012215Y14512481D01*
X42105347Y14373100D01*
X42169497Y14218228D01*
X42202200Y14053816D01*
X42202200Y13886184D01*
X42169497Y13721772D01*
X42105347Y13566900D01*
X42012215Y13427519D01*
X41893681Y13308985D01*
X41754300Y13215853D01*
X41599428Y13151703D01*
X41435016Y13119000D01*
X41267384Y13119000D01*
X41102972Y13151703D01*
X40948100Y13215853D01*
X40808719Y13308985D01*
X40690185Y13427519D01*
X40597053Y13566900D01*
X40532903Y13721772D01*
X40500200Y13886184D01*
X40500200Y14053816D01*
X40532903Y14218228D01*
X40597053Y14373100D01*
X40690185Y14512481D01*
X40808719Y14631015D01*
X40948100Y14724147D01*
X41102972Y14788297D01*
X41267384Y14821000D01*
X41435016Y14821000D01*
X41599428Y14788297D01*
G37*
G36*
X38653028Y14788297D02*
G01*
X38807900Y14724147D01*
X38947281Y14631015D01*
X39065815Y14512481D01*
X39158947Y14373100D01*
X39223097Y14218228D01*
X39255800Y14053816D01*
X39255800Y13886184D01*
X39223097Y13721772D01*
X39158947Y13566900D01*
X39065815Y13427519D01*
X38947281Y13308985D01*
X38807900Y13215853D01*
X38653028Y13151703D01*
X38488616Y13119000D01*
X38320984Y13119000D01*
X38156572Y13151703D01*
X38001700Y13215853D01*
X37862319Y13308985D01*
X37743785Y13427519D01*
X37650653Y13566900D01*
X37586503Y13721772D01*
X37553800Y13886184D01*
X37553800Y14053816D01*
X37586503Y14218228D01*
X37650653Y14373100D01*
X37743785Y14512481D01*
X37862319Y14631015D01*
X38001700Y14724147D01*
X38156572Y14788297D01*
X38320984Y14821000D01*
X38488616Y14821000D01*
X38653028Y14788297D01*
G37*
G36*
X31033028Y14788297D02*
G01*
X31187900Y14724147D01*
X31327281Y14631015D01*
X31445815Y14512481D01*
X31538947Y14373100D01*
X31603097Y14218228D01*
X31635800Y14053816D01*
X31635800Y13886184D01*
X31603097Y13721772D01*
X31538947Y13566900D01*
X31445815Y13427519D01*
X31327281Y13308985D01*
X31187900Y13215853D01*
X31033028Y13151703D01*
X30868616Y13119000D01*
X30700984Y13119000D01*
X30536572Y13151703D01*
X30381700Y13215853D01*
X30242319Y13308985D01*
X30123785Y13427519D01*
X30030653Y13566900D01*
X29966503Y13721772D01*
X29933800Y13886184D01*
X29933800Y14053816D01*
X29966503Y14218228D01*
X30030653Y14373100D01*
X30123785Y14512481D01*
X30242319Y14631015D01*
X30381700Y14724147D01*
X30536572Y14788297D01*
X30700984Y14821000D01*
X30868616Y14821000D01*
X31033028Y14788297D01*
G37*
G36*
X14335000Y13381000D02*
G01*
X12533000Y13381000D01*
X12533000Y15183000D01*
X14335000Y15183000D01*
X14335000Y13381000D01*
G37*
G36*
X53345059Y15250940D02*
G01*
X53481732Y15194328D01*
X53604735Y15112140D01*
X53709340Y15007535D01*
X53791528Y14884532D01*
X53848140Y14747859D01*
X53877000Y14602767D01*
X53877000Y14454833D01*
X53848140Y14309741D01*
X53791528Y14173068D01*
X53709340Y14050065D01*
X53604735Y13945460D01*
X53481732Y13863272D01*
X53481731Y13863271D01*
X53481730Y13863271D01*
X53345059Y13806660D01*
X53199968Y13777800D01*
X53052032Y13777800D01*
X52906941Y13806660D01*
X52770270Y13863271D01*
X52770269Y13863271D01*
X52770268Y13863272D01*
X52647265Y13945460D01*
X52542660Y14050065D01*
X52460472Y14173068D01*
X52403860Y14309741D01*
X52375000Y14454833D01*
X52375000Y14602767D01*
X52403860Y14747859D01*
X52460472Y14884532D01*
X52542660Y15007535D01*
X52647265Y15112140D01*
X52770268Y15194328D01*
X52906941Y15250940D01*
X53052032Y15279800D01*
X53199968Y15279800D01*
X53345059Y15250940D01*
G37*
G36*
X55845059Y15250940D02*
G01*
X55981732Y15194328D01*
X56104735Y15112140D01*
X56209340Y15007535D01*
X56291528Y14884532D01*
X56348140Y14747859D01*
X56377000Y14602767D01*
X56377000Y14454833D01*
X56348140Y14309741D01*
X56291528Y14173068D01*
X56209340Y14050065D01*
X56104735Y13945460D01*
X55981732Y13863272D01*
X55981731Y13863271D01*
X55981730Y13863271D01*
X55845059Y13806660D01*
X55699968Y13777800D01*
X55552032Y13777800D01*
X55406941Y13806660D01*
X55270270Y13863271D01*
X55270269Y13863271D01*
X55270268Y13863272D01*
X55147265Y13945460D01*
X55042660Y14050065D01*
X54960472Y14173068D01*
X54903860Y14309741D01*
X54875000Y14454833D01*
X54875000Y14602767D01*
X54903860Y14747859D01*
X54960472Y14884532D01*
X55042660Y15007535D01*
X55147265Y15112140D01*
X55270268Y15194328D01*
X55406941Y15250940D01*
X55552032Y15279800D01*
X55699968Y15279800D01*
X55845059Y15250940D01*
G37*
G36*
X13547512Y17718073D02*
G01*
X13696812Y17688376D01*
X13860784Y17620456D01*
X14008354Y17521853D01*
X14133853Y17396354D01*
X14232456Y17248784D01*
X14300376Y17084812D01*
X14335000Y16910741D01*
X14335000Y16733259D01*
X14300376Y16559188D01*
X14232456Y16395216D01*
X14133853Y16247646D01*
X14008354Y16122147D01*
X13860784Y16023544D01*
X13696812Y15955624D01*
X13547512Y15925927D01*
X13522742Y15921000D01*
X13345258Y15921000D01*
X13320488Y15925927D01*
X13171188Y15955624D01*
X13007216Y16023544D01*
X12859646Y16122147D01*
X12734147Y16247646D01*
X12635544Y16395216D01*
X12567624Y16559188D01*
X12533000Y16733259D01*
X12533000Y16910741D01*
X12567624Y17084812D01*
X12635544Y17248784D01*
X12734147Y17396354D01*
X12859646Y17521853D01*
X13007216Y17620456D01*
X13171188Y17688376D01*
X13320488Y17718073D01*
X13345258Y17723000D01*
X13522742Y17723000D01*
X13547512Y17718073D01*
G37*
G36*
X54468916Y18877466D02*
G01*
X54577492Y18844529D01*
X54577495Y18844528D01*
X54613601Y18825229D01*
X54677557Y18791044D01*
X54765264Y18719064D01*
X54828383Y18642154D01*
X54845702Y18624835D01*
X54866077Y18611221D01*
X54888716Y18601843D01*
X54912749Y18597063D01*
X54937253Y18597063D01*
X54961286Y18601843D01*
X54983925Y18611221D01*
X55004299Y18624834D01*
X55021626Y18642161D01*
X55035240Y18662536D01*
X55044618Y18685175D01*
X55049398Y18709208D01*
X55050000Y18721460D01*
X55050000Y18885800D01*
X56202000Y18885800D01*
X56202000Y17283800D01*
X55050000Y17283800D01*
X55050000Y17448140D01*
X55047598Y17472526D01*
X55040485Y17495975D01*
X55028934Y17517586D01*
X55013389Y17536528D01*
X54994447Y17552073D01*
X54972836Y17563624D01*
X54949387Y17570737D01*
X54925001Y17573139D01*
X54900615Y17570737D01*
X54877166Y17563624D01*
X54855555Y17552073D01*
X54828381Y17527444D01*
X54765264Y17450536D01*
X54677556Y17378556D01*
X54613600Y17344371D01*
X54577494Y17325072D01*
X54577491Y17325071D01*
X54468915Y17292134D01*
X54356000Y17281013D01*
X54243084Y17292134D01*
X54134508Y17325071D01*
X54134505Y17325072D01*
X54098399Y17344371D01*
X54034443Y17378556D01*
X53946736Y17450536D01*
X53874756Y17538244D01*
X53831239Y17619660D01*
X53817625Y17640034D01*
X53800298Y17657361D01*
X53779924Y17670975D01*
X53757285Y17680352D01*
X53733251Y17685132D01*
X53708747Y17685132D01*
X53684714Y17680351D01*
X53662075Y17670974D01*
X53641701Y17657360D01*
X53624374Y17640033D01*
X53610762Y17619660D01*
X53567244Y17538243D01*
X53495264Y17450536D01*
X53407556Y17378556D01*
X53343600Y17344371D01*
X53307494Y17325072D01*
X53307491Y17325071D01*
X53198915Y17292134D01*
X53086000Y17281013D01*
X52973084Y17292134D01*
X52864508Y17325071D01*
X52864505Y17325072D01*
X52828399Y17344371D01*
X52764443Y17378556D01*
X52676736Y17450536D01*
X52604756Y17538244D01*
X52560813Y17620456D01*
X52551272Y17638306D01*
X52545492Y17657360D01*
X52518334Y17746885D01*
X52510000Y17831503D01*
X52510000Y18338098D01*
X52518334Y18422716D01*
X52551271Y18531292D01*
X52551272Y18531295D01*
X52604756Y18631355D01*
X52604757Y18631357D01*
X52676737Y18719064D01*
X52764444Y18791044D01*
X52828400Y18825229D01*
X52864506Y18844528D01*
X52864509Y18844529D01*
X52973085Y18877466D01*
X53086000Y18888587D01*
X53198916Y18877466D01*
X53307492Y18844529D01*
X53307495Y18844528D01*
X53343601Y18825229D01*
X53407557Y18791044D01*
X53495264Y18719064D01*
X53567244Y18631357D01*
X53583019Y18601843D01*
X53610761Y18549941D01*
X53624375Y18529566D01*
X53641702Y18512239D01*
X53662076Y18498626D01*
X53684715Y18489248D01*
X53708748Y18484468D01*
X53733252Y18484468D01*
X53757285Y18489248D01*
X53779924Y18498626D01*
X53800299Y18512240D01*
X53817626Y18529567D01*
X53831239Y18549941D01*
X53874756Y18631355D01*
X53874757Y18631357D01*
X53946737Y18719064D01*
X54034444Y18791044D01*
X54098400Y18825229D01*
X54134506Y18844528D01*
X54134509Y18844529D01*
X54243085Y18877466D01*
X54356000Y18888587D01*
X54468916Y18877466D01*
G37*
G36*
X39008628Y19868297D02*
G01*
X39163500Y19804147D01*
X39302881Y19711015D01*
X39421415Y19592481D01*
X39514547Y19453100D01*
X39578697Y19298228D01*
X39611400Y19133816D01*
X39611400Y18966184D01*
X39578697Y18801772D01*
X39514547Y18646900D01*
X39421415Y18507519D01*
X39302881Y18388985D01*
X39163500Y18295853D01*
X39008628Y18231703D01*
X38844216Y18199000D01*
X38676584Y18199000D01*
X38512172Y18231703D01*
X38357300Y18295853D01*
X38217919Y18388985D01*
X38099385Y18507519D01*
X38006253Y18646900D01*
X37942103Y18801772D01*
X37909400Y18966184D01*
X37909400Y19133816D01*
X37942103Y19298228D01*
X38006253Y19453100D01*
X38099385Y19592481D01*
X38217919Y19711015D01*
X38357300Y19804147D01*
X38512172Y19868297D01*
X38676584Y19901000D01*
X38844216Y19901000D01*
X39008628Y19868297D01*
G37*
G36*
X46628628Y19868297D02*
G01*
X46783500Y19804147D01*
X46922881Y19711015D01*
X47041415Y19592481D01*
X47134547Y19453100D01*
X47198697Y19298228D01*
X47231400Y19133816D01*
X47231400Y18966184D01*
X47198697Y18801772D01*
X47134547Y18646900D01*
X47041415Y18507519D01*
X46922881Y18388985D01*
X46783500Y18295853D01*
X46628628Y18231703D01*
X46464216Y18199000D01*
X46296584Y18199000D01*
X46132172Y18231703D01*
X45977300Y18295853D01*
X45837919Y18388985D01*
X45719385Y18507519D01*
X45626253Y18646900D01*
X45562103Y18801772D01*
X45529400Y18966184D01*
X45529400Y19133816D01*
X45562103Y19298228D01*
X45626253Y19453100D01*
X45719385Y19592481D01*
X45837919Y19711015D01*
X45977300Y19804147D01*
X46132172Y19868297D01*
X46296584Y19901000D01*
X46464216Y19901000D01*
X46628628Y19868297D01*
G37*
G36*
X36113028Y19868297D02*
G01*
X36267900Y19804147D01*
X36407281Y19711015D01*
X36525815Y19592481D01*
X36618947Y19453100D01*
X36683097Y19298228D01*
X36715800Y19133816D01*
X36715800Y18966184D01*
X36683097Y18801772D01*
X36618947Y18646900D01*
X36525815Y18507519D01*
X36407281Y18388985D01*
X36267900Y18295853D01*
X36113028Y18231703D01*
X35948616Y18199000D01*
X35780984Y18199000D01*
X35616572Y18231703D01*
X35461700Y18295853D01*
X35322319Y18388985D01*
X35203785Y18507519D01*
X35110653Y18646900D01*
X35046503Y18801772D01*
X35013800Y18966184D01*
X35013800Y19133816D01*
X35046503Y19298228D01*
X35110653Y19453100D01*
X35203785Y19592481D01*
X35322319Y19711015D01*
X35461700Y19804147D01*
X35616572Y19868297D01*
X35780984Y19901000D01*
X35948616Y19901000D01*
X36113028Y19868297D01*
G37*
G36*
X28493028Y19868297D02*
G01*
X28647900Y19804147D01*
X28787281Y19711015D01*
X28905815Y19592481D01*
X28998947Y19453100D01*
X29063097Y19298228D01*
X29095800Y19133816D01*
X29095800Y18966184D01*
X29063097Y18801772D01*
X28998947Y18646900D01*
X28905815Y18507519D01*
X28787281Y18388985D01*
X28647900Y18295853D01*
X28493028Y18231703D01*
X28328616Y18199000D01*
X28160984Y18199000D01*
X27996572Y18231703D01*
X27841700Y18295853D01*
X27702319Y18388985D01*
X27583785Y18507519D01*
X27490653Y18646900D01*
X27426503Y18801772D01*
X27393800Y18966184D01*
X27393800Y19133816D01*
X27426503Y19298228D01*
X27490653Y19453100D01*
X27583785Y19592481D01*
X27702319Y19711015D01*
X27841700Y19804147D01*
X27996572Y19868297D01*
X28160984Y19901000D01*
X28328616Y19901000D01*
X28493028Y19868297D01*
G37*
G36*
X13547512Y20258073D02*
G01*
X13696812Y20228376D01*
X13860784Y20160456D01*
X14008354Y20061853D01*
X14133853Y19936354D01*
X14232456Y19788784D01*
X14300376Y19624812D01*
X14330073Y19475512D01*
X14334532Y19453097D01*
X14335000Y19450741D01*
X14335000Y19273259D01*
X14300376Y19099188D01*
X14232456Y18935216D01*
X14133853Y18787646D01*
X14008354Y18662147D01*
X13860784Y18563544D01*
X13696812Y18495624D01*
X13547512Y18465927D01*
X13522742Y18461000D01*
X13345258Y18461000D01*
X13320488Y18465927D01*
X13171188Y18495624D01*
X13007216Y18563544D01*
X12859646Y18662147D01*
X12734147Y18787646D01*
X12635544Y18935216D01*
X12567624Y19099188D01*
X12533000Y19273259D01*
X12533000Y19450741D01*
X12533469Y19453097D01*
X12537927Y19475512D01*
X12567624Y19624812D01*
X12635544Y19788784D01*
X12734147Y19936354D01*
X12859646Y20061853D01*
X13007216Y20160456D01*
X13171188Y20228376D01*
X13320488Y20258073D01*
X13345258Y20263000D01*
X13522742Y20263000D01*
X13547512Y20258073D01*
G37*
G36*
X79077916Y22411666D02*
G01*
X79186492Y22378729D01*
X79186495Y22378728D01*
X79222601Y22359429D01*
X79286557Y22325244D01*
X79374264Y22253264D01*
X79446244Y22165557D01*
X79480429Y22101601D01*
X79499728Y22065495D01*
X79499729Y22065492D01*
X79532666Y21956916D01*
X79543787Y21844000D01*
X79532666Y21731084D01*
X79504789Y21639189D01*
X79499728Y21622505D01*
X79480429Y21586399D01*
X79446244Y21522443D01*
X79374264Y21434736D01*
X79286557Y21362756D01*
X79205141Y21319239D01*
X79184766Y21305625D01*
X79167439Y21288298D01*
X79153826Y21267924D01*
X79144448Y21245285D01*
X79139668Y21221252D01*
X79139668Y21196748D01*
X79144448Y21172715D01*
X79153826Y21150076D01*
X79167440Y21129701D01*
X79184767Y21112374D01*
X79205141Y21098761D01*
X79286557Y21055244D01*
X79374264Y20983264D01*
X79446244Y20895557D01*
X79480429Y20831601D01*
X79499728Y20795495D01*
X79499729Y20795492D01*
X79532666Y20686916D01*
X79543787Y20574000D01*
X79532666Y20461084D01*
X79499729Y20352508D01*
X79499728Y20352505D01*
X79480429Y20316399D01*
X79446244Y20252443D01*
X79374264Y20164736D01*
X79297354Y20101617D01*
X79280035Y20084298D01*
X79266421Y20063923D01*
X79257043Y20041284D01*
X79252263Y20017251D01*
X79252263Y19992747D01*
X79257043Y19968714D01*
X79266421Y19946075D01*
X79280034Y19925701D01*
X79297361Y19908374D01*
X79317736Y19894760D01*
X79340375Y19885382D01*
X79364408Y19880602D01*
X79376660Y19880000D01*
X79541000Y19880000D01*
X79541000Y18728000D01*
X77939000Y18728000D01*
X77939000Y19880000D01*
X78103340Y19880000D01*
X78127726Y19882402D01*
X78151175Y19889515D01*
X78172786Y19901066D01*
X78191728Y19916611D01*
X78207273Y19935553D01*
X78218824Y19957164D01*
X78225937Y19980613D01*
X78228339Y20004999D01*
X78225937Y20029385D01*
X78218824Y20052834D01*
X78207273Y20074445D01*
X78191728Y20093387D01*
X78182655Y20101609D01*
X78105736Y20164736D01*
X78033756Y20252443D01*
X77999571Y20316399D01*
X77980272Y20352505D01*
X77980271Y20352508D01*
X77947334Y20461084D01*
X77936213Y20574000D01*
X77947334Y20686916D01*
X77980271Y20795492D01*
X77980272Y20795495D01*
X77999571Y20831601D01*
X78033756Y20895557D01*
X78105736Y20983264D01*
X78193443Y21055244D01*
X78274859Y21098761D01*
X78295234Y21112375D01*
X78312561Y21129702D01*
X78326174Y21150076D01*
X78335552Y21172715D01*
X78340332Y21196748D01*
X78340332Y21221252D01*
X78335552Y21245285D01*
X78326174Y21267924D01*
X78312560Y21288299D01*
X78295233Y21305626D01*
X78274859Y21319239D01*
X78193443Y21362756D01*
X78105736Y21434736D01*
X78033756Y21522443D01*
X77999571Y21586399D01*
X77980272Y21622505D01*
X77975211Y21639189D01*
X77947334Y21731084D01*
X77936213Y21844000D01*
X77947334Y21956916D01*
X77980271Y22065492D01*
X77980272Y22065495D01*
X77999571Y22101601D01*
X78033756Y22165557D01*
X78105736Y22253264D01*
X78193443Y22325244D01*
X78257399Y22359429D01*
X78293505Y22378728D01*
X78293508Y22378729D01*
X78402084Y22411666D01*
X78486702Y22420000D01*
X78993298Y22420000D01*
X79077916Y22411666D01*
G37*
G36*
X13547512Y22798073D02*
G01*
X13696812Y22768376D01*
X13860784Y22700456D01*
X14008354Y22601853D01*
X14133853Y22476354D01*
X14232456Y22328784D01*
X14300376Y22164812D01*
X14335000Y21990741D01*
X14335000Y21813259D01*
X14300376Y21639188D01*
X14232456Y21475216D01*
X14133853Y21327646D01*
X14008354Y21202147D01*
X13860784Y21103544D01*
X13696812Y21035624D01*
X13547512Y21005927D01*
X13522742Y21001000D01*
X13345258Y21001000D01*
X13320488Y21005927D01*
X13171188Y21035624D01*
X13007216Y21103544D01*
X12859646Y21202147D01*
X12734147Y21327646D01*
X12635544Y21475216D01*
X12567624Y21639188D01*
X12533000Y21813259D01*
X12533000Y21990741D01*
X12567624Y22164812D01*
X12635544Y22328784D01*
X12734147Y22476354D01*
X12859646Y22601853D01*
X13007216Y22700456D01*
X13171188Y22768376D01*
X13320488Y22798073D01*
X13345258Y22803000D01*
X13522742Y22803000D01*
X13547512Y22798073D01*
G37*
G36*
X55845059Y23023340D02*
G01*
X55981732Y22966728D01*
X56104735Y22884540D01*
X56209340Y22779935D01*
X56209341Y22779933D01*
X56291529Y22656930D01*
X56348140Y22520259D01*
X56376292Y22378729D01*
X56377000Y22375167D01*
X56377000Y22227233D01*
X56348140Y22082141D01*
X56291528Y21945468D01*
X56209340Y21822465D01*
X56104735Y21717860D01*
X55981732Y21635672D01*
X55981731Y21635671D01*
X55981730Y21635671D01*
X55845059Y21579060D01*
X55699968Y21550200D01*
X55552032Y21550200D01*
X55406941Y21579060D01*
X55270270Y21635671D01*
X55270269Y21635671D01*
X55270268Y21635672D01*
X55147265Y21717860D01*
X55042660Y21822465D01*
X54960472Y21945468D01*
X54903860Y22082141D01*
X54875000Y22227233D01*
X54875000Y22375167D01*
X54875709Y22378729D01*
X54903860Y22520259D01*
X54960471Y22656930D01*
X55042659Y22779933D01*
X55042660Y22779935D01*
X55147265Y22884540D01*
X55270268Y22966728D01*
X55406941Y23023340D01*
X55552032Y23052200D01*
X55699968Y23052200D01*
X55845059Y23023340D01*
G37*
G36*
X53345059Y23023340D02*
G01*
X53481732Y22966728D01*
X53604735Y22884540D01*
X53709340Y22779935D01*
X53709341Y22779933D01*
X53791529Y22656930D01*
X53848140Y22520259D01*
X53876292Y22378729D01*
X53877000Y22375167D01*
X53877000Y22227233D01*
X53848140Y22082141D01*
X53791528Y21945468D01*
X53709340Y21822465D01*
X53604735Y21717860D01*
X53481732Y21635672D01*
X53481731Y21635671D01*
X53481730Y21635671D01*
X53345059Y21579060D01*
X53199968Y21550200D01*
X53052032Y21550200D01*
X52906941Y21579060D01*
X52770270Y21635671D01*
X52770269Y21635671D01*
X52770268Y21635672D01*
X52647265Y21717860D01*
X52542660Y21822465D01*
X52460472Y21945468D01*
X52403860Y22082141D01*
X52375000Y22227233D01*
X52375000Y22375167D01*
X52375709Y22378729D01*
X52403860Y22520259D01*
X52460471Y22656930D01*
X52542659Y22779933D01*
X52542660Y22779935D01*
X52647265Y22884540D01*
X52770268Y22966728D01*
X52906941Y23023340D01*
X53052032Y23052200D01*
X53199968Y23052200D01*
X53345059Y23023340D01*
G37*
G36*
X50032228Y25202297D02*
G01*
X50187100Y25138147D01*
X50326481Y25045015D01*
X50445015Y24926481D01*
X50538147Y24787100D01*
X50602297Y24632228D01*
X50635000Y24467816D01*
X50635000Y24300184D01*
X50602297Y24135772D01*
X50538147Y23980900D01*
X50445015Y23841519D01*
X50326481Y23722985D01*
X50187100Y23629853D01*
X50032228Y23565703D01*
X49867816Y23533000D01*
X49700184Y23533000D01*
X49535772Y23565703D01*
X49380900Y23629853D01*
X49241519Y23722985D01*
X49122985Y23841519D01*
X49029853Y23980900D01*
X48965703Y24135772D01*
X48933000Y24300184D01*
X48933000Y24467816D01*
X48965703Y24632228D01*
X49029853Y24787100D01*
X49122985Y24926481D01*
X49241519Y25045015D01*
X49380900Y25138147D01*
X49535772Y25202297D01*
X49700184Y25235000D01*
X49867816Y25235000D01*
X50032228Y25202297D01*
G37*
G36*
X13547512Y25338073D02*
G01*
X13696812Y25308376D01*
X13860784Y25240456D01*
X14008354Y25141853D01*
X14133853Y25016354D01*
X14232456Y24868784D01*
X14300376Y24704812D01*
X14335000Y24530741D01*
X14335000Y24353259D01*
X14300376Y24179188D01*
X14232456Y24015216D01*
X14133853Y23867646D01*
X14008354Y23742147D01*
X13860784Y23643544D01*
X13696812Y23575624D01*
X13547512Y23545927D01*
X13522742Y23541000D01*
X13345258Y23541000D01*
X13320488Y23545927D01*
X13171188Y23575624D01*
X13007216Y23643544D01*
X12859646Y23742147D01*
X12734147Y23867646D01*
X12635544Y24015216D01*
X12567624Y24179188D01*
X12533000Y24353259D01*
X12533000Y24530741D01*
X12567624Y24704812D01*
X12635544Y24868784D01*
X12734147Y25016354D01*
X12859646Y25141853D01*
X13007216Y25240456D01*
X13171188Y25308376D01*
X13320488Y25338073D01*
X13345258Y25343000D01*
X13522742Y25343000D01*
X13547512Y25338073D01*
G37*
G36*
X35964512Y25666073D02*
G01*
X36113812Y25636376D01*
X36277784Y25568456D01*
X36425354Y25469853D01*
X36550853Y25344354D01*
X36649456Y25196784D01*
X36717376Y25032812D01*
X36752000Y24858741D01*
X36752000Y24681259D01*
X36717376Y24507188D01*
X36649456Y24343216D01*
X36550853Y24195646D01*
X36425354Y24070147D01*
X36277784Y23971544D01*
X36113812Y23903624D01*
X35964512Y23873927D01*
X35939742Y23869000D01*
X35762258Y23869000D01*
X35737488Y23873927D01*
X35588188Y23903624D01*
X35424216Y23971544D01*
X35276646Y24070147D01*
X35151147Y24195646D01*
X35052544Y24343216D01*
X34984624Y24507188D01*
X34950000Y24681259D01*
X34950000Y24858741D01*
X34984624Y25032812D01*
X35052544Y25196784D01*
X35151147Y25344354D01*
X35276646Y25469853D01*
X35424216Y25568456D01*
X35588188Y25636376D01*
X35737488Y25666073D01*
X35762258Y25671000D01*
X35939742Y25671000D01*
X35964512Y25666073D01*
G37*
G36*
X33424512Y25666073D02*
G01*
X33573812Y25636376D01*
X33737784Y25568456D01*
X33885354Y25469853D01*
X34010853Y25344354D01*
X34109456Y25196784D01*
X34177376Y25032812D01*
X34212000Y24858741D01*
X34212000Y24681259D01*
X34177376Y24507188D01*
X34109456Y24343216D01*
X34010853Y24195646D01*
X33885354Y24070147D01*
X33737784Y23971544D01*
X33573812Y23903624D01*
X33424512Y23873927D01*
X33399742Y23869000D01*
X33222258Y23869000D01*
X33197488Y23873927D01*
X33048188Y23903624D01*
X32884216Y23971544D01*
X32736646Y24070147D01*
X32611147Y24195646D01*
X32512544Y24343216D01*
X32444624Y24507188D01*
X32410000Y24681259D01*
X32410000Y24858741D01*
X32444624Y25032812D01*
X32512544Y25196784D01*
X32611147Y25344354D01*
X32736646Y25469853D01*
X32884216Y25568456D01*
X33048188Y25636376D01*
X33197488Y25666073D01*
X33222258Y25671000D01*
X33399742Y25671000D01*
X33424512Y25666073D01*
G37*
G36*
X30884512Y25666073D02*
G01*
X31033812Y25636376D01*
X31197784Y25568456D01*
X31345354Y25469853D01*
X31470853Y25344354D01*
X31569456Y25196784D01*
X31637376Y25032812D01*
X31672000Y24858741D01*
X31672000Y24681259D01*
X31637376Y24507188D01*
X31569456Y24343216D01*
X31470853Y24195646D01*
X31345354Y24070147D01*
X31197784Y23971544D01*
X31033812Y23903624D01*
X30884512Y23873927D01*
X30859742Y23869000D01*
X30682258Y23869000D01*
X30657488Y23873927D01*
X30508188Y23903624D01*
X30344216Y23971544D01*
X30196646Y24070147D01*
X30071147Y24195646D01*
X29972544Y24343216D01*
X29904624Y24507188D01*
X29870000Y24681259D01*
X29870000Y24858741D01*
X29904624Y25032812D01*
X29972544Y25196784D01*
X30071147Y25344354D01*
X30196646Y25469853D01*
X30344216Y25568456D01*
X30508188Y25636376D01*
X30657488Y25666073D01*
X30682258Y25671000D01*
X30859742Y25671000D01*
X30884512Y25666073D01*
G37*
G36*
X28344512Y25666073D02*
G01*
X28493812Y25636376D01*
X28657784Y25568456D01*
X28805354Y25469853D01*
X28930853Y25344354D01*
X29029456Y25196784D01*
X29097376Y25032812D01*
X29132000Y24858741D01*
X29132000Y24681259D01*
X29097376Y24507188D01*
X29029456Y24343216D01*
X28930853Y24195646D01*
X28805354Y24070147D01*
X28657784Y23971544D01*
X28493812Y23903624D01*
X28344512Y23873927D01*
X28319742Y23869000D01*
X28142258Y23869000D01*
X28117488Y23873927D01*
X27968188Y23903624D01*
X27804216Y23971544D01*
X27656646Y24070147D01*
X27531147Y24195646D01*
X27432544Y24343216D01*
X27364624Y24507188D01*
X27330000Y24681259D01*
X27330000Y24858741D01*
X27364624Y25032812D01*
X27432544Y25196784D01*
X27531147Y25344354D01*
X27656646Y25469853D01*
X27804216Y25568456D01*
X27968188Y25636376D01*
X28117488Y25666073D01*
X28142258Y25671000D01*
X28319742Y25671000D01*
X28344512Y25666073D01*
G37*
G36*
X25804512Y25666073D02*
G01*
X25953812Y25636376D01*
X26117784Y25568456D01*
X26265354Y25469853D01*
X26390853Y25344354D01*
X26489456Y25196784D01*
X26557376Y25032812D01*
X26592000Y24858741D01*
X26592000Y24681259D01*
X26557376Y24507188D01*
X26489456Y24343216D01*
X26390853Y24195646D01*
X26265354Y24070147D01*
X26117784Y23971544D01*
X25953812Y23903624D01*
X25804512Y23873927D01*
X25779742Y23869000D01*
X25602258Y23869000D01*
X25577488Y23873927D01*
X25428188Y23903624D01*
X25264216Y23971544D01*
X25116646Y24070147D01*
X24991147Y24195646D01*
X24892544Y24343216D01*
X24824624Y24507188D01*
X24790000Y24681259D01*
X24790000Y24858741D01*
X24824624Y25032812D01*
X24892544Y25196784D01*
X24991147Y25344354D01*
X25116646Y25469853D01*
X25264216Y25568456D01*
X25428188Y25636376D01*
X25577488Y25666073D01*
X25602258Y25671000D01*
X25779742Y25671000D01*
X25804512Y25666073D01*
G37*
G36*
X23264512Y25666073D02*
G01*
X23413812Y25636376D01*
X23577784Y25568456D01*
X23725354Y25469853D01*
X23850853Y25344354D01*
X23949456Y25196784D01*
X24017376Y25032812D01*
X24052000Y24858741D01*
X24052000Y24681259D01*
X24017376Y24507188D01*
X23949456Y24343216D01*
X23850853Y24195646D01*
X23725354Y24070147D01*
X23577784Y23971544D01*
X23413812Y23903624D01*
X23264512Y23873927D01*
X23239742Y23869000D01*
X23062258Y23869000D01*
X23037488Y23873927D01*
X22888188Y23903624D01*
X22724216Y23971544D01*
X22576646Y24070147D01*
X22451147Y24195646D01*
X22352544Y24343216D01*
X22284624Y24507188D01*
X22250000Y24681259D01*
X22250000Y24858741D01*
X22284624Y25032812D01*
X22352544Y25196784D01*
X22451147Y25344354D01*
X22576646Y25469853D01*
X22724216Y25568456D01*
X22888188Y25636376D01*
X23037488Y25666073D01*
X23062258Y25671000D01*
X23239742Y25671000D01*
X23264512Y25666073D01*
G37*
G36*
X21512000Y23869000D02*
G01*
X19710000Y23869000D01*
X19710000Y25671000D01*
X21512000Y25671000D01*
X21512000Y23869000D01*
G37*
G36*
X83655000Y24041000D02*
G01*
X81953000Y24041000D01*
X81953000Y25743000D01*
X83655000Y25743000D01*
X83655000Y24041000D01*
G37*
G36*
X78988228Y25710297D02*
G01*
X79143100Y25646147D01*
X79282481Y25553015D01*
X79401015Y25434481D01*
X79494147Y25295100D01*
X79558297Y25140228D01*
X79591000Y24975816D01*
X79591000Y24808184D01*
X79558297Y24643772D01*
X79494147Y24488900D01*
X79401015Y24349519D01*
X79282481Y24230985D01*
X79143100Y24137853D01*
X78988228Y24073703D01*
X78823816Y24041000D01*
X78656184Y24041000D01*
X78491772Y24073703D01*
X78336900Y24137853D01*
X78197519Y24230985D01*
X78078985Y24349519D01*
X77985853Y24488900D01*
X77921703Y24643772D01*
X77889000Y24808184D01*
X77889000Y24975816D01*
X77921703Y25140228D01*
X77985853Y25295100D01*
X78078985Y25434481D01*
X78197519Y25553015D01*
X78336900Y25646147D01*
X78491772Y25710297D01*
X78656184Y25743000D01*
X78823816Y25743000D01*
X78988228Y25710297D01*
G37*
G36*
X70156564Y26430611D02*
G01*
X70347833Y26351385D01*
X70347835Y26351384D01*
X70451454Y26282148D01*
X70519973Y26236365D01*
X70666365Y26089973D01*
X70781385Y25917833D01*
X70860611Y25726564D01*
X70901000Y25523516D01*
X70901000Y25316484D01*
X70860611Y25113436D01*
X70783172Y24926481D01*
X70781384Y24922165D01*
X70666365Y24750027D01*
X70519973Y24603635D01*
X70347835Y24488616D01*
X70347834Y24488615D01*
X70347833Y24488615D01*
X70156564Y24409389D01*
X69953516Y24369000D01*
X69746484Y24369000D01*
X69543436Y24409389D01*
X69352167Y24488615D01*
X69352166Y24488615D01*
X69352165Y24488616D01*
X69180027Y24603635D01*
X69033635Y24750027D01*
X68918616Y24922165D01*
X68916828Y24926481D01*
X68839389Y25113436D01*
X68799000Y25316484D01*
X68799000Y25523516D01*
X68839389Y25726564D01*
X68918615Y25917833D01*
X69033635Y26089973D01*
X69180027Y26236365D01*
X69248546Y26282148D01*
X69352165Y26351384D01*
X69352167Y26351385D01*
X69543436Y26430611D01*
X69746484Y26471000D01*
X69953516Y26471000D01*
X70156564Y26430611D01*
G37*
G36*
X13547512Y27878073D02*
G01*
X13696812Y27848376D01*
X13860784Y27780456D01*
X14008354Y27681853D01*
X14133853Y27556354D01*
X14232456Y27408784D01*
X14300376Y27244812D01*
X14335000Y27070741D01*
X14335000Y26893259D01*
X14300376Y26719188D01*
X14232456Y26555216D01*
X14133853Y26407646D01*
X14008354Y26282147D01*
X13860784Y26183544D01*
X13696812Y26115624D01*
X13567852Y26089973D01*
X13522742Y26081000D01*
X13345258Y26081000D01*
X13300148Y26089973D01*
X13171188Y26115624D01*
X13007216Y26183544D01*
X12859646Y26282147D01*
X12734147Y26407646D01*
X12635544Y26555216D01*
X12567624Y26719188D01*
X12533000Y26893259D01*
X12533000Y27070741D01*
X12567624Y27244812D01*
X12635544Y27408784D01*
X12734147Y27556354D01*
X12859646Y27681853D01*
X13007216Y27780456D01*
X13171188Y27848376D01*
X13320488Y27878073D01*
X13345258Y27883000D01*
X13522742Y27883000D01*
X13547512Y27878073D01*
G37*
G36*
X13547512Y30418073D02*
G01*
X13696812Y30388376D01*
X13860784Y30320456D01*
X14008354Y30221853D01*
X14133853Y30096354D01*
X14232456Y29948784D01*
X14300376Y29784812D01*
X14335000Y29610741D01*
X14335000Y29433259D01*
X14300376Y29259188D01*
X14232456Y29095216D01*
X14133853Y28947646D01*
X14008354Y28822147D01*
X13860784Y28723544D01*
X13696812Y28655624D01*
X13547512Y28625927D01*
X13522742Y28621000D01*
X13345258Y28621000D01*
X13320488Y28625927D01*
X13171188Y28655624D01*
X13007216Y28723544D01*
X12859646Y28822147D01*
X12734147Y28947646D01*
X12635544Y29095216D01*
X12567624Y29259188D01*
X12533000Y29433259D01*
X12533000Y29610741D01*
X12567624Y29784812D01*
X12635544Y29948784D01*
X12734147Y30096354D01*
X12859646Y30221853D01*
X13007216Y30320456D01*
X13171188Y30388376D01*
X13320488Y30418073D01*
X13345258Y30423000D01*
X13522742Y30423000D01*
X13547512Y30418073D01*
G37*
G36*
X50032228Y32822297D02*
G01*
X50187100Y32758147D01*
X50326481Y32665015D01*
X50445015Y32546481D01*
X50538147Y32407100D01*
X50602297Y32252228D01*
X50635000Y32087816D01*
X50635000Y31920184D01*
X50602297Y31755772D01*
X50538147Y31600900D01*
X50445015Y31461519D01*
X50326481Y31342985D01*
X50187100Y31249853D01*
X50032228Y31185703D01*
X49867816Y31153000D01*
X49700184Y31153000D01*
X49535772Y31185703D01*
X49380900Y31249853D01*
X49241519Y31342985D01*
X49122985Y31461519D01*
X49029853Y31600900D01*
X48965703Y31755772D01*
X48933000Y31920184D01*
X48933000Y32087816D01*
X48965703Y32252228D01*
X49029853Y32407100D01*
X49122985Y32546481D01*
X49241519Y32665015D01*
X49380900Y32758147D01*
X49535772Y32822297D01*
X49700184Y32855000D01*
X49867816Y32855000D01*
X50032228Y32822297D01*
G37*
G36*
X83052228Y33330297D02*
G01*
X83207100Y33266147D01*
X83346481Y33173015D01*
X83465015Y33054481D01*
X83558147Y32915100D01*
X83622297Y32760228D01*
X83655000Y32595816D01*
X83655000Y32428184D01*
X83622297Y32263772D01*
X83558147Y32108900D01*
X83465015Y31969519D01*
X83346481Y31850985D01*
X83207100Y31757853D01*
X83052228Y31693703D01*
X82887816Y31661000D01*
X82720184Y31661000D01*
X82555772Y31693703D01*
X82400900Y31757853D01*
X82261519Y31850985D01*
X82142985Y31969519D01*
X82049853Y32108900D01*
X81985703Y32263772D01*
X81953000Y32428184D01*
X81953000Y32595816D01*
X81985703Y32760228D01*
X82049853Y32915100D01*
X82142985Y33054481D01*
X82261519Y33173015D01*
X82400900Y33266147D01*
X82555772Y33330297D01*
X82720184Y33363000D01*
X82887816Y33363000D01*
X83052228Y33330297D01*
G37*
G36*
X78988228Y33330297D02*
G01*
X79143100Y33266147D01*
X79282481Y33173015D01*
X79401015Y33054481D01*
X79494147Y32915100D01*
X79558297Y32760228D01*
X79591000Y32595816D01*
X79591000Y32428184D01*
X79558297Y32263772D01*
X79494147Y32108900D01*
X79401015Y31969519D01*
X79282481Y31850985D01*
X79143100Y31757853D01*
X78988228Y31693703D01*
X78823816Y31661000D01*
X78656184Y31661000D01*
X78491772Y31693703D01*
X78336900Y31757853D01*
X78197519Y31850985D01*
X78078985Y31969519D01*
X77985853Y32108900D01*
X77921703Y32263772D01*
X77889000Y32428184D01*
X77889000Y32595816D01*
X77921703Y32760228D01*
X77985853Y32915100D01*
X78078985Y33054481D01*
X78197519Y33173015D01*
X78336900Y33266147D01*
X78491772Y33330297D01*
X78656184Y33363000D01*
X78823816Y33363000D01*
X78988228Y33330297D01*
G37*
G36*
X70901000Y31969000D02*
G01*
X68799000Y31969000D01*
X68799000Y34071000D01*
X70901000Y34071000D01*
X70901000Y31969000D01*
G37*
G36*
X5709256Y40910702D02*
G01*
X5815579Y40889553D01*
X6116042Y40765097D01*
X6386451Y40584415D01*
X6616415Y40354451D01*
X6797097Y40084042D01*
X6921553Y39783579D01*
X6985000Y39464609D01*
X6985000Y39139391D01*
X6921553Y38820421D01*
X6797097Y38519958D01*
X6616415Y38249549D01*
X6386451Y38019585D01*
X6116042Y37838903D01*
X5815579Y37714447D01*
X5709256Y37693298D01*
X5496611Y37651000D01*
X5171389Y37651000D01*
X4958744Y37693298D01*
X4852421Y37714447D01*
X4551958Y37838903D01*
X4281549Y38019585D01*
X4051585Y38249549D01*
X3870903Y38519958D01*
X3746447Y38820421D01*
X3683000Y39139391D01*
X3683000Y39464609D01*
X3746447Y39783579D01*
X3870903Y40084042D01*
X4051585Y40354451D01*
X4281549Y40584415D01*
X4551958Y40765097D01*
X4852421Y40889553D01*
X4958744Y40910702D01*
X5171389Y40953000D01*
X5496611Y40953000D01*
X5709256Y40910702D01*
G37*
G36*
X124909256Y40910702D02*
G01*
X125015579Y40889553D01*
X125316042Y40765097D01*
X125586451Y40584415D01*
X125816415Y40354451D01*
X125997097Y40084042D01*
X126121553Y39783579D01*
X126185000Y39464609D01*
X126185000Y39139391D01*
X126121553Y38820421D01*
X125997097Y38519958D01*
X125816415Y38249549D01*
X125586451Y38019585D01*
X125316042Y37838903D01*
X125015579Y37714447D01*
X124909256Y37693298D01*
X124696611Y37651000D01*
X124371389Y37651000D01*
X124158744Y37693298D01*
X124052421Y37714447D01*
X123751958Y37838903D01*
X123481549Y38019585D01*
X123251585Y38249549D01*
X123070903Y38519958D01*
X122946447Y38820421D01*
X122883000Y39139391D01*
X122883000Y39464609D01*
X122946447Y39783579D01*
X123070903Y40084042D01*
X123251585Y40354451D01*
X123481549Y40584415D01*
X123751958Y40765097D01*
X124052421Y40889553D01*
X124158744Y40910702D01*
X124371389Y40953000D01*
X124696611Y40953000D01*
X124909256Y40910702D01*
G37*
G36*
X88909256Y40910702D02*
G01*
X89015579Y40889553D01*
X89316042Y40765097D01*
X89586451Y40584415D01*
X89816415Y40354451D01*
X89997097Y40084042D01*
X90121553Y39783579D01*
X90185000Y39464609D01*
X90185000Y39139391D01*
X90121553Y38820421D01*
X89997097Y38519958D01*
X89816415Y38249549D01*
X89586451Y38019585D01*
X89316042Y37838903D01*
X89015579Y37714447D01*
X88909256Y37693298D01*
X88696611Y37651000D01*
X88371389Y37651000D01*
X88158744Y37693298D01*
X88052421Y37714447D01*
X87751958Y37838903D01*
X87481549Y38019585D01*
X87251585Y38249549D01*
X87070903Y38519958D01*
X86946447Y38820421D01*
X86883000Y39139391D01*
X86883000Y39464609D01*
X86946447Y39783579D01*
X87070903Y40084042D01*
X87251585Y40354451D01*
X87481549Y40584415D01*
X87751958Y40765097D01*
X88052421Y40889553D01*
X88158744Y40910702D01*
X88371389Y40953000D01*
X88696611Y40953000D01*
X88909256Y40910702D01*
G37*
M02*
