G04 #@! TF.GenerationSoftware,KiCad,Pcbnew,5.0.2-bee76a0~70~ubuntu18.04.1*
G04 #@! TF.CreationDate,2019-01-16T04:19:47-08:00*
G04 #@! TF.ProjectId,Marlin_UIBOX,4d61726c-696e-45f5-9549-424f582e6b69,rev?*
G04 #@! TF.SameCoordinates,PX55c0260PY70276d0*
G04 #@! TF.FileFunction,Soldermask,Bot*
G04 #@! TF.FilePolarity,Negative*
%FSLAX46Y46*%
G04 Gerber Fmt 4.6, Leading zero omitted, Abs format (unit mm)*
G04 Created by KiCad (PCBNEW 5.0.2-bee76a0~70~ubuntu18.04.1) date Wed 16 Jan 2019 04:19:47 AM PST*
%MOMM*%
%LPD*%
G01*
G04 APERTURE LIST*
%ADD10C,0.100000*%
G04 APERTURE END LIST*
D10*
G36*
X5709256Y4910702D02*
X5815579Y4889553D01*
X6116042Y4765097D01*
X6274725Y4659068D01*
X6386454Y4584413D01*
X6616413Y4354454D01*
X6797098Y4084040D01*
X6921553Y3783578D01*
X6985000Y3464611D01*
X6985000Y3139389D01*
X6921553Y2820422D01*
X6797098Y2519960D01*
X6616413Y2249546D01*
X6386454Y2019587D01*
X6386451Y2019585D01*
X6116042Y1838903D01*
X5815579Y1714447D01*
X5709256Y1693298D01*
X5496611Y1651000D01*
X5171389Y1651000D01*
X4958744Y1693298D01*
X4852421Y1714447D01*
X4551958Y1838903D01*
X4281549Y2019585D01*
X4281546Y2019587D01*
X4051587Y2249546D01*
X3870902Y2519960D01*
X3746447Y2820422D01*
X3683000Y3139389D01*
X3683000Y3464611D01*
X3746447Y3783578D01*
X3870902Y4084040D01*
X4051587Y4354454D01*
X4281546Y4584413D01*
X4393275Y4659068D01*
X4551958Y4765097D01*
X4852421Y4889553D01*
X4958744Y4910702D01*
X5171389Y4953000D01*
X5496611Y4953000D01*
X5709256Y4910702D01*
X5709256Y4910702D01*
G37*
G36*
X124909256Y4910702D02*
X125015579Y4889553D01*
X125316042Y4765097D01*
X125474725Y4659068D01*
X125586454Y4584413D01*
X125816413Y4354454D01*
X125997098Y4084040D01*
X126121553Y3783578D01*
X126185000Y3464611D01*
X126185000Y3139389D01*
X126121553Y2820422D01*
X125997098Y2519960D01*
X125816413Y2249546D01*
X125586454Y2019587D01*
X125586451Y2019585D01*
X125316042Y1838903D01*
X125015579Y1714447D01*
X124909256Y1693298D01*
X124696611Y1651000D01*
X124371389Y1651000D01*
X124158744Y1693298D01*
X124052421Y1714447D01*
X123751958Y1838903D01*
X123481549Y2019585D01*
X123481546Y2019587D01*
X123251587Y2249546D01*
X123070902Y2519960D01*
X122946447Y2820422D01*
X122883000Y3139389D01*
X122883000Y3464611D01*
X122946447Y3783578D01*
X123070902Y4084040D01*
X123251587Y4354454D01*
X123481546Y4584413D01*
X123593275Y4659068D01*
X123751958Y4765097D01*
X124052421Y4889553D01*
X124158744Y4910702D01*
X124371389Y4953000D01*
X124696611Y4953000D01*
X124909256Y4910702D01*
X124909256Y4910702D01*
G37*
G36*
X88909256Y4910702D02*
X89015579Y4889553D01*
X89316042Y4765097D01*
X89474725Y4659068D01*
X89586454Y4584413D01*
X89816413Y4354454D01*
X89997098Y4084040D01*
X90121553Y3783578D01*
X90185000Y3464611D01*
X90185000Y3139389D01*
X90121553Y2820422D01*
X89997098Y2519960D01*
X89816413Y2249546D01*
X89586454Y2019587D01*
X89586451Y2019585D01*
X89316042Y1838903D01*
X89015579Y1714447D01*
X88909256Y1693298D01*
X88696611Y1651000D01*
X88371389Y1651000D01*
X88158744Y1693298D01*
X88052421Y1714447D01*
X87751958Y1838903D01*
X87481549Y2019585D01*
X87481546Y2019587D01*
X87251587Y2249546D01*
X87070902Y2519960D01*
X86946447Y2820422D01*
X86883000Y3139389D01*
X86883000Y3464611D01*
X86946447Y3783578D01*
X87070902Y4084040D01*
X87251587Y4354454D01*
X87481546Y4584413D01*
X87593275Y4659068D01*
X87751958Y4765097D01*
X88052421Y4889553D01*
X88158744Y4910702D01*
X88371389Y4953000D01*
X88696611Y4953000D01*
X88909256Y4910702D01*
X88909256Y4910702D01*
G37*
G36*
X66473294Y4711367D02*
X66645694Y4659069D01*
X66645696Y4659068D01*
X66804583Y4574141D01*
X66804585Y4574140D01*
X66804584Y4574140D01*
X66943849Y4459849D01*
X67058140Y4320584D01*
X67143069Y4161694D01*
X67195367Y3989294D01*
X67213025Y3810000D01*
X67195367Y3630706D01*
X67144981Y3464609D01*
X67143068Y3458304D01*
X67058141Y3299417D01*
X66943849Y3160151D01*
X66804583Y3045859D01*
X66645696Y2960932D01*
X66645694Y2960931D01*
X66473294Y2908633D01*
X66338931Y2895400D01*
X66249069Y2895400D01*
X66114706Y2908633D01*
X65942306Y2960931D01*
X65942304Y2960932D01*
X65783417Y3045859D01*
X65644151Y3160151D01*
X65529859Y3299417D01*
X65444932Y3458304D01*
X65443019Y3464609D01*
X65392633Y3630706D01*
X65374975Y3810000D01*
X65392633Y3989294D01*
X65444931Y4161694D01*
X65529860Y4320584D01*
X65644151Y4459849D01*
X65783416Y4574140D01*
X65783415Y4574140D01*
X65783417Y4574141D01*
X65942304Y4659068D01*
X65942306Y4659069D01*
X66114706Y4711367D01*
X66249069Y4724600D01*
X66338931Y4724600D01*
X66473294Y4711367D01*
X66473294Y4711367D01*
G37*
G36*
X71553294Y4711367D02*
X71725694Y4659069D01*
X71725696Y4659068D01*
X71884583Y4574141D01*
X71884585Y4574140D01*
X71884584Y4574140D01*
X72023849Y4459849D01*
X72138140Y4320584D01*
X72223069Y4161694D01*
X72275367Y3989294D01*
X72293025Y3810000D01*
X72275367Y3630706D01*
X72224981Y3464609D01*
X72223068Y3458304D01*
X72138141Y3299417D01*
X72023849Y3160151D01*
X71884583Y3045859D01*
X71725696Y2960932D01*
X71725694Y2960931D01*
X71553294Y2908633D01*
X71418931Y2895400D01*
X71329069Y2895400D01*
X71194706Y2908633D01*
X71022306Y2960931D01*
X71022304Y2960932D01*
X70863417Y3045859D01*
X70724151Y3160151D01*
X70609859Y3299417D01*
X70524932Y3458304D01*
X70523019Y3464609D01*
X70472633Y3630706D01*
X70454975Y3810000D01*
X70472633Y3989294D01*
X70524931Y4161694D01*
X70609860Y4320584D01*
X70724151Y4459849D01*
X70863416Y4574140D01*
X70863415Y4574140D01*
X70863417Y4574141D01*
X71022304Y4659068D01*
X71022306Y4659069D01*
X71194706Y4711367D01*
X71329069Y4724600D01*
X71418931Y4724600D01*
X71553294Y4711367D01*
X71553294Y4711367D01*
G37*
G36*
X74093294Y4711367D02*
X74265694Y4659069D01*
X74265696Y4659068D01*
X74424583Y4574141D01*
X74424585Y4574140D01*
X74424584Y4574140D01*
X74563849Y4459849D01*
X74678140Y4320584D01*
X74763069Y4161694D01*
X74815367Y3989294D01*
X74833025Y3810000D01*
X74815367Y3630706D01*
X74764981Y3464609D01*
X74763068Y3458304D01*
X74678141Y3299417D01*
X74563849Y3160151D01*
X74424583Y3045859D01*
X74265696Y2960932D01*
X74265694Y2960931D01*
X74093294Y2908633D01*
X73958931Y2895400D01*
X73869069Y2895400D01*
X73734706Y2908633D01*
X73562306Y2960931D01*
X73562304Y2960932D01*
X73403417Y3045859D01*
X73264151Y3160151D01*
X73149859Y3299417D01*
X73064932Y3458304D01*
X73063019Y3464609D01*
X73012633Y3630706D01*
X72994975Y3810000D01*
X73012633Y3989294D01*
X73064931Y4161694D01*
X73149860Y4320584D01*
X73264151Y4459849D01*
X73403416Y4574140D01*
X73403415Y4574140D01*
X73403417Y4574141D01*
X73562304Y4659068D01*
X73562306Y4659069D01*
X73734706Y4711367D01*
X73869069Y4724600D01*
X73958931Y4724600D01*
X74093294Y4711367D01*
X74093294Y4711367D01*
G37*
G36*
X54281294Y4711367D02*
X54453694Y4659069D01*
X54453696Y4659068D01*
X54612583Y4574141D01*
X54612585Y4574140D01*
X54612584Y4574140D01*
X54751849Y4459849D01*
X54866140Y4320584D01*
X54951069Y4161694D01*
X55003367Y3989294D01*
X55021025Y3810000D01*
X55003367Y3630706D01*
X54952981Y3464609D01*
X54951068Y3458304D01*
X54866141Y3299417D01*
X54751849Y3160151D01*
X54612583Y3045859D01*
X54453696Y2960932D01*
X54453694Y2960931D01*
X54281294Y2908633D01*
X54146931Y2895400D01*
X54057069Y2895400D01*
X53922706Y2908633D01*
X53750306Y2960931D01*
X53750304Y2960932D01*
X53591417Y3045859D01*
X53452151Y3160151D01*
X53337859Y3299417D01*
X53252932Y3458304D01*
X53251019Y3464609D01*
X53200633Y3630706D01*
X53182975Y3810000D01*
X53200633Y3989294D01*
X53252931Y4161694D01*
X53337860Y4320584D01*
X53452151Y4459849D01*
X53591416Y4574140D01*
X53591415Y4574140D01*
X53591417Y4574141D01*
X53750304Y4659068D01*
X53750306Y4659069D01*
X53922706Y4711367D01*
X54057069Y4724600D01*
X54146931Y4724600D01*
X54281294Y4711367D01*
X54281294Y4711367D01*
G37*
G36*
X76633294Y4711367D02*
X76805694Y4659069D01*
X76805696Y4659068D01*
X76964583Y4574141D01*
X76964585Y4574140D01*
X76964584Y4574140D01*
X77103849Y4459849D01*
X77218140Y4320584D01*
X77303069Y4161694D01*
X77355367Y3989294D01*
X77373025Y3810000D01*
X77355367Y3630706D01*
X77304981Y3464609D01*
X77303068Y3458304D01*
X77218141Y3299417D01*
X77103849Y3160151D01*
X76964583Y3045859D01*
X76805696Y2960932D01*
X76805694Y2960931D01*
X76633294Y2908633D01*
X76498931Y2895400D01*
X76409069Y2895400D01*
X76274706Y2908633D01*
X76102306Y2960931D01*
X76102304Y2960932D01*
X75943417Y3045859D01*
X75804151Y3160151D01*
X75689859Y3299417D01*
X75604932Y3458304D01*
X75603019Y3464609D01*
X75552633Y3630706D01*
X75534975Y3810000D01*
X75552633Y3989294D01*
X75604931Y4161694D01*
X75689860Y4320584D01*
X75804151Y4459849D01*
X75943416Y4574140D01*
X75943415Y4574140D01*
X75943417Y4574141D01*
X76102304Y4659068D01*
X76102306Y4659069D01*
X76274706Y4711367D01*
X76409069Y4724600D01*
X76498931Y4724600D01*
X76633294Y4711367D01*
X76633294Y4711367D01*
G37*
G36*
X46661294Y4711367D02*
X46833694Y4659069D01*
X46833696Y4659068D01*
X46992583Y4574141D01*
X46992585Y4574140D01*
X46992584Y4574140D01*
X47131849Y4459849D01*
X47246140Y4320584D01*
X47331069Y4161694D01*
X47383367Y3989294D01*
X47401025Y3810000D01*
X47383367Y3630706D01*
X47332981Y3464609D01*
X47331068Y3458304D01*
X47246141Y3299417D01*
X47131849Y3160151D01*
X46992583Y3045859D01*
X46833696Y2960932D01*
X46833694Y2960931D01*
X46661294Y2908633D01*
X46526931Y2895400D01*
X46437069Y2895400D01*
X46302706Y2908633D01*
X46130306Y2960931D01*
X46130304Y2960932D01*
X45971417Y3045859D01*
X45832151Y3160151D01*
X45717859Y3299417D01*
X45632932Y3458304D01*
X45631019Y3464609D01*
X45580633Y3630706D01*
X45562975Y3810000D01*
X45580633Y3989294D01*
X45632931Y4161694D01*
X45717860Y4320584D01*
X45832151Y4459849D01*
X45971416Y4574140D01*
X45971415Y4574140D01*
X45971417Y4574141D01*
X46130304Y4659068D01*
X46130306Y4659069D01*
X46302706Y4711367D01*
X46437069Y4724600D01*
X46526931Y4724600D01*
X46661294Y4711367D01*
X46661294Y4711367D01*
G37*
G36*
X49201294Y4711367D02*
X49373694Y4659069D01*
X49373696Y4659068D01*
X49532583Y4574141D01*
X49532585Y4574140D01*
X49532584Y4574140D01*
X49671849Y4459849D01*
X49786140Y4320584D01*
X49871069Y4161694D01*
X49923367Y3989294D01*
X49941025Y3810000D01*
X49923367Y3630706D01*
X49872981Y3464609D01*
X49871068Y3458304D01*
X49786141Y3299417D01*
X49671849Y3160151D01*
X49532583Y3045859D01*
X49373696Y2960932D01*
X49373694Y2960931D01*
X49201294Y2908633D01*
X49066931Y2895400D01*
X48977069Y2895400D01*
X48842706Y2908633D01*
X48670306Y2960931D01*
X48670304Y2960932D01*
X48511417Y3045859D01*
X48372151Y3160151D01*
X48257859Y3299417D01*
X48172932Y3458304D01*
X48171019Y3464609D01*
X48120633Y3630706D01*
X48102975Y3810000D01*
X48120633Y3989294D01*
X48172931Y4161694D01*
X48257860Y4320584D01*
X48372151Y4459849D01*
X48511416Y4574140D01*
X48511415Y4574140D01*
X48511417Y4574141D01*
X48670304Y4659068D01*
X48670306Y4659069D01*
X48842706Y4711367D01*
X48977069Y4724600D01*
X49066931Y4724600D01*
X49201294Y4711367D01*
X49201294Y4711367D01*
G37*
G36*
X51741294Y4711367D02*
X51913694Y4659069D01*
X51913696Y4659068D01*
X52072583Y4574141D01*
X52072585Y4574140D01*
X52072584Y4574140D01*
X52211849Y4459849D01*
X52326140Y4320584D01*
X52411069Y4161694D01*
X52463367Y3989294D01*
X52481025Y3810000D01*
X52463367Y3630706D01*
X52412981Y3464609D01*
X52411068Y3458304D01*
X52326141Y3299417D01*
X52211849Y3160151D01*
X52072583Y3045859D01*
X51913696Y2960932D01*
X51913694Y2960931D01*
X51741294Y2908633D01*
X51606931Y2895400D01*
X51517069Y2895400D01*
X51382706Y2908633D01*
X51210306Y2960931D01*
X51210304Y2960932D01*
X51051417Y3045859D01*
X50912151Y3160151D01*
X50797859Y3299417D01*
X50712932Y3458304D01*
X50711019Y3464609D01*
X50660633Y3630706D01*
X50642975Y3810000D01*
X50660633Y3989294D01*
X50712931Y4161694D01*
X50797860Y4320584D01*
X50912151Y4459849D01*
X51051416Y4574140D01*
X51051415Y4574140D01*
X51051417Y4574141D01*
X51210304Y4659068D01*
X51210306Y4659069D01*
X51382706Y4711367D01*
X51517069Y4724600D01*
X51606931Y4724600D01*
X51741294Y4711367D01*
X51741294Y4711367D01*
G37*
G36*
X69013294Y4711367D02*
X69185694Y4659069D01*
X69185696Y4659068D01*
X69344583Y4574141D01*
X69344585Y4574140D01*
X69344584Y4574140D01*
X69483849Y4459849D01*
X69598140Y4320584D01*
X69683069Y4161694D01*
X69735367Y3989294D01*
X69753025Y3810000D01*
X69735367Y3630706D01*
X69684981Y3464609D01*
X69683068Y3458304D01*
X69598141Y3299417D01*
X69483849Y3160151D01*
X69344583Y3045859D01*
X69185696Y2960932D01*
X69185694Y2960931D01*
X69013294Y2908633D01*
X68878931Y2895400D01*
X68789069Y2895400D01*
X68654706Y2908633D01*
X68482306Y2960931D01*
X68482304Y2960932D01*
X68323417Y3045859D01*
X68184151Y3160151D01*
X68069859Y3299417D01*
X67984932Y3458304D01*
X67983019Y3464609D01*
X67932633Y3630706D01*
X67914975Y3810000D01*
X67932633Y3989294D01*
X67984931Y4161694D01*
X68069860Y4320584D01*
X68184151Y4459849D01*
X68323416Y4574140D01*
X68323415Y4574140D01*
X68323417Y4574141D01*
X68482304Y4659068D01*
X68482306Y4659069D01*
X68654706Y4711367D01*
X68789069Y4724600D01*
X68878931Y4724600D01*
X69013294Y4711367D01*
X69013294Y4711367D01*
G37*
G36*
X44121294Y4711367D02*
X44293694Y4659069D01*
X44293696Y4659068D01*
X44452583Y4574141D01*
X44452585Y4574140D01*
X44452584Y4574140D01*
X44591849Y4459849D01*
X44706140Y4320584D01*
X44791069Y4161694D01*
X44843367Y3989294D01*
X44861025Y3810000D01*
X44843367Y3630706D01*
X44792981Y3464609D01*
X44791068Y3458304D01*
X44706141Y3299417D01*
X44591849Y3160151D01*
X44452583Y3045859D01*
X44293696Y2960932D01*
X44293694Y2960931D01*
X44121294Y2908633D01*
X43986931Y2895400D01*
X43897069Y2895400D01*
X43762706Y2908633D01*
X43590306Y2960931D01*
X43590304Y2960932D01*
X43431417Y3045859D01*
X43292151Y3160151D01*
X43177859Y3299417D01*
X43092932Y3458304D01*
X43091019Y3464609D01*
X43040633Y3630706D01*
X43022975Y3810000D01*
X43040633Y3989294D01*
X43092931Y4161694D01*
X43177860Y4320584D01*
X43292151Y4459849D01*
X43431416Y4574140D01*
X43431415Y4574140D01*
X43431417Y4574141D01*
X43590304Y4659068D01*
X43590306Y4659069D01*
X43762706Y4711367D01*
X43897069Y4724600D01*
X43986931Y4724600D01*
X44121294Y4711367D01*
X44121294Y4711367D01*
G37*
G36*
X51741294Y7251367D02*
X51913694Y7199069D01*
X51913696Y7199068D01*
X52072583Y7114141D01*
X52072585Y7114140D01*
X52072584Y7114140D01*
X52211849Y6999849D01*
X52326140Y6860584D01*
X52411069Y6701694D01*
X52463367Y6529294D01*
X52481025Y6350000D01*
X52463367Y6170706D01*
X52411069Y5998306D01*
X52411068Y5998304D01*
X52326141Y5839417D01*
X52211849Y5700151D01*
X52072583Y5585859D01*
X51913696Y5500932D01*
X51913694Y5500931D01*
X51741294Y5448633D01*
X51606931Y5435400D01*
X51517069Y5435400D01*
X51382706Y5448633D01*
X51210306Y5500931D01*
X51210304Y5500932D01*
X51051417Y5585859D01*
X50912151Y5700151D01*
X50797859Y5839417D01*
X50712932Y5998304D01*
X50712931Y5998306D01*
X50660633Y6170706D01*
X50642975Y6350000D01*
X50660633Y6529294D01*
X50712931Y6701694D01*
X50797860Y6860584D01*
X50912151Y6999849D01*
X51051416Y7114140D01*
X51051415Y7114140D01*
X51051417Y7114141D01*
X51210304Y7199068D01*
X51210306Y7199069D01*
X51382706Y7251367D01*
X51517069Y7264600D01*
X51606931Y7264600D01*
X51741294Y7251367D01*
X51741294Y7251367D01*
G37*
G36*
X67208600Y5435400D02*
X65379400Y5435400D01*
X65379400Y7264600D01*
X67208600Y7264600D01*
X67208600Y5435400D01*
X67208600Y5435400D01*
G37*
G36*
X69013294Y7251367D02*
X69185694Y7199069D01*
X69185696Y7199068D01*
X69344583Y7114141D01*
X69344585Y7114140D01*
X69344584Y7114140D01*
X69483849Y6999849D01*
X69598140Y6860584D01*
X69683069Y6701694D01*
X69735367Y6529294D01*
X69753025Y6350000D01*
X69735367Y6170706D01*
X69683069Y5998306D01*
X69683068Y5998304D01*
X69598141Y5839417D01*
X69483849Y5700151D01*
X69344583Y5585859D01*
X69185696Y5500932D01*
X69185694Y5500931D01*
X69013294Y5448633D01*
X68878931Y5435400D01*
X68789069Y5435400D01*
X68654706Y5448633D01*
X68482306Y5500931D01*
X68482304Y5500932D01*
X68323417Y5585859D01*
X68184151Y5700151D01*
X68069859Y5839417D01*
X67984932Y5998304D01*
X67984931Y5998306D01*
X67932633Y6170706D01*
X67914975Y6350000D01*
X67932633Y6529294D01*
X67984931Y6701694D01*
X68069860Y6860584D01*
X68184151Y6999849D01*
X68323416Y7114140D01*
X68323415Y7114140D01*
X68323417Y7114141D01*
X68482304Y7199068D01*
X68482306Y7199069D01*
X68654706Y7251367D01*
X68789069Y7264600D01*
X68878931Y7264600D01*
X69013294Y7251367D01*
X69013294Y7251367D01*
G37*
G36*
X71553294Y7251367D02*
X71725694Y7199069D01*
X71725696Y7199068D01*
X71884583Y7114141D01*
X71884585Y7114140D01*
X71884584Y7114140D01*
X72023849Y6999849D01*
X72138140Y6860584D01*
X72223069Y6701694D01*
X72275367Y6529294D01*
X72293025Y6350000D01*
X72275367Y6170706D01*
X72223069Y5998306D01*
X72223068Y5998304D01*
X72138141Y5839417D01*
X72023849Y5700151D01*
X71884583Y5585859D01*
X71725696Y5500932D01*
X71725694Y5500931D01*
X71553294Y5448633D01*
X71418931Y5435400D01*
X71329069Y5435400D01*
X71194706Y5448633D01*
X71022306Y5500931D01*
X71022304Y5500932D01*
X70863417Y5585859D01*
X70724151Y5700151D01*
X70609859Y5839417D01*
X70524932Y5998304D01*
X70524931Y5998306D01*
X70472633Y6170706D01*
X70454975Y6350000D01*
X70472633Y6529294D01*
X70524931Y6701694D01*
X70609860Y6860584D01*
X70724151Y6999849D01*
X70863416Y7114140D01*
X70863415Y7114140D01*
X70863417Y7114141D01*
X71022304Y7199068D01*
X71022306Y7199069D01*
X71194706Y7251367D01*
X71329069Y7264600D01*
X71418931Y7264600D01*
X71553294Y7251367D01*
X71553294Y7251367D01*
G37*
G36*
X74093294Y7251367D02*
X74265694Y7199069D01*
X74265696Y7199068D01*
X74424583Y7114141D01*
X74424585Y7114140D01*
X74424584Y7114140D01*
X74563849Y6999849D01*
X74678140Y6860584D01*
X74763069Y6701694D01*
X74815367Y6529294D01*
X74833025Y6350000D01*
X74815367Y6170706D01*
X74763069Y5998306D01*
X74763068Y5998304D01*
X74678141Y5839417D01*
X74563849Y5700151D01*
X74424583Y5585859D01*
X74265696Y5500932D01*
X74265694Y5500931D01*
X74093294Y5448633D01*
X73958931Y5435400D01*
X73869069Y5435400D01*
X73734706Y5448633D01*
X73562306Y5500931D01*
X73562304Y5500932D01*
X73403417Y5585859D01*
X73264151Y5700151D01*
X73149859Y5839417D01*
X73064932Y5998304D01*
X73064931Y5998306D01*
X73012633Y6170706D01*
X72994975Y6350000D01*
X73012633Y6529294D01*
X73064931Y6701694D01*
X73149860Y6860584D01*
X73264151Y6999849D01*
X73403416Y7114140D01*
X73403415Y7114140D01*
X73403417Y7114141D01*
X73562304Y7199068D01*
X73562306Y7199069D01*
X73734706Y7251367D01*
X73869069Y7264600D01*
X73958931Y7264600D01*
X74093294Y7251367D01*
X74093294Y7251367D01*
G37*
G36*
X76633294Y7251367D02*
X76805694Y7199069D01*
X76805696Y7199068D01*
X76964583Y7114141D01*
X76964585Y7114140D01*
X76964584Y7114140D01*
X77103849Y6999849D01*
X77218140Y6860584D01*
X77303069Y6701694D01*
X77355367Y6529294D01*
X77373025Y6350000D01*
X77355367Y6170706D01*
X77303069Y5998306D01*
X77303068Y5998304D01*
X77218141Y5839417D01*
X77103849Y5700151D01*
X76964583Y5585859D01*
X76805696Y5500932D01*
X76805694Y5500931D01*
X76633294Y5448633D01*
X76498931Y5435400D01*
X76409069Y5435400D01*
X76274706Y5448633D01*
X76102306Y5500931D01*
X76102304Y5500932D01*
X75943417Y5585859D01*
X75804151Y5700151D01*
X75689859Y5839417D01*
X75604932Y5998304D01*
X75604931Y5998306D01*
X75552633Y6170706D01*
X75534975Y6350000D01*
X75552633Y6529294D01*
X75604931Y6701694D01*
X75689860Y6860584D01*
X75804151Y6999849D01*
X75943416Y7114140D01*
X75943415Y7114140D01*
X75943417Y7114141D01*
X76102304Y7199068D01*
X76102306Y7199069D01*
X76274706Y7251367D01*
X76409069Y7264600D01*
X76498931Y7264600D01*
X76633294Y7251367D01*
X76633294Y7251367D01*
G37*
G36*
X54281294Y7251367D02*
X54453694Y7199069D01*
X54453696Y7199068D01*
X54612583Y7114141D01*
X54612585Y7114140D01*
X54612584Y7114140D01*
X54751849Y6999849D01*
X54866140Y6860584D01*
X54951069Y6701694D01*
X55003367Y6529294D01*
X55021025Y6350000D01*
X55003367Y6170706D01*
X54951069Y5998306D01*
X54951068Y5998304D01*
X54866141Y5839417D01*
X54751849Y5700151D01*
X54612583Y5585859D01*
X54453696Y5500932D01*
X54453694Y5500931D01*
X54281294Y5448633D01*
X54146931Y5435400D01*
X54057069Y5435400D01*
X53922706Y5448633D01*
X53750306Y5500931D01*
X53750304Y5500932D01*
X53591417Y5585859D01*
X53452151Y5700151D01*
X53337859Y5839417D01*
X53252932Y5998304D01*
X53252931Y5998306D01*
X53200633Y6170706D01*
X53182975Y6350000D01*
X53200633Y6529294D01*
X53252931Y6701694D01*
X53337860Y6860584D01*
X53452151Y6999849D01*
X53591416Y7114140D01*
X53591415Y7114140D01*
X53591417Y7114141D01*
X53750304Y7199068D01*
X53750306Y7199069D01*
X53922706Y7251367D01*
X54057069Y7264600D01*
X54146931Y7264600D01*
X54281294Y7251367D01*
X54281294Y7251367D01*
G37*
G36*
X49201294Y7251367D02*
X49373694Y7199069D01*
X49373696Y7199068D01*
X49532583Y7114141D01*
X49532585Y7114140D01*
X49532584Y7114140D01*
X49671849Y6999849D01*
X49786140Y6860584D01*
X49871069Y6701694D01*
X49923367Y6529294D01*
X49941025Y6350000D01*
X49923367Y6170706D01*
X49871069Y5998306D01*
X49871068Y5998304D01*
X49786141Y5839417D01*
X49671849Y5700151D01*
X49532583Y5585859D01*
X49373696Y5500932D01*
X49373694Y5500931D01*
X49201294Y5448633D01*
X49066931Y5435400D01*
X48977069Y5435400D01*
X48842706Y5448633D01*
X48670306Y5500931D01*
X48670304Y5500932D01*
X48511417Y5585859D01*
X48372151Y5700151D01*
X48257859Y5839417D01*
X48172932Y5998304D01*
X48172931Y5998306D01*
X48120633Y6170706D01*
X48102975Y6350000D01*
X48120633Y6529294D01*
X48172931Y6701694D01*
X48257860Y6860584D01*
X48372151Y6999849D01*
X48511416Y7114140D01*
X48511415Y7114140D01*
X48511417Y7114141D01*
X48670304Y7199068D01*
X48670306Y7199069D01*
X48842706Y7251367D01*
X48977069Y7264600D01*
X49066931Y7264600D01*
X49201294Y7251367D01*
X49201294Y7251367D01*
G37*
G36*
X44856600Y5435400D02*
X43027400Y5435400D01*
X43027400Y7264600D01*
X44856600Y7264600D01*
X44856600Y5435400D01*
X44856600Y5435400D01*
G37*
G36*
X46661294Y7251367D02*
X46833694Y7199069D01*
X46833696Y7199068D01*
X46992583Y7114141D01*
X46992585Y7114140D01*
X46992584Y7114140D01*
X47131849Y6999849D01*
X47246140Y6860584D01*
X47331069Y6701694D01*
X47383367Y6529294D01*
X47401025Y6350000D01*
X47383367Y6170706D01*
X47331069Y5998306D01*
X47331068Y5998304D01*
X47246141Y5839417D01*
X47131849Y5700151D01*
X46992583Y5585859D01*
X46833696Y5500932D01*
X46833694Y5500931D01*
X46661294Y5448633D01*
X46526931Y5435400D01*
X46437069Y5435400D01*
X46302706Y5448633D01*
X46130306Y5500931D01*
X46130304Y5500932D01*
X45971417Y5585859D01*
X45832151Y5700151D01*
X45717859Y5839417D01*
X45632932Y5998304D01*
X45632931Y5998306D01*
X45580633Y6170706D01*
X45562975Y6350000D01*
X45580633Y6529294D01*
X45632931Y6701694D01*
X45717860Y6860584D01*
X45832151Y6999849D01*
X45971416Y7114140D01*
X45971415Y7114140D01*
X45971417Y7114141D01*
X46130304Y7199068D01*
X46130306Y7199069D01*
X46302706Y7251367D01*
X46437069Y7264600D01*
X46526931Y7264600D01*
X46661294Y7251367D01*
X46661294Y7251367D01*
G37*
G36*
X102330000Y7992000D02*
X100528000Y7992000D01*
X100528000Y9794000D01*
X102330000Y9794000D01*
X102330000Y7992000D01*
X102330000Y7992000D01*
G37*
G36*
X104079442Y9787482D02*
X104145627Y9780963D01*
X104258853Y9746616D01*
X104315467Y9729443D01*
X104454087Y9655348D01*
X104471991Y9645778D01*
X104507729Y9616448D01*
X104609186Y9533186D01*
X104692448Y9431729D01*
X104721778Y9395991D01*
X104721779Y9395989D01*
X104805443Y9239467D01*
X104805443Y9239466D01*
X104856963Y9069627D01*
X104874359Y8893000D01*
X104856963Y8716373D01*
X104822616Y8603147D01*
X104805443Y8546533D01*
X104731348Y8407913D01*
X104721778Y8390009D01*
X104692448Y8354271D01*
X104609186Y8252814D01*
X104507729Y8169552D01*
X104471991Y8140222D01*
X104471989Y8140221D01*
X104315467Y8056557D01*
X104258853Y8039384D01*
X104145627Y8005037D01*
X104079442Y7998518D01*
X104013260Y7992000D01*
X103924740Y7992000D01*
X103858558Y7998518D01*
X103792373Y8005037D01*
X103679147Y8039384D01*
X103622533Y8056557D01*
X103466011Y8140221D01*
X103466009Y8140222D01*
X103430271Y8169552D01*
X103328814Y8252814D01*
X103245552Y8354271D01*
X103216222Y8390009D01*
X103206652Y8407913D01*
X103132557Y8546533D01*
X103115384Y8603147D01*
X103081037Y8716373D01*
X103063641Y8893000D01*
X103081037Y9069627D01*
X103132557Y9239466D01*
X103132557Y9239467D01*
X103216221Y9395989D01*
X103216222Y9395991D01*
X103245552Y9431729D01*
X103328814Y9533186D01*
X103430271Y9616448D01*
X103466009Y9645778D01*
X103483913Y9655348D01*
X103622533Y9729443D01*
X103679147Y9746616D01*
X103792373Y9780963D01*
X103858558Y9787482D01*
X103924740Y9794000D01*
X104013260Y9794000D01*
X104079442Y9787482D01*
X104079442Y9787482D01*
G37*
G36*
X109159442Y9787482D02*
X109225627Y9780963D01*
X109338853Y9746616D01*
X109395467Y9729443D01*
X109534087Y9655348D01*
X109551991Y9645778D01*
X109587729Y9616448D01*
X109689186Y9533186D01*
X109772448Y9431729D01*
X109801778Y9395991D01*
X109801779Y9395989D01*
X109885443Y9239467D01*
X109885443Y9239466D01*
X109936963Y9069627D01*
X109954359Y8893000D01*
X109936963Y8716373D01*
X109902616Y8603147D01*
X109885443Y8546533D01*
X109811348Y8407913D01*
X109801778Y8390009D01*
X109772448Y8354271D01*
X109689186Y8252814D01*
X109587729Y8169552D01*
X109551991Y8140222D01*
X109551989Y8140221D01*
X109395467Y8056557D01*
X109338853Y8039384D01*
X109225627Y8005037D01*
X109159442Y7998518D01*
X109093260Y7992000D01*
X109004740Y7992000D01*
X108938558Y7998518D01*
X108872373Y8005037D01*
X108759147Y8039384D01*
X108702533Y8056557D01*
X108546011Y8140221D01*
X108546009Y8140222D01*
X108510271Y8169552D01*
X108408814Y8252814D01*
X108325552Y8354271D01*
X108296222Y8390009D01*
X108286652Y8407913D01*
X108212557Y8546533D01*
X108195384Y8603147D01*
X108161037Y8716373D01*
X108143641Y8893000D01*
X108161037Y9069627D01*
X108212557Y9239466D01*
X108212557Y9239467D01*
X108296221Y9395989D01*
X108296222Y9395991D01*
X108325552Y9431729D01*
X108408814Y9533186D01*
X108510271Y9616448D01*
X108546009Y9645778D01*
X108563913Y9655348D01*
X108702533Y9729443D01*
X108759147Y9746616D01*
X108872373Y9780963D01*
X108938558Y9787482D01*
X109004740Y9794000D01*
X109093260Y9794000D01*
X109159442Y9787482D01*
X109159442Y9787482D01*
G37*
G36*
X111699442Y9787482D02*
X111765627Y9780963D01*
X111878853Y9746616D01*
X111935467Y9729443D01*
X112074087Y9655348D01*
X112091991Y9645778D01*
X112127729Y9616448D01*
X112229186Y9533186D01*
X112312448Y9431729D01*
X112341778Y9395991D01*
X112341779Y9395989D01*
X112425443Y9239467D01*
X112425443Y9239466D01*
X112476963Y9069627D01*
X112494359Y8893000D01*
X112476963Y8716373D01*
X112442616Y8603147D01*
X112425443Y8546533D01*
X112351348Y8407913D01*
X112341778Y8390009D01*
X112312448Y8354271D01*
X112229186Y8252814D01*
X112127729Y8169552D01*
X112091991Y8140222D01*
X112091989Y8140221D01*
X111935467Y8056557D01*
X111878853Y8039384D01*
X111765627Y8005037D01*
X111699442Y7998518D01*
X111633260Y7992000D01*
X111544740Y7992000D01*
X111478558Y7998518D01*
X111412373Y8005037D01*
X111299147Y8039384D01*
X111242533Y8056557D01*
X111086011Y8140221D01*
X111086009Y8140222D01*
X111050271Y8169552D01*
X110948814Y8252814D01*
X110865552Y8354271D01*
X110836222Y8390009D01*
X110826652Y8407913D01*
X110752557Y8546533D01*
X110735384Y8603147D01*
X110701037Y8716373D01*
X110683641Y8893000D01*
X110701037Y9069627D01*
X110752557Y9239466D01*
X110752557Y9239467D01*
X110836221Y9395989D01*
X110836222Y9395991D01*
X110865552Y9431729D01*
X110948814Y9533186D01*
X111050271Y9616448D01*
X111086009Y9645778D01*
X111103913Y9655348D01*
X111242533Y9729443D01*
X111299147Y9746616D01*
X111412373Y9780963D01*
X111478558Y9787482D01*
X111544740Y9794000D01*
X111633260Y9794000D01*
X111699442Y9787482D01*
X111699442Y9787482D01*
G37*
G36*
X106619442Y9787482D02*
X106685627Y9780963D01*
X106798853Y9746616D01*
X106855467Y9729443D01*
X106994087Y9655348D01*
X107011991Y9645778D01*
X107047729Y9616448D01*
X107149186Y9533186D01*
X107232448Y9431729D01*
X107261778Y9395991D01*
X107261779Y9395989D01*
X107345443Y9239467D01*
X107345443Y9239466D01*
X107396963Y9069627D01*
X107414359Y8893000D01*
X107396963Y8716373D01*
X107362616Y8603147D01*
X107345443Y8546533D01*
X107271348Y8407913D01*
X107261778Y8390009D01*
X107232448Y8354271D01*
X107149186Y8252814D01*
X107047729Y8169552D01*
X107011991Y8140222D01*
X107011989Y8140221D01*
X106855467Y8056557D01*
X106798853Y8039384D01*
X106685627Y8005037D01*
X106619442Y7998518D01*
X106553260Y7992000D01*
X106464740Y7992000D01*
X106398558Y7998518D01*
X106332373Y8005037D01*
X106219147Y8039384D01*
X106162533Y8056557D01*
X106006011Y8140221D01*
X106006009Y8140222D01*
X105970271Y8169552D01*
X105868814Y8252814D01*
X105785552Y8354271D01*
X105756222Y8390009D01*
X105746652Y8407913D01*
X105672557Y8546533D01*
X105655384Y8603147D01*
X105621037Y8716373D01*
X105603641Y8893000D01*
X105621037Y9069627D01*
X105672557Y9239466D01*
X105672557Y9239467D01*
X105756221Y9395989D01*
X105756222Y9395991D01*
X105785552Y9431729D01*
X105868814Y9533186D01*
X105970271Y9616448D01*
X106006009Y9645778D01*
X106023913Y9655348D01*
X106162533Y9729443D01*
X106219147Y9746616D01*
X106332373Y9780963D01*
X106398558Y9787482D01*
X106464740Y9794000D01*
X106553260Y9794000D01*
X106619442Y9787482D01*
X106619442Y9787482D01*
G37*
G36*
X14335000Y13381000D02*
X12533000Y13381000D01*
X12533000Y15183000D01*
X14335000Y15183000D01*
X14335000Y13381000D01*
X14335000Y13381000D01*
G37*
G36*
X13544442Y17716482D02*
X13610627Y17709963D01*
X13723853Y17675616D01*
X13780467Y17658443D01*
X13919087Y17584348D01*
X13936991Y17574778D01*
X13972729Y17545448D01*
X14074186Y17462186D01*
X14157448Y17360729D01*
X14186778Y17324991D01*
X14186779Y17324989D01*
X14270443Y17168467D01*
X14270443Y17168466D01*
X14321963Y16998627D01*
X14339359Y16822000D01*
X14321963Y16645373D01*
X14287616Y16532147D01*
X14270443Y16475533D01*
X14196348Y16336913D01*
X14186778Y16319009D01*
X14157448Y16283271D01*
X14074186Y16181814D01*
X13972729Y16098552D01*
X13936991Y16069222D01*
X13936989Y16069221D01*
X13780467Y15985557D01*
X13723853Y15968384D01*
X13610627Y15934037D01*
X13544443Y15927519D01*
X13478260Y15921000D01*
X13389740Y15921000D01*
X13323557Y15927519D01*
X13257373Y15934037D01*
X13144147Y15968384D01*
X13087533Y15985557D01*
X12931011Y16069221D01*
X12931009Y16069222D01*
X12895271Y16098552D01*
X12793814Y16181814D01*
X12710552Y16283271D01*
X12681222Y16319009D01*
X12671652Y16336913D01*
X12597557Y16475533D01*
X12580384Y16532147D01*
X12546037Y16645373D01*
X12528641Y16822000D01*
X12546037Y16998627D01*
X12597557Y17168466D01*
X12597557Y17168467D01*
X12681221Y17324989D01*
X12681222Y17324991D01*
X12710552Y17360729D01*
X12793814Y17462186D01*
X12895271Y17545448D01*
X12931009Y17574778D01*
X12948913Y17584348D01*
X13087533Y17658443D01*
X13144147Y17675616D01*
X13257373Y17709963D01*
X13323557Y17716481D01*
X13389740Y17723000D01*
X13478260Y17723000D01*
X13544442Y17716482D01*
X13544442Y17716482D01*
G37*
G36*
X13544443Y20256481D02*
X13610627Y20249963D01*
X13723853Y20215616D01*
X13780467Y20198443D01*
X13843527Y20164736D01*
X13936991Y20114778D01*
X13963825Y20092756D01*
X14074186Y20002186D01*
X14151174Y19908374D01*
X14186778Y19864991D01*
X14186779Y19864989D01*
X14270443Y19708467D01*
X14270443Y19708466D01*
X14321963Y19538627D01*
X14339359Y19362000D01*
X14321963Y19185373D01*
X14287616Y19072147D01*
X14270443Y19015533D01*
X14196348Y18876913D01*
X14186778Y18859009D01*
X14157448Y18823271D01*
X14074186Y18721814D01*
X13972729Y18638552D01*
X13936991Y18609222D01*
X13936989Y18609221D01*
X13780467Y18525557D01*
X13723853Y18508384D01*
X13610627Y18474037D01*
X13544442Y18467518D01*
X13478260Y18461000D01*
X13389740Y18461000D01*
X13323558Y18467518D01*
X13257373Y18474037D01*
X13144147Y18508384D01*
X13087533Y18525557D01*
X12931011Y18609221D01*
X12931009Y18609222D01*
X12895271Y18638552D01*
X12793814Y18721814D01*
X12710552Y18823271D01*
X12681222Y18859009D01*
X12671652Y18876913D01*
X12597557Y19015533D01*
X12580384Y19072147D01*
X12546037Y19185373D01*
X12528641Y19362000D01*
X12546037Y19538627D01*
X12597557Y19708466D01*
X12597557Y19708467D01*
X12681221Y19864989D01*
X12681222Y19864991D01*
X12716826Y19908374D01*
X12793814Y20002186D01*
X12904175Y20092756D01*
X12931009Y20114778D01*
X13024473Y20164736D01*
X13087533Y20198443D01*
X13144147Y20215616D01*
X13257373Y20249963D01*
X13323558Y20256482D01*
X13389740Y20263000D01*
X13478260Y20263000D01*
X13544443Y20256481D01*
X13544443Y20256481D01*
G37*
G36*
X79077916Y22411666D02*
X79186492Y22378729D01*
X79286557Y22325244D01*
X79374264Y22253264D01*
X79446244Y22165557D01*
X79499729Y22065492D01*
X79532666Y21956916D01*
X79543787Y21844000D01*
X79532666Y21731084D01*
X79499729Y21622508D01*
X79499726Y21622503D01*
X79446244Y21522443D01*
X79374264Y21434736D01*
X79286557Y21362756D01*
X79205143Y21319240D01*
X79184768Y21305627D01*
X79167441Y21288299D01*
X79153827Y21267925D01*
X79144450Y21245286D01*
X79139669Y21221253D01*
X79139669Y21196748D01*
X79144449Y21172715D01*
X79153827Y21150076D01*
X79167440Y21129701D01*
X79184768Y21112374D01*
X79205143Y21098760D01*
X79286557Y21055244D01*
X79374264Y20983264D01*
X79446244Y20895557D01*
X79499729Y20795492D01*
X79532666Y20686916D01*
X79543787Y20574000D01*
X79532666Y20461084D01*
X79499729Y20352508D01*
X79499726Y20352503D01*
X79446244Y20252443D01*
X79374264Y20164736D01*
X79297365Y20101626D01*
X79280038Y20084299D01*
X79266424Y20063924D01*
X79257046Y20041285D01*
X79252266Y20017252D01*
X79252266Y19992748D01*
X79257047Y19968714D01*
X79266424Y19946075D01*
X79280038Y19925701D01*
X79297365Y19908374D01*
X79317740Y19894760D01*
X79340379Y19885382D01*
X79376664Y19880000D01*
X79541000Y19880000D01*
X79541000Y18728000D01*
X77939000Y18728000D01*
X77939000Y19880000D01*
X78103336Y19880000D01*
X78127722Y19882402D01*
X78151171Y19889515D01*
X78172782Y19901066D01*
X78191724Y19916612D01*
X78207270Y19935554D01*
X78218821Y19957165D01*
X78225934Y19980614D01*
X78228336Y20005000D01*
X78225934Y20029386D01*
X78218821Y20052835D01*
X78207270Y20074446D01*
X78182635Y20101626D01*
X78105736Y20164736D01*
X78033756Y20252443D01*
X77980274Y20352503D01*
X77980271Y20352508D01*
X77947334Y20461084D01*
X77936213Y20574000D01*
X77947334Y20686916D01*
X77980271Y20795492D01*
X78033756Y20895557D01*
X78105736Y20983264D01*
X78193443Y21055244D01*
X78274857Y21098760D01*
X78295232Y21112373D01*
X78312559Y21129701D01*
X78326173Y21150075D01*
X78335550Y21172714D01*
X78340331Y21196747D01*
X78340331Y21221252D01*
X78335551Y21245285D01*
X78326173Y21267924D01*
X78312560Y21288299D01*
X78295232Y21305626D01*
X78274857Y21319240D01*
X78193443Y21362756D01*
X78105736Y21434736D01*
X78033756Y21522443D01*
X77980274Y21622503D01*
X77980271Y21622508D01*
X77947334Y21731084D01*
X77936213Y21844000D01*
X77947334Y21956916D01*
X77980271Y22065492D01*
X78033756Y22165557D01*
X78105736Y22253264D01*
X78193443Y22325244D01*
X78293508Y22378729D01*
X78402084Y22411666D01*
X78486702Y22420000D01*
X78993298Y22420000D01*
X79077916Y22411666D01*
X79077916Y22411666D01*
G37*
G36*
X13544443Y22796481D02*
X13610627Y22789963D01*
X13723853Y22755616D01*
X13780467Y22738443D01*
X13919087Y22664348D01*
X13936991Y22654778D01*
X13972729Y22625448D01*
X14074186Y22542186D01*
X14157448Y22440729D01*
X14186778Y22404991D01*
X14186779Y22404989D01*
X14270443Y22248467D01*
X14270443Y22248466D01*
X14321963Y22078627D01*
X14339359Y21902000D01*
X14321963Y21725373D01*
X14290759Y21622508D01*
X14270443Y21555533D01*
X14205875Y21434736D01*
X14186778Y21399009D01*
X14157448Y21363271D01*
X14074186Y21261814D01*
X13994900Y21196747D01*
X13936991Y21149222D01*
X13936989Y21149221D01*
X13780467Y21065557D01*
X13746469Y21055244D01*
X13610627Y21014037D01*
X13544443Y21007519D01*
X13478260Y21001000D01*
X13389740Y21001000D01*
X13323557Y21007519D01*
X13257373Y21014037D01*
X13121531Y21055244D01*
X13087533Y21065557D01*
X12931011Y21149221D01*
X12931009Y21149222D01*
X12873100Y21196747D01*
X12793814Y21261814D01*
X12710552Y21363271D01*
X12681222Y21399009D01*
X12662125Y21434736D01*
X12597557Y21555533D01*
X12577241Y21622508D01*
X12546037Y21725373D01*
X12528641Y21902000D01*
X12546037Y22078627D01*
X12597557Y22248466D01*
X12597557Y22248467D01*
X12681221Y22404989D01*
X12681222Y22404991D01*
X12710552Y22440729D01*
X12793814Y22542186D01*
X12895271Y22625448D01*
X12931009Y22654778D01*
X12948913Y22664348D01*
X13087533Y22738443D01*
X13144147Y22755616D01*
X13257373Y22789963D01*
X13323557Y22796481D01*
X13389740Y22803000D01*
X13478260Y22803000D01*
X13544443Y22796481D01*
X13544443Y22796481D01*
G37*
G36*
X50032228Y25202297D02*
X50187100Y25138147D01*
X50326481Y25045015D01*
X50445015Y24926481D01*
X50538147Y24787100D01*
X50602297Y24632228D01*
X50635000Y24467816D01*
X50635000Y24300184D01*
X50602297Y24135772D01*
X50538147Y23980900D01*
X50445015Y23841519D01*
X50326481Y23722985D01*
X50187100Y23629853D01*
X50032228Y23565703D01*
X49867816Y23533000D01*
X49700184Y23533000D01*
X49535772Y23565703D01*
X49380900Y23629853D01*
X49241519Y23722985D01*
X49122985Y23841519D01*
X49029853Y23980900D01*
X48965703Y24135772D01*
X48933000Y24300184D01*
X48933000Y24467816D01*
X48965703Y24632228D01*
X49029853Y24787100D01*
X49122985Y24926481D01*
X49241519Y25045015D01*
X49380900Y25138147D01*
X49535772Y25202297D01*
X49700184Y25235000D01*
X49867816Y25235000D01*
X50032228Y25202297D01*
X50032228Y25202297D01*
G37*
G36*
X13544442Y25336482D02*
X13610627Y25329963D01*
X13723853Y25295616D01*
X13780467Y25278443D01*
X13861742Y25235000D01*
X13936991Y25194778D01*
X13972729Y25165448D01*
X14074186Y25082186D01*
X14157448Y24980729D01*
X14186778Y24944991D01*
X14186779Y24944989D01*
X14270443Y24788467D01*
X14276045Y24770000D01*
X14321963Y24618627D01*
X14339359Y24442000D01*
X14321963Y24265373D01*
X14296367Y24180995D01*
X14270443Y24095533D01*
X14241294Y24041000D01*
X14186778Y23939009D01*
X14157448Y23903271D01*
X14074186Y23801814D01*
X13978132Y23722986D01*
X13936991Y23689222D01*
X13936989Y23689221D01*
X13780467Y23605557D01*
X13723853Y23588384D01*
X13610627Y23554037D01*
X13544442Y23547518D01*
X13478260Y23541000D01*
X13389740Y23541000D01*
X13323558Y23547518D01*
X13257373Y23554037D01*
X13144147Y23588384D01*
X13087533Y23605557D01*
X12931011Y23689221D01*
X12931009Y23689222D01*
X12889868Y23722986D01*
X12793814Y23801814D01*
X12710552Y23903271D01*
X12681222Y23939009D01*
X12626706Y24041000D01*
X12597557Y24095533D01*
X12571633Y24180995D01*
X12546037Y24265373D01*
X12528641Y24442000D01*
X12546037Y24618627D01*
X12591955Y24770000D01*
X12597557Y24788467D01*
X12681221Y24944989D01*
X12681222Y24944991D01*
X12710552Y24980729D01*
X12793814Y25082186D01*
X12895271Y25165448D01*
X12931009Y25194778D01*
X13006258Y25235000D01*
X13087533Y25278443D01*
X13144147Y25295616D01*
X13257373Y25329963D01*
X13323558Y25336482D01*
X13389740Y25343000D01*
X13478260Y25343000D01*
X13544442Y25336482D01*
X13544442Y25336482D01*
G37*
G36*
X25801442Y25664482D02*
X25867627Y25657963D01*
X25980853Y25623616D01*
X26037467Y25606443D01*
X26176087Y25532348D01*
X26193991Y25522778D01*
X26225817Y25496659D01*
X26331186Y25410186D01*
X26386323Y25343000D01*
X26443778Y25272991D01*
X26443779Y25272989D01*
X26527443Y25116467D01*
X26537842Y25082186D01*
X26578963Y24946627D01*
X26596359Y24770000D01*
X26578963Y24593373D01*
X26570282Y24564756D01*
X26527443Y24423533D01*
X26498294Y24369000D01*
X26443778Y24267009D01*
X26442435Y24265373D01*
X26331186Y24129814D01*
X26237969Y24053314D01*
X26193991Y24017222D01*
X26193989Y24017221D01*
X26037467Y23933557D01*
X25980853Y23916384D01*
X25867627Y23882037D01*
X25801442Y23875518D01*
X25735260Y23869000D01*
X25646740Y23869000D01*
X25580558Y23875518D01*
X25514373Y23882037D01*
X25401147Y23916384D01*
X25344533Y23933557D01*
X25188011Y24017221D01*
X25188009Y24017222D01*
X25144031Y24053314D01*
X25050814Y24129814D01*
X24939565Y24265373D01*
X24938222Y24267009D01*
X24883706Y24369000D01*
X24854557Y24423533D01*
X24811718Y24564756D01*
X24803037Y24593373D01*
X24785641Y24770000D01*
X24803037Y24946627D01*
X24844158Y25082186D01*
X24854557Y25116467D01*
X24938221Y25272989D01*
X24938222Y25272991D01*
X24995677Y25343000D01*
X25050814Y25410186D01*
X25156183Y25496659D01*
X25188009Y25522778D01*
X25205913Y25532348D01*
X25344533Y25606443D01*
X25401147Y25623616D01*
X25514373Y25657963D01*
X25580558Y25664482D01*
X25646740Y25671000D01*
X25735260Y25671000D01*
X25801442Y25664482D01*
X25801442Y25664482D01*
G37*
G36*
X21512000Y23869000D02*
X19710000Y23869000D01*
X19710000Y25671000D01*
X21512000Y25671000D01*
X21512000Y23869000D01*
X21512000Y23869000D01*
G37*
G36*
X23261442Y25664482D02*
X23327627Y25657963D01*
X23440853Y25623616D01*
X23497467Y25606443D01*
X23636087Y25532348D01*
X23653991Y25522778D01*
X23685817Y25496659D01*
X23791186Y25410186D01*
X23846323Y25343000D01*
X23903778Y25272991D01*
X23903779Y25272989D01*
X23987443Y25116467D01*
X23997842Y25082186D01*
X24038963Y24946627D01*
X24056359Y24770000D01*
X24038963Y24593373D01*
X24030282Y24564756D01*
X23987443Y24423533D01*
X23958294Y24369000D01*
X23903778Y24267009D01*
X23902435Y24265373D01*
X23791186Y24129814D01*
X23697969Y24053314D01*
X23653991Y24017222D01*
X23653989Y24017221D01*
X23497467Y23933557D01*
X23440853Y23916384D01*
X23327627Y23882037D01*
X23261442Y23875518D01*
X23195260Y23869000D01*
X23106740Y23869000D01*
X23040558Y23875518D01*
X22974373Y23882037D01*
X22861147Y23916384D01*
X22804533Y23933557D01*
X22648011Y24017221D01*
X22648009Y24017222D01*
X22604031Y24053314D01*
X22510814Y24129814D01*
X22399565Y24265373D01*
X22398222Y24267009D01*
X22343706Y24369000D01*
X22314557Y24423533D01*
X22271718Y24564756D01*
X22263037Y24593373D01*
X22245641Y24770000D01*
X22263037Y24946627D01*
X22304158Y25082186D01*
X22314557Y25116467D01*
X22398221Y25272989D01*
X22398222Y25272991D01*
X22455677Y25343000D01*
X22510814Y25410186D01*
X22616183Y25496659D01*
X22648009Y25522778D01*
X22665913Y25532348D01*
X22804533Y25606443D01*
X22861147Y25623616D01*
X22974373Y25657963D01*
X23040558Y25664482D01*
X23106740Y25671000D01*
X23195260Y25671000D01*
X23261442Y25664482D01*
X23261442Y25664482D01*
G37*
G36*
X28341442Y25664482D02*
X28407627Y25657963D01*
X28520853Y25623616D01*
X28577467Y25606443D01*
X28716087Y25532348D01*
X28733991Y25522778D01*
X28765817Y25496659D01*
X28871186Y25410186D01*
X28926323Y25343000D01*
X28983778Y25272991D01*
X28983779Y25272989D01*
X29067443Y25116467D01*
X29077842Y25082186D01*
X29118963Y24946627D01*
X29136359Y24770000D01*
X29118963Y24593373D01*
X29110282Y24564756D01*
X29067443Y24423533D01*
X29038294Y24369000D01*
X28983778Y24267009D01*
X28982435Y24265373D01*
X28871186Y24129814D01*
X28777969Y24053314D01*
X28733991Y24017222D01*
X28733989Y24017221D01*
X28577467Y23933557D01*
X28520853Y23916384D01*
X28407627Y23882037D01*
X28341442Y23875518D01*
X28275260Y23869000D01*
X28186740Y23869000D01*
X28120558Y23875518D01*
X28054373Y23882037D01*
X27941147Y23916384D01*
X27884533Y23933557D01*
X27728011Y24017221D01*
X27728009Y24017222D01*
X27684031Y24053314D01*
X27590814Y24129814D01*
X27479565Y24265373D01*
X27478222Y24267009D01*
X27423706Y24369000D01*
X27394557Y24423533D01*
X27351718Y24564756D01*
X27343037Y24593373D01*
X27325641Y24770000D01*
X27343037Y24946627D01*
X27384158Y25082186D01*
X27394557Y25116467D01*
X27478221Y25272989D01*
X27478222Y25272991D01*
X27535677Y25343000D01*
X27590814Y25410186D01*
X27696183Y25496659D01*
X27728009Y25522778D01*
X27745913Y25532348D01*
X27884533Y25606443D01*
X27941147Y25623616D01*
X28054373Y25657963D01*
X28120558Y25664482D01*
X28186740Y25671000D01*
X28275260Y25671000D01*
X28341442Y25664482D01*
X28341442Y25664482D01*
G37*
G36*
X30881442Y25664482D02*
X30947627Y25657963D01*
X31060853Y25623616D01*
X31117467Y25606443D01*
X31256087Y25532348D01*
X31273991Y25522778D01*
X31305817Y25496659D01*
X31411186Y25410186D01*
X31466323Y25343000D01*
X31523778Y25272991D01*
X31523779Y25272989D01*
X31607443Y25116467D01*
X31617842Y25082186D01*
X31658963Y24946627D01*
X31676359Y24770000D01*
X31658963Y24593373D01*
X31650282Y24564756D01*
X31607443Y24423533D01*
X31578294Y24369000D01*
X31523778Y24267009D01*
X31522435Y24265373D01*
X31411186Y24129814D01*
X31317969Y24053314D01*
X31273991Y24017222D01*
X31273989Y24017221D01*
X31117467Y23933557D01*
X31060853Y23916384D01*
X30947627Y23882037D01*
X30881442Y23875518D01*
X30815260Y23869000D01*
X30726740Y23869000D01*
X30660558Y23875518D01*
X30594373Y23882037D01*
X30481147Y23916384D01*
X30424533Y23933557D01*
X30268011Y24017221D01*
X30268009Y24017222D01*
X30224031Y24053314D01*
X30130814Y24129814D01*
X30019565Y24265373D01*
X30018222Y24267009D01*
X29963706Y24369000D01*
X29934557Y24423533D01*
X29891718Y24564756D01*
X29883037Y24593373D01*
X29865641Y24770000D01*
X29883037Y24946627D01*
X29924158Y25082186D01*
X29934557Y25116467D01*
X30018221Y25272989D01*
X30018222Y25272991D01*
X30075677Y25343000D01*
X30130814Y25410186D01*
X30236183Y25496659D01*
X30268009Y25522778D01*
X30285913Y25532348D01*
X30424533Y25606443D01*
X30481147Y25623616D01*
X30594373Y25657963D01*
X30660558Y25664482D01*
X30726740Y25671000D01*
X30815260Y25671000D01*
X30881442Y25664482D01*
X30881442Y25664482D01*
G37*
G36*
X33421442Y25664482D02*
X33487627Y25657963D01*
X33600853Y25623616D01*
X33657467Y25606443D01*
X33796087Y25532348D01*
X33813991Y25522778D01*
X33845817Y25496659D01*
X33951186Y25410186D01*
X34006323Y25343000D01*
X34063778Y25272991D01*
X34063779Y25272989D01*
X34147443Y25116467D01*
X34157842Y25082186D01*
X34198963Y24946627D01*
X34216359Y24770000D01*
X34198963Y24593373D01*
X34190282Y24564756D01*
X34147443Y24423533D01*
X34118294Y24369000D01*
X34063778Y24267009D01*
X34062435Y24265373D01*
X33951186Y24129814D01*
X33857969Y24053314D01*
X33813991Y24017222D01*
X33813989Y24017221D01*
X33657467Y23933557D01*
X33600853Y23916384D01*
X33487627Y23882037D01*
X33421442Y23875518D01*
X33355260Y23869000D01*
X33266740Y23869000D01*
X33200558Y23875518D01*
X33134373Y23882037D01*
X33021147Y23916384D01*
X32964533Y23933557D01*
X32808011Y24017221D01*
X32808009Y24017222D01*
X32764031Y24053314D01*
X32670814Y24129814D01*
X32559565Y24265373D01*
X32558222Y24267009D01*
X32503706Y24369000D01*
X32474557Y24423533D01*
X32431718Y24564756D01*
X32423037Y24593373D01*
X32405641Y24770000D01*
X32423037Y24946627D01*
X32464158Y25082186D01*
X32474557Y25116467D01*
X32558221Y25272989D01*
X32558222Y25272991D01*
X32615677Y25343000D01*
X32670814Y25410186D01*
X32776183Y25496659D01*
X32808009Y25522778D01*
X32825913Y25532348D01*
X32964533Y25606443D01*
X33021147Y25623616D01*
X33134373Y25657963D01*
X33200558Y25664482D01*
X33266740Y25671000D01*
X33355260Y25671000D01*
X33421442Y25664482D01*
X33421442Y25664482D01*
G37*
G36*
X35961442Y25664482D02*
X36027627Y25657963D01*
X36140853Y25623616D01*
X36197467Y25606443D01*
X36336087Y25532348D01*
X36353991Y25522778D01*
X36385817Y25496659D01*
X36491186Y25410186D01*
X36546323Y25343000D01*
X36603778Y25272991D01*
X36603779Y25272989D01*
X36687443Y25116467D01*
X36697842Y25082186D01*
X36738963Y24946627D01*
X36756359Y24770000D01*
X36738963Y24593373D01*
X36730282Y24564756D01*
X36687443Y24423533D01*
X36658294Y24369000D01*
X36603778Y24267009D01*
X36602435Y24265373D01*
X36491186Y24129814D01*
X36397969Y24053314D01*
X36353991Y24017222D01*
X36353989Y24017221D01*
X36197467Y23933557D01*
X36140853Y23916384D01*
X36027627Y23882037D01*
X35961442Y23875518D01*
X35895260Y23869000D01*
X35806740Y23869000D01*
X35740558Y23875518D01*
X35674373Y23882037D01*
X35561147Y23916384D01*
X35504533Y23933557D01*
X35348011Y24017221D01*
X35348009Y24017222D01*
X35304031Y24053314D01*
X35210814Y24129814D01*
X35099565Y24265373D01*
X35098222Y24267009D01*
X35043706Y24369000D01*
X35014557Y24423533D01*
X34971718Y24564756D01*
X34963037Y24593373D01*
X34945641Y24770000D01*
X34963037Y24946627D01*
X35004158Y25082186D01*
X35014557Y25116467D01*
X35098221Y25272989D01*
X35098222Y25272991D01*
X35155677Y25343000D01*
X35210814Y25410186D01*
X35316183Y25496659D01*
X35348009Y25522778D01*
X35365913Y25532348D01*
X35504533Y25606443D01*
X35561147Y25623616D01*
X35674373Y25657963D01*
X35740558Y25664482D01*
X35806740Y25671000D01*
X35895260Y25671000D01*
X35961442Y25664482D01*
X35961442Y25664482D01*
G37*
G36*
X78906821Y25730687D02*
X78906824Y25730686D01*
X78906825Y25730686D01*
X79067239Y25682025D01*
X79067241Y25682024D01*
X79067244Y25682023D01*
X79215078Y25603005D01*
X79344659Y25496659D01*
X79451005Y25367078D01*
X79530023Y25219244D01*
X79530024Y25219241D01*
X79530025Y25219239D01*
X79571600Y25082185D01*
X79578687Y25058821D01*
X79595117Y24892000D01*
X79578687Y24725179D01*
X79578686Y24725176D01*
X79578686Y24725175D01*
X79541818Y24603637D01*
X79530023Y24564756D01*
X79451005Y24416922D01*
X79344659Y24287341D01*
X79215078Y24180995D01*
X79067244Y24101977D01*
X79067241Y24101976D01*
X79067239Y24101975D01*
X78906825Y24053314D01*
X78906824Y24053314D01*
X78906821Y24053313D01*
X78781804Y24041000D01*
X78698196Y24041000D01*
X78573179Y24053313D01*
X78573176Y24053314D01*
X78573175Y24053314D01*
X78412761Y24101975D01*
X78412759Y24101976D01*
X78412756Y24101977D01*
X78264922Y24180995D01*
X78135341Y24287341D01*
X78028995Y24416922D01*
X77949977Y24564756D01*
X77938183Y24603637D01*
X77901314Y24725175D01*
X77901314Y24725176D01*
X77901313Y24725179D01*
X77884883Y24892000D01*
X77901313Y25058821D01*
X77908400Y25082185D01*
X77949975Y25219239D01*
X77949976Y25219241D01*
X77949977Y25219244D01*
X78028995Y25367078D01*
X78135341Y25496659D01*
X78264922Y25603005D01*
X78412756Y25682023D01*
X78412759Y25682024D01*
X78412761Y25682025D01*
X78573175Y25730686D01*
X78573176Y25730686D01*
X78573179Y25730687D01*
X78698196Y25743000D01*
X78781804Y25743000D01*
X78906821Y25730687D01*
X78906821Y25730687D01*
G37*
G36*
X70156565Y26430611D02*
X70347834Y26351385D01*
X70519976Y26236363D01*
X70666363Y26089976D01*
X70781385Y25917834D01*
X70860611Y25726565D01*
X70901000Y25523516D01*
X70901000Y25316484D01*
X70860611Y25113435D01*
X70781385Y24922166D01*
X70666363Y24750024D01*
X70519976Y24603637D01*
X70347834Y24488615D01*
X70156565Y24409389D01*
X69953516Y24369000D01*
X69746484Y24369000D01*
X69543435Y24409389D01*
X69352166Y24488615D01*
X69180024Y24603637D01*
X69033637Y24750024D01*
X68918615Y24922166D01*
X68839389Y25113435D01*
X68799000Y25316484D01*
X68799000Y25523516D01*
X68839389Y25726565D01*
X68918615Y25917834D01*
X69033637Y26089976D01*
X69180024Y26236363D01*
X69352166Y26351385D01*
X69543435Y26430611D01*
X69746484Y26471000D01*
X69953516Y26471000D01*
X70156565Y26430611D01*
X70156565Y26430611D01*
G37*
G36*
X13544442Y27876482D02*
X13610627Y27869963D01*
X13723853Y27835616D01*
X13780467Y27818443D01*
X13919087Y27744348D01*
X13936991Y27734778D01*
X13972729Y27705448D01*
X14074186Y27622186D01*
X14157448Y27520729D01*
X14186778Y27484991D01*
X14186779Y27484989D01*
X14270443Y27328467D01*
X14270443Y27328466D01*
X14321963Y27158627D01*
X14339359Y26982000D01*
X14321963Y26805373D01*
X14287616Y26692147D01*
X14270443Y26635533D01*
X14196348Y26496913D01*
X14186778Y26479009D01*
X14180205Y26471000D01*
X14074186Y26341814D01*
X13972729Y26258552D01*
X13936991Y26229222D01*
X13936989Y26229221D01*
X13780467Y26145557D01*
X13723853Y26128384D01*
X13610627Y26094037D01*
X13544442Y26087518D01*
X13478260Y26081000D01*
X13389740Y26081000D01*
X13323558Y26087518D01*
X13257373Y26094037D01*
X13144147Y26128384D01*
X13087533Y26145557D01*
X12931011Y26229221D01*
X12931009Y26229222D01*
X12895271Y26258552D01*
X12793814Y26341814D01*
X12687795Y26471000D01*
X12681222Y26479009D01*
X12671652Y26496913D01*
X12597557Y26635533D01*
X12580384Y26692147D01*
X12546037Y26805373D01*
X12528641Y26982000D01*
X12546037Y27158627D01*
X12597557Y27328466D01*
X12597557Y27328467D01*
X12681221Y27484989D01*
X12681222Y27484991D01*
X12710552Y27520729D01*
X12793814Y27622186D01*
X12895271Y27705448D01*
X12931009Y27734778D01*
X12948913Y27744348D01*
X13087533Y27818443D01*
X13144147Y27835616D01*
X13257373Y27869963D01*
X13323558Y27876482D01*
X13389740Y27883000D01*
X13478260Y27883000D01*
X13544442Y27876482D01*
X13544442Y27876482D01*
G37*
G36*
X13544443Y30416481D02*
X13610627Y30409963D01*
X13723853Y30375616D01*
X13780467Y30358443D01*
X13919087Y30284348D01*
X13936991Y30274778D01*
X13972729Y30245448D01*
X14074186Y30162186D01*
X14157448Y30060729D01*
X14186778Y30024991D01*
X14186779Y30024989D01*
X14270443Y29868467D01*
X14270443Y29868466D01*
X14321963Y29698627D01*
X14339359Y29522000D01*
X14321963Y29345373D01*
X14287616Y29232147D01*
X14270443Y29175533D01*
X14196348Y29036913D01*
X14186778Y29019009D01*
X14157448Y28983271D01*
X14074186Y28881814D01*
X13972729Y28798552D01*
X13936991Y28769222D01*
X13936989Y28769221D01*
X13780467Y28685557D01*
X13723853Y28668384D01*
X13610627Y28634037D01*
X13544442Y28627518D01*
X13478260Y28621000D01*
X13389740Y28621000D01*
X13323558Y28627518D01*
X13257373Y28634037D01*
X13144147Y28668384D01*
X13087533Y28685557D01*
X12931011Y28769221D01*
X12931009Y28769222D01*
X12895271Y28798552D01*
X12793814Y28881814D01*
X12710552Y28983271D01*
X12681222Y29019009D01*
X12671652Y29036913D01*
X12597557Y29175533D01*
X12580384Y29232147D01*
X12546037Y29345373D01*
X12528641Y29522000D01*
X12546037Y29698627D01*
X12597557Y29868466D01*
X12597557Y29868467D01*
X12681221Y30024989D01*
X12681222Y30024991D01*
X12710552Y30060729D01*
X12793814Y30162186D01*
X12895271Y30245448D01*
X12931009Y30274778D01*
X12948913Y30284348D01*
X13087533Y30358443D01*
X13144147Y30375616D01*
X13257373Y30409963D01*
X13323557Y30416481D01*
X13389740Y30423000D01*
X13478260Y30423000D01*
X13544443Y30416481D01*
X13544443Y30416481D01*
G37*
G36*
X49950821Y32842687D02*
X49950824Y32842686D01*
X49950825Y32842686D01*
X50111239Y32794025D01*
X50111241Y32794024D01*
X50111244Y32794023D01*
X50259078Y32715005D01*
X50388659Y32608659D01*
X50495005Y32479078D01*
X50574023Y32331244D01*
X50574024Y32331241D01*
X50574025Y32331239D01*
X50622686Y32170825D01*
X50622687Y32170821D01*
X50639117Y32004000D01*
X50622687Y31837179D01*
X50622686Y31837176D01*
X50622686Y31837175D01*
X50579165Y31693704D01*
X50574023Y31676756D01*
X50495005Y31528922D01*
X50388659Y31399341D01*
X50259078Y31292995D01*
X50111244Y31213977D01*
X50111241Y31213976D01*
X50111239Y31213975D01*
X49950825Y31165314D01*
X49950824Y31165314D01*
X49950821Y31165313D01*
X49825804Y31153000D01*
X49742196Y31153000D01*
X49617179Y31165313D01*
X49617176Y31165314D01*
X49617175Y31165314D01*
X49456761Y31213975D01*
X49456759Y31213976D01*
X49456756Y31213977D01*
X49308922Y31292995D01*
X49179341Y31399341D01*
X49072995Y31528922D01*
X48993977Y31676756D01*
X48988836Y31693704D01*
X48945314Y31837175D01*
X48945314Y31837176D01*
X48945313Y31837179D01*
X48928883Y32004000D01*
X48945313Y32170821D01*
X48945314Y32170825D01*
X48993975Y32331239D01*
X48993976Y32331241D01*
X48993977Y32331244D01*
X49072995Y32479078D01*
X49179341Y32608659D01*
X49308922Y32715005D01*
X49456756Y32794023D01*
X49456759Y32794024D01*
X49456761Y32794025D01*
X49617175Y32842686D01*
X49617176Y32842686D01*
X49617179Y32842687D01*
X49742196Y32855000D01*
X49825804Y32855000D01*
X49950821Y32842687D01*
X49950821Y32842687D01*
G37*
G36*
X78988228Y33330297D02*
X79143100Y33266147D01*
X79282481Y33173015D01*
X79401015Y33054481D01*
X79494147Y32915100D01*
X79558297Y32760228D01*
X79591000Y32595816D01*
X79591000Y32428184D01*
X79558297Y32263772D01*
X79494147Y32108900D01*
X79401015Y31969519D01*
X79282481Y31850985D01*
X79143100Y31757853D01*
X78988228Y31693703D01*
X78823816Y31661000D01*
X78656184Y31661000D01*
X78491772Y31693703D01*
X78336900Y31757853D01*
X78197519Y31850985D01*
X78078985Y31969519D01*
X77985853Y32108900D01*
X77921703Y32263772D01*
X77889000Y32428184D01*
X77889000Y32595816D01*
X77921703Y32760228D01*
X77985853Y32915100D01*
X78078985Y33054481D01*
X78197519Y33173015D01*
X78336900Y33266147D01*
X78491772Y33330297D01*
X78656184Y33363000D01*
X78823816Y33363000D01*
X78988228Y33330297D01*
X78988228Y33330297D01*
G37*
G36*
X70901000Y31969000D02*
X68799000Y31969000D01*
X68799000Y34071000D01*
X70901000Y34071000D01*
X70901000Y31969000D01*
X70901000Y31969000D01*
G37*
G36*
X44362821Y35128687D02*
X44362824Y35128686D01*
X44362825Y35128686D01*
X44523239Y35080025D01*
X44523241Y35080024D01*
X44523244Y35080023D01*
X44671078Y35001005D01*
X44800659Y34894659D01*
X44907005Y34765078D01*
X44986023Y34617244D01*
X45034687Y34456821D01*
X45051117Y34290000D01*
X45034687Y34123179D01*
X44986023Y33962756D01*
X44907005Y33814922D01*
X44800659Y33685341D01*
X44671078Y33578995D01*
X44523244Y33499977D01*
X44523241Y33499976D01*
X44523239Y33499975D01*
X44362825Y33451314D01*
X44362824Y33451314D01*
X44362821Y33451313D01*
X44237804Y33439000D01*
X44154196Y33439000D01*
X44029179Y33451313D01*
X44029176Y33451314D01*
X44029175Y33451314D01*
X43868761Y33499975D01*
X43868759Y33499976D01*
X43868756Y33499977D01*
X43720922Y33578995D01*
X43591341Y33685341D01*
X43484995Y33814922D01*
X43405977Y33962756D01*
X43357313Y34123179D01*
X43340883Y34290000D01*
X43357313Y34456821D01*
X43405977Y34617244D01*
X43484995Y34765078D01*
X43591341Y34894659D01*
X43720922Y35001005D01*
X43868756Y35080023D01*
X43868759Y35080024D01*
X43868761Y35080025D01*
X44029175Y35128686D01*
X44029176Y35128686D01*
X44029179Y35128687D01*
X44154196Y35141000D01*
X44237804Y35141000D01*
X44362821Y35128687D01*
X44362821Y35128687D01*
G37*
G36*
X37427000Y33439000D02*
X35725000Y33439000D01*
X35725000Y35141000D01*
X37427000Y35141000D01*
X37427000Y33439000D01*
X37427000Y33439000D01*
G37*
G36*
X124909256Y40910702D02*
X125015579Y40889553D01*
X125316042Y40765097D01*
X125582852Y40586820D01*
X125586454Y40584413D01*
X125816413Y40354454D01*
X125997098Y40084040D01*
X126121553Y39783578D01*
X126185000Y39464611D01*
X126185000Y39139389D01*
X126121553Y38820422D01*
X125997098Y38519960D01*
X125816413Y38249546D01*
X125586454Y38019587D01*
X125586451Y38019585D01*
X125316042Y37838903D01*
X125015579Y37714447D01*
X124909256Y37693298D01*
X124696611Y37651000D01*
X124371389Y37651000D01*
X124158744Y37693298D01*
X124052421Y37714447D01*
X123751958Y37838903D01*
X123481549Y38019585D01*
X123481546Y38019587D01*
X123251587Y38249546D01*
X123070902Y38519960D01*
X122946447Y38820422D01*
X122883000Y39139389D01*
X122883000Y39464611D01*
X122946447Y39783578D01*
X123070902Y40084040D01*
X123251587Y40354454D01*
X123481546Y40584413D01*
X123485148Y40586820D01*
X123751958Y40765097D01*
X124052421Y40889553D01*
X124158744Y40910702D01*
X124371389Y40953000D01*
X124696611Y40953000D01*
X124909256Y40910702D01*
X124909256Y40910702D01*
G37*
G36*
X88909256Y40910702D02*
X89015579Y40889553D01*
X89316042Y40765097D01*
X89582852Y40586820D01*
X89586454Y40584413D01*
X89816413Y40354454D01*
X89997098Y40084040D01*
X90121553Y39783578D01*
X90185000Y39464611D01*
X90185000Y39139389D01*
X90121553Y38820422D01*
X89997098Y38519960D01*
X89816413Y38249546D01*
X89586454Y38019587D01*
X89586451Y38019585D01*
X89316042Y37838903D01*
X89015579Y37714447D01*
X88909256Y37693298D01*
X88696611Y37651000D01*
X88371389Y37651000D01*
X88158744Y37693298D01*
X88052421Y37714447D01*
X87751958Y37838903D01*
X87481549Y38019585D01*
X87481546Y38019587D01*
X87251587Y38249546D01*
X87070902Y38519960D01*
X86946447Y38820422D01*
X86883000Y39139389D01*
X86883000Y39464611D01*
X86946447Y39783578D01*
X87070902Y40084040D01*
X87251587Y40354454D01*
X87481546Y40584413D01*
X87485148Y40586820D01*
X87751958Y40765097D01*
X88052421Y40889553D01*
X88158744Y40910702D01*
X88371389Y40953000D01*
X88696611Y40953000D01*
X88909256Y40910702D01*
X88909256Y40910702D01*
G37*
G36*
X5709256Y40910702D02*
X5815579Y40889553D01*
X6116042Y40765097D01*
X6382852Y40586820D01*
X6386454Y40584413D01*
X6616413Y40354454D01*
X6797098Y40084040D01*
X6921553Y39783578D01*
X6985000Y39464611D01*
X6985000Y39139389D01*
X6921553Y38820422D01*
X6797098Y38519960D01*
X6616413Y38249546D01*
X6386454Y38019587D01*
X6386451Y38019585D01*
X6116042Y37838903D01*
X5815579Y37714447D01*
X5709256Y37693298D01*
X5496611Y37651000D01*
X5171389Y37651000D01*
X4958744Y37693298D01*
X4852421Y37714447D01*
X4551958Y37838903D01*
X4281549Y38019585D01*
X4281546Y38019587D01*
X4051587Y38249546D01*
X3870902Y38519960D01*
X3746447Y38820422D01*
X3683000Y39139389D01*
X3683000Y39464611D01*
X3746447Y39783578D01*
X3870902Y40084040D01*
X4051587Y40354454D01*
X4281546Y40584413D01*
X4285148Y40586820D01*
X4551958Y40765097D01*
X4852421Y40889553D01*
X4958744Y40910702D01*
X5171389Y40953000D01*
X5496611Y40953000D01*
X5709256Y40910702D01*
X5709256Y40910702D01*
G37*
M02*
