G04 #@! TF.GenerationSoftware,KiCad,Pcbnew,5.0.2-bee76a0~70~ubuntu18.04.1*
G04 #@! TF.CreationDate,2019-01-15T17:32:11-08:00*
G04 #@! TF.ProjectId,Marlin_UIBOX,4d61726c-696e-45f5-9549-424f582e6b69,rev?*
G04 #@! TF.SameCoordinates,PX55c0260PY70276d0*
G04 #@! TF.FileFunction,Legend,Top*
G04 #@! TF.FilePolarity,Positive*
%FSLAX46Y46*%
G04 Gerber Fmt 4.6, Leading zero omitted, Abs format (unit mm)*
G04 Created by KiCad (PCBNEW 5.0.2-bee76a0~70~ubuntu18.04.1) date Tue 15 Jan 2019 05:32:11 PM PST*
%MOMM*%
%LPD*%
G01*
G04 APERTURE LIST*
%ADD10C,0.120000*%
%ADD11C,0.150000*%
G04 APERTURE END LIST*
D10*
G04 #@! TO.C,J4*
X37181000Y23440000D02*
X37181000Y26100000D01*
X21881000Y23440000D02*
X37181000Y23440000D01*
X21881000Y26100000D02*
X37181000Y26100000D01*
X21881000Y23440000D02*
X21881000Y26100000D01*
X20611000Y23440000D02*
X19281000Y23440000D01*
X19281000Y23440000D02*
X19281000Y24770000D01*
G04 #@! TO.C,D1*
X38266000Y35410000D02*
X38266000Y33170000D01*
X38266000Y33170000D02*
X42506000Y33170000D01*
X42506000Y33170000D02*
X42506000Y35410000D01*
X42506000Y35410000D02*
X38266000Y35410000D01*
X37616000Y34290000D02*
X38266000Y34290000D01*
X43156000Y34290000D02*
X42506000Y34290000D01*
X38986000Y35410000D02*
X38986000Y33170000D01*
X39106000Y35410000D02*
X39106000Y33170000D01*
X38866000Y35410000D02*
X38866000Y33170000D01*
G04 #@! TO.C,J3*
X14764000Y15552000D02*
X12104000Y15552000D01*
X14764000Y15552000D02*
X14764000Y30852000D01*
X14764000Y30852000D02*
X12104000Y30852000D01*
X12104000Y15552000D02*
X12104000Y30852000D01*
X12104000Y12952000D02*
X12104000Y14282000D01*
X13434000Y12952000D02*
X12104000Y12952000D01*
G04 #@! TO.C,LS1*
X78236000Y29220000D02*
G75*
G03X78236000Y29220000I-6100000J0D01*
G01*
G04 #@! TO.C,Q1*
X83638000Y18774000D02*
X83638000Y22374000D01*
X83626478Y18735522D02*
G75*
G02X79188000Y20574000I-1838478J1838478D01*
G01*
X83626478Y22412478D02*
G75*
G03X79188000Y20574000I-1838478J-1838478D01*
G01*
G04 #@! TO.C,R1*
X51154000Y31464000D02*
X50824000Y31464000D01*
X51154000Y24924000D02*
X51154000Y31464000D01*
X50824000Y24924000D02*
X51154000Y24924000D01*
X48414000Y31464000D02*
X48744000Y31464000D01*
X48414000Y24924000D02*
X48414000Y31464000D01*
X48744000Y24924000D02*
X48414000Y24924000D01*
G04 #@! TO.C,R2*
X82828000Y31972000D02*
X83158000Y31972000D01*
X83158000Y31972000D02*
X83158000Y25432000D01*
X83158000Y25432000D02*
X82828000Y25432000D01*
X80748000Y31972000D02*
X80418000Y31972000D01*
X80418000Y31972000D02*
X80418000Y25432000D01*
X80418000Y25432000D02*
X80748000Y25432000D01*
G04 #@! TO.C,J4*
D11*
X19478666Y22391620D02*
X19478666Y21677334D01*
X19431047Y21534477D01*
X19335809Y21439239D01*
X19192952Y21391620D01*
X19097714Y21391620D01*
X20383428Y22058286D02*
X20383428Y21391620D01*
X20145333Y22439239D02*
X19907238Y21724953D01*
X20526285Y21724953D01*
G04 #@! TO.C,D1*
X39901904Y33837620D02*
X39901904Y34837620D01*
X40140000Y34837620D01*
X40282857Y34790000D01*
X40378095Y34694762D01*
X40425714Y34599524D01*
X40473333Y34409048D01*
X40473333Y34266191D01*
X40425714Y34075715D01*
X40378095Y33980477D01*
X40282857Y33885239D01*
X40140000Y33837620D01*
X39901904Y33837620D01*
X41425714Y33837620D02*
X40854285Y33837620D01*
X41140000Y33837620D02*
X41140000Y34837620D01*
X41044761Y34694762D01*
X40949523Y34599524D01*
X40854285Y34551905D01*
G04 #@! TO.C,J3*
X13100666Y12059620D02*
X13100666Y11345334D01*
X13053047Y11202477D01*
X12957809Y11107239D01*
X12814952Y11059620D01*
X12719714Y11059620D01*
X13481619Y12059620D02*
X14100666Y12059620D01*
X13767333Y11678667D01*
X13910190Y11678667D01*
X14005428Y11631048D01*
X14053047Y11583429D01*
X14100666Y11488191D01*
X14100666Y11250096D01*
X14053047Y11154858D01*
X14005428Y11107239D01*
X13910190Y11059620D01*
X13624476Y11059620D01*
X13529238Y11107239D01*
X13481619Y11154858D01*
G04 #@! TO.C,LS1*
X71493142Y28757620D02*
X71016952Y28757620D01*
X71016952Y29757620D01*
X71778857Y28805239D02*
X71921714Y28757620D01*
X72159809Y28757620D01*
X72255047Y28805239D01*
X72302666Y28852858D01*
X72350285Y28948096D01*
X72350285Y29043334D01*
X72302666Y29138572D01*
X72255047Y29186191D01*
X72159809Y29233810D01*
X71969333Y29281429D01*
X71874095Y29329048D01*
X71826476Y29376667D01*
X71778857Y29471905D01*
X71778857Y29567143D01*
X71826476Y29662381D01*
X71874095Y29710000D01*
X71969333Y29757620D01*
X72207428Y29757620D01*
X72350285Y29710000D01*
X73302666Y28757620D02*
X72731238Y28757620D01*
X73016952Y28757620D02*
X73016952Y29757620D01*
X72921714Y29614762D01*
X72826476Y29519524D01*
X72731238Y29471905D01*
X74747428Y32649048D02*
X74747428Y33410953D01*
X75128380Y33030000D02*
X74366476Y33030000D01*
G04 #@! TO.C,Q1*
X77882761Y22058381D02*
X77787523Y22106000D01*
X77692285Y22201239D01*
X77549428Y22344096D01*
X77454190Y22391715D01*
X77358952Y22391715D01*
X77406571Y22153620D02*
X77311333Y22201239D01*
X77216095Y22296477D01*
X77168476Y22486953D01*
X77168476Y22820286D01*
X77216095Y23010762D01*
X77311333Y23106000D01*
X77406571Y23153620D01*
X77597047Y23153620D01*
X77692285Y23106000D01*
X77787523Y23010762D01*
X77835142Y22820286D01*
X77835142Y22486953D01*
X77787523Y22296477D01*
X77692285Y22201239D01*
X77597047Y22153620D01*
X77406571Y22153620D01*
X78787523Y22153620D02*
X78216095Y22153620D01*
X78501809Y22153620D02*
X78501809Y23153620D01*
X78406571Y23010762D01*
X78311333Y22915524D01*
X78216095Y22867905D01*
G04 #@! TO.C,R1*
X50236380Y28027334D02*
X49760190Y27694000D01*
X50236380Y27455905D02*
X49236380Y27455905D01*
X49236380Y27836858D01*
X49284000Y27932096D01*
X49331619Y27979715D01*
X49426857Y28027334D01*
X49569714Y28027334D01*
X49664952Y27979715D01*
X49712571Y27932096D01*
X49760190Y27836858D01*
X49760190Y27455905D01*
X50236380Y28979715D02*
X50236380Y28408286D01*
X50236380Y28694000D02*
X49236380Y28694000D01*
X49379238Y28598762D01*
X49474476Y28503524D01*
X49522095Y28408286D01*
G04 #@! TO.C,R2*
X82240380Y28535334D02*
X81764190Y28202000D01*
X82240380Y27963905D02*
X81240380Y27963905D01*
X81240380Y28344858D01*
X81288000Y28440096D01*
X81335619Y28487715D01*
X81430857Y28535334D01*
X81573714Y28535334D01*
X81668952Y28487715D01*
X81716571Y28440096D01*
X81764190Y28344858D01*
X81764190Y27963905D01*
X81335619Y28916286D02*
X81288000Y28963905D01*
X81240380Y29059143D01*
X81240380Y29297239D01*
X81288000Y29392477D01*
X81335619Y29440096D01*
X81430857Y29487715D01*
X81526095Y29487715D01*
X81668952Y29440096D01*
X82240380Y28868667D01*
X82240380Y29487715D01*
G04 #@! TD*
M02*
