G04 #@! TF.GenerationSoftware,KiCad,Pcbnew,5.1.5-52549c5~84~ubuntu18.04.1*
G04 #@! TF.CreationDate,2020-03-25T12:32:36-07:00*
G04 #@! TF.ProjectId,Marlin_UIBOX,4d61726c-696e-45f5-9549-424f582e6b69,rev?*
G04 #@! TF.SameCoordinates,PX55c0260PY70276d0*
G04 #@! TF.FileFunction,Legend,Top*
G04 #@! TF.FilePolarity,Positive*
%FSLAX46Y46*%
G04 Gerber Fmt 4.6, Leading zero omitted, Abs format (unit mm)*
G04 Created by KiCad (PCBNEW 5.1.5-52549c5~84~ubuntu18.04.1) date 2020-03-25 12:32:36*
%MOMM*%
%LPD*%
G04 APERTURE LIST*
%ADD10C,0.150000*%
%ADD11C,0.120000*%
G04 APERTURE END LIST*
D10*
X111498071Y1522358D02*
X111545690Y1665215D01*
X111593309Y1712834D01*
X111688547Y1760453D01*
X111831404Y1760453D01*
X111926642Y1712834D01*
X111974261Y1665215D01*
X112021880Y1569977D01*
X112021880Y1189024D01*
X111021880Y1189024D01*
X111021880Y1522358D01*
X111069500Y1617596D01*
X111117119Y1665215D01*
X111212357Y1712834D01*
X111307595Y1712834D01*
X111402833Y1665215D01*
X111450452Y1617596D01*
X111498071Y1522358D01*
X111498071Y1189024D01*
X111021880Y2046167D02*
X111021880Y2617596D01*
X112021880Y2331881D02*
X111021880Y2331881D01*
X112117119Y2712834D02*
X112117119Y3474739D01*
X111498071Y3712834D02*
X111498071Y4046167D01*
X112021880Y4189024D02*
X112021880Y3712834D01*
X111021880Y3712834D01*
X111021880Y4189024D01*
X112021880Y4617596D02*
X111021880Y4617596D01*
X112021880Y5189024D01*
X111021880Y5189024D01*
X111117119Y5617596D02*
X111069500Y5665215D01*
X111021880Y5760453D01*
X111021880Y5998548D01*
X111069500Y6093786D01*
X111117119Y6141405D01*
X111212357Y6189024D01*
X111307595Y6189024D01*
X111450452Y6141405D01*
X112021880Y5569977D01*
X112021880Y6189024D01*
X100973000Y4093786D02*
X100925380Y3998548D01*
X100925380Y3855691D01*
X100973000Y3712834D01*
X101068238Y3617596D01*
X101163476Y3569977D01*
X101353952Y3522358D01*
X101496809Y3522358D01*
X101687285Y3569977D01*
X101782523Y3617596D01*
X101877761Y3712834D01*
X101925380Y3855691D01*
X101925380Y3950929D01*
X101877761Y4093786D01*
X101830142Y4141405D01*
X101496809Y4141405D01*
X101496809Y3950929D01*
X101925380Y4569977D02*
X100925380Y4569977D01*
X101925380Y5141405D01*
X100925380Y5141405D01*
X101925380Y5617596D02*
X100925380Y5617596D01*
X100925380Y5855691D01*
X100973000Y5998548D01*
X101068238Y6093786D01*
X101163476Y6141405D01*
X101353952Y6189024D01*
X101496809Y6189024D01*
X101687285Y6141405D01*
X101782523Y6093786D01*
X101877761Y5998548D01*
X101925380Y5855691D01*
X101925380Y5617596D01*
X106418071Y2331881D02*
X106465690Y2474739D01*
X106513309Y2522358D01*
X106608547Y2569977D01*
X106751404Y2569977D01*
X106846642Y2522358D01*
X106894261Y2474739D01*
X106941880Y2379500D01*
X106941880Y1998548D01*
X105941880Y1998548D01*
X105941880Y2331881D01*
X105989500Y2427120D01*
X106037119Y2474739D01*
X106132357Y2522358D01*
X106227595Y2522358D01*
X106322833Y2474739D01*
X106370452Y2427120D01*
X106418071Y2331881D01*
X106418071Y1998548D01*
X105941880Y2855691D02*
X105941880Y3427120D01*
X106941880Y3141405D02*
X105941880Y3141405D01*
X107037119Y3522358D02*
X107037119Y4284262D01*
X106894261Y4474739D02*
X106941880Y4617596D01*
X106941880Y4855691D01*
X106894261Y4950929D01*
X106846642Y4998548D01*
X106751404Y5046167D01*
X106656166Y5046167D01*
X106560928Y4998548D01*
X106513309Y4950929D01*
X106465690Y4855691D01*
X106418071Y4665215D01*
X106370452Y4569977D01*
X106322833Y4522358D01*
X106227595Y4474739D01*
X106132357Y4474739D01*
X106037119Y4522358D01*
X105989500Y4569977D01*
X105941880Y4665215D01*
X105941880Y4903310D01*
X105989500Y5046167D01*
X105941880Y5379500D02*
X106941880Y5617596D01*
X106227595Y5808072D01*
X106941880Y5998548D01*
X105941880Y6236643D01*
X109021571Y1522358D02*
X109069190Y1665215D01*
X109116809Y1712834D01*
X109212047Y1760453D01*
X109354904Y1760453D01*
X109450142Y1712834D01*
X109497761Y1665215D01*
X109545380Y1569977D01*
X109545380Y1189024D01*
X108545380Y1189024D01*
X108545380Y1522358D01*
X108593000Y1617596D01*
X108640619Y1665215D01*
X108735857Y1712834D01*
X108831095Y1712834D01*
X108926333Y1665215D01*
X108973952Y1617596D01*
X109021571Y1522358D01*
X109021571Y1189024D01*
X108545380Y2046167D02*
X108545380Y2617596D01*
X109545380Y2331881D02*
X108545380Y2331881D01*
X109640619Y2712834D02*
X109640619Y3474739D01*
X109021571Y3712834D02*
X109021571Y4046167D01*
X109545380Y4189024D02*
X109545380Y3712834D01*
X108545380Y3712834D01*
X108545380Y4189024D01*
X109545380Y4617596D02*
X108545380Y4617596D01*
X109545380Y5189024D01*
X108545380Y5189024D01*
X109545380Y6189024D02*
X109545380Y5617596D01*
X109545380Y5903310D02*
X108545380Y5903310D01*
X108688238Y5808072D01*
X108783476Y5712834D01*
X108831095Y5617596D01*
X103465380Y3617596D02*
X104465380Y3950929D01*
X103465380Y4284262D01*
X104370142Y5189024D02*
X104417761Y5141405D01*
X104465380Y4998548D01*
X104465380Y4903310D01*
X104417761Y4760453D01*
X104322523Y4665215D01*
X104227285Y4617596D01*
X104036809Y4569977D01*
X103893952Y4569977D01*
X103703476Y4617596D01*
X103608238Y4665215D01*
X103513000Y4760453D01*
X103465380Y4903310D01*
X103465380Y4998548D01*
X103513000Y5141405D01*
X103560619Y5189024D01*
X104370142Y6189024D02*
X104417761Y6141405D01*
X104465380Y5998548D01*
X104465380Y5903310D01*
X104417761Y5760453D01*
X104322523Y5665215D01*
X104227285Y5617596D01*
X104036809Y5569977D01*
X103893952Y5569977D01*
X103703476Y5617596D01*
X103608238Y5665215D01*
X103513000Y5760453D01*
X103465380Y5903310D01*
X103465380Y5998548D01*
X103513000Y6141405D01*
X103560619Y6189024D01*
X31202261Y7399977D02*
X31249880Y7542834D01*
X31249880Y7780929D01*
X31202261Y7876167D01*
X31154642Y7923786D01*
X31059404Y7971405D01*
X30964166Y7971405D01*
X30868928Y7923786D01*
X30821309Y7876167D01*
X30773690Y7780929D01*
X30726071Y7590453D01*
X30678452Y7495215D01*
X30630833Y7447596D01*
X30535595Y7399977D01*
X30440357Y7399977D01*
X30345119Y7447596D01*
X30297500Y7495215D01*
X30249880Y7590453D01*
X30249880Y7828548D01*
X30297500Y7971405D01*
X31154642Y8971405D02*
X31202261Y8923786D01*
X31249880Y8780929D01*
X31249880Y8685691D01*
X31202261Y8542834D01*
X31107023Y8447596D01*
X31011785Y8399977D01*
X30821309Y8352358D01*
X30678452Y8352358D01*
X30487976Y8399977D01*
X30392738Y8447596D01*
X30297500Y8542834D01*
X30249880Y8685691D01*
X30249880Y8780929D01*
X30297500Y8923786D01*
X30345119Y8971405D01*
X31249880Y9399977D02*
X30249880Y9399977D01*
X31249880Y9971405D02*
X30678452Y9542834D01*
X30249880Y9971405D02*
X30821309Y9399977D01*
X26169880Y7447596D02*
X25169880Y7447596D01*
X25884166Y7780929D01*
X25169880Y8114262D01*
X26169880Y8114262D01*
X26169880Y8590453D02*
X25169880Y8590453D01*
X26122261Y9019024D02*
X26169880Y9161881D01*
X26169880Y9399977D01*
X26122261Y9495215D01*
X26074642Y9542834D01*
X25979404Y9590453D01*
X25884166Y9590453D01*
X25788928Y9542834D01*
X25741309Y9495215D01*
X25693690Y9399977D01*
X25646071Y9209500D01*
X25598452Y9114262D01*
X25550833Y9066643D01*
X25455595Y9019024D01*
X25360357Y9019024D01*
X25265119Y9066643D01*
X25217500Y9114262D01*
X25169880Y9209500D01*
X25169880Y9447596D01*
X25217500Y9590453D01*
X25169880Y10209500D02*
X25169880Y10399977D01*
X25217500Y10495215D01*
X25312738Y10590453D01*
X25503214Y10638072D01*
X25836547Y10638072D01*
X26027023Y10590453D01*
X26122261Y10495215D01*
X26169880Y10399977D01*
X26169880Y10209500D01*
X26122261Y10114262D01*
X26027023Y10019024D01*
X25836547Y9971405D01*
X25503214Y9971405D01*
X25312738Y10019024D01*
X25217500Y10114262D01*
X25169880Y10209500D01*
X22566380Y7304739D02*
X23566380Y7638072D01*
X22566380Y7971405D01*
X23471142Y8876167D02*
X23518761Y8828548D01*
X23566380Y8685691D01*
X23566380Y8590453D01*
X23518761Y8447596D01*
X23423523Y8352358D01*
X23328285Y8304739D01*
X23137809Y8257120D01*
X22994952Y8257120D01*
X22804476Y8304739D01*
X22709238Y8352358D01*
X22614000Y8447596D01*
X22566380Y8590453D01*
X22566380Y8685691D01*
X22614000Y8828548D01*
X22661619Y8876167D01*
X23471142Y9876167D02*
X23518761Y9828548D01*
X23566380Y9685691D01*
X23566380Y9590453D01*
X23518761Y9447596D01*
X23423523Y9352358D01*
X23328285Y9304739D01*
X23137809Y9257120D01*
X22994952Y9257120D01*
X22804476Y9304739D01*
X22709238Y9352358D01*
X22614000Y9447596D01*
X22566380Y9590453D01*
X22566380Y9685691D01*
X22614000Y9828548D01*
X22661619Y9876167D01*
X20137500Y7971405D02*
X20089880Y7876167D01*
X20089880Y7733310D01*
X20137500Y7590453D01*
X20232738Y7495215D01*
X20327976Y7447596D01*
X20518452Y7399977D01*
X20661309Y7399977D01*
X20851785Y7447596D01*
X20947023Y7495215D01*
X21042261Y7590453D01*
X21089880Y7733310D01*
X21089880Y7828548D01*
X21042261Y7971405D01*
X20994642Y8019024D01*
X20661309Y8019024D01*
X20661309Y7828548D01*
X21089880Y8447596D02*
X20089880Y8447596D01*
X21089880Y9019024D01*
X20089880Y9019024D01*
X21089880Y9495215D02*
X20089880Y9495215D01*
X20089880Y9733310D01*
X20137500Y9876167D01*
X20232738Y9971405D01*
X20327976Y10019024D01*
X20518452Y10066643D01*
X20661309Y10066643D01*
X20851785Y10019024D01*
X20947023Y9971405D01*
X21042261Y9876167D01*
X21089880Y9733310D01*
X21089880Y9495215D01*
X33742261Y7399977D02*
X33789880Y7542834D01*
X33789880Y7780929D01*
X33742261Y7876167D01*
X33694642Y7923786D01*
X33599404Y7971405D01*
X33504166Y7971405D01*
X33408928Y7923786D01*
X33361309Y7876167D01*
X33313690Y7780929D01*
X33266071Y7590453D01*
X33218452Y7495215D01*
X33170833Y7447596D01*
X33075595Y7399977D01*
X32980357Y7399977D01*
X32885119Y7447596D01*
X32837500Y7495215D01*
X32789880Y7590453D01*
X32789880Y7828548D01*
X32837500Y7971405D01*
X33789880Y8399977D02*
X32789880Y8399977D01*
X32789880Y8638072D01*
X32837500Y8780929D01*
X32932738Y8876167D01*
X33027976Y8923786D01*
X33218452Y8971405D01*
X33361309Y8971405D01*
X33551785Y8923786D01*
X33647023Y8876167D01*
X33742261Y8780929D01*
X33789880Y8638072D01*
X33789880Y8399977D01*
X33885119Y9161881D02*
X33885119Y9923786D01*
X33742261Y10114262D02*
X33789880Y10257120D01*
X33789880Y10495215D01*
X33742261Y10590453D01*
X33694642Y10638072D01*
X33599404Y10685691D01*
X33504166Y10685691D01*
X33408928Y10638072D01*
X33361309Y10590453D01*
X33313690Y10495215D01*
X33266071Y10304739D01*
X33218452Y10209500D01*
X33170833Y10161881D01*
X33075595Y10114262D01*
X32980357Y10114262D01*
X32885119Y10161881D01*
X32837500Y10209500D01*
X32789880Y10304739D01*
X32789880Y10542834D01*
X32837500Y10685691D01*
X33742261Y11066643D02*
X33789880Y11209500D01*
X33789880Y11447596D01*
X33742261Y11542834D01*
X33694642Y11590453D01*
X33599404Y11638072D01*
X33504166Y11638072D01*
X33408928Y11590453D01*
X33361309Y11542834D01*
X33313690Y11447596D01*
X33266071Y11257120D01*
X33218452Y11161881D01*
X33170833Y11114262D01*
X33075595Y11066643D01*
X32980357Y11066643D01*
X32885119Y11114262D01*
X32837500Y11161881D01*
X32789880Y11257120D01*
X32789880Y11495215D01*
X32837500Y11638072D01*
X28709880Y7447596D02*
X27709880Y7447596D01*
X28424166Y7780929D01*
X27709880Y8114262D01*
X28709880Y8114262D01*
X27709880Y8780929D02*
X27709880Y8971405D01*
X27757500Y9066643D01*
X27852738Y9161881D01*
X28043214Y9209500D01*
X28376547Y9209500D01*
X28567023Y9161881D01*
X28662261Y9066643D01*
X28709880Y8971405D01*
X28709880Y8780929D01*
X28662261Y8685691D01*
X28567023Y8590453D01*
X28376547Y8542834D01*
X28043214Y8542834D01*
X27852738Y8590453D01*
X27757500Y8685691D01*
X27709880Y8780929D01*
X28662261Y9590453D02*
X28709880Y9733310D01*
X28709880Y9971405D01*
X28662261Y10066643D01*
X28614642Y10114262D01*
X28519404Y10161881D01*
X28424166Y10161881D01*
X28328928Y10114262D01*
X28281309Y10066643D01*
X28233690Y9971405D01*
X28186071Y9780929D01*
X28138452Y9685691D01*
X28090833Y9638072D01*
X27995595Y9590453D01*
X27900357Y9590453D01*
X27805119Y9638072D01*
X27757500Y9685691D01*
X27709880Y9780929D01*
X27709880Y10019024D01*
X27757500Y10161881D01*
X28709880Y10590453D02*
X27709880Y10590453D01*
X36282261Y7399977D02*
X36329880Y7542834D01*
X36329880Y7780929D01*
X36282261Y7876167D01*
X36234642Y7923786D01*
X36139404Y7971405D01*
X36044166Y7971405D01*
X35948928Y7923786D01*
X35901309Y7876167D01*
X35853690Y7780929D01*
X35806071Y7590453D01*
X35758452Y7495215D01*
X35710833Y7447596D01*
X35615595Y7399977D01*
X35520357Y7399977D01*
X35425119Y7447596D01*
X35377500Y7495215D01*
X35329880Y7590453D01*
X35329880Y7828548D01*
X35377500Y7971405D01*
X36329880Y8399977D02*
X35329880Y8399977D01*
X35329880Y8638072D01*
X35377500Y8780929D01*
X35472738Y8876167D01*
X35567976Y8923786D01*
X35758452Y8971405D01*
X35901309Y8971405D01*
X36091785Y8923786D01*
X36187023Y8876167D01*
X36282261Y8780929D01*
X36329880Y8638072D01*
X36329880Y8399977D01*
X36425119Y9161881D02*
X36425119Y9923786D01*
X36329880Y10161881D02*
X35329880Y10161881D01*
X35329880Y10399977D01*
X35377500Y10542834D01*
X35472738Y10638072D01*
X35567976Y10685691D01*
X35758452Y10733310D01*
X35901309Y10733310D01*
X36091785Y10685691D01*
X36187023Y10638072D01*
X36282261Y10542834D01*
X36329880Y10399977D01*
X36329880Y10161881D01*
X35806071Y11161881D02*
X35806071Y11495215D01*
X36329880Y11638072D02*
X36329880Y11161881D01*
X35329880Y11161881D01*
X35329880Y11638072D01*
X35329880Y11923786D02*
X35329880Y12495215D01*
X36329880Y12209500D02*
X35329880Y12209500D01*
X6094357Y26535120D02*
X5618166Y26535120D01*
X5618166Y27535120D01*
X6999119Y26630358D02*
X6951500Y26582739D01*
X6808642Y26535120D01*
X6713404Y26535120D01*
X6570547Y26582739D01*
X6475309Y26677977D01*
X6427690Y26773215D01*
X6380071Y26963691D01*
X6380071Y27106548D01*
X6427690Y27297024D01*
X6475309Y27392262D01*
X6570547Y27487500D01*
X6713404Y27535120D01*
X6808642Y27535120D01*
X6951500Y27487500D01*
X6999119Y27439881D01*
X7427690Y26535120D02*
X7427690Y27535120D01*
X7665785Y27535120D01*
X7808642Y27487500D01*
X7903880Y27392262D01*
X7951500Y27297024D01*
X7999119Y27106548D01*
X7999119Y26963691D01*
X7951500Y26773215D01*
X7903880Y26677977D01*
X7808642Y26582739D01*
X7665785Y26535120D01*
X7427690Y26535120D01*
X8189595Y26439881D02*
X8951500Y26439881D01*
X9189595Y26535120D02*
X9189595Y27535120D01*
X9427690Y27535120D01*
X9570547Y27487500D01*
X9665785Y27392262D01*
X9713404Y27297024D01*
X9761023Y27106548D01*
X9761023Y26963691D01*
X9713404Y26773215D01*
X9665785Y26677977D01*
X9570547Y26582739D01*
X9427690Y26535120D01*
X9189595Y26535120D01*
X10761023Y26630358D02*
X10713404Y26582739D01*
X10570547Y26535120D01*
X10475309Y26535120D01*
X10332452Y26582739D01*
X10237214Y26677977D01*
X10189595Y26773215D01*
X10141976Y26963691D01*
X10141976Y27106548D01*
X10189595Y27297024D01*
X10237214Y27392262D01*
X10332452Y27487500D01*
X10475309Y27535120D01*
X10570547Y27535120D01*
X10713404Y27487500D01*
X10761023Y27439881D01*
X5237214Y23995120D02*
X4761023Y23995120D01*
X4761023Y24995120D01*
X6141976Y24090358D02*
X6094357Y24042739D01*
X5951500Y23995120D01*
X5856261Y23995120D01*
X5713404Y24042739D01*
X5618166Y24137977D01*
X5570547Y24233215D01*
X5522928Y24423691D01*
X5522928Y24566548D01*
X5570547Y24757024D01*
X5618166Y24852262D01*
X5713404Y24947500D01*
X5856261Y24995120D01*
X5951500Y24995120D01*
X6094357Y24947500D01*
X6141976Y24899881D01*
X6570547Y23995120D02*
X6570547Y24995120D01*
X6808642Y24995120D01*
X6951500Y24947500D01*
X7046738Y24852262D01*
X7094357Y24757024D01*
X7141976Y24566548D01*
X7141976Y24423691D01*
X7094357Y24233215D01*
X7046738Y24137977D01*
X6951500Y24042739D01*
X6808642Y23995120D01*
X6570547Y23995120D01*
X7332452Y23899881D02*
X8094357Y23899881D01*
X8903880Y23995120D02*
X8570547Y24471310D01*
X8332452Y23995120D02*
X8332452Y24995120D01*
X8713404Y24995120D01*
X8808642Y24947500D01*
X8856261Y24899881D01*
X8903880Y24804643D01*
X8903880Y24661786D01*
X8856261Y24566548D01*
X8808642Y24518929D01*
X8713404Y24471310D01*
X8332452Y24471310D01*
X9332452Y24518929D02*
X9665785Y24518929D01*
X9808642Y23995120D02*
X9332452Y23995120D01*
X9332452Y24995120D01*
X9808642Y24995120D01*
X10189595Y24042739D02*
X10332452Y23995120D01*
X10570547Y23995120D01*
X10665785Y24042739D01*
X10713404Y24090358D01*
X10761023Y24185596D01*
X10761023Y24280834D01*
X10713404Y24376072D01*
X10665785Y24423691D01*
X10570547Y24471310D01*
X10380071Y24518929D01*
X10284833Y24566548D01*
X10237214Y24614167D01*
X10189595Y24709405D01*
X10189595Y24804643D01*
X10237214Y24899881D01*
X10284833Y24947500D01*
X10380071Y24995120D01*
X10618166Y24995120D01*
X10761023Y24947500D01*
X6141976Y29075120D02*
X5665785Y29075120D01*
X5665785Y30075120D01*
X7046738Y29170358D02*
X6999119Y29122739D01*
X6856261Y29075120D01*
X6761023Y29075120D01*
X6618166Y29122739D01*
X6522928Y29217977D01*
X6475309Y29313215D01*
X6427690Y29503691D01*
X6427690Y29646548D01*
X6475309Y29837024D01*
X6522928Y29932262D01*
X6618166Y30027500D01*
X6761023Y30075120D01*
X6856261Y30075120D01*
X6999119Y30027500D01*
X7046738Y29979881D01*
X7475309Y29075120D02*
X7475309Y30075120D01*
X7713404Y30075120D01*
X7856261Y30027500D01*
X7951500Y29932262D01*
X7999119Y29837024D01*
X8046738Y29646548D01*
X8046738Y29503691D01*
X7999119Y29313215D01*
X7951500Y29217977D01*
X7856261Y29122739D01*
X7713404Y29075120D01*
X7475309Y29075120D01*
X8237214Y28979881D02*
X8999119Y28979881D01*
X9808642Y29170358D02*
X9761023Y29122739D01*
X9618166Y29075120D01*
X9522928Y29075120D01*
X9380071Y29122739D01*
X9284833Y29217977D01*
X9237214Y29313215D01*
X9189595Y29503691D01*
X9189595Y29646548D01*
X9237214Y29837024D01*
X9284833Y29932262D01*
X9380071Y30027500D01*
X9522928Y30075120D01*
X9618166Y30075120D01*
X9761023Y30027500D01*
X9808642Y29979881D01*
X10189595Y29122739D02*
X10332452Y29075120D01*
X10570547Y29075120D01*
X10665785Y29122739D01*
X10713404Y29170358D01*
X10761023Y29265596D01*
X10761023Y29360834D01*
X10713404Y29456072D01*
X10665785Y29503691D01*
X10570547Y29551310D01*
X10380071Y29598929D01*
X10284833Y29646548D01*
X10237214Y29694167D01*
X10189595Y29789405D01*
X10189595Y29884643D01*
X10237214Y29979881D01*
X10284833Y30027500D01*
X10380071Y30075120D01*
X10618166Y30075120D01*
X10761023Y30027500D01*
X7570547Y21391620D02*
X7570547Y22391620D01*
X7903880Y21677334D01*
X8237214Y22391620D01*
X8237214Y21391620D01*
X8903880Y22391620D02*
X9094357Y22391620D01*
X9189595Y22344000D01*
X9284833Y22248762D01*
X9332452Y22058286D01*
X9332452Y21724953D01*
X9284833Y21534477D01*
X9189595Y21439239D01*
X9094357Y21391620D01*
X8903880Y21391620D01*
X8808642Y21439239D01*
X8713404Y21534477D01*
X8665785Y21724953D01*
X8665785Y22058286D01*
X8713404Y22248762D01*
X8808642Y22344000D01*
X8903880Y22391620D01*
X9713404Y21439239D02*
X9856261Y21391620D01*
X10094357Y21391620D01*
X10189595Y21439239D01*
X10237214Y21486858D01*
X10284833Y21582096D01*
X10284833Y21677334D01*
X10237214Y21772572D01*
X10189595Y21820191D01*
X10094357Y21867810D01*
X9903880Y21915429D01*
X9808642Y21963048D01*
X9761023Y22010667D01*
X9713404Y22105905D01*
X9713404Y22201143D01*
X9761023Y22296381D01*
X9808642Y22344000D01*
X9903880Y22391620D01*
X10141976Y22391620D01*
X10284833Y22344000D01*
X10713404Y21391620D02*
X10713404Y22391620D01*
X8189595Y18962739D02*
X8332452Y18915120D01*
X8570547Y18915120D01*
X8665785Y18962739D01*
X8713404Y19010358D01*
X8761023Y19105596D01*
X8761023Y19200834D01*
X8713404Y19296072D01*
X8665785Y19343691D01*
X8570547Y19391310D01*
X8380071Y19438929D01*
X8284833Y19486548D01*
X8237214Y19534167D01*
X8189595Y19629405D01*
X8189595Y19724643D01*
X8237214Y19819881D01*
X8284833Y19867500D01*
X8380071Y19915120D01*
X8618166Y19915120D01*
X8761023Y19867500D01*
X9761023Y19010358D02*
X9713404Y18962739D01*
X9570547Y18915120D01*
X9475309Y18915120D01*
X9332452Y18962739D01*
X9237214Y19057977D01*
X9189595Y19153215D01*
X9141976Y19343691D01*
X9141976Y19486548D01*
X9189595Y19677024D01*
X9237214Y19772262D01*
X9332452Y19867500D01*
X9475309Y19915120D01*
X9570547Y19915120D01*
X9713404Y19867500D01*
X9761023Y19819881D01*
X10189595Y18915120D02*
X10189595Y19915120D01*
X10761023Y18915120D02*
X10332452Y19486548D01*
X10761023Y19915120D02*
X10189595Y19343691D01*
X4570547Y17375120D02*
X5189595Y17375120D01*
X4856261Y16994167D01*
X4999119Y16994167D01*
X5094357Y16946548D01*
X5141976Y16898929D01*
X5189595Y16803691D01*
X5189595Y16565596D01*
X5141976Y16470358D01*
X5094357Y16422739D01*
X4999119Y16375120D01*
X4713404Y16375120D01*
X4618166Y16422739D01*
X4570547Y16470358D01*
X5618166Y16375120D02*
X5618166Y17375120D01*
X5999119Y17375120D01*
X6094357Y17327500D01*
X6141976Y17279881D01*
X6189595Y17184643D01*
X6189595Y17041786D01*
X6141976Y16946548D01*
X6094357Y16898929D01*
X5999119Y16851310D01*
X5618166Y16851310D01*
X6522928Y17375120D02*
X7141976Y17375120D01*
X6808642Y16994167D01*
X6951500Y16994167D01*
X7046738Y16946548D01*
X7094357Y16898929D01*
X7141976Y16803691D01*
X7141976Y16565596D01*
X7094357Y16470358D01*
X7046738Y16422739D01*
X6951500Y16375120D01*
X6665785Y16375120D01*
X6570547Y16422739D01*
X6522928Y16470358D01*
X7332452Y16279881D02*
X8094357Y16279881D01*
X8189595Y17375120D02*
X8522928Y16375120D01*
X8856261Y17375120D01*
X9761023Y16470358D02*
X9713404Y16422739D01*
X9570547Y16375120D01*
X9475309Y16375120D01*
X9332452Y16422739D01*
X9237214Y16517977D01*
X9189595Y16613215D01*
X9141976Y16803691D01*
X9141976Y16946548D01*
X9189595Y17137024D01*
X9237214Y17232262D01*
X9332452Y17327500D01*
X9475309Y17375120D01*
X9570547Y17375120D01*
X9713404Y17327500D01*
X9761023Y17279881D01*
X10761023Y16470358D02*
X10713404Y16422739D01*
X10570547Y16375120D01*
X10475309Y16375120D01*
X10332452Y16422739D01*
X10237214Y16517977D01*
X10189595Y16613215D01*
X10141976Y16803691D01*
X10141976Y16946548D01*
X10189595Y17137024D01*
X10237214Y17232262D01*
X10332452Y17327500D01*
X10475309Y17375120D01*
X10570547Y17375120D01*
X10713404Y17327500D01*
X10761023Y17279881D01*
X8665785Y14851000D02*
X8570547Y14898620D01*
X8427690Y14898620D01*
X8284833Y14851000D01*
X8189595Y14755762D01*
X8141976Y14660524D01*
X8094357Y14470048D01*
X8094357Y14327191D01*
X8141976Y14136715D01*
X8189595Y14041477D01*
X8284833Y13946239D01*
X8427690Y13898620D01*
X8522928Y13898620D01*
X8665785Y13946239D01*
X8713404Y13993858D01*
X8713404Y14327191D01*
X8522928Y14327191D01*
X9141976Y13898620D02*
X9141976Y14898620D01*
X9713404Y13898620D01*
X9713404Y14898620D01*
X10189595Y13898620D02*
X10189595Y14898620D01*
X10427690Y14898620D01*
X10570547Y14851000D01*
X10665785Y14755762D01*
X10713404Y14660524D01*
X10761023Y14470048D01*
X10761023Y14327191D01*
X10713404Y14136715D01*
X10665785Y14041477D01*
X10570547Y13946239D01*
X10427690Y13898620D01*
X10189595Y13898620D01*
D11*
X13434000Y12952000D02*
X12104000Y12952000D01*
X12104000Y12952000D02*
X12104000Y14282000D01*
X12104000Y15552000D02*
X12104000Y30852000D01*
X14764000Y30852000D02*
X12104000Y30852000D01*
X14764000Y15552000D02*
X14764000Y30852000D01*
X14764000Y15552000D02*
X12104000Y15552000D01*
D10*
X13100666Y12059620D02*
X13100666Y11345334D01*
X13053047Y11202477D01*
X12957809Y11107239D01*
X12814952Y11059620D01*
X12719714Y11059620D01*
X13481619Y12059620D02*
X14100666Y12059620D01*
X13767333Y11678667D01*
X13910190Y11678667D01*
X14005428Y11631048D01*
X14053047Y11583429D01*
X14100666Y11488191D01*
X14100666Y11250096D01*
X14053047Y11154858D01*
X14005428Y11107239D01*
X13910190Y11059620D01*
X13624476Y11059620D01*
X13529238Y11107239D01*
X13481619Y11154858D01*
X16657580Y16697962D02*
X16657580Y16126534D01*
X16657580Y16412248D02*
X15657580Y16412248D01*
X15800438Y16317010D01*
X15895676Y16221772D01*
X15943295Y16126534D01*
X15752819Y17078915D02*
X15705200Y17126534D01*
X15657580Y17221772D01*
X15657580Y17459867D01*
X15705200Y17555105D01*
X15752819Y17602724D01*
X15848057Y17650343D01*
X15943295Y17650343D01*
X16086152Y17602724D01*
X16657580Y17031296D01*
X16657580Y17650343D01*
X16086152Y18221772D02*
X16038533Y18126534D01*
X15990914Y18078915D01*
X15895676Y18031296D01*
X15848057Y18031296D01*
X15752819Y18078915D01*
X15705200Y18126534D01*
X15657580Y18221772D01*
X15657580Y18412248D01*
X15705200Y18507486D01*
X15752819Y18555105D01*
X15848057Y18602724D01*
X15895676Y18602724D01*
X15990914Y18555105D01*
X16038533Y18507486D01*
X16086152Y18412248D01*
X16086152Y18221772D01*
X16133771Y18126534D01*
X16181390Y18078915D01*
X16276628Y18031296D01*
X16467104Y18031296D01*
X16562342Y18078915D01*
X16609961Y18126534D01*
X16657580Y18221772D01*
X16657580Y18412248D01*
X16609961Y18507486D01*
X16562342Y18555105D01*
X16467104Y18602724D01*
X16276628Y18602724D01*
X16181390Y18555105D01*
X16133771Y18507486D01*
X16086152Y18412248D01*
X15657580Y19459867D02*
X15657580Y19269391D01*
X15705200Y19174153D01*
X15752819Y19126534D01*
X15895676Y19031296D01*
X16086152Y18983677D01*
X16467104Y18983677D01*
X16562342Y19031296D01*
X16609961Y19078915D01*
X16657580Y19174153D01*
X16657580Y19364629D01*
X16609961Y19459867D01*
X16562342Y19507486D01*
X16467104Y19555105D01*
X16229009Y19555105D01*
X16133771Y19507486D01*
X16086152Y19459867D01*
X16038533Y19364629D01*
X16038533Y19174153D01*
X16086152Y19078915D01*
X16133771Y19031296D01*
X16229009Y18983677D01*
X15990914Y20412248D02*
X16657580Y20412248D01*
X15609961Y20174153D02*
X16324247Y19936058D01*
X16324247Y20555105D01*
X15657580Y21126534D02*
X15657580Y21317010D01*
X15705200Y21412248D01*
X15800438Y21507486D01*
X15990914Y21555105D01*
X16324247Y21555105D01*
X16514723Y21507486D01*
X16609961Y21412248D01*
X16657580Y21317010D01*
X16657580Y21126534D01*
X16609961Y21031296D01*
X16514723Y20936058D01*
X16324247Y20888439D01*
X15990914Y20888439D01*
X15800438Y20936058D01*
X15705200Y21031296D01*
X15657580Y21126534D01*
X16657580Y22459867D02*
X16657580Y21983677D01*
X15657580Y21983677D01*
X16133771Y22793200D02*
X16133771Y23126534D01*
X16657580Y23269391D02*
X16657580Y22793200D01*
X15657580Y22793200D01*
X15657580Y23269391D01*
X16657580Y23697962D02*
X15657580Y23697962D01*
X15657580Y23936058D01*
X15705200Y24078915D01*
X15800438Y24174153D01*
X15895676Y24221772D01*
X16086152Y24269391D01*
X16229009Y24269391D01*
X16419485Y24221772D01*
X16514723Y24174153D01*
X16609961Y24078915D01*
X16657580Y23936058D01*
X16657580Y23697962D01*
X16752819Y24459867D02*
X16752819Y25221772D01*
X16609961Y25412248D02*
X16657580Y25555105D01*
X16657580Y25793200D01*
X16609961Y25888439D01*
X16562342Y25936058D01*
X16467104Y25983677D01*
X16371866Y25983677D01*
X16276628Y25936058D01*
X16229009Y25888439D01*
X16181390Y25793200D01*
X16133771Y25602724D01*
X16086152Y25507486D01*
X16038533Y25459867D01*
X15943295Y25412248D01*
X15848057Y25412248D01*
X15752819Y25459867D01*
X15705200Y25507486D01*
X15657580Y25602724D01*
X15657580Y25840820D01*
X15705200Y25983677D01*
X16657580Y26412248D02*
X15657580Y26412248D01*
X15657580Y26793200D01*
X15705200Y26888439D01*
X15752819Y26936058D01*
X15848057Y26983677D01*
X15990914Y26983677D01*
X16086152Y26936058D01*
X16133771Y26888439D01*
X16181390Y26793200D01*
X16181390Y26412248D01*
X16657580Y27412248D02*
X15657580Y27412248D01*
M02*
