M48
;DRILL file {KiCad 5.0.2-bee76a0~70~ubuntu18.04.1} date Tue 25 Dec 2018 04:41:38 PM PST
;FORMAT={3:3/ absolute / metric / suppress leading zeros}
FMAT,2
METRIC,TZ
T1C0.600
T2C0.800
T3C1.000
T4C1.016
%
G90
G05
T1
X18082Y7638
X19352Y7638
X20622Y7638
T2
X19352Y20084
X19352Y12464
X6144Y25926
X13764Y25926
X23416Y20084
X23416Y12464
X15034Y3320
X22654Y3320
T3
X6906Y21862
X6906Y19322
X6906Y16782
X6906Y14242
X6906Y11702
X6906Y9162
X6906Y6622
X38148Y15766
X38148Y13226
X38148Y10686
X38148Y8146
X38148Y5606
X29766Y11448
X29766Y3848
X10970Y21862
X10970Y19322
X10970Y16782
X10970Y14242
X10970Y11702
X10970Y9162
X10970Y6622
T4
X28242Y33800
X28242Y31260
X30782Y33800
X30782Y31260
X33322Y33800
X33322Y31260
X35862Y33800
X35862Y31260
X38402Y33800
X38402Y31260
X5890Y33800
X5890Y31260
X8430Y33800
X8430Y31260
X10970Y33800
X10970Y31260
X13510Y33800
X13510Y31260
X16050Y33800
X16050Y31260
T0
M30
