G04 #@! TF.GenerationSoftware,KiCad,Pcbnew,5.1.5-52549c5~84~ubuntu18.04.1*
G04 #@! TF.CreationDate,2020-02-18T21:49:32-08:00*
G04 #@! TF.ProjectId,Marlin_UIBOX,4d61726c-696e-45f5-9549-424f582e6b69,rev?*
G04 #@! TF.SameCoordinates,Original*
G04 #@! TF.FileFunction,Copper,L1,Top*
G04 #@! TF.FilePolarity,Positive*
%FSLAX46Y46*%
G04 Gerber Fmt 4.6, Leading zero omitted, Abs format (unit mm)*
G04 Created by KiCad (PCBNEW 5.1.5-52549c5~84~ubuntu18.04.1) date 2020-02-18 21:49:32*
%MOMM*%
%LPD*%
G04 APERTURE LIST*
%ADD10O,1.700000X1.700000*%
%ADD11R,1.700000X1.700000*%
%ADD12R,1.727200X1.727200*%
%ADD13O,1.727200X1.727200*%
%ADD14R,1.600000X1.600000*%
%ADD15O,1.600000X1.600000*%
%ADD16R,2.000000X2.000000*%
%ADD17C,2.000000*%
%ADD18O,1.500000X1.050000*%
%ADD19R,1.500000X1.050000*%
%ADD20C,1.600000*%
%ADD21C,0.400000*%
%ADD22C,0.250000*%
%ADD23C,0.254000*%
G04 APERTURE END LIST*
D10*
X125767000Y-112812000D03*
X123227000Y-112812000D03*
X120687000Y-112812000D03*
X118147000Y-112812000D03*
X115607000Y-112812000D03*
X113067000Y-112812000D03*
D11*
X110527000Y-112812000D03*
D12*
X133858000Y-111252000D03*
D13*
X133858000Y-113792000D03*
X136398000Y-111252000D03*
X136398000Y-113792000D03*
X138938000Y-111252000D03*
X138938000Y-113792000D03*
X141478000Y-111252000D03*
X141478000Y-113792000D03*
X144018000Y-111252000D03*
X144018000Y-113792000D03*
X166370000Y-113792000D03*
X166370000Y-111252000D03*
X163830000Y-113792000D03*
X163830000Y-111252000D03*
X161290000Y-113792000D03*
X161290000Y-111252000D03*
X158750000Y-113792000D03*
X158750000Y-111252000D03*
X156210000Y-113792000D03*
D12*
X156210000Y-111252000D03*
D11*
X110527000Y-92832000D03*
D10*
X113067000Y-92832000D03*
X115607000Y-92832000D03*
X118147000Y-92832000D03*
X120687000Y-92832000D03*
X123227000Y-92832000D03*
X125767000Y-92832000D03*
D14*
X126492000Y-83312000D03*
D15*
X134112000Y-83312000D03*
D11*
X103350000Y-103320000D03*
D10*
X103350000Y-100780000D03*
X103350000Y-98240000D03*
X103350000Y-95700000D03*
X103350000Y-93160000D03*
X103350000Y-90620000D03*
X103350000Y-88080000D03*
D11*
X191345000Y-108709000D03*
D10*
X193885000Y-108709000D03*
X196425000Y-108709000D03*
X198965000Y-108709000D03*
X201505000Y-108709000D03*
D16*
X159766000Y-84582000D03*
D17*
X159766000Y-92182000D03*
D18*
X168656000Y-97028000D03*
X168656000Y-95758000D03*
D19*
X168656000Y-98298000D03*
D15*
X139700000Y-85598000D03*
D20*
X139700000Y-93218000D03*
X168656000Y-85090000D03*
D15*
X168656000Y-92710000D03*
D21*
X193885000Y-107271000D02*
X193885000Y-108709000D01*
X176276000Y-89916000D02*
X176276000Y-104394000D01*
X176276000Y-89532000D02*
X176276000Y-89916000D01*
X193294000Y-106680000D02*
X193885000Y-107271000D01*
X178562000Y-106680000D02*
X193294000Y-106680000D01*
X176276000Y-104394000D02*
X178562000Y-106680000D01*
X165354000Y-84582000D02*
X167894000Y-82042000D01*
X167894000Y-82042000D02*
X173990000Y-82042000D01*
X173990000Y-82042000D02*
X176276000Y-84328000D01*
X176276000Y-84328000D02*
X176276000Y-89916000D01*
X159766000Y-84582000D02*
X165354000Y-84582000D01*
X113067000Y-112812000D02*
X113067000Y-110516500D01*
X113067000Y-110516500D02*
X114363500Y-109220000D01*
X114363500Y-109220000D02*
X128143000Y-109220000D01*
X130175000Y-111252000D02*
X133858000Y-111252000D01*
X128143000Y-109220000D02*
X130175000Y-111252000D01*
X179324000Y-108709000D02*
X191345000Y-108709000D01*
X179067000Y-108709000D02*
X179324000Y-108709000D01*
X168656000Y-98298000D02*
X168656000Y-102108000D01*
X175257000Y-108709000D02*
X179324000Y-108709000D01*
X168656000Y-102108000D02*
X175257000Y-108709000D01*
D22*
X101658000Y-88080000D02*
X103350000Y-88080000D01*
X99822000Y-89916000D02*
X101658000Y-88080000D01*
X99822000Y-105664000D02*
X99822000Y-89916000D01*
X102362000Y-108204000D02*
X99822000Y-105664000D01*
X134874000Y-108204000D02*
X134366000Y-108204000D01*
X134366000Y-108204000D02*
X102362000Y-108204000D01*
X137922000Y-108204000D02*
X134366000Y-108204000D01*
X138938000Y-111252000D02*
X138938000Y-109220000D01*
X138938000Y-109220000D02*
X137922000Y-108204000D01*
X102616000Y-107188000D02*
X100584000Y-105156000D01*
X100584000Y-94234000D02*
X101658000Y-93160000D01*
X101658000Y-93160000D02*
X103350000Y-93160000D01*
X100584000Y-105156000D02*
X100584000Y-94234000D01*
X138430000Y-107188000D02*
X138176000Y-107188000D01*
X138176000Y-107188000D02*
X102616000Y-107188000D01*
X139446000Y-107188000D02*
X138176000Y-107188000D01*
X141478000Y-111252000D02*
X141478000Y-109220000D01*
X141478000Y-109220000D02*
X139446000Y-107188000D01*
X196425000Y-110407000D02*
X196425000Y-108709000D01*
X186944000Y-111760000D02*
X195072000Y-111760000D01*
X146050000Y-111252000D02*
X151384000Y-116586000D01*
X195072000Y-111760000D02*
X196425000Y-110407000D01*
X144018000Y-111252000D02*
X146050000Y-111252000D01*
X151384000Y-116586000D02*
X169164000Y-116586000D01*
X175387000Y-110363000D02*
X185547000Y-110363000D01*
X169164000Y-116586000D02*
X175387000Y-110363000D01*
X185547000Y-110363000D02*
X186944000Y-111760000D01*
X120687000Y-94705000D02*
X120687000Y-92832000D01*
X103350000Y-98240000D02*
X117152000Y-98240000D01*
X117152000Y-98240000D02*
X120687000Y-94705000D01*
X118147000Y-94959000D02*
X118147000Y-92832000D01*
X117348000Y-95758000D02*
X118147000Y-94959000D01*
X103350000Y-95700000D02*
X103408000Y-95758000D01*
X103408000Y-95758000D02*
X117348000Y-95758000D01*
X118147000Y-91629919D02*
X120305419Y-89471500D01*
X118147000Y-92832000D02*
X118147000Y-91629919D01*
X120305419Y-89471500D02*
X142875000Y-89471500D01*
X161290000Y-107886500D02*
X161290000Y-111252000D01*
X142875000Y-89471500D02*
X161290000Y-107886500D01*
X129154000Y-92832000D02*
X125767000Y-92832000D01*
X151892000Y-115570000D02*
X129154000Y-92832000D01*
X157226000Y-115570000D02*
X156972000Y-115570000D01*
X156972000Y-115570000D02*
X151892000Y-115570000D01*
X158496000Y-115570000D02*
X156972000Y-115570000D01*
X158750000Y-113792000D02*
X158750000Y-115316000D01*
X158750000Y-115316000D02*
X158496000Y-115570000D01*
D23*
G36*
X113481746Y-79294193D02*
G01*
X113504762Y-79322238D01*
X113616680Y-79414087D01*
X113744367Y-79482337D01*
X113882915Y-79524365D01*
X113990895Y-79535000D01*
X113990904Y-79535000D01*
X114026999Y-79538555D01*
X114063094Y-79535000D01*
X120990895Y-79535000D01*
X121027000Y-79538556D01*
X121063105Y-79535000D01*
X121171085Y-79524365D01*
X121309633Y-79482337D01*
X121437320Y-79414087D01*
X121549238Y-79322238D01*
X121572259Y-79294187D01*
X122786574Y-78079872D01*
X176215000Y-78079872D01*
X176215000Y-78520128D01*
X176300890Y-78951925D01*
X176469369Y-79358669D01*
X176713962Y-79724729D01*
X177025271Y-80036038D01*
X177391331Y-80280631D01*
X177798075Y-80449110D01*
X178229872Y-80535000D01*
X178670128Y-80535000D01*
X179101925Y-80449110D01*
X179508669Y-80280631D01*
X179874729Y-80036038D01*
X180186038Y-79724729D01*
X180430631Y-79358669D01*
X180599110Y-78951925D01*
X180685000Y-78520128D01*
X180685000Y-78079872D01*
X180599110Y-77648075D01*
X180430631Y-77241331D01*
X180186038Y-76875271D01*
X179874729Y-76563962D01*
X179508669Y-76319369D01*
X179101925Y-76150890D01*
X178670128Y-76065000D01*
X178229872Y-76065000D01*
X177798075Y-76150890D01*
X177391331Y-76319369D01*
X177025271Y-76563962D01*
X176713962Y-76875271D01*
X176469369Y-77241331D01*
X176300890Y-77648075D01*
X176215000Y-78079872D01*
X122786574Y-78079872D01*
X124831447Y-76035000D01*
X215145554Y-76035000D01*
X215374241Y-76263687D01*
X215101925Y-76150890D01*
X214670128Y-76065000D01*
X214229872Y-76065000D01*
X213798075Y-76150890D01*
X213391331Y-76319369D01*
X213025271Y-76563962D01*
X212713962Y-76875271D01*
X212469369Y-77241331D01*
X212300890Y-77648075D01*
X212215000Y-78079872D01*
X212215000Y-78520128D01*
X212300890Y-78951925D01*
X212469369Y-79358669D01*
X212713962Y-79724729D01*
X213025271Y-80036038D01*
X213391331Y-80280631D01*
X213798075Y-80449110D01*
X214229872Y-80535000D01*
X214670128Y-80535000D01*
X215101925Y-80449110D01*
X215508669Y-80280631D01*
X215874729Y-80036038D01*
X216186038Y-79724729D01*
X216430631Y-79358669D01*
X216599110Y-78951925D01*
X216685000Y-78520128D01*
X216685000Y-78079872D01*
X216599110Y-77648075D01*
X216486313Y-77375760D01*
X218715000Y-79604447D01*
X218715001Y-112995552D01*
X216486313Y-115224240D01*
X216599110Y-114951925D01*
X216685000Y-114520128D01*
X216685000Y-114079872D01*
X216599110Y-113648075D01*
X216430631Y-113241331D01*
X216186038Y-112875271D01*
X215874729Y-112563962D01*
X215508669Y-112319369D01*
X215101925Y-112150890D01*
X214670128Y-112065000D01*
X214229872Y-112065000D01*
X213798075Y-112150890D01*
X213391331Y-112319369D01*
X213025271Y-112563962D01*
X212713962Y-112875271D01*
X212469369Y-113241331D01*
X212300890Y-113648075D01*
X212215000Y-114079872D01*
X212215000Y-114520128D01*
X212300890Y-114951925D01*
X212469369Y-115358669D01*
X212713962Y-115724729D01*
X213025271Y-116036038D01*
X213391331Y-116280631D01*
X213798075Y-116449110D01*
X214229872Y-116535000D01*
X214670128Y-116535000D01*
X215101925Y-116449110D01*
X215374241Y-116336313D01*
X215145554Y-116565000D01*
X170259801Y-116565000D01*
X172744929Y-114079872D01*
X176215000Y-114079872D01*
X176215000Y-114520128D01*
X176300890Y-114951925D01*
X176469369Y-115358669D01*
X176713962Y-115724729D01*
X177025271Y-116036038D01*
X177391331Y-116280631D01*
X177798075Y-116449110D01*
X178229872Y-116535000D01*
X178670128Y-116535000D01*
X179101925Y-116449110D01*
X179508669Y-116280631D01*
X179874729Y-116036038D01*
X180186038Y-115724729D01*
X180430631Y-115358669D01*
X180599110Y-114951925D01*
X180685000Y-114520128D01*
X180685000Y-114079872D01*
X180599110Y-113648075D01*
X180430631Y-113241331D01*
X180186038Y-112875271D01*
X179874729Y-112563962D01*
X179508669Y-112319369D01*
X179101925Y-112150890D01*
X178670128Y-112065000D01*
X178229872Y-112065000D01*
X177798075Y-112150890D01*
X177391331Y-112319369D01*
X177025271Y-112563962D01*
X176713962Y-112875271D01*
X176469369Y-113241331D01*
X176300890Y-113648075D01*
X176215000Y-114079872D01*
X172744929Y-114079872D01*
X175701802Y-111123000D01*
X185232199Y-111123000D01*
X186380201Y-112271003D01*
X186403999Y-112300001D01*
X186519724Y-112394974D01*
X186651753Y-112465546D01*
X186795014Y-112509003D01*
X186906667Y-112520000D01*
X186906676Y-112520000D01*
X186943999Y-112523676D01*
X186981322Y-112520000D01*
X195034678Y-112520000D01*
X195072000Y-112523676D01*
X195109322Y-112520000D01*
X195109333Y-112520000D01*
X195220986Y-112509003D01*
X195364247Y-112465546D01*
X195496276Y-112394974D01*
X195612001Y-112300001D01*
X195635804Y-112270997D01*
X196936004Y-110970798D01*
X196965001Y-110947001D01*
X197054796Y-110837586D01*
X197059974Y-110831277D01*
X197130546Y-110699247D01*
X197143893Y-110655246D01*
X197174003Y-110555986D01*
X197185000Y-110444333D01*
X197185000Y-110444323D01*
X197188676Y-110407000D01*
X197185000Y-110369677D01*
X197185000Y-109987178D01*
X197371632Y-109862475D01*
X197578475Y-109655632D01*
X197695000Y-109481240D01*
X197811525Y-109655632D01*
X198018368Y-109862475D01*
X198261589Y-110024990D01*
X198531842Y-110136932D01*
X198818740Y-110194000D01*
X199111260Y-110194000D01*
X199398158Y-110136932D01*
X199668411Y-110024990D01*
X199911632Y-109862475D01*
X200118475Y-109655632D01*
X200235000Y-109481240D01*
X200351525Y-109655632D01*
X200558368Y-109862475D01*
X200801589Y-110024990D01*
X201071842Y-110136932D01*
X201358740Y-110194000D01*
X201651260Y-110194000D01*
X201938158Y-110136932D01*
X202208411Y-110024990D01*
X202451632Y-109862475D01*
X202658475Y-109655632D01*
X202820990Y-109412411D01*
X202932932Y-109142158D01*
X202990000Y-108855260D01*
X202990000Y-108562740D01*
X202932932Y-108275842D01*
X202820990Y-108005589D01*
X202658475Y-107762368D01*
X202451632Y-107555525D01*
X202208411Y-107393010D01*
X201938158Y-107281068D01*
X201651260Y-107224000D01*
X201358740Y-107224000D01*
X201071842Y-107281068D01*
X200801589Y-107393010D01*
X200558368Y-107555525D01*
X200351525Y-107762368D01*
X200235000Y-107936760D01*
X200118475Y-107762368D01*
X199911632Y-107555525D01*
X199668411Y-107393010D01*
X199398158Y-107281068D01*
X199111260Y-107224000D01*
X198818740Y-107224000D01*
X198531842Y-107281068D01*
X198261589Y-107393010D01*
X198018368Y-107555525D01*
X197811525Y-107762368D01*
X197695000Y-107936760D01*
X197578475Y-107762368D01*
X197371632Y-107555525D01*
X197128411Y-107393010D01*
X196858158Y-107281068D01*
X196571260Y-107224000D01*
X196278740Y-107224000D01*
X195991842Y-107281068D01*
X195721589Y-107393010D01*
X195478368Y-107555525D01*
X195271525Y-107762368D01*
X195155000Y-107936760D01*
X195038475Y-107762368D01*
X194831632Y-107555525D01*
X194720000Y-107480935D01*
X194720000Y-107312015D01*
X194724040Y-107270999D01*
X194715171Y-107180954D01*
X194707918Y-107107311D01*
X194660172Y-106949913D01*
X194582636Y-106804854D01*
X194478291Y-106677709D01*
X194446427Y-106651559D01*
X194329868Y-106535000D01*
X213913895Y-106535000D01*
X213950000Y-106538556D01*
X213986105Y-106535000D01*
X214094085Y-106524365D01*
X214232633Y-106482337D01*
X214360320Y-106414087D01*
X214472238Y-106322238D01*
X214564087Y-106210320D01*
X214632337Y-106082633D01*
X214674365Y-105944085D01*
X214688556Y-105800000D01*
X214685000Y-105763895D01*
X214685000Y-84421880D01*
X214688555Y-84385785D01*
X214685000Y-84349690D01*
X214685000Y-84349681D01*
X214674365Y-84241701D01*
X214632337Y-84103153D01*
X214564087Y-83975466D01*
X214547514Y-83955273D01*
X214495253Y-83891592D01*
X214495250Y-83891589D01*
X214472237Y-83863548D01*
X214444198Y-83840537D01*
X208909473Y-78305813D01*
X208886452Y-78277762D01*
X208774534Y-78185913D01*
X208646847Y-78117663D01*
X208508299Y-78075635D01*
X208400319Y-78065000D01*
X208364214Y-78061444D01*
X208328109Y-78065000D01*
X184571892Y-78065000D01*
X184535787Y-78061444D01*
X184499682Y-78065000D01*
X184391702Y-78075635D01*
X184253154Y-78117663D01*
X184125467Y-78185913D01*
X184013549Y-78277762D01*
X183990534Y-78305806D01*
X178455808Y-83840532D01*
X178427762Y-83863549D01*
X178335913Y-83975467D01*
X178267663Y-84103154D01*
X178249111Y-84164312D01*
X178225635Y-84241701D01*
X178211444Y-84385786D01*
X178215000Y-84421891D01*
X178215001Y-105152133D01*
X177111000Y-104048133D01*
X177111000Y-84369018D01*
X177115040Y-84327999D01*
X177098918Y-84164311D01*
X177051172Y-84006913D01*
X176973636Y-83861854D01*
X176869291Y-83734709D01*
X176837428Y-83708560D01*
X174609446Y-81480579D01*
X174583291Y-81448709D01*
X174456146Y-81344364D01*
X174311087Y-81266828D01*
X174153689Y-81219082D01*
X174031019Y-81207000D01*
X174031018Y-81207000D01*
X173990000Y-81202960D01*
X173948982Y-81207000D01*
X167935007Y-81207000D01*
X167893999Y-81202961D01*
X167852991Y-81207000D01*
X167852981Y-81207000D01*
X167730311Y-81219082D01*
X167572913Y-81266828D01*
X167427854Y-81344364D01*
X167300709Y-81448709D01*
X167274559Y-81480573D01*
X165008133Y-83747000D01*
X161404072Y-83747000D01*
X161404072Y-83582000D01*
X161391812Y-83457518D01*
X161355502Y-83337820D01*
X161296537Y-83227506D01*
X161217185Y-83130815D01*
X161120494Y-83051463D01*
X161010180Y-82992498D01*
X160890482Y-82956188D01*
X160766000Y-82943928D01*
X158766000Y-82943928D01*
X158641518Y-82956188D01*
X158521820Y-82992498D01*
X158411506Y-83051463D01*
X158314815Y-83130815D01*
X158235463Y-83227506D01*
X158176498Y-83337820D01*
X158140188Y-83457518D01*
X158127928Y-83582000D01*
X158127928Y-85582000D01*
X158140188Y-85706482D01*
X158176498Y-85826180D01*
X158235463Y-85936494D01*
X158314815Y-86033185D01*
X158411506Y-86112537D01*
X158521820Y-86171502D01*
X158641518Y-86207812D01*
X158766000Y-86220072D01*
X160766000Y-86220072D01*
X160890482Y-86207812D01*
X161010180Y-86171502D01*
X161120494Y-86112537D01*
X161217185Y-86033185D01*
X161296537Y-85936494D01*
X161355502Y-85826180D01*
X161391812Y-85706482D01*
X161404072Y-85582000D01*
X161404072Y-85417000D01*
X165312982Y-85417000D01*
X165354000Y-85421040D01*
X165395018Y-85417000D01*
X165395019Y-85417000D01*
X165517689Y-85404918D01*
X165675087Y-85357172D01*
X165820146Y-85279636D01*
X165947291Y-85175291D01*
X165973446Y-85143421D01*
X166168202Y-84948665D01*
X167221000Y-84948665D01*
X167221000Y-85231335D01*
X167276147Y-85508574D01*
X167384320Y-85769727D01*
X167541363Y-86004759D01*
X167741241Y-86204637D01*
X167976273Y-86361680D01*
X168237426Y-86469853D01*
X168514665Y-86525000D01*
X168797335Y-86525000D01*
X169074574Y-86469853D01*
X169335727Y-86361680D01*
X169570759Y-86204637D01*
X169770637Y-86004759D01*
X169927680Y-85769727D01*
X170035853Y-85508574D01*
X170091000Y-85231335D01*
X170091000Y-84948665D01*
X170035853Y-84671426D01*
X169927680Y-84410273D01*
X169770637Y-84175241D01*
X169570759Y-83975363D01*
X169335727Y-83818320D01*
X169074574Y-83710147D01*
X168797335Y-83655000D01*
X168514665Y-83655000D01*
X168237426Y-83710147D01*
X167976273Y-83818320D01*
X167741241Y-83975363D01*
X167541363Y-84175241D01*
X167384320Y-84410273D01*
X167276147Y-84671426D01*
X167221000Y-84948665D01*
X166168202Y-84948665D01*
X168239868Y-82877000D01*
X173644133Y-82877000D01*
X175441000Y-84673868D01*
X175441001Y-89490973D01*
X175441000Y-89490982D01*
X175441000Y-89874982D01*
X175441001Y-104352971D01*
X175436960Y-104394000D01*
X175453082Y-104557688D01*
X175500828Y-104715086D01*
X175578364Y-104860145D01*
X175578365Y-104860146D01*
X175682710Y-104987291D01*
X175714574Y-105013441D01*
X177942559Y-107241427D01*
X177968709Y-107273291D01*
X178093248Y-107375497D01*
X178095854Y-107377636D01*
X178240913Y-107455172D01*
X178398311Y-107502918D01*
X178561999Y-107519040D01*
X178603018Y-107515000D01*
X189958854Y-107515000D01*
X189905498Y-107614820D01*
X189869188Y-107734518D01*
X189856928Y-107859000D01*
X189860000Y-108423250D01*
X190018750Y-108582000D01*
X191218000Y-108582000D01*
X191218000Y-108562000D01*
X191472000Y-108562000D01*
X191472000Y-108582000D01*
X191492000Y-108582000D01*
X191492000Y-108836000D01*
X191472000Y-108836000D01*
X191472000Y-110035250D01*
X191630750Y-110194000D01*
X192195000Y-110197072D01*
X192319482Y-110184812D01*
X192439180Y-110148502D01*
X192549494Y-110089537D01*
X192646185Y-110010185D01*
X192725537Y-109913494D01*
X192784502Y-109803180D01*
X192806513Y-109730620D01*
X192938368Y-109862475D01*
X193181589Y-110024990D01*
X193451842Y-110136932D01*
X193738740Y-110194000D01*
X194031260Y-110194000D01*
X194318158Y-110136932D01*
X194588411Y-110024990D01*
X194831632Y-109862475D01*
X195038475Y-109655632D01*
X195155000Y-109481240D01*
X195271525Y-109655632D01*
X195478368Y-109862475D01*
X195665000Y-109987179D01*
X195665000Y-110092198D01*
X194757199Y-111000000D01*
X187258802Y-111000000D01*
X186110804Y-109852003D01*
X186087001Y-109822999D01*
X185971276Y-109728026D01*
X185839247Y-109657454D01*
X185695986Y-109613997D01*
X185584333Y-109603000D01*
X185584322Y-109603000D01*
X185547000Y-109599324D01*
X185509678Y-109603000D01*
X175424322Y-109603000D01*
X175387000Y-109599324D01*
X175349677Y-109603000D01*
X175349667Y-109603000D01*
X175238014Y-109613997D01*
X175094753Y-109657454D01*
X174962723Y-109728026D01*
X174897652Y-109781429D01*
X174846999Y-109822999D01*
X174823201Y-109851997D01*
X168849199Y-115826000D01*
X159314622Y-115826000D01*
X159384974Y-115740276D01*
X159455546Y-115608247D01*
X159499003Y-115464986D01*
X159510000Y-115353333D01*
X159510000Y-115353324D01*
X159513676Y-115316001D01*
X159510000Y-115278678D01*
X159510000Y-115086535D01*
X159705302Y-114956039D01*
X159914039Y-114747302D01*
X160020000Y-114588719D01*
X160125961Y-114747302D01*
X160334698Y-114956039D01*
X160580147Y-115120042D01*
X160852875Y-115233010D01*
X161142401Y-115290600D01*
X161437599Y-115290600D01*
X161727125Y-115233010D01*
X161999853Y-115120042D01*
X162245302Y-114956039D01*
X162454039Y-114747302D01*
X162560000Y-114588719D01*
X162665961Y-114747302D01*
X162874698Y-114956039D01*
X163120147Y-115120042D01*
X163392875Y-115233010D01*
X163682401Y-115290600D01*
X163977599Y-115290600D01*
X164267125Y-115233010D01*
X164539853Y-115120042D01*
X164785302Y-114956039D01*
X164994039Y-114747302D01*
X165100000Y-114588719D01*
X165205961Y-114747302D01*
X165414698Y-114956039D01*
X165660147Y-115120042D01*
X165932875Y-115233010D01*
X166222401Y-115290600D01*
X166517599Y-115290600D01*
X166807125Y-115233010D01*
X167079853Y-115120042D01*
X167325302Y-114956039D01*
X167534039Y-114747302D01*
X167698042Y-114501853D01*
X167811010Y-114229125D01*
X167868600Y-113939599D01*
X167868600Y-113644401D01*
X167811010Y-113354875D01*
X167698042Y-113082147D01*
X167534039Y-112836698D01*
X167325302Y-112627961D01*
X167166719Y-112522000D01*
X167325302Y-112416039D01*
X167534039Y-112207302D01*
X167698042Y-111961853D01*
X167811010Y-111689125D01*
X167868600Y-111399599D01*
X167868600Y-111104401D01*
X167811010Y-110814875D01*
X167698042Y-110542147D01*
X167534039Y-110296698D01*
X167325302Y-110087961D01*
X167079853Y-109923958D01*
X166807125Y-109810990D01*
X166517599Y-109753400D01*
X166222401Y-109753400D01*
X165932875Y-109810990D01*
X165660147Y-109923958D01*
X165414698Y-110087961D01*
X165205961Y-110296698D01*
X165100000Y-110455281D01*
X164994039Y-110296698D01*
X164785302Y-110087961D01*
X164539853Y-109923958D01*
X164267125Y-109810990D01*
X163977599Y-109753400D01*
X163682401Y-109753400D01*
X163392875Y-109810990D01*
X163120147Y-109923958D01*
X162874698Y-110087961D01*
X162665961Y-110296698D01*
X162560000Y-110455281D01*
X162454039Y-110296698D01*
X162245302Y-110087961D01*
X162050000Y-109957465D01*
X162050000Y-109559000D01*
X189856928Y-109559000D01*
X189869188Y-109683482D01*
X189905498Y-109803180D01*
X189964463Y-109913494D01*
X190043815Y-110010185D01*
X190140506Y-110089537D01*
X190250820Y-110148502D01*
X190370518Y-110184812D01*
X190495000Y-110197072D01*
X191059250Y-110194000D01*
X191218000Y-110035250D01*
X191218000Y-108836000D01*
X190018750Y-108836000D01*
X189860000Y-108994750D01*
X189856928Y-109559000D01*
X162050000Y-109559000D01*
X162050000Y-107923825D01*
X162053676Y-107886500D01*
X162050000Y-107849175D01*
X162050000Y-107849167D01*
X162039003Y-107737514D01*
X161995546Y-107594253D01*
X161924974Y-107462224D01*
X161830001Y-107346499D01*
X161801004Y-107322702D01*
X153301302Y-98823000D01*
X167267928Y-98823000D01*
X167280188Y-98947482D01*
X167316498Y-99067180D01*
X167375463Y-99177494D01*
X167454815Y-99274185D01*
X167551506Y-99353537D01*
X167661820Y-99412502D01*
X167781518Y-99448812D01*
X167906000Y-99461072D01*
X168370250Y-99458000D01*
X168529000Y-99299250D01*
X168529000Y-98425000D01*
X168783000Y-98425000D01*
X168783000Y-99299250D01*
X168941750Y-99458000D01*
X169406000Y-99461072D01*
X169530482Y-99448812D01*
X169650180Y-99412502D01*
X169760494Y-99353537D01*
X169857185Y-99274185D01*
X169936537Y-99177494D01*
X169995502Y-99067180D01*
X170031812Y-98947482D01*
X170044072Y-98823000D01*
X170041000Y-98583750D01*
X169882250Y-98425000D01*
X168783000Y-98425000D01*
X168529000Y-98425000D01*
X167429750Y-98425000D01*
X167271000Y-98583750D01*
X167267928Y-98823000D01*
X153301302Y-98823000D01*
X150236302Y-95758000D01*
X167265388Y-95758000D01*
X167287785Y-95985400D01*
X167354115Y-96204060D01*
X167455105Y-96393000D01*
X167354115Y-96581940D01*
X167287785Y-96800600D01*
X167265388Y-97028000D01*
X167287785Y-97255400D01*
X167351093Y-97464098D01*
X167316498Y-97528820D01*
X167280188Y-97648518D01*
X167267928Y-97773000D01*
X167271000Y-98012250D01*
X167429750Y-98171000D01*
X168202891Y-98171000D01*
X168203600Y-98171215D01*
X168374021Y-98188000D01*
X168937979Y-98188000D01*
X169108400Y-98171215D01*
X169109109Y-98171000D01*
X169882250Y-98171000D01*
X170041000Y-98012250D01*
X170044072Y-97773000D01*
X170031812Y-97648518D01*
X169995502Y-97528820D01*
X169960907Y-97464098D01*
X170024215Y-97255400D01*
X170046612Y-97028000D01*
X170024215Y-96800600D01*
X169957885Y-96581940D01*
X169856895Y-96393000D01*
X169957885Y-96204060D01*
X170024215Y-95985400D01*
X170046612Y-95758000D01*
X170024215Y-95530600D01*
X169957885Y-95311940D01*
X169850171Y-95110421D01*
X169705212Y-94933788D01*
X169528579Y-94788829D01*
X169327060Y-94681115D01*
X169108400Y-94614785D01*
X168937979Y-94598000D01*
X168374021Y-94598000D01*
X168203600Y-94614785D01*
X167984940Y-94681115D01*
X167783421Y-94788829D01*
X167606788Y-94933788D01*
X167461829Y-95110421D01*
X167354115Y-95311940D01*
X167287785Y-95530600D01*
X167265388Y-95758000D01*
X150236302Y-95758000D01*
X146499269Y-92020967D01*
X158131000Y-92020967D01*
X158131000Y-92343033D01*
X158193832Y-92658912D01*
X158317082Y-92956463D01*
X158496013Y-93224252D01*
X158723748Y-93451987D01*
X158991537Y-93630918D01*
X159289088Y-93754168D01*
X159604967Y-93817000D01*
X159927033Y-93817000D01*
X160242912Y-93754168D01*
X160540463Y-93630918D01*
X160808252Y-93451987D01*
X161035987Y-93224252D01*
X161214918Y-92956463D01*
X161338168Y-92658912D01*
X161356119Y-92568665D01*
X167221000Y-92568665D01*
X167221000Y-92851335D01*
X167276147Y-93128574D01*
X167384320Y-93389727D01*
X167541363Y-93624759D01*
X167741241Y-93824637D01*
X167976273Y-93981680D01*
X168237426Y-94089853D01*
X168514665Y-94145000D01*
X168797335Y-94145000D01*
X169074574Y-94089853D01*
X169335727Y-93981680D01*
X169570759Y-93824637D01*
X169770637Y-93624759D01*
X169927680Y-93389727D01*
X170035853Y-93128574D01*
X170091000Y-92851335D01*
X170091000Y-92568665D01*
X170035853Y-92291426D01*
X169927680Y-92030273D01*
X169770637Y-91795241D01*
X169570759Y-91595363D01*
X169335727Y-91438320D01*
X169074574Y-91330147D01*
X168797335Y-91275000D01*
X168514665Y-91275000D01*
X168237426Y-91330147D01*
X167976273Y-91438320D01*
X167741241Y-91595363D01*
X167541363Y-91795241D01*
X167384320Y-92030273D01*
X167276147Y-92291426D01*
X167221000Y-92568665D01*
X161356119Y-92568665D01*
X161401000Y-92343033D01*
X161401000Y-92020967D01*
X161338168Y-91705088D01*
X161214918Y-91407537D01*
X161035987Y-91139748D01*
X160808252Y-90912013D01*
X160540463Y-90733082D01*
X160242912Y-90609832D01*
X159927033Y-90547000D01*
X159604967Y-90547000D01*
X159289088Y-90609832D01*
X158991537Y-90733082D01*
X158723748Y-90912013D01*
X158496013Y-91139748D01*
X158317082Y-91407537D01*
X158193832Y-91705088D01*
X158131000Y-92020967D01*
X146499269Y-92020967D01*
X143438804Y-88960503D01*
X143415001Y-88931499D01*
X143299276Y-88836526D01*
X143167247Y-88765954D01*
X143023986Y-88722497D01*
X142912333Y-88711500D01*
X142912322Y-88711500D01*
X142875000Y-88707824D01*
X142837678Y-88711500D01*
X120342741Y-88711500D01*
X120305418Y-88707824D01*
X120268095Y-88711500D01*
X120268086Y-88711500D01*
X120156433Y-88722497D01*
X120013172Y-88765954D01*
X119881143Y-88836526D01*
X119881141Y-88836527D01*
X119881142Y-88836527D01*
X119794415Y-88907701D01*
X119794411Y-88907705D01*
X119765418Y-88931499D01*
X119741624Y-88960492D01*
X117635998Y-91066120D01*
X117607000Y-91089918D01*
X117583202Y-91118916D01*
X117583201Y-91118917D01*
X117512026Y-91205643D01*
X117441454Y-91337673D01*
X117439557Y-91343928D01*
X117406938Y-91451463D01*
X117397998Y-91480934D01*
X117391088Y-91551090D01*
X117200368Y-91678525D01*
X116993525Y-91885368D01*
X116877000Y-92059760D01*
X116760475Y-91885368D01*
X116553632Y-91678525D01*
X116310411Y-91516010D01*
X116040158Y-91404068D01*
X115753260Y-91347000D01*
X115460740Y-91347000D01*
X115173842Y-91404068D01*
X114903589Y-91516010D01*
X114660368Y-91678525D01*
X114453525Y-91885368D01*
X114337000Y-92059760D01*
X114220475Y-91885368D01*
X114013632Y-91678525D01*
X113770411Y-91516010D01*
X113500158Y-91404068D01*
X113213260Y-91347000D01*
X112920740Y-91347000D01*
X112633842Y-91404068D01*
X112363589Y-91516010D01*
X112120368Y-91678525D01*
X111988513Y-91810380D01*
X111966502Y-91737820D01*
X111907537Y-91627506D01*
X111828185Y-91530815D01*
X111731494Y-91451463D01*
X111621180Y-91392498D01*
X111501482Y-91356188D01*
X111377000Y-91343928D01*
X110812750Y-91347000D01*
X110654000Y-91505750D01*
X110654000Y-92705000D01*
X110674000Y-92705000D01*
X110674000Y-92959000D01*
X110654000Y-92959000D01*
X110654000Y-94158250D01*
X110812750Y-94317000D01*
X111377000Y-94320072D01*
X111501482Y-94307812D01*
X111621180Y-94271502D01*
X111731494Y-94212537D01*
X111828185Y-94133185D01*
X111907537Y-94036494D01*
X111966502Y-93926180D01*
X111988513Y-93853620D01*
X112120368Y-93985475D01*
X112363589Y-94147990D01*
X112633842Y-94259932D01*
X112920740Y-94317000D01*
X113213260Y-94317000D01*
X113500158Y-94259932D01*
X113770411Y-94147990D01*
X114013632Y-93985475D01*
X114220475Y-93778632D01*
X114337000Y-93604240D01*
X114453525Y-93778632D01*
X114660368Y-93985475D01*
X114903589Y-94147990D01*
X115173842Y-94259932D01*
X115460740Y-94317000D01*
X115753260Y-94317000D01*
X116040158Y-94259932D01*
X116310411Y-94147990D01*
X116553632Y-93985475D01*
X116760475Y-93778632D01*
X116877000Y-93604240D01*
X116993525Y-93778632D01*
X117200368Y-93985475D01*
X117387000Y-94110179D01*
X117387000Y-94644198D01*
X117033199Y-94998000D01*
X104666574Y-94998000D01*
X104665990Y-94996589D01*
X104503475Y-94753368D01*
X104296632Y-94546525D01*
X104122240Y-94430000D01*
X104296632Y-94313475D01*
X104503475Y-94106632D01*
X104665990Y-93863411D01*
X104741132Y-93682000D01*
X109038928Y-93682000D01*
X109051188Y-93806482D01*
X109087498Y-93926180D01*
X109146463Y-94036494D01*
X109225815Y-94133185D01*
X109322506Y-94212537D01*
X109432820Y-94271502D01*
X109552518Y-94307812D01*
X109677000Y-94320072D01*
X110241250Y-94317000D01*
X110400000Y-94158250D01*
X110400000Y-92959000D01*
X109200750Y-92959000D01*
X109042000Y-93117750D01*
X109038928Y-93682000D01*
X104741132Y-93682000D01*
X104777932Y-93593158D01*
X104835000Y-93306260D01*
X104835000Y-93013740D01*
X104777932Y-92726842D01*
X104665990Y-92456589D01*
X104503475Y-92213368D01*
X104296632Y-92006525D01*
X104259928Y-91982000D01*
X109038928Y-91982000D01*
X109042000Y-92546250D01*
X109200750Y-92705000D01*
X110400000Y-92705000D01*
X110400000Y-91505750D01*
X110241250Y-91347000D01*
X109677000Y-91343928D01*
X109552518Y-91356188D01*
X109432820Y-91392498D01*
X109322506Y-91451463D01*
X109225815Y-91530815D01*
X109146463Y-91627506D01*
X109087498Y-91737820D01*
X109051188Y-91857518D01*
X109038928Y-91982000D01*
X104259928Y-91982000D01*
X104122240Y-91890000D01*
X104296632Y-91773475D01*
X104503475Y-91566632D01*
X104665990Y-91323411D01*
X104777932Y-91053158D01*
X104835000Y-90766260D01*
X104835000Y-90473740D01*
X104777932Y-90186842D01*
X104665990Y-89916589D01*
X104503475Y-89673368D01*
X104296632Y-89466525D01*
X104122240Y-89350000D01*
X104296632Y-89233475D01*
X104503475Y-89026632D01*
X104665990Y-88783411D01*
X104777932Y-88513158D01*
X104835000Y-88226260D01*
X104835000Y-87933740D01*
X104777932Y-87646842D01*
X104665990Y-87376589D01*
X104503475Y-87133368D01*
X104296632Y-86926525D01*
X104053411Y-86764010D01*
X103783158Y-86652068D01*
X103496260Y-86595000D01*
X103203740Y-86595000D01*
X102916842Y-86652068D01*
X102646589Y-86764010D01*
X102403368Y-86926525D01*
X102196525Y-87133368D01*
X102071822Y-87320000D01*
X101695322Y-87320000D01*
X101657999Y-87316324D01*
X101620676Y-87320000D01*
X101620667Y-87320000D01*
X101509014Y-87330997D01*
X101365753Y-87374454D01*
X101233723Y-87445026D01*
X101150083Y-87513668D01*
X101117999Y-87539999D01*
X101094201Y-87568997D01*
X99310998Y-89352201D01*
X99282000Y-89375999D01*
X99258202Y-89404997D01*
X99258201Y-89404998D01*
X99187026Y-89491724D01*
X99116454Y-89623754D01*
X99086180Y-89723558D01*
X99073990Y-89763746D01*
X99072998Y-89767015D01*
X99058324Y-89916000D01*
X99062001Y-89953333D01*
X99062000Y-105626678D01*
X99058324Y-105664000D01*
X99062000Y-105701322D01*
X99062000Y-105701332D01*
X99072997Y-105812985D01*
X99087728Y-105861546D01*
X99116454Y-105956246D01*
X99187026Y-106088276D01*
X99211888Y-106118570D01*
X99281999Y-106204001D01*
X99311003Y-106227804D01*
X101798205Y-108715008D01*
X101821999Y-108744001D01*
X101850992Y-108767795D01*
X101850996Y-108767799D01*
X101921685Y-108825811D01*
X101937724Y-108838974D01*
X102069753Y-108909546D01*
X102213014Y-108953003D01*
X102324667Y-108964000D01*
X102324676Y-108964000D01*
X102361999Y-108967676D01*
X102399322Y-108964000D01*
X113438632Y-108964000D01*
X112505574Y-109897059D01*
X112473710Y-109923209D01*
X112424086Y-109983676D01*
X112369364Y-110050355D01*
X112291828Y-110195414D01*
X112244082Y-110352812D01*
X112227960Y-110516500D01*
X112232001Y-110557528D01*
X112232001Y-111583935D01*
X112120368Y-111658525D01*
X111988513Y-111790380D01*
X111966502Y-111717820D01*
X111907537Y-111607506D01*
X111828185Y-111510815D01*
X111731494Y-111431463D01*
X111621180Y-111372498D01*
X111501482Y-111336188D01*
X111377000Y-111323928D01*
X110812750Y-111327000D01*
X110654000Y-111485750D01*
X110654000Y-112685000D01*
X110674000Y-112685000D01*
X110674000Y-112939000D01*
X110654000Y-112939000D01*
X110654000Y-114138250D01*
X110812750Y-114297000D01*
X111377000Y-114300072D01*
X111501482Y-114287812D01*
X111621180Y-114251502D01*
X111731494Y-114192537D01*
X111828185Y-114113185D01*
X111907537Y-114016494D01*
X111966502Y-113906180D01*
X111988513Y-113833620D01*
X112120368Y-113965475D01*
X112363589Y-114127990D01*
X112633842Y-114239932D01*
X112920740Y-114297000D01*
X113213260Y-114297000D01*
X113500158Y-114239932D01*
X113770411Y-114127990D01*
X114013632Y-113965475D01*
X114220475Y-113758632D01*
X114337000Y-113584240D01*
X114453525Y-113758632D01*
X114660368Y-113965475D01*
X114903589Y-114127990D01*
X115173842Y-114239932D01*
X115460740Y-114297000D01*
X115753260Y-114297000D01*
X116040158Y-114239932D01*
X116310411Y-114127990D01*
X116553632Y-113965475D01*
X116760475Y-113758632D01*
X116877000Y-113584240D01*
X116993525Y-113758632D01*
X117200368Y-113965475D01*
X117443589Y-114127990D01*
X117713842Y-114239932D01*
X118000740Y-114297000D01*
X118293260Y-114297000D01*
X118580158Y-114239932D01*
X118850411Y-114127990D01*
X119093632Y-113965475D01*
X119300475Y-113758632D01*
X119417000Y-113584240D01*
X119533525Y-113758632D01*
X119740368Y-113965475D01*
X119983589Y-114127990D01*
X120253842Y-114239932D01*
X120540740Y-114297000D01*
X120833260Y-114297000D01*
X121120158Y-114239932D01*
X121390411Y-114127990D01*
X121633632Y-113965475D01*
X121840475Y-113758632D01*
X121957000Y-113584240D01*
X122073525Y-113758632D01*
X122280368Y-113965475D01*
X122523589Y-114127990D01*
X122793842Y-114239932D01*
X123080740Y-114297000D01*
X123373260Y-114297000D01*
X123660158Y-114239932D01*
X123930411Y-114127990D01*
X124173632Y-113965475D01*
X124380475Y-113758632D01*
X124497000Y-113584240D01*
X124613525Y-113758632D01*
X124820368Y-113965475D01*
X125063589Y-114127990D01*
X125333842Y-114239932D01*
X125620740Y-114297000D01*
X125913260Y-114297000D01*
X126200158Y-114239932D01*
X126414794Y-114151027D01*
X132403037Y-114151027D01*
X132501036Y-114427978D01*
X132651183Y-114680488D01*
X132847707Y-114898854D01*
X133083056Y-115074684D01*
X133348186Y-115201222D01*
X133498974Y-115246958D01*
X133731000Y-115125817D01*
X133731000Y-113919000D01*
X132523536Y-113919000D01*
X132403037Y-114151027D01*
X126414794Y-114151027D01*
X126470411Y-114127990D01*
X126713632Y-113965475D01*
X126920475Y-113758632D01*
X127082990Y-113515411D01*
X127194932Y-113245158D01*
X127252000Y-112958260D01*
X127252000Y-112665740D01*
X127194932Y-112378842D01*
X127082990Y-112108589D01*
X126920475Y-111865368D01*
X126713632Y-111658525D01*
X126470411Y-111496010D01*
X126200158Y-111384068D01*
X125913260Y-111327000D01*
X125620740Y-111327000D01*
X125333842Y-111384068D01*
X125063589Y-111496010D01*
X124820368Y-111658525D01*
X124613525Y-111865368D01*
X124497000Y-112039760D01*
X124380475Y-111865368D01*
X124173632Y-111658525D01*
X123930411Y-111496010D01*
X123660158Y-111384068D01*
X123373260Y-111327000D01*
X123080740Y-111327000D01*
X122793842Y-111384068D01*
X122523589Y-111496010D01*
X122280368Y-111658525D01*
X122073525Y-111865368D01*
X121957000Y-112039760D01*
X121840475Y-111865368D01*
X121633632Y-111658525D01*
X121390411Y-111496010D01*
X121120158Y-111384068D01*
X120833260Y-111327000D01*
X120540740Y-111327000D01*
X120253842Y-111384068D01*
X119983589Y-111496010D01*
X119740368Y-111658525D01*
X119533525Y-111865368D01*
X119417000Y-112039760D01*
X119300475Y-111865368D01*
X119093632Y-111658525D01*
X118850411Y-111496010D01*
X118580158Y-111384068D01*
X118293260Y-111327000D01*
X118000740Y-111327000D01*
X117713842Y-111384068D01*
X117443589Y-111496010D01*
X117200368Y-111658525D01*
X116993525Y-111865368D01*
X116877000Y-112039760D01*
X116760475Y-111865368D01*
X116553632Y-111658525D01*
X116310411Y-111496010D01*
X116040158Y-111384068D01*
X115753260Y-111327000D01*
X115460740Y-111327000D01*
X115173842Y-111384068D01*
X114903589Y-111496010D01*
X114660368Y-111658525D01*
X114453525Y-111865368D01*
X114337000Y-112039760D01*
X114220475Y-111865368D01*
X114013632Y-111658525D01*
X113902000Y-111583935D01*
X113902000Y-110862367D01*
X114709369Y-110055000D01*
X127797133Y-110055000D01*
X129555563Y-111813432D01*
X129581709Y-111845291D01*
X129613568Y-111871437D01*
X129613570Y-111871439D01*
X129708854Y-111949636D01*
X129853913Y-112027172D01*
X130011311Y-112074918D01*
X130175000Y-112091040D01*
X130216018Y-112087000D01*
X132356328Y-112087000D01*
X132356328Y-112115600D01*
X132368588Y-112240082D01*
X132404898Y-112359780D01*
X132463863Y-112470094D01*
X132543215Y-112566785D01*
X132639906Y-112646137D01*
X132750220Y-112705102D01*
X132812692Y-112724053D01*
X132651183Y-112903512D01*
X132501036Y-113156022D01*
X132403037Y-113432973D01*
X132523536Y-113665000D01*
X133731000Y-113665000D01*
X133731000Y-113645000D01*
X133985000Y-113645000D01*
X133985000Y-113665000D01*
X134005000Y-113665000D01*
X134005000Y-113919000D01*
X133985000Y-113919000D01*
X133985000Y-115125817D01*
X134217026Y-115246958D01*
X134367814Y-115201222D01*
X134632944Y-115074684D01*
X134868293Y-114898854D01*
X135064817Y-114680488D01*
X135123441Y-114581897D01*
X135233961Y-114747302D01*
X135442698Y-114956039D01*
X135688147Y-115120042D01*
X135960875Y-115233010D01*
X136250401Y-115290600D01*
X136545599Y-115290600D01*
X136835125Y-115233010D01*
X137107853Y-115120042D01*
X137353302Y-114956039D01*
X137562039Y-114747302D01*
X137668000Y-114588719D01*
X137773961Y-114747302D01*
X137982698Y-114956039D01*
X138228147Y-115120042D01*
X138500875Y-115233010D01*
X138790401Y-115290600D01*
X139085599Y-115290600D01*
X139375125Y-115233010D01*
X139647853Y-115120042D01*
X139893302Y-114956039D01*
X140102039Y-114747302D01*
X140208000Y-114588719D01*
X140313961Y-114747302D01*
X140522698Y-114956039D01*
X140768147Y-115120042D01*
X141040875Y-115233010D01*
X141330401Y-115290600D01*
X141625599Y-115290600D01*
X141915125Y-115233010D01*
X142187853Y-115120042D01*
X142433302Y-114956039D01*
X142642039Y-114747302D01*
X142748000Y-114588719D01*
X142853961Y-114747302D01*
X143062698Y-114956039D01*
X143308147Y-115120042D01*
X143580875Y-115233010D01*
X143870401Y-115290600D01*
X144165599Y-115290600D01*
X144455125Y-115233010D01*
X144727853Y-115120042D01*
X144973302Y-114956039D01*
X145182039Y-114747302D01*
X145346042Y-114501853D01*
X145459010Y-114229125D01*
X145516600Y-113939599D01*
X145516600Y-113644401D01*
X145459010Y-113354875D01*
X145346042Y-113082147D01*
X145182039Y-112836698D01*
X144973302Y-112627961D01*
X144814719Y-112522000D01*
X144973302Y-112416039D01*
X145182039Y-112207302D01*
X145312535Y-112012000D01*
X145735199Y-112012000D01*
X150288198Y-116565000D01*
X94554447Y-116565000D01*
X94325760Y-116336314D01*
X94598075Y-116449110D01*
X95029872Y-116535000D01*
X95470128Y-116535000D01*
X95901925Y-116449110D01*
X96308669Y-116280631D01*
X96674729Y-116036038D01*
X96986038Y-115724729D01*
X97230631Y-115358669D01*
X97399110Y-114951925D01*
X97485000Y-114520128D01*
X97485000Y-114079872D01*
X97401880Y-113662000D01*
X109038928Y-113662000D01*
X109051188Y-113786482D01*
X109087498Y-113906180D01*
X109146463Y-114016494D01*
X109225815Y-114113185D01*
X109322506Y-114192537D01*
X109432820Y-114251502D01*
X109552518Y-114287812D01*
X109677000Y-114300072D01*
X110241250Y-114297000D01*
X110400000Y-114138250D01*
X110400000Y-112939000D01*
X109200750Y-112939000D01*
X109042000Y-113097750D01*
X109038928Y-113662000D01*
X97401880Y-113662000D01*
X97399110Y-113648075D01*
X97230631Y-113241331D01*
X96986038Y-112875271D01*
X96674729Y-112563962D01*
X96308669Y-112319369D01*
X95901925Y-112150890D01*
X95470128Y-112065000D01*
X95029872Y-112065000D01*
X94598075Y-112150890D01*
X94191331Y-112319369D01*
X93825271Y-112563962D01*
X93513962Y-112875271D01*
X93269369Y-113241331D01*
X93100890Y-113648075D01*
X93015000Y-114079872D01*
X93015000Y-114520128D01*
X93100890Y-114951925D01*
X93213687Y-115224240D01*
X90985000Y-112995554D01*
X90985000Y-111962000D01*
X109038928Y-111962000D01*
X109042000Y-112526250D01*
X109200750Y-112685000D01*
X110400000Y-112685000D01*
X110400000Y-111485750D01*
X110241250Y-111327000D01*
X109677000Y-111323928D01*
X109552518Y-111336188D01*
X109432820Y-111372498D01*
X109322506Y-111431463D01*
X109225815Y-111510815D01*
X109146463Y-111607506D01*
X109087498Y-111717820D01*
X109051188Y-111837518D01*
X109038928Y-111962000D01*
X90985000Y-111962000D01*
X90985000Y-85456665D01*
X138265000Y-85456665D01*
X138265000Y-85739335D01*
X138320147Y-86016574D01*
X138428320Y-86277727D01*
X138585363Y-86512759D01*
X138785241Y-86712637D01*
X139020273Y-86869680D01*
X139281426Y-86977853D01*
X139558665Y-87033000D01*
X139841335Y-87033000D01*
X140118574Y-86977853D01*
X140379727Y-86869680D01*
X140614759Y-86712637D01*
X140814637Y-86512759D01*
X140971680Y-86277727D01*
X141079853Y-86016574D01*
X141135000Y-85739335D01*
X141135000Y-85456665D01*
X141079853Y-85179426D01*
X140971680Y-84918273D01*
X140814637Y-84683241D01*
X140614759Y-84483363D01*
X140379727Y-84326320D01*
X140118574Y-84218147D01*
X139841335Y-84163000D01*
X139558665Y-84163000D01*
X139281426Y-84218147D01*
X139020273Y-84326320D01*
X138785241Y-84483363D01*
X138585363Y-84683241D01*
X138428320Y-84918273D01*
X138320147Y-85179426D01*
X138265000Y-85456665D01*
X90985000Y-85456665D01*
X90985000Y-82512000D01*
X125053928Y-82512000D01*
X125053928Y-84112000D01*
X125066188Y-84236482D01*
X125102498Y-84356180D01*
X125161463Y-84466494D01*
X125240815Y-84563185D01*
X125337506Y-84642537D01*
X125447820Y-84701502D01*
X125567518Y-84737812D01*
X125692000Y-84750072D01*
X127292000Y-84750072D01*
X127416482Y-84737812D01*
X127536180Y-84701502D01*
X127646494Y-84642537D01*
X127743185Y-84563185D01*
X127822537Y-84466494D01*
X127881502Y-84356180D01*
X127917812Y-84236482D01*
X127930072Y-84112000D01*
X127930072Y-83170665D01*
X132677000Y-83170665D01*
X132677000Y-83453335D01*
X132732147Y-83730574D01*
X132840320Y-83991727D01*
X132997363Y-84226759D01*
X133197241Y-84426637D01*
X133432273Y-84583680D01*
X133693426Y-84691853D01*
X133970665Y-84747000D01*
X134253335Y-84747000D01*
X134530574Y-84691853D01*
X134791727Y-84583680D01*
X135026759Y-84426637D01*
X135226637Y-84226759D01*
X135383680Y-83991727D01*
X135491853Y-83730574D01*
X135547000Y-83453335D01*
X135547000Y-83170665D01*
X135491853Y-82893426D01*
X135383680Y-82632273D01*
X135226637Y-82397241D01*
X135026759Y-82197363D01*
X134791727Y-82040320D01*
X134530574Y-81932147D01*
X134253335Y-81877000D01*
X133970665Y-81877000D01*
X133693426Y-81932147D01*
X133432273Y-82040320D01*
X133197241Y-82197363D01*
X132997363Y-82397241D01*
X132840320Y-82632273D01*
X132732147Y-82893426D01*
X132677000Y-83170665D01*
X127930072Y-83170665D01*
X127930072Y-82512000D01*
X127917812Y-82387518D01*
X127881502Y-82267820D01*
X127822537Y-82157506D01*
X127743185Y-82060815D01*
X127646494Y-81981463D01*
X127536180Y-81922498D01*
X127416482Y-81886188D01*
X127292000Y-81873928D01*
X125692000Y-81873928D01*
X125567518Y-81886188D01*
X125447820Y-81922498D01*
X125337506Y-81981463D01*
X125240815Y-82060815D01*
X125161463Y-82157506D01*
X125102498Y-82267820D01*
X125066188Y-82387518D01*
X125053928Y-82512000D01*
X90985000Y-82512000D01*
X90985000Y-79604446D01*
X93213687Y-77375760D01*
X93100890Y-77648075D01*
X93015000Y-78079872D01*
X93015000Y-78520128D01*
X93100890Y-78951925D01*
X93269369Y-79358669D01*
X93513962Y-79724729D01*
X93825271Y-80036038D01*
X94191331Y-80280631D01*
X94598075Y-80449110D01*
X95029872Y-80535000D01*
X95470128Y-80535000D01*
X95901925Y-80449110D01*
X96308669Y-80280631D01*
X96674729Y-80036038D01*
X96986038Y-79724729D01*
X97230631Y-79358669D01*
X97399110Y-78951925D01*
X97485000Y-78520128D01*
X97485000Y-78079872D01*
X97399110Y-77648075D01*
X97230631Y-77241331D01*
X96986038Y-76875271D01*
X96674729Y-76563962D01*
X96308669Y-76319369D01*
X95901925Y-76150890D01*
X95470128Y-76065000D01*
X95029872Y-76065000D01*
X94598075Y-76150890D01*
X94325760Y-76263686D01*
X94554447Y-76035000D01*
X110222554Y-76035000D01*
X113481746Y-79294193D01*
G37*
X113481746Y-79294193D02*
X113504762Y-79322238D01*
X113616680Y-79414087D01*
X113744367Y-79482337D01*
X113882915Y-79524365D01*
X113990895Y-79535000D01*
X113990904Y-79535000D01*
X114026999Y-79538555D01*
X114063094Y-79535000D01*
X120990895Y-79535000D01*
X121027000Y-79538556D01*
X121063105Y-79535000D01*
X121171085Y-79524365D01*
X121309633Y-79482337D01*
X121437320Y-79414087D01*
X121549238Y-79322238D01*
X121572259Y-79294187D01*
X122786574Y-78079872D01*
X176215000Y-78079872D01*
X176215000Y-78520128D01*
X176300890Y-78951925D01*
X176469369Y-79358669D01*
X176713962Y-79724729D01*
X177025271Y-80036038D01*
X177391331Y-80280631D01*
X177798075Y-80449110D01*
X178229872Y-80535000D01*
X178670128Y-80535000D01*
X179101925Y-80449110D01*
X179508669Y-80280631D01*
X179874729Y-80036038D01*
X180186038Y-79724729D01*
X180430631Y-79358669D01*
X180599110Y-78951925D01*
X180685000Y-78520128D01*
X180685000Y-78079872D01*
X180599110Y-77648075D01*
X180430631Y-77241331D01*
X180186038Y-76875271D01*
X179874729Y-76563962D01*
X179508669Y-76319369D01*
X179101925Y-76150890D01*
X178670128Y-76065000D01*
X178229872Y-76065000D01*
X177798075Y-76150890D01*
X177391331Y-76319369D01*
X177025271Y-76563962D01*
X176713962Y-76875271D01*
X176469369Y-77241331D01*
X176300890Y-77648075D01*
X176215000Y-78079872D01*
X122786574Y-78079872D01*
X124831447Y-76035000D01*
X215145554Y-76035000D01*
X215374241Y-76263687D01*
X215101925Y-76150890D01*
X214670128Y-76065000D01*
X214229872Y-76065000D01*
X213798075Y-76150890D01*
X213391331Y-76319369D01*
X213025271Y-76563962D01*
X212713962Y-76875271D01*
X212469369Y-77241331D01*
X212300890Y-77648075D01*
X212215000Y-78079872D01*
X212215000Y-78520128D01*
X212300890Y-78951925D01*
X212469369Y-79358669D01*
X212713962Y-79724729D01*
X213025271Y-80036038D01*
X213391331Y-80280631D01*
X213798075Y-80449110D01*
X214229872Y-80535000D01*
X214670128Y-80535000D01*
X215101925Y-80449110D01*
X215508669Y-80280631D01*
X215874729Y-80036038D01*
X216186038Y-79724729D01*
X216430631Y-79358669D01*
X216599110Y-78951925D01*
X216685000Y-78520128D01*
X216685000Y-78079872D01*
X216599110Y-77648075D01*
X216486313Y-77375760D01*
X218715000Y-79604447D01*
X218715001Y-112995552D01*
X216486313Y-115224240D01*
X216599110Y-114951925D01*
X216685000Y-114520128D01*
X216685000Y-114079872D01*
X216599110Y-113648075D01*
X216430631Y-113241331D01*
X216186038Y-112875271D01*
X215874729Y-112563962D01*
X215508669Y-112319369D01*
X215101925Y-112150890D01*
X214670128Y-112065000D01*
X214229872Y-112065000D01*
X213798075Y-112150890D01*
X213391331Y-112319369D01*
X213025271Y-112563962D01*
X212713962Y-112875271D01*
X212469369Y-113241331D01*
X212300890Y-113648075D01*
X212215000Y-114079872D01*
X212215000Y-114520128D01*
X212300890Y-114951925D01*
X212469369Y-115358669D01*
X212713962Y-115724729D01*
X213025271Y-116036038D01*
X213391331Y-116280631D01*
X213798075Y-116449110D01*
X214229872Y-116535000D01*
X214670128Y-116535000D01*
X215101925Y-116449110D01*
X215374241Y-116336313D01*
X215145554Y-116565000D01*
X170259801Y-116565000D01*
X172744929Y-114079872D01*
X176215000Y-114079872D01*
X176215000Y-114520128D01*
X176300890Y-114951925D01*
X176469369Y-115358669D01*
X176713962Y-115724729D01*
X177025271Y-116036038D01*
X177391331Y-116280631D01*
X177798075Y-116449110D01*
X178229872Y-116535000D01*
X178670128Y-116535000D01*
X179101925Y-116449110D01*
X179508669Y-116280631D01*
X179874729Y-116036038D01*
X180186038Y-115724729D01*
X180430631Y-115358669D01*
X180599110Y-114951925D01*
X180685000Y-114520128D01*
X180685000Y-114079872D01*
X180599110Y-113648075D01*
X180430631Y-113241331D01*
X180186038Y-112875271D01*
X179874729Y-112563962D01*
X179508669Y-112319369D01*
X179101925Y-112150890D01*
X178670128Y-112065000D01*
X178229872Y-112065000D01*
X177798075Y-112150890D01*
X177391331Y-112319369D01*
X177025271Y-112563962D01*
X176713962Y-112875271D01*
X176469369Y-113241331D01*
X176300890Y-113648075D01*
X176215000Y-114079872D01*
X172744929Y-114079872D01*
X175701802Y-111123000D01*
X185232199Y-111123000D01*
X186380201Y-112271003D01*
X186403999Y-112300001D01*
X186519724Y-112394974D01*
X186651753Y-112465546D01*
X186795014Y-112509003D01*
X186906667Y-112520000D01*
X186906676Y-112520000D01*
X186943999Y-112523676D01*
X186981322Y-112520000D01*
X195034678Y-112520000D01*
X195072000Y-112523676D01*
X195109322Y-112520000D01*
X195109333Y-112520000D01*
X195220986Y-112509003D01*
X195364247Y-112465546D01*
X195496276Y-112394974D01*
X195612001Y-112300001D01*
X195635804Y-112270997D01*
X196936004Y-110970798D01*
X196965001Y-110947001D01*
X197054796Y-110837586D01*
X197059974Y-110831277D01*
X197130546Y-110699247D01*
X197143893Y-110655246D01*
X197174003Y-110555986D01*
X197185000Y-110444333D01*
X197185000Y-110444323D01*
X197188676Y-110407000D01*
X197185000Y-110369677D01*
X197185000Y-109987178D01*
X197371632Y-109862475D01*
X197578475Y-109655632D01*
X197695000Y-109481240D01*
X197811525Y-109655632D01*
X198018368Y-109862475D01*
X198261589Y-110024990D01*
X198531842Y-110136932D01*
X198818740Y-110194000D01*
X199111260Y-110194000D01*
X199398158Y-110136932D01*
X199668411Y-110024990D01*
X199911632Y-109862475D01*
X200118475Y-109655632D01*
X200235000Y-109481240D01*
X200351525Y-109655632D01*
X200558368Y-109862475D01*
X200801589Y-110024990D01*
X201071842Y-110136932D01*
X201358740Y-110194000D01*
X201651260Y-110194000D01*
X201938158Y-110136932D01*
X202208411Y-110024990D01*
X202451632Y-109862475D01*
X202658475Y-109655632D01*
X202820990Y-109412411D01*
X202932932Y-109142158D01*
X202990000Y-108855260D01*
X202990000Y-108562740D01*
X202932932Y-108275842D01*
X202820990Y-108005589D01*
X202658475Y-107762368D01*
X202451632Y-107555525D01*
X202208411Y-107393010D01*
X201938158Y-107281068D01*
X201651260Y-107224000D01*
X201358740Y-107224000D01*
X201071842Y-107281068D01*
X200801589Y-107393010D01*
X200558368Y-107555525D01*
X200351525Y-107762368D01*
X200235000Y-107936760D01*
X200118475Y-107762368D01*
X199911632Y-107555525D01*
X199668411Y-107393010D01*
X199398158Y-107281068D01*
X199111260Y-107224000D01*
X198818740Y-107224000D01*
X198531842Y-107281068D01*
X198261589Y-107393010D01*
X198018368Y-107555525D01*
X197811525Y-107762368D01*
X197695000Y-107936760D01*
X197578475Y-107762368D01*
X197371632Y-107555525D01*
X197128411Y-107393010D01*
X196858158Y-107281068D01*
X196571260Y-107224000D01*
X196278740Y-107224000D01*
X195991842Y-107281068D01*
X195721589Y-107393010D01*
X195478368Y-107555525D01*
X195271525Y-107762368D01*
X195155000Y-107936760D01*
X195038475Y-107762368D01*
X194831632Y-107555525D01*
X194720000Y-107480935D01*
X194720000Y-107312015D01*
X194724040Y-107270999D01*
X194715171Y-107180954D01*
X194707918Y-107107311D01*
X194660172Y-106949913D01*
X194582636Y-106804854D01*
X194478291Y-106677709D01*
X194446427Y-106651559D01*
X194329868Y-106535000D01*
X213913895Y-106535000D01*
X213950000Y-106538556D01*
X213986105Y-106535000D01*
X214094085Y-106524365D01*
X214232633Y-106482337D01*
X214360320Y-106414087D01*
X214472238Y-106322238D01*
X214564087Y-106210320D01*
X214632337Y-106082633D01*
X214674365Y-105944085D01*
X214688556Y-105800000D01*
X214685000Y-105763895D01*
X214685000Y-84421880D01*
X214688555Y-84385785D01*
X214685000Y-84349690D01*
X214685000Y-84349681D01*
X214674365Y-84241701D01*
X214632337Y-84103153D01*
X214564087Y-83975466D01*
X214547514Y-83955273D01*
X214495253Y-83891592D01*
X214495250Y-83891589D01*
X214472237Y-83863548D01*
X214444198Y-83840537D01*
X208909473Y-78305813D01*
X208886452Y-78277762D01*
X208774534Y-78185913D01*
X208646847Y-78117663D01*
X208508299Y-78075635D01*
X208400319Y-78065000D01*
X208364214Y-78061444D01*
X208328109Y-78065000D01*
X184571892Y-78065000D01*
X184535787Y-78061444D01*
X184499682Y-78065000D01*
X184391702Y-78075635D01*
X184253154Y-78117663D01*
X184125467Y-78185913D01*
X184013549Y-78277762D01*
X183990534Y-78305806D01*
X178455808Y-83840532D01*
X178427762Y-83863549D01*
X178335913Y-83975467D01*
X178267663Y-84103154D01*
X178249111Y-84164312D01*
X178225635Y-84241701D01*
X178211444Y-84385786D01*
X178215000Y-84421891D01*
X178215001Y-105152133D01*
X177111000Y-104048133D01*
X177111000Y-84369018D01*
X177115040Y-84327999D01*
X177098918Y-84164311D01*
X177051172Y-84006913D01*
X176973636Y-83861854D01*
X176869291Y-83734709D01*
X176837428Y-83708560D01*
X174609446Y-81480579D01*
X174583291Y-81448709D01*
X174456146Y-81344364D01*
X174311087Y-81266828D01*
X174153689Y-81219082D01*
X174031019Y-81207000D01*
X174031018Y-81207000D01*
X173990000Y-81202960D01*
X173948982Y-81207000D01*
X167935007Y-81207000D01*
X167893999Y-81202961D01*
X167852991Y-81207000D01*
X167852981Y-81207000D01*
X167730311Y-81219082D01*
X167572913Y-81266828D01*
X167427854Y-81344364D01*
X167300709Y-81448709D01*
X167274559Y-81480573D01*
X165008133Y-83747000D01*
X161404072Y-83747000D01*
X161404072Y-83582000D01*
X161391812Y-83457518D01*
X161355502Y-83337820D01*
X161296537Y-83227506D01*
X161217185Y-83130815D01*
X161120494Y-83051463D01*
X161010180Y-82992498D01*
X160890482Y-82956188D01*
X160766000Y-82943928D01*
X158766000Y-82943928D01*
X158641518Y-82956188D01*
X158521820Y-82992498D01*
X158411506Y-83051463D01*
X158314815Y-83130815D01*
X158235463Y-83227506D01*
X158176498Y-83337820D01*
X158140188Y-83457518D01*
X158127928Y-83582000D01*
X158127928Y-85582000D01*
X158140188Y-85706482D01*
X158176498Y-85826180D01*
X158235463Y-85936494D01*
X158314815Y-86033185D01*
X158411506Y-86112537D01*
X158521820Y-86171502D01*
X158641518Y-86207812D01*
X158766000Y-86220072D01*
X160766000Y-86220072D01*
X160890482Y-86207812D01*
X161010180Y-86171502D01*
X161120494Y-86112537D01*
X161217185Y-86033185D01*
X161296537Y-85936494D01*
X161355502Y-85826180D01*
X161391812Y-85706482D01*
X161404072Y-85582000D01*
X161404072Y-85417000D01*
X165312982Y-85417000D01*
X165354000Y-85421040D01*
X165395018Y-85417000D01*
X165395019Y-85417000D01*
X165517689Y-85404918D01*
X165675087Y-85357172D01*
X165820146Y-85279636D01*
X165947291Y-85175291D01*
X165973446Y-85143421D01*
X166168202Y-84948665D01*
X167221000Y-84948665D01*
X167221000Y-85231335D01*
X167276147Y-85508574D01*
X167384320Y-85769727D01*
X167541363Y-86004759D01*
X167741241Y-86204637D01*
X167976273Y-86361680D01*
X168237426Y-86469853D01*
X168514665Y-86525000D01*
X168797335Y-86525000D01*
X169074574Y-86469853D01*
X169335727Y-86361680D01*
X169570759Y-86204637D01*
X169770637Y-86004759D01*
X169927680Y-85769727D01*
X170035853Y-85508574D01*
X170091000Y-85231335D01*
X170091000Y-84948665D01*
X170035853Y-84671426D01*
X169927680Y-84410273D01*
X169770637Y-84175241D01*
X169570759Y-83975363D01*
X169335727Y-83818320D01*
X169074574Y-83710147D01*
X168797335Y-83655000D01*
X168514665Y-83655000D01*
X168237426Y-83710147D01*
X167976273Y-83818320D01*
X167741241Y-83975363D01*
X167541363Y-84175241D01*
X167384320Y-84410273D01*
X167276147Y-84671426D01*
X167221000Y-84948665D01*
X166168202Y-84948665D01*
X168239868Y-82877000D01*
X173644133Y-82877000D01*
X175441000Y-84673868D01*
X175441001Y-89490973D01*
X175441000Y-89490982D01*
X175441000Y-89874982D01*
X175441001Y-104352971D01*
X175436960Y-104394000D01*
X175453082Y-104557688D01*
X175500828Y-104715086D01*
X175578364Y-104860145D01*
X175578365Y-104860146D01*
X175682710Y-104987291D01*
X175714574Y-105013441D01*
X177942559Y-107241427D01*
X177968709Y-107273291D01*
X178093248Y-107375497D01*
X178095854Y-107377636D01*
X178240913Y-107455172D01*
X178398311Y-107502918D01*
X178561999Y-107519040D01*
X178603018Y-107515000D01*
X189958854Y-107515000D01*
X189905498Y-107614820D01*
X189869188Y-107734518D01*
X189856928Y-107859000D01*
X189860000Y-108423250D01*
X190018750Y-108582000D01*
X191218000Y-108582000D01*
X191218000Y-108562000D01*
X191472000Y-108562000D01*
X191472000Y-108582000D01*
X191492000Y-108582000D01*
X191492000Y-108836000D01*
X191472000Y-108836000D01*
X191472000Y-110035250D01*
X191630750Y-110194000D01*
X192195000Y-110197072D01*
X192319482Y-110184812D01*
X192439180Y-110148502D01*
X192549494Y-110089537D01*
X192646185Y-110010185D01*
X192725537Y-109913494D01*
X192784502Y-109803180D01*
X192806513Y-109730620D01*
X192938368Y-109862475D01*
X193181589Y-110024990D01*
X193451842Y-110136932D01*
X193738740Y-110194000D01*
X194031260Y-110194000D01*
X194318158Y-110136932D01*
X194588411Y-110024990D01*
X194831632Y-109862475D01*
X195038475Y-109655632D01*
X195155000Y-109481240D01*
X195271525Y-109655632D01*
X195478368Y-109862475D01*
X195665000Y-109987179D01*
X195665000Y-110092198D01*
X194757199Y-111000000D01*
X187258802Y-111000000D01*
X186110804Y-109852003D01*
X186087001Y-109822999D01*
X185971276Y-109728026D01*
X185839247Y-109657454D01*
X185695986Y-109613997D01*
X185584333Y-109603000D01*
X185584322Y-109603000D01*
X185547000Y-109599324D01*
X185509678Y-109603000D01*
X175424322Y-109603000D01*
X175387000Y-109599324D01*
X175349677Y-109603000D01*
X175349667Y-109603000D01*
X175238014Y-109613997D01*
X175094753Y-109657454D01*
X174962723Y-109728026D01*
X174897652Y-109781429D01*
X174846999Y-109822999D01*
X174823201Y-109851997D01*
X168849199Y-115826000D01*
X159314622Y-115826000D01*
X159384974Y-115740276D01*
X159455546Y-115608247D01*
X159499003Y-115464986D01*
X159510000Y-115353333D01*
X159510000Y-115353324D01*
X159513676Y-115316001D01*
X159510000Y-115278678D01*
X159510000Y-115086535D01*
X159705302Y-114956039D01*
X159914039Y-114747302D01*
X160020000Y-114588719D01*
X160125961Y-114747302D01*
X160334698Y-114956039D01*
X160580147Y-115120042D01*
X160852875Y-115233010D01*
X161142401Y-115290600D01*
X161437599Y-115290600D01*
X161727125Y-115233010D01*
X161999853Y-115120042D01*
X162245302Y-114956039D01*
X162454039Y-114747302D01*
X162560000Y-114588719D01*
X162665961Y-114747302D01*
X162874698Y-114956039D01*
X163120147Y-115120042D01*
X163392875Y-115233010D01*
X163682401Y-115290600D01*
X163977599Y-115290600D01*
X164267125Y-115233010D01*
X164539853Y-115120042D01*
X164785302Y-114956039D01*
X164994039Y-114747302D01*
X165100000Y-114588719D01*
X165205961Y-114747302D01*
X165414698Y-114956039D01*
X165660147Y-115120042D01*
X165932875Y-115233010D01*
X166222401Y-115290600D01*
X166517599Y-115290600D01*
X166807125Y-115233010D01*
X167079853Y-115120042D01*
X167325302Y-114956039D01*
X167534039Y-114747302D01*
X167698042Y-114501853D01*
X167811010Y-114229125D01*
X167868600Y-113939599D01*
X167868600Y-113644401D01*
X167811010Y-113354875D01*
X167698042Y-113082147D01*
X167534039Y-112836698D01*
X167325302Y-112627961D01*
X167166719Y-112522000D01*
X167325302Y-112416039D01*
X167534039Y-112207302D01*
X167698042Y-111961853D01*
X167811010Y-111689125D01*
X167868600Y-111399599D01*
X167868600Y-111104401D01*
X167811010Y-110814875D01*
X167698042Y-110542147D01*
X167534039Y-110296698D01*
X167325302Y-110087961D01*
X167079853Y-109923958D01*
X166807125Y-109810990D01*
X166517599Y-109753400D01*
X166222401Y-109753400D01*
X165932875Y-109810990D01*
X165660147Y-109923958D01*
X165414698Y-110087961D01*
X165205961Y-110296698D01*
X165100000Y-110455281D01*
X164994039Y-110296698D01*
X164785302Y-110087961D01*
X164539853Y-109923958D01*
X164267125Y-109810990D01*
X163977599Y-109753400D01*
X163682401Y-109753400D01*
X163392875Y-109810990D01*
X163120147Y-109923958D01*
X162874698Y-110087961D01*
X162665961Y-110296698D01*
X162560000Y-110455281D01*
X162454039Y-110296698D01*
X162245302Y-110087961D01*
X162050000Y-109957465D01*
X162050000Y-109559000D01*
X189856928Y-109559000D01*
X189869188Y-109683482D01*
X189905498Y-109803180D01*
X189964463Y-109913494D01*
X190043815Y-110010185D01*
X190140506Y-110089537D01*
X190250820Y-110148502D01*
X190370518Y-110184812D01*
X190495000Y-110197072D01*
X191059250Y-110194000D01*
X191218000Y-110035250D01*
X191218000Y-108836000D01*
X190018750Y-108836000D01*
X189860000Y-108994750D01*
X189856928Y-109559000D01*
X162050000Y-109559000D01*
X162050000Y-107923825D01*
X162053676Y-107886500D01*
X162050000Y-107849175D01*
X162050000Y-107849167D01*
X162039003Y-107737514D01*
X161995546Y-107594253D01*
X161924974Y-107462224D01*
X161830001Y-107346499D01*
X161801004Y-107322702D01*
X153301302Y-98823000D01*
X167267928Y-98823000D01*
X167280188Y-98947482D01*
X167316498Y-99067180D01*
X167375463Y-99177494D01*
X167454815Y-99274185D01*
X167551506Y-99353537D01*
X167661820Y-99412502D01*
X167781518Y-99448812D01*
X167906000Y-99461072D01*
X168370250Y-99458000D01*
X168529000Y-99299250D01*
X168529000Y-98425000D01*
X168783000Y-98425000D01*
X168783000Y-99299250D01*
X168941750Y-99458000D01*
X169406000Y-99461072D01*
X169530482Y-99448812D01*
X169650180Y-99412502D01*
X169760494Y-99353537D01*
X169857185Y-99274185D01*
X169936537Y-99177494D01*
X169995502Y-99067180D01*
X170031812Y-98947482D01*
X170044072Y-98823000D01*
X170041000Y-98583750D01*
X169882250Y-98425000D01*
X168783000Y-98425000D01*
X168529000Y-98425000D01*
X167429750Y-98425000D01*
X167271000Y-98583750D01*
X167267928Y-98823000D01*
X153301302Y-98823000D01*
X150236302Y-95758000D01*
X167265388Y-95758000D01*
X167287785Y-95985400D01*
X167354115Y-96204060D01*
X167455105Y-96393000D01*
X167354115Y-96581940D01*
X167287785Y-96800600D01*
X167265388Y-97028000D01*
X167287785Y-97255400D01*
X167351093Y-97464098D01*
X167316498Y-97528820D01*
X167280188Y-97648518D01*
X167267928Y-97773000D01*
X167271000Y-98012250D01*
X167429750Y-98171000D01*
X168202891Y-98171000D01*
X168203600Y-98171215D01*
X168374021Y-98188000D01*
X168937979Y-98188000D01*
X169108400Y-98171215D01*
X169109109Y-98171000D01*
X169882250Y-98171000D01*
X170041000Y-98012250D01*
X170044072Y-97773000D01*
X170031812Y-97648518D01*
X169995502Y-97528820D01*
X169960907Y-97464098D01*
X170024215Y-97255400D01*
X170046612Y-97028000D01*
X170024215Y-96800600D01*
X169957885Y-96581940D01*
X169856895Y-96393000D01*
X169957885Y-96204060D01*
X170024215Y-95985400D01*
X170046612Y-95758000D01*
X170024215Y-95530600D01*
X169957885Y-95311940D01*
X169850171Y-95110421D01*
X169705212Y-94933788D01*
X169528579Y-94788829D01*
X169327060Y-94681115D01*
X169108400Y-94614785D01*
X168937979Y-94598000D01*
X168374021Y-94598000D01*
X168203600Y-94614785D01*
X167984940Y-94681115D01*
X167783421Y-94788829D01*
X167606788Y-94933788D01*
X167461829Y-95110421D01*
X167354115Y-95311940D01*
X167287785Y-95530600D01*
X167265388Y-95758000D01*
X150236302Y-95758000D01*
X146499269Y-92020967D01*
X158131000Y-92020967D01*
X158131000Y-92343033D01*
X158193832Y-92658912D01*
X158317082Y-92956463D01*
X158496013Y-93224252D01*
X158723748Y-93451987D01*
X158991537Y-93630918D01*
X159289088Y-93754168D01*
X159604967Y-93817000D01*
X159927033Y-93817000D01*
X160242912Y-93754168D01*
X160540463Y-93630918D01*
X160808252Y-93451987D01*
X161035987Y-93224252D01*
X161214918Y-92956463D01*
X161338168Y-92658912D01*
X161356119Y-92568665D01*
X167221000Y-92568665D01*
X167221000Y-92851335D01*
X167276147Y-93128574D01*
X167384320Y-93389727D01*
X167541363Y-93624759D01*
X167741241Y-93824637D01*
X167976273Y-93981680D01*
X168237426Y-94089853D01*
X168514665Y-94145000D01*
X168797335Y-94145000D01*
X169074574Y-94089853D01*
X169335727Y-93981680D01*
X169570759Y-93824637D01*
X169770637Y-93624759D01*
X169927680Y-93389727D01*
X170035853Y-93128574D01*
X170091000Y-92851335D01*
X170091000Y-92568665D01*
X170035853Y-92291426D01*
X169927680Y-92030273D01*
X169770637Y-91795241D01*
X169570759Y-91595363D01*
X169335727Y-91438320D01*
X169074574Y-91330147D01*
X168797335Y-91275000D01*
X168514665Y-91275000D01*
X168237426Y-91330147D01*
X167976273Y-91438320D01*
X167741241Y-91595363D01*
X167541363Y-91795241D01*
X167384320Y-92030273D01*
X167276147Y-92291426D01*
X167221000Y-92568665D01*
X161356119Y-92568665D01*
X161401000Y-92343033D01*
X161401000Y-92020967D01*
X161338168Y-91705088D01*
X161214918Y-91407537D01*
X161035987Y-91139748D01*
X160808252Y-90912013D01*
X160540463Y-90733082D01*
X160242912Y-90609832D01*
X159927033Y-90547000D01*
X159604967Y-90547000D01*
X159289088Y-90609832D01*
X158991537Y-90733082D01*
X158723748Y-90912013D01*
X158496013Y-91139748D01*
X158317082Y-91407537D01*
X158193832Y-91705088D01*
X158131000Y-92020967D01*
X146499269Y-92020967D01*
X143438804Y-88960503D01*
X143415001Y-88931499D01*
X143299276Y-88836526D01*
X143167247Y-88765954D01*
X143023986Y-88722497D01*
X142912333Y-88711500D01*
X142912322Y-88711500D01*
X142875000Y-88707824D01*
X142837678Y-88711500D01*
X120342741Y-88711500D01*
X120305418Y-88707824D01*
X120268095Y-88711500D01*
X120268086Y-88711500D01*
X120156433Y-88722497D01*
X120013172Y-88765954D01*
X119881143Y-88836526D01*
X119881141Y-88836527D01*
X119881142Y-88836527D01*
X119794415Y-88907701D01*
X119794411Y-88907705D01*
X119765418Y-88931499D01*
X119741624Y-88960492D01*
X117635998Y-91066120D01*
X117607000Y-91089918D01*
X117583202Y-91118916D01*
X117583201Y-91118917D01*
X117512026Y-91205643D01*
X117441454Y-91337673D01*
X117439557Y-91343928D01*
X117406938Y-91451463D01*
X117397998Y-91480934D01*
X117391088Y-91551090D01*
X117200368Y-91678525D01*
X116993525Y-91885368D01*
X116877000Y-92059760D01*
X116760475Y-91885368D01*
X116553632Y-91678525D01*
X116310411Y-91516010D01*
X116040158Y-91404068D01*
X115753260Y-91347000D01*
X115460740Y-91347000D01*
X115173842Y-91404068D01*
X114903589Y-91516010D01*
X114660368Y-91678525D01*
X114453525Y-91885368D01*
X114337000Y-92059760D01*
X114220475Y-91885368D01*
X114013632Y-91678525D01*
X113770411Y-91516010D01*
X113500158Y-91404068D01*
X113213260Y-91347000D01*
X112920740Y-91347000D01*
X112633842Y-91404068D01*
X112363589Y-91516010D01*
X112120368Y-91678525D01*
X111988513Y-91810380D01*
X111966502Y-91737820D01*
X111907537Y-91627506D01*
X111828185Y-91530815D01*
X111731494Y-91451463D01*
X111621180Y-91392498D01*
X111501482Y-91356188D01*
X111377000Y-91343928D01*
X110812750Y-91347000D01*
X110654000Y-91505750D01*
X110654000Y-92705000D01*
X110674000Y-92705000D01*
X110674000Y-92959000D01*
X110654000Y-92959000D01*
X110654000Y-94158250D01*
X110812750Y-94317000D01*
X111377000Y-94320072D01*
X111501482Y-94307812D01*
X111621180Y-94271502D01*
X111731494Y-94212537D01*
X111828185Y-94133185D01*
X111907537Y-94036494D01*
X111966502Y-93926180D01*
X111988513Y-93853620D01*
X112120368Y-93985475D01*
X112363589Y-94147990D01*
X112633842Y-94259932D01*
X112920740Y-94317000D01*
X113213260Y-94317000D01*
X113500158Y-94259932D01*
X113770411Y-94147990D01*
X114013632Y-93985475D01*
X114220475Y-93778632D01*
X114337000Y-93604240D01*
X114453525Y-93778632D01*
X114660368Y-93985475D01*
X114903589Y-94147990D01*
X115173842Y-94259932D01*
X115460740Y-94317000D01*
X115753260Y-94317000D01*
X116040158Y-94259932D01*
X116310411Y-94147990D01*
X116553632Y-93985475D01*
X116760475Y-93778632D01*
X116877000Y-93604240D01*
X116993525Y-93778632D01*
X117200368Y-93985475D01*
X117387000Y-94110179D01*
X117387000Y-94644198D01*
X117033199Y-94998000D01*
X104666574Y-94998000D01*
X104665990Y-94996589D01*
X104503475Y-94753368D01*
X104296632Y-94546525D01*
X104122240Y-94430000D01*
X104296632Y-94313475D01*
X104503475Y-94106632D01*
X104665990Y-93863411D01*
X104741132Y-93682000D01*
X109038928Y-93682000D01*
X109051188Y-93806482D01*
X109087498Y-93926180D01*
X109146463Y-94036494D01*
X109225815Y-94133185D01*
X109322506Y-94212537D01*
X109432820Y-94271502D01*
X109552518Y-94307812D01*
X109677000Y-94320072D01*
X110241250Y-94317000D01*
X110400000Y-94158250D01*
X110400000Y-92959000D01*
X109200750Y-92959000D01*
X109042000Y-93117750D01*
X109038928Y-93682000D01*
X104741132Y-93682000D01*
X104777932Y-93593158D01*
X104835000Y-93306260D01*
X104835000Y-93013740D01*
X104777932Y-92726842D01*
X104665990Y-92456589D01*
X104503475Y-92213368D01*
X104296632Y-92006525D01*
X104259928Y-91982000D01*
X109038928Y-91982000D01*
X109042000Y-92546250D01*
X109200750Y-92705000D01*
X110400000Y-92705000D01*
X110400000Y-91505750D01*
X110241250Y-91347000D01*
X109677000Y-91343928D01*
X109552518Y-91356188D01*
X109432820Y-91392498D01*
X109322506Y-91451463D01*
X109225815Y-91530815D01*
X109146463Y-91627506D01*
X109087498Y-91737820D01*
X109051188Y-91857518D01*
X109038928Y-91982000D01*
X104259928Y-91982000D01*
X104122240Y-91890000D01*
X104296632Y-91773475D01*
X104503475Y-91566632D01*
X104665990Y-91323411D01*
X104777932Y-91053158D01*
X104835000Y-90766260D01*
X104835000Y-90473740D01*
X104777932Y-90186842D01*
X104665990Y-89916589D01*
X104503475Y-89673368D01*
X104296632Y-89466525D01*
X104122240Y-89350000D01*
X104296632Y-89233475D01*
X104503475Y-89026632D01*
X104665990Y-88783411D01*
X104777932Y-88513158D01*
X104835000Y-88226260D01*
X104835000Y-87933740D01*
X104777932Y-87646842D01*
X104665990Y-87376589D01*
X104503475Y-87133368D01*
X104296632Y-86926525D01*
X104053411Y-86764010D01*
X103783158Y-86652068D01*
X103496260Y-86595000D01*
X103203740Y-86595000D01*
X102916842Y-86652068D01*
X102646589Y-86764010D01*
X102403368Y-86926525D01*
X102196525Y-87133368D01*
X102071822Y-87320000D01*
X101695322Y-87320000D01*
X101657999Y-87316324D01*
X101620676Y-87320000D01*
X101620667Y-87320000D01*
X101509014Y-87330997D01*
X101365753Y-87374454D01*
X101233723Y-87445026D01*
X101150083Y-87513668D01*
X101117999Y-87539999D01*
X101094201Y-87568997D01*
X99310998Y-89352201D01*
X99282000Y-89375999D01*
X99258202Y-89404997D01*
X99258201Y-89404998D01*
X99187026Y-89491724D01*
X99116454Y-89623754D01*
X99086180Y-89723558D01*
X99073990Y-89763746D01*
X99072998Y-89767015D01*
X99058324Y-89916000D01*
X99062001Y-89953333D01*
X99062000Y-105626678D01*
X99058324Y-105664000D01*
X99062000Y-105701322D01*
X99062000Y-105701332D01*
X99072997Y-105812985D01*
X99087728Y-105861546D01*
X99116454Y-105956246D01*
X99187026Y-106088276D01*
X99211888Y-106118570D01*
X99281999Y-106204001D01*
X99311003Y-106227804D01*
X101798205Y-108715008D01*
X101821999Y-108744001D01*
X101850992Y-108767795D01*
X101850996Y-108767799D01*
X101921685Y-108825811D01*
X101937724Y-108838974D01*
X102069753Y-108909546D01*
X102213014Y-108953003D01*
X102324667Y-108964000D01*
X102324676Y-108964000D01*
X102361999Y-108967676D01*
X102399322Y-108964000D01*
X113438632Y-108964000D01*
X112505574Y-109897059D01*
X112473710Y-109923209D01*
X112424086Y-109983676D01*
X112369364Y-110050355D01*
X112291828Y-110195414D01*
X112244082Y-110352812D01*
X112227960Y-110516500D01*
X112232001Y-110557528D01*
X112232001Y-111583935D01*
X112120368Y-111658525D01*
X111988513Y-111790380D01*
X111966502Y-111717820D01*
X111907537Y-111607506D01*
X111828185Y-111510815D01*
X111731494Y-111431463D01*
X111621180Y-111372498D01*
X111501482Y-111336188D01*
X111377000Y-111323928D01*
X110812750Y-111327000D01*
X110654000Y-111485750D01*
X110654000Y-112685000D01*
X110674000Y-112685000D01*
X110674000Y-112939000D01*
X110654000Y-112939000D01*
X110654000Y-114138250D01*
X110812750Y-114297000D01*
X111377000Y-114300072D01*
X111501482Y-114287812D01*
X111621180Y-114251502D01*
X111731494Y-114192537D01*
X111828185Y-114113185D01*
X111907537Y-114016494D01*
X111966502Y-113906180D01*
X111988513Y-113833620D01*
X112120368Y-113965475D01*
X112363589Y-114127990D01*
X112633842Y-114239932D01*
X112920740Y-114297000D01*
X113213260Y-114297000D01*
X113500158Y-114239932D01*
X113770411Y-114127990D01*
X114013632Y-113965475D01*
X114220475Y-113758632D01*
X114337000Y-113584240D01*
X114453525Y-113758632D01*
X114660368Y-113965475D01*
X114903589Y-114127990D01*
X115173842Y-114239932D01*
X115460740Y-114297000D01*
X115753260Y-114297000D01*
X116040158Y-114239932D01*
X116310411Y-114127990D01*
X116553632Y-113965475D01*
X116760475Y-113758632D01*
X116877000Y-113584240D01*
X116993525Y-113758632D01*
X117200368Y-113965475D01*
X117443589Y-114127990D01*
X117713842Y-114239932D01*
X118000740Y-114297000D01*
X118293260Y-114297000D01*
X118580158Y-114239932D01*
X118850411Y-114127990D01*
X119093632Y-113965475D01*
X119300475Y-113758632D01*
X119417000Y-113584240D01*
X119533525Y-113758632D01*
X119740368Y-113965475D01*
X119983589Y-114127990D01*
X120253842Y-114239932D01*
X120540740Y-114297000D01*
X120833260Y-114297000D01*
X121120158Y-114239932D01*
X121390411Y-114127990D01*
X121633632Y-113965475D01*
X121840475Y-113758632D01*
X121957000Y-113584240D01*
X122073525Y-113758632D01*
X122280368Y-113965475D01*
X122523589Y-114127990D01*
X122793842Y-114239932D01*
X123080740Y-114297000D01*
X123373260Y-114297000D01*
X123660158Y-114239932D01*
X123930411Y-114127990D01*
X124173632Y-113965475D01*
X124380475Y-113758632D01*
X124497000Y-113584240D01*
X124613525Y-113758632D01*
X124820368Y-113965475D01*
X125063589Y-114127990D01*
X125333842Y-114239932D01*
X125620740Y-114297000D01*
X125913260Y-114297000D01*
X126200158Y-114239932D01*
X126414794Y-114151027D01*
X132403037Y-114151027D01*
X132501036Y-114427978D01*
X132651183Y-114680488D01*
X132847707Y-114898854D01*
X133083056Y-115074684D01*
X133348186Y-115201222D01*
X133498974Y-115246958D01*
X133731000Y-115125817D01*
X133731000Y-113919000D01*
X132523536Y-113919000D01*
X132403037Y-114151027D01*
X126414794Y-114151027D01*
X126470411Y-114127990D01*
X126713632Y-113965475D01*
X126920475Y-113758632D01*
X127082990Y-113515411D01*
X127194932Y-113245158D01*
X127252000Y-112958260D01*
X127252000Y-112665740D01*
X127194932Y-112378842D01*
X127082990Y-112108589D01*
X126920475Y-111865368D01*
X126713632Y-111658525D01*
X126470411Y-111496010D01*
X126200158Y-111384068D01*
X125913260Y-111327000D01*
X125620740Y-111327000D01*
X125333842Y-111384068D01*
X125063589Y-111496010D01*
X124820368Y-111658525D01*
X124613525Y-111865368D01*
X124497000Y-112039760D01*
X124380475Y-111865368D01*
X124173632Y-111658525D01*
X123930411Y-111496010D01*
X123660158Y-111384068D01*
X123373260Y-111327000D01*
X123080740Y-111327000D01*
X122793842Y-111384068D01*
X122523589Y-111496010D01*
X122280368Y-111658525D01*
X122073525Y-111865368D01*
X121957000Y-112039760D01*
X121840475Y-111865368D01*
X121633632Y-111658525D01*
X121390411Y-111496010D01*
X121120158Y-111384068D01*
X120833260Y-111327000D01*
X120540740Y-111327000D01*
X120253842Y-111384068D01*
X119983589Y-111496010D01*
X119740368Y-111658525D01*
X119533525Y-111865368D01*
X119417000Y-112039760D01*
X119300475Y-111865368D01*
X119093632Y-111658525D01*
X118850411Y-111496010D01*
X118580158Y-111384068D01*
X118293260Y-111327000D01*
X118000740Y-111327000D01*
X117713842Y-111384068D01*
X117443589Y-111496010D01*
X117200368Y-111658525D01*
X116993525Y-111865368D01*
X116877000Y-112039760D01*
X116760475Y-111865368D01*
X116553632Y-111658525D01*
X116310411Y-111496010D01*
X116040158Y-111384068D01*
X115753260Y-111327000D01*
X115460740Y-111327000D01*
X115173842Y-111384068D01*
X114903589Y-111496010D01*
X114660368Y-111658525D01*
X114453525Y-111865368D01*
X114337000Y-112039760D01*
X114220475Y-111865368D01*
X114013632Y-111658525D01*
X113902000Y-111583935D01*
X113902000Y-110862367D01*
X114709369Y-110055000D01*
X127797133Y-110055000D01*
X129555563Y-111813432D01*
X129581709Y-111845291D01*
X129613568Y-111871437D01*
X129613570Y-111871439D01*
X129708854Y-111949636D01*
X129853913Y-112027172D01*
X130011311Y-112074918D01*
X130175000Y-112091040D01*
X130216018Y-112087000D01*
X132356328Y-112087000D01*
X132356328Y-112115600D01*
X132368588Y-112240082D01*
X132404898Y-112359780D01*
X132463863Y-112470094D01*
X132543215Y-112566785D01*
X132639906Y-112646137D01*
X132750220Y-112705102D01*
X132812692Y-112724053D01*
X132651183Y-112903512D01*
X132501036Y-113156022D01*
X132403037Y-113432973D01*
X132523536Y-113665000D01*
X133731000Y-113665000D01*
X133731000Y-113645000D01*
X133985000Y-113645000D01*
X133985000Y-113665000D01*
X134005000Y-113665000D01*
X134005000Y-113919000D01*
X133985000Y-113919000D01*
X133985000Y-115125817D01*
X134217026Y-115246958D01*
X134367814Y-115201222D01*
X134632944Y-115074684D01*
X134868293Y-114898854D01*
X135064817Y-114680488D01*
X135123441Y-114581897D01*
X135233961Y-114747302D01*
X135442698Y-114956039D01*
X135688147Y-115120042D01*
X135960875Y-115233010D01*
X136250401Y-115290600D01*
X136545599Y-115290600D01*
X136835125Y-115233010D01*
X137107853Y-115120042D01*
X137353302Y-114956039D01*
X137562039Y-114747302D01*
X137668000Y-114588719D01*
X137773961Y-114747302D01*
X137982698Y-114956039D01*
X138228147Y-115120042D01*
X138500875Y-115233010D01*
X138790401Y-115290600D01*
X139085599Y-115290600D01*
X139375125Y-115233010D01*
X139647853Y-115120042D01*
X139893302Y-114956039D01*
X140102039Y-114747302D01*
X140208000Y-114588719D01*
X140313961Y-114747302D01*
X140522698Y-114956039D01*
X140768147Y-115120042D01*
X141040875Y-115233010D01*
X141330401Y-115290600D01*
X141625599Y-115290600D01*
X141915125Y-115233010D01*
X142187853Y-115120042D01*
X142433302Y-114956039D01*
X142642039Y-114747302D01*
X142748000Y-114588719D01*
X142853961Y-114747302D01*
X143062698Y-114956039D01*
X143308147Y-115120042D01*
X143580875Y-115233010D01*
X143870401Y-115290600D01*
X144165599Y-115290600D01*
X144455125Y-115233010D01*
X144727853Y-115120042D01*
X144973302Y-114956039D01*
X145182039Y-114747302D01*
X145346042Y-114501853D01*
X145459010Y-114229125D01*
X145516600Y-113939599D01*
X145516600Y-113644401D01*
X145459010Y-113354875D01*
X145346042Y-113082147D01*
X145182039Y-112836698D01*
X144973302Y-112627961D01*
X144814719Y-112522000D01*
X144973302Y-112416039D01*
X145182039Y-112207302D01*
X145312535Y-112012000D01*
X145735199Y-112012000D01*
X150288198Y-116565000D01*
X94554447Y-116565000D01*
X94325760Y-116336314D01*
X94598075Y-116449110D01*
X95029872Y-116535000D01*
X95470128Y-116535000D01*
X95901925Y-116449110D01*
X96308669Y-116280631D01*
X96674729Y-116036038D01*
X96986038Y-115724729D01*
X97230631Y-115358669D01*
X97399110Y-114951925D01*
X97485000Y-114520128D01*
X97485000Y-114079872D01*
X97401880Y-113662000D01*
X109038928Y-113662000D01*
X109051188Y-113786482D01*
X109087498Y-113906180D01*
X109146463Y-114016494D01*
X109225815Y-114113185D01*
X109322506Y-114192537D01*
X109432820Y-114251502D01*
X109552518Y-114287812D01*
X109677000Y-114300072D01*
X110241250Y-114297000D01*
X110400000Y-114138250D01*
X110400000Y-112939000D01*
X109200750Y-112939000D01*
X109042000Y-113097750D01*
X109038928Y-113662000D01*
X97401880Y-113662000D01*
X97399110Y-113648075D01*
X97230631Y-113241331D01*
X96986038Y-112875271D01*
X96674729Y-112563962D01*
X96308669Y-112319369D01*
X95901925Y-112150890D01*
X95470128Y-112065000D01*
X95029872Y-112065000D01*
X94598075Y-112150890D01*
X94191331Y-112319369D01*
X93825271Y-112563962D01*
X93513962Y-112875271D01*
X93269369Y-113241331D01*
X93100890Y-113648075D01*
X93015000Y-114079872D01*
X93015000Y-114520128D01*
X93100890Y-114951925D01*
X93213687Y-115224240D01*
X90985000Y-112995554D01*
X90985000Y-111962000D01*
X109038928Y-111962000D01*
X109042000Y-112526250D01*
X109200750Y-112685000D01*
X110400000Y-112685000D01*
X110400000Y-111485750D01*
X110241250Y-111327000D01*
X109677000Y-111323928D01*
X109552518Y-111336188D01*
X109432820Y-111372498D01*
X109322506Y-111431463D01*
X109225815Y-111510815D01*
X109146463Y-111607506D01*
X109087498Y-111717820D01*
X109051188Y-111837518D01*
X109038928Y-111962000D01*
X90985000Y-111962000D01*
X90985000Y-85456665D01*
X138265000Y-85456665D01*
X138265000Y-85739335D01*
X138320147Y-86016574D01*
X138428320Y-86277727D01*
X138585363Y-86512759D01*
X138785241Y-86712637D01*
X139020273Y-86869680D01*
X139281426Y-86977853D01*
X139558665Y-87033000D01*
X139841335Y-87033000D01*
X140118574Y-86977853D01*
X140379727Y-86869680D01*
X140614759Y-86712637D01*
X140814637Y-86512759D01*
X140971680Y-86277727D01*
X141079853Y-86016574D01*
X141135000Y-85739335D01*
X141135000Y-85456665D01*
X141079853Y-85179426D01*
X140971680Y-84918273D01*
X140814637Y-84683241D01*
X140614759Y-84483363D01*
X140379727Y-84326320D01*
X140118574Y-84218147D01*
X139841335Y-84163000D01*
X139558665Y-84163000D01*
X139281426Y-84218147D01*
X139020273Y-84326320D01*
X138785241Y-84483363D01*
X138585363Y-84683241D01*
X138428320Y-84918273D01*
X138320147Y-85179426D01*
X138265000Y-85456665D01*
X90985000Y-85456665D01*
X90985000Y-82512000D01*
X125053928Y-82512000D01*
X125053928Y-84112000D01*
X125066188Y-84236482D01*
X125102498Y-84356180D01*
X125161463Y-84466494D01*
X125240815Y-84563185D01*
X125337506Y-84642537D01*
X125447820Y-84701502D01*
X125567518Y-84737812D01*
X125692000Y-84750072D01*
X127292000Y-84750072D01*
X127416482Y-84737812D01*
X127536180Y-84701502D01*
X127646494Y-84642537D01*
X127743185Y-84563185D01*
X127822537Y-84466494D01*
X127881502Y-84356180D01*
X127917812Y-84236482D01*
X127930072Y-84112000D01*
X127930072Y-83170665D01*
X132677000Y-83170665D01*
X132677000Y-83453335D01*
X132732147Y-83730574D01*
X132840320Y-83991727D01*
X132997363Y-84226759D01*
X133197241Y-84426637D01*
X133432273Y-84583680D01*
X133693426Y-84691853D01*
X133970665Y-84747000D01*
X134253335Y-84747000D01*
X134530574Y-84691853D01*
X134791727Y-84583680D01*
X135026759Y-84426637D01*
X135226637Y-84226759D01*
X135383680Y-83991727D01*
X135491853Y-83730574D01*
X135547000Y-83453335D01*
X135547000Y-83170665D01*
X135491853Y-82893426D01*
X135383680Y-82632273D01*
X135226637Y-82397241D01*
X135026759Y-82197363D01*
X134791727Y-82040320D01*
X134530574Y-81932147D01*
X134253335Y-81877000D01*
X133970665Y-81877000D01*
X133693426Y-81932147D01*
X133432273Y-82040320D01*
X133197241Y-82197363D01*
X132997363Y-82397241D01*
X132840320Y-82632273D01*
X132732147Y-82893426D01*
X132677000Y-83170665D01*
X127930072Y-83170665D01*
X127930072Y-82512000D01*
X127917812Y-82387518D01*
X127881502Y-82267820D01*
X127822537Y-82157506D01*
X127743185Y-82060815D01*
X127646494Y-81981463D01*
X127536180Y-81922498D01*
X127416482Y-81886188D01*
X127292000Y-81873928D01*
X125692000Y-81873928D01*
X125567518Y-81886188D01*
X125447820Y-81922498D01*
X125337506Y-81981463D01*
X125240815Y-82060815D01*
X125161463Y-82157506D01*
X125102498Y-82267820D01*
X125066188Y-82387518D01*
X125053928Y-82512000D01*
X90985000Y-82512000D01*
X90985000Y-79604446D01*
X93213687Y-77375760D01*
X93100890Y-77648075D01*
X93015000Y-78079872D01*
X93015000Y-78520128D01*
X93100890Y-78951925D01*
X93269369Y-79358669D01*
X93513962Y-79724729D01*
X93825271Y-80036038D01*
X94191331Y-80280631D01*
X94598075Y-80449110D01*
X95029872Y-80535000D01*
X95470128Y-80535000D01*
X95901925Y-80449110D01*
X96308669Y-80280631D01*
X96674729Y-80036038D01*
X96986038Y-79724729D01*
X97230631Y-79358669D01*
X97399110Y-78951925D01*
X97485000Y-78520128D01*
X97485000Y-78079872D01*
X97399110Y-77648075D01*
X97230631Y-77241331D01*
X96986038Y-76875271D01*
X96674729Y-76563962D01*
X96308669Y-76319369D01*
X95901925Y-76150890D01*
X95470128Y-76065000D01*
X95029872Y-76065000D01*
X94598075Y-76150890D01*
X94325760Y-76263686D01*
X94554447Y-76035000D01*
X110222554Y-76035000D01*
X113481746Y-79294193D01*
G36*
X160530000Y-108201302D02*
G01*
X160530001Y-109957465D01*
X160334698Y-110087961D01*
X160125961Y-110296698D01*
X160020000Y-110455281D01*
X159914039Y-110296698D01*
X159705302Y-110087961D01*
X159459853Y-109923958D01*
X159187125Y-109810990D01*
X158897599Y-109753400D01*
X158602401Y-109753400D01*
X158312875Y-109810990D01*
X158040147Y-109923958D01*
X157794698Y-110087961D01*
X157680636Y-110202023D01*
X157663102Y-110144220D01*
X157604137Y-110033906D01*
X157524785Y-109937215D01*
X157428094Y-109857863D01*
X157317780Y-109798898D01*
X157198082Y-109762588D01*
X157073600Y-109750328D01*
X155346400Y-109750328D01*
X155221918Y-109762588D01*
X155102220Y-109798898D01*
X154991906Y-109857863D01*
X154895215Y-109937215D01*
X154815863Y-110033906D01*
X154756898Y-110144220D01*
X154720588Y-110263918D01*
X154708328Y-110388400D01*
X154708328Y-112115600D01*
X154720588Y-112240082D01*
X154756898Y-112359780D01*
X154815863Y-112470094D01*
X154895215Y-112566785D01*
X154991906Y-112646137D01*
X155102220Y-112705102D01*
X155164692Y-112724053D01*
X155003183Y-112903512D01*
X154853036Y-113156022D01*
X154755037Y-113432973D01*
X154875536Y-113665000D01*
X156083000Y-113665000D01*
X156083000Y-113645000D01*
X156337000Y-113645000D01*
X156337000Y-113665000D01*
X156357000Y-113665000D01*
X156357000Y-113919000D01*
X156337000Y-113919000D01*
X156337000Y-113939000D01*
X156083000Y-113939000D01*
X156083000Y-113919000D01*
X154875536Y-113919000D01*
X154755037Y-114151027D01*
X154853036Y-114427978D01*
X155003183Y-114680488D01*
X155119741Y-114810000D01*
X152206802Y-114810000D01*
X130473467Y-93076665D01*
X138265000Y-93076665D01*
X138265000Y-93359335D01*
X138320147Y-93636574D01*
X138428320Y-93897727D01*
X138585363Y-94132759D01*
X138785241Y-94332637D01*
X139020273Y-94489680D01*
X139281426Y-94597853D01*
X139558665Y-94653000D01*
X139841335Y-94653000D01*
X140118574Y-94597853D01*
X140379727Y-94489680D01*
X140614759Y-94332637D01*
X140814637Y-94132759D01*
X140971680Y-93897727D01*
X141079853Y-93636574D01*
X141135000Y-93359335D01*
X141135000Y-93076665D01*
X141079853Y-92799426D01*
X140971680Y-92538273D01*
X140814637Y-92303241D01*
X140614759Y-92103363D01*
X140379727Y-91946320D01*
X140118574Y-91838147D01*
X139841335Y-91783000D01*
X139558665Y-91783000D01*
X139281426Y-91838147D01*
X139020273Y-91946320D01*
X138785241Y-92103363D01*
X138585363Y-92303241D01*
X138428320Y-92538273D01*
X138320147Y-92799426D01*
X138265000Y-93076665D01*
X130473467Y-93076665D01*
X129717804Y-92321003D01*
X129694001Y-92291999D01*
X129578276Y-92197026D01*
X129446247Y-92126454D01*
X129302986Y-92082997D01*
X129191333Y-92072000D01*
X129191322Y-92072000D01*
X129154000Y-92068324D01*
X129116678Y-92072000D01*
X127045178Y-92072000D01*
X126920475Y-91885368D01*
X126713632Y-91678525D01*
X126470411Y-91516010D01*
X126200158Y-91404068D01*
X125913260Y-91347000D01*
X125620740Y-91347000D01*
X125333842Y-91404068D01*
X125063589Y-91516010D01*
X124820368Y-91678525D01*
X124613525Y-91885368D01*
X124497000Y-92059760D01*
X124380475Y-91885368D01*
X124173632Y-91678525D01*
X123930411Y-91516010D01*
X123660158Y-91404068D01*
X123373260Y-91347000D01*
X123080740Y-91347000D01*
X122793842Y-91404068D01*
X122523589Y-91516010D01*
X122280368Y-91678525D01*
X122073525Y-91885368D01*
X121957000Y-92059760D01*
X121840475Y-91885368D01*
X121633632Y-91678525D01*
X121390411Y-91516010D01*
X121120158Y-91404068D01*
X120833260Y-91347000D01*
X120540740Y-91347000D01*
X120253842Y-91404068D01*
X119983589Y-91516010D01*
X119740368Y-91678525D01*
X119533525Y-91885368D01*
X119417000Y-92059760D01*
X119300475Y-91885368D01*
X119133414Y-91718307D01*
X120620222Y-90231500D01*
X142560199Y-90231500D01*
X160530000Y-108201302D01*
G37*
X160530000Y-108201302D02*
X160530001Y-109957465D01*
X160334698Y-110087961D01*
X160125961Y-110296698D01*
X160020000Y-110455281D01*
X159914039Y-110296698D01*
X159705302Y-110087961D01*
X159459853Y-109923958D01*
X159187125Y-109810990D01*
X158897599Y-109753400D01*
X158602401Y-109753400D01*
X158312875Y-109810990D01*
X158040147Y-109923958D01*
X157794698Y-110087961D01*
X157680636Y-110202023D01*
X157663102Y-110144220D01*
X157604137Y-110033906D01*
X157524785Y-109937215D01*
X157428094Y-109857863D01*
X157317780Y-109798898D01*
X157198082Y-109762588D01*
X157073600Y-109750328D01*
X155346400Y-109750328D01*
X155221918Y-109762588D01*
X155102220Y-109798898D01*
X154991906Y-109857863D01*
X154895215Y-109937215D01*
X154815863Y-110033906D01*
X154756898Y-110144220D01*
X154720588Y-110263918D01*
X154708328Y-110388400D01*
X154708328Y-112115600D01*
X154720588Y-112240082D01*
X154756898Y-112359780D01*
X154815863Y-112470094D01*
X154895215Y-112566785D01*
X154991906Y-112646137D01*
X155102220Y-112705102D01*
X155164692Y-112724053D01*
X155003183Y-112903512D01*
X154853036Y-113156022D01*
X154755037Y-113432973D01*
X154875536Y-113665000D01*
X156083000Y-113665000D01*
X156083000Y-113645000D01*
X156337000Y-113645000D01*
X156337000Y-113665000D01*
X156357000Y-113665000D01*
X156357000Y-113919000D01*
X156337000Y-113919000D01*
X156337000Y-113939000D01*
X156083000Y-113939000D01*
X156083000Y-113919000D01*
X154875536Y-113919000D01*
X154755037Y-114151027D01*
X154853036Y-114427978D01*
X155003183Y-114680488D01*
X155119741Y-114810000D01*
X152206802Y-114810000D01*
X130473467Y-93076665D01*
X138265000Y-93076665D01*
X138265000Y-93359335D01*
X138320147Y-93636574D01*
X138428320Y-93897727D01*
X138585363Y-94132759D01*
X138785241Y-94332637D01*
X139020273Y-94489680D01*
X139281426Y-94597853D01*
X139558665Y-94653000D01*
X139841335Y-94653000D01*
X140118574Y-94597853D01*
X140379727Y-94489680D01*
X140614759Y-94332637D01*
X140814637Y-94132759D01*
X140971680Y-93897727D01*
X141079853Y-93636574D01*
X141135000Y-93359335D01*
X141135000Y-93076665D01*
X141079853Y-92799426D01*
X140971680Y-92538273D01*
X140814637Y-92303241D01*
X140614759Y-92103363D01*
X140379727Y-91946320D01*
X140118574Y-91838147D01*
X139841335Y-91783000D01*
X139558665Y-91783000D01*
X139281426Y-91838147D01*
X139020273Y-91946320D01*
X138785241Y-92103363D01*
X138585363Y-92303241D01*
X138428320Y-92538273D01*
X138320147Y-92799426D01*
X138265000Y-93076665D01*
X130473467Y-93076665D01*
X129717804Y-92321003D01*
X129694001Y-92291999D01*
X129578276Y-92197026D01*
X129446247Y-92126454D01*
X129302986Y-92082997D01*
X129191333Y-92072000D01*
X129191322Y-92072000D01*
X129154000Y-92068324D01*
X129116678Y-92072000D01*
X127045178Y-92072000D01*
X126920475Y-91885368D01*
X126713632Y-91678525D01*
X126470411Y-91516010D01*
X126200158Y-91404068D01*
X125913260Y-91347000D01*
X125620740Y-91347000D01*
X125333842Y-91404068D01*
X125063589Y-91516010D01*
X124820368Y-91678525D01*
X124613525Y-91885368D01*
X124497000Y-92059760D01*
X124380475Y-91885368D01*
X124173632Y-91678525D01*
X123930411Y-91516010D01*
X123660158Y-91404068D01*
X123373260Y-91347000D01*
X123080740Y-91347000D01*
X122793842Y-91404068D01*
X122523589Y-91516010D01*
X122280368Y-91678525D01*
X122073525Y-91885368D01*
X121957000Y-92059760D01*
X121840475Y-91885368D01*
X121633632Y-91678525D01*
X121390411Y-91516010D01*
X121120158Y-91404068D01*
X120833260Y-91347000D01*
X120540740Y-91347000D01*
X120253842Y-91404068D01*
X119983589Y-91516010D01*
X119740368Y-91678525D01*
X119533525Y-91885368D01*
X119417000Y-92059760D01*
X119300475Y-91885368D01*
X119133414Y-91718307D01*
X120620222Y-90231500D01*
X142560199Y-90231500D01*
X160530000Y-108201302D01*
G36*
X145739198Y-110492000D02*
G01*
X145312535Y-110492000D01*
X145182039Y-110296698D01*
X144973302Y-110087961D01*
X144727853Y-109923958D01*
X144455125Y-109810990D01*
X144165599Y-109753400D01*
X143870401Y-109753400D01*
X143580875Y-109810990D01*
X143308147Y-109923958D01*
X143062698Y-110087961D01*
X142853961Y-110296698D01*
X142748000Y-110455281D01*
X142642039Y-110296698D01*
X142433302Y-110087961D01*
X142238000Y-109957465D01*
X142238000Y-109257323D01*
X142241676Y-109220000D01*
X142238000Y-109182677D01*
X142238000Y-109182667D01*
X142227003Y-109071014D01*
X142183546Y-108927753D01*
X142173814Y-108909546D01*
X142112974Y-108795723D01*
X142041799Y-108708997D01*
X142018001Y-108679999D01*
X141989003Y-108656201D01*
X140009804Y-106677003D01*
X139986001Y-106647999D01*
X139870276Y-106553026D01*
X139738247Y-106482454D01*
X139594986Y-106438997D01*
X139483333Y-106428000D01*
X139483322Y-106428000D01*
X139446000Y-106424324D01*
X139408678Y-106428000D01*
X102930802Y-106428000D01*
X101344000Y-104841199D01*
X101344000Y-104170000D01*
X101861928Y-104170000D01*
X101874188Y-104294482D01*
X101910498Y-104414180D01*
X101969463Y-104524494D01*
X102048815Y-104621185D01*
X102145506Y-104700537D01*
X102255820Y-104759502D01*
X102375518Y-104795812D01*
X102500000Y-104808072D01*
X103064250Y-104805000D01*
X103223000Y-104646250D01*
X103223000Y-103447000D01*
X103477000Y-103447000D01*
X103477000Y-104646250D01*
X103635750Y-104805000D01*
X104200000Y-104808072D01*
X104324482Y-104795812D01*
X104444180Y-104759502D01*
X104554494Y-104700537D01*
X104651185Y-104621185D01*
X104730537Y-104524494D01*
X104789502Y-104414180D01*
X104825812Y-104294482D01*
X104838072Y-104170000D01*
X104835000Y-103605750D01*
X104676250Y-103447000D01*
X103477000Y-103447000D01*
X103223000Y-103447000D01*
X102023750Y-103447000D01*
X101865000Y-103605750D01*
X101861928Y-104170000D01*
X101344000Y-104170000D01*
X101344000Y-94548801D01*
X101972802Y-93920000D01*
X102071822Y-93920000D01*
X102196525Y-94106632D01*
X102403368Y-94313475D01*
X102577760Y-94430000D01*
X102403368Y-94546525D01*
X102196525Y-94753368D01*
X102034010Y-94996589D01*
X101922068Y-95266842D01*
X101865000Y-95553740D01*
X101865000Y-95846260D01*
X101922068Y-96133158D01*
X102034010Y-96403411D01*
X102196525Y-96646632D01*
X102403368Y-96853475D01*
X102577760Y-96970000D01*
X102403368Y-97086525D01*
X102196525Y-97293368D01*
X102034010Y-97536589D01*
X101922068Y-97806842D01*
X101865000Y-98093740D01*
X101865000Y-98386260D01*
X101922068Y-98673158D01*
X102034010Y-98943411D01*
X102196525Y-99186632D01*
X102403368Y-99393475D01*
X102577760Y-99510000D01*
X102403368Y-99626525D01*
X102196525Y-99833368D01*
X102034010Y-100076589D01*
X101922068Y-100346842D01*
X101865000Y-100633740D01*
X101865000Y-100926260D01*
X101922068Y-101213158D01*
X102034010Y-101483411D01*
X102196525Y-101726632D01*
X102328380Y-101858487D01*
X102255820Y-101880498D01*
X102145506Y-101939463D01*
X102048815Y-102018815D01*
X101969463Y-102115506D01*
X101910498Y-102225820D01*
X101874188Y-102345518D01*
X101861928Y-102470000D01*
X101865000Y-103034250D01*
X102023750Y-103193000D01*
X103223000Y-103193000D01*
X103223000Y-103173000D01*
X103477000Y-103173000D01*
X103477000Y-103193000D01*
X104676250Y-103193000D01*
X104835000Y-103034250D01*
X104838072Y-102470000D01*
X104825812Y-102345518D01*
X104789502Y-102225820D01*
X104730537Y-102115506D01*
X104651185Y-102018815D01*
X104554494Y-101939463D01*
X104444180Y-101880498D01*
X104371620Y-101858487D01*
X104503475Y-101726632D01*
X104665990Y-101483411D01*
X104777932Y-101213158D01*
X104835000Y-100926260D01*
X104835000Y-100633740D01*
X104777932Y-100346842D01*
X104665990Y-100076589D01*
X104503475Y-99833368D01*
X104296632Y-99626525D01*
X104122240Y-99510000D01*
X104296632Y-99393475D01*
X104503475Y-99186632D01*
X104628178Y-99000000D01*
X117114678Y-99000000D01*
X117152000Y-99003676D01*
X117189322Y-99000000D01*
X117189333Y-99000000D01*
X117300986Y-98989003D01*
X117444247Y-98945546D01*
X117576276Y-98874974D01*
X117692001Y-98780001D01*
X117715804Y-98750997D01*
X121198004Y-95268798D01*
X121227001Y-95245001D01*
X121253332Y-95212917D01*
X121321974Y-95129277D01*
X121392546Y-94997247D01*
X121411026Y-94936324D01*
X121436003Y-94853986D01*
X121447000Y-94742333D01*
X121447000Y-94742323D01*
X121450676Y-94705000D01*
X121447000Y-94667677D01*
X121447000Y-94110178D01*
X121633632Y-93985475D01*
X121840475Y-93778632D01*
X121957000Y-93604240D01*
X122073525Y-93778632D01*
X122280368Y-93985475D01*
X122523589Y-94147990D01*
X122793842Y-94259932D01*
X123080740Y-94317000D01*
X123373260Y-94317000D01*
X123660158Y-94259932D01*
X123930411Y-94147990D01*
X124173632Y-93985475D01*
X124380475Y-93778632D01*
X124497000Y-93604240D01*
X124613525Y-93778632D01*
X124820368Y-93985475D01*
X125063589Y-94147990D01*
X125333842Y-94259932D01*
X125620740Y-94317000D01*
X125913260Y-94317000D01*
X126200158Y-94259932D01*
X126470411Y-94147990D01*
X126713632Y-93985475D01*
X126920475Y-93778632D01*
X127045178Y-93592000D01*
X128839199Y-93592000D01*
X145739198Y-110492000D01*
G37*
X145739198Y-110492000D02*
X145312535Y-110492000D01*
X145182039Y-110296698D01*
X144973302Y-110087961D01*
X144727853Y-109923958D01*
X144455125Y-109810990D01*
X144165599Y-109753400D01*
X143870401Y-109753400D01*
X143580875Y-109810990D01*
X143308147Y-109923958D01*
X143062698Y-110087961D01*
X142853961Y-110296698D01*
X142748000Y-110455281D01*
X142642039Y-110296698D01*
X142433302Y-110087961D01*
X142238000Y-109957465D01*
X142238000Y-109257323D01*
X142241676Y-109220000D01*
X142238000Y-109182677D01*
X142238000Y-109182667D01*
X142227003Y-109071014D01*
X142183546Y-108927753D01*
X142173814Y-108909546D01*
X142112974Y-108795723D01*
X142041799Y-108708997D01*
X142018001Y-108679999D01*
X141989003Y-108656201D01*
X140009804Y-106677003D01*
X139986001Y-106647999D01*
X139870276Y-106553026D01*
X139738247Y-106482454D01*
X139594986Y-106438997D01*
X139483333Y-106428000D01*
X139483322Y-106428000D01*
X139446000Y-106424324D01*
X139408678Y-106428000D01*
X102930802Y-106428000D01*
X101344000Y-104841199D01*
X101344000Y-104170000D01*
X101861928Y-104170000D01*
X101874188Y-104294482D01*
X101910498Y-104414180D01*
X101969463Y-104524494D01*
X102048815Y-104621185D01*
X102145506Y-104700537D01*
X102255820Y-104759502D01*
X102375518Y-104795812D01*
X102500000Y-104808072D01*
X103064250Y-104805000D01*
X103223000Y-104646250D01*
X103223000Y-103447000D01*
X103477000Y-103447000D01*
X103477000Y-104646250D01*
X103635750Y-104805000D01*
X104200000Y-104808072D01*
X104324482Y-104795812D01*
X104444180Y-104759502D01*
X104554494Y-104700537D01*
X104651185Y-104621185D01*
X104730537Y-104524494D01*
X104789502Y-104414180D01*
X104825812Y-104294482D01*
X104838072Y-104170000D01*
X104835000Y-103605750D01*
X104676250Y-103447000D01*
X103477000Y-103447000D01*
X103223000Y-103447000D01*
X102023750Y-103447000D01*
X101865000Y-103605750D01*
X101861928Y-104170000D01*
X101344000Y-104170000D01*
X101344000Y-94548801D01*
X101972802Y-93920000D01*
X102071822Y-93920000D01*
X102196525Y-94106632D01*
X102403368Y-94313475D01*
X102577760Y-94430000D01*
X102403368Y-94546525D01*
X102196525Y-94753368D01*
X102034010Y-94996589D01*
X101922068Y-95266842D01*
X101865000Y-95553740D01*
X101865000Y-95846260D01*
X101922068Y-96133158D01*
X102034010Y-96403411D01*
X102196525Y-96646632D01*
X102403368Y-96853475D01*
X102577760Y-96970000D01*
X102403368Y-97086525D01*
X102196525Y-97293368D01*
X102034010Y-97536589D01*
X101922068Y-97806842D01*
X101865000Y-98093740D01*
X101865000Y-98386260D01*
X101922068Y-98673158D01*
X102034010Y-98943411D01*
X102196525Y-99186632D01*
X102403368Y-99393475D01*
X102577760Y-99510000D01*
X102403368Y-99626525D01*
X102196525Y-99833368D01*
X102034010Y-100076589D01*
X101922068Y-100346842D01*
X101865000Y-100633740D01*
X101865000Y-100926260D01*
X101922068Y-101213158D01*
X102034010Y-101483411D01*
X102196525Y-101726632D01*
X102328380Y-101858487D01*
X102255820Y-101880498D01*
X102145506Y-101939463D01*
X102048815Y-102018815D01*
X101969463Y-102115506D01*
X101910498Y-102225820D01*
X101874188Y-102345518D01*
X101861928Y-102470000D01*
X101865000Y-103034250D01*
X102023750Y-103193000D01*
X103223000Y-103193000D01*
X103223000Y-103173000D01*
X103477000Y-103173000D01*
X103477000Y-103193000D01*
X104676250Y-103193000D01*
X104835000Y-103034250D01*
X104838072Y-102470000D01*
X104825812Y-102345518D01*
X104789502Y-102225820D01*
X104730537Y-102115506D01*
X104651185Y-102018815D01*
X104554494Y-101939463D01*
X104444180Y-101880498D01*
X104371620Y-101858487D01*
X104503475Y-101726632D01*
X104665990Y-101483411D01*
X104777932Y-101213158D01*
X104835000Y-100926260D01*
X104835000Y-100633740D01*
X104777932Y-100346842D01*
X104665990Y-100076589D01*
X104503475Y-99833368D01*
X104296632Y-99626525D01*
X104122240Y-99510000D01*
X104296632Y-99393475D01*
X104503475Y-99186632D01*
X104628178Y-99000000D01*
X117114678Y-99000000D01*
X117152000Y-99003676D01*
X117189322Y-99000000D01*
X117189333Y-99000000D01*
X117300986Y-98989003D01*
X117444247Y-98945546D01*
X117576276Y-98874974D01*
X117692001Y-98780001D01*
X117715804Y-98750997D01*
X121198004Y-95268798D01*
X121227001Y-95245001D01*
X121253332Y-95212917D01*
X121321974Y-95129277D01*
X121392546Y-94997247D01*
X121411026Y-94936324D01*
X121436003Y-94853986D01*
X121447000Y-94742333D01*
X121447000Y-94742323D01*
X121450676Y-94705000D01*
X121447000Y-94667677D01*
X121447000Y-94110178D01*
X121633632Y-93985475D01*
X121840475Y-93778632D01*
X121957000Y-93604240D01*
X122073525Y-93778632D01*
X122280368Y-93985475D01*
X122523589Y-94147990D01*
X122793842Y-94259932D01*
X123080740Y-94317000D01*
X123373260Y-94317000D01*
X123660158Y-94259932D01*
X123930411Y-94147990D01*
X124173632Y-93985475D01*
X124380475Y-93778632D01*
X124497000Y-93604240D01*
X124613525Y-93778632D01*
X124820368Y-93985475D01*
X125063589Y-94147990D01*
X125333842Y-94259932D01*
X125620740Y-94317000D01*
X125913260Y-94317000D01*
X126200158Y-94259932D01*
X126470411Y-94147990D01*
X126713632Y-93985475D01*
X126920475Y-93778632D01*
X127045178Y-93592000D01*
X128839199Y-93592000D01*
X145739198Y-110492000D01*
M02*
