M48
;DRILL file {KiCad 5.0.2-bee76a0~70~ubuntu18.04.1} date Tue 15 Jan 2019 06:48:09 PM PST
;FORMAT={-:-/ absolute / metric / decimal}
FMAT,2
METRIC,TZ
T1C0.750
T2C0.800
T3C1.000
T4C1.016
T5C3.200
%
G90
G05
T1
X78.74Y21.844
X78.74Y20.574
X78.74Y19.304
T2
X49.784Y32.004
X49.784Y24.384
X78.74Y32.512
X78.74Y24.892
X36.576Y34.29
X44.196Y34.29
T3
X69.85Y33.02
X69.85Y25.42
X20.611Y24.77
X23.151Y24.77
X25.691Y24.77
X28.231Y24.77
X30.771Y24.77
X33.311Y24.77
X35.851Y24.77
X101.429Y8.893
X103.969Y8.893
X106.509Y8.893
X109.049Y8.893
X111.589Y8.893
X13.434Y29.522
X13.434Y26.982
X13.434Y24.442
X13.434Y21.902
X13.434Y19.362
X13.434Y16.822
X13.434Y14.282
T4
X66.294Y6.35
X66.294Y3.81
X68.834Y6.35
X68.834Y3.81
X71.374Y6.35
X71.374Y3.81
X73.914Y6.35
X73.914Y3.81
X76.454Y6.35
X76.454Y3.81
X43.942Y6.35
X43.942Y3.81
X46.482Y6.35
X46.482Y3.81
X49.022Y6.35
X49.022Y3.81
X51.562Y6.35
X51.562Y3.81
X54.102Y6.35
X54.102Y3.81
T5
X5.334Y39.302
X5.334Y3.302
X88.534Y3.302
X124.534Y3.302
X88.534Y39.302
X124.534Y39.302
T0
M30
