G04 #@! TF.GenerationSoftware,KiCad,Pcbnew,5.1.5-52549c5~84~ubuntu18.04.1*
G04 #@! TF.CreationDate,2020-02-18T21:49:32-08:00*
G04 #@! TF.ProjectId,Marlin_UIBOX,4d61726c-696e-45f5-9549-424f582e6b69,rev?*
G04 #@! TF.SameCoordinates,Original*
G04 #@! TF.FileFunction,Copper,L2,Bot*
G04 #@! TF.FilePolarity,Positive*
%FSLAX46Y46*%
G04 Gerber Fmt 4.6, Leading zero omitted, Abs format (unit mm)*
G04 Created by KiCad (PCBNEW 5.1.5-52549c5~84~ubuntu18.04.1) date 2020-02-18 21:49:32*
%MOMM*%
%LPD*%
G04 APERTURE LIST*
%ADD10O,1.700000X1.700000*%
%ADD11R,1.700000X1.700000*%
%ADD12R,1.727200X1.727200*%
%ADD13O,1.727200X1.727200*%
%ADD14R,1.600000X1.600000*%
%ADD15O,1.600000X1.600000*%
%ADD16R,2.000000X2.000000*%
%ADD17C,2.000000*%
%ADD18O,1.500000X1.050000*%
%ADD19R,1.500000X1.050000*%
%ADD20C,1.600000*%
%ADD21C,0.250000*%
%ADD22C,0.400000*%
%ADD23C,0.254000*%
G04 APERTURE END LIST*
D10*
X125767000Y-112812000D03*
X123227000Y-112812000D03*
X120687000Y-112812000D03*
X118147000Y-112812000D03*
X115607000Y-112812000D03*
X113067000Y-112812000D03*
D11*
X110527000Y-112812000D03*
D12*
X133858000Y-111252000D03*
D13*
X133858000Y-113792000D03*
X136398000Y-111252000D03*
X136398000Y-113792000D03*
X138938000Y-111252000D03*
X138938000Y-113792000D03*
X141478000Y-111252000D03*
X141478000Y-113792000D03*
X144018000Y-111252000D03*
X144018000Y-113792000D03*
X166370000Y-113792000D03*
X166370000Y-111252000D03*
X163830000Y-113792000D03*
X163830000Y-111252000D03*
X161290000Y-113792000D03*
X161290000Y-111252000D03*
X158750000Y-113792000D03*
X158750000Y-111252000D03*
X156210000Y-113792000D03*
D12*
X156210000Y-111252000D03*
D11*
X110527000Y-92832000D03*
D10*
X113067000Y-92832000D03*
X115607000Y-92832000D03*
X118147000Y-92832000D03*
X120687000Y-92832000D03*
X123227000Y-92832000D03*
X125767000Y-92832000D03*
D14*
X126492000Y-83312000D03*
D15*
X134112000Y-83312000D03*
D11*
X103350000Y-103320000D03*
D10*
X103350000Y-100780000D03*
X103350000Y-98240000D03*
X103350000Y-95700000D03*
X103350000Y-93160000D03*
X103350000Y-90620000D03*
X103350000Y-88080000D03*
D11*
X191345000Y-108709000D03*
D10*
X193885000Y-108709000D03*
X196425000Y-108709000D03*
X198965000Y-108709000D03*
X201505000Y-108709000D03*
D16*
X159766000Y-84582000D03*
D17*
X159766000Y-92182000D03*
D18*
X168656000Y-97028000D03*
X168656000Y-95758000D03*
D19*
X168656000Y-98298000D03*
D15*
X139700000Y-85598000D03*
D20*
X139700000Y-93218000D03*
X168656000Y-85090000D03*
D15*
X168656000Y-92710000D03*
D21*
X134112000Y-83312000D02*
X148590000Y-83312000D01*
X148590000Y-83312000D02*
X157460000Y-92182000D01*
X157460000Y-92182000D02*
X161798000Y-92182000D01*
X161798000Y-92182000D02*
X162052000Y-92182000D01*
X163342000Y-92182000D02*
X161798000Y-92182000D01*
X168656000Y-85090000D02*
X168656000Y-86868000D01*
X168656000Y-86868000D02*
X163342000Y-92182000D01*
D22*
X113067000Y-90895000D02*
X113067000Y-92832000D01*
X126492000Y-83312000D02*
X120650000Y-83312000D01*
X120650000Y-83312000D02*
X113067000Y-90895000D01*
X103350000Y-100780000D02*
X107257000Y-100780000D01*
X103350000Y-100780000D02*
X111575000Y-100780000D01*
X113067000Y-102272000D02*
X111575000Y-100780000D01*
X113067000Y-102325000D02*
X113067000Y-102272000D01*
X113067000Y-102325000D02*
X113067000Y-112812000D01*
X113067000Y-92832000D02*
X113067000Y-102325000D01*
X126492000Y-81788000D02*
X126492000Y-83312000D01*
X127508000Y-80772000D02*
X126492000Y-81788000D01*
X149606000Y-80772000D02*
X127508000Y-80772000D01*
X159766000Y-84582000D02*
X153416000Y-84582000D01*
X153416000Y-84582000D02*
X149606000Y-80772000D01*
X103350000Y-103320000D02*
X103350000Y-108176000D01*
X103350000Y-108176000D02*
X105918000Y-110744000D01*
X107986000Y-112812000D02*
X105918000Y-110744000D01*
X110527000Y-112812000D02*
X107986000Y-112812000D01*
X110527000Y-114062000D02*
X110527000Y-112812000D01*
X111463500Y-114998500D02*
X110527000Y-114062000D01*
X128587500Y-114998500D02*
X111463500Y-114998500D01*
X129794000Y-113792000D02*
X128587500Y-114998500D01*
X133858000Y-113792000D02*
X129794000Y-113792000D01*
D21*
X101658000Y-90620000D02*
X103350000Y-90620000D01*
X136398000Y-115316000D02*
X135890000Y-115824000D01*
X99060000Y-105918000D02*
X99060000Y-93218000D01*
X135890000Y-115824000D02*
X108966000Y-115824000D01*
X99060000Y-93218000D02*
X101658000Y-90620000D01*
X136398000Y-113792000D02*
X136398000Y-115316000D01*
X108966000Y-115824000D02*
X99060000Y-105918000D01*
X142748000Y-93218000D02*
X139700000Y-93218000D01*
X145796000Y-96266000D02*
X142748000Y-93218000D01*
X145796000Y-113235314D02*
X145796000Y-96266000D01*
X145239314Y-113792000D02*
X145796000Y-113235314D01*
X144018000Y-113792000D02*
X145239314Y-113792000D01*
X115607000Y-90895000D02*
X115607000Y-92832000D01*
X167894000Y-113792000D02*
X168656000Y-113030000D01*
X168656000Y-113030000D02*
X168656000Y-108458000D01*
X166370000Y-113792000D02*
X167894000Y-113792000D01*
X168656000Y-108458000D02*
X147828000Y-87630000D01*
X118872000Y-87630000D02*
X115607000Y-90895000D01*
X147828000Y-87630000D02*
X118872000Y-87630000D01*
X115607000Y-92832000D02*
X115607000Y-112812000D01*
X120687000Y-90895000D02*
X120687000Y-92832000D01*
X122682000Y-88900000D02*
X120687000Y-90895000D01*
X146558000Y-88900000D02*
X122682000Y-88900000D01*
X165354000Y-107696000D02*
X146558000Y-88900000D01*
X166370000Y-108712000D02*
X165354000Y-107696000D01*
X166370000Y-111252000D02*
X166370000Y-108712000D01*
X166339000Y-108681000D02*
X165354000Y-107696000D01*
X120687000Y-94034081D02*
X120687000Y-112812000D01*
X120687000Y-92832000D02*
X120687000Y-94034081D01*
X201505000Y-110407000D02*
X201505000Y-108709000D01*
X199898000Y-112014000D02*
X201505000Y-110407000D01*
X163830000Y-115316000D02*
X164084000Y-115570000D01*
X187960000Y-112014000D02*
X199898000Y-112014000D01*
X185674000Y-109728000D02*
X187960000Y-112014000D01*
X163830000Y-113792000D02*
X163830000Y-115316000D01*
X175006000Y-109728000D02*
X185674000Y-109728000D01*
X164084000Y-115570000D02*
X169164000Y-115570000D01*
X169164000Y-115570000D02*
X175006000Y-109728000D01*
X123952000Y-90170000D02*
X145288000Y-90170000D01*
X123227000Y-92832000D02*
X123227000Y-90895000D01*
X123227000Y-90895000D02*
X123952000Y-90170000D01*
X163068000Y-107950000D02*
X145288000Y-90170000D01*
X163830000Y-108712000D02*
X163068000Y-107950000D01*
X163830000Y-111252000D02*
X163830000Y-108712000D01*
X163799000Y-108681000D02*
X163068000Y-107950000D01*
X123227000Y-112812000D02*
X123227000Y-92832000D01*
X198965000Y-107359000D02*
X198965000Y-108709000D01*
X199644000Y-106680000D02*
X198965000Y-107359000D01*
X203200000Y-107442000D02*
X202438000Y-106680000D01*
X203200000Y-110998000D02*
X203200000Y-107442000D01*
X187452000Y-113284000D02*
X200914000Y-113284000D01*
X202438000Y-106680000D02*
X199644000Y-106680000D01*
X170180000Y-116586000D02*
X175768000Y-110998000D01*
X175768000Y-110998000D02*
X185166000Y-110998000D01*
X200914000Y-113284000D02*
X203200000Y-110998000D01*
X185166000Y-110998000D02*
X187452000Y-113284000D01*
X163576000Y-116586000D02*
X164338000Y-116586000D01*
X164338000Y-116586000D02*
X170180000Y-116586000D01*
X162560000Y-116586000D02*
X164338000Y-116586000D01*
X161290000Y-113792000D02*
X161290000Y-115316000D01*
X161290000Y-115316000D02*
X162560000Y-116586000D01*
X118147000Y-95033000D02*
X118147000Y-92832000D01*
X118147000Y-94034081D02*
X118147000Y-112812000D01*
X118147000Y-92832000D02*
X118147000Y-94034081D01*
X125767000Y-92832000D02*
X125767000Y-112812000D01*
X168656000Y-95758000D02*
X168656000Y-92710000D01*
X148336000Y-85598000D02*
X139700000Y-85598000D01*
X168656000Y-97028000D02*
X159766000Y-97028000D01*
X159766000Y-97028000D02*
X148336000Y-85598000D01*
D23*
G36*
X113481746Y-79294193D02*
G01*
X113504762Y-79322238D01*
X113616680Y-79414087D01*
X113744367Y-79482337D01*
X113882915Y-79524365D01*
X113990895Y-79535000D01*
X113990904Y-79535000D01*
X114026999Y-79538555D01*
X114063094Y-79535000D01*
X120990895Y-79535000D01*
X121027000Y-79538556D01*
X121063105Y-79535000D01*
X121171085Y-79524365D01*
X121309633Y-79482337D01*
X121437320Y-79414087D01*
X121549238Y-79322238D01*
X121572259Y-79294187D01*
X122786574Y-78079872D01*
X176215000Y-78079872D01*
X176215000Y-78520128D01*
X176300890Y-78951925D01*
X176469369Y-79358669D01*
X176713962Y-79724729D01*
X177025271Y-80036038D01*
X177391331Y-80280631D01*
X177798075Y-80449110D01*
X178229872Y-80535000D01*
X178670128Y-80535000D01*
X179101925Y-80449110D01*
X179508669Y-80280631D01*
X179874729Y-80036038D01*
X180186038Y-79724729D01*
X180430631Y-79358669D01*
X180599110Y-78951925D01*
X180685000Y-78520128D01*
X180685000Y-78079872D01*
X180599110Y-77648075D01*
X180430631Y-77241331D01*
X180186038Y-76875271D01*
X179874729Y-76563962D01*
X179508669Y-76319369D01*
X179101925Y-76150890D01*
X178670128Y-76065000D01*
X178229872Y-76065000D01*
X177798075Y-76150890D01*
X177391331Y-76319369D01*
X177025271Y-76563962D01*
X176713962Y-76875271D01*
X176469369Y-77241331D01*
X176300890Y-77648075D01*
X176215000Y-78079872D01*
X122786574Y-78079872D01*
X124831447Y-76035000D01*
X215145554Y-76035000D01*
X215374241Y-76263687D01*
X215101925Y-76150890D01*
X214670128Y-76065000D01*
X214229872Y-76065000D01*
X213798075Y-76150890D01*
X213391331Y-76319369D01*
X213025271Y-76563962D01*
X212713962Y-76875271D01*
X212469369Y-77241331D01*
X212300890Y-77648075D01*
X212215000Y-78079872D01*
X212215000Y-78520128D01*
X212300890Y-78951925D01*
X212469369Y-79358669D01*
X212713962Y-79724729D01*
X213025271Y-80036038D01*
X213391331Y-80280631D01*
X213798075Y-80449110D01*
X214229872Y-80535000D01*
X214670128Y-80535000D01*
X215101925Y-80449110D01*
X215508669Y-80280631D01*
X215874729Y-80036038D01*
X216186038Y-79724729D01*
X216430631Y-79358669D01*
X216599110Y-78951925D01*
X216685000Y-78520128D01*
X216685000Y-78079872D01*
X216599110Y-77648075D01*
X216486313Y-77375760D01*
X218715000Y-79604447D01*
X218715001Y-112995552D01*
X216486313Y-115224240D01*
X216599110Y-114951925D01*
X216685000Y-114520128D01*
X216685000Y-114079872D01*
X216599110Y-113648075D01*
X216430631Y-113241331D01*
X216186038Y-112875271D01*
X215874729Y-112563962D01*
X215508669Y-112319369D01*
X215101925Y-112150890D01*
X214670128Y-112065000D01*
X214229872Y-112065000D01*
X213798075Y-112150890D01*
X213391331Y-112319369D01*
X213025271Y-112563962D01*
X212713962Y-112875271D01*
X212469369Y-113241331D01*
X212300890Y-113648075D01*
X212215000Y-114079872D01*
X212215000Y-114520128D01*
X212300890Y-114951925D01*
X212469369Y-115358669D01*
X212713962Y-115724729D01*
X213025271Y-116036038D01*
X213391331Y-116280631D01*
X213798075Y-116449110D01*
X214229872Y-116535000D01*
X214670128Y-116535000D01*
X215101925Y-116449110D01*
X215374241Y-116336313D01*
X215145554Y-116565000D01*
X171275801Y-116565000D01*
X173760930Y-114079872D01*
X176215000Y-114079872D01*
X176215000Y-114520128D01*
X176300890Y-114951925D01*
X176469369Y-115358669D01*
X176713962Y-115724729D01*
X177025271Y-116036038D01*
X177391331Y-116280631D01*
X177798075Y-116449110D01*
X178229872Y-116535000D01*
X178670128Y-116535000D01*
X179101925Y-116449110D01*
X179508669Y-116280631D01*
X179874729Y-116036038D01*
X180186038Y-115724729D01*
X180430631Y-115358669D01*
X180599110Y-114951925D01*
X180685000Y-114520128D01*
X180685000Y-114079872D01*
X180599110Y-113648075D01*
X180430631Y-113241331D01*
X180186038Y-112875271D01*
X179874729Y-112563962D01*
X179508669Y-112319369D01*
X179101925Y-112150890D01*
X178670128Y-112065000D01*
X178229872Y-112065000D01*
X177798075Y-112150890D01*
X177391331Y-112319369D01*
X177025271Y-112563962D01*
X176713962Y-112875271D01*
X176469369Y-113241331D01*
X176300890Y-113648075D01*
X176215000Y-114079872D01*
X173760930Y-114079872D01*
X176082803Y-111758000D01*
X184851199Y-111758000D01*
X186888201Y-113795003D01*
X186911999Y-113824001D01*
X187027724Y-113918974D01*
X187159753Y-113989546D01*
X187303014Y-114033003D01*
X187414667Y-114044000D01*
X187414676Y-114044000D01*
X187451999Y-114047676D01*
X187489322Y-114044000D01*
X200876678Y-114044000D01*
X200914000Y-114047676D01*
X200951322Y-114044000D01*
X200951333Y-114044000D01*
X201062986Y-114033003D01*
X201206247Y-113989546D01*
X201338276Y-113918974D01*
X201454001Y-113824001D01*
X201477804Y-113794997D01*
X203711004Y-111561798D01*
X203740001Y-111538001D01*
X203834974Y-111422276D01*
X203905546Y-111290247D01*
X203949003Y-111146986D01*
X203960000Y-111035333D01*
X203960000Y-111035324D01*
X203963676Y-110998001D01*
X203960000Y-110960678D01*
X203960000Y-107479325D01*
X203963676Y-107442000D01*
X203960000Y-107404675D01*
X203960000Y-107404667D01*
X203949003Y-107293014D01*
X203905546Y-107149753D01*
X203834974Y-107017724D01*
X203740001Y-106901999D01*
X203711002Y-106878201D01*
X203367802Y-106535000D01*
X213913895Y-106535000D01*
X213950000Y-106538556D01*
X213986105Y-106535000D01*
X214094085Y-106524365D01*
X214232633Y-106482337D01*
X214360320Y-106414087D01*
X214472238Y-106322238D01*
X214564087Y-106210320D01*
X214632337Y-106082633D01*
X214674365Y-105944085D01*
X214688556Y-105800000D01*
X214685000Y-105763895D01*
X214685000Y-84421880D01*
X214688555Y-84385785D01*
X214685000Y-84349690D01*
X214685000Y-84349681D01*
X214674365Y-84241701D01*
X214632337Y-84103153D01*
X214564087Y-83975466D01*
X214540704Y-83946974D01*
X214495253Y-83891592D01*
X214495250Y-83891589D01*
X214472237Y-83863548D01*
X214444198Y-83840537D01*
X208909473Y-78305813D01*
X208886452Y-78277762D01*
X208774534Y-78185913D01*
X208646847Y-78117663D01*
X208508299Y-78075635D01*
X208400319Y-78065000D01*
X208364214Y-78061444D01*
X208328109Y-78065000D01*
X184571892Y-78065000D01*
X184535787Y-78061444D01*
X184499682Y-78065000D01*
X184391702Y-78075635D01*
X184253154Y-78117663D01*
X184125467Y-78185913D01*
X184013549Y-78277762D01*
X183990534Y-78305806D01*
X178455808Y-83840532D01*
X178427762Y-83863549D01*
X178335913Y-83975467D01*
X178267663Y-84103154D01*
X178253137Y-84151040D01*
X178225635Y-84241701D01*
X178211444Y-84385786D01*
X178215000Y-84421891D01*
X178215001Y-105763885D01*
X178211444Y-105800000D01*
X178225635Y-105944085D01*
X178267663Y-106082633D01*
X178335913Y-106210320D01*
X178427762Y-106322238D01*
X178539680Y-106414087D01*
X178667367Y-106482337D01*
X178805915Y-106524365D01*
X178913895Y-106535000D01*
X178950000Y-106538556D01*
X178986105Y-106535000D01*
X198714199Y-106535000D01*
X198454002Y-106795197D01*
X198424999Y-106818999D01*
X198369871Y-106886174D01*
X198330026Y-106934724D01*
X198285661Y-107017724D01*
X198259454Y-107066754D01*
X198215997Y-107210015D01*
X198205000Y-107321668D01*
X198205000Y-107321678D01*
X198201324Y-107359000D01*
X198205000Y-107396323D01*
X198205000Y-107430821D01*
X198018368Y-107555525D01*
X197811525Y-107762368D01*
X197695000Y-107936760D01*
X197578475Y-107762368D01*
X197371632Y-107555525D01*
X197128411Y-107393010D01*
X196858158Y-107281068D01*
X196571260Y-107224000D01*
X196278740Y-107224000D01*
X195991842Y-107281068D01*
X195721589Y-107393010D01*
X195478368Y-107555525D01*
X195271525Y-107762368D01*
X195155000Y-107936760D01*
X195038475Y-107762368D01*
X194831632Y-107555525D01*
X194588411Y-107393010D01*
X194318158Y-107281068D01*
X194031260Y-107224000D01*
X193738740Y-107224000D01*
X193451842Y-107281068D01*
X193181589Y-107393010D01*
X192938368Y-107555525D01*
X192806513Y-107687380D01*
X192784502Y-107614820D01*
X192725537Y-107504506D01*
X192646185Y-107407815D01*
X192549494Y-107328463D01*
X192439180Y-107269498D01*
X192319482Y-107233188D01*
X192195000Y-107220928D01*
X191630750Y-107224000D01*
X191472000Y-107382750D01*
X191472000Y-108582000D01*
X191492000Y-108582000D01*
X191492000Y-108836000D01*
X191472000Y-108836000D01*
X191472000Y-110035250D01*
X191630750Y-110194000D01*
X192195000Y-110197072D01*
X192319482Y-110184812D01*
X192439180Y-110148502D01*
X192549494Y-110089537D01*
X192646185Y-110010185D01*
X192725537Y-109913494D01*
X192784502Y-109803180D01*
X192806513Y-109730620D01*
X192938368Y-109862475D01*
X193181589Y-110024990D01*
X193451842Y-110136932D01*
X193738740Y-110194000D01*
X194031260Y-110194000D01*
X194318158Y-110136932D01*
X194588411Y-110024990D01*
X194831632Y-109862475D01*
X195038475Y-109655632D01*
X195155000Y-109481240D01*
X195271525Y-109655632D01*
X195478368Y-109862475D01*
X195721589Y-110024990D01*
X195991842Y-110136932D01*
X196278740Y-110194000D01*
X196571260Y-110194000D01*
X196858158Y-110136932D01*
X197128411Y-110024990D01*
X197371632Y-109862475D01*
X197578475Y-109655632D01*
X197695000Y-109481240D01*
X197811525Y-109655632D01*
X198018368Y-109862475D01*
X198261589Y-110024990D01*
X198531842Y-110136932D01*
X198818740Y-110194000D01*
X199111260Y-110194000D01*
X199398158Y-110136932D01*
X199668411Y-110024990D01*
X199911632Y-109862475D01*
X200118475Y-109655632D01*
X200235000Y-109481240D01*
X200351525Y-109655632D01*
X200558368Y-109862475D01*
X200745000Y-109987179D01*
X200745000Y-110092198D01*
X199583199Y-111254000D01*
X188274802Y-111254000D01*
X186579802Y-109559000D01*
X189856928Y-109559000D01*
X189869188Y-109683482D01*
X189905498Y-109803180D01*
X189964463Y-109913494D01*
X190043815Y-110010185D01*
X190140506Y-110089537D01*
X190250820Y-110148502D01*
X190370518Y-110184812D01*
X190495000Y-110197072D01*
X191059250Y-110194000D01*
X191218000Y-110035250D01*
X191218000Y-108836000D01*
X190018750Y-108836000D01*
X189860000Y-108994750D01*
X189856928Y-109559000D01*
X186579802Y-109559000D01*
X186237804Y-109217003D01*
X186214001Y-109187999D01*
X186098276Y-109093026D01*
X185966247Y-109022454D01*
X185822986Y-108978997D01*
X185711333Y-108968000D01*
X185711322Y-108968000D01*
X185674000Y-108964324D01*
X185636678Y-108968000D01*
X175043325Y-108968000D01*
X175006000Y-108964324D01*
X174968675Y-108968000D01*
X174968667Y-108968000D01*
X174857014Y-108978997D01*
X174713753Y-109022454D01*
X174581724Y-109093026D01*
X174465999Y-109187999D01*
X174442201Y-109216997D01*
X168849199Y-114810000D01*
X167471341Y-114810000D01*
X167534039Y-114747302D01*
X167664535Y-114552000D01*
X167856678Y-114552000D01*
X167894000Y-114555676D01*
X167931322Y-114552000D01*
X167931333Y-114552000D01*
X168042986Y-114541003D01*
X168186247Y-114497546D01*
X168318276Y-114426974D01*
X168434001Y-114332001D01*
X168457803Y-114302998D01*
X169167004Y-113593798D01*
X169196001Y-113570001D01*
X169290974Y-113454276D01*
X169361546Y-113322247D01*
X169405003Y-113178986D01*
X169416000Y-113067333D01*
X169416000Y-113067325D01*
X169419676Y-113030000D01*
X169416000Y-112992675D01*
X169416000Y-108495322D01*
X169419676Y-108457999D01*
X169416000Y-108420676D01*
X169416000Y-108420667D01*
X169405003Y-108309014D01*
X169361546Y-108165753D01*
X169330677Y-108108002D01*
X169290974Y-108033723D01*
X169219799Y-107946997D01*
X169196001Y-107917999D01*
X169167003Y-107894201D01*
X169131802Y-107859000D01*
X189856928Y-107859000D01*
X189860000Y-108423250D01*
X190018750Y-108582000D01*
X191218000Y-108582000D01*
X191218000Y-107382750D01*
X191059250Y-107224000D01*
X190495000Y-107220928D01*
X190370518Y-107233188D01*
X190250820Y-107269498D01*
X190140506Y-107328463D01*
X190043815Y-107407815D01*
X189964463Y-107504506D01*
X189905498Y-107614820D01*
X189869188Y-107734518D01*
X189856928Y-107859000D01*
X169131802Y-107859000D01*
X160095802Y-98823000D01*
X167267928Y-98823000D01*
X167280188Y-98947482D01*
X167316498Y-99067180D01*
X167375463Y-99177494D01*
X167454815Y-99274185D01*
X167551506Y-99353537D01*
X167661820Y-99412502D01*
X167781518Y-99448812D01*
X167906000Y-99461072D01*
X168370250Y-99458000D01*
X168529000Y-99299250D01*
X168529000Y-98425000D01*
X168783000Y-98425000D01*
X168783000Y-99299250D01*
X168941750Y-99458000D01*
X169406000Y-99461072D01*
X169530482Y-99448812D01*
X169650180Y-99412502D01*
X169760494Y-99353537D01*
X169857185Y-99274185D01*
X169936537Y-99177494D01*
X169995502Y-99067180D01*
X170031812Y-98947482D01*
X170044072Y-98823000D01*
X170041000Y-98583750D01*
X169882250Y-98425000D01*
X168783000Y-98425000D01*
X168529000Y-98425000D01*
X167429750Y-98425000D01*
X167271000Y-98583750D01*
X167267928Y-98823000D01*
X160095802Y-98823000D01*
X148391804Y-87119003D01*
X148368001Y-87089999D01*
X148252276Y-86995026D01*
X148120247Y-86924454D01*
X147976986Y-86880997D01*
X147865333Y-86870000D01*
X147865322Y-86870000D01*
X147828000Y-86866324D01*
X147790678Y-86870000D01*
X140378954Y-86870000D01*
X140379727Y-86869680D01*
X140614759Y-86712637D01*
X140814637Y-86512759D01*
X140918043Y-86358000D01*
X148021199Y-86358000D01*
X159202201Y-97539003D01*
X159225999Y-97568001D01*
X159254997Y-97591799D01*
X159341723Y-97662974D01*
X159473753Y-97733546D01*
X159617014Y-97777003D01*
X159728667Y-97788000D01*
X159728677Y-97788000D01*
X159765999Y-97791676D01*
X159803322Y-97788000D01*
X167268121Y-97788000D01*
X167271000Y-98012250D01*
X167429750Y-98171000D01*
X168202891Y-98171000D01*
X168203600Y-98171215D01*
X168374021Y-98188000D01*
X168937979Y-98188000D01*
X169108400Y-98171215D01*
X169109109Y-98171000D01*
X169882250Y-98171000D01*
X170041000Y-98012250D01*
X170044072Y-97773000D01*
X170031812Y-97648518D01*
X169995502Y-97528820D01*
X169960907Y-97464098D01*
X170024215Y-97255400D01*
X170046612Y-97028000D01*
X170024215Y-96800600D01*
X169957885Y-96581940D01*
X169856895Y-96393000D01*
X169957885Y-96204060D01*
X170024215Y-95985400D01*
X170046612Y-95758000D01*
X170024215Y-95530600D01*
X169957885Y-95311940D01*
X169850171Y-95110421D01*
X169705212Y-94933788D01*
X169528579Y-94788829D01*
X169416000Y-94728654D01*
X169416000Y-93928043D01*
X169570759Y-93824637D01*
X169770637Y-93624759D01*
X169927680Y-93389727D01*
X170035853Y-93128574D01*
X170091000Y-92851335D01*
X170091000Y-92568665D01*
X170035853Y-92291426D01*
X169927680Y-92030273D01*
X169770637Y-91795241D01*
X169570759Y-91595363D01*
X169335727Y-91438320D01*
X169074574Y-91330147D01*
X168797335Y-91275000D01*
X168514665Y-91275000D01*
X168237426Y-91330147D01*
X167976273Y-91438320D01*
X167741241Y-91595363D01*
X167541363Y-91795241D01*
X167384320Y-92030273D01*
X167276147Y-92291426D01*
X167221000Y-92568665D01*
X167221000Y-92851335D01*
X167276147Y-93128574D01*
X167384320Y-93389727D01*
X167541363Y-93624759D01*
X167741241Y-93824637D01*
X167896001Y-93928044D01*
X167896000Y-94728654D01*
X167783421Y-94788829D01*
X167606788Y-94933788D01*
X167461829Y-95110421D01*
X167354115Y-95311940D01*
X167287785Y-95530600D01*
X167265388Y-95758000D01*
X167287785Y-95985400D01*
X167354115Y-96204060D01*
X167388292Y-96268000D01*
X160080802Y-96268000D01*
X148899804Y-85087003D01*
X148876001Y-85057999D01*
X148760276Y-84963026D01*
X148628247Y-84892454D01*
X148484986Y-84848997D01*
X148373333Y-84838000D01*
X148373322Y-84838000D01*
X148336000Y-84834324D01*
X148298678Y-84838000D01*
X140918043Y-84838000D01*
X140814637Y-84683241D01*
X140614759Y-84483363D01*
X140379727Y-84326320D01*
X140118574Y-84218147D01*
X139841335Y-84163000D01*
X139558665Y-84163000D01*
X139281426Y-84218147D01*
X139020273Y-84326320D01*
X138785241Y-84483363D01*
X138585363Y-84683241D01*
X138428320Y-84918273D01*
X138320147Y-85179426D01*
X138265000Y-85456665D01*
X138265000Y-85739335D01*
X138320147Y-86016574D01*
X138428320Y-86277727D01*
X138585363Y-86512759D01*
X138785241Y-86712637D01*
X139020273Y-86869680D01*
X139021046Y-86870000D01*
X118909322Y-86870000D01*
X118871999Y-86866324D01*
X118834676Y-86870000D01*
X118834667Y-86870000D01*
X118723014Y-86880997D01*
X118579753Y-86924454D01*
X118447724Y-86995026D01*
X118331999Y-87089999D01*
X118308201Y-87118997D01*
X115096003Y-90331196D01*
X115066999Y-90354999D01*
X115011871Y-90422174D01*
X114972026Y-90470724D01*
X114905986Y-90594276D01*
X114901454Y-90602754D01*
X114857997Y-90746015D01*
X114847000Y-90857668D01*
X114847000Y-90857678D01*
X114843324Y-90895000D01*
X114847000Y-90932323D01*
X114847000Y-91553821D01*
X114660368Y-91678525D01*
X114453525Y-91885368D01*
X114337000Y-92059760D01*
X114220475Y-91885368D01*
X114013632Y-91678525D01*
X113902000Y-91603935D01*
X113902000Y-91240867D01*
X120995868Y-84147000D01*
X125057375Y-84147000D01*
X125066188Y-84236482D01*
X125102498Y-84356180D01*
X125161463Y-84466494D01*
X125240815Y-84563185D01*
X125337506Y-84642537D01*
X125447820Y-84701502D01*
X125567518Y-84737812D01*
X125692000Y-84750072D01*
X127292000Y-84750072D01*
X127416482Y-84737812D01*
X127536180Y-84701502D01*
X127646494Y-84642537D01*
X127743185Y-84563185D01*
X127822537Y-84466494D01*
X127881502Y-84356180D01*
X127917812Y-84236482D01*
X127930072Y-84112000D01*
X127930072Y-83170665D01*
X132677000Y-83170665D01*
X132677000Y-83453335D01*
X132732147Y-83730574D01*
X132840320Y-83991727D01*
X132997363Y-84226759D01*
X133197241Y-84426637D01*
X133432273Y-84583680D01*
X133693426Y-84691853D01*
X133970665Y-84747000D01*
X134253335Y-84747000D01*
X134530574Y-84691853D01*
X134791727Y-84583680D01*
X135026759Y-84426637D01*
X135226637Y-84226759D01*
X135330043Y-84072000D01*
X148275199Y-84072000D01*
X156896201Y-92693003D01*
X156919999Y-92722001D01*
X157035724Y-92816974D01*
X157167753Y-92887546D01*
X157311014Y-92931003D01*
X157422667Y-92942000D01*
X157422676Y-92942000D01*
X157459999Y-92945676D01*
X157497322Y-92942000D01*
X158311091Y-92942000D01*
X158317082Y-92956463D01*
X158496013Y-93224252D01*
X158723748Y-93451987D01*
X158991537Y-93630918D01*
X159289088Y-93754168D01*
X159604967Y-93817000D01*
X159927033Y-93817000D01*
X160242912Y-93754168D01*
X160540463Y-93630918D01*
X160808252Y-93451987D01*
X161035987Y-93224252D01*
X161214918Y-92956463D01*
X161220909Y-92942000D01*
X163304678Y-92942000D01*
X163342000Y-92945676D01*
X163379322Y-92942000D01*
X163379333Y-92942000D01*
X163490986Y-92931003D01*
X163634247Y-92887546D01*
X163766276Y-92816974D01*
X163882001Y-92722001D01*
X163905804Y-92692997D01*
X169167003Y-87431799D01*
X169196001Y-87408001D01*
X169290974Y-87292276D01*
X169361546Y-87160247D01*
X169405003Y-87016986D01*
X169416000Y-86905333D01*
X169416000Y-86905323D01*
X169419676Y-86868000D01*
X169416000Y-86830677D01*
X169416000Y-86308043D01*
X169570759Y-86204637D01*
X169770637Y-86004759D01*
X169927680Y-85769727D01*
X170035853Y-85508574D01*
X170091000Y-85231335D01*
X170091000Y-84948665D01*
X170035853Y-84671426D01*
X169927680Y-84410273D01*
X169770637Y-84175241D01*
X169570759Y-83975363D01*
X169335727Y-83818320D01*
X169074574Y-83710147D01*
X168797335Y-83655000D01*
X168514665Y-83655000D01*
X168237426Y-83710147D01*
X167976273Y-83818320D01*
X167741241Y-83975363D01*
X167541363Y-84175241D01*
X167384320Y-84410273D01*
X167276147Y-84671426D01*
X167221000Y-84948665D01*
X167221000Y-85231335D01*
X167276147Y-85508574D01*
X167384320Y-85769727D01*
X167541363Y-86004759D01*
X167741241Y-86204637D01*
X167896001Y-86308044D01*
X167896001Y-86553197D01*
X163027199Y-91422000D01*
X161220909Y-91422000D01*
X161214918Y-91407537D01*
X161035987Y-91139748D01*
X160808252Y-90912013D01*
X160540463Y-90733082D01*
X160242912Y-90609832D01*
X159927033Y-90547000D01*
X159604967Y-90547000D01*
X159289088Y-90609832D01*
X158991537Y-90733082D01*
X158723748Y-90912013D01*
X158496013Y-91139748D01*
X158317082Y-91407537D01*
X158311091Y-91422000D01*
X157774802Y-91422000D01*
X149153804Y-82801003D01*
X149130001Y-82771999D01*
X149014276Y-82677026D01*
X148882247Y-82606454D01*
X148738986Y-82562997D01*
X148627333Y-82552000D01*
X148627322Y-82552000D01*
X148590000Y-82548324D01*
X148552678Y-82552000D01*
X135330043Y-82552000D01*
X135226637Y-82397241D01*
X135026759Y-82197363D01*
X134791727Y-82040320D01*
X134530574Y-81932147D01*
X134253335Y-81877000D01*
X133970665Y-81877000D01*
X133693426Y-81932147D01*
X133432273Y-82040320D01*
X133197241Y-82197363D01*
X132997363Y-82397241D01*
X132840320Y-82632273D01*
X132732147Y-82893426D01*
X132677000Y-83170665D01*
X127930072Y-83170665D01*
X127930072Y-82512000D01*
X127917812Y-82387518D01*
X127881502Y-82267820D01*
X127822537Y-82157506D01*
X127743185Y-82060815D01*
X127646494Y-81981463D01*
X127537607Y-81923261D01*
X127853868Y-81607000D01*
X149260133Y-81607000D01*
X152796563Y-85143432D01*
X152822709Y-85175291D01*
X152949854Y-85279636D01*
X153094913Y-85357172D01*
X153252311Y-85404918D01*
X153374981Y-85417000D01*
X153374982Y-85417000D01*
X153416000Y-85421040D01*
X153457018Y-85417000D01*
X158127928Y-85417000D01*
X158127928Y-85582000D01*
X158140188Y-85706482D01*
X158176498Y-85826180D01*
X158235463Y-85936494D01*
X158314815Y-86033185D01*
X158411506Y-86112537D01*
X158521820Y-86171502D01*
X158641518Y-86207812D01*
X158766000Y-86220072D01*
X160766000Y-86220072D01*
X160890482Y-86207812D01*
X161010180Y-86171502D01*
X161120494Y-86112537D01*
X161217185Y-86033185D01*
X161296537Y-85936494D01*
X161355502Y-85826180D01*
X161391812Y-85706482D01*
X161404072Y-85582000D01*
X161404072Y-83582000D01*
X161391812Y-83457518D01*
X161355502Y-83337820D01*
X161296537Y-83227506D01*
X161217185Y-83130815D01*
X161120494Y-83051463D01*
X161010180Y-82992498D01*
X160890482Y-82956188D01*
X160766000Y-82943928D01*
X158766000Y-82943928D01*
X158641518Y-82956188D01*
X158521820Y-82992498D01*
X158411506Y-83051463D01*
X158314815Y-83130815D01*
X158235463Y-83227506D01*
X158176498Y-83337820D01*
X158140188Y-83457518D01*
X158127928Y-83582000D01*
X158127928Y-83747000D01*
X153761869Y-83747000D01*
X150225446Y-80210579D01*
X150199291Y-80178709D01*
X150072146Y-80074364D01*
X149927087Y-79996828D01*
X149769689Y-79949082D01*
X149647019Y-79937000D01*
X149647018Y-79937000D01*
X149606000Y-79932960D01*
X149564982Y-79937000D01*
X127549018Y-79937000D01*
X127508000Y-79932960D01*
X127466981Y-79937000D01*
X127344311Y-79949082D01*
X127186913Y-79996828D01*
X127041854Y-80074364D01*
X126914709Y-80178709D01*
X126888558Y-80210574D01*
X125930579Y-81168554D01*
X125898709Y-81194709D01*
X125794365Y-81321854D01*
X125794364Y-81321855D01*
X125716828Y-81466914D01*
X125669082Y-81624312D01*
X125652960Y-81788000D01*
X125657000Y-81829019D01*
X125657000Y-81877375D01*
X125567518Y-81886188D01*
X125447820Y-81922498D01*
X125337506Y-81981463D01*
X125240815Y-82060815D01*
X125161463Y-82157506D01*
X125102498Y-82267820D01*
X125066188Y-82387518D01*
X125057375Y-82477000D01*
X120691007Y-82477000D01*
X120649999Y-82472961D01*
X120608991Y-82477000D01*
X120608981Y-82477000D01*
X120486311Y-82489082D01*
X120328913Y-82536828D01*
X120183854Y-82614364D01*
X120056709Y-82718709D01*
X120030559Y-82750573D01*
X112505579Y-90275554D01*
X112473709Y-90301709D01*
X112406177Y-90383998D01*
X112369364Y-90428855D01*
X112291828Y-90573914D01*
X112244082Y-90731312D01*
X112227960Y-90895000D01*
X112232000Y-90936019D01*
X112232000Y-91603935D01*
X112120368Y-91678525D01*
X111988513Y-91810380D01*
X111966502Y-91737820D01*
X111907537Y-91627506D01*
X111828185Y-91530815D01*
X111731494Y-91451463D01*
X111621180Y-91392498D01*
X111501482Y-91356188D01*
X111377000Y-91343928D01*
X110812750Y-91347000D01*
X110654000Y-91505750D01*
X110654000Y-92705000D01*
X110674000Y-92705000D01*
X110674000Y-92959000D01*
X110654000Y-92959000D01*
X110654000Y-94158250D01*
X110812750Y-94317000D01*
X111377000Y-94320072D01*
X111501482Y-94307812D01*
X111621180Y-94271502D01*
X111731494Y-94212537D01*
X111828185Y-94133185D01*
X111907537Y-94036494D01*
X111966502Y-93926180D01*
X111988513Y-93853620D01*
X112120368Y-93985475D01*
X112232000Y-94060065D01*
X112232001Y-100256134D01*
X112194446Y-100218578D01*
X112168291Y-100186709D01*
X112041146Y-100082364D01*
X111896087Y-100004828D01*
X111738689Y-99957082D01*
X111616019Y-99945000D01*
X111616018Y-99945000D01*
X111575000Y-99940960D01*
X111533982Y-99945000D01*
X104578065Y-99945000D01*
X104503475Y-99833368D01*
X104296632Y-99626525D01*
X104122240Y-99510000D01*
X104296632Y-99393475D01*
X104503475Y-99186632D01*
X104665990Y-98943411D01*
X104777932Y-98673158D01*
X104835000Y-98386260D01*
X104835000Y-98093740D01*
X104777932Y-97806842D01*
X104665990Y-97536589D01*
X104503475Y-97293368D01*
X104296632Y-97086525D01*
X104122240Y-96970000D01*
X104296632Y-96853475D01*
X104503475Y-96646632D01*
X104665990Y-96403411D01*
X104777932Y-96133158D01*
X104835000Y-95846260D01*
X104835000Y-95553740D01*
X104777932Y-95266842D01*
X104665990Y-94996589D01*
X104503475Y-94753368D01*
X104296632Y-94546525D01*
X104122240Y-94430000D01*
X104296632Y-94313475D01*
X104503475Y-94106632D01*
X104665990Y-93863411D01*
X104741132Y-93682000D01*
X109038928Y-93682000D01*
X109051188Y-93806482D01*
X109087498Y-93926180D01*
X109146463Y-94036494D01*
X109225815Y-94133185D01*
X109322506Y-94212537D01*
X109432820Y-94271502D01*
X109552518Y-94307812D01*
X109677000Y-94320072D01*
X110241250Y-94317000D01*
X110400000Y-94158250D01*
X110400000Y-92959000D01*
X109200750Y-92959000D01*
X109042000Y-93117750D01*
X109038928Y-93682000D01*
X104741132Y-93682000D01*
X104777932Y-93593158D01*
X104835000Y-93306260D01*
X104835000Y-93013740D01*
X104777932Y-92726842D01*
X104665990Y-92456589D01*
X104503475Y-92213368D01*
X104296632Y-92006525D01*
X104259928Y-91982000D01*
X109038928Y-91982000D01*
X109042000Y-92546250D01*
X109200750Y-92705000D01*
X110400000Y-92705000D01*
X110400000Y-91505750D01*
X110241250Y-91347000D01*
X109677000Y-91343928D01*
X109552518Y-91356188D01*
X109432820Y-91392498D01*
X109322506Y-91451463D01*
X109225815Y-91530815D01*
X109146463Y-91627506D01*
X109087498Y-91737820D01*
X109051188Y-91857518D01*
X109038928Y-91982000D01*
X104259928Y-91982000D01*
X104122240Y-91890000D01*
X104296632Y-91773475D01*
X104503475Y-91566632D01*
X104665990Y-91323411D01*
X104777932Y-91053158D01*
X104835000Y-90766260D01*
X104835000Y-90473740D01*
X104777932Y-90186842D01*
X104665990Y-89916589D01*
X104503475Y-89673368D01*
X104296632Y-89466525D01*
X104122240Y-89350000D01*
X104296632Y-89233475D01*
X104503475Y-89026632D01*
X104665990Y-88783411D01*
X104777932Y-88513158D01*
X104835000Y-88226260D01*
X104835000Y-87933740D01*
X104777932Y-87646842D01*
X104665990Y-87376589D01*
X104503475Y-87133368D01*
X104296632Y-86926525D01*
X104053411Y-86764010D01*
X103783158Y-86652068D01*
X103496260Y-86595000D01*
X103203740Y-86595000D01*
X102916842Y-86652068D01*
X102646589Y-86764010D01*
X102403368Y-86926525D01*
X102196525Y-87133368D01*
X102034010Y-87376589D01*
X101922068Y-87646842D01*
X101865000Y-87933740D01*
X101865000Y-88226260D01*
X101922068Y-88513158D01*
X102034010Y-88783411D01*
X102196525Y-89026632D01*
X102403368Y-89233475D01*
X102577760Y-89350000D01*
X102403368Y-89466525D01*
X102196525Y-89673368D01*
X102071822Y-89860000D01*
X101695323Y-89860000D01*
X101658000Y-89856324D01*
X101620677Y-89860000D01*
X101620667Y-89860000D01*
X101509014Y-89870997D01*
X101365753Y-89914454D01*
X101233724Y-89985026D01*
X101117999Y-90079999D01*
X101094201Y-90108997D01*
X98548998Y-92654201D01*
X98520000Y-92677999D01*
X98496202Y-92706997D01*
X98496201Y-92706998D01*
X98425026Y-92793724D01*
X98354454Y-92925754D01*
X98327765Y-93013740D01*
X98310998Y-93069014D01*
X98306198Y-93117750D01*
X98296324Y-93218000D01*
X98300001Y-93255332D01*
X98300000Y-105880678D01*
X98296324Y-105918000D01*
X98300000Y-105955322D01*
X98300000Y-105955332D01*
X98310997Y-106066985D01*
X98354454Y-106210246D01*
X98425026Y-106342276D01*
X98462348Y-106387753D01*
X98519999Y-106458001D01*
X98549003Y-106481804D01*
X108402201Y-116335003D01*
X108425999Y-116364001D01*
X108454997Y-116387799D01*
X108541724Y-116458974D01*
X108673753Y-116529546D01*
X108790631Y-116565000D01*
X94554447Y-116565000D01*
X94325760Y-116336314D01*
X94598075Y-116449110D01*
X95029872Y-116535000D01*
X95470128Y-116535000D01*
X95901925Y-116449110D01*
X96308669Y-116280631D01*
X96674729Y-116036038D01*
X96986038Y-115724729D01*
X97230631Y-115358669D01*
X97399110Y-114951925D01*
X97485000Y-114520128D01*
X97485000Y-114079872D01*
X97399110Y-113648075D01*
X97230631Y-113241331D01*
X96986038Y-112875271D01*
X96674729Y-112563962D01*
X96308669Y-112319369D01*
X95901925Y-112150890D01*
X95470128Y-112065000D01*
X95029872Y-112065000D01*
X94598075Y-112150890D01*
X94191331Y-112319369D01*
X93825271Y-112563962D01*
X93513962Y-112875271D01*
X93269369Y-113241331D01*
X93100890Y-113648075D01*
X93015000Y-114079872D01*
X93015000Y-114520128D01*
X93100890Y-114951925D01*
X93213687Y-115224240D01*
X90985000Y-112995554D01*
X90985000Y-79604446D01*
X93213687Y-77375760D01*
X93100890Y-77648075D01*
X93015000Y-78079872D01*
X93015000Y-78520128D01*
X93100890Y-78951925D01*
X93269369Y-79358669D01*
X93513962Y-79724729D01*
X93825271Y-80036038D01*
X94191331Y-80280631D01*
X94598075Y-80449110D01*
X95029872Y-80535000D01*
X95470128Y-80535000D01*
X95901925Y-80449110D01*
X96308669Y-80280631D01*
X96674729Y-80036038D01*
X96986038Y-79724729D01*
X97230631Y-79358669D01*
X97399110Y-78951925D01*
X97485000Y-78520128D01*
X97485000Y-78079872D01*
X97399110Y-77648075D01*
X97230631Y-77241331D01*
X96986038Y-76875271D01*
X96674729Y-76563962D01*
X96308669Y-76319369D01*
X95901925Y-76150890D01*
X95470128Y-76065000D01*
X95029872Y-76065000D01*
X94598075Y-76150890D01*
X94325760Y-76263686D01*
X94554447Y-76035000D01*
X110222554Y-76035000D01*
X113481746Y-79294193D01*
G37*
X113481746Y-79294193D02*
X113504762Y-79322238D01*
X113616680Y-79414087D01*
X113744367Y-79482337D01*
X113882915Y-79524365D01*
X113990895Y-79535000D01*
X113990904Y-79535000D01*
X114026999Y-79538555D01*
X114063094Y-79535000D01*
X120990895Y-79535000D01*
X121027000Y-79538556D01*
X121063105Y-79535000D01*
X121171085Y-79524365D01*
X121309633Y-79482337D01*
X121437320Y-79414087D01*
X121549238Y-79322238D01*
X121572259Y-79294187D01*
X122786574Y-78079872D01*
X176215000Y-78079872D01*
X176215000Y-78520128D01*
X176300890Y-78951925D01*
X176469369Y-79358669D01*
X176713962Y-79724729D01*
X177025271Y-80036038D01*
X177391331Y-80280631D01*
X177798075Y-80449110D01*
X178229872Y-80535000D01*
X178670128Y-80535000D01*
X179101925Y-80449110D01*
X179508669Y-80280631D01*
X179874729Y-80036038D01*
X180186038Y-79724729D01*
X180430631Y-79358669D01*
X180599110Y-78951925D01*
X180685000Y-78520128D01*
X180685000Y-78079872D01*
X180599110Y-77648075D01*
X180430631Y-77241331D01*
X180186038Y-76875271D01*
X179874729Y-76563962D01*
X179508669Y-76319369D01*
X179101925Y-76150890D01*
X178670128Y-76065000D01*
X178229872Y-76065000D01*
X177798075Y-76150890D01*
X177391331Y-76319369D01*
X177025271Y-76563962D01*
X176713962Y-76875271D01*
X176469369Y-77241331D01*
X176300890Y-77648075D01*
X176215000Y-78079872D01*
X122786574Y-78079872D01*
X124831447Y-76035000D01*
X215145554Y-76035000D01*
X215374241Y-76263687D01*
X215101925Y-76150890D01*
X214670128Y-76065000D01*
X214229872Y-76065000D01*
X213798075Y-76150890D01*
X213391331Y-76319369D01*
X213025271Y-76563962D01*
X212713962Y-76875271D01*
X212469369Y-77241331D01*
X212300890Y-77648075D01*
X212215000Y-78079872D01*
X212215000Y-78520128D01*
X212300890Y-78951925D01*
X212469369Y-79358669D01*
X212713962Y-79724729D01*
X213025271Y-80036038D01*
X213391331Y-80280631D01*
X213798075Y-80449110D01*
X214229872Y-80535000D01*
X214670128Y-80535000D01*
X215101925Y-80449110D01*
X215508669Y-80280631D01*
X215874729Y-80036038D01*
X216186038Y-79724729D01*
X216430631Y-79358669D01*
X216599110Y-78951925D01*
X216685000Y-78520128D01*
X216685000Y-78079872D01*
X216599110Y-77648075D01*
X216486313Y-77375760D01*
X218715000Y-79604447D01*
X218715001Y-112995552D01*
X216486313Y-115224240D01*
X216599110Y-114951925D01*
X216685000Y-114520128D01*
X216685000Y-114079872D01*
X216599110Y-113648075D01*
X216430631Y-113241331D01*
X216186038Y-112875271D01*
X215874729Y-112563962D01*
X215508669Y-112319369D01*
X215101925Y-112150890D01*
X214670128Y-112065000D01*
X214229872Y-112065000D01*
X213798075Y-112150890D01*
X213391331Y-112319369D01*
X213025271Y-112563962D01*
X212713962Y-112875271D01*
X212469369Y-113241331D01*
X212300890Y-113648075D01*
X212215000Y-114079872D01*
X212215000Y-114520128D01*
X212300890Y-114951925D01*
X212469369Y-115358669D01*
X212713962Y-115724729D01*
X213025271Y-116036038D01*
X213391331Y-116280631D01*
X213798075Y-116449110D01*
X214229872Y-116535000D01*
X214670128Y-116535000D01*
X215101925Y-116449110D01*
X215374241Y-116336313D01*
X215145554Y-116565000D01*
X171275801Y-116565000D01*
X173760930Y-114079872D01*
X176215000Y-114079872D01*
X176215000Y-114520128D01*
X176300890Y-114951925D01*
X176469369Y-115358669D01*
X176713962Y-115724729D01*
X177025271Y-116036038D01*
X177391331Y-116280631D01*
X177798075Y-116449110D01*
X178229872Y-116535000D01*
X178670128Y-116535000D01*
X179101925Y-116449110D01*
X179508669Y-116280631D01*
X179874729Y-116036038D01*
X180186038Y-115724729D01*
X180430631Y-115358669D01*
X180599110Y-114951925D01*
X180685000Y-114520128D01*
X180685000Y-114079872D01*
X180599110Y-113648075D01*
X180430631Y-113241331D01*
X180186038Y-112875271D01*
X179874729Y-112563962D01*
X179508669Y-112319369D01*
X179101925Y-112150890D01*
X178670128Y-112065000D01*
X178229872Y-112065000D01*
X177798075Y-112150890D01*
X177391331Y-112319369D01*
X177025271Y-112563962D01*
X176713962Y-112875271D01*
X176469369Y-113241331D01*
X176300890Y-113648075D01*
X176215000Y-114079872D01*
X173760930Y-114079872D01*
X176082803Y-111758000D01*
X184851199Y-111758000D01*
X186888201Y-113795003D01*
X186911999Y-113824001D01*
X187027724Y-113918974D01*
X187159753Y-113989546D01*
X187303014Y-114033003D01*
X187414667Y-114044000D01*
X187414676Y-114044000D01*
X187451999Y-114047676D01*
X187489322Y-114044000D01*
X200876678Y-114044000D01*
X200914000Y-114047676D01*
X200951322Y-114044000D01*
X200951333Y-114044000D01*
X201062986Y-114033003D01*
X201206247Y-113989546D01*
X201338276Y-113918974D01*
X201454001Y-113824001D01*
X201477804Y-113794997D01*
X203711004Y-111561798D01*
X203740001Y-111538001D01*
X203834974Y-111422276D01*
X203905546Y-111290247D01*
X203949003Y-111146986D01*
X203960000Y-111035333D01*
X203960000Y-111035324D01*
X203963676Y-110998001D01*
X203960000Y-110960678D01*
X203960000Y-107479325D01*
X203963676Y-107442000D01*
X203960000Y-107404675D01*
X203960000Y-107404667D01*
X203949003Y-107293014D01*
X203905546Y-107149753D01*
X203834974Y-107017724D01*
X203740001Y-106901999D01*
X203711002Y-106878201D01*
X203367802Y-106535000D01*
X213913895Y-106535000D01*
X213950000Y-106538556D01*
X213986105Y-106535000D01*
X214094085Y-106524365D01*
X214232633Y-106482337D01*
X214360320Y-106414087D01*
X214472238Y-106322238D01*
X214564087Y-106210320D01*
X214632337Y-106082633D01*
X214674365Y-105944085D01*
X214688556Y-105800000D01*
X214685000Y-105763895D01*
X214685000Y-84421880D01*
X214688555Y-84385785D01*
X214685000Y-84349690D01*
X214685000Y-84349681D01*
X214674365Y-84241701D01*
X214632337Y-84103153D01*
X214564087Y-83975466D01*
X214540704Y-83946974D01*
X214495253Y-83891592D01*
X214495250Y-83891589D01*
X214472237Y-83863548D01*
X214444198Y-83840537D01*
X208909473Y-78305813D01*
X208886452Y-78277762D01*
X208774534Y-78185913D01*
X208646847Y-78117663D01*
X208508299Y-78075635D01*
X208400319Y-78065000D01*
X208364214Y-78061444D01*
X208328109Y-78065000D01*
X184571892Y-78065000D01*
X184535787Y-78061444D01*
X184499682Y-78065000D01*
X184391702Y-78075635D01*
X184253154Y-78117663D01*
X184125467Y-78185913D01*
X184013549Y-78277762D01*
X183990534Y-78305806D01*
X178455808Y-83840532D01*
X178427762Y-83863549D01*
X178335913Y-83975467D01*
X178267663Y-84103154D01*
X178253137Y-84151040D01*
X178225635Y-84241701D01*
X178211444Y-84385786D01*
X178215000Y-84421891D01*
X178215001Y-105763885D01*
X178211444Y-105800000D01*
X178225635Y-105944085D01*
X178267663Y-106082633D01*
X178335913Y-106210320D01*
X178427762Y-106322238D01*
X178539680Y-106414087D01*
X178667367Y-106482337D01*
X178805915Y-106524365D01*
X178913895Y-106535000D01*
X178950000Y-106538556D01*
X178986105Y-106535000D01*
X198714199Y-106535000D01*
X198454002Y-106795197D01*
X198424999Y-106818999D01*
X198369871Y-106886174D01*
X198330026Y-106934724D01*
X198285661Y-107017724D01*
X198259454Y-107066754D01*
X198215997Y-107210015D01*
X198205000Y-107321668D01*
X198205000Y-107321678D01*
X198201324Y-107359000D01*
X198205000Y-107396323D01*
X198205000Y-107430821D01*
X198018368Y-107555525D01*
X197811525Y-107762368D01*
X197695000Y-107936760D01*
X197578475Y-107762368D01*
X197371632Y-107555525D01*
X197128411Y-107393010D01*
X196858158Y-107281068D01*
X196571260Y-107224000D01*
X196278740Y-107224000D01*
X195991842Y-107281068D01*
X195721589Y-107393010D01*
X195478368Y-107555525D01*
X195271525Y-107762368D01*
X195155000Y-107936760D01*
X195038475Y-107762368D01*
X194831632Y-107555525D01*
X194588411Y-107393010D01*
X194318158Y-107281068D01*
X194031260Y-107224000D01*
X193738740Y-107224000D01*
X193451842Y-107281068D01*
X193181589Y-107393010D01*
X192938368Y-107555525D01*
X192806513Y-107687380D01*
X192784502Y-107614820D01*
X192725537Y-107504506D01*
X192646185Y-107407815D01*
X192549494Y-107328463D01*
X192439180Y-107269498D01*
X192319482Y-107233188D01*
X192195000Y-107220928D01*
X191630750Y-107224000D01*
X191472000Y-107382750D01*
X191472000Y-108582000D01*
X191492000Y-108582000D01*
X191492000Y-108836000D01*
X191472000Y-108836000D01*
X191472000Y-110035250D01*
X191630750Y-110194000D01*
X192195000Y-110197072D01*
X192319482Y-110184812D01*
X192439180Y-110148502D01*
X192549494Y-110089537D01*
X192646185Y-110010185D01*
X192725537Y-109913494D01*
X192784502Y-109803180D01*
X192806513Y-109730620D01*
X192938368Y-109862475D01*
X193181589Y-110024990D01*
X193451842Y-110136932D01*
X193738740Y-110194000D01*
X194031260Y-110194000D01*
X194318158Y-110136932D01*
X194588411Y-110024990D01*
X194831632Y-109862475D01*
X195038475Y-109655632D01*
X195155000Y-109481240D01*
X195271525Y-109655632D01*
X195478368Y-109862475D01*
X195721589Y-110024990D01*
X195991842Y-110136932D01*
X196278740Y-110194000D01*
X196571260Y-110194000D01*
X196858158Y-110136932D01*
X197128411Y-110024990D01*
X197371632Y-109862475D01*
X197578475Y-109655632D01*
X197695000Y-109481240D01*
X197811525Y-109655632D01*
X198018368Y-109862475D01*
X198261589Y-110024990D01*
X198531842Y-110136932D01*
X198818740Y-110194000D01*
X199111260Y-110194000D01*
X199398158Y-110136932D01*
X199668411Y-110024990D01*
X199911632Y-109862475D01*
X200118475Y-109655632D01*
X200235000Y-109481240D01*
X200351525Y-109655632D01*
X200558368Y-109862475D01*
X200745000Y-109987179D01*
X200745000Y-110092198D01*
X199583199Y-111254000D01*
X188274802Y-111254000D01*
X186579802Y-109559000D01*
X189856928Y-109559000D01*
X189869188Y-109683482D01*
X189905498Y-109803180D01*
X189964463Y-109913494D01*
X190043815Y-110010185D01*
X190140506Y-110089537D01*
X190250820Y-110148502D01*
X190370518Y-110184812D01*
X190495000Y-110197072D01*
X191059250Y-110194000D01*
X191218000Y-110035250D01*
X191218000Y-108836000D01*
X190018750Y-108836000D01*
X189860000Y-108994750D01*
X189856928Y-109559000D01*
X186579802Y-109559000D01*
X186237804Y-109217003D01*
X186214001Y-109187999D01*
X186098276Y-109093026D01*
X185966247Y-109022454D01*
X185822986Y-108978997D01*
X185711333Y-108968000D01*
X185711322Y-108968000D01*
X185674000Y-108964324D01*
X185636678Y-108968000D01*
X175043325Y-108968000D01*
X175006000Y-108964324D01*
X174968675Y-108968000D01*
X174968667Y-108968000D01*
X174857014Y-108978997D01*
X174713753Y-109022454D01*
X174581724Y-109093026D01*
X174465999Y-109187999D01*
X174442201Y-109216997D01*
X168849199Y-114810000D01*
X167471341Y-114810000D01*
X167534039Y-114747302D01*
X167664535Y-114552000D01*
X167856678Y-114552000D01*
X167894000Y-114555676D01*
X167931322Y-114552000D01*
X167931333Y-114552000D01*
X168042986Y-114541003D01*
X168186247Y-114497546D01*
X168318276Y-114426974D01*
X168434001Y-114332001D01*
X168457803Y-114302998D01*
X169167004Y-113593798D01*
X169196001Y-113570001D01*
X169290974Y-113454276D01*
X169361546Y-113322247D01*
X169405003Y-113178986D01*
X169416000Y-113067333D01*
X169416000Y-113067325D01*
X169419676Y-113030000D01*
X169416000Y-112992675D01*
X169416000Y-108495322D01*
X169419676Y-108457999D01*
X169416000Y-108420676D01*
X169416000Y-108420667D01*
X169405003Y-108309014D01*
X169361546Y-108165753D01*
X169330677Y-108108002D01*
X169290974Y-108033723D01*
X169219799Y-107946997D01*
X169196001Y-107917999D01*
X169167003Y-107894201D01*
X169131802Y-107859000D01*
X189856928Y-107859000D01*
X189860000Y-108423250D01*
X190018750Y-108582000D01*
X191218000Y-108582000D01*
X191218000Y-107382750D01*
X191059250Y-107224000D01*
X190495000Y-107220928D01*
X190370518Y-107233188D01*
X190250820Y-107269498D01*
X190140506Y-107328463D01*
X190043815Y-107407815D01*
X189964463Y-107504506D01*
X189905498Y-107614820D01*
X189869188Y-107734518D01*
X189856928Y-107859000D01*
X169131802Y-107859000D01*
X160095802Y-98823000D01*
X167267928Y-98823000D01*
X167280188Y-98947482D01*
X167316498Y-99067180D01*
X167375463Y-99177494D01*
X167454815Y-99274185D01*
X167551506Y-99353537D01*
X167661820Y-99412502D01*
X167781518Y-99448812D01*
X167906000Y-99461072D01*
X168370250Y-99458000D01*
X168529000Y-99299250D01*
X168529000Y-98425000D01*
X168783000Y-98425000D01*
X168783000Y-99299250D01*
X168941750Y-99458000D01*
X169406000Y-99461072D01*
X169530482Y-99448812D01*
X169650180Y-99412502D01*
X169760494Y-99353537D01*
X169857185Y-99274185D01*
X169936537Y-99177494D01*
X169995502Y-99067180D01*
X170031812Y-98947482D01*
X170044072Y-98823000D01*
X170041000Y-98583750D01*
X169882250Y-98425000D01*
X168783000Y-98425000D01*
X168529000Y-98425000D01*
X167429750Y-98425000D01*
X167271000Y-98583750D01*
X167267928Y-98823000D01*
X160095802Y-98823000D01*
X148391804Y-87119003D01*
X148368001Y-87089999D01*
X148252276Y-86995026D01*
X148120247Y-86924454D01*
X147976986Y-86880997D01*
X147865333Y-86870000D01*
X147865322Y-86870000D01*
X147828000Y-86866324D01*
X147790678Y-86870000D01*
X140378954Y-86870000D01*
X140379727Y-86869680D01*
X140614759Y-86712637D01*
X140814637Y-86512759D01*
X140918043Y-86358000D01*
X148021199Y-86358000D01*
X159202201Y-97539003D01*
X159225999Y-97568001D01*
X159254997Y-97591799D01*
X159341723Y-97662974D01*
X159473753Y-97733546D01*
X159617014Y-97777003D01*
X159728667Y-97788000D01*
X159728677Y-97788000D01*
X159765999Y-97791676D01*
X159803322Y-97788000D01*
X167268121Y-97788000D01*
X167271000Y-98012250D01*
X167429750Y-98171000D01*
X168202891Y-98171000D01*
X168203600Y-98171215D01*
X168374021Y-98188000D01*
X168937979Y-98188000D01*
X169108400Y-98171215D01*
X169109109Y-98171000D01*
X169882250Y-98171000D01*
X170041000Y-98012250D01*
X170044072Y-97773000D01*
X170031812Y-97648518D01*
X169995502Y-97528820D01*
X169960907Y-97464098D01*
X170024215Y-97255400D01*
X170046612Y-97028000D01*
X170024215Y-96800600D01*
X169957885Y-96581940D01*
X169856895Y-96393000D01*
X169957885Y-96204060D01*
X170024215Y-95985400D01*
X170046612Y-95758000D01*
X170024215Y-95530600D01*
X169957885Y-95311940D01*
X169850171Y-95110421D01*
X169705212Y-94933788D01*
X169528579Y-94788829D01*
X169416000Y-94728654D01*
X169416000Y-93928043D01*
X169570759Y-93824637D01*
X169770637Y-93624759D01*
X169927680Y-93389727D01*
X170035853Y-93128574D01*
X170091000Y-92851335D01*
X170091000Y-92568665D01*
X170035853Y-92291426D01*
X169927680Y-92030273D01*
X169770637Y-91795241D01*
X169570759Y-91595363D01*
X169335727Y-91438320D01*
X169074574Y-91330147D01*
X168797335Y-91275000D01*
X168514665Y-91275000D01*
X168237426Y-91330147D01*
X167976273Y-91438320D01*
X167741241Y-91595363D01*
X167541363Y-91795241D01*
X167384320Y-92030273D01*
X167276147Y-92291426D01*
X167221000Y-92568665D01*
X167221000Y-92851335D01*
X167276147Y-93128574D01*
X167384320Y-93389727D01*
X167541363Y-93624759D01*
X167741241Y-93824637D01*
X167896001Y-93928044D01*
X167896000Y-94728654D01*
X167783421Y-94788829D01*
X167606788Y-94933788D01*
X167461829Y-95110421D01*
X167354115Y-95311940D01*
X167287785Y-95530600D01*
X167265388Y-95758000D01*
X167287785Y-95985400D01*
X167354115Y-96204060D01*
X167388292Y-96268000D01*
X160080802Y-96268000D01*
X148899804Y-85087003D01*
X148876001Y-85057999D01*
X148760276Y-84963026D01*
X148628247Y-84892454D01*
X148484986Y-84848997D01*
X148373333Y-84838000D01*
X148373322Y-84838000D01*
X148336000Y-84834324D01*
X148298678Y-84838000D01*
X140918043Y-84838000D01*
X140814637Y-84683241D01*
X140614759Y-84483363D01*
X140379727Y-84326320D01*
X140118574Y-84218147D01*
X139841335Y-84163000D01*
X139558665Y-84163000D01*
X139281426Y-84218147D01*
X139020273Y-84326320D01*
X138785241Y-84483363D01*
X138585363Y-84683241D01*
X138428320Y-84918273D01*
X138320147Y-85179426D01*
X138265000Y-85456665D01*
X138265000Y-85739335D01*
X138320147Y-86016574D01*
X138428320Y-86277727D01*
X138585363Y-86512759D01*
X138785241Y-86712637D01*
X139020273Y-86869680D01*
X139021046Y-86870000D01*
X118909322Y-86870000D01*
X118871999Y-86866324D01*
X118834676Y-86870000D01*
X118834667Y-86870000D01*
X118723014Y-86880997D01*
X118579753Y-86924454D01*
X118447724Y-86995026D01*
X118331999Y-87089999D01*
X118308201Y-87118997D01*
X115096003Y-90331196D01*
X115066999Y-90354999D01*
X115011871Y-90422174D01*
X114972026Y-90470724D01*
X114905986Y-90594276D01*
X114901454Y-90602754D01*
X114857997Y-90746015D01*
X114847000Y-90857668D01*
X114847000Y-90857678D01*
X114843324Y-90895000D01*
X114847000Y-90932323D01*
X114847000Y-91553821D01*
X114660368Y-91678525D01*
X114453525Y-91885368D01*
X114337000Y-92059760D01*
X114220475Y-91885368D01*
X114013632Y-91678525D01*
X113902000Y-91603935D01*
X113902000Y-91240867D01*
X120995868Y-84147000D01*
X125057375Y-84147000D01*
X125066188Y-84236482D01*
X125102498Y-84356180D01*
X125161463Y-84466494D01*
X125240815Y-84563185D01*
X125337506Y-84642537D01*
X125447820Y-84701502D01*
X125567518Y-84737812D01*
X125692000Y-84750072D01*
X127292000Y-84750072D01*
X127416482Y-84737812D01*
X127536180Y-84701502D01*
X127646494Y-84642537D01*
X127743185Y-84563185D01*
X127822537Y-84466494D01*
X127881502Y-84356180D01*
X127917812Y-84236482D01*
X127930072Y-84112000D01*
X127930072Y-83170665D01*
X132677000Y-83170665D01*
X132677000Y-83453335D01*
X132732147Y-83730574D01*
X132840320Y-83991727D01*
X132997363Y-84226759D01*
X133197241Y-84426637D01*
X133432273Y-84583680D01*
X133693426Y-84691853D01*
X133970665Y-84747000D01*
X134253335Y-84747000D01*
X134530574Y-84691853D01*
X134791727Y-84583680D01*
X135026759Y-84426637D01*
X135226637Y-84226759D01*
X135330043Y-84072000D01*
X148275199Y-84072000D01*
X156896201Y-92693003D01*
X156919999Y-92722001D01*
X157035724Y-92816974D01*
X157167753Y-92887546D01*
X157311014Y-92931003D01*
X157422667Y-92942000D01*
X157422676Y-92942000D01*
X157459999Y-92945676D01*
X157497322Y-92942000D01*
X158311091Y-92942000D01*
X158317082Y-92956463D01*
X158496013Y-93224252D01*
X158723748Y-93451987D01*
X158991537Y-93630918D01*
X159289088Y-93754168D01*
X159604967Y-93817000D01*
X159927033Y-93817000D01*
X160242912Y-93754168D01*
X160540463Y-93630918D01*
X160808252Y-93451987D01*
X161035987Y-93224252D01*
X161214918Y-92956463D01*
X161220909Y-92942000D01*
X163304678Y-92942000D01*
X163342000Y-92945676D01*
X163379322Y-92942000D01*
X163379333Y-92942000D01*
X163490986Y-92931003D01*
X163634247Y-92887546D01*
X163766276Y-92816974D01*
X163882001Y-92722001D01*
X163905804Y-92692997D01*
X169167003Y-87431799D01*
X169196001Y-87408001D01*
X169290974Y-87292276D01*
X169361546Y-87160247D01*
X169405003Y-87016986D01*
X169416000Y-86905333D01*
X169416000Y-86905323D01*
X169419676Y-86868000D01*
X169416000Y-86830677D01*
X169416000Y-86308043D01*
X169570759Y-86204637D01*
X169770637Y-86004759D01*
X169927680Y-85769727D01*
X170035853Y-85508574D01*
X170091000Y-85231335D01*
X170091000Y-84948665D01*
X170035853Y-84671426D01*
X169927680Y-84410273D01*
X169770637Y-84175241D01*
X169570759Y-83975363D01*
X169335727Y-83818320D01*
X169074574Y-83710147D01*
X168797335Y-83655000D01*
X168514665Y-83655000D01*
X168237426Y-83710147D01*
X167976273Y-83818320D01*
X167741241Y-83975363D01*
X167541363Y-84175241D01*
X167384320Y-84410273D01*
X167276147Y-84671426D01*
X167221000Y-84948665D01*
X167221000Y-85231335D01*
X167276147Y-85508574D01*
X167384320Y-85769727D01*
X167541363Y-86004759D01*
X167741241Y-86204637D01*
X167896001Y-86308044D01*
X167896001Y-86553197D01*
X163027199Y-91422000D01*
X161220909Y-91422000D01*
X161214918Y-91407537D01*
X161035987Y-91139748D01*
X160808252Y-90912013D01*
X160540463Y-90733082D01*
X160242912Y-90609832D01*
X159927033Y-90547000D01*
X159604967Y-90547000D01*
X159289088Y-90609832D01*
X158991537Y-90733082D01*
X158723748Y-90912013D01*
X158496013Y-91139748D01*
X158317082Y-91407537D01*
X158311091Y-91422000D01*
X157774802Y-91422000D01*
X149153804Y-82801003D01*
X149130001Y-82771999D01*
X149014276Y-82677026D01*
X148882247Y-82606454D01*
X148738986Y-82562997D01*
X148627333Y-82552000D01*
X148627322Y-82552000D01*
X148590000Y-82548324D01*
X148552678Y-82552000D01*
X135330043Y-82552000D01*
X135226637Y-82397241D01*
X135026759Y-82197363D01*
X134791727Y-82040320D01*
X134530574Y-81932147D01*
X134253335Y-81877000D01*
X133970665Y-81877000D01*
X133693426Y-81932147D01*
X133432273Y-82040320D01*
X133197241Y-82197363D01*
X132997363Y-82397241D01*
X132840320Y-82632273D01*
X132732147Y-82893426D01*
X132677000Y-83170665D01*
X127930072Y-83170665D01*
X127930072Y-82512000D01*
X127917812Y-82387518D01*
X127881502Y-82267820D01*
X127822537Y-82157506D01*
X127743185Y-82060815D01*
X127646494Y-81981463D01*
X127537607Y-81923261D01*
X127853868Y-81607000D01*
X149260133Y-81607000D01*
X152796563Y-85143432D01*
X152822709Y-85175291D01*
X152949854Y-85279636D01*
X153094913Y-85357172D01*
X153252311Y-85404918D01*
X153374981Y-85417000D01*
X153374982Y-85417000D01*
X153416000Y-85421040D01*
X153457018Y-85417000D01*
X158127928Y-85417000D01*
X158127928Y-85582000D01*
X158140188Y-85706482D01*
X158176498Y-85826180D01*
X158235463Y-85936494D01*
X158314815Y-86033185D01*
X158411506Y-86112537D01*
X158521820Y-86171502D01*
X158641518Y-86207812D01*
X158766000Y-86220072D01*
X160766000Y-86220072D01*
X160890482Y-86207812D01*
X161010180Y-86171502D01*
X161120494Y-86112537D01*
X161217185Y-86033185D01*
X161296537Y-85936494D01*
X161355502Y-85826180D01*
X161391812Y-85706482D01*
X161404072Y-85582000D01*
X161404072Y-83582000D01*
X161391812Y-83457518D01*
X161355502Y-83337820D01*
X161296537Y-83227506D01*
X161217185Y-83130815D01*
X161120494Y-83051463D01*
X161010180Y-82992498D01*
X160890482Y-82956188D01*
X160766000Y-82943928D01*
X158766000Y-82943928D01*
X158641518Y-82956188D01*
X158521820Y-82992498D01*
X158411506Y-83051463D01*
X158314815Y-83130815D01*
X158235463Y-83227506D01*
X158176498Y-83337820D01*
X158140188Y-83457518D01*
X158127928Y-83582000D01*
X158127928Y-83747000D01*
X153761869Y-83747000D01*
X150225446Y-80210579D01*
X150199291Y-80178709D01*
X150072146Y-80074364D01*
X149927087Y-79996828D01*
X149769689Y-79949082D01*
X149647019Y-79937000D01*
X149647018Y-79937000D01*
X149606000Y-79932960D01*
X149564982Y-79937000D01*
X127549018Y-79937000D01*
X127508000Y-79932960D01*
X127466981Y-79937000D01*
X127344311Y-79949082D01*
X127186913Y-79996828D01*
X127041854Y-80074364D01*
X126914709Y-80178709D01*
X126888558Y-80210574D01*
X125930579Y-81168554D01*
X125898709Y-81194709D01*
X125794365Y-81321854D01*
X125794364Y-81321855D01*
X125716828Y-81466914D01*
X125669082Y-81624312D01*
X125652960Y-81788000D01*
X125657000Y-81829019D01*
X125657000Y-81877375D01*
X125567518Y-81886188D01*
X125447820Y-81922498D01*
X125337506Y-81981463D01*
X125240815Y-82060815D01*
X125161463Y-82157506D01*
X125102498Y-82267820D01*
X125066188Y-82387518D01*
X125057375Y-82477000D01*
X120691007Y-82477000D01*
X120649999Y-82472961D01*
X120608991Y-82477000D01*
X120608981Y-82477000D01*
X120486311Y-82489082D01*
X120328913Y-82536828D01*
X120183854Y-82614364D01*
X120056709Y-82718709D01*
X120030559Y-82750573D01*
X112505579Y-90275554D01*
X112473709Y-90301709D01*
X112406177Y-90383998D01*
X112369364Y-90428855D01*
X112291828Y-90573914D01*
X112244082Y-90731312D01*
X112227960Y-90895000D01*
X112232000Y-90936019D01*
X112232000Y-91603935D01*
X112120368Y-91678525D01*
X111988513Y-91810380D01*
X111966502Y-91737820D01*
X111907537Y-91627506D01*
X111828185Y-91530815D01*
X111731494Y-91451463D01*
X111621180Y-91392498D01*
X111501482Y-91356188D01*
X111377000Y-91343928D01*
X110812750Y-91347000D01*
X110654000Y-91505750D01*
X110654000Y-92705000D01*
X110674000Y-92705000D01*
X110674000Y-92959000D01*
X110654000Y-92959000D01*
X110654000Y-94158250D01*
X110812750Y-94317000D01*
X111377000Y-94320072D01*
X111501482Y-94307812D01*
X111621180Y-94271502D01*
X111731494Y-94212537D01*
X111828185Y-94133185D01*
X111907537Y-94036494D01*
X111966502Y-93926180D01*
X111988513Y-93853620D01*
X112120368Y-93985475D01*
X112232000Y-94060065D01*
X112232001Y-100256134D01*
X112194446Y-100218578D01*
X112168291Y-100186709D01*
X112041146Y-100082364D01*
X111896087Y-100004828D01*
X111738689Y-99957082D01*
X111616019Y-99945000D01*
X111616018Y-99945000D01*
X111575000Y-99940960D01*
X111533982Y-99945000D01*
X104578065Y-99945000D01*
X104503475Y-99833368D01*
X104296632Y-99626525D01*
X104122240Y-99510000D01*
X104296632Y-99393475D01*
X104503475Y-99186632D01*
X104665990Y-98943411D01*
X104777932Y-98673158D01*
X104835000Y-98386260D01*
X104835000Y-98093740D01*
X104777932Y-97806842D01*
X104665990Y-97536589D01*
X104503475Y-97293368D01*
X104296632Y-97086525D01*
X104122240Y-96970000D01*
X104296632Y-96853475D01*
X104503475Y-96646632D01*
X104665990Y-96403411D01*
X104777932Y-96133158D01*
X104835000Y-95846260D01*
X104835000Y-95553740D01*
X104777932Y-95266842D01*
X104665990Y-94996589D01*
X104503475Y-94753368D01*
X104296632Y-94546525D01*
X104122240Y-94430000D01*
X104296632Y-94313475D01*
X104503475Y-94106632D01*
X104665990Y-93863411D01*
X104741132Y-93682000D01*
X109038928Y-93682000D01*
X109051188Y-93806482D01*
X109087498Y-93926180D01*
X109146463Y-94036494D01*
X109225815Y-94133185D01*
X109322506Y-94212537D01*
X109432820Y-94271502D01*
X109552518Y-94307812D01*
X109677000Y-94320072D01*
X110241250Y-94317000D01*
X110400000Y-94158250D01*
X110400000Y-92959000D01*
X109200750Y-92959000D01*
X109042000Y-93117750D01*
X109038928Y-93682000D01*
X104741132Y-93682000D01*
X104777932Y-93593158D01*
X104835000Y-93306260D01*
X104835000Y-93013740D01*
X104777932Y-92726842D01*
X104665990Y-92456589D01*
X104503475Y-92213368D01*
X104296632Y-92006525D01*
X104259928Y-91982000D01*
X109038928Y-91982000D01*
X109042000Y-92546250D01*
X109200750Y-92705000D01*
X110400000Y-92705000D01*
X110400000Y-91505750D01*
X110241250Y-91347000D01*
X109677000Y-91343928D01*
X109552518Y-91356188D01*
X109432820Y-91392498D01*
X109322506Y-91451463D01*
X109225815Y-91530815D01*
X109146463Y-91627506D01*
X109087498Y-91737820D01*
X109051188Y-91857518D01*
X109038928Y-91982000D01*
X104259928Y-91982000D01*
X104122240Y-91890000D01*
X104296632Y-91773475D01*
X104503475Y-91566632D01*
X104665990Y-91323411D01*
X104777932Y-91053158D01*
X104835000Y-90766260D01*
X104835000Y-90473740D01*
X104777932Y-90186842D01*
X104665990Y-89916589D01*
X104503475Y-89673368D01*
X104296632Y-89466525D01*
X104122240Y-89350000D01*
X104296632Y-89233475D01*
X104503475Y-89026632D01*
X104665990Y-88783411D01*
X104777932Y-88513158D01*
X104835000Y-88226260D01*
X104835000Y-87933740D01*
X104777932Y-87646842D01*
X104665990Y-87376589D01*
X104503475Y-87133368D01*
X104296632Y-86926525D01*
X104053411Y-86764010D01*
X103783158Y-86652068D01*
X103496260Y-86595000D01*
X103203740Y-86595000D01*
X102916842Y-86652068D01*
X102646589Y-86764010D01*
X102403368Y-86926525D01*
X102196525Y-87133368D01*
X102034010Y-87376589D01*
X101922068Y-87646842D01*
X101865000Y-87933740D01*
X101865000Y-88226260D01*
X101922068Y-88513158D01*
X102034010Y-88783411D01*
X102196525Y-89026632D01*
X102403368Y-89233475D01*
X102577760Y-89350000D01*
X102403368Y-89466525D01*
X102196525Y-89673368D01*
X102071822Y-89860000D01*
X101695323Y-89860000D01*
X101658000Y-89856324D01*
X101620677Y-89860000D01*
X101620667Y-89860000D01*
X101509014Y-89870997D01*
X101365753Y-89914454D01*
X101233724Y-89985026D01*
X101117999Y-90079999D01*
X101094201Y-90108997D01*
X98548998Y-92654201D01*
X98520000Y-92677999D01*
X98496202Y-92706997D01*
X98496201Y-92706998D01*
X98425026Y-92793724D01*
X98354454Y-92925754D01*
X98327765Y-93013740D01*
X98310998Y-93069014D01*
X98306198Y-93117750D01*
X98296324Y-93218000D01*
X98300001Y-93255332D01*
X98300000Y-105880678D01*
X98296324Y-105918000D01*
X98300000Y-105955322D01*
X98300000Y-105955332D01*
X98310997Y-106066985D01*
X98354454Y-106210246D01*
X98425026Y-106342276D01*
X98462348Y-106387753D01*
X98519999Y-106458001D01*
X98549003Y-106481804D01*
X108402201Y-116335003D01*
X108425999Y-116364001D01*
X108454997Y-116387799D01*
X108541724Y-116458974D01*
X108673753Y-116529546D01*
X108790631Y-116565000D01*
X94554447Y-116565000D01*
X94325760Y-116336314D01*
X94598075Y-116449110D01*
X95029872Y-116535000D01*
X95470128Y-116535000D01*
X95901925Y-116449110D01*
X96308669Y-116280631D01*
X96674729Y-116036038D01*
X96986038Y-115724729D01*
X97230631Y-115358669D01*
X97399110Y-114951925D01*
X97485000Y-114520128D01*
X97485000Y-114079872D01*
X97399110Y-113648075D01*
X97230631Y-113241331D01*
X96986038Y-112875271D01*
X96674729Y-112563962D01*
X96308669Y-112319369D01*
X95901925Y-112150890D01*
X95470128Y-112065000D01*
X95029872Y-112065000D01*
X94598075Y-112150890D01*
X94191331Y-112319369D01*
X93825271Y-112563962D01*
X93513962Y-112875271D01*
X93269369Y-113241331D01*
X93100890Y-113648075D01*
X93015000Y-114079872D01*
X93015000Y-114520128D01*
X93100890Y-114951925D01*
X93213687Y-115224240D01*
X90985000Y-112995554D01*
X90985000Y-79604446D01*
X93213687Y-77375760D01*
X93100890Y-77648075D01*
X93015000Y-78079872D01*
X93015000Y-78520128D01*
X93100890Y-78951925D01*
X93269369Y-79358669D01*
X93513962Y-79724729D01*
X93825271Y-80036038D01*
X94191331Y-80280631D01*
X94598075Y-80449110D01*
X95029872Y-80535000D01*
X95470128Y-80535000D01*
X95901925Y-80449110D01*
X96308669Y-80280631D01*
X96674729Y-80036038D01*
X96986038Y-79724729D01*
X97230631Y-79358669D01*
X97399110Y-78951925D01*
X97485000Y-78520128D01*
X97485000Y-78079872D01*
X97399110Y-77648075D01*
X97230631Y-77241331D01*
X96986038Y-76875271D01*
X96674729Y-76563962D01*
X96308669Y-76319369D01*
X95901925Y-76150890D01*
X95470128Y-76065000D01*
X95029872Y-76065000D01*
X94598075Y-76150890D01*
X94325760Y-76263686D01*
X94554447Y-76035000D01*
X110222554Y-76035000D01*
X113481746Y-79294193D01*
G36*
X162556997Y-108513799D02*
G01*
X162557002Y-108513803D01*
X162904185Y-108860986D01*
X163070001Y-109026803D01*
X163070001Y-109957465D01*
X162874698Y-110087961D01*
X162665961Y-110296698D01*
X162560000Y-110455281D01*
X162454039Y-110296698D01*
X162245302Y-110087961D01*
X161999853Y-109923958D01*
X161727125Y-109810990D01*
X161437599Y-109753400D01*
X161142401Y-109753400D01*
X160852875Y-109810990D01*
X160580147Y-109923958D01*
X160334698Y-110087961D01*
X160125961Y-110296698D01*
X160020000Y-110455281D01*
X159914039Y-110296698D01*
X159705302Y-110087961D01*
X159459853Y-109923958D01*
X159187125Y-109810990D01*
X158897599Y-109753400D01*
X158602401Y-109753400D01*
X158312875Y-109810990D01*
X158040147Y-109923958D01*
X157794698Y-110087961D01*
X157680636Y-110202023D01*
X157663102Y-110144220D01*
X157604137Y-110033906D01*
X157524785Y-109937215D01*
X157428094Y-109857863D01*
X157317780Y-109798898D01*
X157198082Y-109762588D01*
X157073600Y-109750328D01*
X155346400Y-109750328D01*
X155221918Y-109762588D01*
X155102220Y-109798898D01*
X154991906Y-109857863D01*
X154895215Y-109937215D01*
X154815863Y-110033906D01*
X154756898Y-110144220D01*
X154720588Y-110263918D01*
X154708328Y-110388400D01*
X154708328Y-112115600D01*
X154720588Y-112240082D01*
X154756898Y-112359780D01*
X154815863Y-112470094D01*
X154895215Y-112566785D01*
X154991906Y-112646137D01*
X155102220Y-112705102D01*
X155164692Y-112724053D01*
X155003183Y-112903512D01*
X154853036Y-113156022D01*
X154755037Y-113432973D01*
X154875536Y-113665000D01*
X156083000Y-113665000D01*
X156083000Y-113645000D01*
X156337000Y-113645000D01*
X156337000Y-113665000D01*
X156357000Y-113665000D01*
X156357000Y-113919000D01*
X156337000Y-113919000D01*
X156337000Y-115125817D01*
X156569026Y-115246958D01*
X156719814Y-115201222D01*
X156984944Y-115074684D01*
X157220293Y-114898854D01*
X157416817Y-114680488D01*
X157475441Y-114581897D01*
X157585961Y-114747302D01*
X157794698Y-114956039D01*
X158040147Y-115120042D01*
X158312875Y-115233010D01*
X158602401Y-115290600D01*
X158897599Y-115290600D01*
X159187125Y-115233010D01*
X159459853Y-115120042D01*
X159705302Y-114956039D01*
X159914039Y-114747302D01*
X160020000Y-114588719D01*
X160125961Y-114747302D01*
X160334698Y-114956039D01*
X160530001Y-115086536D01*
X160530001Y-115278668D01*
X160526324Y-115316000D01*
X160530001Y-115353333D01*
X160540998Y-115464986D01*
X160554180Y-115508442D01*
X160584454Y-115608246D01*
X160655026Y-115740276D01*
X160723737Y-115824000D01*
X160750000Y-115856001D01*
X160778998Y-115879799D01*
X161464198Y-116565000D01*
X136065369Y-116565000D01*
X136182247Y-116529546D01*
X136314276Y-116458974D01*
X136430001Y-116364001D01*
X136453803Y-116334998D01*
X136909002Y-115879800D01*
X136938001Y-115856001D01*
X137032974Y-115740276D01*
X137103546Y-115608247D01*
X137147003Y-115464986D01*
X137158000Y-115353333D01*
X137158000Y-115353324D01*
X137161676Y-115316001D01*
X137158000Y-115278678D01*
X137158000Y-115086535D01*
X137353302Y-114956039D01*
X137562039Y-114747302D01*
X137668000Y-114588719D01*
X137773961Y-114747302D01*
X137982698Y-114956039D01*
X138228147Y-115120042D01*
X138500875Y-115233010D01*
X138790401Y-115290600D01*
X139085599Y-115290600D01*
X139375125Y-115233010D01*
X139647853Y-115120042D01*
X139893302Y-114956039D01*
X140102039Y-114747302D01*
X140208000Y-114588719D01*
X140313961Y-114747302D01*
X140522698Y-114956039D01*
X140768147Y-115120042D01*
X141040875Y-115233010D01*
X141330401Y-115290600D01*
X141625599Y-115290600D01*
X141915125Y-115233010D01*
X142187853Y-115120042D01*
X142433302Y-114956039D01*
X142642039Y-114747302D01*
X142748000Y-114588719D01*
X142853961Y-114747302D01*
X143062698Y-114956039D01*
X143308147Y-115120042D01*
X143580875Y-115233010D01*
X143870401Y-115290600D01*
X144165599Y-115290600D01*
X144455125Y-115233010D01*
X144727853Y-115120042D01*
X144973302Y-114956039D01*
X145182039Y-114747302D01*
X145315063Y-114548216D01*
X145388300Y-114541003D01*
X145531561Y-114497546D01*
X145663590Y-114426974D01*
X145779315Y-114332001D01*
X145803117Y-114302998D01*
X145955088Y-114151027D01*
X154755037Y-114151027D01*
X154853036Y-114427978D01*
X155003183Y-114680488D01*
X155199707Y-114898854D01*
X155435056Y-115074684D01*
X155700186Y-115201222D01*
X155850974Y-115246958D01*
X156083000Y-115125817D01*
X156083000Y-113919000D01*
X154875536Y-113919000D01*
X154755037Y-114151027D01*
X145955088Y-114151027D01*
X146307003Y-113799112D01*
X146336001Y-113775315D01*
X146389342Y-113710319D01*
X146430974Y-113659591D01*
X146501546Y-113527561D01*
X146523776Y-113454276D01*
X146545003Y-113384300D01*
X146556000Y-113272647D01*
X146556000Y-113272637D01*
X146559676Y-113235314D01*
X146556000Y-113197991D01*
X146556000Y-96303323D01*
X146559676Y-96266000D01*
X146556000Y-96228677D01*
X146556000Y-96228667D01*
X146545003Y-96117014D01*
X146501546Y-95973753D01*
X146465858Y-95906986D01*
X146430974Y-95841723D01*
X146359799Y-95754997D01*
X146336001Y-95725999D01*
X146307003Y-95702201D01*
X143311804Y-92707003D01*
X143288001Y-92677999D01*
X143172276Y-92583026D01*
X143040247Y-92512454D01*
X142896986Y-92468997D01*
X142785333Y-92458000D01*
X142785322Y-92458000D01*
X142748000Y-92454324D01*
X142710678Y-92458000D01*
X140918043Y-92458000D01*
X140814637Y-92303241D01*
X140614759Y-92103363D01*
X140379727Y-91946320D01*
X140118574Y-91838147D01*
X139841335Y-91783000D01*
X139558665Y-91783000D01*
X139281426Y-91838147D01*
X139020273Y-91946320D01*
X138785241Y-92103363D01*
X138585363Y-92303241D01*
X138428320Y-92538273D01*
X138320147Y-92799426D01*
X138265000Y-93076665D01*
X138265000Y-93359335D01*
X138320147Y-93636574D01*
X138428320Y-93897727D01*
X138585363Y-94132759D01*
X138785241Y-94332637D01*
X139020273Y-94489680D01*
X139281426Y-94597853D01*
X139558665Y-94653000D01*
X139841335Y-94653000D01*
X140118574Y-94597853D01*
X140379727Y-94489680D01*
X140614759Y-94332637D01*
X140814637Y-94132759D01*
X140918043Y-93978000D01*
X142433199Y-93978000D01*
X145036001Y-96580803D01*
X145036000Y-110150659D01*
X144973302Y-110087961D01*
X144727853Y-109923958D01*
X144455125Y-109810990D01*
X144165599Y-109753400D01*
X143870401Y-109753400D01*
X143580875Y-109810990D01*
X143308147Y-109923958D01*
X143062698Y-110087961D01*
X142853961Y-110296698D01*
X142748000Y-110455281D01*
X142642039Y-110296698D01*
X142433302Y-110087961D01*
X142187853Y-109923958D01*
X141915125Y-109810990D01*
X141625599Y-109753400D01*
X141330401Y-109753400D01*
X141040875Y-109810990D01*
X140768147Y-109923958D01*
X140522698Y-110087961D01*
X140313961Y-110296698D01*
X140208000Y-110455281D01*
X140102039Y-110296698D01*
X139893302Y-110087961D01*
X139647853Y-109923958D01*
X139375125Y-109810990D01*
X139085599Y-109753400D01*
X138790401Y-109753400D01*
X138500875Y-109810990D01*
X138228147Y-109923958D01*
X137982698Y-110087961D01*
X137773961Y-110296698D01*
X137668000Y-110455281D01*
X137562039Y-110296698D01*
X137353302Y-110087961D01*
X137107853Y-109923958D01*
X136835125Y-109810990D01*
X136545599Y-109753400D01*
X136250401Y-109753400D01*
X135960875Y-109810990D01*
X135688147Y-109923958D01*
X135442698Y-110087961D01*
X135328636Y-110202023D01*
X135311102Y-110144220D01*
X135252137Y-110033906D01*
X135172785Y-109937215D01*
X135076094Y-109857863D01*
X134965780Y-109798898D01*
X134846082Y-109762588D01*
X134721600Y-109750328D01*
X132994400Y-109750328D01*
X132869918Y-109762588D01*
X132750220Y-109798898D01*
X132639906Y-109857863D01*
X132543215Y-109937215D01*
X132463863Y-110033906D01*
X132404898Y-110144220D01*
X132368588Y-110263918D01*
X132356328Y-110388400D01*
X132356328Y-112115600D01*
X132368588Y-112240082D01*
X132404898Y-112359780D01*
X132463863Y-112470094D01*
X132543215Y-112566785D01*
X132639906Y-112646137D01*
X132750220Y-112705102D01*
X132812692Y-112724053D01*
X132651183Y-112903512D01*
X132501036Y-113156022D01*
X132403037Y-113432973D01*
X132523536Y-113665000D01*
X133731000Y-113665000D01*
X133731000Y-113645000D01*
X133985000Y-113645000D01*
X133985000Y-113665000D01*
X134005000Y-113665000D01*
X134005000Y-113919000D01*
X133985000Y-113919000D01*
X133985000Y-113939000D01*
X133731000Y-113939000D01*
X133731000Y-113919000D01*
X132523536Y-113919000D01*
X132403037Y-114151027D01*
X132501036Y-114427978D01*
X132651183Y-114680488D01*
X132847707Y-114898854D01*
X133068755Y-115064000D01*
X109280802Y-115064000D01*
X107878802Y-113662000D01*
X109038928Y-113662000D01*
X109051188Y-113786482D01*
X109087498Y-113906180D01*
X109146463Y-114016494D01*
X109225815Y-114113185D01*
X109322506Y-114192537D01*
X109432820Y-114251502D01*
X109552518Y-114287812D01*
X109677000Y-114300072D01*
X110241250Y-114297000D01*
X110400000Y-114138250D01*
X110400000Y-112939000D01*
X109200750Y-112939000D01*
X109042000Y-113097750D01*
X109038928Y-113662000D01*
X107878802Y-113662000D01*
X106178802Y-111962000D01*
X109038928Y-111962000D01*
X109042000Y-112526250D01*
X109200750Y-112685000D01*
X110400000Y-112685000D01*
X110400000Y-111485750D01*
X110241250Y-111327000D01*
X109677000Y-111323928D01*
X109552518Y-111336188D01*
X109432820Y-111372498D01*
X109322506Y-111431463D01*
X109225815Y-111510815D01*
X109146463Y-111607506D01*
X109087498Y-111717820D01*
X109051188Y-111837518D01*
X109038928Y-111962000D01*
X106178802Y-111962000D01*
X99820000Y-105603199D01*
X99820000Y-104170000D01*
X101861928Y-104170000D01*
X101874188Y-104294482D01*
X101910498Y-104414180D01*
X101969463Y-104524494D01*
X102048815Y-104621185D01*
X102145506Y-104700537D01*
X102255820Y-104759502D01*
X102375518Y-104795812D01*
X102500000Y-104808072D01*
X103064250Y-104805000D01*
X103223000Y-104646250D01*
X103223000Y-103447000D01*
X103477000Y-103447000D01*
X103477000Y-104646250D01*
X103635750Y-104805000D01*
X104200000Y-104808072D01*
X104324482Y-104795812D01*
X104444180Y-104759502D01*
X104554494Y-104700537D01*
X104651185Y-104621185D01*
X104730537Y-104524494D01*
X104789502Y-104414180D01*
X104825812Y-104294482D01*
X104838072Y-104170000D01*
X104835000Y-103605750D01*
X104676250Y-103447000D01*
X103477000Y-103447000D01*
X103223000Y-103447000D01*
X102023750Y-103447000D01*
X101865000Y-103605750D01*
X101861928Y-104170000D01*
X99820000Y-104170000D01*
X99820000Y-93532801D01*
X101972802Y-91380000D01*
X102071822Y-91380000D01*
X102196525Y-91566632D01*
X102403368Y-91773475D01*
X102577760Y-91890000D01*
X102403368Y-92006525D01*
X102196525Y-92213368D01*
X102034010Y-92456589D01*
X101922068Y-92726842D01*
X101865000Y-93013740D01*
X101865000Y-93306260D01*
X101922068Y-93593158D01*
X102034010Y-93863411D01*
X102196525Y-94106632D01*
X102403368Y-94313475D01*
X102577760Y-94430000D01*
X102403368Y-94546525D01*
X102196525Y-94753368D01*
X102034010Y-94996589D01*
X101922068Y-95266842D01*
X101865000Y-95553740D01*
X101865000Y-95846260D01*
X101922068Y-96133158D01*
X102034010Y-96403411D01*
X102196525Y-96646632D01*
X102403368Y-96853475D01*
X102577760Y-96970000D01*
X102403368Y-97086525D01*
X102196525Y-97293368D01*
X102034010Y-97536589D01*
X101922068Y-97806842D01*
X101865000Y-98093740D01*
X101865000Y-98386260D01*
X101922068Y-98673158D01*
X102034010Y-98943411D01*
X102196525Y-99186632D01*
X102403368Y-99393475D01*
X102577760Y-99510000D01*
X102403368Y-99626525D01*
X102196525Y-99833368D01*
X102034010Y-100076589D01*
X101922068Y-100346842D01*
X101865000Y-100633740D01*
X101865000Y-100926260D01*
X101922068Y-101213158D01*
X102034010Y-101483411D01*
X102196525Y-101726632D01*
X102328380Y-101858487D01*
X102255820Y-101880498D01*
X102145506Y-101939463D01*
X102048815Y-102018815D01*
X101969463Y-102115506D01*
X101910498Y-102225820D01*
X101874188Y-102345518D01*
X101861928Y-102470000D01*
X101865000Y-103034250D01*
X102023750Y-103193000D01*
X103223000Y-103193000D01*
X103223000Y-103173000D01*
X103477000Y-103173000D01*
X103477000Y-103193000D01*
X104676250Y-103193000D01*
X104835000Y-103034250D01*
X104838072Y-102470000D01*
X104825812Y-102345518D01*
X104789502Y-102225820D01*
X104730537Y-102115506D01*
X104651185Y-102018815D01*
X104554494Y-101939463D01*
X104444180Y-101880498D01*
X104371620Y-101858487D01*
X104503475Y-101726632D01*
X104578065Y-101615000D01*
X111229133Y-101615000D01*
X112232000Y-102617869D01*
X112232001Y-111583934D01*
X112120368Y-111658525D01*
X111988513Y-111790380D01*
X111966502Y-111717820D01*
X111907537Y-111607506D01*
X111828185Y-111510815D01*
X111731494Y-111431463D01*
X111621180Y-111372498D01*
X111501482Y-111336188D01*
X111377000Y-111323928D01*
X110812750Y-111327000D01*
X110654000Y-111485750D01*
X110654000Y-112685000D01*
X110674000Y-112685000D01*
X110674000Y-112939000D01*
X110654000Y-112939000D01*
X110654000Y-114138250D01*
X110812750Y-114297000D01*
X111377000Y-114300072D01*
X111501482Y-114287812D01*
X111621180Y-114251502D01*
X111731494Y-114192537D01*
X111828185Y-114113185D01*
X111907537Y-114016494D01*
X111966502Y-113906180D01*
X111988513Y-113833620D01*
X112120368Y-113965475D01*
X112363589Y-114127990D01*
X112633842Y-114239932D01*
X112920740Y-114297000D01*
X113213260Y-114297000D01*
X113500158Y-114239932D01*
X113770411Y-114127990D01*
X114013632Y-113965475D01*
X114220475Y-113758632D01*
X114337000Y-113584240D01*
X114453525Y-113758632D01*
X114660368Y-113965475D01*
X114903589Y-114127990D01*
X115173842Y-114239932D01*
X115460740Y-114297000D01*
X115753260Y-114297000D01*
X116040158Y-114239932D01*
X116310411Y-114127990D01*
X116553632Y-113965475D01*
X116760475Y-113758632D01*
X116877000Y-113584240D01*
X116993525Y-113758632D01*
X117200368Y-113965475D01*
X117443589Y-114127990D01*
X117713842Y-114239932D01*
X118000740Y-114297000D01*
X118293260Y-114297000D01*
X118580158Y-114239932D01*
X118850411Y-114127990D01*
X119093632Y-113965475D01*
X119300475Y-113758632D01*
X119417000Y-113584240D01*
X119533525Y-113758632D01*
X119740368Y-113965475D01*
X119983589Y-114127990D01*
X120253842Y-114239932D01*
X120540740Y-114297000D01*
X120833260Y-114297000D01*
X121120158Y-114239932D01*
X121390411Y-114127990D01*
X121633632Y-113965475D01*
X121840475Y-113758632D01*
X121957000Y-113584240D01*
X122073525Y-113758632D01*
X122280368Y-113965475D01*
X122523589Y-114127990D01*
X122793842Y-114239932D01*
X123080740Y-114297000D01*
X123373260Y-114297000D01*
X123660158Y-114239932D01*
X123930411Y-114127990D01*
X124173632Y-113965475D01*
X124380475Y-113758632D01*
X124497000Y-113584240D01*
X124613525Y-113758632D01*
X124820368Y-113965475D01*
X125063589Y-114127990D01*
X125333842Y-114239932D01*
X125620740Y-114297000D01*
X125913260Y-114297000D01*
X126200158Y-114239932D01*
X126470411Y-114127990D01*
X126713632Y-113965475D01*
X126920475Y-113758632D01*
X127082990Y-113515411D01*
X127194932Y-113245158D01*
X127252000Y-112958260D01*
X127252000Y-112665740D01*
X127194932Y-112378842D01*
X127082990Y-112108589D01*
X126920475Y-111865368D01*
X126713632Y-111658525D01*
X126527000Y-111533822D01*
X126527000Y-94110178D01*
X126713632Y-93985475D01*
X126920475Y-93778632D01*
X127082990Y-93535411D01*
X127194932Y-93265158D01*
X127252000Y-92978260D01*
X127252000Y-92685740D01*
X127194932Y-92398842D01*
X127082990Y-92128589D01*
X126920475Y-91885368D01*
X126713632Y-91678525D01*
X126470411Y-91516010D01*
X126200158Y-91404068D01*
X125913260Y-91347000D01*
X125620740Y-91347000D01*
X125333842Y-91404068D01*
X125063589Y-91516010D01*
X124820368Y-91678525D01*
X124613525Y-91885368D01*
X124497000Y-92059760D01*
X124380475Y-91885368D01*
X124173632Y-91678525D01*
X123987000Y-91553822D01*
X123987000Y-91209801D01*
X124266802Y-90930000D01*
X144973199Y-90930000D01*
X162556997Y-108513799D01*
G37*
X162556997Y-108513799D02*
X162557002Y-108513803D01*
X162904185Y-108860986D01*
X163070001Y-109026803D01*
X163070001Y-109957465D01*
X162874698Y-110087961D01*
X162665961Y-110296698D01*
X162560000Y-110455281D01*
X162454039Y-110296698D01*
X162245302Y-110087961D01*
X161999853Y-109923958D01*
X161727125Y-109810990D01*
X161437599Y-109753400D01*
X161142401Y-109753400D01*
X160852875Y-109810990D01*
X160580147Y-109923958D01*
X160334698Y-110087961D01*
X160125961Y-110296698D01*
X160020000Y-110455281D01*
X159914039Y-110296698D01*
X159705302Y-110087961D01*
X159459853Y-109923958D01*
X159187125Y-109810990D01*
X158897599Y-109753400D01*
X158602401Y-109753400D01*
X158312875Y-109810990D01*
X158040147Y-109923958D01*
X157794698Y-110087961D01*
X157680636Y-110202023D01*
X157663102Y-110144220D01*
X157604137Y-110033906D01*
X157524785Y-109937215D01*
X157428094Y-109857863D01*
X157317780Y-109798898D01*
X157198082Y-109762588D01*
X157073600Y-109750328D01*
X155346400Y-109750328D01*
X155221918Y-109762588D01*
X155102220Y-109798898D01*
X154991906Y-109857863D01*
X154895215Y-109937215D01*
X154815863Y-110033906D01*
X154756898Y-110144220D01*
X154720588Y-110263918D01*
X154708328Y-110388400D01*
X154708328Y-112115600D01*
X154720588Y-112240082D01*
X154756898Y-112359780D01*
X154815863Y-112470094D01*
X154895215Y-112566785D01*
X154991906Y-112646137D01*
X155102220Y-112705102D01*
X155164692Y-112724053D01*
X155003183Y-112903512D01*
X154853036Y-113156022D01*
X154755037Y-113432973D01*
X154875536Y-113665000D01*
X156083000Y-113665000D01*
X156083000Y-113645000D01*
X156337000Y-113645000D01*
X156337000Y-113665000D01*
X156357000Y-113665000D01*
X156357000Y-113919000D01*
X156337000Y-113919000D01*
X156337000Y-115125817D01*
X156569026Y-115246958D01*
X156719814Y-115201222D01*
X156984944Y-115074684D01*
X157220293Y-114898854D01*
X157416817Y-114680488D01*
X157475441Y-114581897D01*
X157585961Y-114747302D01*
X157794698Y-114956039D01*
X158040147Y-115120042D01*
X158312875Y-115233010D01*
X158602401Y-115290600D01*
X158897599Y-115290600D01*
X159187125Y-115233010D01*
X159459853Y-115120042D01*
X159705302Y-114956039D01*
X159914039Y-114747302D01*
X160020000Y-114588719D01*
X160125961Y-114747302D01*
X160334698Y-114956039D01*
X160530001Y-115086536D01*
X160530001Y-115278668D01*
X160526324Y-115316000D01*
X160530001Y-115353333D01*
X160540998Y-115464986D01*
X160554180Y-115508442D01*
X160584454Y-115608246D01*
X160655026Y-115740276D01*
X160723737Y-115824000D01*
X160750000Y-115856001D01*
X160778998Y-115879799D01*
X161464198Y-116565000D01*
X136065369Y-116565000D01*
X136182247Y-116529546D01*
X136314276Y-116458974D01*
X136430001Y-116364001D01*
X136453803Y-116334998D01*
X136909002Y-115879800D01*
X136938001Y-115856001D01*
X137032974Y-115740276D01*
X137103546Y-115608247D01*
X137147003Y-115464986D01*
X137158000Y-115353333D01*
X137158000Y-115353324D01*
X137161676Y-115316001D01*
X137158000Y-115278678D01*
X137158000Y-115086535D01*
X137353302Y-114956039D01*
X137562039Y-114747302D01*
X137668000Y-114588719D01*
X137773961Y-114747302D01*
X137982698Y-114956039D01*
X138228147Y-115120042D01*
X138500875Y-115233010D01*
X138790401Y-115290600D01*
X139085599Y-115290600D01*
X139375125Y-115233010D01*
X139647853Y-115120042D01*
X139893302Y-114956039D01*
X140102039Y-114747302D01*
X140208000Y-114588719D01*
X140313961Y-114747302D01*
X140522698Y-114956039D01*
X140768147Y-115120042D01*
X141040875Y-115233010D01*
X141330401Y-115290600D01*
X141625599Y-115290600D01*
X141915125Y-115233010D01*
X142187853Y-115120042D01*
X142433302Y-114956039D01*
X142642039Y-114747302D01*
X142748000Y-114588719D01*
X142853961Y-114747302D01*
X143062698Y-114956039D01*
X143308147Y-115120042D01*
X143580875Y-115233010D01*
X143870401Y-115290600D01*
X144165599Y-115290600D01*
X144455125Y-115233010D01*
X144727853Y-115120042D01*
X144973302Y-114956039D01*
X145182039Y-114747302D01*
X145315063Y-114548216D01*
X145388300Y-114541003D01*
X145531561Y-114497546D01*
X145663590Y-114426974D01*
X145779315Y-114332001D01*
X145803117Y-114302998D01*
X145955088Y-114151027D01*
X154755037Y-114151027D01*
X154853036Y-114427978D01*
X155003183Y-114680488D01*
X155199707Y-114898854D01*
X155435056Y-115074684D01*
X155700186Y-115201222D01*
X155850974Y-115246958D01*
X156083000Y-115125817D01*
X156083000Y-113919000D01*
X154875536Y-113919000D01*
X154755037Y-114151027D01*
X145955088Y-114151027D01*
X146307003Y-113799112D01*
X146336001Y-113775315D01*
X146389342Y-113710319D01*
X146430974Y-113659591D01*
X146501546Y-113527561D01*
X146523776Y-113454276D01*
X146545003Y-113384300D01*
X146556000Y-113272647D01*
X146556000Y-113272637D01*
X146559676Y-113235314D01*
X146556000Y-113197991D01*
X146556000Y-96303323D01*
X146559676Y-96266000D01*
X146556000Y-96228677D01*
X146556000Y-96228667D01*
X146545003Y-96117014D01*
X146501546Y-95973753D01*
X146465858Y-95906986D01*
X146430974Y-95841723D01*
X146359799Y-95754997D01*
X146336001Y-95725999D01*
X146307003Y-95702201D01*
X143311804Y-92707003D01*
X143288001Y-92677999D01*
X143172276Y-92583026D01*
X143040247Y-92512454D01*
X142896986Y-92468997D01*
X142785333Y-92458000D01*
X142785322Y-92458000D01*
X142748000Y-92454324D01*
X142710678Y-92458000D01*
X140918043Y-92458000D01*
X140814637Y-92303241D01*
X140614759Y-92103363D01*
X140379727Y-91946320D01*
X140118574Y-91838147D01*
X139841335Y-91783000D01*
X139558665Y-91783000D01*
X139281426Y-91838147D01*
X139020273Y-91946320D01*
X138785241Y-92103363D01*
X138585363Y-92303241D01*
X138428320Y-92538273D01*
X138320147Y-92799426D01*
X138265000Y-93076665D01*
X138265000Y-93359335D01*
X138320147Y-93636574D01*
X138428320Y-93897727D01*
X138585363Y-94132759D01*
X138785241Y-94332637D01*
X139020273Y-94489680D01*
X139281426Y-94597853D01*
X139558665Y-94653000D01*
X139841335Y-94653000D01*
X140118574Y-94597853D01*
X140379727Y-94489680D01*
X140614759Y-94332637D01*
X140814637Y-94132759D01*
X140918043Y-93978000D01*
X142433199Y-93978000D01*
X145036001Y-96580803D01*
X145036000Y-110150659D01*
X144973302Y-110087961D01*
X144727853Y-109923958D01*
X144455125Y-109810990D01*
X144165599Y-109753400D01*
X143870401Y-109753400D01*
X143580875Y-109810990D01*
X143308147Y-109923958D01*
X143062698Y-110087961D01*
X142853961Y-110296698D01*
X142748000Y-110455281D01*
X142642039Y-110296698D01*
X142433302Y-110087961D01*
X142187853Y-109923958D01*
X141915125Y-109810990D01*
X141625599Y-109753400D01*
X141330401Y-109753400D01*
X141040875Y-109810990D01*
X140768147Y-109923958D01*
X140522698Y-110087961D01*
X140313961Y-110296698D01*
X140208000Y-110455281D01*
X140102039Y-110296698D01*
X139893302Y-110087961D01*
X139647853Y-109923958D01*
X139375125Y-109810990D01*
X139085599Y-109753400D01*
X138790401Y-109753400D01*
X138500875Y-109810990D01*
X138228147Y-109923958D01*
X137982698Y-110087961D01*
X137773961Y-110296698D01*
X137668000Y-110455281D01*
X137562039Y-110296698D01*
X137353302Y-110087961D01*
X137107853Y-109923958D01*
X136835125Y-109810990D01*
X136545599Y-109753400D01*
X136250401Y-109753400D01*
X135960875Y-109810990D01*
X135688147Y-109923958D01*
X135442698Y-110087961D01*
X135328636Y-110202023D01*
X135311102Y-110144220D01*
X135252137Y-110033906D01*
X135172785Y-109937215D01*
X135076094Y-109857863D01*
X134965780Y-109798898D01*
X134846082Y-109762588D01*
X134721600Y-109750328D01*
X132994400Y-109750328D01*
X132869918Y-109762588D01*
X132750220Y-109798898D01*
X132639906Y-109857863D01*
X132543215Y-109937215D01*
X132463863Y-110033906D01*
X132404898Y-110144220D01*
X132368588Y-110263918D01*
X132356328Y-110388400D01*
X132356328Y-112115600D01*
X132368588Y-112240082D01*
X132404898Y-112359780D01*
X132463863Y-112470094D01*
X132543215Y-112566785D01*
X132639906Y-112646137D01*
X132750220Y-112705102D01*
X132812692Y-112724053D01*
X132651183Y-112903512D01*
X132501036Y-113156022D01*
X132403037Y-113432973D01*
X132523536Y-113665000D01*
X133731000Y-113665000D01*
X133731000Y-113645000D01*
X133985000Y-113645000D01*
X133985000Y-113665000D01*
X134005000Y-113665000D01*
X134005000Y-113919000D01*
X133985000Y-113919000D01*
X133985000Y-113939000D01*
X133731000Y-113939000D01*
X133731000Y-113919000D01*
X132523536Y-113919000D01*
X132403037Y-114151027D01*
X132501036Y-114427978D01*
X132651183Y-114680488D01*
X132847707Y-114898854D01*
X133068755Y-115064000D01*
X109280802Y-115064000D01*
X107878802Y-113662000D01*
X109038928Y-113662000D01*
X109051188Y-113786482D01*
X109087498Y-113906180D01*
X109146463Y-114016494D01*
X109225815Y-114113185D01*
X109322506Y-114192537D01*
X109432820Y-114251502D01*
X109552518Y-114287812D01*
X109677000Y-114300072D01*
X110241250Y-114297000D01*
X110400000Y-114138250D01*
X110400000Y-112939000D01*
X109200750Y-112939000D01*
X109042000Y-113097750D01*
X109038928Y-113662000D01*
X107878802Y-113662000D01*
X106178802Y-111962000D01*
X109038928Y-111962000D01*
X109042000Y-112526250D01*
X109200750Y-112685000D01*
X110400000Y-112685000D01*
X110400000Y-111485750D01*
X110241250Y-111327000D01*
X109677000Y-111323928D01*
X109552518Y-111336188D01*
X109432820Y-111372498D01*
X109322506Y-111431463D01*
X109225815Y-111510815D01*
X109146463Y-111607506D01*
X109087498Y-111717820D01*
X109051188Y-111837518D01*
X109038928Y-111962000D01*
X106178802Y-111962000D01*
X99820000Y-105603199D01*
X99820000Y-104170000D01*
X101861928Y-104170000D01*
X101874188Y-104294482D01*
X101910498Y-104414180D01*
X101969463Y-104524494D01*
X102048815Y-104621185D01*
X102145506Y-104700537D01*
X102255820Y-104759502D01*
X102375518Y-104795812D01*
X102500000Y-104808072D01*
X103064250Y-104805000D01*
X103223000Y-104646250D01*
X103223000Y-103447000D01*
X103477000Y-103447000D01*
X103477000Y-104646250D01*
X103635750Y-104805000D01*
X104200000Y-104808072D01*
X104324482Y-104795812D01*
X104444180Y-104759502D01*
X104554494Y-104700537D01*
X104651185Y-104621185D01*
X104730537Y-104524494D01*
X104789502Y-104414180D01*
X104825812Y-104294482D01*
X104838072Y-104170000D01*
X104835000Y-103605750D01*
X104676250Y-103447000D01*
X103477000Y-103447000D01*
X103223000Y-103447000D01*
X102023750Y-103447000D01*
X101865000Y-103605750D01*
X101861928Y-104170000D01*
X99820000Y-104170000D01*
X99820000Y-93532801D01*
X101972802Y-91380000D01*
X102071822Y-91380000D01*
X102196525Y-91566632D01*
X102403368Y-91773475D01*
X102577760Y-91890000D01*
X102403368Y-92006525D01*
X102196525Y-92213368D01*
X102034010Y-92456589D01*
X101922068Y-92726842D01*
X101865000Y-93013740D01*
X101865000Y-93306260D01*
X101922068Y-93593158D01*
X102034010Y-93863411D01*
X102196525Y-94106632D01*
X102403368Y-94313475D01*
X102577760Y-94430000D01*
X102403368Y-94546525D01*
X102196525Y-94753368D01*
X102034010Y-94996589D01*
X101922068Y-95266842D01*
X101865000Y-95553740D01*
X101865000Y-95846260D01*
X101922068Y-96133158D01*
X102034010Y-96403411D01*
X102196525Y-96646632D01*
X102403368Y-96853475D01*
X102577760Y-96970000D01*
X102403368Y-97086525D01*
X102196525Y-97293368D01*
X102034010Y-97536589D01*
X101922068Y-97806842D01*
X101865000Y-98093740D01*
X101865000Y-98386260D01*
X101922068Y-98673158D01*
X102034010Y-98943411D01*
X102196525Y-99186632D01*
X102403368Y-99393475D01*
X102577760Y-99510000D01*
X102403368Y-99626525D01*
X102196525Y-99833368D01*
X102034010Y-100076589D01*
X101922068Y-100346842D01*
X101865000Y-100633740D01*
X101865000Y-100926260D01*
X101922068Y-101213158D01*
X102034010Y-101483411D01*
X102196525Y-101726632D01*
X102328380Y-101858487D01*
X102255820Y-101880498D01*
X102145506Y-101939463D01*
X102048815Y-102018815D01*
X101969463Y-102115506D01*
X101910498Y-102225820D01*
X101874188Y-102345518D01*
X101861928Y-102470000D01*
X101865000Y-103034250D01*
X102023750Y-103193000D01*
X103223000Y-103193000D01*
X103223000Y-103173000D01*
X103477000Y-103173000D01*
X103477000Y-103193000D01*
X104676250Y-103193000D01*
X104835000Y-103034250D01*
X104838072Y-102470000D01*
X104825812Y-102345518D01*
X104789502Y-102225820D01*
X104730537Y-102115506D01*
X104651185Y-102018815D01*
X104554494Y-101939463D01*
X104444180Y-101880498D01*
X104371620Y-101858487D01*
X104503475Y-101726632D01*
X104578065Y-101615000D01*
X111229133Y-101615000D01*
X112232000Y-102617869D01*
X112232001Y-111583934D01*
X112120368Y-111658525D01*
X111988513Y-111790380D01*
X111966502Y-111717820D01*
X111907537Y-111607506D01*
X111828185Y-111510815D01*
X111731494Y-111431463D01*
X111621180Y-111372498D01*
X111501482Y-111336188D01*
X111377000Y-111323928D01*
X110812750Y-111327000D01*
X110654000Y-111485750D01*
X110654000Y-112685000D01*
X110674000Y-112685000D01*
X110674000Y-112939000D01*
X110654000Y-112939000D01*
X110654000Y-114138250D01*
X110812750Y-114297000D01*
X111377000Y-114300072D01*
X111501482Y-114287812D01*
X111621180Y-114251502D01*
X111731494Y-114192537D01*
X111828185Y-114113185D01*
X111907537Y-114016494D01*
X111966502Y-113906180D01*
X111988513Y-113833620D01*
X112120368Y-113965475D01*
X112363589Y-114127990D01*
X112633842Y-114239932D01*
X112920740Y-114297000D01*
X113213260Y-114297000D01*
X113500158Y-114239932D01*
X113770411Y-114127990D01*
X114013632Y-113965475D01*
X114220475Y-113758632D01*
X114337000Y-113584240D01*
X114453525Y-113758632D01*
X114660368Y-113965475D01*
X114903589Y-114127990D01*
X115173842Y-114239932D01*
X115460740Y-114297000D01*
X115753260Y-114297000D01*
X116040158Y-114239932D01*
X116310411Y-114127990D01*
X116553632Y-113965475D01*
X116760475Y-113758632D01*
X116877000Y-113584240D01*
X116993525Y-113758632D01*
X117200368Y-113965475D01*
X117443589Y-114127990D01*
X117713842Y-114239932D01*
X118000740Y-114297000D01*
X118293260Y-114297000D01*
X118580158Y-114239932D01*
X118850411Y-114127990D01*
X119093632Y-113965475D01*
X119300475Y-113758632D01*
X119417000Y-113584240D01*
X119533525Y-113758632D01*
X119740368Y-113965475D01*
X119983589Y-114127990D01*
X120253842Y-114239932D01*
X120540740Y-114297000D01*
X120833260Y-114297000D01*
X121120158Y-114239932D01*
X121390411Y-114127990D01*
X121633632Y-113965475D01*
X121840475Y-113758632D01*
X121957000Y-113584240D01*
X122073525Y-113758632D01*
X122280368Y-113965475D01*
X122523589Y-114127990D01*
X122793842Y-114239932D01*
X123080740Y-114297000D01*
X123373260Y-114297000D01*
X123660158Y-114239932D01*
X123930411Y-114127990D01*
X124173632Y-113965475D01*
X124380475Y-113758632D01*
X124497000Y-113584240D01*
X124613525Y-113758632D01*
X124820368Y-113965475D01*
X125063589Y-114127990D01*
X125333842Y-114239932D01*
X125620740Y-114297000D01*
X125913260Y-114297000D01*
X126200158Y-114239932D01*
X126470411Y-114127990D01*
X126713632Y-113965475D01*
X126920475Y-113758632D01*
X127082990Y-113515411D01*
X127194932Y-113245158D01*
X127252000Y-112958260D01*
X127252000Y-112665740D01*
X127194932Y-112378842D01*
X127082990Y-112108589D01*
X126920475Y-111865368D01*
X126713632Y-111658525D01*
X126527000Y-111533822D01*
X126527000Y-94110178D01*
X126713632Y-93985475D01*
X126920475Y-93778632D01*
X127082990Y-93535411D01*
X127194932Y-93265158D01*
X127252000Y-92978260D01*
X127252000Y-92685740D01*
X127194932Y-92398842D01*
X127082990Y-92128589D01*
X126920475Y-91885368D01*
X126713632Y-91678525D01*
X126470411Y-91516010D01*
X126200158Y-91404068D01*
X125913260Y-91347000D01*
X125620740Y-91347000D01*
X125333842Y-91404068D01*
X125063589Y-91516010D01*
X124820368Y-91678525D01*
X124613525Y-91885368D01*
X124497000Y-92059760D01*
X124380475Y-91885368D01*
X124173632Y-91678525D01*
X123987000Y-91553822D01*
X123987000Y-91209801D01*
X124266802Y-90930000D01*
X144973199Y-90930000D01*
X162556997Y-108513799D01*
M02*
