G04 #@! TF.GenerationSoftware,KiCad,Pcbnew,5.1.5-52549c5~84~ubuntu18.04.1*
G04 #@! TF.CreationDate,2020-03-25T13:03:39-07:00*
G04 #@! TF.ProjectId,Marlin_UIBOX,4d61726c-696e-45f5-9549-424f582e6b69,rev?*
G04 #@! TF.SameCoordinates,PX55c0260PY70276d0*
G04 #@! TF.FileFunction,Copper,L1,Top*
G04 #@! TF.FilePolarity,Positive*
%FSLAX46Y46*%
G04 Gerber Fmt 4.6, Leading zero omitted, Abs format (unit mm)*
G04 Created by KiCad (PCBNEW 5.1.5-52549c5~84~ubuntu18.04.1) date 2020-03-25 13:03:39*
%MOMM*%
%LPD*%
G04 APERTURE LIST*
G04 #@! TA.AperFunction,ComponentPad*
%ADD10O,1.700000X1.700000*%
G04 #@! TD*
G04 #@! TA.AperFunction,ComponentPad*
%ADD11R,1.700000X1.700000*%
G04 #@! TD*
G04 #@! TA.AperFunction,ComponentPad*
%ADD12R,1.727200X1.727200*%
G04 #@! TD*
G04 #@! TA.AperFunction,ComponentPad*
%ADD13O,1.727200X1.727200*%
G04 #@! TD*
G04 #@! TA.AperFunction,ComponentPad*
%ADD14R,1.600000X1.600000*%
G04 #@! TD*
G04 #@! TA.AperFunction,ComponentPad*
%ADD15O,1.600000X1.600000*%
G04 #@! TD*
G04 #@! TA.AperFunction,ComponentPad*
%ADD16R,2.000000X2.000000*%
G04 #@! TD*
G04 #@! TA.AperFunction,ComponentPad*
%ADD17C,2.000000*%
G04 #@! TD*
G04 #@! TA.AperFunction,ComponentPad*
%ADD18O,1.500000X1.050000*%
G04 #@! TD*
G04 #@! TA.AperFunction,ComponentPad*
%ADD19R,1.500000X1.050000*%
G04 #@! TD*
G04 #@! TA.AperFunction,ComponentPad*
%ADD20C,1.600000*%
G04 #@! TD*
G04 #@! TA.AperFunction,ComponentPad*
%ADD21O,1.050000X1.500000*%
G04 #@! TD*
G04 #@! TA.AperFunction,ComponentPad*
%ADD22R,1.050000X1.500000*%
G04 #@! TD*
G04 #@! TA.AperFunction,ComponentPad*
%ADD23C,1.400000*%
G04 #@! TD*
G04 #@! TA.AperFunction,Conductor*
%ADD24C,0.400000*%
G04 #@! TD*
G04 #@! TA.AperFunction,Conductor*
%ADD25C,0.250000*%
G04 #@! TD*
G04 #@! TA.AperFunction,Conductor*
%ADD26C,0.254000*%
G04 #@! TD*
G04 APERTURE END LIST*
D10*
G04 #@! TO.P,J3,7*
G04 #@! TO.N,/LCD_CS*
X13434000Y29522000D03*
G04 #@! TO.P,J3,6*
G04 #@! TO.N,/LCD_DC*
X13434000Y26982000D03*
G04 #@! TO.P,J3,5*
G04 #@! TO.N,/LCD_RES*
X13434000Y24442000D03*
G04 #@! TO.P,J3,4*
G04 #@! TO.N,/LCD_MOSI*
X13434000Y21902000D03*
G04 #@! TO.P,J3,3*
G04 #@! TO.N,/LCD_SCK*
X13434000Y19362000D03*
G04 #@! TO.P,J3,2*
G04 #@! TO.N,/3P3_VCC*
X13434000Y16822000D03*
D11*
G04 #@! TO.P,J3,1*
G04 #@! TO.N,GND*
X13434000Y14282000D03*
G04 #@! TD*
G04 #@! TO.P,J4,1*
G04 #@! TO.N,GND*
X20611000Y4790000D03*
D10*
G04 #@! TO.P,J4,2*
G04 #@! TO.N,VCC*
X23151000Y4790000D03*
G04 #@! TO.P,J4,3*
G04 #@! TO.N,/MISO*
X25691000Y4790000D03*
G04 #@! TO.P,J4,4*
G04 #@! TO.N,/MOSI*
X28231000Y4790000D03*
G04 #@! TO.P,J4,5*
G04 #@! TO.N,/SCK*
X30771000Y4790000D03*
G04 #@! TO.P,J4,6*
G04 #@! TO.N,/SD_SS*
X33311000Y4790000D03*
G04 #@! TO.P,J4,7*
G04 #@! TO.N,/SD_DET*
X35851000Y4790000D03*
G04 #@! TD*
D12*
G04 #@! TO.P,J1,1*
G04 #@! TO.N,VCC*
X43942000Y6350000D03*
D13*
G04 #@! TO.P,J1,2*
G04 #@! TO.N,GND*
X43942000Y3810000D03*
G04 #@! TO.P,J1,3*
G04 #@! TO.N,Net-(J1-Pad3)*
X46482000Y6350000D03*
G04 #@! TO.P,J1,4*
G04 #@! TO.N,/LCD_DC*
X46482000Y3810000D03*
G04 #@! TO.P,J1,5*
G04 #@! TO.N,/LCD_CS*
X49022000Y6350000D03*
G04 #@! TO.P,J1,6*
G04 #@! TO.N,Net-(J1-Pad6)*
X49022000Y3810000D03*
G04 #@! TO.P,J1,7*
G04 #@! TO.N,/LCD_RES*
X51562000Y6350000D03*
G04 #@! TO.P,J1,8*
G04 #@! TO.N,Net-(J1-Pad8)*
X51562000Y3810000D03*
G04 #@! TO.P,J1,9*
G04 #@! TO.N,/BT_SW*
X54102000Y6350000D03*
G04 #@! TO.P,J1,10*
G04 #@! TO.N,/BEEPER*
X54102000Y3810000D03*
G04 #@! TD*
G04 #@! TO.P,J2,10*
G04 #@! TO.N,/MISO*
X76454000Y3810000D03*
G04 #@! TO.P,J2,9*
G04 #@! TO.N,/SCK*
X76454000Y6350000D03*
G04 #@! TO.P,J2,8*
G04 #@! TO.N,/BT_EN2*
X73914000Y3810000D03*
G04 #@! TO.P,J2,7*
G04 #@! TO.N,/SD_SS*
X73914000Y6350000D03*
G04 #@! TO.P,J2,6*
G04 #@! TO.N,/BT_EN1*
X71374000Y3810000D03*
G04 #@! TO.P,J2,5*
G04 #@! TO.N,/MOSI*
X71374000Y6350000D03*
G04 #@! TO.P,J2,4*
G04 #@! TO.N,/SD_DET*
X68834000Y3810000D03*
G04 #@! TO.P,J2,3*
G04 #@! TO.N,Net-(J2-Pad3)*
X68834000Y6350000D03*
G04 #@! TO.P,J2,2*
G04 #@! TO.N,GND*
X66294000Y3810000D03*
D12*
G04 #@! TO.P,J2,1*
G04 #@! TO.N,Net-(J2-Pad1)*
X66294000Y6350000D03*
G04 #@! TD*
D11*
G04 #@! TO.P,J4,1*
G04 #@! TO.N,GND*
X20611000Y24770000D03*
D10*
G04 #@! TO.P,J4,2*
G04 #@! TO.N,VCC*
X23151000Y24770000D03*
G04 #@! TO.P,J4,3*
G04 #@! TO.N,/MISO*
X25691000Y24770000D03*
G04 #@! TO.P,J4,4*
G04 #@! TO.N,/MOSI*
X28231000Y24770000D03*
G04 #@! TO.P,J4,5*
G04 #@! TO.N,/SCK*
X30771000Y24770000D03*
G04 #@! TO.P,J4,6*
G04 #@! TO.N,/SD_SS*
X33311000Y24770000D03*
G04 #@! TO.P,J4,7*
G04 #@! TO.N,/SD_DET*
X35851000Y24770000D03*
G04 #@! TD*
D14*
G04 #@! TO.P,D1,1*
G04 #@! TO.N,VCC*
X82804000Y24892000D03*
D15*
G04 #@! TO.P,D1,2*
G04 #@! TO.N,Net-(D1-Pad2)*
X82804000Y32512000D03*
G04 #@! TD*
D11*
G04 #@! TO.P,J5,1*
G04 #@! TO.N,GND*
X101429000Y8893000D03*
D10*
G04 #@! TO.P,J5,2*
G04 #@! TO.N,VCC*
X103969000Y8893000D03*
G04 #@! TO.P,J5,3*
G04 #@! TO.N,/BT_SW*
X106509000Y8893000D03*
G04 #@! TO.P,J5,4*
G04 #@! TO.N,/BT_EN1*
X109049000Y8893000D03*
G04 #@! TO.P,J5,5*
G04 #@! TO.N,/BT_EN2*
X111589000Y8893000D03*
G04 #@! TD*
D16*
G04 #@! TO.P,LS1,1*
G04 #@! TO.N,VCC*
X69850000Y33020000D03*
D17*
G04 #@! TO.P,LS1,2*
G04 #@! TO.N,Net-(D1-Pad2)*
X69850000Y25420000D03*
G04 #@! TD*
D18*
G04 #@! TO.P,Q1,2*
G04 #@! TO.N,Net-(Q1-Pad2)*
X78740000Y20574000D03*
G04 #@! TO.P,Q1,3*
G04 #@! TO.N,Net-(Q1-Pad3)*
X78740000Y21844000D03*
D19*
G04 #@! TO.P,Q1,1*
G04 #@! TO.N,GND*
X78740000Y19304000D03*
G04 #@! TD*
D15*
G04 #@! TO.P,R1,2*
G04 #@! TO.N,Net-(Q1-Pad2)*
X49784000Y32004000D03*
D20*
G04 #@! TO.P,R1,1*
G04 #@! TO.N,/BEEPER*
X49784000Y24384000D03*
G04 #@! TD*
G04 #@! TO.P,R2,1*
G04 #@! TO.N,Net-(D1-Pad2)*
X78740000Y32512000D03*
D15*
G04 #@! TO.P,R2,2*
G04 #@! TO.N,Net-(Q1-Pad3)*
X78740000Y24892000D03*
G04 #@! TD*
G04 #@! TO.P,R3,2*
G04 #@! TO.N,/LCD_MOSI*
X38760400Y19050000D03*
D20*
G04 #@! TO.P,R3,1*
G04 #@! TO.N,/3P3_VCC*
X46380400Y19050000D03*
G04 #@! TD*
G04 #@! TO.P,R4,1*
G04 #@! TO.N,/3P3_VCC*
X48971200Y13970000D03*
D15*
G04 #@! TO.P,R4,2*
G04 #@! TO.N,/LCD_SCK*
X41351200Y13970000D03*
G04 #@! TD*
D20*
G04 #@! TO.P,R5,1*
G04 #@! TO.N,/SCK*
X30784800Y13970000D03*
D15*
G04 #@! TO.P,R5,2*
G04 #@! TO.N,/LCD_SCK*
X38404800Y13970000D03*
G04 #@! TD*
G04 #@! TO.P,R6,2*
G04 #@! TO.N,/LCD_MOSI*
X35864800Y19050000D03*
D20*
G04 #@! TO.P,R6,1*
G04 #@! TO.N,/MOSI*
X28244800Y19050000D03*
G04 #@! TD*
D21*
G04 #@! TO.P,U1,2*
G04 #@! TO.N,VCC*
X54356000Y18084800D03*
G04 #@! TO.P,U1,3*
G04 #@! TO.N,/3P3_VCC*
X53086000Y18084800D03*
D22*
G04 #@! TO.P,U1,1*
G04 #@! TO.N,GND*
X55626000Y18084800D03*
G04 #@! TD*
D23*
G04 #@! TO.P,C1,1*
G04 #@! TO.N,VCC*
X53126000Y14528800D03*
G04 #@! TO.P,C1,2*
G04 #@! TO.N,GND*
X55626000Y14528800D03*
G04 #@! TD*
G04 #@! TO.P,C2,2*
G04 #@! TO.N,GND*
X55626000Y22301200D03*
G04 #@! TO.P,C2,1*
G04 #@! TO.N,/3P3_VCC*
X53126000Y22301200D03*
G04 #@! TD*
D24*
G04 #@! TO.N,VCC*
X23151000Y4790000D02*
X23151000Y7085500D01*
X23151000Y7085500D02*
X24447500Y8382000D01*
X24447500Y8382000D02*
X38227000Y8382000D01*
X40259000Y6350000D02*
X43942000Y6350000D01*
X38227000Y8382000D02*
X40259000Y6350000D01*
X81635600Y28702000D02*
X82804000Y27533600D01*
X78181200Y28702000D02*
X81635600Y28702000D01*
X69850000Y33020000D02*
X73863200Y33020000D01*
X82804000Y27533600D02*
X82804000Y24892000D01*
X73863200Y33020000D02*
X78181200Y28702000D01*
X103969000Y7347400D02*
X102717600Y6096000D01*
X94843600Y9956800D02*
X85902800Y9956800D01*
X103969000Y8893000D02*
X103969000Y7347400D01*
X102717600Y6096000D02*
X98704400Y6096000D01*
X98704400Y6096000D02*
X94843600Y9956800D01*
X82804000Y13055600D02*
X82804000Y24892000D01*
X85902800Y9956800D02*
X82804000Y13055600D01*
X54356000Y15758800D02*
X53126000Y14528800D01*
X54356000Y18084800D02*
X54356000Y15758800D01*
G04 #@! TO.N,GND*
X63550800Y3810000D02*
X66294000Y3810000D01*
X62179200Y5181600D02*
X63550800Y3810000D01*
X62179200Y7416800D02*
X62179200Y5181600D01*
X55626000Y22301200D02*
X55626000Y18084800D01*
X55626000Y18084800D02*
X55626000Y14528800D01*
X55626000Y14528800D02*
X58826400Y14528800D01*
X62179200Y11176000D02*
X62179200Y7416800D01*
X58826400Y14528800D02*
X62179200Y11176000D01*
D25*
G04 #@! TO.N,/LCD_CS*
X11742000Y29522000D02*
X13434000Y29522000D01*
X9906000Y27686000D02*
X11742000Y29522000D01*
X9906000Y11938000D02*
X9906000Y27686000D01*
X12446000Y9398000D02*
X9906000Y11938000D01*
X44958000Y9398000D02*
X44450000Y9398000D01*
X44450000Y9398000D02*
X12446000Y9398000D01*
X48006000Y9398000D02*
X44450000Y9398000D01*
X49022000Y6350000D02*
X49022000Y8382000D01*
X49022000Y8382000D02*
X48006000Y9398000D01*
G04 #@! TO.N,/LCD_RES*
X12700000Y10414000D02*
X10668000Y12446000D01*
X10668000Y23368000D02*
X11742000Y24442000D01*
X11742000Y24442000D02*
X13434000Y24442000D01*
X10668000Y12446000D02*
X10668000Y23368000D01*
X48514000Y10414000D02*
X48260000Y10414000D01*
X48260000Y10414000D02*
X12700000Y10414000D01*
X49530000Y10414000D02*
X48260000Y10414000D01*
X51562000Y6350000D02*
X51562000Y8382000D01*
X51562000Y8382000D02*
X49530000Y10414000D01*
G04 #@! TO.N,/BT_SW*
X97891600Y4978400D02*
X104292400Y4978400D01*
X56134000Y6350000D02*
X60706000Y1778000D01*
X106509000Y7195000D02*
X106509000Y8893000D01*
X54102000Y6350000D02*
X56134000Y6350000D01*
X60706000Y1778000D02*
X80010000Y1778000D01*
X80010000Y1778000D02*
X85471000Y7239000D01*
X104292400Y4978400D02*
X106509000Y7195000D01*
X95631000Y7239000D02*
X97891600Y4978400D01*
X85471000Y7239000D02*
X95631000Y7239000D01*
G04 #@! TO.N,/MOSI*
X71374000Y12446000D02*
X71374000Y6350000D01*
X30300519Y28041600D02*
X55778400Y28041600D01*
X55778400Y28041600D02*
X71374000Y12446000D01*
X28231000Y24770000D02*
X28231000Y25972081D01*
X28231000Y25972081D02*
X30300519Y28041600D01*
G04 #@! TO.N,/LCD_MOSI*
X13434000Y21902000D02*
X13492000Y21844000D01*
X35864800Y19050000D02*
X38760400Y19050000D01*
X29609200Y21902000D02*
X13434000Y21902000D01*
X35864800Y19050000D02*
X32461200Y19050000D01*
X32461200Y19050000D02*
X29609200Y21902000D01*
G04 #@! TO.N,/LCD_SCK*
X38404800Y13970000D02*
X41351200Y13970000D01*
X16960000Y19362000D02*
X13434000Y19362000D01*
X19812000Y16510000D02*
X16960000Y19362000D01*
X32054800Y16510000D02*
X19812000Y16510000D01*
X38404800Y13970000D02*
X34594800Y13970000D01*
X34594800Y13970000D02*
X32054800Y16510000D01*
D24*
G04 #@! TO.N,/3P3_VCC*
X48971200Y17590570D02*
X48971200Y13970000D01*
X47511770Y19050000D02*
X48971200Y17590570D01*
X46380400Y19050000D02*
X47511770Y19050000D01*
X48971200Y12344400D02*
X48971200Y13970000D01*
X48056800Y11430000D02*
X48971200Y12344400D01*
X22047200Y11430000D02*
X48056800Y11430000D01*
X13434000Y16822000D02*
X16655200Y16822000D01*
X16655200Y16822000D02*
X22047200Y11430000D01*
X53126000Y18124800D02*
X53086000Y18084800D01*
X53126000Y22301200D02*
X53126000Y18124800D01*
X51003200Y17221200D02*
X51866800Y18084800D01*
X51003200Y14870630D02*
X51003200Y17221200D01*
X51866800Y18084800D02*
X53086000Y18084800D01*
X48971200Y13970000D02*
X50102570Y13970000D01*
X50102570Y13970000D02*
X51003200Y14870630D01*
G04 #@! TD*
D26*
G04 #@! TO.N,GND*
G36*
X23565746Y38307807D02*
G01*
X23588762Y38279762D01*
X23700680Y38187913D01*
X23828367Y38119663D01*
X23966915Y38077635D01*
X24074895Y38067000D01*
X24074904Y38067000D01*
X24110999Y38063445D01*
X24147094Y38067000D01*
X31074895Y38067000D01*
X31111000Y38063444D01*
X31147105Y38067000D01*
X31255085Y38077635D01*
X31393633Y38119663D01*
X31521320Y38187913D01*
X31633238Y38279762D01*
X31656259Y38307813D01*
X32870574Y39522128D01*
X86299000Y39522128D01*
X86299000Y39081872D01*
X86384890Y38650075D01*
X86553369Y38243331D01*
X86797962Y37877271D01*
X87109271Y37565962D01*
X87475331Y37321369D01*
X87882075Y37152890D01*
X88313872Y37067000D01*
X88754128Y37067000D01*
X89185925Y37152890D01*
X89592669Y37321369D01*
X89958729Y37565962D01*
X90270038Y37877271D01*
X90514631Y38243331D01*
X90683110Y38650075D01*
X90769000Y39081872D01*
X90769000Y39522128D01*
X90683110Y39953925D01*
X90514631Y40360669D01*
X90270038Y40726729D01*
X89958729Y41038038D01*
X89592669Y41282631D01*
X89185925Y41451110D01*
X88754128Y41537000D01*
X88313872Y41537000D01*
X87882075Y41451110D01*
X87475331Y41282631D01*
X87109271Y41038038D01*
X86797962Y40726729D01*
X86553369Y40360669D01*
X86384890Y39953925D01*
X86299000Y39522128D01*
X32870574Y39522128D01*
X34915447Y41567000D01*
X125229554Y41567000D01*
X125458241Y41338313D01*
X125185925Y41451110D01*
X124754128Y41537000D01*
X124313872Y41537000D01*
X123882075Y41451110D01*
X123475331Y41282631D01*
X123109271Y41038038D01*
X122797962Y40726729D01*
X122553369Y40360669D01*
X122384890Y39953925D01*
X122299000Y39522128D01*
X122299000Y39081872D01*
X122384890Y38650075D01*
X122553369Y38243331D01*
X122797962Y37877271D01*
X123109271Y37565962D01*
X123475331Y37321369D01*
X123882075Y37152890D01*
X124313872Y37067000D01*
X124754128Y37067000D01*
X125185925Y37152890D01*
X125592669Y37321369D01*
X125958729Y37565962D01*
X126270038Y37877271D01*
X126514631Y38243331D01*
X126683110Y38650075D01*
X126769000Y39081872D01*
X126769000Y39522128D01*
X126683110Y39953925D01*
X126570313Y40226240D01*
X128799000Y37997553D01*
X128799001Y4606448D01*
X126570313Y2377760D01*
X126683110Y2650075D01*
X126769000Y3081872D01*
X126769000Y3522128D01*
X126683110Y3953925D01*
X126514631Y4360669D01*
X126270038Y4726729D01*
X125958729Y5038038D01*
X125592669Y5282631D01*
X125185925Y5451110D01*
X124754128Y5537000D01*
X124313872Y5537000D01*
X123882075Y5451110D01*
X123475331Y5282631D01*
X123109271Y5038038D01*
X122797962Y4726729D01*
X122553369Y4360669D01*
X122384890Y3953925D01*
X122299000Y3522128D01*
X122299000Y3081872D01*
X122384890Y2650075D01*
X122553369Y2243331D01*
X122797962Y1877271D01*
X123109271Y1565962D01*
X123475331Y1321369D01*
X123882075Y1152890D01*
X124313872Y1067000D01*
X124754128Y1067000D01*
X125185925Y1152890D01*
X125458241Y1265687D01*
X125229554Y1037000D01*
X80185369Y1037000D01*
X80302247Y1072454D01*
X80434276Y1143026D01*
X80550001Y1237999D01*
X80573804Y1267003D01*
X82828929Y3522128D01*
X86299000Y3522128D01*
X86299000Y3081872D01*
X86384890Y2650075D01*
X86553369Y2243331D01*
X86797962Y1877271D01*
X87109271Y1565962D01*
X87475331Y1321369D01*
X87882075Y1152890D01*
X88313872Y1067000D01*
X88754128Y1067000D01*
X89185925Y1152890D01*
X89592669Y1321369D01*
X89958729Y1565962D01*
X90270038Y1877271D01*
X90514631Y2243331D01*
X90683110Y2650075D01*
X90769000Y3081872D01*
X90769000Y3522128D01*
X90683110Y3953925D01*
X90514631Y4360669D01*
X90270038Y4726729D01*
X89958729Y5038038D01*
X89592669Y5282631D01*
X89185925Y5451110D01*
X88754128Y5537000D01*
X88313872Y5537000D01*
X87882075Y5451110D01*
X87475331Y5282631D01*
X87109271Y5038038D01*
X86797962Y4726729D01*
X86553369Y4360669D01*
X86384890Y3953925D01*
X86299000Y3522128D01*
X82828929Y3522128D01*
X85785802Y6479000D01*
X95316199Y6479000D01*
X97327801Y4467397D01*
X97351599Y4438399D01*
X97467324Y4343426D01*
X97599353Y4272854D01*
X97742614Y4229397D01*
X97854267Y4218400D01*
X97854276Y4218400D01*
X97891599Y4214724D01*
X97928922Y4218400D01*
X104255078Y4218400D01*
X104292400Y4214724D01*
X104329722Y4218400D01*
X104329733Y4218400D01*
X104441386Y4229397D01*
X104584647Y4272854D01*
X104716676Y4343426D01*
X104832401Y4438399D01*
X104856204Y4467403D01*
X107020004Y6631202D01*
X107049001Y6654999D01*
X107143974Y6770724D01*
X107214546Y6902753D01*
X107258003Y7046014D01*
X107269000Y7157667D01*
X107269000Y7157675D01*
X107272676Y7195000D01*
X107269000Y7232325D01*
X107269000Y7614822D01*
X107455632Y7739525D01*
X107662475Y7946368D01*
X107779000Y8120760D01*
X107895525Y7946368D01*
X108102368Y7739525D01*
X108345589Y7577010D01*
X108615842Y7465068D01*
X108902740Y7408000D01*
X109195260Y7408000D01*
X109482158Y7465068D01*
X109752411Y7577010D01*
X109995632Y7739525D01*
X110202475Y7946368D01*
X110319000Y8120760D01*
X110435525Y7946368D01*
X110642368Y7739525D01*
X110885589Y7577010D01*
X111155842Y7465068D01*
X111442740Y7408000D01*
X111735260Y7408000D01*
X112022158Y7465068D01*
X112292411Y7577010D01*
X112535632Y7739525D01*
X112742475Y7946368D01*
X112904990Y8189589D01*
X113016932Y8459842D01*
X113074000Y8746740D01*
X113074000Y9039260D01*
X113016932Y9326158D01*
X112904990Y9596411D01*
X112742475Y9839632D01*
X112535632Y10046475D01*
X112292411Y10208990D01*
X112022158Y10320932D01*
X111735260Y10378000D01*
X111442740Y10378000D01*
X111155842Y10320932D01*
X110885589Y10208990D01*
X110642368Y10046475D01*
X110435525Y9839632D01*
X110319000Y9665240D01*
X110202475Y9839632D01*
X109995632Y10046475D01*
X109752411Y10208990D01*
X109482158Y10320932D01*
X109195260Y10378000D01*
X108902740Y10378000D01*
X108615842Y10320932D01*
X108345589Y10208990D01*
X108102368Y10046475D01*
X107895525Y9839632D01*
X107779000Y9665240D01*
X107662475Y9839632D01*
X107455632Y10046475D01*
X107212411Y10208990D01*
X106942158Y10320932D01*
X106655260Y10378000D01*
X106362740Y10378000D01*
X106075842Y10320932D01*
X105805589Y10208990D01*
X105562368Y10046475D01*
X105355525Y9839632D01*
X105239000Y9665240D01*
X105122475Y9839632D01*
X104915632Y10046475D01*
X104672411Y10208990D01*
X104402158Y10320932D01*
X104115260Y10378000D01*
X103822740Y10378000D01*
X103535842Y10320932D01*
X103265589Y10208990D01*
X103022368Y10046475D01*
X102890513Y9914620D01*
X102868502Y9987180D01*
X102809537Y10097494D01*
X102730185Y10194185D01*
X102633494Y10273537D01*
X102523180Y10332502D01*
X102403482Y10368812D01*
X102279000Y10381072D01*
X101714750Y10378000D01*
X101556000Y10219250D01*
X101556000Y9020000D01*
X101576000Y9020000D01*
X101576000Y8766000D01*
X101556000Y8766000D01*
X101556000Y7566750D01*
X101714750Y7408000D01*
X102279000Y7404928D01*
X102403482Y7417188D01*
X102523180Y7453498D01*
X102633494Y7512463D01*
X102730185Y7591815D01*
X102809537Y7688506D01*
X102868502Y7798820D01*
X102890513Y7871380D01*
X103022368Y7739525D01*
X103117015Y7676284D01*
X102371733Y6931000D01*
X99050269Y6931000D01*
X97938269Y8043000D01*
X99940928Y8043000D01*
X99953188Y7918518D01*
X99989498Y7798820D01*
X100048463Y7688506D01*
X100127815Y7591815D01*
X100224506Y7512463D01*
X100334820Y7453498D01*
X100454518Y7417188D01*
X100579000Y7404928D01*
X101143250Y7408000D01*
X101302000Y7566750D01*
X101302000Y8766000D01*
X100102750Y8766000D01*
X99944000Y8607250D01*
X99940928Y8043000D01*
X97938269Y8043000D01*
X96238268Y9743000D01*
X99940928Y9743000D01*
X99944000Y9178750D01*
X100102750Y9020000D01*
X101302000Y9020000D01*
X101302000Y10219250D01*
X101143250Y10378000D01*
X100579000Y10381072D01*
X100454518Y10368812D01*
X100334820Y10332502D01*
X100224506Y10273537D01*
X100127815Y10194185D01*
X100048463Y10097494D01*
X99989498Y9987180D01*
X99953188Y9867482D01*
X99940928Y9743000D01*
X96238268Y9743000D01*
X95463046Y10518221D01*
X95436891Y10550091D01*
X95309746Y10654436D01*
X95164687Y10731972D01*
X95007289Y10779718D01*
X94884619Y10791800D01*
X94884618Y10791800D01*
X94843600Y10795840D01*
X94802582Y10791800D01*
X86248668Y10791800D01*
X83639000Y13401467D01*
X83639000Y23457375D01*
X83728482Y23466188D01*
X83848180Y23502498D01*
X83958494Y23561463D01*
X84055185Y23640815D01*
X84134537Y23737506D01*
X84193502Y23847820D01*
X84229812Y23967518D01*
X84242072Y24092000D01*
X84242072Y25692000D01*
X84229812Y25816482D01*
X84193502Y25936180D01*
X84134537Y26046494D01*
X84055185Y26143185D01*
X83958494Y26222537D01*
X83848180Y26281502D01*
X83728482Y26317812D01*
X83639000Y26326625D01*
X83639000Y27492582D01*
X83643040Y27533601D01*
X83626918Y27697289D01*
X83579172Y27854687D01*
X83501636Y27999746D01*
X83467287Y28041600D01*
X83397291Y28126891D01*
X83365428Y28153040D01*
X82255046Y29263421D01*
X82228891Y29295291D01*
X82101746Y29399636D01*
X81956687Y29477172D01*
X81799289Y29524918D01*
X81676619Y29537000D01*
X81676618Y29537000D01*
X81635600Y29541040D01*
X81594582Y29537000D01*
X78527068Y29537000D01*
X75410733Y32653335D01*
X77305000Y32653335D01*
X77305000Y32370665D01*
X77360147Y32093426D01*
X77468320Y31832273D01*
X77625363Y31597241D01*
X77825241Y31397363D01*
X78060273Y31240320D01*
X78321426Y31132147D01*
X78598665Y31077000D01*
X78881335Y31077000D01*
X79158574Y31132147D01*
X79419727Y31240320D01*
X79654759Y31397363D01*
X79854637Y31597241D01*
X80011680Y31832273D01*
X80119853Y32093426D01*
X80175000Y32370665D01*
X80175000Y32653335D01*
X81369000Y32653335D01*
X81369000Y32370665D01*
X81424147Y32093426D01*
X81532320Y31832273D01*
X81689363Y31597241D01*
X81889241Y31397363D01*
X82124273Y31240320D01*
X82385426Y31132147D01*
X82662665Y31077000D01*
X82945335Y31077000D01*
X83222574Y31132147D01*
X83483727Y31240320D01*
X83718759Y31397363D01*
X83918637Y31597241D01*
X84075680Y31832273D01*
X84183853Y32093426D01*
X84239000Y32370665D01*
X84239000Y32653335D01*
X84183853Y32930574D01*
X84075680Y33191727D01*
X84059319Y33216214D01*
X88295444Y33216214D01*
X88299000Y33180109D01*
X88299001Y11838115D01*
X88295444Y11802000D01*
X88309635Y11657915D01*
X88351663Y11519367D01*
X88419913Y11391680D01*
X88511762Y11279762D01*
X88623680Y11187913D01*
X88751367Y11119663D01*
X88889915Y11077635D01*
X88997895Y11067000D01*
X89034000Y11063444D01*
X89070105Y11067000D01*
X123997895Y11067000D01*
X124034000Y11063444D01*
X124070105Y11067000D01*
X124178085Y11077635D01*
X124316633Y11119663D01*
X124444320Y11187913D01*
X124556238Y11279762D01*
X124648087Y11391680D01*
X124716337Y11519367D01*
X124758365Y11657915D01*
X124772556Y11802000D01*
X124769000Y11838105D01*
X124769000Y33180120D01*
X124772555Y33216215D01*
X124769000Y33252310D01*
X124769000Y33252319D01*
X124758365Y33360299D01*
X124716337Y33498847D01*
X124648087Y33626534D01*
X124631514Y33646727D01*
X124579253Y33710408D01*
X124579250Y33710411D01*
X124556237Y33738452D01*
X124528198Y33761463D01*
X118993473Y39296187D01*
X118970452Y39324238D01*
X118858534Y39416087D01*
X118730847Y39484337D01*
X118592299Y39526365D01*
X118484319Y39537000D01*
X118448214Y39540556D01*
X118412109Y39537000D01*
X94655892Y39537000D01*
X94619787Y39540556D01*
X94583682Y39537000D01*
X94475702Y39526365D01*
X94337154Y39484337D01*
X94209467Y39416087D01*
X94097549Y39324238D01*
X94074534Y39296194D01*
X88539808Y33761468D01*
X88511762Y33738451D01*
X88419913Y33626533D01*
X88351663Y33498846D01*
X88333509Y33439000D01*
X88309635Y33360299D01*
X88295444Y33216214D01*
X84059319Y33216214D01*
X83918637Y33426759D01*
X83718759Y33626637D01*
X83483727Y33783680D01*
X83222574Y33891853D01*
X82945335Y33947000D01*
X82662665Y33947000D01*
X82385426Y33891853D01*
X82124273Y33783680D01*
X81889241Y33626637D01*
X81689363Y33426759D01*
X81532320Y33191727D01*
X81424147Y32930574D01*
X81369000Y32653335D01*
X80175000Y32653335D01*
X80119853Y32930574D01*
X80011680Y33191727D01*
X79854637Y33426759D01*
X79654759Y33626637D01*
X79419727Y33783680D01*
X79158574Y33891853D01*
X78881335Y33947000D01*
X78598665Y33947000D01*
X78321426Y33891853D01*
X78060273Y33783680D01*
X77825241Y33626637D01*
X77625363Y33426759D01*
X77468320Y33191727D01*
X77360147Y32930574D01*
X77305000Y32653335D01*
X75410733Y32653335D01*
X74482646Y33581421D01*
X74456491Y33613291D01*
X74329346Y33717636D01*
X74184287Y33795172D01*
X74026889Y33842918D01*
X73904219Y33855000D01*
X73904218Y33855000D01*
X73863200Y33859040D01*
X73822182Y33855000D01*
X71488072Y33855000D01*
X71488072Y34020000D01*
X71475812Y34144482D01*
X71439502Y34264180D01*
X71380537Y34374494D01*
X71301185Y34471185D01*
X71204494Y34550537D01*
X71094180Y34609502D01*
X70974482Y34645812D01*
X70850000Y34658072D01*
X68850000Y34658072D01*
X68725518Y34645812D01*
X68605820Y34609502D01*
X68495506Y34550537D01*
X68398815Y34471185D01*
X68319463Y34374494D01*
X68260498Y34264180D01*
X68224188Y34144482D01*
X68211928Y34020000D01*
X68211928Y32020000D01*
X68224188Y31895518D01*
X68260498Y31775820D01*
X68319463Y31665506D01*
X68398815Y31568815D01*
X68495506Y31489463D01*
X68605820Y31430498D01*
X68725518Y31394188D01*
X68850000Y31381928D01*
X70850000Y31381928D01*
X70974482Y31394188D01*
X71094180Y31430498D01*
X71204494Y31489463D01*
X71301185Y31568815D01*
X71380537Y31665506D01*
X71439502Y31775820D01*
X71475812Y31895518D01*
X71488072Y32020000D01*
X71488072Y32185000D01*
X73517333Y32185000D01*
X77561759Y28140573D01*
X77587909Y28108709D01*
X77669682Y28041600D01*
X77715054Y28004364D01*
X77860113Y27926828D01*
X78017511Y27879082D01*
X78181199Y27862960D01*
X78222218Y27867000D01*
X81289733Y27867000D01*
X81969000Y27187732D01*
X81969000Y26326625D01*
X81879518Y26317812D01*
X81759820Y26281502D01*
X81649506Y26222537D01*
X81552815Y26143185D01*
X81473463Y26046494D01*
X81414498Y25936180D01*
X81378188Y25816482D01*
X81365928Y25692000D01*
X81365928Y24092000D01*
X81378188Y23967518D01*
X81414498Y23847820D01*
X81473463Y23737506D01*
X81552815Y23640815D01*
X81649506Y23561463D01*
X81759820Y23502498D01*
X81879518Y23466188D01*
X81969001Y23457375D01*
X81969000Y13096619D01*
X81964960Y13055600D01*
X81969000Y13014582D01*
X81981082Y12891912D01*
X82028828Y12734514D01*
X82106364Y12589455D01*
X82210709Y12462309D01*
X82242579Y12436154D01*
X85283359Y9395373D01*
X85309509Y9363509D01*
X85436654Y9259164D01*
X85581713Y9181628D01*
X85739111Y9133882D01*
X85902800Y9117760D01*
X85943818Y9121800D01*
X94497733Y9121800D01*
X95618124Y8001408D01*
X95593678Y7999000D01*
X85508322Y7999000D01*
X85470999Y8002676D01*
X85433676Y7999000D01*
X85433667Y7999000D01*
X85322014Y7988003D01*
X85178753Y7944546D01*
X85046724Y7873974D01*
X84930999Y7779001D01*
X84907201Y7750003D01*
X79695199Y2538000D01*
X77247726Y2538000D01*
X77409302Y2645961D01*
X77618039Y2854698D01*
X77782042Y3100147D01*
X77895010Y3372875D01*
X77952600Y3662401D01*
X77952600Y3957599D01*
X77895010Y4247125D01*
X77782042Y4519853D01*
X77618039Y4765302D01*
X77409302Y4974039D01*
X77250719Y5080000D01*
X77409302Y5185961D01*
X77618039Y5394698D01*
X77782042Y5640147D01*
X77895010Y5912875D01*
X77952600Y6202401D01*
X77952600Y6497599D01*
X77895010Y6787125D01*
X77782042Y7059853D01*
X77618039Y7305302D01*
X77409302Y7514039D01*
X77163853Y7678042D01*
X76891125Y7791010D01*
X76601599Y7848600D01*
X76306401Y7848600D01*
X76016875Y7791010D01*
X75744147Y7678042D01*
X75498698Y7514039D01*
X75289961Y7305302D01*
X75184000Y7146719D01*
X75078039Y7305302D01*
X74869302Y7514039D01*
X74623853Y7678042D01*
X74351125Y7791010D01*
X74061599Y7848600D01*
X73766401Y7848600D01*
X73476875Y7791010D01*
X73204147Y7678042D01*
X72958698Y7514039D01*
X72749961Y7305302D01*
X72644000Y7146719D01*
X72538039Y7305302D01*
X72329302Y7514039D01*
X72134000Y7644535D01*
X72134000Y12408678D01*
X72137676Y12446001D01*
X72134000Y12483324D01*
X72134000Y12483333D01*
X72123003Y12594986D01*
X72079546Y12738247D01*
X72008974Y12870277D01*
X71937799Y12957003D01*
X71914001Y12986001D01*
X71885003Y13009799D01*
X66115802Y18779000D01*
X77351928Y18779000D01*
X77364188Y18654518D01*
X77400498Y18534820D01*
X77459463Y18424506D01*
X77538815Y18327815D01*
X77635506Y18248463D01*
X77745820Y18189498D01*
X77865518Y18153188D01*
X77990000Y18140928D01*
X78454250Y18144000D01*
X78613000Y18302750D01*
X78613000Y19177000D01*
X78867000Y19177000D01*
X78867000Y18302750D01*
X79025750Y18144000D01*
X79490000Y18140928D01*
X79614482Y18153188D01*
X79734180Y18189498D01*
X79844494Y18248463D01*
X79941185Y18327815D01*
X80020537Y18424506D01*
X80079502Y18534820D01*
X80115812Y18654518D01*
X80128072Y18779000D01*
X80125000Y19018250D01*
X79966250Y19177000D01*
X78867000Y19177000D01*
X78613000Y19177000D01*
X77513750Y19177000D01*
X77355000Y19018250D01*
X77351928Y18779000D01*
X66115802Y18779000D01*
X63050802Y21844000D01*
X77349388Y21844000D01*
X77371785Y21616600D01*
X77438115Y21397940D01*
X77539105Y21209000D01*
X77438115Y21020060D01*
X77371785Y20801400D01*
X77349388Y20574000D01*
X77371785Y20346600D01*
X77435093Y20137902D01*
X77400498Y20073180D01*
X77364188Y19953482D01*
X77351928Y19829000D01*
X77355000Y19589750D01*
X77513750Y19431000D01*
X78286891Y19431000D01*
X78287600Y19430785D01*
X78458021Y19414000D01*
X79021979Y19414000D01*
X79192400Y19430785D01*
X79193109Y19431000D01*
X79966250Y19431000D01*
X80125000Y19589750D01*
X80128072Y19829000D01*
X80115812Y19953482D01*
X80079502Y20073180D01*
X80044907Y20137902D01*
X80108215Y20346600D01*
X80130612Y20574000D01*
X80108215Y20801400D01*
X80041885Y21020060D01*
X79940895Y21209000D01*
X80041885Y21397940D01*
X80108215Y21616600D01*
X80130612Y21844000D01*
X80108215Y22071400D01*
X80041885Y22290060D01*
X79934171Y22491579D01*
X79789212Y22668212D01*
X79612579Y22813171D01*
X79411060Y22920885D01*
X79192400Y22987215D01*
X79021979Y23004000D01*
X78458021Y23004000D01*
X78287600Y22987215D01*
X78068940Y22920885D01*
X77867421Y22813171D01*
X77690788Y22668212D01*
X77545829Y22491579D01*
X77438115Y22290060D01*
X77371785Y22071400D01*
X77349388Y21844000D01*
X63050802Y21844000D01*
X59313769Y25581033D01*
X68215000Y25581033D01*
X68215000Y25258967D01*
X68277832Y24943088D01*
X68401082Y24645537D01*
X68580013Y24377748D01*
X68807748Y24150013D01*
X69075537Y23971082D01*
X69373088Y23847832D01*
X69688967Y23785000D01*
X70011033Y23785000D01*
X70326912Y23847832D01*
X70624463Y23971082D01*
X70892252Y24150013D01*
X71119987Y24377748D01*
X71298918Y24645537D01*
X71422168Y24943088D01*
X71440119Y25033335D01*
X77305000Y25033335D01*
X77305000Y24750665D01*
X77360147Y24473426D01*
X77468320Y24212273D01*
X77625363Y23977241D01*
X77825241Y23777363D01*
X78060273Y23620320D01*
X78321426Y23512147D01*
X78598665Y23457000D01*
X78881335Y23457000D01*
X79158574Y23512147D01*
X79419727Y23620320D01*
X79654759Y23777363D01*
X79854637Y23977241D01*
X80011680Y24212273D01*
X80119853Y24473426D01*
X80175000Y24750665D01*
X80175000Y25033335D01*
X80119853Y25310574D01*
X80011680Y25571727D01*
X79854637Y25806759D01*
X79654759Y26006637D01*
X79419727Y26163680D01*
X79158574Y26271853D01*
X78881335Y26327000D01*
X78598665Y26327000D01*
X78321426Y26271853D01*
X78060273Y26163680D01*
X77825241Y26006637D01*
X77625363Y25806759D01*
X77468320Y25571727D01*
X77360147Y25310574D01*
X77305000Y25033335D01*
X71440119Y25033335D01*
X71485000Y25258967D01*
X71485000Y25581033D01*
X71422168Y25896912D01*
X71298918Y26194463D01*
X71119987Y26462252D01*
X70892252Y26689987D01*
X70624463Y26868918D01*
X70326912Y26992168D01*
X70011033Y27055000D01*
X69688967Y27055000D01*
X69373088Y26992168D01*
X69075537Y26868918D01*
X68807748Y26689987D01*
X68580013Y26462252D01*
X68401082Y26194463D01*
X68277832Y25896912D01*
X68215000Y25581033D01*
X59313769Y25581033D01*
X56342204Y28552597D01*
X56318401Y28581601D01*
X56202676Y28676574D01*
X56070647Y28747146D01*
X55927386Y28790603D01*
X55815733Y28801600D01*
X55815722Y28801600D01*
X55778400Y28805276D01*
X55741078Y28801600D01*
X30337842Y28801600D01*
X30300519Y28805276D01*
X30263196Y28801600D01*
X30263186Y28801600D01*
X30151533Y28790603D01*
X30008272Y28747146D01*
X29876243Y28676574D01*
X29760518Y28581601D01*
X29736720Y28552603D01*
X27719998Y26535880D01*
X27691000Y26512082D01*
X27667202Y26483084D01*
X27667201Y26483083D01*
X27596026Y26396357D01*
X27525454Y26264327D01*
X27523557Y26258072D01*
X27490938Y26150537D01*
X27481998Y26121066D01*
X27475088Y26050910D01*
X27284368Y25923475D01*
X27077525Y25716632D01*
X26961000Y25542240D01*
X26844475Y25716632D01*
X26637632Y25923475D01*
X26394411Y26085990D01*
X26124158Y26197932D01*
X25837260Y26255000D01*
X25544740Y26255000D01*
X25257842Y26197932D01*
X24987589Y26085990D01*
X24744368Y25923475D01*
X24537525Y25716632D01*
X24421000Y25542240D01*
X24304475Y25716632D01*
X24097632Y25923475D01*
X23854411Y26085990D01*
X23584158Y26197932D01*
X23297260Y26255000D01*
X23004740Y26255000D01*
X22717842Y26197932D01*
X22447589Y26085990D01*
X22204368Y25923475D01*
X22072513Y25791620D01*
X22050502Y25864180D01*
X21991537Y25974494D01*
X21912185Y26071185D01*
X21815494Y26150537D01*
X21705180Y26209502D01*
X21585482Y26245812D01*
X21461000Y26258072D01*
X20896750Y26255000D01*
X20738000Y26096250D01*
X20738000Y24897000D01*
X20758000Y24897000D01*
X20758000Y24643000D01*
X20738000Y24643000D01*
X20738000Y23443750D01*
X20896750Y23285000D01*
X21461000Y23281928D01*
X21585482Y23294188D01*
X21705180Y23330498D01*
X21815494Y23389463D01*
X21912185Y23468815D01*
X21991537Y23565506D01*
X22050502Y23675820D01*
X22072513Y23748380D01*
X22204368Y23616525D01*
X22447589Y23454010D01*
X22717842Y23342068D01*
X23004740Y23285000D01*
X23297260Y23285000D01*
X23584158Y23342068D01*
X23854411Y23454010D01*
X24097632Y23616525D01*
X24304475Y23823368D01*
X24421000Y23997760D01*
X24537525Y23823368D01*
X24744368Y23616525D01*
X24987589Y23454010D01*
X25257842Y23342068D01*
X25544740Y23285000D01*
X25837260Y23285000D01*
X26124158Y23342068D01*
X26394411Y23454010D01*
X26637632Y23616525D01*
X26844475Y23823368D01*
X26961000Y23997760D01*
X27077525Y23823368D01*
X27284368Y23616525D01*
X27527589Y23454010D01*
X27797842Y23342068D01*
X28084740Y23285000D01*
X28377260Y23285000D01*
X28664158Y23342068D01*
X28934411Y23454010D01*
X29177632Y23616525D01*
X29384475Y23823368D01*
X29501000Y23997760D01*
X29617525Y23823368D01*
X29824368Y23616525D01*
X30067589Y23454010D01*
X30337842Y23342068D01*
X30624740Y23285000D01*
X30917260Y23285000D01*
X31204158Y23342068D01*
X31474411Y23454010D01*
X31717632Y23616525D01*
X31924475Y23823368D01*
X32041000Y23997760D01*
X32157525Y23823368D01*
X32364368Y23616525D01*
X32607589Y23454010D01*
X32877842Y23342068D01*
X33164740Y23285000D01*
X33457260Y23285000D01*
X33744158Y23342068D01*
X34014411Y23454010D01*
X34257632Y23616525D01*
X34464475Y23823368D01*
X34581000Y23997760D01*
X34697525Y23823368D01*
X34904368Y23616525D01*
X35147589Y23454010D01*
X35417842Y23342068D01*
X35704740Y23285000D01*
X35997260Y23285000D01*
X36284158Y23342068D01*
X36554411Y23454010D01*
X36797632Y23616525D01*
X37004475Y23823368D01*
X37166990Y24066589D01*
X37278932Y24336842D01*
X37316425Y24525335D01*
X48349000Y24525335D01*
X48349000Y24242665D01*
X48404147Y23965426D01*
X48512320Y23704273D01*
X48669363Y23469241D01*
X48869241Y23269363D01*
X49104273Y23112320D01*
X49365426Y23004147D01*
X49642665Y22949000D01*
X49925335Y22949000D01*
X50202574Y23004147D01*
X50463727Y23112320D01*
X50698759Y23269363D01*
X50898637Y23469241D01*
X51055680Y23704273D01*
X51163853Y23965426D01*
X51219000Y24242665D01*
X51219000Y24525335D01*
X51163853Y24802574D01*
X51055680Y25063727D01*
X50898637Y25298759D01*
X50698759Y25498637D01*
X50463727Y25655680D01*
X50202574Y25763853D01*
X49925335Y25819000D01*
X49642665Y25819000D01*
X49365426Y25763853D01*
X49104273Y25655680D01*
X48869241Y25498637D01*
X48669363Y25298759D01*
X48512320Y25063727D01*
X48404147Y24802574D01*
X48349000Y24525335D01*
X37316425Y24525335D01*
X37336000Y24623740D01*
X37336000Y24916260D01*
X37278932Y25203158D01*
X37166990Y25473411D01*
X37004475Y25716632D01*
X36797632Y25923475D01*
X36554411Y26085990D01*
X36284158Y26197932D01*
X35997260Y26255000D01*
X35704740Y26255000D01*
X35417842Y26197932D01*
X35147589Y26085990D01*
X34904368Y25923475D01*
X34697525Y25716632D01*
X34581000Y25542240D01*
X34464475Y25716632D01*
X34257632Y25923475D01*
X34014411Y26085990D01*
X33744158Y26197932D01*
X33457260Y26255000D01*
X33164740Y26255000D01*
X32877842Y26197932D01*
X32607589Y26085990D01*
X32364368Y25923475D01*
X32157525Y25716632D01*
X32041000Y25542240D01*
X31924475Y25716632D01*
X31717632Y25923475D01*
X31474411Y26085990D01*
X31204158Y26197932D01*
X30917260Y26255000D01*
X30624740Y26255000D01*
X30337842Y26197932D01*
X30067589Y26085990D01*
X29824368Y25923475D01*
X29617525Y25716632D01*
X29501000Y25542240D01*
X29384475Y25716632D01*
X29217414Y25883693D01*
X30615321Y27281600D01*
X55463599Y27281600D01*
X70614000Y12131198D01*
X70614001Y7644536D01*
X70418698Y7514039D01*
X70209961Y7305302D01*
X70104000Y7146719D01*
X69998039Y7305302D01*
X69789302Y7514039D01*
X69543853Y7678042D01*
X69271125Y7791010D01*
X68981599Y7848600D01*
X68686401Y7848600D01*
X68396875Y7791010D01*
X68124147Y7678042D01*
X67878698Y7514039D01*
X67764636Y7399977D01*
X67747102Y7457780D01*
X67688137Y7568094D01*
X67608785Y7664785D01*
X67512094Y7744137D01*
X67401780Y7803102D01*
X67282082Y7839412D01*
X67157600Y7851672D01*
X65430400Y7851672D01*
X65305918Y7839412D01*
X65186220Y7803102D01*
X65075906Y7744137D01*
X64979215Y7664785D01*
X64899863Y7568094D01*
X64840898Y7457780D01*
X64804588Y7338082D01*
X64792328Y7213600D01*
X64792328Y5486400D01*
X64804588Y5361918D01*
X64840898Y5242220D01*
X64899863Y5131906D01*
X64979215Y5035215D01*
X65075906Y4955863D01*
X65186220Y4896898D01*
X65248692Y4877947D01*
X65087183Y4698488D01*
X64937036Y4445978D01*
X64839037Y4169027D01*
X64959536Y3937000D01*
X66167000Y3937000D01*
X66167000Y3957000D01*
X66421000Y3957000D01*
X66421000Y3937000D01*
X66441000Y3937000D01*
X66441000Y3683000D01*
X66421000Y3683000D01*
X66421000Y3663000D01*
X66167000Y3663000D01*
X66167000Y3683000D01*
X64959536Y3683000D01*
X64839037Y3450973D01*
X64937036Y3174022D01*
X65087183Y2921512D01*
X65283707Y2703146D01*
X65504755Y2538000D01*
X61020803Y2538000D01*
X56697804Y6860997D01*
X56674001Y6890001D01*
X56558276Y6984974D01*
X56426247Y7055546D01*
X56282986Y7099003D01*
X56171333Y7110000D01*
X56171322Y7110000D01*
X56134000Y7113676D01*
X56096678Y7110000D01*
X55396535Y7110000D01*
X55266039Y7305302D01*
X55057302Y7514039D01*
X54811853Y7678042D01*
X54539125Y7791010D01*
X54249599Y7848600D01*
X53954401Y7848600D01*
X53664875Y7791010D01*
X53392147Y7678042D01*
X53146698Y7514039D01*
X52937961Y7305302D01*
X52832000Y7146719D01*
X52726039Y7305302D01*
X52517302Y7514039D01*
X52322000Y7644535D01*
X52322000Y8344677D01*
X52325676Y8382000D01*
X52322000Y8419323D01*
X52322000Y8419333D01*
X52311003Y8530986D01*
X52267546Y8674247D01*
X52257814Y8692454D01*
X52196974Y8806277D01*
X52125799Y8893003D01*
X52102001Y8922001D01*
X52073003Y8945799D01*
X50093804Y10924997D01*
X50070001Y10954001D01*
X49954276Y11048974D01*
X49822247Y11119546D01*
X49678986Y11163003D01*
X49567333Y11174000D01*
X49567322Y11174000D01*
X49530000Y11177676D01*
X49492678Y11174000D01*
X48981668Y11174000D01*
X49532633Y11724964D01*
X49564491Y11751109D01*
X49668836Y11878254D01*
X49746372Y12023313D01*
X49794118Y12180711D01*
X49806200Y12303381D01*
X49806200Y12303382D01*
X49810240Y12344400D01*
X49806200Y12385418D01*
X49806200Y12802070D01*
X49885959Y12855363D01*
X50085837Y13055241D01*
X50138816Y13134530D01*
X50143588Y13135000D01*
X50143589Y13135000D01*
X50266259Y13147082D01*
X50423657Y13194828D01*
X50568716Y13272364D01*
X50695861Y13376709D01*
X50722016Y13408579D01*
X51564627Y14251190D01*
X51596491Y14277339D01*
X51700836Y14404484D01*
X51778372Y14549543D01*
X51791000Y14591172D01*
X51791000Y14397314D01*
X51842304Y14139395D01*
X51942939Y13896441D01*
X52089038Y13677787D01*
X52274987Y13491838D01*
X52493641Y13345739D01*
X52736595Y13245104D01*
X52994514Y13193800D01*
X53257486Y13193800D01*
X53515405Y13245104D01*
X53758359Y13345739D01*
X53977013Y13491838D01*
X54092706Y13607531D01*
X54884336Y13607531D01*
X54943797Y13373763D01*
X55182242Y13262866D01*
X55437740Y13200617D01*
X55700473Y13189410D01*
X55960344Y13229675D01*
X56207366Y13319865D01*
X56308203Y13373763D01*
X56367664Y13607531D01*
X55626000Y14349195D01*
X54884336Y13607531D01*
X54092706Y13607531D01*
X54162962Y13677787D01*
X54309061Y13896441D01*
X54376361Y14058918D01*
X54417065Y13947434D01*
X54470963Y13846597D01*
X54704731Y13787136D01*
X55446395Y14528800D01*
X55805605Y14528800D01*
X56547269Y13787136D01*
X56781037Y13846597D01*
X56891934Y14085042D01*
X56954183Y14340540D01*
X56965390Y14603273D01*
X56925125Y14863144D01*
X56834935Y15110166D01*
X56781037Y15211003D01*
X56547269Y15270464D01*
X55805605Y14528800D01*
X55446395Y14528800D01*
X55432253Y14542942D01*
X55611858Y14722547D01*
X55626000Y14708405D01*
X56367664Y15450069D01*
X56308203Y15683837D01*
X56069758Y15794734D01*
X55814260Y15856983D01*
X55551527Y15868190D01*
X55291656Y15827925D01*
X55191822Y15791475D01*
X55191000Y15799818D01*
X55191000Y16697884D01*
X55340250Y16699800D01*
X55499000Y16858550D01*
X55499000Y17631691D01*
X55499215Y17632400D01*
X55516000Y17802821D01*
X55516000Y17957800D01*
X55753000Y17957800D01*
X55753000Y16858550D01*
X55911750Y16699800D01*
X56151000Y16696728D01*
X56275482Y16708988D01*
X56395180Y16745298D01*
X56505494Y16804263D01*
X56602185Y16883615D01*
X56681537Y16980306D01*
X56740502Y17090620D01*
X56776812Y17210318D01*
X56789072Y17334800D01*
X56786000Y17799050D01*
X56627250Y17957800D01*
X55753000Y17957800D01*
X55516000Y17957800D01*
X55516000Y18366778D01*
X55499215Y18537199D01*
X55499000Y18537908D01*
X55499000Y19311050D01*
X55753000Y19311050D01*
X55753000Y18211800D01*
X56627250Y18211800D01*
X56786000Y18370550D01*
X56789072Y18834800D01*
X56776812Y18959282D01*
X56740502Y19078980D01*
X56681537Y19189294D01*
X56602185Y19285985D01*
X56505494Y19365337D01*
X56395180Y19424302D01*
X56275482Y19460612D01*
X56151000Y19472872D01*
X55911750Y19469800D01*
X55753000Y19311050D01*
X55499000Y19311050D01*
X55340250Y19469800D01*
X55101000Y19472872D01*
X54976518Y19460612D01*
X54856820Y19424302D01*
X54792098Y19389707D01*
X54583400Y19453015D01*
X54356000Y19475412D01*
X54128601Y19453015D01*
X53961000Y19402174D01*
X53961000Y21253539D01*
X53977013Y21264238D01*
X54092706Y21379931D01*
X54884336Y21379931D01*
X54943797Y21146163D01*
X55182242Y21035266D01*
X55437740Y20973017D01*
X55700473Y20961810D01*
X55960344Y21002075D01*
X56207366Y21092265D01*
X56308203Y21146163D01*
X56367664Y21379931D01*
X55626000Y22121595D01*
X54884336Y21379931D01*
X54092706Y21379931D01*
X54162962Y21450187D01*
X54309061Y21668841D01*
X54376361Y21831318D01*
X54417065Y21719834D01*
X54470963Y21618997D01*
X54704731Y21559536D01*
X55446395Y22301200D01*
X55805605Y22301200D01*
X56547269Y21559536D01*
X56781037Y21618997D01*
X56891934Y21857442D01*
X56954183Y22112940D01*
X56965390Y22375673D01*
X56925125Y22635544D01*
X56834935Y22882566D01*
X56781037Y22983403D01*
X56547269Y23042864D01*
X55805605Y22301200D01*
X55446395Y22301200D01*
X54704731Y23042864D01*
X54470963Y22983403D01*
X54374408Y22775796D01*
X54309061Y22933559D01*
X54162962Y23152213D01*
X54092706Y23222469D01*
X54884336Y23222469D01*
X55626000Y22480805D01*
X56367664Y23222469D01*
X56308203Y23456237D01*
X56069758Y23567134D01*
X55814260Y23629383D01*
X55551527Y23640590D01*
X55291656Y23600325D01*
X55044634Y23510135D01*
X54943797Y23456237D01*
X54884336Y23222469D01*
X54092706Y23222469D01*
X53977013Y23338162D01*
X53758359Y23484261D01*
X53515405Y23584896D01*
X53257486Y23636200D01*
X52994514Y23636200D01*
X52736595Y23584896D01*
X52493641Y23484261D01*
X52274987Y23338162D01*
X52089038Y23152213D01*
X51942939Y22933559D01*
X51842304Y22690605D01*
X51791000Y22432686D01*
X51791000Y22169714D01*
X51842304Y21911795D01*
X51942939Y21668841D01*
X52089038Y21450187D01*
X52274987Y21264238D01*
X52291000Y21253538D01*
X52291001Y19157985D01*
X52261789Y19134012D01*
X52116830Y18957379D01*
X52096743Y18919800D01*
X51907818Y18919800D01*
X51866800Y18923840D01*
X51703111Y18907718D01*
X51545713Y18859972D01*
X51400654Y18782436D01*
X51333137Y18727026D01*
X51273509Y18678091D01*
X51247363Y18646232D01*
X50441774Y17840641D01*
X50409910Y17814491D01*
X50368238Y17763713D01*
X50305564Y17687345D01*
X50228028Y17542286D01*
X50180282Y17384888D01*
X50164160Y17221200D01*
X50168201Y17180172D01*
X50168200Y15216498D01*
X49961149Y15009447D01*
X49885959Y15084637D01*
X49806200Y15137930D01*
X49806200Y17549552D01*
X49810240Y17590570D01*
X49794118Y17754258D01*
X49779387Y17802822D01*
X49746372Y17911657D01*
X49668836Y18056716D01*
X49612125Y18125819D01*
X49590639Y18152000D01*
X49590637Y18152002D01*
X49564491Y18183861D01*
X49532633Y18210006D01*
X48131216Y19611422D01*
X48105061Y19643291D01*
X47977916Y19747636D01*
X47832857Y19825172D01*
X47675459Y19872918D01*
X47552789Y19885000D01*
X47552788Y19885000D01*
X47548016Y19885470D01*
X47495037Y19964759D01*
X47295159Y20164637D01*
X47060127Y20321680D01*
X46798974Y20429853D01*
X46521735Y20485000D01*
X46239065Y20485000D01*
X45961826Y20429853D01*
X45700673Y20321680D01*
X45465641Y20164637D01*
X45265763Y19964759D01*
X45108720Y19729727D01*
X45000547Y19468574D01*
X44945400Y19191335D01*
X44945400Y18908665D01*
X45000547Y18631426D01*
X45108720Y18370273D01*
X45265763Y18135241D01*
X45465641Y17935363D01*
X45700673Y17778320D01*
X45961826Y17670147D01*
X46239065Y17615000D01*
X46521735Y17615000D01*
X46798974Y17670147D01*
X47060127Y17778320D01*
X47295159Y17935363D01*
X47370349Y18010553D01*
X48136200Y17244701D01*
X48136201Y15137931D01*
X48056441Y15084637D01*
X47856563Y14884759D01*
X47699520Y14649727D01*
X47591347Y14388574D01*
X47536200Y14111335D01*
X47536200Y13828665D01*
X47591347Y13551426D01*
X47699520Y13290273D01*
X47856563Y13055241D01*
X48056441Y12855363D01*
X48136200Y12802070D01*
X48136200Y12690269D01*
X47710932Y12265000D01*
X22393069Y12265000D01*
X20546734Y14111335D01*
X29349800Y14111335D01*
X29349800Y13828665D01*
X29404947Y13551426D01*
X29513120Y13290273D01*
X29670163Y13055241D01*
X29870041Y12855363D01*
X30105073Y12698320D01*
X30366226Y12590147D01*
X30643465Y12535000D01*
X30926135Y12535000D01*
X31203374Y12590147D01*
X31464527Y12698320D01*
X31699559Y12855363D01*
X31899437Y13055241D01*
X32056480Y13290273D01*
X32164653Y13551426D01*
X32219800Y13828665D01*
X32219800Y14111335D01*
X32164653Y14388574D01*
X32056480Y14649727D01*
X31899437Y14884759D01*
X31699559Y15084637D01*
X31464527Y15241680D01*
X31203374Y15349853D01*
X30926135Y15405000D01*
X30643465Y15405000D01*
X30366226Y15349853D01*
X30105073Y15241680D01*
X29870041Y15084637D01*
X29670163Y14884759D01*
X29513120Y14649727D01*
X29404947Y14388574D01*
X29349800Y14111335D01*
X20546734Y14111335D01*
X17274646Y17383421D01*
X17248491Y17415291D01*
X17121346Y17519636D01*
X16976287Y17597172D01*
X16818889Y17644918D01*
X16696219Y17657000D01*
X16696218Y17657000D01*
X16655200Y17661040D01*
X16614182Y17657000D01*
X14662065Y17657000D01*
X14587475Y17768632D01*
X14380632Y17975475D01*
X14206240Y18092000D01*
X14380632Y18208525D01*
X14587475Y18415368D01*
X14712178Y18602000D01*
X16645199Y18602000D01*
X19248200Y15998998D01*
X19271999Y15969999D01*
X19300997Y15946201D01*
X19387723Y15875026D01*
X19475842Y15827925D01*
X19519753Y15804454D01*
X19663014Y15760997D01*
X19774667Y15750000D01*
X19774676Y15750000D01*
X19811999Y15746324D01*
X19849322Y15750000D01*
X31739999Y15750000D01*
X34031005Y13458992D01*
X34054799Y13429999D01*
X34083792Y13406205D01*
X34083796Y13406201D01*
X34151593Y13350562D01*
X34170524Y13335026D01*
X34302553Y13264454D01*
X34445814Y13220997D01*
X34557467Y13210000D01*
X34557476Y13210000D01*
X34594799Y13206324D01*
X34632122Y13210000D01*
X37186757Y13210000D01*
X37290163Y13055241D01*
X37490041Y12855363D01*
X37725073Y12698320D01*
X37986226Y12590147D01*
X38263465Y12535000D01*
X38546135Y12535000D01*
X38823374Y12590147D01*
X39084527Y12698320D01*
X39319559Y12855363D01*
X39519437Y13055241D01*
X39622843Y13210000D01*
X40133157Y13210000D01*
X40236563Y13055241D01*
X40436441Y12855363D01*
X40671473Y12698320D01*
X40932626Y12590147D01*
X41209865Y12535000D01*
X41492535Y12535000D01*
X41769774Y12590147D01*
X42030927Y12698320D01*
X42265959Y12855363D01*
X42465837Y13055241D01*
X42622880Y13290273D01*
X42731053Y13551426D01*
X42786200Y13828665D01*
X42786200Y14111335D01*
X42731053Y14388574D01*
X42622880Y14649727D01*
X42465837Y14884759D01*
X42265959Y15084637D01*
X42030927Y15241680D01*
X41769774Y15349853D01*
X41492535Y15405000D01*
X41209865Y15405000D01*
X40932626Y15349853D01*
X40671473Y15241680D01*
X40436441Y15084637D01*
X40236563Y14884759D01*
X40133157Y14730000D01*
X39622843Y14730000D01*
X39519437Y14884759D01*
X39319559Y15084637D01*
X39084527Y15241680D01*
X38823374Y15349853D01*
X38546135Y15405000D01*
X38263465Y15405000D01*
X37986226Y15349853D01*
X37725073Y15241680D01*
X37490041Y15084637D01*
X37290163Y14884759D01*
X37186757Y14730000D01*
X34909603Y14730000D01*
X32618604Y17020997D01*
X32594801Y17050001D01*
X32479076Y17144974D01*
X32347047Y17215546D01*
X32203786Y17259003D01*
X32092133Y17270000D01*
X32092122Y17270000D01*
X32054800Y17273676D01*
X32017478Y17270000D01*
X20126802Y17270000D01*
X18205467Y19191335D01*
X26809800Y19191335D01*
X26809800Y18908665D01*
X26864947Y18631426D01*
X26973120Y18370273D01*
X27130163Y18135241D01*
X27330041Y17935363D01*
X27565073Y17778320D01*
X27826226Y17670147D01*
X28103465Y17615000D01*
X28386135Y17615000D01*
X28663374Y17670147D01*
X28924527Y17778320D01*
X29159559Y17935363D01*
X29359437Y18135241D01*
X29516480Y18370273D01*
X29624653Y18631426D01*
X29679800Y18908665D01*
X29679800Y19191335D01*
X29624653Y19468574D01*
X29516480Y19729727D01*
X29359437Y19964759D01*
X29159559Y20164637D01*
X28924527Y20321680D01*
X28663374Y20429853D01*
X28386135Y20485000D01*
X28103465Y20485000D01*
X27826226Y20429853D01*
X27565073Y20321680D01*
X27330041Y20164637D01*
X27130163Y19964759D01*
X26973120Y19729727D01*
X26864947Y19468574D01*
X26809800Y19191335D01*
X18205467Y19191335D01*
X17523804Y19872997D01*
X17500001Y19902001D01*
X17384276Y19996974D01*
X17252247Y20067546D01*
X17108986Y20111003D01*
X16997333Y20122000D01*
X16997322Y20122000D01*
X16960000Y20125676D01*
X16922678Y20122000D01*
X14712178Y20122000D01*
X14587475Y20308632D01*
X14380632Y20515475D01*
X14206240Y20632000D01*
X14380632Y20748525D01*
X14587475Y20955368D01*
X14712178Y21142000D01*
X29294399Y21142000D01*
X31897401Y18538997D01*
X31921199Y18509999D01*
X31950197Y18486201D01*
X32036923Y18415026D01*
X32154155Y18352364D01*
X32168953Y18344454D01*
X32312214Y18300997D01*
X32423867Y18290000D01*
X32423876Y18290000D01*
X32461199Y18286324D01*
X32498522Y18290000D01*
X34646757Y18290000D01*
X34750163Y18135241D01*
X34950041Y17935363D01*
X35185073Y17778320D01*
X35446226Y17670147D01*
X35723465Y17615000D01*
X36006135Y17615000D01*
X36283374Y17670147D01*
X36544527Y17778320D01*
X36779559Y17935363D01*
X36979437Y18135241D01*
X37082843Y18290000D01*
X37542357Y18290000D01*
X37645763Y18135241D01*
X37845641Y17935363D01*
X38080673Y17778320D01*
X38341826Y17670147D01*
X38619065Y17615000D01*
X38901735Y17615000D01*
X39178974Y17670147D01*
X39440127Y17778320D01*
X39675159Y17935363D01*
X39875037Y18135241D01*
X40032080Y18370273D01*
X40140253Y18631426D01*
X40195400Y18908665D01*
X40195400Y19191335D01*
X40140253Y19468574D01*
X40032080Y19729727D01*
X39875037Y19964759D01*
X39675159Y20164637D01*
X39440127Y20321680D01*
X39178974Y20429853D01*
X38901735Y20485000D01*
X38619065Y20485000D01*
X38341826Y20429853D01*
X38080673Y20321680D01*
X37845641Y20164637D01*
X37645763Y19964759D01*
X37542357Y19810000D01*
X37082843Y19810000D01*
X36979437Y19964759D01*
X36779559Y20164637D01*
X36544527Y20321680D01*
X36283374Y20429853D01*
X36006135Y20485000D01*
X35723465Y20485000D01*
X35446226Y20429853D01*
X35185073Y20321680D01*
X34950041Y20164637D01*
X34750163Y19964759D01*
X34646757Y19810000D01*
X32776002Y19810000D01*
X30173004Y22412997D01*
X30149201Y22442001D01*
X30033476Y22536974D01*
X29901447Y22607546D01*
X29758186Y22651003D01*
X29646533Y22662000D01*
X29646522Y22662000D01*
X29609200Y22665676D01*
X29571878Y22662000D01*
X14712178Y22662000D01*
X14587475Y22848632D01*
X14380632Y23055475D01*
X14206240Y23172000D01*
X14380632Y23288525D01*
X14587475Y23495368D01*
X14749990Y23738589D01*
X14825132Y23920000D01*
X19122928Y23920000D01*
X19135188Y23795518D01*
X19171498Y23675820D01*
X19230463Y23565506D01*
X19309815Y23468815D01*
X19406506Y23389463D01*
X19516820Y23330498D01*
X19636518Y23294188D01*
X19761000Y23281928D01*
X20325250Y23285000D01*
X20484000Y23443750D01*
X20484000Y24643000D01*
X19284750Y24643000D01*
X19126000Y24484250D01*
X19122928Y23920000D01*
X14825132Y23920000D01*
X14861932Y24008842D01*
X14919000Y24295740D01*
X14919000Y24588260D01*
X14861932Y24875158D01*
X14749990Y25145411D01*
X14587475Y25388632D01*
X14380632Y25595475D01*
X14343928Y25620000D01*
X19122928Y25620000D01*
X19126000Y25055750D01*
X19284750Y24897000D01*
X20484000Y24897000D01*
X20484000Y26096250D01*
X20325250Y26255000D01*
X19761000Y26258072D01*
X19636518Y26245812D01*
X19516820Y26209502D01*
X19406506Y26150537D01*
X19309815Y26071185D01*
X19230463Y25974494D01*
X19171498Y25864180D01*
X19135188Y25744482D01*
X19122928Y25620000D01*
X14343928Y25620000D01*
X14206240Y25712000D01*
X14380632Y25828525D01*
X14587475Y26035368D01*
X14749990Y26278589D01*
X14861932Y26548842D01*
X14919000Y26835740D01*
X14919000Y27128260D01*
X14861932Y27415158D01*
X14749990Y27685411D01*
X14587475Y27928632D01*
X14380632Y28135475D01*
X14206240Y28252000D01*
X14380632Y28368525D01*
X14587475Y28575368D01*
X14749990Y28818589D01*
X14861932Y29088842D01*
X14919000Y29375740D01*
X14919000Y29668260D01*
X14861932Y29955158D01*
X14749990Y30225411D01*
X14587475Y30468632D01*
X14380632Y30675475D01*
X14137411Y30837990D01*
X13867158Y30949932D01*
X13580260Y31007000D01*
X13287740Y31007000D01*
X13000842Y30949932D01*
X12730589Y30837990D01*
X12487368Y30675475D01*
X12280525Y30468632D01*
X12155822Y30282000D01*
X11779322Y30282000D01*
X11741999Y30285676D01*
X11704676Y30282000D01*
X11704667Y30282000D01*
X11593014Y30271003D01*
X11449753Y30227546D01*
X11317723Y30156974D01*
X11234083Y30088332D01*
X11201999Y30062001D01*
X11178201Y30033003D01*
X9394998Y28249799D01*
X9366000Y28226001D01*
X9342202Y28197003D01*
X9342201Y28197002D01*
X9271026Y28110276D01*
X9200454Y27978246D01*
X9156998Y27834985D01*
X9142324Y27686000D01*
X9146001Y27648667D01*
X9146000Y11975322D01*
X9142324Y11938000D01*
X9146000Y11900678D01*
X9146000Y11900668D01*
X9156997Y11789015D01*
X9171728Y11740454D01*
X9200454Y11645754D01*
X9271026Y11513724D01*
X9310871Y11465174D01*
X9365999Y11397999D01*
X9395003Y11374196D01*
X11882205Y8886992D01*
X11905999Y8857999D01*
X11934992Y8834205D01*
X11934996Y8834201D01*
X12005685Y8776189D01*
X12021724Y8763026D01*
X12153753Y8692454D01*
X12297014Y8648997D01*
X12408667Y8638000D01*
X12408676Y8638000D01*
X12445999Y8634324D01*
X12483322Y8638000D01*
X23522632Y8638000D01*
X22589574Y7704941D01*
X22557710Y7678791D01*
X22508086Y7618324D01*
X22453364Y7551645D01*
X22375828Y7406586D01*
X22328082Y7249188D01*
X22311960Y7085500D01*
X22316001Y7044472D01*
X22316001Y6018065D01*
X22204368Y5943475D01*
X22072513Y5811620D01*
X22050502Y5884180D01*
X21991537Y5994494D01*
X21912185Y6091185D01*
X21815494Y6170537D01*
X21705180Y6229502D01*
X21585482Y6265812D01*
X21461000Y6278072D01*
X20896750Y6275000D01*
X20738000Y6116250D01*
X20738000Y4917000D01*
X20758000Y4917000D01*
X20758000Y4663000D01*
X20738000Y4663000D01*
X20738000Y3463750D01*
X20896750Y3305000D01*
X21461000Y3301928D01*
X21585482Y3314188D01*
X21705180Y3350498D01*
X21815494Y3409463D01*
X21912185Y3488815D01*
X21991537Y3585506D01*
X22050502Y3695820D01*
X22072513Y3768380D01*
X22204368Y3636525D01*
X22447589Y3474010D01*
X22717842Y3362068D01*
X23004740Y3305000D01*
X23297260Y3305000D01*
X23584158Y3362068D01*
X23854411Y3474010D01*
X24097632Y3636525D01*
X24304475Y3843368D01*
X24421000Y4017760D01*
X24537525Y3843368D01*
X24744368Y3636525D01*
X24987589Y3474010D01*
X25257842Y3362068D01*
X25544740Y3305000D01*
X25837260Y3305000D01*
X26124158Y3362068D01*
X26394411Y3474010D01*
X26637632Y3636525D01*
X26844475Y3843368D01*
X26961000Y4017760D01*
X27077525Y3843368D01*
X27284368Y3636525D01*
X27527589Y3474010D01*
X27797842Y3362068D01*
X28084740Y3305000D01*
X28377260Y3305000D01*
X28664158Y3362068D01*
X28934411Y3474010D01*
X29177632Y3636525D01*
X29384475Y3843368D01*
X29501000Y4017760D01*
X29617525Y3843368D01*
X29824368Y3636525D01*
X30067589Y3474010D01*
X30337842Y3362068D01*
X30624740Y3305000D01*
X30917260Y3305000D01*
X31204158Y3362068D01*
X31474411Y3474010D01*
X31717632Y3636525D01*
X31924475Y3843368D01*
X32041000Y4017760D01*
X32157525Y3843368D01*
X32364368Y3636525D01*
X32607589Y3474010D01*
X32877842Y3362068D01*
X33164740Y3305000D01*
X33457260Y3305000D01*
X33744158Y3362068D01*
X34014411Y3474010D01*
X34257632Y3636525D01*
X34464475Y3843368D01*
X34581000Y4017760D01*
X34697525Y3843368D01*
X34904368Y3636525D01*
X35147589Y3474010D01*
X35417842Y3362068D01*
X35704740Y3305000D01*
X35997260Y3305000D01*
X36284158Y3362068D01*
X36498794Y3450973D01*
X42487037Y3450973D01*
X42585036Y3174022D01*
X42735183Y2921512D01*
X42931707Y2703146D01*
X43167056Y2527316D01*
X43432186Y2400778D01*
X43582974Y2355042D01*
X43815000Y2476183D01*
X43815000Y3683000D01*
X42607536Y3683000D01*
X42487037Y3450973D01*
X36498794Y3450973D01*
X36554411Y3474010D01*
X36797632Y3636525D01*
X37004475Y3843368D01*
X37166990Y4086589D01*
X37278932Y4356842D01*
X37336000Y4643740D01*
X37336000Y4936260D01*
X37278932Y5223158D01*
X37166990Y5493411D01*
X37004475Y5736632D01*
X36797632Y5943475D01*
X36554411Y6105990D01*
X36284158Y6217932D01*
X35997260Y6275000D01*
X35704740Y6275000D01*
X35417842Y6217932D01*
X35147589Y6105990D01*
X34904368Y5943475D01*
X34697525Y5736632D01*
X34581000Y5562240D01*
X34464475Y5736632D01*
X34257632Y5943475D01*
X34014411Y6105990D01*
X33744158Y6217932D01*
X33457260Y6275000D01*
X33164740Y6275000D01*
X32877842Y6217932D01*
X32607589Y6105990D01*
X32364368Y5943475D01*
X32157525Y5736632D01*
X32041000Y5562240D01*
X31924475Y5736632D01*
X31717632Y5943475D01*
X31474411Y6105990D01*
X31204158Y6217932D01*
X30917260Y6275000D01*
X30624740Y6275000D01*
X30337842Y6217932D01*
X30067589Y6105990D01*
X29824368Y5943475D01*
X29617525Y5736632D01*
X29501000Y5562240D01*
X29384475Y5736632D01*
X29177632Y5943475D01*
X28934411Y6105990D01*
X28664158Y6217932D01*
X28377260Y6275000D01*
X28084740Y6275000D01*
X27797842Y6217932D01*
X27527589Y6105990D01*
X27284368Y5943475D01*
X27077525Y5736632D01*
X26961000Y5562240D01*
X26844475Y5736632D01*
X26637632Y5943475D01*
X26394411Y6105990D01*
X26124158Y6217932D01*
X25837260Y6275000D01*
X25544740Y6275000D01*
X25257842Y6217932D01*
X24987589Y6105990D01*
X24744368Y5943475D01*
X24537525Y5736632D01*
X24421000Y5562240D01*
X24304475Y5736632D01*
X24097632Y5943475D01*
X23986000Y6018065D01*
X23986000Y6739633D01*
X24793369Y7547000D01*
X37881133Y7547000D01*
X39639563Y5788568D01*
X39665709Y5756709D01*
X39697568Y5730563D01*
X39697570Y5730561D01*
X39792854Y5652364D01*
X39937913Y5574828D01*
X40095311Y5527082D01*
X40259000Y5510960D01*
X40300018Y5515000D01*
X42440328Y5515000D01*
X42440328Y5486400D01*
X42452588Y5361918D01*
X42488898Y5242220D01*
X42547863Y5131906D01*
X42627215Y5035215D01*
X42723906Y4955863D01*
X42834220Y4896898D01*
X42896692Y4877947D01*
X42735183Y4698488D01*
X42585036Y4445978D01*
X42487037Y4169027D01*
X42607536Y3937000D01*
X43815000Y3937000D01*
X43815000Y3957000D01*
X44069000Y3957000D01*
X44069000Y3937000D01*
X44089000Y3937000D01*
X44089000Y3683000D01*
X44069000Y3683000D01*
X44069000Y2476183D01*
X44301026Y2355042D01*
X44451814Y2400778D01*
X44716944Y2527316D01*
X44952293Y2703146D01*
X45148817Y2921512D01*
X45207441Y3020103D01*
X45317961Y2854698D01*
X45526698Y2645961D01*
X45772147Y2481958D01*
X46044875Y2368990D01*
X46334401Y2311400D01*
X46629599Y2311400D01*
X46919125Y2368990D01*
X47191853Y2481958D01*
X47437302Y2645961D01*
X47646039Y2854698D01*
X47752000Y3013281D01*
X47857961Y2854698D01*
X48066698Y2645961D01*
X48312147Y2481958D01*
X48584875Y2368990D01*
X48874401Y2311400D01*
X49169599Y2311400D01*
X49459125Y2368990D01*
X49731853Y2481958D01*
X49977302Y2645961D01*
X50186039Y2854698D01*
X50292000Y3013281D01*
X50397961Y2854698D01*
X50606698Y2645961D01*
X50852147Y2481958D01*
X51124875Y2368990D01*
X51414401Y2311400D01*
X51709599Y2311400D01*
X51999125Y2368990D01*
X52271853Y2481958D01*
X52517302Y2645961D01*
X52726039Y2854698D01*
X52832000Y3013281D01*
X52937961Y2854698D01*
X53146698Y2645961D01*
X53392147Y2481958D01*
X53664875Y2368990D01*
X53954401Y2311400D01*
X54249599Y2311400D01*
X54539125Y2368990D01*
X54811853Y2481958D01*
X55057302Y2645961D01*
X55266039Y2854698D01*
X55430042Y3100147D01*
X55543010Y3372875D01*
X55600600Y3662401D01*
X55600600Y3957599D01*
X55543010Y4247125D01*
X55430042Y4519853D01*
X55266039Y4765302D01*
X55057302Y4974039D01*
X54898719Y5080000D01*
X55057302Y5185961D01*
X55266039Y5394698D01*
X55396535Y5590000D01*
X55819199Y5590000D01*
X60142205Y1266992D01*
X60165999Y1237999D01*
X60194992Y1214205D01*
X60194996Y1214201D01*
X60265685Y1156189D01*
X60281724Y1143026D01*
X60413753Y1072454D01*
X60530631Y1037000D01*
X4638447Y1037000D01*
X4409760Y1265686D01*
X4682075Y1152890D01*
X5113872Y1067000D01*
X5554128Y1067000D01*
X5985925Y1152890D01*
X6392669Y1321369D01*
X6758729Y1565962D01*
X7070038Y1877271D01*
X7314631Y2243331D01*
X7483110Y2650075D01*
X7569000Y3081872D01*
X7569000Y3522128D01*
X7485880Y3940000D01*
X19122928Y3940000D01*
X19135188Y3815518D01*
X19171498Y3695820D01*
X19230463Y3585506D01*
X19309815Y3488815D01*
X19406506Y3409463D01*
X19516820Y3350498D01*
X19636518Y3314188D01*
X19761000Y3301928D01*
X20325250Y3305000D01*
X20484000Y3463750D01*
X20484000Y4663000D01*
X19284750Y4663000D01*
X19126000Y4504250D01*
X19122928Y3940000D01*
X7485880Y3940000D01*
X7483110Y3953925D01*
X7314631Y4360669D01*
X7070038Y4726729D01*
X6758729Y5038038D01*
X6392669Y5282631D01*
X5985925Y5451110D01*
X5554128Y5537000D01*
X5113872Y5537000D01*
X4682075Y5451110D01*
X4275331Y5282631D01*
X3909271Y5038038D01*
X3597962Y4726729D01*
X3353369Y4360669D01*
X3184890Y3953925D01*
X3099000Y3522128D01*
X3099000Y3081872D01*
X3184890Y2650075D01*
X3297687Y2377760D01*
X1069000Y4606446D01*
X1069000Y5640000D01*
X19122928Y5640000D01*
X19126000Y5075750D01*
X19284750Y4917000D01*
X20484000Y4917000D01*
X20484000Y6116250D01*
X20325250Y6275000D01*
X19761000Y6278072D01*
X19636518Y6265812D01*
X19516820Y6229502D01*
X19406506Y6170537D01*
X19309815Y6091185D01*
X19230463Y5994494D01*
X19171498Y5884180D01*
X19135188Y5764482D01*
X19122928Y5640000D01*
X1069000Y5640000D01*
X1069000Y32145335D01*
X48349000Y32145335D01*
X48349000Y31862665D01*
X48404147Y31585426D01*
X48512320Y31324273D01*
X48669363Y31089241D01*
X48869241Y30889363D01*
X49104273Y30732320D01*
X49365426Y30624147D01*
X49642665Y30569000D01*
X49925335Y30569000D01*
X50202574Y30624147D01*
X50463727Y30732320D01*
X50698759Y30889363D01*
X50898637Y31089241D01*
X51055680Y31324273D01*
X51163853Y31585426D01*
X51219000Y31862665D01*
X51219000Y32145335D01*
X51163853Y32422574D01*
X51055680Y32683727D01*
X50898637Y32918759D01*
X50698759Y33118637D01*
X50463727Y33275680D01*
X50202574Y33383853D01*
X49925335Y33439000D01*
X49642665Y33439000D01*
X49365426Y33383853D01*
X49104273Y33275680D01*
X48869241Y33118637D01*
X48669363Y32918759D01*
X48512320Y32683727D01*
X48404147Y32422574D01*
X48349000Y32145335D01*
X1069000Y32145335D01*
X1069000Y37997554D01*
X3297687Y40226240D01*
X3184890Y39953925D01*
X3099000Y39522128D01*
X3099000Y39081872D01*
X3184890Y38650075D01*
X3353369Y38243331D01*
X3597962Y37877271D01*
X3909271Y37565962D01*
X4275331Y37321369D01*
X4682075Y37152890D01*
X5113872Y37067000D01*
X5554128Y37067000D01*
X5985925Y37152890D01*
X6392669Y37321369D01*
X6758729Y37565962D01*
X7070038Y37877271D01*
X7314631Y38243331D01*
X7483110Y38650075D01*
X7569000Y39081872D01*
X7569000Y39522128D01*
X7483110Y39953925D01*
X7314631Y40360669D01*
X7070038Y40726729D01*
X6758729Y41038038D01*
X6392669Y41282631D01*
X5985925Y41451110D01*
X5554128Y41537000D01*
X5113872Y41537000D01*
X4682075Y41451110D01*
X4409760Y41338314D01*
X4638447Y41567000D01*
X20306554Y41567000D01*
X23565746Y38307807D01*
G37*
X23565746Y38307807D02*
X23588762Y38279762D01*
X23700680Y38187913D01*
X23828367Y38119663D01*
X23966915Y38077635D01*
X24074895Y38067000D01*
X24074904Y38067000D01*
X24110999Y38063445D01*
X24147094Y38067000D01*
X31074895Y38067000D01*
X31111000Y38063444D01*
X31147105Y38067000D01*
X31255085Y38077635D01*
X31393633Y38119663D01*
X31521320Y38187913D01*
X31633238Y38279762D01*
X31656259Y38307813D01*
X32870574Y39522128D01*
X86299000Y39522128D01*
X86299000Y39081872D01*
X86384890Y38650075D01*
X86553369Y38243331D01*
X86797962Y37877271D01*
X87109271Y37565962D01*
X87475331Y37321369D01*
X87882075Y37152890D01*
X88313872Y37067000D01*
X88754128Y37067000D01*
X89185925Y37152890D01*
X89592669Y37321369D01*
X89958729Y37565962D01*
X90270038Y37877271D01*
X90514631Y38243331D01*
X90683110Y38650075D01*
X90769000Y39081872D01*
X90769000Y39522128D01*
X90683110Y39953925D01*
X90514631Y40360669D01*
X90270038Y40726729D01*
X89958729Y41038038D01*
X89592669Y41282631D01*
X89185925Y41451110D01*
X88754128Y41537000D01*
X88313872Y41537000D01*
X87882075Y41451110D01*
X87475331Y41282631D01*
X87109271Y41038038D01*
X86797962Y40726729D01*
X86553369Y40360669D01*
X86384890Y39953925D01*
X86299000Y39522128D01*
X32870574Y39522128D01*
X34915447Y41567000D01*
X125229554Y41567000D01*
X125458241Y41338313D01*
X125185925Y41451110D01*
X124754128Y41537000D01*
X124313872Y41537000D01*
X123882075Y41451110D01*
X123475331Y41282631D01*
X123109271Y41038038D01*
X122797962Y40726729D01*
X122553369Y40360669D01*
X122384890Y39953925D01*
X122299000Y39522128D01*
X122299000Y39081872D01*
X122384890Y38650075D01*
X122553369Y38243331D01*
X122797962Y37877271D01*
X123109271Y37565962D01*
X123475331Y37321369D01*
X123882075Y37152890D01*
X124313872Y37067000D01*
X124754128Y37067000D01*
X125185925Y37152890D01*
X125592669Y37321369D01*
X125958729Y37565962D01*
X126270038Y37877271D01*
X126514631Y38243331D01*
X126683110Y38650075D01*
X126769000Y39081872D01*
X126769000Y39522128D01*
X126683110Y39953925D01*
X126570313Y40226240D01*
X128799000Y37997553D01*
X128799001Y4606448D01*
X126570313Y2377760D01*
X126683110Y2650075D01*
X126769000Y3081872D01*
X126769000Y3522128D01*
X126683110Y3953925D01*
X126514631Y4360669D01*
X126270038Y4726729D01*
X125958729Y5038038D01*
X125592669Y5282631D01*
X125185925Y5451110D01*
X124754128Y5537000D01*
X124313872Y5537000D01*
X123882075Y5451110D01*
X123475331Y5282631D01*
X123109271Y5038038D01*
X122797962Y4726729D01*
X122553369Y4360669D01*
X122384890Y3953925D01*
X122299000Y3522128D01*
X122299000Y3081872D01*
X122384890Y2650075D01*
X122553369Y2243331D01*
X122797962Y1877271D01*
X123109271Y1565962D01*
X123475331Y1321369D01*
X123882075Y1152890D01*
X124313872Y1067000D01*
X124754128Y1067000D01*
X125185925Y1152890D01*
X125458241Y1265687D01*
X125229554Y1037000D01*
X80185369Y1037000D01*
X80302247Y1072454D01*
X80434276Y1143026D01*
X80550001Y1237999D01*
X80573804Y1267003D01*
X82828929Y3522128D01*
X86299000Y3522128D01*
X86299000Y3081872D01*
X86384890Y2650075D01*
X86553369Y2243331D01*
X86797962Y1877271D01*
X87109271Y1565962D01*
X87475331Y1321369D01*
X87882075Y1152890D01*
X88313872Y1067000D01*
X88754128Y1067000D01*
X89185925Y1152890D01*
X89592669Y1321369D01*
X89958729Y1565962D01*
X90270038Y1877271D01*
X90514631Y2243331D01*
X90683110Y2650075D01*
X90769000Y3081872D01*
X90769000Y3522128D01*
X90683110Y3953925D01*
X90514631Y4360669D01*
X90270038Y4726729D01*
X89958729Y5038038D01*
X89592669Y5282631D01*
X89185925Y5451110D01*
X88754128Y5537000D01*
X88313872Y5537000D01*
X87882075Y5451110D01*
X87475331Y5282631D01*
X87109271Y5038038D01*
X86797962Y4726729D01*
X86553369Y4360669D01*
X86384890Y3953925D01*
X86299000Y3522128D01*
X82828929Y3522128D01*
X85785802Y6479000D01*
X95316199Y6479000D01*
X97327801Y4467397D01*
X97351599Y4438399D01*
X97467324Y4343426D01*
X97599353Y4272854D01*
X97742614Y4229397D01*
X97854267Y4218400D01*
X97854276Y4218400D01*
X97891599Y4214724D01*
X97928922Y4218400D01*
X104255078Y4218400D01*
X104292400Y4214724D01*
X104329722Y4218400D01*
X104329733Y4218400D01*
X104441386Y4229397D01*
X104584647Y4272854D01*
X104716676Y4343426D01*
X104832401Y4438399D01*
X104856204Y4467403D01*
X107020004Y6631202D01*
X107049001Y6654999D01*
X107143974Y6770724D01*
X107214546Y6902753D01*
X107258003Y7046014D01*
X107269000Y7157667D01*
X107269000Y7157675D01*
X107272676Y7195000D01*
X107269000Y7232325D01*
X107269000Y7614822D01*
X107455632Y7739525D01*
X107662475Y7946368D01*
X107779000Y8120760D01*
X107895525Y7946368D01*
X108102368Y7739525D01*
X108345589Y7577010D01*
X108615842Y7465068D01*
X108902740Y7408000D01*
X109195260Y7408000D01*
X109482158Y7465068D01*
X109752411Y7577010D01*
X109995632Y7739525D01*
X110202475Y7946368D01*
X110319000Y8120760D01*
X110435525Y7946368D01*
X110642368Y7739525D01*
X110885589Y7577010D01*
X111155842Y7465068D01*
X111442740Y7408000D01*
X111735260Y7408000D01*
X112022158Y7465068D01*
X112292411Y7577010D01*
X112535632Y7739525D01*
X112742475Y7946368D01*
X112904990Y8189589D01*
X113016932Y8459842D01*
X113074000Y8746740D01*
X113074000Y9039260D01*
X113016932Y9326158D01*
X112904990Y9596411D01*
X112742475Y9839632D01*
X112535632Y10046475D01*
X112292411Y10208990D01*
X112022158Y10320932D01*
X111735260Y10378000D01*
X111442740Y10378000D01*
X111155842Y10320932D01*
X110885589Y10208990D01*
X110642368Y10046475D01*
X110435525Y9839632D01*
X110319000Y9665240D01*
X110202475Y9839632D01*
X109995632Y10046475D01*
X109752411Y10208990D01*
X109482158Y10320932D01*
X109195260Y10378000D01*
X108902740Y10378000D01*
X108615842Y10320932D01*
X108345589Y10208990D01*
X108102368Y10046475D01*
X107895525Y9839632D01*
X107779000Y9665240D01*
X107662475Y9839632D01*
X107455632Y10046475D01*
X107212411Y10208990D01*
X106942158Y10320932D01*
X106655260Y10378000D01*
X106362740Y10378000D01*
X106075842Y10320932D01*
X105805589Y10208990D01*
X105562368Y10046475D01*
X105355525Y9839632D01*
X105239000Y9665240D01*
X105122475Y9839632D01*
X104915632Y10046475D01*
X104672411Y10208990D01*
X104402158Y10320932D01*
X104115260Y10378000D01*
X103822740Y10378000D01*
X103535842Y10320932D01*
X103265589Y10208990D01*
X103022368Y10046475D01*
X102890513Y9914620D01*
X102868502Y9987180D01*
X102809537Y10097494D01*
X102730185Y10194185D01*
X102633494Y10273537D01*
X102523180Y10332502D01*
X102403482Y10368812D01*
X102279000Y10381072D01*
X101714750Y10378000D01*
X101556000Y10219250D01*
X101556000Y9020000D01*
X101576000Y9020000D01*
X101576000Y8766000D01*
X101556000Y8766000D01*
X101556000Y7566750D01*
X101714750Y7408000D01*
X102279000Y7404928D01*
X102403482Y7417188D01*
X102523180Y7453498D01*
X102633494Y7512463D01*
X102730185Y7591815D01*
X102809537Y7688506D01*
X102868502Y7798820D01*
X102890513Y7871380D01*
X103022368Y7739525D01*
X103117015Y7676284D01*
X102371733Y6931000D01*
X99050269Y6931000D01*
X97938269Y8043000D01*
X99940928Y8043000D01*
X99953188Y7918518D01*
X99989498Y7798820D01*
X100048463Y7688506D01*
X100127815Y7591815D01*
X100224506Y7512463D01*
X100334820Y7453498D01*
X100454518Y7417188D01*
X100579000Y7404928D01*
X101143250Y7408000D01*
X101302000Y7566750D01*
X101302000Y8766000D01*
X100102750Y8766000D01*
X99944000Y8607250D01*
X99940928Y8043000D01*
X97938269Y8043000D01*
X96238268Y9743000D01*
X99940928Y9743000D01*
X99944000Y9178750D01*
X100102750Y9020000D01*
X101302000Y9020000D01*
X101302000Y10219250D01*
X101143250Y10378000D01*
X100579000Y10381072D01*
X100454518Y10368812D01*
X100334820Y10332502D01*
X100224506Y10273537D01*
X100127815Y10194185D01*
X100048463Y10097494D01*
X99989498Y9987180D01*
X99953188Y9867482D01*
X99940928Y9743000D01*
X96238268Y9743000D01*
X95463046Y10518221D01*
X95436891Y10550091D01*
X95309746Y10654436D01*
X95164687Y10731972D01*
X95007289Y10779718D01*
X94884619Y10791800D01*
X94884618Y10791800D01*
X94843600Y10795840D01*
X94802582Y10791800D01*
X86248668Y10791800D01*
X83639000Y13401467D01*
X83639000Y23457375D01*
X83728482Y23466188D01*
X83848180Y23502498D01*
X83958494Y23561463D01*
X84055185Y23640815D01*
X84134537Y23737506D01*
X84193502Y23847820D01*
X84229812Y23967518D01*
X84242072Y24092000D01*
X84242072Y25692000D01*
X84229812Y25816482D01*
X84193502Y25936180D01*
X84134537Y26046494D01*
X84055185Y26143185D01*
X83958494Y26222537D01*
X83848180Y26281502D01*
X83728482Y26317812D01*
X83639000Y26326625D01*
X83639000Y27492582D01*
X83643040Y27533601D01*
X83626918Y27697289D01*
X83579172Y27854687D01*
X83501636Y27999746D01*
X83467287Y28041600D01*
X83397291Y28126891D01*
X83365428Y28153040D01*
X82255046Y29263421D01*
X82228891Y29295291D01*
X82101746Y29399636D01*
X81956687Y29477172D01*
X81799289Y29524918D01*
X81676619Y29537000D01*
X81676618Y29537000D01*
X81635600Y29541040D01*
X81594582Y29537000D01*
X78527068Y29537000D01*
X75410733Y32653335D01*
X77305000Y32653335D01*
X77305000Y32370665D01*
X77360147Y32093426D01*
X77468320Y31832273D01*
X77625363Y31597241D01*
X77825241Y31397363D01*
X78060273Y31240320D01*
X78321426Y31132147D01*
X78598665Y31077000D01*
X78881335Y31077000D01*
X79158574Y31132147D01*
X79419727Y31240320D01*
X79654759Y31397363D01*
X79854637Y31597241D01*
X80011680Y31832273D01*
X80119853Y32093426D01*
X80175000Y32370665D01*
X80175000Y32653335D01*
X81369000Y32653335D01*
X81369000Y32370665D01*
X81424147Y32093426D01*
X81532320Y31832273D01*
X81689363Y31597241D01*
X81889241Y31397363D01*
X82124273Y31240320D01*
X82385426Y31132147D01*
X82662665Y31077000D01*
X82945335Y31077000D01*
X83222574Y31132147D01*
X83483727Y31240320D01*
X83718759Y31397363D01*
X83918637Y31597241D01*
X84075680Y31832273D01*
X84183853Y32093426D01*
X84239000Y32370665D01*
X84239000Y32653335D01*
X84183853Y32930574D01*
X84075680Y33191727D01*
X84059319Y33216214D01*
X88295444Y33216214D01*
X88299000Y33180109D01*
X88299001Y11838115D01*
X88295444Y11802000D01*
X88309635Y11657915D01*
X88351663Y11519367D01*
X88419913Y11391680D01*
X88511762Y11279762D01*
X88623680Y11187913D01*
X88751367Y11119663D01*
X88889915Y11077635D01*
X88997895Y11067000D01*
X89034000Y11063444D01*
X89070105Y11067000D01*
X123997895Y11067000D01*
X124034000Y11063444D01*
X124070105Y11067000D01*
X124178085Y11077635D01*
X124316633Y11119663D01*
X124444320Y11187913D01*
X124556238Y11279762D01*
X124648087Y11391680D01*
X124716337Y11519367D01*
X124758365Y11657915D01*
X124772556Y11802000D01*
X124769000Y11838105D01*
X124769000Y33180120D01*
X124772555Y33216215D01*
X124769000Y33252310D01*
X124769000Y33252319D01*
X124758365Y33360299D01*
X124716337Y33498847D01*
X124648087Y33626534D01*
X124631514Y33646727D01*
X124579253Y33710408D01*
X124579250Y33710411D01*
X124556237Y33738452D01*
X124528198Y33761463D01*
X118993473Y39296187D01*
X118970452Y39324238D01*
X118858534Y39416087D01*
X118730847Y39484337D01*
X118592299Y39526365D01*
X118484319Y39537000D01*
X118448214Y39540556D01*
X118412109Y39537000D01*
X94655892Y39537000D01*
X94619787Y39540556D01*
X94583682Y39537000D01*
X94475702Y39526365D01*
X94337154Y39484337D01*
X94209467Y39416087D01*
X94097549Y39324238D01*
X94074534Y39296194D01*
X88539808Y33761468D01*
X88511762Y33738451D01*
X88419913Y33626533D01*
X88351663Y33498846D01*
X88333509Y33439000D01*
X88309635Y33360299D01*
X88295444Y33216214D01*
X84059319Y33216214D01*
X83918637Y33426759D01*
X83718759Y33626637D01*
X83483727Y33783680D01*
X83222574Y33891853D01*
X82945335Y33947000D01*
X82662665Y33947000D01*
X82385426Y33891853D01*
X82124273Y33783680D01*
X81889241Y33626637D01*
X81689363Y33426759D01*
X81532320Y33191727D01*
X81424147Y32930574D01*
X81369000Y32653335D01*
X80175000Y32653335D01*
X80119853Y32930574D01*
X80011680Y33191727D01*
X79854637Y33426759D01*
X79654759Y33626637D01*
X79419727Y33783680D01*
X79158574Y33891853D01*
X78881335Y33947000D01*
X78598665Y33947000D01*
X78321426Y33891853D01*
X78060273Y33783680D01*
X77825241Y33626637D01*
X77625363Y33426759D01*
X77468320Y33191727D01*
X77360147Y32930574D01*
X77305000Y32653335D01*
X75410733Y32653335D01*
X74482646Y33581421D01*
X74456491Y33613291D01*
X74329346Y33717636D01*
X74184287Y33795172D01*
X74026889Y33842918D01*
X73904219Y33855000D01*
X73904218Y33855000D01*
X73863200Y33859040D01*
X73822182Y33855000D01*
X71488072Y33855000D01*
X71488072Y34020000D01*
X71475812Y34144482D01*
X71439502Y34264180D01*
X71380537Y34374494D01*
X71301185Y34471185D01*
X71204494Y34550537D01*
X71094180Y34609502D01*
X70974482Y34645812D01*
X70850000Y34658072D01*
X68850000Y34658072D01*
X68725518Y34645812D01*
X68605820Y34609502D01*
X68495506Y34550537D01*
X68398815Y34471185D01*
X68319463Y34374494D01*
X68260498Y34264180D01*
X68224188Y34144482D01*
X68211928Y34020000D01*
X68211928Y32020000D01*
X68224188Y31895518D01*
X68260498Y31775820D01*
X68319463Y31665506D01*
X68398815Y31568815D01*
X68495506Y31489463D01*
X68605820Y31430498D01*
X68725518Y31394188D01*
X68850000Y31381928D01*
X70850000Y31381928D01*
X70974482Y31394188D01*
X71094180Y31430498D01*
X71204494Y31489463D01*
X71301185Y31568815D01*
X71380537Y31665506D01*
X71439502Y31775820D01*
X71475812Y31895518D01*
X71488072Y32020000D01*
X71488072Y32185000D01*
X73517333Y32185000D01*
X77561759Y28140573D01*
X77587909Y28108709D01*
X77669682Y28041600D01*
X77715054Y28004364D01*
X77860113Y27926828D01*
X78017511Y27879082D01*
X78181199Y27862960D01*
X78222218Y27867000D01*
X81289733Y27867000D01*
X81969000Y27187732D01*
X81969000Y26326625D01*
X81879518Y26317812D01*
X81759820Y26281502D01*
X81649506Y26222537D01*
X81552815Y26143185D01*
X81473463Y26046494D01*
X81414498Y25936180D01*
X81378188Y25816482D01*
X81365928Y25692000D01*
X81365928Y24092000D01*
X81378188Y23967518D01*
X81414498Y23847820D01*
X81473463Y23737506D01*
X81552815Y23640815D01*
X81649506Y23561463D01*
X81759820Y23502498D01*
X81879518Y23466188D01*
X81969001Y23457375D01*
X81969000Y13096619D01*
X81964960Y13055600D01*
X81969000Y13014582D01*
X81981082Y12891912D01*
X82028828Y12734514D01*
X82106364Y12589455D01*
X82210709Y12462309D01*
X82242579Y12436154D01*
X85283359Y9395373D01*
X85309509Y9363509D01*
X85436654Y9259164D01*
X85581713Y9181628D01*
X85739111Y9133882D01*
X85902800Y9117760D01*
X85943818Y9121800D01*
X94497733Y9121800D01*
X95618124Y8001408D01*
X95593678Y7999000D01*
X85508322Y7999000D01*
X85470999Y8002676D01*
X85433676Y7999000D01*
X85433667Y7999000D01*
X85322014Y7988003D01*
X85178753Y7944546D01*
X85046724Y7873974D01*
X84930999Y7779001D01*
X84907201Y7750003D01*
X79695199Y2538000D01*
X77247726Y2538000D01*
X77409302Y2645961D01*
X77618039Y2854698D01*
X77782042Y3100147D01*
X77895010Y3372875D01*
X77952600Y3662401D01*
X77952600Y3957599D01*
X77895010Y4247125D01*
X77782042Y4519853D01*
X77618039Y4765302D01*
X77409302Y4974039D01*
X77250719Y5080000D01*
X77409302Y5185961D01*
X77618039Y5394698D01*
X77782042Y5640147D01*
X77895010Y5912875D01*
X77952600Y6202401D01*
X77952600Y6497599D01*
X77895010Y6787125D01*
X77782042Y7059853D01*
X77618039Y7305302D01*
X77409302Y7514039D01*
X77163853Y7678042D01*
X76891125Y7791010D01*
X76601599Y7848600D01*
X76306401Y7848600D01*
X76016875Y7791010D01*
X75744147Y7678042D01*
X75498698Y7514039D01*
X75289961Y7305302D01*
X75184000Y7146719D01*
X75078039Y7305302D01*
X74869302Y7514039D01*
X74623853Y7678042D01*
X74351125Y7791010D01*
X74061599Y7848600D01*
X73766401Y7848600D01*
X73476875Y7791010D01*
X73204147Y7678042D01*
X72958698Y7514039D01*
X72749961Y7305302D01*
X72644000Y7146719D01*
X72538039Y7305302D01*
X72329302Y7514039D01*
X72134000Y7644535D01*
X72134000Y12408678D01*
X72137676Y12446001D01*
X72134000Y12483324D01*
X72134000Y12483333D01*
X72123003Y12594986D01*
X72079546Y12738247D01*
X72008974Y12870277D01*
X71937799Y12957003D01*
X71914001Y12986001D01*
X71885003Y13009799D01*
X66115802Y18779000D01*
X77351928Y18779000D01*
X77364188Y18654518D01*
X77400498Y18534820D01*
X77459463Y18424506D01*
X77538815Y18327815D01*
X77635506Y18248463D01*
X77745820Y18189498D01*
X77865518Y18153188D01*
X77990000Y18140928D01*
X78454250Y18144000D01*
X78613000Y18302750D01*
X78613000Y19177000D01*
X78867000Y19177000D01*
X78867000Y18302750D01*
X79025750Y18144000D01*
X79490000Y18140928D01*
X79614482Y18153188D01*
X79734180Y18189498D01*
X79844494Y18248463D01*
X79941185Y18327815D01*
X80020537Y18424506D01*
X80079502Y18534820D01*
X80115812Y18654518D01*
X80128072Y18779000D01*
X80125000Y19018250D01*
X79966250Y19177000D01*
X78867000Y19177000D01*
X78613000Y19177000D01*
X77513750Y19177000D01*
X77355000Y19018250D01*
X77351928Y18779000D01*
X66115802Y18779000D01*
X63050802Y21844000D01*
X77349388Y21844000D01*
X77371785Y21616600D01*
X77438115Y21397940D01*
X77539105Y21209000D01*
X77438115Y21020060D01*
X77371785Y20801400D01*
X77349388Y20574000D01*
X77371785Y20346600D01*
X77435093Y20137902D01*
X77400498Y20073180D01*
X77364188Y19953482D01*
X77351928Y19829000D01*
X77355000Y19589750D01*
X77513750Y19431000D01*
X78286891Y19431000D01*
X78287600Y19430785D01*
X78458021Y19414000D01*
X79021979Y19414000D01*
X79192400Y19430785D01*
X79193109Y19431000D01*
X79966250Y19431000D01*
X80125000Y19589750D01*
X80128072Y19829000D01*
X80115812Y19953482D01*
X80079502Y20073180D01*
X80044907Y20137902D01*
X80108215Y20346600D01*
X80130612Y20574000D01*
X80108215Y20801400D01*
X80041885Y21020060D01*
X79940895Y21209000D01*
X80041885Y21397940D01*
X80108215Y21616600D01*
X80130612Y21844000D01*
X80108215Y22071400D01*
X80041885Y22290060D01*
X79934171Y22491579D01*
X79789212Y22668212D01*
X79612579Y22813171D01*
X79411060Y22920885D01*
X79192400Y22987215D01*
X79021979Y23004000D01*
X78458021Y23004000D01*
X78287600Y22987215D01*
X78068940Y22920885D01*
X77867421Y22813171D01*
X77690788Y22668212D01*
X77545829Y22491579D01*
X77438115Y22290060D01*
X77371785Y22071400D01*
X77349388Y21844000D01*
X63050802Y21844000D01*
X59313769Y25581033D01*
X68215000Y25581033D01*
X68215000Y25258967D01*
X68277832Y24943088D01*
X68401082Y24645537D01*
X68580013Y24377748D01*
X68807748Y24150013D01*
X69075537Y23971082D01*
X69373088Y23847832D01*
X69688967Y23785000D01*
X70011033Y23785000D01*
X70326912Y23847832D01*
X70624463Y23971082D01*
X70892252Y24150013D01*
X71119987Y24377748D01*
X71298918Y24645537D01*
X71422168Y24943088D01*
X71440119Y25033335D01*
X77305000Y25033335D01*
X77305000Y24750665D01*
X77360147Y24473426D01*
X77468320Y24212273D01*
X77625363Y23977241D01*
X77825241Y23777363D01*
X78060273Y23620320D01*
X78321426Y23512147D01*
X78598665Y23457000D01*
X78881335Y23457000D01*
X79158574Y23512147D01*
X79419727Y23620320D01*
X79654759Y23777363D01*
X79854637Y23977241D01*
X80011680Y24212273D01*
X80119853Y24473426D01*
X80175000Y24750665D01*
X80175000Y25033335D01*
X80119853Y25310574D01*
X80011680Y25571727D01*
X79854637Y25806759D01*
X79654759Y26006637D01*
X79419727Y26163680D01*
X79158574Y26271853D01*
X78881335Y26327000D01*
X78598665Y26327000D01*
X78321426Y26271853D01*
X78060273Y26163680D01*
X77825241Y26006637D01*
X77625363Y25806759D01*
X77468320Y25571727D01*
X77360147Y25310574D01*
X77305000Y25033335D01*
X71440119Y25033335D01*
X71485000Y25258967D01*
X71485000Y25581033D01*
X71422168Y25896912D01*
X71298918Y26194463D01*
X71119987Y26462252D01*
X70892252Y26689987D01*
X70624463Y26868918D01*
X70326912Y26992168D01*
X70011033Y27055000D01*
X69688967Y27055000D01*
X69373088Y26992168D01*
X69075537Y26868918D01*
X68807748Y26689987D01*
X68580013Y26462252D01*
X68401082Y26194463D01*
X68277832Y25896912D01*
X68215000Y25581033D01*
X59313769Y25581033D01*
X56342204Y28552597D01*
X56318401Y28581601D01*
X56202676Y28676574D01*
X56070647Y28747146D01*
X55927386Y28790603D01*
X55815733Y28801600D01*
X55815722Y28801600D01*
X55778400Y28805276D01*
X55741078Y28801600D01*
X30337842Y28801600D01*
X30300519Y28805276D01*
X30263196Y28801600D01*
X30263186Y28801600D01*
X30151533Y28790603D01*
X30008272Y28747146D01*
X29876243Y28676574D01*
X29760518Y28581601D01*
X29736720Y28552603D01*
X27719998Y26535880D01*
X27691000Y26512082D01*
X27667202Y26483084D01*
X27667201Y26483083D01*
X27596026Y26396357D01*
X27525454Y26264327D01*
X27523557Y26258072D01*
X27490938Y26150537D01*
X27481998Y26121066D01*
X27475088Y26050910D01*
X27284368Y25923475D01*
X27077525Y25716632D01*
X26961000Y25542240D01*
X26844475Y25716632D01*
X26637632Y25923475D01*
X26394411Y26085990D01*
X26124158Y26197932D01*
X25837260Y26255000D01*
X25544740Y26255000D01*
X25257842Y26197932D01*
X24987589Y26085990D01*
X24744368Y25923475D01*
X24537525Y25716632D01*
X24421000Y25542240D01*
X24304475Y25716632D01*
X24097632Y25923475D01*
X23854411Y26085990D01*
X23584158Y26197932D01*
X23297260Y26255000D01*
X23004740Y26255000D01*
X22717842Y26197932D01*
X22447589Y26085990D01*
X22204368Y25923475D01*
X22072513Y25791620D01*
X22050502Y25864180D01*
X21991537Y25974494D01*
X21912185Y26071185D01*
X21815494Y26150537D01*
X21705180Y26209502D01*
X21585482Y26245812D01*
X21461000Y26258072D01*
X20896750Y26255000D01*
X20738000Y26096250D01*
X20738000Y24897000D01*
X20758000Y24897000D01*
X20758000Y24643000D01*
X20738000Y24643000D01*
X20738000Y23443750D01*
X20896750Y23285000D01*
X21461000Y23281928D01*
X21585482Y23294188D01*
X21705180Y23330498D01*
X21815494Y23389463D01*
X21912185Y23468815D01*
X21991537Y23565506D01*
X22050502Y23675820D01*
X22072513Y23748380D01*
X22204368Y23616525D01*
X22447589Y23454010D01*
X22717842Y23342068D01*
X23004740Y23285000D01*
X23297260Y23285000D01*
X23584158Y23342068D01*
X23854411Y23454010D01*
X24097632Y23616525D01*
X24304475Y23823368D01*
X24421000Y23997760D01*
X24537525Y23823368D01*
X24744368Y23616525D01*
X24987589Y23454010D01*
X25257842Y23342068D01*
X25544740Y23285000D01*
X25837260Y23285000D01*
X26124158Y23342068D01*
X26394411Y23454010D01*
X26637632Y23616525D01*
X26844475Y23823368D01*
X26961000Y23997760D01*
X27077525Y23823368D01*
X27284368Y23616525D01*
X27527589Y23454010D01*
X27797842Y23342068D01*
X28084740Y23285000D01*
X28377260Y23285000D01*
X28664158Y23342068D01*
X28934411Y23454010D01*
X29177632Y23616525D01*
X29384475Y23823368D01*
X29501000Y23997760D01*
X29617525Y23823368D01*
X29824368Y23616525D01*
X30067589Y23454010D01*
X30337842Y23342068D01*
X30624740Y23285000D01*
X30917260Y23285000D01*
X31204158Y23342068D01*
X31474411Y23454010D01*
X31717632Y23616525D01*
X31924475Y23823368D01*
X32041000Y23997760D01*
X32157525Y23823368D01*
X32364368Y23616525D01*
X32607589Y23454010D01*
X32877842Y23342068D01*
X33164740Y23285000D01*
X33457260Y23285000D01*
X33744158Y23342068D01*
X34014411Y23454010D01*
X34257632Y23616525D01*
X34464475Y23823368D01*
X34581000Y23997760D01*
X34697525Y23823368D01*
X34904368Y23616525D01*
X35147589Y23454010D01*
X35417842Y23342068D01*
X35704740Y23285000D01*
X35997260Y23285000D01*
X36284158Y23342068D01*
X36554411Y23454010D01*
X36797632Y23616525D01*
X37004475Y23823368D01*
X37166990Y24066589D01*
X37278932Y24336842D01*
X37316425Y24525335D01*
X48349000Y24525335D01*
X48349000Y24242665D01*
X48404147Y23965426D01*
X48512320Y23704273D01*
X48669363Y23469241D01*
X48869241Y23269363D01*
X49104273Y23112320D01*
X49365426Y23004147D01*
X49642665Y22949000D01*
X49925335Y22949000D01*
X50202574Y23004147D01*
X50463727Y23112320D01*
X50698759Y23269363D01*
X50898637Y23469241D01*
X51055680Y23704273D01*
X51163853Y23965426D01*
X51219000Y24242665D01*
X51219000Y24525335D01*
X51163853Y24802574D01*
X51055680Y25063727D01*
X50898637Y25298759D01*
X50698759Y25498637D01*
X50463727Y25655680D01*
X50202574Y25763853D01*
X49925335Y25819000D01*
X49642665Y25819000D01*
X49365426Y25763853D01*
X49104273Y25655680D01*
X48869241Y25498637D01*
X48669363Y25298759D01*
X48512320Y25063727D01*
X48404147Y24802574D01*
X48349000Y24525335D01*
X37316425Y24525335D01*
X37336000Y24623740D01*
X37336000Y24916260D01*
X37278932Y25203158D01*
X37166990Y25473411D01*
X37004475Y25716632D01*
X36797632Y25923475D01*
X36554411Y26085990D01*
X36284158Y26197932D01*
X35997260Y26255000D01*
X35704740Y26255000D01*
X35417842Y26197932D01*
X35147589Y26085990D01*
X34904368Y25923475D01*
X34697525Y25716632D01*
X34581000Y25542240D01*
X34464475Y25716632D01*
X34257632Y25923475D01*
X34014411Y26085990D01*
X33744158Y26197932D01*
X33457260Y26255000D01*
X33164740Y26255000D01*
X32877842Y26197932D01*
X32607589Y26085990D01*
X32364368Y25923475D01*
X32157525Y25716632D01*
X32041000Y25542240D01*
X31924475Y25716632D01*
X31717632Y25923475D01*
X31474411Y26085990D01*
X31204158Y26197932D01*
X30917260Y26255000D01*
X30624740Y26255000D01*
X30337842Y26197932D01*
X30067589Y26085990D01*
X29824368Y25923475D01*
X29617525Y25716632D01*
X29501000Y25542240D01*
X29384475Y25716632D01*
X29217414Y25883693D01*
X30615321Y27281600D01*
X55463599Y27281600D01*
X70614000Y12131198D01*
X70614001Y7644536D01*
X70418698Y7514039D01*
X70209961Y7305302D01*
X70104000Y7146719D01*
X69998039Y7305302D01*
X69789302Y7514039D01*
X69543853Y7678042D01*
X69271125Y7791010D01*
X68981599Y7848600D01*
X68686401Y7848600D01*
X68396875Y7791010D01*
X68124147Y7678042D01*
X67878698Y7514039D01*
X67764636Y7399977D01*
X67747102Y7457780D01*
X67688137Y7568094D01*
X67608785Y7664785D01*
X67512094Y7744137D01*
X67401780Y7803102D01*
X67282082Y7839412D01*
X67157600Y7851672D01*
X65430400Y7851672D01*
X65305918Y7839412D01*
X65186220Y7803102D01*
X65075906Y7744137D01*
X64979215Y7664785D01*
X64899863Y7568094D01*
X64840898Y7457780D01*
X64804588Y7338082D01*
X64792328Y7213600D01*
X64792328Y5486400D01*
X64804588Y5361918D01*
X64840898Y5242220D01*
X64899863Y5131906D01*
X64979215Y5035215D01*
X65075906Y4955863D01*
X65186220Y4896898D01*
X65248692Y4877947D01*
X65087183Y4698488D01*
X64937036Y4445978D01*
X64839037Y4169027D01*
X64959536Y3937000D01*
X66167000Y3937000D01*
X66167000Y3957000D01*
X66421000Y3957000D01*
X66421000Y3937000D01*
X66441000Y3937000D01*
X66441000Y3683000D01*
X66421000Y3683000D01*
X66421000Y3663000D01*
X66167000Y3663000D01*
X66167000Y3683000D01*
X64959536Y3683000D01*
X64839037Y3450973D01*
X64937036Y3174022D01*
X65087183Y2921512D01*
X65283707Y2703146D01*
X65504755Y2538000D01*
X61020803Y2538000D01*
X56697804Y6860997D01*
X56674001Y6890001D01*
X56558276Y6984974D01*
X56426247Y7055546D01*
X56282986Y7099003D01*
X56171333Y7110000D01*
X56171322Y7110000D01*
X56134000Y7113676D01*
X56096678Y7110000D01*
X55396535Y7110000D01*
X55266039Y7305302D01*
X55057302Y7514039D01*
X54811853Y7678042D01*
X54539125Y7791010D01*
X54249599Y7848600D01*
X53954401Y7848600D01*
X53664875Y7791010D01*
X53392147Y7678042D01*
X53146698Y7514039D01*
X52937961Y7305302D01*
X52832000Y7146719D01*
X52726039Y7305302D01*
X52517302Y7514039D01*
X52322000Y7644535D01*
X52322000Y8344677D01*
X52325676Y8382000D01*
X52322000Y8419323D01*
X52322000Y8419333D01*
X52311003Y8530986D01*
X52267546Y8674247D01*
X52257814Y8692454D01*
X52196974Y8806277D01*
X52125799Y8893003D01*
X52102001Y8922001D01*
X52073003Y8945799D01*
X50093804Y10924997D01*
X50070001Y10954001D01*
X49954276Y11048974D01*
X49822247Y11119546D01*
X49678986Y11163003D01*
X49567333Y11174000D01*
X49567322Y11174000D01*
X49530000Y11177676D01*
X49492678Y11174000D01*
X48981668Y11174000D01*
X49532633Y11724964D01*
X49564491Y11751109D01*
X49668836Y11878254D01*
X49746372Y12023313D01*
X49794118Y12180711D01*
X49806200Y12303381D01*
X49806200Y12303382D01*
X49810240Y12344400D01*
X49806200Y12385418D01*
X49806200Y12802070D01*
X49885959Y12855363D01*
X50085837Y13055241D01*
X50138816Y13134530D01*
X50143588Y13135000D01*
X50143589Y13135000D01*
X50266259Y13147082D01*
X50423657Y13194828D01*
X50568716Y13272364D01*
X50695861Y13376709D01*
X50722016Y13408579D01*
X51564627Y14251190D01*
X51596491Y14277339D01*
X51700836Y14404484D01*
X51778372Y14549543D01*
X51791000Y14591172D01*
X51791000Y14397314D01*
X51842304Y14139395D01*
X51942939Y13896441D01*
X52089038Y13677787D01*
X52274987Y13491838D01*
X52493641Y13345739D01*
X52736595Y13245104D01*
X52994514Y13193800D01*
X53257486Y13193800D01*
X53515405Y13245104D01*
X53758359Y13345739D01*
X53977013Y13491838D01*
X54092706Y13607531D01*
X54884336Y13607531D01*
X54943797Y13373763D01*
X55182242Y13262866D01*
X55437740Y13200617D01*
X55700473Y13189410D01*
X55960344Y13229675D01*
X56207366Y13319865D01*
X56308203Y13373763D01*
X56367664Y13607531D01*
X55626000Y14349195D01*
X54884336Y13607531D01*
X54092706Y13607531D01*
X54162962Y13677787D01*
X54309061Y13896441D01*
X54376361Y14058918D01*
X54417065Y13947434D01*
X54470963Y13846597D01*
X54704731Y13787136D01*
X55446395Y14528800D01*
X55805605Y14528800D01*
X56547269Y13787136D01*
X56781037Y13846597D01*
X56891934Y14085042D01*
X56954183Y14340540D01*
X56965390Y14603273D01*
X56925125Y14863144D01*
X56834935Y15110166D01*
X56781037Y15211003D01*
X56547269Y15270464D01*
X55805605Y14528800D01*
X55446395Y14528800D01*
X55432253Y14542942D01*
X55611858Y14722547D01*
X55626000Y14708405D01*
X56367664Y15450069D01*
X56308203Y15683837D01*
X56069758Y15794734D01*
X55814260Y15856983D01*
X55551527Y15868190D01*
X55291656Y15827925D01*
X55191822Y15791475D01*
X55191000Y15799818D01*
X55191000Y16697884D01*
X55340250Y16699800D01*
X55499000Y16858550D01*
X55499000Y17631691D01*
X55499215Y17632400D01*
X55516000Y17802821D01*
X55516000Y17957800D01*
X55753000Y17957800D01*
X55753000Y16858550D01*
X55911750Y16699800D01*
X56151000Y16696728D01*
X56275482Y16708988D01*
X56395180Y16745298D01*
X56505494Y16804263D01*
X56602185Y16883615D01*
X56681537Y16980306D01*
X56740502Y17090620D01*
X56776812Y17210318D01*
X56789072Y17334800D01*
X56786000Y17799050D01*
X56627250Y17957800D01*
X55753000Y17957800D01*
X55516000Y17957800D01*
X55516000Y18366778D01*
X55499215Y18537199D01*
X55499000Y18537908D01*
X55499000Y19311050D01*
X55753000Y19311050D01*
X55753000Y18211800D01*
X56627250Y18211800D01*
X56786000Y18370550D01*
X56789072Y18834800D01*
X56776812Y18959282D01*
X56740502Y19078980D01*
X56681537Y19189294D01*
X56602185Y19285985D01*
X56505494Y19365337D01*
X56395180Y19424302D01*
X56275482Y19460612D01*
X56151000Y19472872D01*
X55911750Y19469800D01*
X55753000Y19311050D01*
X55499000Y19311050D01*
X55340250Y19469800D01*
X55101000Y19472872D01*
X54976518Y19460612D01*
X54856820Y19424302D01*
X54792098Y19389707D01*
X54583400Y19453015D01*
X54356000Y19475412D01*
X54128601Y19453015D01*
X53961000Y19402174D01*
X53961000Y21253539D01*
X53977013Y21264238D01*
X54092706Y21379931D01*
X54884336Y21379931D01*
X54943797Y21146163D01*
X55182242Y21035266D01*
X55437740Y20973017D01*
X55700473Y20961810D01*
X55960344Y21002075D01*
X56207366Y21092265D01*
X56308203Y21146163D01*
X56367664Y21379931D01*
X55626000Y22121595D01*
X54884336Y21379931D01*
X54092706Y21379931D01*
X54162962Y21450187D01*
X54309061Y21668841D01*
X54376361Y21831318D01*
X54417065Y21719834D01*
X54470963Y21618997D01*
X54704731Y21559536D01*
X55446395Y22301200D01*
X55805605Y22301200D01*
X56547269Y21559536D01*
X56781037Y21618997D01*
X56891934Y21857442D01*
X56954183Y22112940D01*
X56965390Y22375673D01*
X56925125Y22635544D01*
X56834935Y22882566D01*
X56781037Y22983403D01*
X56547269Y23042864D01*
X55805605Y22301200D01*
X55446395Y22301200D01*
X54704731Y23042864D01*
X54470963Y22983403D01*
X54374408Y22775796D01*
X54309061Y22933559D01*
X54162962Y23152213D01*
X54092706Y23222469D01*
X54884336Y23222469D01*
X55626000Y22480805D01*
X56367664Y23222469D01*
X56308203Y23456237D01*
X56069758Y23567134D01*
X55814260Y23629383D01*
X55551527Y23640590D01*
X55291656Y23600325D01*
X55044634Y23510135D01*
X54943797Y23456237D01*
X54884336Y23222469D01*
X54092706Y23222469D01*
X53977013Y23338162D01*
X53758359Y23484261D01*
X53515405Y23584896D01*
X53257486Y23636200D01*
X52994514Y23636200D01*
X52736595Y23584896D01*
X52493641Y23484261D01*
X52274987Y23338162D01*
X52089038Y23152213D01*
X51942939Y22933559D01*
X51842304Y22690605D01*
X51791000Y22432686D01*
X51791000Y22169714D01*
X51842304Y21911795D01*
X51942939Y21668841D01*
X52089038Y21450187D01*
X52274987Y21264238D01*
X52291000Y21253538D01*
X52291001Y19157985D01*
X52261789Y19134012D01*
X52116830Y18957379D01*
X52096743Y18919800D01*
X51907818Y18919800D01*
X51866800Y18923840D01*
X51703111Y18907718D01*
X51545713Y18859972D01*
X51400654Y18782436D01*
X51333137Y18727026D01*
X51273509Y18678091D01*
X51247363Y18646232D01*
X50441774Y17840641D01*
X50409910Y17814491D01*
X50368238Y17763713D01*
X50305564Y17687345D01*
X50228028Y17542286D01*
X50180282Y17384888D01*
X50164160Y17221200D01*
X50168201Y17180172D01*
X50168200Y15216498D01*
X49961149Y15009447D01*
X49885959Y15084637D01*
X49806200Y15137930D01*
X49806200Y17549552D01*
X49810240Y17590570D01*
X49794118Y17754258D01*
X49779387Y17802822D01*
X49746372Y17911657D01*
X49668836Y18056716D01*
X49612125Y18125819D01*
X49590639Y18152000D01*
X49590637Y18152002D01*
X49564491Y18183861D01*
X49532633Y18210006D01*
X48131216Y19611422D01*
X48105061Y19643291D01*
X47977916Y19747636D01*
X47832857Y19825172D01*
X47675459Y19872918D01*
X47552789Y19885000D01*
X47552788Y19885000D01*
X47548016Y19885470D01*
X47495037Y19964759D01*
X47295159Y20164637D01*
X47060127Y20321680D01*
X46798974Y20429853D01*
X46521735Y20485000D01*
X46239065Y20485000D01*
X45961826Y20429853D01*
X45700673Y20321680D01*
X45465641Y20164637D01*
X45265763Y19964759D01*
X45108720Y19729727D01*
X45000547Y19468574D01*
X44945400Y19191335D01*
X44945400Y18908665D01*
X45000547Y18631426D01*
X45108720Y18370273D01*
X45265763Y18135241D01*
X45465641Y17935363D01*
X45700673Y17778320D01*
X45961826Y17670147D01*
X46239065Y17615000D01*
X46521735Y17615000D01*
X46798974Y17670147D01*
X47060127Y17778320D01*
X47295159Y17935363D01*
X47370349Y18010553D01*
X48136200Y17244701D01*
X48136201Y15137931D01*
X48056441Y15084637D01*
X47856563Y14884759D01*
X47699520Y14649727D01*
X47591347Y14388574D01*
X47536200Y14111335D01*
X47536200Y13828665D01*
X47591347Y13551426D01*
X47699520Y13290273D01*
X47856563Y13055241D01*
X48056441Y12855363D01*
X48136200Y12802070D01*
X48136200Y12690269D01*
X47710932Y12265000D01*
X22393069Y12265000D01*
X20546734Y14111335D01*
X29349800Y14111335D01*
X29349800Y13828665D01*
X29404947Y13551426D01*
X29513120Y13290273D01*
X29670163Y13055241D01*
X29870041Y12855363D01*
X30105073Y12698320D01*
X30366226Y12590147D01*
X30643465Y12535000D01*
X30926135Y12535000D01*
X31203374Y12590147D01*
X31464527Y12698320D01*
X31699559Y12855363D01*
X31899437Y13055241D01*
X32056480Y13290273D01*
X32164653Y13551426D01*
X32219800Y13828665D01*
X32219800Y14111335D01*
X32164653Y14388574D01*
X32056480Y14649727D01*
X31899437Y14884759D01*
X31699559Y15084637D01*
X31464527Y15241680D01*
X31203374Y15349853D01*
X30926135Y15405000D01*
X30643465Y15405000D01*
X30366226Y15349853D01*
X30105073Y15241680D01*
X29870041Y15084637D01*
X29670163Y14884759D01*
X29513120Y14649727D01*
X29404947Y14388574D01*
X29349800Y14111335D01*
X20546734Y14111335D01*
X17274646Y17383421D01*
X17248491Y17415291D01*
X17121346Y17519636D01*
X16976287Y17597172D01*
X16818889Y17644918D01*
X16696219Y17657000D01*
X16696218Y17657000D01*
X16655200Y17661040D01*
X16614182Y17657000D01*
X14662065Y17657000D01*
X14587475Y17768632D01*
X14380632Y17975475D01*
X14206240Y18092000D01*
X14380632Y18208525D01*
X14587475Y18415368D01*
X14712178Y18602000D01*
X16645199Y18602000D01*
X19248200Y15998998D01*
X19271999Y15969999D01*
X19300997Y15946201D01*
X19387723Y15875026D01*
X19475842Y15827925D01*
X19519753Y15804454D01*
X19663014Y15760997D01*
X19774667Y15750000D01*
X19774676Y15750000D01*
X19811999Y15746324D01*
X19849322Y15750000D01*
X31739999Y15750000D01*
X34031005Y13458992D01*
X34054799Y13429999D01*
X34083792Y13406205D01*
X34083796Y13406201D01*
X34151593Y13350562D01*
X34170524Y13335026D01*
X34302553Y13264454D01*
X34445814Y13220997D01*
X34557467Y13210000D01*
X34557476Y13210000D01*
X34594799Y13206324D01*
X34632122Y13210000D01*
X37186757Y13210000D01*
X37290163Y13055241D01*
X37490041Y12855363D01*
X37725073Y12698320D01*
X37986226Y12590147D01*
X38263465Y12535000D01*
X38546135Y12535000D01*
X38823374Y12590147D01*
X39084527Y12698320D01*
X39319559Y12855363D01*
X39519437Y13055241D01*
X39622843Y13210000D01*
X40133157Y13210000D01*
X40236563Y13055241D01*
X40436441Y12855363D01*
X40671473Y12698320D01*
X40932626Y12590147D01*
X41209865Y12535000D01*
X41492535Y12535000D01*
X41769774Y12590147D01*
X42030927Y12698320D01*
X42265959Y12855363D01*
X42465837Y13055241D01*
X42622880Y13290273D01*
X42731053Y13551426D01*
X42786200Y13828665D01*
X42786200Y14111335D01*
X42731053Y14388574D01*
X42622880Y14649727D01*
X42465837Y14884759D01*
X42265959Y15084637D01*
X42030927Y15241680D01*
X41769774Y15349853D01*
X41492535Y15405000D01*
X41209865Y15405000D01*
X40932626Y15349853D01*
X40671473Y15241680D01*
X40436441Y15084637D01*
X40236563Y14884759D01*
X40133157Y14730000D01*
X39622843Y14730000D01*
X39519437Y14884759D01*
X39319559Y15084637D01*
X39084527Y15241680D01*
X38823374Y15349853D01*
X38546135Y15405000D01*
X38263465Y15405000D01*
X37986226Y15349853D01*
X37725073Y15241680D01*
X37490041Y15084637D01*
X37290163Y14884759D01*
X37186757Y14730000D01*
X34909603Y14730000D01*
X32618604Y17020997D01*
X32594801Y17050001D01*
X32479076Y17144974D01*
X32347047Y17215546D01*
X32203786Y17259003D01*
X32092133Y17270000D01*
X32092122Y17270000D01*
X32054800Y17273676D01*
X32017478Y17270000D01*
X20126802Y17270000D01*
X18205467Y19191335D01*
X26809800Y19191335D01*
X26809800Y18908665D01*
X26864947Y18631426D01*
X26973120Y18370273D01*
X27130163Y18135241D01*
X27330041Y17935363D01*
X27565073Y17778320D01*
X27826226Y17670147D01*
X28103465Y17615000D01*
X28386135Y17615000D01*
X28663374Y17670147D01*
X28924527Y17778320D01*
X29159559Y17935363D01*
X29359437Y18135241D01*
X29516480Y18370273D01*
X29624653Y18631426D01*
X29679800Y18908665D01*
X29679800Y19191335D01*
X29624653Y19468574D01*
X29516480Y19729727D01*
X29359437Y19964759D01*
X29159559Y20164637D01*
X28924527Y20321680D01*
X28663374Y20429853D01*
X28386135Y20485000D01*
X28103465Y20485000D01*
X27826226Y20429853D01*
X27565073Y20321680D01*
X27330041Y20164637D01*
X27130163Y19964759D01*
X26973120Y19729727D01*
X26864947Y19468574D01*
X26809800Y19191335D01*
X18205467Y19191335D01*
X17523804Y19872997D01*
X17500001Y19902001D01*
X17384276Y19996974D01*
X17252247Y20067546D01*
X17108986Y20111003D01*
X16997333Y20122000D01*
X16997322Y20122000D01*
X16960000Y20125676D01*
X16922678Y20122000D01*
X14712178Y20122000D01*
X14587475Y20308632D01*
X14380632Y20515475D01*
X14206240Y20632000D01*
X14380632Y20748525D01*
X14587475Y20955368D01*
X14712178Y21142000D01*
X29294399Y21142000D01*
X31897401Y18538997D01*
X31921199Y18509999D01*
X31950197Y18486201D01*
X32036923Y18415026D01*
X32154155Y18352364D01*
X32168953Y18344454D01*
X32312214Y18300997D01*
X32423867Y18290000D01*
X32423876Y18290000D01*
X32461199Y18286324D01*
X32498522Y18290000D01*
X34646757Y18290000D01*
X34750163Y18135241D01*
X34950041Y17935363D01*
X35185073Y17778320D01*
X35446226Y17670147D01*
X35723465Y17615000D01*
X36006135Y17615000D01*
X36283374Y17670147D01*
X36544527Y17778320D01*
X36779559Y17935363D01*
X36979437Y18135241D01*
X37082843Y18290000D01*
X37542357Y18290000D01*
X37645763Y18135241D01*
X37845641Y17935363D01*
X38080673Y17778320D01*
X38341826Y17670147D01*
X38619065Y17615000D01*
X38901735Y17615000D01*
X39178974Y17670147D01*
X39440127Y17778320D01*
X39675159Y17935363D01*
X39875037Y18135241D01*
X40032080Y18370273D01*
X40140253Y18631426D01*
X40195400Y18908665D01*
X40195400Y19191335D01*
X40140253Y19468574D01*
X40032080Y19729727D01*
X39875037Y19964759D01*
X39675159Y20164637D01*
X39440127Y20321680D01*
X39178974Y20429853D01*
X38901735Y20485000D01*
X38619065Y20485000D01*
X38341826Y20429853D01*
X38080673Y20321680D01*
X37845641Y20164637D01*
X37645763Y19964759D01*
X37542357Y19810000D01*
X37082843Y19810000D01*
X36979437Y19964759D01*
X36779559Y20164637D01*
X36544527Y20321680D01*
X36283374Y20429853D01*
X36006135Y20485000D01*
X35723465Y20485000D01*
X35446226Y20429853D01*
X35185073Y20321680D01*
X34950041Y20164637D01*
X34750163Y19964759D01*
X34646757Y19810000D01*
X32776002Y19810000D01*
X30173004Y22412997D01*
X30149201Y22442001D01*
X30033476Y22536974D01*
X29901447Y22607546D01*
X29758186Y22651003D01*
X29646533Y22662000D01*
X29646522Y22662000D01*
X29609200Y22665676D01*
X29571878Y22662000D01*
X14712178Y22662000D01*
X14587475Y22848632D01*
X14380632Y23055475D01*
X14206240Y23172000D01*
X14380632Y23288525D01*
X14587475Y23495368D01*
X14749990Y23738589D01*
X14825132Y23920000D01*
X19122928Y23920000D01*
X19135188Y23795518D01*
X19171498Y23675820D01*
X19230463Y23565506D01*
X19309815Y23468815D01*
X19406506Y23389463D01*
X19516820Y23330498D01*
X19636518Y23294188D01*
X19761000Y23281928D01*
X20325250Y23285000D01*
X20484000Y23443750D01*
X20484000Y24643000D01*
X19284750Y24643000D01*
X19126000Y24484250D01*
X19122928Y23920000D01*
X14825132Y23920000D01*
X14861932Y24008842D01*
X14919000Y24295740D01*
X14919000Y24588260D01*
X14861932Y24875158D01*
X14749990Y25145411D01*
X14587475Y25388632D01*
X14380632Y25595475D01*
X14343928Y25620000D01*
X19122928Y25620000D01*
X19126000Y25055750D01*
X19284750Y24897000D01*
X20484000Y24897000D01*
X20484000Y26096250D01*
X20325250Y26255000D01*
X19761000Y26258072D01*
X19636518Y26245812D01*
X19516820Y26209502D01*
X19406506Y26150537D01*
X19309815Y26071185D01*
X19230463Y25974494D01*
X19171498Y25864180D01*
X19135188Y25744482D01*
X19122928Y25620000D01*
X14343928Y25620000D01*
X14206240Y25712000D01*
X14380632Y25828525D01*
X14587475Y26035368D01*
X14749990Y26278589D01*
X14861932Y26548842D01*
X14919000Y26835740D01*
X14919000Y27128260D01*
X14861932Y27415158D01*
X14749990Y27685411D01*
X14587475Y27928632D01*
X14380632Y28135475D01*
X14206240Y28252000D01*
X14380632Y28368525D01*
X14587475Y28575368D01*
X14749990Y28818589D01*
X14861932Y29088842D01*
X14919000Y29375740D01*
X14919000Y29668260D01*
X14861932Y29955158D01*
X14749990Y30225411D01*
X14587475Y30468632D01*
X14380632Y30675475D01*
X14137411Y30837990D01*
X13867158Y30949932D01*
X13580260Y31007000D01*
X13287740Y31007000D01*
X13000842Y30949932D01*
X12730589Y30837990D01*
X12487368Y30675475D01*
X12280525Y30468632D01*
X12155822Y30282000D01*
X11779322Y30282000D01*
X11741999Y30285676D01*
X11704676Y30282000D01*
X11704667Y30282000D01*
X11593014Y30271003D01*
X11449753Y30227546D01*
X11317723Y30156974D01*
X11234083Y30088332D01*
X11201999Y30062001D01*
X11178201Y30033003D01*
X9394998Y28249799D01*
X9366000Y28226001D01*
X9342202Y28197003D01*
X9342201Y28197002D01*
X9271026Y28110276D01*
X9200454Y27978246D01*
X9156998Y27834985D01*
X9142324Y27686000D01*
X9146001Y27648667D01*
X9146000Y11975322D01*
X9142324Y11938000D01*
X9146000Y11900678D01*
X9146000Y11900668D01*
X9156997Y11789015D01*
X9171728Y11740454D01*
X9200454Y11645754D01*
X9271026Y11513724D01*
X9310871Y11465174D01*
X9365999Y11397999D01*
X9395003Y11374196D01*
X11882205Y8886992D01*
X11905999Y8857999D01*
X11934992Y8834205D01*
X11934996Y8834201D01*
X12005685Y8776189D01*
X12021724Y8763026D01*
X12153753Y8692454D01*
X12297014Y8648997D01*
X12408667Y8638000D01*
X12408676Y8638000D01*
X12445999Y8634324D01*
X12483322Y8638000D01*
X23522632Y8638000D01*
X22589574Y7704941D01*
X22557710Y7678791D01*
X22508086Y7618324D01*
X22453364Y7551645D01*
X22375828Y7406586D01*
X22328082Y7249188D01*
X22311960Y7085500D01*
X22316001Y7044472D01*
X22316001Y6018065D01*
X22204368Y5943475D01*
X22072513Y5811620D01*
X22050502Y5884180D01*
X21991537Y5994494D01*
X21912185Y6091185D01*
X21815494Y6170537D01*
X21705180Y6229502D01*
X21585482Y6265812D01*
X21461000Y6278072D01*
X20896750Y6275000D01*
X20738000Y6116250D01*
X20738000Y4917000D01*
X20758000Y4917000D01*
X20758000Y4663000D01*
X20738000Y4663000D01*
X20738000Y3463750D01*
X20896750Y3305000D01*
X21461000Y3301928D01*
X21585482Y3314188D01*
X21705180Y3350498D01*
X21815494Y3409463D01*
X21912185Y3488815D01*
X21991537Y3585506D01*
X22050502Y3695820D01*
X22072513Y3768380D01*
X22204368Y3636525D01*
X22447589Y3474010D01*
X22717842Y3362068D01*
X23004740Y3305000D01*
X23297260Y3305000D01*
X23584158Y3362068D01*
X23854411Y3474010D01*
X24097632Y3636525D01*
X24304475Y3843368D01*
X24421000Y4017760D01*
X24537525Y3843368D01*
X24744368Y3636525D01*
X24987589Y3474010D01*
X25257842Y3362068D01*
X25544740Y3305000D01*
X25837260Y3305000D01*
X26124158Y3362068D01*
X26394411Y3474010D01*
X26637632Y3636525D01*
X26844475Y3843368D01*
X26961000Y4017760D01*
X27077525Y3843368D01*
X27284368Y3636525D01*
X27527589Y3474010D01*
X27797842Y3362068D01*
X28084740Y3305000D01*
X28377260Y3305000D01*
X28664158Y3362068D01*
X28934411Y3474010D01*
X29177632Y3636525D01*
X29384475Y3843368D01*
X29501000Y4017760D01*
X29617525Y3843368D01*
X29824368Y3636525D01*
X30067589Y3474010D01*
X30337842Y3362068D01*
X30624740Y3305000D01*
X30917260Y3305000D01*
X31204158Y3362068D01*
X31474411Y3474010D01*
X31717632Y3636525D01*
X31924475Y3843368D01*
X32041000Y4017760D01*
X32157525Y3843368D01*
X32364368Y3636525D01*
X32607589Y3474010D01*
X32877842Y3362068D01*
X33164740Y3305000D01*
X33457260Y3305000D01*
X33744158Y3362068D01*
X34014411Y3474010D01*
X34257632Y3636525D01*
X34464475Y3843368D01*
X34581000Y4017760D01*
X34697525Y3843368D01*
X34904368Y3636525D01*
X35147589Y3474010D01*
X35417842Y3362068D01*
X35704740Y3305000D01*
X35997260Y3305000D01*
X36284158Y3362068D01*
X36498794Y3450973D01*
X42487037Y3450973D01*
X42585036Y3174022D01*
X42735183Y2921512D01*
X42931707Y2703146D01*
X43167056Y2527316D01*
X43432186Y2400778D01*
X43582974Y2355042D01*
X43815000Y2476183D01*
X43815000Y3683000D01*
X42607536Y3683000D01*
X42487037Y3450973D01*
X36498794Y3450973D01*
X36554411Y3474010D01*
X36797632Y3636525D01*
X37004475Y3843368D01*
X37166990Y4086589D01*
X37278932Y4356842D01*
X37336000Y4643740D01*
X37336000Y4936260D01*
X37278932Y5223158D01*
X37166990Y5493411D01*
X37004475Y5736632D01*
X36797632Y5943475D01*
X36554411Y6105990D01*
X36284158Y6217932D01*
X35997260Y6275000D01*
X35704740Y6275000D01*
X35417842Y6217932D01*
X35147589Y6105990D01*
X34904368Y5943475D01*
X34697525Y5736632D01*
X34581000Y5562240D01*
X34464475Y5736632D01*
X34257632Y5943475D01*
X34014411Y6105990D01*
X33744158Y6217932D01*
X33457260Y6275000D01*
X33164740Y6275000D01*
X32877842Y6217932D01*
X32607589Y6105990D01*
X32364368Y5943475D01*
X32157525Y5736632D01*
X32041000Y5562240D01*
X31924475Y5736632D01*
X31717632Y5943475D01*
X31474411Y6105990D01*
X31204158Y6217932D01*
X30917260Y6275000D01*
X30624740Y6275000D01*
X30337842Y6217932D01*
X30067589Y6105990D01*
X29824368Y5943475D01*
X29617525Y5736632D01*
X29501000Y5562240D01*
X29384475Y5736632D01*
X29177632Y5943475D01*
X28934411Y6105990D01*
X28664158Y6217932D01*
X28377260Y6275000D01*
X28084740Y6275000D01*
X27797842Y6217932D01*
X27527589Y6105990D01*
X27284368Y5943475D01*
X27077525Y5736632D01*
X26961000Y5562240D01*
X26844475Y5736632D01*
X26637632Y5943475D01*
X26394411Y6105990D01*
X26124158Y6217932D01*
X25837260Y6275000D01*
X25544740Y6275000D01*
X25257842Y6217932D01*
X24987589Y6105990D01*
X24744368Y5943475D01*
X24537525Y5736632D01*
X24421000Y5562240D01*
X24304475Y5736632D01*
X24097632Y5943475D01*
X23986000Y6018065D01*
X23986000Y6739633D01*
X24793369Y7547000D01*
X37881133Y7547000D01*
X39639563Y5788568D01*
X39665709Y5756709D01*
X39697568Y5730563D01*
X39697570Y5730561D01*
X39792854Y5652364D01*
X39937913Y5574828D01*
X40095311Y5527082D01*
X40259000Y5510960D01*
X40300018Y5515000D01*
X42440328Y5515000D01*
X42440328Y5486400D01*
X42452588Y5361918D01*
X42488898Y5242220D01*
X42547863Y5131906D01*
X42627215Y5035215D01*
X42723906Y4955863D01*
X42834220Y4896898D01*
X42896692Y4877947D01*
X42735183Y4698488D01*
X42585036Y4445978D01*
X42487037Y4169027D01*
X42607536Y3937000D01*
X43815000Y3937000D01*
X43815000Y3957000D01*
X44069000Y3957000D01*
X44069000Y3937000D01*
X44089000Y3937000D01*
X44089000Y3683000D01*
X44069000Y3683000D01*
X44069000Y2476183D01*
X44301026Y2355042D01*
X44451814Y2400778D01*
X44716944Y2527316D01*
X44952293Y2703146D01*
X45148817Y2921512D01*
X45207441Y3020103D01*
X45317961Y2854698D01*
X45526698Y2645961D01*
X45772147Y2481958D01*
X46044875Y2368990D01*
X46334401Y2311400D01*
X46629599Y2311400D01*
X46919125Y2368990D01*
X47191853Y2481958D01*
X47437302Y2645961D01*
X47646039Y2854698D01*
X47752000Y3013281D01*
X47857961Y2854698D01*
X48066698Y2645961D01*
X48312147Y2481958D01*
X48584875Y2368990D01*
X48874401Y2311400D01*
X49169599Y2311400D01*
X49459125Y2368990D01*
X49731853Y2481958D01*
X49977302Y2645961D01*
X50186039Y2854698D01*
X50292000Y3013281D01*
X50397961Y2854698D01*
X50606698Y2645961D01*
X50852147Y2481958D01*
X51124875Y2368990D01*
X51414401Y2311400D01*
X51709599Y2311400D01*
X51999125Y2368990D01*
X52271853Y2481958D01*
X52517302Y2645961D01*
X52726039Y2854698D01*
X52832000Y3013281D01*
X52937961Y2854698D01*
X53146698Y2645961D01*
X53392147Y2481958D01*
X53664875Y2368990D01*
X53954401Y2311400D01*
X54249599Y2311400D01*
X54539125Y2368990D01*
X54811853Y2481958D01*
X55057302Y2645961D01*
X55266039Y2854698D01*
X55430042Y3100147D01*
X55543010Y3372875D01*
X55600600Y3662401D01*
X55600600Y3957599D01*
X55543010Y4247125D01*
X55430042Y4519853D01*
X55266039Y4765302D01*
X55057302Y4974039D01*
X54898719Y5080000D01*
X55057302Y5185961D01*
X55266039Y5394698D01*
X55396535Y5590000D01*
X55819199Y5590000D01*
X60142205Y1266992D01*
X60165999Y1237999D01*
X60194992Y1214205D01*
X60194996Y1214201D01*
X60265685Y1156189D01*
X60281724Y1143026D01*
X60413753Y1072454D01*
X60530631Y1037000D01*
X4638447Y1037000D01*
X4409760Y1265686D01*
X4682075Y1152890D01*
X5113872Y1067000D01*
X5554128Y1067000D01*
X5985925Y1152890D01*
X6392669Y1321369D01*
X6758729Y1565962D01*
X7070038Y1877271D01*
X7314631Y2243331D01*
X7483110Y2650075D01*
X7569000Y3081872D01*
X7569000Y3522128D01*
X7485880Y3940000D01*
X19122928Y3940000D01*
X19135188Y3815518D01*
X19171498Y3695820D01*
X19230463Y3585506D01*
X19309815Y3488815D01*
X19406506Y3409463D01*
X19516820Y3350498D01*
X19636518Y3314188D01*
X19761000Y3301928D01*
X20325250Y3305000D01*
X20484000Y3463750D01*
X20484000Y4663000D01*
X19284750Y4663000D01*
X19126000Y4504250D01*
X19122928Y3940000D01*
X7485880Y3940000D01*
X7483110Y3953925D01*
X7314631Y4360669D01*
X7070038Y4726729D01*
X6758729Y5038038D01*
X6392669Y5282631D01*
X5985925Y5451110D01*
X5554128Y5537000D01*
X5113872Y5537000D01*
X4682075Y5451110D01*
X4275331Y5282631D01*
X3909271Y5038038D01*
X3597962Y4726729D01*
X3353369Y4360669D01*
X3184890Y3953925D01*
X3099000Y3522128D01*
X3099000Y3081872D01*
X3184890Y2650075D01*
X3297687Y2377760D01*
X1069000Y4606446D01*
X1069000Y5640000D01*
X19122928Y5640000D01*
X19126000Y5075750D01*
X19284750Y4917000D01*
X20484000Y4917000D01*
X20484000Y6116250D01*
X20325250Y6275000D01*
X19761000Y6278072D01*
X19636518Y6265812D01*
X19516820Y6229502D01*
X19406506Y6170537D01*
X19309815Y6091185D01*
X19230463Y5994494D01*
X19171498Y5884180D01*
X19135188Y5764482D01*
X19122928Y5640000D01*
X1069000Y5640000D01*
X1069000Y32145335D01*
X48349000Y32145335D01*
X48349000Y31862665D01*
X48404147Y31585426D01*
X48512320Y31324273D01*
X48669363Y31089241D01*
X48869241Y30889363D01*
X49104273Y30732320D01*
X49365426Y30624147D01*
X49642665Y30569000D01*
X49925335Y30569000D01*
X50202574Y30624147D01*
X50463727Y30732320D01*
X50698759Y30889363D01*
X50898637Y31089241D01*
X51055680Y31324273D01*
X51163853Y31585426D01*
X51219000Y31862665D01*
X51219000Y32145335D01*
X51163853Y32422574D01*
X51055680Y32683727D01*
X50898637Y32918759D01*
X50698759Y33118637D01*
X50463727Y33275680D01*
X50202574Y33383853D01*
X49925335Y33439000D01*
X49642665Y33439000D01*
X49365426Y33383853D01*
X49104273Y33275680D01*
X48869241Y33118637D01*
X48669363Y32918759D01*
X48512320Y32683727D01*
X48404147Y32422574D01*
X48349000Y32145335D01*
X1069000Y32145335D01*
X1069000Y37997554D01*
X3297687Y40226240D01*
X3184890Y39953925D01*
X3099000Y39522128D01*
X3099000Y39081872D01*
X3184890Y38650075D01*
X3353369Y38243331D01*
X3597962Y37877271D01*
X3909271Y37565962D01*
X4275331Y37321369D01*
X4682075Y37152890D01*
X5113872Y37067000D01*
X5554128Y37067000D01*
X5985925Y37152890D01*
X6392669Y37321369D01*
X6758729Y37565962D01*
X7070038Y37877271D01*
X7314631Y38243331D01*
X7483110Y38650075D01*
X7569000Y39081872D01*
X7569000Y39522128D01*
X7483110Y39953925D01*
X7314631Y40360669D01*
X7070038Y40726729D01*
X6758729Y41038038D01*
X6392669Y41282631D01*
X5985925Y41451110D01*
X5554128Y41537000D01*
X5113872Y41537000D01*
X4682075Y41451110D01*
X4409760Y41338314D01*
X4638447Y41567000D01*
X20306554Y41567000D01*
X23565746Y38307807D01*
G36*
X12280525Y23495368D02*
G01*
X12487368Y23288525D01*
X12661760Y23172000D01*
X12487368Y23055475D01*
X12280525Y22848632D01*
X12118010Y22605411D01*
X12006068Y22335158D01*
X11949000Y22048260D01*
X11949000Y21755740D01*
X12006068Y21468842D01*
X12118010Y21198589D01*
X12280525Y20955368D01*
X12487368Y20748525D01*
X12661760Y20632000D01*
X12487368Y20515475D01*
X12280525Y20308632D01*
X12118010Y20065411D01*
X12006068Y19795158D01*
X11949000Y19508260D01*
X11949000Y19215740D01*
X12006068Y18928842D01*
X12118010Y18658589D01*
X12280525Y18415368D01*
X12487368Y18208525D01*
X12661760Y18092000D01*
X12487368Y17975475D01*
X12280525Y17768632D01*
X12118010Y17525411D01*
X12006068Y17255158D01*
X11949000Y16968260D01*
X11949000Y16675740D01*
X12006068Y16388842D01*
X12118010Y16118589D01*
X12280525Y15875368D01*
X12412380Y15743513D01*
X12339820Y15721502D01*
X12229506Y15662537D01*
X12132815Y15583185D01*
X12053463Y15486494D01*
X11994498Y15376180D01*
X11958188Y15256482D01*
X11945928Y15132000D01*
X11949000Y14567750D01*
X12107750Y14409000D01*
X13307000Y14409000D01*
X13307000Y14429000D01*
X13561000Y14429000D01*
X13561000Y14409000D01*
X14760250Y14409000D01*
X14919000Y14567750D01*
X14922072Y15132000D01*
X14909812Y15256482D01*
X14873502Y15376180D01*
X14814537Y15486494D01*
X14735185Y15583185D01*
X14638494Y15662537D01*
X14528180Y15721502D01*
X14455620Y15743513D01*
X14587475Y15875368D01*
X14662065Y15987000D01*
X16309333Y15987000D01*
X21122331Y11174000D01*
X13014802Y11174000D01*
X11428000Y12760801D01*
X11428000Y13432000D01*
X11945928Y13432000D01*
X11958188Y13307518D01*
X11994498Y13187820D01*
X12053463Y13077506D01*
X12132815Y12980815D01*
X12229506Y12901463D01*
X12339820Y12842498D01*
X12459518Y12806188D01*
X12584000Y12793928D01*
X13148250Y12797000D01*
X13307000Y12955750D01*
X13307000Y14155000D01*
X13561000Y14155000D01*
X13561000Y12955750D01*
X13719750Y12797000D01*
X14284000Y12793928D01*
X14408482Y12806188D01*
X14528180Y12842498D01*
X14638494Y12901463D01*
X14735185Y12980815D01*
X14814537Y13077506D01*
X14873502Y13187820D01*
X14909812Y13307518D01*
X14922072Y13432000D01*
X14919000Y13996250D01*
X14760250Y14155000D01*
X13561000Y14155000D01*
X13307000Y14155000D01*
X12107750Y14155000D01*
X11949000Y13996250D01*
X11945928Y13432000D01*
X11428000Y13432000D01*
X11428000Y23053199D01*
X12056802Y23682000D01*
X12155822Y23682000D01*
X12280525Y23495368D01*
G37*
X12280525Y23495368D02*
X12487368Y23288525D01*
X12661760Y23172000D01*
X12487368Y23055475D01*
X12280525Y22848632D01*
X12118010Y22605411D01*
X12006068Y22335158D01*
X11949000Y22048260D01*
X11949000Y21755740D01*
X12006068Y21468842D01*
X12118010Y21198589D01*
X12280525Y20955368D01*
X12487368Y20748525D01*
X12661760Y20632000D01*
X12487368Y20515475D01*
X12280525Y20308632D01*
X12118010Y20065411D01*
X12006068Y19795158D01*
X11949000Y19508260D01*
X11949000Y19215740D01*
X12006068Y18928842D01*
X12118010Y18658589D01*
X12280525Y18415368D01*
X12487368Y18208525D01*
X12661760Y18092000D01*
X12487368Y17975475D01*
X12280525Y17768632D01*
X12118010Y17525411D01*
X12006068Y17255158D01*
X11949000Y16968260D01*
X11949000Y16675740D01*
X12006068Y16388842D01*
X12118010Y16118589D01*
X12280525Y15875368D01*
X12412380Y15743513D01*
X12339820Y15721502D01*
X12229506Y15662537D01*
X12132815Y15583185D01*
X12053463Y15486494D01*
X11994498Y15376180D01*
X11958188Y15256482D01*
X11945928Y15132000D01*
X11949000Y14567750D01*
X12107750Y14409000D01*
X13307000Y14409000D01*
X13307000Y14429000D01*
X13561000Y14429000D01*
X13561000Y14409000D01*
X14760250Y14409000D01*
X14919000Y14567750D01*
X14922072Y15132000D01*
X14909812Y15256482D01*
X14873502Y15376180D01*
X14814537Y15486494D01*
X14735185Y15583185D01*
X14638494Y15662537D01*
X14528180Y15721502D01*
X14455620Y15743513D01*
X14587475Y15875368D01*
X14662065Y15987000D01*
X16309333Y15987000D01*
X21122331Y11174000D01*
X13014802Y11174000D01*
X11428000Y12760801D01*
X11428000Y13432000D01*
X11945928Y13432000D01*
X11958188Y13307518D01*
X11994498Y13187820D01*
X12053463Y13077506D01*
X12132815Y12980815D01*
X12229506Y12901463D01*
X12339820Y12842498D01*
X12459518Y12806188D01*
X12584000Y12793928D01*
X13148250Y12797000D01*
X13307000Y12955750D01*
X13307000Y14155000D01*
X13561000Y14155000D01*
X13561000Y12955750D01*
X13719750Y12797000D01*
X14284000Y12793928D01*
X14408482Y12806188D01*
X14528180Y12842498D01*
X14638494Y12901463D01*
X14735185Y12980815D01*
X14814537Y13077506D01*
X14873502Y13187820D01*
X14909812Y13307518D01*
X14922072Y13432000D01*
X14919000Y13996250D01*
X14760250Y14155000D01*
X13561000Y14155000D01*
X13307000Y14155000D01*
X12107750Y14155000D01*
X11949000Y13996250D01*
X11945928Y13432000D01*
X11428000Y13432000D01*
X11428000Y23053199D01*
X12056802Y23682000D01*
X12155822Y23682000D01*
X12280525Y23495368D01*
G04 #@! TD*
M02*
