G04 #@! TF.GenerationSoftware,KiCad,Pcbnew,5.1.5-52549c5~84~ubuntu18.04.1*
G04 #@! TF.CreationDate,2020-03-25T12:32:36-07:00*
G04 #@! TF.ProjectId,Marlin_UIBOX,4d61726c-696e-45f5-9549-424f582e6b69,rev?*
G04 #@! TF.SameCoordinates,PX55c0260PY70276d0*
G04 #@! TF.FileFunction,Legend,Bot*
G04 #@! TF.FilePolarity,Positive*
%FSLAX46Y46*%
G04 Gerber Fmt 4.6, Leading zero omitted, Abs format (unit mm)*
G04 Created by KiCad (PCBNEW 5.1.5-52549c5~84~ubuntu18.04.1) date 2020-03-25 12:32:36*
%MOMM*%
%LPD*%
G04 APERTURE LIST*
%ADD10C,0.300000*%
%ADD11C,0.120000*%
%ADD12C,0.150000*%
G04 APERTURE END LIST*
D10*
X27079257Y33205029D02*
X27079257Y34705029D01*
X26579257Y33633600D01*
X26079257Y34705029D01*
X26079257Y33205029D01*
X24722114Y33205029D02*
X24722114Y33990743D01*
X24793542Y34133600D01*
X24936400Y34205029D01*
X25222114Y34205029D01*
X25364971Y34133600D01*
X24722114Y33276458D02*
X24864971Y33205029D01*
X25222114Y33205029D01*
X25364971Y33276458D01*
X25436400Y33419315D01*
X25436400Y33562172D01*
X25364971Y33705029D01*
X25222114Y33776458D01*
X24864971Y33776458D01*
X24722114Y33847886D01*
X24007828Y33205029D02*
X24007828Y34205029D01*
X24007828Y33919315D02*
X23936400Y34062172D01*
X23864971Y34133600D01*
X23722114Y34205029D01*
X23579257Y34205029D01*
X22864971Y33205029D02*
X23007828Y33276458D01*
X23079257Y33419315D01*
X23079257Y34705029D01*
X22293542Y33205029D02*
X22293542Y34205029D01*
X22293542Y34705029D02*
X22364971Y34633600D01*
X22293542Y34562172D01*
X22222114Y34633600D01*
X22293542Y34705029D01*
X22293542Y34562172D01*
X21579257Y34205029D02*
X21579257Y33205029D01*
X21579257Y34062172D02*
X21507828Y34133600D01*
X21364971Y34205029D01*
X21150685Y34205029D01*
X21007828Y34133600D01*
X20936400Y33990743D01*
X20936400Y33205029D01*
X20579257Y33062172D02*
X19436400Y33062172D01*
X19079257Y34705029D02*
X19079257Y33490743D01*
X19007828Y33347886D01*
X18936400Y33276458D01*
X18793542Y33205029D01*
X18507828Y33205029D01*
X18364971Y33276458D01*
X18293542Y33347886D01*
X18222114Y33490743D01*
X18222114Y34705029D01*
X17507828Y33205029D02*
X17507828Y34705029D01*
X16293542Y33990743D02*
X16079257Y33919315D01*
X16007828Y33847886D01*
X15936400Y33705029D01*
X15936400Y33490743D01*
X16007828Y33347886D01*
X16079257Y33276458D01*
X16222114Y33205029D01*
X16793542Y33205029D01*
X16793542Y34705029D01*
X16293542Y34705029D01*
X16150685Y34633600D01*
X16079257Y34562172D01*
X16007828Y34419315D01*
X16007828Y34276458D01*
X16079257Y34133600D01*
X16150685Y34062172D01*
X16293542Y33990743D01*
X16793542Y33990743D01*
X15007828Y34705029D02*
X14722114Y34705029D01*
X14579257Y34633600D01*
X14436400Y34490743D01*
X14364971Y34205029D01*
X14364971Y33705029D01*
X14436400Y33419315D01*
X14579257Y33276458D01*
X14722114Y33205029D01*
X15007828Y33205029D01*
X15150685Y33276458D01*
X15293542Y33419315D01*
X15364971Y33705029D01*
X15364971Y34205029D01*
X15293542Y34490743D01*
X15150685Y34633600D01*
X15007828Y34705029D01*
X13864971Y34705029D02*
X12864971Y33205029D01*
X12864971Y34705029D02*
X13864971Y33205029D01*
X11293542Y34205029D02*
X10936400Y33205029D01*
X10579257Y34205029D01*
X9364971Y34205029D02*
X9364971Y33205029D01*
X9722114Y34776458D02*
X10079257Y33705029D01*
X9150685Y33705029D01*
D11*
X19281000Y6120000D02*
X19281000Y4790000D01*
X20611000Y6120000D02*
X19281000Y6120000D01*
X21881000Y6120000D02*
X21881000Y3460000D01*
X21881000Y3460000D02*
X37181000Y3460000D01*
X21881000Y6120000D02*
X37181000Y6120000D01*
X37181000Y6120000D02*
X37181000Y3460000D01*
X38592000Y405000D02*
X59452000Y405000D01*
X59452000Y405000D02*
X59452000Y9755000D01*
X59452000Y9755000D02*
X38592000Y9755000D01*
X38592000Y9755000D02*
X38592000Y405000D01*
X38342000Y10005000D02*
X40882000Y10005000D01*
X38342000Y10005000D02*
X38342000Y7465000D01*
X60694000Y10005000D02*
X60694000Y7465000D01*
X60694000Y10005000D02*
X63234000Y10005000D01*
X60944000Y9755000D02*
X60944000Y405000D01*
X81804000Y9755000D02*
X60944000Y9755000D01*
X81804000Y405000D02*
X81804000Y9755000D01*
X60944000Y405000D02*
X81804000Y405000D01*
X37181000Y26100000D02*
X37181000Y23440000D01*
X21881000Y26100000D02*
X37181000Y26100000D01*
X21881000Y23440000D02*
X37181000Y23440000D01*
X21881000Y26100000D02*
X21881000Y23440000D01*
X20611000Y26100000D02*
X19281000Y26100000D01*
X19281000Y26100000D02*
X19281000Y24770000D01*
X83924000Y26582000D02*
X81684000Y26582000D01*
X81684000Y26582000D02*
X81684000Y30822000D01*
X81684000Y30822000D02*
X83924000Y30822000D01*
X83924000Y30822000D02*
X83924000Y26582000D01*
X82804000Y25932000D02*
X82804000Y26582000D01*
X82804000Y31472000D02*
X82804000Y30822000D01*
X83924000Y27302000D02*
X81684000Y27302000D01*
X83924000Y27422000D02*
X81684000Y27422000D01*
X83924000Y27182000D02*
X81684000Y27182000D01*
X102699000Y10223000D02*
X102699000Y7563000D01*
X102699000Y10223000D02*
X112919000Y10223000D01*
X112919000Y10223000D02*
X112919000Y7563000D01*
X102699000Y7563000D02*
X112919000Y7563000D01*
X100099000Y7563000D02*
X101429000Y7563000D01*
X100099000Y8893000D02*
X100099000Y7563000D01*
X75950000Y29220000D02*
G75*
G03X75950000Y29220000I-6100000J0D01*
G01*
X76890000Y18774000D02*
X76890000Y22374000D01*
X76901522Y18735522D02*
G75*
G03X81340000Y20574000I1838478J1838478D01*
G01*
X76901522Y22412478D02*
G75*
G02X81340000Y20574000I1838478J-1838478D01*
G01*
X48414000Y31464000D02*
X48744000Y31464000D01*
X48414000Y24924000D02*
X48414000Y31464000D01*
X48744000Y24924000D02*
X48414000Y24924000D01*
X51154000Y31464000D02*
X50824000Y31464000D01*
X51154000Y24924000D02*
X51154000Y31464000D01*
X50824000Y24924000D02*
X51154000Y24924000D01*
X77700000Y31972000D02*
X77370000Y31972000D01*
X77370000Y31972000D02*
X77370000Y25432000D01*
X77370000Y25432000D02*
X77700000Y25432000D01*
X79780000Y31972000D02*
X80110000Y31972000D01*
X80110000Y31972000D02*
X80110000Y25432000D01*
X80110000Y25432000D02*
X79780000Y25432000D01*
X39300400Y17680000D02*
X39300400Y18010000D01*
X45840400Y17680000D02*
X39300400Y17680000D01*
X45840400Y18010000D02*
X45840400Y17680000D01*
X39300400Y20420000D02*
X39300400Y20090000D01*
X45840400Y20420000D02*
X39300400Y20420000D01*
X45840400Y20090000D02*
X45840400Y20420000D01*
X48431200Y15010000D02*
X48431200Y15340000D01*
X48431200Y15340000D02*
X41891200Y15340000D01*
X41891200Y15340000D02*
X41891200Y15010000D01*
X48431200Y12930000D02*
X48431200Y12600000D01*
X48431200Y12600000D02*
X41891200Y12600000D01*
X41891200Y12600000D02*
X41891200Y12930000D01*
X31324800Y12930000D02*
X31324800Y12600000D01*
X31324800Y12600000D02*
X37864800Y12600000D01*
X37864800Y12600000D02*
X37864800Y12930000D01*
X31324800Y15010000D02*
X31324800Y15340000D01*
X31324800Y15340000D02*
X37864800Y15340000D01*
X37864800Y15340000D02*
X37864800Y15010000D01*
X35324800Y20420000D02*
X35324800Y20090000D01*
X28784800Y20420000D02*
X35324800Y20420000D01*
X28784800Y20090000D02*
X28784800Y20420000D01*
X35324800Y17680000D02*
X35324800Y18010000D01*
X28784800Y17680000D02*
X35324800Y17680000D01*
X28784800Y18010000D02*
X28784800Y17680000D01*
X56156000Y16234800D02*
X52556000Y16234800D01*
X56194478Y16246322D02*
G75*
G03X54356000Y20684800I-1838478J1838478D01*
G01*
X52517522Y16246322D02*
G75*
G02X54356000Y20684800I1838478J1838478D01*
G01*
X51956000Y13408800D02*
X56796000Y13408800D01*
X51956000Y15648800D02*
X56796000Y15648800D01*
X51956000Y13408800D02*
X51956000Y15648800D01*
X56796000Y13408800D02*
X56796000Y15648800D01*
X56796000Y21181200D02*
X56796000Y23421200D01*
X51956000Y21181200D02*
X51956000Y23421200D01*
X51956000Y23421200D02*
X56796000Y23421200D01*
X51956000Y21181200D02*
X56796000Y21181200D01*
D12*
X20145333Y8263620D02*
X20145333Y7549334D01*
X20192952Y7406477D01*
X20288190Y7311239D01*
X20431047Y7263620D01*
X20526285Y7263620D01*
X19240571Y7930286D02*
X19240571Y7263620D01*
X19478666Y8311239D02*
X19716761Y7596953D01*
X19097714Y7596953D01*
X31340038Y7469239D02*
X31197180Y7421620D01*
X30959085Y7421620D01*
X30863847Y7469239D01*
X30816228Y7516858D01*
X30768609Y7612096D01*
X30768609Y7707334D01*
X30816228Y7802572D01*
X30863847Y7850191D01*
X30959085Y7897810D01*
X31149561Y7945429D01*
X31244800Y7993048D01*
X31292419Y8040667D01*
X31340038Y8135905D01*
X31340038Y8231143D01*
X31292419Y8326381D01*
X31244800Y8374000D01*
X31149561Y8421620D01*
X30911466Y8421620D01*
X30768609Y8374000D01*
X30340038Y7421620D02*
X30340038Y8421620D01*
X30101942Y8421620D01*
X29959085Y8374000D01*
X29863847Y8278762D01*
X29816228Y8183524D01*
X29768609Y7993048D01*
X29768609Y7850191D01*
X29816228Y7659715D01*
X29863847Y7564477D01*
X29959085Y7469239D01*
X30101942Y7421620D01*
X30340038Y7421620D01*
X29578133Y7326381D02*
X28816228Y7326381D01*
X28006704Y7516858D02*
X28054323Y7469239D01*
X28197180Y7421620D01*
X28292419Y7421620D01*
X28435276Y7469239D01*
X28530514Y7564477D01*
X28578133Y7659715D01*
X28625752Y7850191D01*
X28625752Y7993048D01*
X28578133Y8183524D01*
X28530514Y8278762D01*
X28435276Y8374000D01*
X28292419Y8421620D01*
X28197180Y8421620D01*
X28054323Y8374000D01*
X28006704Y8326381D01*
X27625752Y7707334D02*
X27149561Y7707334D01*
X27720990Y7421620D02*
X27387657Y8421620D01*
X27054323Y7421620D01*
X26149561Y7421620D02*
X26482895Y7897810D01*
X26720990Y7421620D02*
X26720990Y8421620D01*
X26340038Y8421620D01*
X26244800Y8374000D01*
X26197180Y8326381D01*
X26149561Y8231143D01*
X26149561Y8088286D01*
X26197180Y7993048D01*
X26244800Y7945429D01*
X26340038Y7897810D01*
X26720990Y7897810D01*
X25720990Y7421620D02*
X25720990Y8421620D01*
X25482895Y8421620D01*
X25340038Y8374000D01*
X25244800Y8278762D01*
X25197180Y8183524D01*
X25149561Y7993048D01*
X25149561Y7850191D01*
X25197180Y7659715D01*
X25244800Y7564477D01*
X25340038Y7469239D01*
X25482895Y7421620D01*
X25720990Y7421620D01*
X39398533Y11368020D02*
X39398533Y10653734D01*
X39446152Y10510877D01*
X39541390Y10415639D01*
X39684247Y10368020D01*
X39779485Y10368020D01*
X38398533Y10368020D02*
X38969961Y10368020D01*
X38684247Y10368020D02*
X38684247Y11368020D01*
X38779485Y11225162D01*
X38874723Y11129924D01*
X38969961Y11082305D01*
X51522000Y11029143D02*
X51022000Y11029143D01*
X50807714Y10243429D02*
X51522000Y10243429D01*
X51522000Y11743429D01*
X50807714Y11743429D01*
X50307714Y11743429D02*
X49307714Y10243429D01*
X49307714Y11743429D02*
X50307714Y10243429D01*
X48736285Y10243429D02*
X48736285Y11743429D01*
X48164857Y11743429D01*
X48022000Y11672000D01*
X47950571Y11600572D01*
X47879142Y11457715D01*
X47879142Y11243429D01*
X47950571Y11100572D01*
X48022000Y11029143D01*
X48164857Y10957715D01*
X48736285Y10957715D01*
X46450571Y10243429D02*
X47307714Y10243429D01*
X46879142Y10243429D02*
X46879142Y11743429D01*
X47022000Y11529143D01*
X47164857Y11386286D01*
X47307714Y11314858D01*
X61598133Y11469620D02*
X61598133Y10755334D01*
X61645752Y10612477D01*
X61740990Y10517239D01*
X61883847Y10469620D01*
X61979085Y10469620D01*
X61169561Y11374381D02*
X61121942Y11422000D01*
X61026704Y11469620D01*
X60788609Y11469620D01*
X60693371Y11422000D01*
X60645752Y11374381D01*
X60598133Y11279143D01*
X60598133Y11183905D01*
X60645752Y11041048D01*
X61217180Y10469620D01*
X60598133Y10469620D01*
X73924800Y11029143D02*
X73424800Y11029143D01*
X73210514Y10243429D02*
X73924800Y10243429D01*
X73924800Y11743429D01*
X73210514Y11743429D01*
X72710514Y11743429D02*
X71710514Y10243429D01*
X71710514Y11743429D02*
X72710514Y10243429D01*
X71139085Y10243429D02*
X71139085Y11743429D01*
X70567657Y11743429D01*
X70424800Y11672000D01*
X70353371Y11600572D01*
X70281942Y11457715D01*
X70281942Y11243429D01*
X70353371Y11100572D01*
X70424800Y11029143D01*
X70567657Y10957715D01*
X71139085Y10957715D01*
X69710514Y11600572D02*
X69639085Y11672000D01*
X69496228Y11743429D01*
X69139085Y11743429D01*
X68996228Y11672000D01*
X68924800Y11600572D01*
X68853371Y11457715D01*
X68853371Y11314858D01*
X68924800Y11100572D01*
X69781942Y10243429D01*
X68853371Y10243429D01*
X39131833Y25322620D02*
X39131833Y24608334D01*
X39179452Y24465477D01*
X39274690Y24370239D01*
X39417547Y24322620D01*
X39512785Y24322620D01*
X38227071Y24989286D02*
X38227071Y24322620D01*
X38465166Y25370239D02*
X38703261Y24655953D01*
X38084214Y24655953D01*
X83542095Y33990020D02*
X83542095Y34990020D01*
X83304000Y34990020D01*
X83161142Y34942400D01*
X83065904Y34847162D01*
X83018285Y34751924D01*
X82970666Y34561448D01*
X82970666Y34418591D01*
X83018285Y34228115D01*
X83065904Y34132877D01*
X83161142Y34037639D01*
X83304000Y33990020D01*
X83542095Y33990020D01*
X82018285Y33990020D02*
X82589714Y33990020D01*
X82304000Y33990020D02*
X82304000Y34990020D01*
X82399238Y34847162D01*
X82494476Y34751924D01*
X82589714Y34704305D01*
X98992333Y9440620D02*
X98992333Y8726334D01*
X99039952Y8583477D01*
X99135190Y8488239D01*
X99278047Y8440620D01*
X99373285Y8440620D01*
X98039952Y9440620D02*
X98516142Y9440620D01*
X98563761Y8964429D01*
X98516142Y9012048D01*
X98420904Y9059667D01*
X98182809Y9059667D01*
X98087571Y9012048D01*
X98039952Y8964429D01*
X97992333Y8869191D01*
X97992333Y8631096D01*
X98039952Y8535858D01*
X98087571Y8488239D01*
X98182809Y8440620D01*
X98420904Y8440620D01*
X98516142Y8488239D01*
X98563761Y8535858D01*
X110956171Y5034020D02*
X111289504Y5510210D01*
X111527600Y5034020D02*
X111527600Y6034020D01*
X111146647Y6034020D01*
X111051409Y5986400D01*
X111003790Y5938781D01*
X110956171Y5843543D01*
X110956171Y5700686D01*
X111003790Y5605448D01*
X111051409Y5557829D01*
X111146647Y5510210D01*
X111527600Y5510210D01*
X110337123Y6034020D02*
X110146647Y6034020D01*
X110051409Y5986400D01*
X109956171Y5891162D01*
X109908552Y5700686D01*
X109908552Y5367353D01*
X109956171Y5176877D01*
X110051409Y5081639D01*
X110146647Y5034020D01*
X110337123Y5034020D01*
X110432361Y5081639D01*
X110527600Y5176877D01*
X110575219Y5367353D01*
X110575219Y5700686D01*
X110527600Y5891162D01*
X110432361Y5986400D01*
X110337123Y6034020D01*
X109622838Y6034020D02*
X109051409Y6034020D01*
X109337123Y5034020D02*
X109337123Y6034020D01*
X108956171Y4938781D02*
X108194266Y4938781D01*
X107956171Y5557829D02*
X107622838Y5557829D01*
X107479980Y5034020D02*
X107956171Y5034020D01*
X107956171Y6034020D01*
X107479980Y6034020D01*
X107051409Y5034020D02*
X107051409Y6034020D01*
X106479980Y5034020D01*
X106479980Y6034020D01*
X105432361Y5129258D02*
X105479980Y5081639D01*
X105622838Y5034020D01*
X105718076Y5034020D01*
X105860933Y5081639D01*
X105956171Y5176877D01*
X106003790Y5272115D01*
X106051409Y5462591D01*
X106051409Y5605448D01*
X106003790Y5795924D01*
X105956171Y5891162D01*
X105860933Y5986400D01*
X105718076Y6034020D01*
X105622838Y6034020D01*
X105479980Y5986400D01*
X105432361Y5938781D01*
X104813314Y6034020D02*
X104622838Y6034020D01*
X104527600Y5986400D01*
X104432361Y5891162D01*
X104384742Y5700686D01*
X104384742Y5367353D01*
X104432361Y5176877D01*
X104527600Y5081639D01*
X104622838Y5034020D01*
X104813314Y5034020D01*
X104908552Y5081639D01*
X105003790Y5176877D01*
X105051409Y5367353D01*
X105051409Y5700686D01*
X105003790Y5891162D01*
X104908552Y5986400D01*
X104813314Y6034020D01*
X103956171Y5034020D02*
X103956171Y6034020D01*
X103718076Y6034020D01*
X103575219Y5986400D01*
X103479980Y5891162D01*
X103432361Y5795924D01*
X103384742Y5605448D01*
X103384742Y5462591D01*
X103432361Y5272115D01*
X103479980Y5176877D01*
X103575219Y5081639D01*
X103718076Y5034020D01*
X103956171Y5034020D01*
X102956171Y5557829D02*
X102622838Y5557829D01*
X102479980Y5034020D02*
X102956171Y5034020D01*
X102956171Y6034020D01*
X102479980Y6034020D01*
X101479980Y5034020D02*
X101813314Y5510210D01*
X102051409Y5034020D02*
X102051409Y6034020D01*
X101670457Y6034020D01*
X101575219Y5986400D01*
X101527600Y5938781D01*
X101479980Y5843543D01*
X101479980Y5700686D01*
X101527600Y5605448D01*
X101575219Y5557829D01*
X101670457Y5510210D01*
X102051409Y5510210D01*
X70492857Y28757620D02*
X70969047Y28757620D01*
X70969047Y29757620D01*
X70207142Y28805239D02*
X70064285Y28757620D01*
X69826190Y28757620D01*
X69730952Y28805239D01*
X69683333Y28852858D01*
X69635714Y28948096D01*
X69635714Y29043334D01*
X69683333Y29138572D01*
X69730952Y29186191D01*
X69826190Y29233810D01*
X70016666Y29281429D01*
X70111904Y29329048D01*
X70159523Y29376667D01*
X70207142Y29471905D01*
X70207142Y29567143D01*
X70159523Y29662381D01*
X70111904Y29710000D01*
X70016666Y29757620D01*
X69778571Y29757620D01*
X69635714Y29710000D01*
X68683333Y28757620D02*
X69254761Y28757620D01*
X68969047Y28757620D02*
X68969047Y29757620D01*
X69064285Y29614762D01*
X69159523Y29519524D01*
X69254761Y29471905D01*
X67381428Y33410953D02*
X67381428Y32649048D01*
X67762380Y33030000D02*
X67000476Y33030000D01*
X75380838Y18807181D02*
X75476076Y18854800D01*
X75571314Y18950039D01*
X75714171Y19092896D01*
X75809409Y19140515D01*
X75904647Y19140515D01*
X75857028Y18902420D02*
X75952266Y18950039D01*
X76047504Y19045277D01*
X76095123Y19235753D01*
X76095123Y19569086D01*
X76047504Y19759562D01*
X75952266Y19854800D01*
X75857028Y19902420D01*
X75666552Y19902420D01*
X75571314Y19854800D01*
X75476076Y19759562D01*
X75428457Y19569086D01*
X75428457Y19235753D01*
X75476076Y19045277D01*
X75571314Y18950039D01*
X75666552Y18902420D01*
X75857028Y18902420D01*
X74476076Y18902420D02*
X75047504Y18902420D01*
X74761790Y18902420D02*
X74761790Y19902420D01*
X74857028Y19759562D01*
X74952266Y19664324D01*
X75047504Y19616705D01*
X49950666Y33647120D02*
X50284000Y34123310D01*
X50522095Y33647120D02*
X50522095Y34647120D01*
X50141142Y34647120D01*
X50045904Y34599500D01*
X49998285Y34551881D01*
X49950666Y34456643D01*
X49950666Y34313786D01*
X49998285Y34218548D01*
X50045904Y34170929D01*
X50141142Y34123310D01*
X50522095Y34123310D01*
X48998285Y33647120D02*
X49569714Y33647120D01*
X49284000Y33647120D02*
X49284000Y34647120D01*
X49379238Y34504262D01*
X49474476Y34409024D01*
X49569714Y34361405D01*
X78906666Y34028120D02*
X79240000Y34504310D01*
X79478095Y34028120D02*
X79478095Y35028120D01*
X79097142Y35028120D01*
X79001904Y34980500D01*
X78954285Y34932881D01*
X78906666Y34837643D01*
X78906666Y34694786D01*
X78954285Y34599548D01*
X79001904Y34551929D01*
X79097142Y34504310D01*
X79478095Y34504310D01*
X78525714Y34932881D02*
X78478095Y34980500D01*
X78382857Y35028120D01*
X78144761Y35028120D01*
X78049523Y34980500D01*
X78001904Y34932881D01*
X77954285Y34837643D01*
X77954285Y34742405D01*
X78001904Y34599548D01*
X78573333Y34028120D01*
X77954285Y34028120D01*
X46547066Y21036020D02*
X46880400Y21512210D01*
X47118495Y21036020D02*
X47118495Y22036020D01*
X46737542Y22036020D01*
X46642304Y21988400D01*
X46594685Y21940781D01*
X46547066Y21845543D01*
X46547066Y21702686D01*
X46594685Y21607448D01*
X46642304Y21559829D01*
X46737542Y21512210D01*
X47118495Y21512210D01*
X46213733Y22036020D02*
X45594685Y22036020D01*
X45928019Y21655067D01*
X45785161Y21655067D01*
X45689923Y21607448D01*
X45642304Y21559829D01*
X45594685Y21464591D01*
X45594685Y21226496D01*
X45642304Y21131258D01*
X45689923Y21083639D01*
X45785161Y21036020D01*
X46070876Y21036020D01*
X46166114Y21083639D01*
X46213733Y21131258D01*
X44778419Y20756667D02*
X44826038Y20804286D01*
X44921276Y20947143D01*
X44968895Y21042381D01*
X45016514Y21185239D01*
X45064133Y21423334D01*
X45064133Y21613810D01*
X45016514Y21851905D01*
X44968895Y21994762D01*
X44921276Y22090000D01*
X44826038Y22232858D01*
X44778419Y22280477D01*
X44206990Y22137620D02*
X44016514Y22137620D01*
X43921276Y22090000D01*
X43826038Y21994762D01*
X43778419Y21804286D01*
X43778419Y21470953D01*
X43826038Y21280477D01*
X43921276Y21185239D01*
X44016514Y21137620D01*
X44206990Y21137620D01*
X44302228Y21185239D01*
X44397466Y21280477D01*
X44445085Y21470953D01*
X44445085Y21804286D01*
X44397466Y21994762D01*
X44302228Y22090000D01*
X44206990Y22137620D01*
X43349847Y21137620D02*
X43349847Y22137620D01*
X42968895Y22137620D01*
X42873657Y22090000D01*
X42826038Y22042381D01*
X42778419Y21947143D01*
X42778419Y21804286D01*
X42826038Y21709048D01*
X42873657Y21661429D01*
X42968895Y21613810D01*
X43349847Y21613810D01*
X42492704Y22137620D02*
X41921276Y22137620D01*
X42206990Y21137620D02*
X42206990Y22137620D01*
X41683180Y20756667D02*
X41635561Y20804286D01*
X41540323Y20947143D01*
X41492704Y21042381D01*
X41445085Y21185239D01*
X41397466Y21423334D01*
X41397466Y21613810D01*
X41445085Y21851905D01*
X41492704Y21994762D01*
X41540323Y22090000D01*
X41635561Y22232858D01*
X41683180Y22280477D01*
X49290266Y15905220D02*
X49623600Y16381410D01*
X49861695Y15905220D02*
X49861695Y16905220D01*
X49480742Y16905220D01*
X49385504Y16857600D01*
X49337885Y16809981D01*
X49290266Y16714743D01*
X49290266Y16571886D01*
X49337885Y16476648D01*
X49385504Y16429029D01*
X49480742Y16381410D01*
X49861695Y16381410D01*
X48433123Y16571886D02*
X48433123Y15905220D01*
X48671219Y16952839D02*
X48909314Y16238553D01*
X48290266Y16238553D01*
X47470819Y15625867D02*
X47518438Y15673486D01*
X47613676Y15816343D01*
X47661295Y15911581D01*
X47708914Y16054439D01*
X47756533Y16292534D01*
X47756533Y16483010D01*
X47708914Y16721105D01*
X47661295Y16863962D01*
X47613676Y16959200D01*
X47518438Y17102058D01*
X47470819Y17149677D01*
X46899390Y17006820D02*
X46708914Y17006820D01*
X46613676Y16959200D01*
X46518438Y16863962D01*
X46470819Y16673486D01*
X46470819Y16340153D01*
X46518438Y16149677D01*
X46613676Y16054439D01*
X46708914Y16006820D01*
X46899390Y16006820D01*
X46994628Y16054439D01*
X47089866Y16149677D01*
X47137485Y16340153D01*
X47137485Y16673486D01*
X47089866Y16863962D01*
X46994628Y16959200D01*
X46899390Y17006820D01*
X46042247Y16006820D02*
X46042247Y17006820D01*
X45661295Y17006820D01*
X45566057Y16959200D01*
X45518438Y16911581D01*
X45470819Y16816343D01*
X45470819Y16673486D01*
X45518438Y16578248D01*
X45566057Y16530629D01*
X45661295Y16483010D01*
X46042247Y16483010D01*
X45185104Y17006820D02*
X44613676Y17006820D01*
X44899390Y16006820D02*
X44899390Y17006820D01*
X44375580Y15625867D02*
X44327961Y15673486D01*
X44232723Y15816343D01*
X44185104Y15911581D01*
X44137485Y16054439D01*
X44089866Y16292534D01*
X44089866Y16483010D01*
X44137485Y16721105D01*
X44185104Y16863962D01*
X44232723Y16959200D01*
X44327961Y17102058D01*
X44375580Y17149677D01*
X28792466Y13581120D02*
X29125800Y14057310D01*
X29363895Y13581120D02*
X29363895Y14581120D01*
X28982942Y14581120D01*
X28887704Y14533500D01*
X28840085Y14485881D01*
X28792466Y14390643D01*
X28792466Y14247786D01*
X28840085Y14152548D01*
X28887704Y14104929D01*
X28982942Y14057310D01*
X29363895Y14057310D01*
X27887704Y14581120D02*
X28363895Y14581120D01*
X28411514Y14104929D01*
X28363895Y14152548D01*
X28268657Y14200167D01*
X28030561Y14200167D01*
X27935323Y14152548D01*
X27887704Y14104929D01*
X27840085Y14009691D01*
X27840085Y13771596D01*
X27887704Y13676358D01*
X27935323Y13628739D01*
X28030561Y13581120D01*
X28268657Y13581120D01*
X28363895Y13628739D01*
X28411514Y13676358D01*
X26315966Y18597620D02*
X26649300Y19073810D01*
X26887395Y18597620D02*
X26887395Y19597620D01*
X26506442Y19597620D01*
X26411204Y19550000D01*
X26363585Y19502381D01*
X26315966Y19407143D01*
X26315966Y19264286D01*
X26363585Y19169048D01*
X26411204Y19121429D01*
X26506442Y19073810D01*
X26887395Y19073810D01*
X25458823Y19597620D02*
X25649300Y19597620D01*
X25744538Y19550000D01*
X25792157Y19502381D01*
X25887395Y19359524D01*
X25935014Y19169048D01*
X25935014Y18788096D01*
X25887395Y18692858D01*
X25839776Y18645239D01*
X25744538Y18597620D01*
X25554061Y18597620D01*
X25458823Y18645239D01*
X25411204Y18692858D01*
X25363585Y18788096D01*
X25363585Y19026191D01*
X25411204Y19121429D01*
X25458823Y19169048D01*
X25554061Y19216667D01*
X25744538Y19216667D01*
X25839776Y19169048D01*
X25887395Y19121429D01*
X25935014Y19026191D01*
X59131104Y18632420D02*
X59131104Y17822896D01*
X59083485Y17727658D01*
X59035866Y17680039D01*
X58940628Y17632420D01*
X58750152Y17632420D01*
X58654914Y17680039D01*
X58607295Y17727658D01*
X58559676Y17822896D01*
X58559676Y18632420D01*
X57559676Y17632420D02*
X58131104Y17632420D01*
X57845390Y17632420D02*
X57845390Y18632420D01*
X57940628Y18489562D01*
X58035866Y18394324D01*
X58131104Y18346705D01*
X58434266Y14120858D02*
X58481885Y14073239D01*
X58624742Y14025620D01*
X58719980Y14025620D01*
X58862838Y14073239D01*
X58958076Y14168477D01*
X59005695Y14263715D01*
X59053314Y14454191D01*
X59053314Y14597048D01*
X59005695Y14787524D01*
X58958076Y14882762D01*
X58862838Y14978000D01*
X58719980Y15025620D01*
X58624742Y15025620D01*
X58481885Y14978000D01*
X58434266Y14930381D01*
X57481885Y14025620D02*
X58053314Y14025620D01*
X57767600Y14025620D02*
X57767600Y15025620D01*
X57862838Y14882762D01*
X57958076Y14787524D01*
X58053314Y14739905D01*
X58586666Y21893258D02*
X58634285Y21845639D01*
X58777142Y21798020D01*
X58872380Y21798020D01*
X59015238Y21845639D01*
X59110476Y21940877D01*
X59158095Y22036115D01*
X59205714Y22226591D01*
X59205714Y22369448D01*
X59158095Y22559924D01*
X59110476Y22655162D01*
X59015238Y22750400D01*
X58872380Y22798020D01*
X58777142Y22798020D01*
X58634285Y22750400D01*
X58586666Y22702781D01*
X58205714Y22702781D02*
X58158095Y22750400D01*
X58062857Y22798020D01*
X57824761Y22798020D01*
X57729523Y22750400D01*
X57681904Y22702781D01*
X57634285Y22607543D01*
X57634285Y22512305D01*
X57681904Y22369448D01*
X58253333Y21798020D01*
X57634285Y21798020D01*
M02*
