G04 #@! TF.GenerationSoftware,KiCad,Pcbnew,5.1.5-52549c5~84~ubuntu18.04.1*
G04 #@! TF.CreationDate,2020-02-18T21:49:32-08:00*
G04 #@! TF.ProjectId,Marlin_UIBOX,4d61726c-696e-45f5-9549-424f582e6b69,rev?*
G04 #@! TF.SameCoordinates,Original*
G04 #@! TF.FileFunction,Soldermask,Top*
G04 #@! TF.FilePolarity,Negative*
%FSLAX46Y46*%
G04 Gerber Fmt 4.6, Leading zero omitted, Abs format (unit mm)*
G04 Created by KiCad (PCBNEW 5.1.5-52549c5~84~ubuntu18.04.1) date 2020-02-18 21:49:32*
%MOMM*%
%LPD*%
G04 APERTURE LIST*
%ADD10C,0.100000*%
G04 APERTURE END LIST*
D10*
G36*
X95625256Y-112691298D02*
G01*
X95731579Y-112712447D01*
X96032042Y-112836903D01*
X96302451Y-113017585D01*
X96532415Y-113247549D01*
X96713097Y-113517958D01*
X96713098Y-113517960D01*
X96716106Y-113525222D01*
X96837553Y-113818421D01*
X96850216Y-113882082D01*
X96901000Y-114137389D01*
X96901000Y-114462611D01*
X96873172Y-114602509D01*
X96837553Y-114781579D01*
X96713097Y-115082042D01*
X96532415Y-115352451D01*
X96302451Y-115582415D01*
X96032042Y-115763097D01*
X95731579Y-115887553D01*
X95625256Y-115908702D01*
X95412611Y-115951000D01*
X95087389Y-115951000D01*
X94874744Y-115908702D01*
X94768421Y-115887553D01*
X94467958Y-115763097D01*
X94197549Y-115582415D01*
X93967585Y-115352451D01*
X93786903Y-115082042D01*
X93662447Y-114781579D01*
X93626828Y-114602509D01*
X93599000Y-114462611D01*
X93599000Y-114137389D01*
X93649784Y-113882082D01*
X93662447Y-113818421D01*
X93783894Y-113525222D01*
X93786902Y-113517960D01*
X93786903Y-113517958D01*
X93967585Y-113247549D01*
X94197549Y-113017585D01*
X94467958Y-112836903D01*
X94768421Y-112712447D01*
X94874744Y-112691298D01*
X95087389Y-112649000D01*
X95412611Y-112649000D01*
X95625256Y-112691298D01*
G37*
G36*
X214825256Y-112691298D02*
G01*
X214931579Y-112712447D01*
X215232042Y-112836903D01*
X215502451Y-113017585D01*
X215732415Y-113247549D01*
X215913097Y-113517958D01*
X215913098Y-113517960D01*
X215916106Y-113525222D01*
X216037553Y-113818421D01*
X216050216Y-113882082D01*
X216101000Y-114137389D01*
X216101000Y-114462611D01*
X216073172Y-114602509D01*
X216037553Y-114781579D01*
X215913097Y-115082042D01*
X215732415Y-115352451D01*
X215502451Y-115582415D01*
X215232042Y-115763097D01*
X214931579Y-115887553D01*
X214825256Y-115908702D01*
X214612611Y-115951000D01*
X214287389Y-115951000D01*
X214074744Y-115908702D01*
X213968421Y-115887553D01*
X213667958Y-115763097D01*
X213397549Y-115582415D01*
X213167585Y-115352451D01*
X212986903Y-115082042D01*
X212862447Y-114781579D01*
X212826828Y-114602509D01*
X212799000Y-114462611D01*
X212799000Y-114137389D01*
X212849784Y-113882082D01*
X212862447Y-113818421D01*
X212983894Y-113525222D01*
X212986902Y-113517960D01*
X212986903Y-113517958D01*
X213167585Y-113247549D01*
X213397549Y-113017585D01*
X213667958Y-112836903D01*
X213968421Y-112712447D01*
X214074744Y-112691298D01*
X214287389Y-112649000D01*
X214612611Y-112649000D01*
X214825256Y-112691298D01*
G37*
G36*
X178825256Y-112691298D02*
G01*
X178931579Y-112712447D01*
X179232042Y-112836903D01*
X179502451Y-113017585D01*
X179732415Y-113247549D01*
X179913097Y-113517958D01*
X179913098Y-113517960D01*
X179916106Y-113525222D01*
X180037553Y-113818421D01*
X180050216Y-113882082D01*
X180101000Y-114137389D01*
X180101000Y-114462611D01*
X180073172Y-114602509D01*
X180037553Y-114781579D01*
X179913097Y-115082042D01*
X179732415Y-115352451D01*
X179502451Y-115582415D01*
X179232042Y-115763097D01*
X178931579Y-115887553D01*
X178825256Y-115908702D01*
X178612611Y-115951000D01*
X178287389Y-115951000D01*
X178074744Y-115908702D01*
X177968421Y-115887553D01*
X177667958Y-115763097D01*
X177397549Y-115582415D01*
X177167585Y-115352451D01*
X176986903Y-115082042D01*
X176862447Y-114781579D01*
X176826828Y-114602509D01*
X176799000Y-114462611D01*
X176799000Y-114137389D01*
X176849784Y-113882082D01*
X176862447Y-113818421D01*
X176983894Y-113525222D01*
X176986902Y-113517960D01*
X176986903Y-113517958D01*
X177167585Y-113247549D01*
X177397549Y-113017585D01*
X177667958Y-112836903D01*
X177968421Y-112712447D01*
X178074744Y-112691298D01*
X178287389Y-112649000D01*
X178612611Y-112649000D01*
X178825256Y-112691298D01*
G37*
G36*
X144284778Y-112912547D02*
G01*
X144451224Y-112981491D01*
X144601022Y-113081583D01*
X144728417Y-113208978D01*
X144828509Y-113358776D01*
X144897453Y-113525222D01*
X144932600Y-113701918D01*
X144932600Y-113882082D01*
X144897453Y-114058778D01*
X144828509Y-114225224D01*
X144728417Y-114375022D01*
X144601022Y-114502417D01*
X144451224Y-114602509D01*
X144284778Y-114671453D01*
X144108082Y-114706600D01*
X143927918Y-114706600D01*
X143751222Y-114671453D01*
X143584776Y-114602509D01*
X143434978Y-114502417D01*
X143307583Y-114375022D01*
X143207491Y-114225224D01*
X143138547Y-114058778D01*
X143103400Y-113882082D01*
X143103400Y-113701918D01*
X143138547Y-113525222D01*
X143207491Y-113358776D01*
X143307583Y-113208978D01*
X143434978Y-113081583D01*
X143584776Y-112981491D01*
X143751222Y-112912547D01*
X143927918Y-112877400D01*
X144108082Y-112877400D01*
X144284778Y-112912547D01*
G37*
G36*
X159016778Y-112912547D02*
G01*
X159183224Y-112981491D01*
X159333022Y-113081583D01*
X159460417Y-113208978D01*
X159560509Y-113358776D01*
X159629453Y-113525222D01*
X159664600Y-113701918D01*
X159664600Y-113882082D01*
X159629453Y-114058778D01*
X159560509Y-114225224D01*
X159460417Y-114375022D01*
X159333022Y-114502417D01*
X159183224Y-114602509D01*
X159016778Y-114671453D01*
X158840082Y-114706600D01*
X158659918Y-114706600D01*
X158483222Y-114671453D01*
X158316776Y-114602509D01*
X158166978Y-114502417D01*
X158039583Y-114375022D01*
X157939491Y-114225224D01*
X157870547Y-114058778D01*
X157835400Y-113882082D01*
X157835400Y-113701918D01*
X157870547Y-113525222D01*
X157939491Y-113358776D01*
X158039583Y-113208978D01*
X158166978Y-113081583D01*
X158316776Y-112981491D01*
X158483222Y-112912547D01*
X158659918Y-112877400D01*
X158840082Y-112877400D01*
X159016778Y-112912547D01*
G37*
G36*
X156476778Y-112912547D02*
G01*
X156643224Y-112981491D01*
X156793022Y-113081583D01*
X156920417Y-113208978D01*
X157020509Y-113358776D01*
X157089453Y-113525222D01*
X157124600Y-113701918D01*
X157124600Y-113882082D01*
X157089453Y-114058778D01*
X157020509Y-114225224D01*
X156920417Y-114375022D01*
X156793022Y-114502417D01*
X156643224Y-114602509D01*
X156476778Y-114671453D01*
X156300082Y-114706600D01*
X156119918Y-114706600D01*
X155943222Y-114671453D01*
X155776776Y-114602509D01*
X155626978Y-114502417D01*
X155499583Y-114375022D01*
X155399491Y-114225224D01*
X155330547Y-114058778D01*
X155295400Y-113882082D01*
X155295400Y-113701918D01*
X155330547Y-113525222D01*
X155399491Y-113358776D01*
X155499583Y-113208978D01*
X155626978Y-113081583D01*
X155776776Y-112981491D01*
X155943222Y-112912547D01*
X156119918Y-112877400D01*
X156300082Y-112877400D01*
X156476778Y-112912547D01*
G37*
G36*
X161556778Y-112912547D02*
G01*
X161723224Y-112981491D01*
X161873022Y-113081583D01*
X162000417Y-113208978D01*
X162100509Y-113358776D01*
X162169453Y-113525222D01*
X162204600Y-113701918D01*
X162204600Y-113882082D01*
X162169453Y-114058778D01*
X162100509Y-114225224D01*
X162000417Y-114375022D01*
X161873022Y-114502417D01*
X161723224Y-114602509D01*
X161556778Y-114671453D01*
X161380082Y-114706600D01*
X161199918Y-114706600D01*
X161023222Y-114671453D01*
X160856776Y-114602509D01*
X160706978Y-114502417D01*
X160579583Y-114375022D01*
X160479491Y-114225224D01*
X160410547Y-114058778D01*
X160375400Y-113882082D01*
X160375400Y-113701918D01*
X160410547Y-113525222D01*
X160479491Y-113358776D01*
X160579583Y-113208978D01*
X160706978Y-113081583D01*
X160856776Y-112981491D01*
X161023222Y-112912547D01*
X161199918Y-112877400D01*
X161380082Y-112877400D01*
X161556778Y-112912547D01*
G37*
G36*
X166636778Y-112912547D02*
G01*
X166803224Y-112981491D01*
X166953022Y-113081583D01*
X167080417Y-113208978D01*
X167180509Y-113358776D01*
X167249453Y-113525222D01*
X167284600Y-113701918D01*
X167284600Y-113882082D01*
X167249453Y-114058778D01*
X167180509Y-114225224D01*
X167080417Y-114375022D01*
X166953022Y-114502417D01*
X166803224Y-114602509D01*
X166636778Y-114671453D01*
X166460082Y-114706600D01*
X166279918Y-114706600D01*
X166103222Y-114671453D01*
X165936776Y-114602509D01*
X165786978Y-114502417D01*
X165659583Y-114375022D01*
X165559491Y-114225224D01*
X165490547Y-114058778D01*
X165455400Y-113882082D01*
X165455400Y-113701918D01*
X165490547Y-113525222D01*
X165559491Y-113358776D01*
X165659583Y-113208978D01*
X165786978Y-113081583D01*
X165936776Y-112981491D01*
X166103222Y-112912547D01*
X166279918Y-112877400D01*
X166460082Y-112877400D01*
X166636778Y-112912547D01*
G37*
G36*
X141744778Y-112912547D02*
G01*
X141911224Y-112981491D01*
X142061022Y-113081583D01*
X142188417Y-113208978D01*
X142288509Y-113358776D01*
X142357453Y-113525222D01*
X142392600Y-113701918D01*
X142392600Y-113882082D01*
X142357453Y-114058778D01*
X142288509Y-114225224D01*
X142188417Y-114375022D01*
X142061022Y-114502417D01*
X141911224Y-114602509D01*
X141744778Y-114671453D01*
X141568082Y-114706600D01*
X141387918Y-114706600D01*
X141211222Y-114671453D01*
X141044776Y-114602509D01*
X140894978Y-114502417D01*
X140767583Y-114375022D01*
X140667491Y-114225224D01*
X140598547Y-114058778D01*
X140563400Y-113882082D01*
X140563400Y-113701918D01*
X140598547Y-113525222D01*
X140667491Y-113358776D01*
X140767583Y-113208978D01*
X140894978Y-113081583D01*
X141044776Y-112981491D01*
X141211222Y-112912547D01*
X141387918Y-112877400D01*
X141568082Y-112877400D01*
X141744778Y-112912547D01*
G37*
G36*
X139204778Y-112912547D02*
G01*
X139371224Y-112981491D01*
X139521022Y-113081583D01*
X139648417Y-113208978D01*
X139748509Y-113358776D01*
X139817453Y-113525222D01*
X139852600Y-113701918D01*
X139852600Y-113882082D01*
X139817453Y-114058778D01*
X139748509Y-114225224D01*
X139648417Y-114375022D01*
X139521022Y-114502417D01*
X139371224Y-114602509D01*
X139204778Y-114671453D01*
X139028082Y-114706600D01*
X138847918Y-114706600D01*
X138671222Y-114671453D01*
X138504776Y-114602509D01*
X138354978Y-114502417D01*
X138227583Y-114375022D01*
X138127491Y-114225224D01*
X138058547Y-114058778D01*
X138023400Y-113882082D01*
X138023400Y-113701918D01*
X138058547Y-113525222D01*
X138127491Y-113358776D01*
X138227583Y-113208978D01*
X138354978Y-113081583D01*
X138504776Y-112981491D01*
X138671222Y-112912547D01*
X138847918Y-112877400D01*
X139028082Y-112877400D01*
X139204778Y-112912547D01*
G37*
G36*
X136664778Y-112912547D02*
G01*
X136831224Y-112981491D01*
X136981022Y-113081583D01*
X137108417Y-113208978D01*
X137208509Y-113358776D01*
X137277453Y-113525222D01*
X137312600Y-113701918D01*
X137312600Y-113882082D01*
X137277453Y-114058778D01*
X137208509Y-114225224D01*
X137108417Y-114375022D01*
X136981022Y-114502417D01*
X136831224Y-114602509D01*
X136664778Y-114671453D01*
X136488082Y-114706600D01*
X136307918Y-114706600D01*
X136131222Y-114671453D01*
X135964776Y-114602509D01*
X135814978Y-114502417D01*
X135687583Y-114375022D01*
X135587491Y-114225224D01*
X135518547Y-114058778D01*
X135483400Y-113882082D01*
X135483400Y-113701918D01*
X135518547Y-113525222D01*
X135587491Y-113358776D01*
X135687583Y-113208978D01*
X135814978Y-113081583D01*
X135964776Y-112981491D01*
X136131222Y-112912547D01*
X136307918Y-112877400D01*
X136488082Y-112877400D01*
X136664778Y-112912547D01*
G37*
G36*
X134124778Y-112912547D02*
G01*
X134291224Y-112981491D01*
X134441022Y-113081583D01*
X134568417Y-113208978D01*
X134668509Y-113358776D01*
X134737453Y-113525222D01*
X134772600Y-113701918D01*
X134772600Y-113882082D01*
X134737453Y-114058778D01*
X134668509Y-114225224D01*
X134568417Y-114375022D01*
X134441022Y-114502417D01*
X134291224Y-114602509D01*
X134124778Y-114671453D01*
X133948082Y-114706600D01*
X133767918Y-114706600D01*
X133591222Y-114671453D01*
X133424776Y-114602509D01*
X133274978Y-114502417D01*
X133147583Y-114375022D01*
X133047491Y-114225224D01*
X132978547Y-114058778D01*
X132943400Y-113882082D01*
X132943400Y-113701918D01*
X132978547Y-113525222D01*
X133047491Y-113358776D01*
X133147583Y-113208978D01*
X133274978Y-113081583D01*
X133424776Y-112981491D01*
X133591222Y-112912547D01*
X133767918Y-112877400D01*
X133948082Y-112877400D01*
X134124778Y-112912547D01*
G37*
G36*
X164096778Y-112912547D02*
G01*
X164263224Y-112981491D01*
X164413022Y-113081583D01*
X164540417Y-113208978D01*
X164640509Y-113358776D01*
X164709453Y-113525222D01*
X164744600Y-113701918D01*
X164744600Y-113882082D01*
X164709453Y-114058778D01*
X164640509Y-114225224D01*
X164540417Y-114375022D01*
X164413022Y-114502417D01*
X164263224Y-114602509D01*
X164096778Y-114671453D01*
X163920082Y-114706600D01*
X163739918Y-114706600D01*
X163563222Y-114671453D01*
X163396776Y-114602509D01*
X163246978Y-114502417D01*
X163119583Y-114375022D01*
X163019491Y-114225224D01*
X162950547Y-114058778D01*
X162915400Y-113882082D01*
X162915400Y-113701918D01*
X162950547Y-113525222D01*
X163019491Y-113358776D01*
X163119583Y-113208978D01*
X163246978Y-113081583D01*
X163396776Y-112981491D01*
X163563222Y-112912547D01*
X163739918Y-112877400D01*
X163920082Y-112877400D01*
X164096778Y-112912547D01*
G37*
G36*
X115720512Y-111915927D02*
G01*
X115869812Y-111945624D01*
X116033784Y-112013544D01*
X116181354Y-112112147D01*
X116306853Y-112237646D01*
X116405456Y-112385216D01*
X116473376Y-112549188D01*
X116493229Y-112649000D01*
X116505850Y-112712447D01*
X116508000Y-112723259D01*
X116508000Y-112900741D01*
X116473376Y-113074812D01*
X116405456Y-113238784D01*
X116306853Y-113386354D01*
X116181354Y-113511853D01*
X116033784Y-113610456D01*
X115869812Y-113678376D01*
X115720512Y-113708073D01*
X115695742Y-113713000D01*
X115518258Y-113713000D01*
X115493488Y-113708073D01*
X115344188Y-113678376D01*
X115180216Y-113610456D01*
X115032646Y-113511853D01*
X114907147Y-113386354D01*
X114808544Y-113238784D01*
X114740624Y-113074812D01*
X114706000Y-112900741D01*
X114706000Y-112723259D01*
X114708151Y-112712447D01*
X114720771Y-112649000D01*
X114740624Y-112549188D01*
X114808544Y-112385216D01*
X114907147Y-112237646D01*
X115032646Y-112112147D01*
X115180216Y-112013544D01*
X115344188Y-111945624D01*
X115493488Y-111915927D01*
X115518258Y-111911000D01*
X115695742Y-111911000D01*
X115720512Y-111915927D01*
G37*
G36*
X125880512Y-111915927D02*
G01*
X126029812Y-111945624D01*
X126193784Y-112013544D01*
X126341354Y-112112147D01*
X126466853Y-112237646D01*
X126565456Y-112385216D01*
X126633376Y-112549188D01*
X126653229Y-112649000D01*
X126665850Y-112712447D01*
X126668000Y-112723259D01*
X126668000Y-112900741D01*
X126633376Y-113074812D01*
X126565456Y-113238784D01*
X126466853Y-113386354D01*
X126341354Y-113511853D01*
X126193784Y-113610456D01*
X126029812Y-113678376D01*
X125880512Y-113708073D01*
X125855742Y-113713000D01*
X125678258Y-113713000D01*
X125653488Y-113708073D01*
X125504188Y-113678376D01*
X125340216Y-113610456D01*
X125192646Y-113511853D01*
X125067147Y-113386354D01*
X124968544Y-113238784D01*
X124900624Y-113074812D01*
X124866000Y-112900741D01*
X124866000Y-112723259D01*
X124868151Y-112712447D01*
X124880771Y-112649000D01*
X124900624Y-112549188D01*
X124968544Y-112385216D01*
X125067147Y-112237646D01*
X125192646Y-112112147D01*
X125340216Y-112013544D01*
X125504188Y-111945624D01*
X125653488Y-111915927D01*
X125678258Y-111911000D01*
X125855742Y-111911000D01*
X125880512Y-111915927D01*
G37*
G36*
X120800512Y-111915927D02*
G01*
X120949812Y-111945624D01*
X121113784Y-112013544D01*
X121261354Y-112112147D01*
X121386853Y-112237646D01*
X121485456Y-112385216D01*
X121553376Y-112549188D01*
X121573229Y-112649000D01*
X121585850Y-112712447D01*
X121588000Y-112723259D01*
X121588000Y-112900741D01*
X121553376Y-113074812D01*
X121485456Y-113238784D01*
X121386853Y-113386354D01*
X121261354Y-113511853D01*
X121113784Y-113610456D01*
X120949812Y-113678376D01*
X120800512Y-113708073D01*
X120775742Y-113713000D01*
X120598258Y-113713000D01*
X120573488Y-113708073D01*
X120424188Y-113678376D01*
X120260216Y-113610456D01*
X120112646Y-113511853D01*
X119987147Y-113386354D01*
X119888544Y-113238784D01*
X119820624Y-113074812D01*
X119786000Y-112900741D01*
X119786000Y-112723259D01*
X119788151Y-112712447D01*
X119800771Y-112649000D01*
X119820624Y-112549188D01*
X119888544Y-112385216D01*
X119987147Y-112237646D01*
X120112646Y-112112147D01*
X120260216Y-112013544D01*
X120424188Y-111945624D01*
X120573488Y-111915927D01*
X120598258Y-111911000D01*
X120775742Y-111911000D01*
X120800512Y-111915927D01*
G37*
G36*
X118260512Y-111915927D02*
G01*
X118409812Y-111945624D01*
X118573784Y-112013544D01*
X118721354Y-112112147D01*
X118846853Y-112237646D01*
X118945456Y-112385216D01*
X119013376Y-112549188D01*
X119033229Y-112649000D01*
X119045850Y-112712447D01*
X119048000Y-112723259D01*
X119048000Y-112900741D01*
X119013376Y-113074812D01*
X118945456Y-113238784D01*
X118846853Y-113386354D01*
X118721354Y-113511853D01*
X118573784Y-113610456D01*
X118409812Y-113678376D01*
X118260512Y-113708073D01*
X118235742Y-113713000D01*
X118058258Y-113713000D01*
X118033488Y-113708073D01*
X117884188Y-113678376D01*
X117720216Y-113610456D01*
X117572646Y-113511853D01*
X117447147Y-113386354D01*
X117348544Y-113238784D01*
X117280624Y-113074812D01*
X117246000Y-112900741D01*
X117246000Y-112723259D01*
X117248151Y-112712447D01*
X117260771Y-112649000D01*
X117280624Y-112549188D01*
X117348544Y-112385216D01*
X117447147Y-112237646D01*
X117572646Y-112112147D01*
X117720216Y-112013544D01*
X117884188Y-111945624D01*
X118033488Y-111915927D01*
X118058258Y-111911000D01*
X118235742Y-111911000D01*
X118260512Y-111915927D01*
G37*
G36*
X113180512Y-111915927D02*
G01*
X113329812Y-111945624D01*
X113493784Y-112013544D01*
X113641354Y-112112147D01*
X113766853Y-112237646D01*
X113865456Y-112385216D01*
X113933376Y-112549188D01*
X113953229Y-112649000D01*
X113965850Y-112712447D01*
X113968000Y-112723259D01*
X113968000Y-112900741D01*
X113933376Y-113074812D01*
X113865456Y-113238784D01*
X113766853Y-113386354D01*
X113641354Y-113511853D01*
X113493784Y-113610456D01*
X113329812Y-113678376D01*
X113180512Y-113708073D01*
X113155742Y-113713000D01*
X112978258Y-113713000D01*
X112953488Y-113708073D01*
X112804188Y-113678376D01*
X112640216Y-113610456D01*
X112492646Y-113511853D01*
X112367147Y-113386354D01*
X112268544Y-113238784D01*
X112200624Y-113074812D01*
X112166000Y-112900741D01*
X112166000Y-112723259D01*
X112168151Y-112712447D01*
X112180771Y-112649000D01*
X112200624Y-112549188D01*
X112268544Y-112385216D01*
X112367147Y-112237646D01*
X112492646Y-112112147D01*
X112640216Y-112013544D01*
X112804188Y-111945624D01*
X112953488Y-111915927D01*
X112978258Y-111911000D01*
X113155742Y-111911000D01*
X113180512Y-111915927D01*
G37*
G36*
X111428000Y-113713000D02*
G01*
X109626000Y-113713000D01*
X109626000Y-111911000D01*
X111428000Y-111911000D01*
X111428000Y-113713000D01*
G37*
G36*
X123340512Y-111915927D02*
G01*
X123489812Y-111945624D01*
X123653784Y-112013544D01*
X123801354Y-112112147D01*
X123926853Y-112237646D01*
X124025456Y-112385216D01*
X124093376Y-112549188D01*
X124113229Y-112649000D01*
X124125850Y-112712447D01*
X124128000Y-112723259D01*
X124128000Y-112900741D01*
X124093376Y-113074812D01*
X124025456Y-113238784D01*
X123926853Y-113386354D01*
X123801354Y-113511853D01*
X123653784Y-113610456D01*
X123489812Y-113678376D01*
X123340512Y-113708073D01*
X123315742Y-113713000D01*
X123138258Y-113713000D01*
X123113488Y-113708073D01*
X122964188Y-113678376D01*
X122800216Y-113610456D01*
X122652646Y-113511853D01*
X122527147Y-113386354D01*
X122428544Y-113238784D01*
X122360624Y-113074812D01*
X122326000Y-112900741D01*
X122326000Y-112723259D01*
X122328151Y-112712447D01*
X122340771Y-112649000D01*
X122360624Y-112549188D01*
X122428544Y-112385216D01*
X122527147Y-112237646D01*
X122652646Y-112112147D01*
X122800216Y-112013544D01*
X122964188Y-111945624D01*
X123113488Y-111915927D01*
X123138258Y-111911000D01*
X123315742Y-111911000D01*
X123340512Y-111915927D01*
G37*
G36*
X161556778Y-110372547D02*
G01*
X161723224Y-110441491D01*
X161873022Y-110541583D01*
X162000417Y-110668978D01*
X162100509Y-110818776D01*
X162169453Y-110985222D01*
X162204600Y-111161918D01*
X162204600Y-111342082D01*
X162169453Y-111518778D01*
X162100509Y-111685224D01*
X162000417Y-111835022D01*
X161873022Y-111962417D01*
X161723224Y-112062509D01*
X161556778Y-112131453D01*
X161380082Y-112166600D01*
X161199918Y-112166600D01*
X161023222Y-112131453D01*
X160856776Y-112062509D01*
X160706978Y-111962417D01*
X160579583Y-111835022D01*
X160479491Y-111685224D01*
X160410547Y-111518778D01*
X160375400Y-111342082D01*
X160375400Y-111161918D01*
X160410547Y-110985222D01*
X160479491Y-110818776D01*
X160579583Y-110668978D01*
X160706978Y-110541583D01*
X160856776Y-110441491D01*
X161023222Y-110372547D01*
X161199918Y-110337400D01*
X161380082Y-110337400D01*
X161556778Y-110372547D01*
G37*
G36*
X166636778Y-110372547D02*
G01*
X166803224Y-110441491D01*
X166953022Y-110541583D01*
X167080417Y-110668978D01*
X167180509Y-110818776D01*
X167249453Y-110985222D01*
X167284600Y-111161918D01*
X167284600Y-111342082D01*
X167249453Y-111518778D01*
X167180509Y-111685224D01*
X167080417Y-111835022D01*
X166953022Y-111962417D01*
X166803224Y-112062509D01*
X166636778Y-112131453D01*
X166460082Y-112166600D01*
X166279918Y-112166600D01*
X166103222Y-112131453D01*
X165936776Y-112062509D01*
X165786978Y-111962417D01*
X165659583Y-111835022D01*
X165559491Y-111685224D01*
X165490547Y-111518778D01*
X165455400Y-111342082D01*
X165455400Y-111161918D01*
X165490547Y-110985222D01*
X165559491Y-110818776D01*
X165659583Y-110668978D01*
X165786978Y-110541583D01*
X165936776Y-110441491D01*
X166103222Y-110372547D01*
X166279918Y-110337400D01*
X166460082Y-110337400D01*
X166636778Y-110372547D01*
G37*
G36*
X139204778Y-110372547D02*
G01*
X139371224Y-110441491D01*
X139521022Y-110541583D01*
X139648417Y-110668978D01*
X139748509Y-110818776D01*
X139817453Y-110985222D01*
X139852600Y-111161918D01*
X139852600Y-111342082D01*
X139817453Y-111518778D01*
X139748509Y-111685224D01*
X139648417Y-111835022D01*
X139521022Y-111962417D01*
X139371224Y-112062509D01*
X139204778Y-112131453D01*
X139028082Y-112166600D01*
X138847918Y-112166600D01*
X138671222Y-112131453D01*
X138504776Y-112062509D01*
X138354978Y-111962417D01*
X138227583Y-111835022D01*
X138127491Y-111685224D01*
X138058547Y-111518778D01*
X138023400Y-111342082D01*
X138023400Y-111161918D01*
X138058547Y-110985222D01*
X138127491Y-110818776D01*
X138227583Y-110668978D01*
X138354978Y-110541583D01*
X138504776Y-110441491D01*
X138671222Y-110372547D01*
X138847918Y-110337400D01*
X139028082Y-110337400D01*
X139204778Y-110372547D01*
G37*
G36*
X164096778Y-110372547D02*
G01*
X164263224Y-110441491D01*
X164413022Y-110541583D01*
X164540417Y-110668978D01*
X164640509Y-110818776D01*
X164709453Y-110985222D01*
X164744600Y-111161918D01*
X164744600Y-111342082D01*
X164709453Y-111518778D01*
X164640509Y-111685224D01*
X164540417Y-111835022D01*
X164413022Y-111962417D01*
X164263224Y-112062509D01*
X164096778Y-112131453D01*
X163920082Y-112166600D01*
X163739918Y-112166600D01*
X163563222Y-112131453D01*
X163396776Y-112062509D01*
X163246978Y-111962417D01*
X163119583Y-111835022D01*
X163019491Y-111685224D01*
X162950547Y-111518778D01*
X162915400Y-111342082D01*
X162915400Y-111161918D01*
X162950547Y-110985222D01*
X163019491Y-110818776D01*
X163119583Y-110668978D01*
X163246978Y-110541583D01*
X163396776Y-110441491D01*
X163563222Y-110372547D01*
X163739918Y-110337400D01*
X163920082Y-110337400D01*
X164096778Y-110372547D01*
G37*
G36*
X136664778Y-110372547D02*
G01*
X136831224Y-110441491D01*
X136981022Y-110541583D01*
X137108417Y-110668978D01*
X137208509Y-110818776D01*
X137277453Y-110985222D01*
X137312600Y-111161918D01*
X137312600Y-111342082D01*
X137277453Y-111518778D01*
X137208509Y-111685224D01*
X137108417Y-111835022D01*
X136981022Y-111962417D01*
X136831224Y-112062509D01*
X136664778Y-112131453D01*
X136488082Y-112166600D01*
X136307918Y-112166600D01*
X136131222Y-112131453D01*
X135964776Y-112062509D01*
X135814978Y-111962417D01*
X135687583Y-111835022D01*
X135587491Y-111685224D01*
X135518547Y-111518778D01*
X135483400Y-111342082D01*
X135483400Y-111161918D01*
X135518547Y-110985222D01*
X135587491Y-110818776D01*
X135687583Y-110668978D01*
X135814978Y-110541583D01*
X135964776Y-110441491D01*
X136131222Y-110372547D01*
X136307918Y-110337400D01*
X136488082Y-110337400D01*
X136664778Y-110372547D01*
G37*
G36*
X134772600Y-112166600D02*
G01*
X132943400Y-112166600D01*
X132943400Y-110337400D01*
X134772600Y-110337400D01*
X134772600Y-112166600D01*
G37*
G36*
X159016778Y-110372547D02*
G01*
X159183224Y-110441491D01*
X159333022Y-110541583D01*
X159460417Y-110668978D01*
X159560509Y-110818776D01*
X159629453Y-110985222D01*
X159664600Y-111161918D01*
X159664600Y-111342082D01*
X159629453Y-111518778D01*
X159560509Y-111685224D01*
X159460417Y-111835022D01*
X159333022Y-111962417D01*
X159183224Y-112062509D01*
X159016778Y-112131453D01*
X158840082Y-112166600D01*
X158659918Y-112166600D01*
X158483222Y-112131453D01*
X158316776Y-112062509D01*
X158166978Y-111962417D01*
X158039583Y-111835022D01*
X157939491Y-111685224D01*
X157870547Y-111518778D01*
X157835400Y-111342082D01*
X157835400Y-111161918D01*
X157870547Y-110985222D01*
X157939491Y-110818776D01*
X158039583Y-110668978D01*
X158166978Y-110541583D01*
X158316776Y-110441491D01*
X158483222Y-110372547D01*
X158659918Y-110337400D01*
X158840082Y-110337400D01*
X159016778Y-110372547D01*
G37*
G36*
X157124600Y-112166600D02*
G01*
X155295400Y-112166600D01*
X155295400Y-110337400D01*
X157124600Y-110337400D01*
X157124600Y-112166600D01*
G37*
G36*
X144284778Y-110372547D02*
G01*
X144451224Y-110441491D01*
X144601022Y-110541583D01*
X144728417Y-110668978D01*
X144828509Y-110818776D01*
X144897453Y-110985222D01*
X144932600Y-111161918D01*
X144932600Y-111342082D01*
X144897453Y-111518778D01*
X144828509Y-111685224D01*
X144728417Y-111835022D01*
X144601022Y-111962417D01*
X144451224Y-112062509D01*
X144284778Y-112131453D01*
X144108082Y-112166600D01*
X143927918Y-112166600D01*
X143751222Y-112131453D01*
X143584776Y-112062509D01*
X143434978Y-111962417D01*
X143307583Y-111835022D01*
X143207491Y-111685224D01*
X143138547Y-111518778D01*
X143103400Y-111342082D01*
X143103400Y-111161918D01*
X143138547Y-110985222D01*
X143207491Y-110818776D01*
X143307583Y-110668978D01*
X143434978Y-110541583D01*
X143584776Y-110441491D01*
X143751222Y-110372547D01*
X143927918Y-110337400D01*
X144108082Y-110337400D01*
X144284778Y-110372547D01*
G37*
G36*
X141744778Y-110372547D02*
G01*
X141911224Y-110441491D01*
X142061022Y-110541583D01*
X142188417Y-110668978D01*
X142288509Y-110818776D01*
X142357453Y-110985222D01*
X142392600Y-111161918D01*
X142392600Y-111342082D01*
X142357453Y-111518778D01*
X142288509Y-111685224D01*
X142188417Y-111835022D01*
X142061022Y-111962417D01*
X141911224Y-112062509D01*
X141744778Y-112131453D01*
X141568082Y-112166600D01*
X141387918Y-112166600D01*
X141211222Y-112131453D01*
X141044776Y-112062509D01*
X140894978Y-111962417D01*
X140767583Y-111835022D01*
X140667491Y-111685224D01*
X140598547Y-111518778D01*
X140563400Y-111342082D01*
X140563400Y-111161918D01*
X140598547Y-110985222D01*
X140667491Y-110818776D01*
X140767583Y-110668978D01*
X140894978Y-110541583D01*
X141044776Y-110441491D01*
X141211222Y-110372547D01*
X141387918Y-110337400D01*
X141568082Y-110337400D01*
X141744778Y-110372547D01*
G37*
G36*
X192246000Y-109610000D02*
G01*
X190444000Y-109610000D01*
X190444000Y-107808000D01*
X192246000Y-107808000D01*
X192246000Y-109610000D01*
G37*
G36*
X201618512Y-107812927D02*
G01*
X201767812Y-107842624D01*
X201931784Y-107910544D01*
X202079354Y-108009147D01*
X202204853Y-108134646D01*
X202303456Y-108282216D01*
X202371376Y-108446188D01*
X202406000Y-108620259D01*
X202406000Y-108797741D01*
X202371376Y-108971812D01*
X202303456Y-109135784D01*
X202204853Y-109283354D01*
X202079354Y-109408853D01*
X201931784Y-109507456D01*
X201767812Y-109575376D01*
X201618512Y-109605073D01*
X201593742Y-109610000D01*
X201416258Y-109610000D01*
X201391488Y-109605073D01*
X201242188Y-109575376D01*
X201078216Y-109507456D01*
X200930646Y-109408853D01*
X200805147Y-109283354D01*
X200706544Y-109135784D01*
X200638624Y-108971812D01*
X200604000Y-108797741D01*
X200604000Y-108620259D01*
X200638624Y-108446188D01*
X200706544Y-108282216D01*
X200805147Y-108134646D01*
X200930646Y-108009147D01*
X201078216Y-107910544D01*
X201242188Y-107842624D01*
X201391488Y-107812927D01*
X201416258Y-107808000D01*
X201593742Y-107808000D01*
X201618512Y-107812927D01*
G37*
G36*
X199078512Y-107812927D02*
G01*
X199227812Y-107842624D01*
X199391784Y-107910544D01*
X199539354Y-108009147D01*
X199664853Y-108134646D01*
X199763456Y-108282216D01*
X199831376Y-108446188D01*
X199866000Y-108620259D01*
X199866000Y-108797741D01*
X199831376Y-108971812D01*
X199763456Y-109135784D01*
X199664853Y-109283354D01*
X199539354Y-109408853D01*
X199391784Y-109507456D01*
X199227812Y-109575376D01*
X199078512Y-109605073D01*
X199053742Y-109610000D01*
X198876258Y-109610000D01*
X198851488Y-109605073D01*
X198702188Y-109575376D01*
X198538216Y-109507456D01*
X198390646Y-109408853D01*
X198265147Y-109283354D01*
X198166544Y-109135784D01*
X198098624Y-108971812D01*
X198064000Y-108797741D01*
X198064000Y-108620259D01*
X198098624Y-108446188D01*
X198166544Y-108282216D01*
X198265147Y-108134646D01*
X198390646Y-108009147D01*
X198538216Y-107910544D01*
X198702188Y-107842624D01*
X198851488Y-107812927D01*
X198876258Y-107808000D01*
X199053742Y-107808000D01*
X199078512Y-107812927D01*
G37*
G36*
X193998512Y-107812927D02*
G01*
X194147812Y-107842624D01*
X194311784Y-107910544D01*
X194459354Y-108009147D01*
X194584853Y-108134646D01*
X194683456Y-108282216D01*
X194751376Y-108446188D01*
X194786000Y-108620259D01*
X194786000Y-108797741D01*
X194751376Y-108971812D01*
X194683456Y-109135784D01*
X194584853Y-109283354D01*
X194459354Y-109408853D01*
X194311784Y-109507456D01*
X194147812Y-109575376D01*
X193998512Y-109605073D01*
X193973742Y-109610000D01*
X193796258Y-109610000D01*
X193771488Y-109605073D01*
X193622188Y-109575376D01*
X193458216Y-109507456D01*
X193310646Y-109408853D01*
X193185147Y-109283354D01*
X193086544Y-109135784D01*
X193018624Y-108971812D01*
X192984000Y-108797741D01*
X192984000Y-108620259D01*
X193018624Y-108446188D01*
X193086544Y-108282216D01*
X193185147Y-108134646D01*
X193310646Y-108009147D01*
X193458216Y-107910544D01*
X193622188Y-107842624D01*
X193771488Y-107812927D01*
X193796258Y-107808000D01*
X193973742Y-107808000D01*
X193998512Y-107812927D01*
G37*
G36*
X196538512Y-107812927D02*
G01*
X196687812Y-107842624D01*
X196851784Y-107910544D01*
X196999354Y-108009147D01*
X197124853Y-108134646D01*
X197223456Y-108282216D01*
X197291376Y-108446188D01*
X197326000Y-108620259D01*
X197326000Y-108797741D01*
X197291376Y-108971812D01*
X197223456Y-109135784D01*
X197124853Y-109283354D01*
X196999354Y-109408853D01*
X196851784Y-109507456D01*
X196687812Y-109575376D01*
X196538512Y-109605073D01*
X196513742Y-109610000D01*
X196336258Y-109610000D01*
X196311488Y-109605073D01*
X196162188Y-109575376D01*
X195998216Y-109507456D01*
X195850646Y-109408853D01*
X195725147Y-109283354D01*
X195626544Y-109135784D01*
X195558624Y-108971812D01*
X195524000Y-108797741D01*
X195524000Y-108620259D01*
X195558624Y-108446188D01*
X195626544Y-108282216D01*
X195725147Y-108134646D01*
X195850646Y-108009147D01*
X195998216Y-107910544D01*
X196162188Y-107842624D01*
X196311488Y-107812927D01*
X196336258Y-107808000D01*
X196513742Y-107808000D01*
X196538512Y-107812927D01*
G37*
G36*
X104251000Y-104221000D02*
G01*
X102449000Y-104221000D01*
X102449000Y-102419000D01*
X104251000Y-102419000D01*
X104251000Y-104221000D01*
G37*
G36*
X103463512Y-99883927D02*
G01*
X103612812Y-99913624D01*
X103776784Y-99981544D01*
X103924354Y-100080147D01*
X104049853Y-100205646D01*
X104148456Y-100353216D01*
X104216376Y-100517188D01*
X104251000Y-100691259D01*
X104251000Y-100868741D01*
X104216376Y-101042812D01*
X104148456Y-101206784D01*
X104049853Y-101354354D01*
X103924354Y-101479853D01*
X103776784Y-101578456D01*
X103612812Y-101646376D01*
X103463512Y-101676073D01*
X103438742Y-101681000D01*
X103261258Y-101681000D01*
X103236488Y-101676073D01*
X103087188Y-101646376D01*
X102923216Y-101578456D01*
X102775646Y-101479853D01*
X102650147Y-101354354D01*
X102551544Y-101206784D01*
X102483624Y-101042812D01*
X102449000Y-100868741D01*
X102449000Y-100691259D01*
X102483624Y-100517188D01*
X102551544Y-100353216D01*
X102650147Y-100205646D01*
X102775646Y-100080147D01*
X102923216Y-99981544D01*
X103087188Y-99913624D01*
X103236488Y-99883927D01*
X103261258Y-99879000D01*
X103438742Y-99879000D01*
X103463512Y-99883927D01*
G37*
G36*
X103463512Y-97343927D02*
G01*
X103612812Y-97373624D01*
X103776784Y-97441544D01*
X103924354Y-97540147D01*
X104049853Y-97665646D01*
X104148456Y-97813216D01*
X104216376Y-97977188D01*
X104251000Y-98151259D01*
X104251000Y-98328741D01*
X104216376Y-98502812D01*
X104148456Y-98666784D01*
X104049853Y-98814354D01*
X103924354Y-98939853D01*
X103776784Y-99038456D01*
X103612812Y-99106376D01*
X103463512Y-99136073D01*
X103438742Y-99141000D01*
X103261258Y-99141000D01*
X103236488Y-99136073D01*
X103087188Y-99106376D01*
X102923216Y-99038456D01*
X102775646Y-98939853D01*
X102650147Y-98814354D01*
X102551544Y-98666784D01*
X102483624Y-98502812D01*
X102449000Y-98328741D01*
X102449000Y-98151259D01*
X102483624Y-97977188D01*
X102551544Y-97813216D01*
X102650147Y-97665646D01*
X102775646Y-97540147D01*
X102923216Y-97441544D01*
X103087188Y-97373624D01*
X103236488Y-97343927D01*
X103261258Y-97339000D01*
X103438742Y-97339000D01*
X103463512Y-97343927D01*
G37*
G36*
X168993916Y-95190334D02*
G01*
X169102492Y-95223271D01*
X169102495Y-95223272D01*
X169138601Y-95242571D01*
X169202557Y-95276756D01*
X169290264Y-95348736D01*
X169362244Y-95436443D01*
X169396429Y-95500399D01*
X169415728Y-95536505D01*
X169415729Y-95536508D01*
X169448666Y-95645084D01*
X169459787Y-95758000D01*
X169448666Y-95870916D01*
X169420789Y-95962811D01*
X169415728Y-95979495D01*
X169396429Y-96015601D01*
X169362244Y-96079557D01*
X169290264Y-96167264D01*
X169202557Y-96239244D01*
X169121141Y-96282761D01*
X169100766Y-96296375D01*
X169083439Y-96313702D01*
X169069826Y-96334076D01*
X169060448Y-96356715D01*
X169055668Y-96380748D01*
X169055668Y-96405252D01*
X169060448Y-96429285D01*
X169069826Y-96451924D01*
X169083440Y-96472299D01*
X169100767Y-96489626D01*
X169121141Y-96503239D01*
X169202557Y-96546756D01*
X169290264Y-96618736D01*
X169362244Y-96706443D01*
X169396429Y-96770399D01*
X169415728Y-96806505D01*
X169415729Y-96806508D01*
X169448666Y-96915084D01*
X169459787Y-97028000D01*
X169448666Y-97140916D01*
X169415729Y-97249492D01*
X169415728Y-97249495D01*
X169396429Y-97285601D01*
X169362244Y-97349557D01*
X169290264Y-97437264D01*
X169213354Y-97500383D01*
X169196035Y-97517702D01*
X169182421Y-97538077D01*
X169173043Y-97560716D01*
X169168263Y-97584749D01*
X169168263Y-97609253D01*
X169173043Y-97633286D01*
X169182421Y-97655925D01*
X169196034Y-97676299D01*
X169213361Y-97693626D01*
X169233736Y-97707240D01*
X169256375Y-97716618D01*
X169280408Y-97721398D01*
X169292660Y-97722000D01*
X169457000Y-97722000D01*
X169457000Y-98874000D01*
X167855000Y-98874000D01*
X167855000Y-97722000D01*
X168019340Y-97722000D01*
X168043726Y-97719598D01*
X168067175Y-97712485D01*
X168088786Y-97700934D01*
X168107728Y-97685389D01*
X168123273Y-97666447D01*
X168134824Y-97644836D01*
X168141937Y-97621387D01*
X168144339Y-97597001D01*
X168141937Y-97572615D01*
X168134824Y-97549166D01*
X168123273Y-97527555D01*
X168107728Y-97508613D01*
X168098655Y-97500391D01*
X168021736Y-97437264D01*
X167949756Y-97349557D01*
X167915571Y-97285601D01*
X167896272Y-97249495D01*
X167896271Y-97249492D01*
X167863334Y-97140916D01*
X167852213Y-97028000D01*
X167863334Y-96915084D01*
X167896271Y-96806508D01*
X167896272Y-96806505D01*
X167915571Y-96770399D01*
X167949756Y-96706443D01*
X168021736Y-96618736D01*
X168109443Y-96546756D01*
X168190859Y-96503239D01*
X168211234Y-96489625D01*
X168228561Y-96472298D01*
X168242174Y-96451924D01*
X168251552Y-96429285D01*
X168256332Y-96405252D01*
X168256332Y-96380748D01*
X168251552Y-96356715D01*
X168242174Y-96334076D01*
X168228560Y-96313701D01*
X168211233Y-96296374D01*
X168190859Y-96282761D01*
X168109443Y-96239244D01*
X168021736Y-96167264D01*
X167949756Y-96079557D01*
X167915571Y-96015601D01*
X167896272Y-95979495D01*
X167891211Y-95962811D01*
X167863334Y-95870916D01*
X167852213Y-95758000D01*
X167863334Y-95645084D01*
X167896271Y-95536508D01*
X167896272Y-95536505D01*
X167915571Y-95500399D01*
X167949756Y-95436443D01*
X168021736Y-95348736D01*
X168109443Y-95276756D01*
X168173399Y-95242571D01*
X168209505Y-95223272D01*
X168209508Y-95223271D01*
X168318084Y-95190334D01*
X168402702Y-95182000D01*
X168909298Y-95182000D01*
X168993916Y-95190334D01*
G37*
G36*
X103463512Y-94803927D02*
G01*
X103612812Y-94833624D01*
X103776784Y-94901544D01*
X103924354Y-95000147D01*
X104049853Y-95125646D01*
X104148456Y-95273216D01*
X104216376Y-95437188D01*
X104251000Y-95611259D01*
X104251000Y-95788741D01*
X104216376Y-95962812D01*
X104148456Y-96126784D01*
X104049853Y-96274354D01*
X103924354Y-96399853D01*
X103776784Y-96498456D01*
X103612812Y-96566376D01*
X103463512Y-96596073D01*
X103438742Y-96601000D01*
X103261258Y-96601000D01*
X103236488Y-96596073D01*
X103087188Y-96566376D01*
X102923216Y-96498456D01*
X102775646Y-96399853D01*
X102650147Y-96274354D01*
X102551544Y-96126784D01*
X102483624Y-95962812D01*
X102449000Y-95788741D01*
X102449000Y-95611259D01*
X102483624Y-95437188D01*
X102551544Y-95273216D01*
X102650147Y-95125646D01*
X102775646Y-95000147D01*
X102923216Y-94901544D01*
X103087188Y-94833624D01*
X103236488Y-94803927D01*
X103261258Y-94799000D01*
X103438742Y-94799000D01*
X103463512Y-94803927D01*
G37*
G36*
X139948228Y-92399703D02*
G01*
X140103100Y-92463853D01*
X140242481Y-92556985D01*
X140361015Y-92675519D01*
X140454147Y-92814900D01*
X140518297Y-92969772D01*
X140551000Y-93134184D01*
X140551000Y-93301816D01*
X140518297Y-93466228D01*
X140454147Y-93621100D01*
X140361015Y-93760481D01*
X140242481Y-93879015D01*
X140103100Y-93972147D01*
X139948228Y-94036297D01*
X139783816Y-94069000D01*
X139616184Y-94069000D01*
X139451772Y-94036297D01*
X139296900Y-93972147D01*
X139157519Y-93879015D01*
X139038985Y-93760481D01*
X138945853Y-93621100D01*
X138881703Y-93466228D01*
X138849000Y-93301816D01*
X138849000Y-93134184D01*
X138881703Y-92969772D01*
X138945853Y-92814900D01*
X139038985Y-92675519D01*
X139157519Y-92556985D01*
X139296900Y-92463853D01*
X139451772Y-92399703D01*
X139616184Y-92367000D01*
X139783816Y-92367000D01*
X139948228Y-92399703D01*
G37*
G36*
X103463512Y-92263927D02*
G01*
X103612812Y-92293624D01*
X103776784Y-92361544D01*
X103924354Y-92460147D01*
X104049853Y-92585646D01*
X104148456Y-92733216D01*
X104216376Y-92897188D01*
X104251000Y-93071259D01*
X104251000Y-93248741D01*
X104216376Y-93422812D01*
X104148456Y-93586784D01*
X104049853Y-93734354D01*
X103924354Y-93859853D01*
X103776784Y-93958456D01*
X103612812Y-94026376D01*
X103463512Y-94056073D01*
X103438742Y-94061000D01*
X103261258Y-94061000D01*
X103236488Y-94056073D01*
X103087188Y-94026376D01*
X102923216Y-93958456D01*
X102775646Y-93859853D01*
X102650147Y-93734354D01*
X102551544Y-93586784D01*
X102483624Y-93422812D01*
X102449000Y-93248741D01*
X102449000Y-93071259D01*
X102483624Y-92897188D01*
X102551544Y-92733216D01*
X102650147Y-92585646D01*
X102775646Y-92460147D01*
X102923216Y-92361544D01*
X103087188Y-92293624D01*
X103236488Y-92263927D01*
X103261258Y-92259000D01*
X103438742Y-92259000D01*
X103463512Y-92263927D01*
G37*
G36*
X115720512Y-91935927D02*
G01*
X115869812Y-91965624D01*
X116033784Y-92033544D01*
X116181354Y-92132147D01*
X116306853Y-92257646D01*
X116405456Y-92405216D01*
X116473376Y-92569188D01*
X116508000Y-92743259D01*
X116508000Y-92920741D01*
X116473376Y-93094812D01*
X116405456Y-93258784D01*
X116306853Y-93406354D01*
X116181354Y-93531853D01*
X116033784Y-93630456D01*
X115869812Y-93698376D01*
X115720512Y-93728073D01*
X115695742Y-93733000D01*
X115518258Y-93733000D01*
X115493488Y-93728073D01*
X115344188Y-93698376D01*
X115180216Y-93630456D01*
X115032646Y-93531853D01*
X114907147Y-93406354D01*
X114808544Y-93258784D01*
X114740624Y-93094812D01*
X114706000Y-92920741D01*
X114706000Y-92743259D01*
X114740624Y-92569188D01*
X114808544Y-92405216D01*
X114907147Y-92257646D01*
X115032646Y-92132147D01*
X115180216Y-92033544D01*
X115344188Y-91965624D01*
X115493488Y-91935927D01*
X115518258Y-91931000D01*
X115695742Y-91931000D01*
X115720512Y-91935927D01*
G37*
G36*
X111428000Y-93733000D02*
G01*
X109626000Y-93733000D01*
X109626000Y-91931000D01*
X111428000Y-91931000D01*
X111428000Y-93733000D01*
G37*
G36*
X118260512Y-91935927D02*
G01*
X118409812Y-91965624D01*
X118573784Y-92033544D01*
X118721354Y-92132147D01*
X118846853Y-92257646D01*
X118945456Y-92405216D01*
X119013376Y-92569188D01*
X119048000Y-92743259D01*
X119048000Y-92920741D01*
X119013376Y-93094812D01*
X118945456Y-93258784D01*
X118846853Y-93406354D01*
X118721354Y-93531853D01*
X118573784Y-93630456D01*
X118409812Y-93698376D01*
X118260512Y-93728073D01*
X118235742Y-93733000D01*
X118058258Y-93733000D01*
X118033488Y-93728073D01*
X117884188Y-93698376D01*
X117720216Y-93630456D01*
X117572646Y-93531853D01*
X117447147Y-93406354D01*
X117348544Y-93258784D01*
X117280624Y-93094812D01*
X117246000Y-92920741D01*
X117246000Y-92743259D01*
X117280624Y-92569188D01*
X117348544Y-92405216D01*
X117447147Y-92257646D01*
X117572646Y-92132147D01*
X117720216Y-92033544D01*
X117884188Y-91965624D01*
X118033488Y-91935927D01*
X118058258Y-91931000D01*
X118235742Y-91931000D01*
X118260512Y-91935927D01*
G37*
G36*
X120800512Y-91935927D02*
G01*
X120949812Y-91965624D01*
X121113784Y-92033544D01*
X121261354Y-92132147D01*
X121386853Y-92257646D01*
X121485456Y-92405216D01*
X121553376Y-92569188D01*
X121588000Y-92743259D01*
X121588000Y-92920741D01*
X121553376Y-93094812D01*
X121485456Y-93258784D01*
X121386853Y-93406354D01*
X121261354Y-93531853D01*
X121113784Y-93630456D01*
X120949812Y-93698376D01*
X120800512Y-93728073D01*
X120775742Y-93733000D01*
X120598258Y-93733000D01*
X120573488Y-93728073D01*
X120424188Y-93698376D01*
X120260216Y-93630456D01*
X120112646Y-93531853D01*
X119987147Y-93406354D01*
X119888544Y-93258784D01*
X119820624Y-93094812D01*
X119786000Y-92920741D01*
X119786000Y-92743259D01*
X119820624Y-92569188D01*
X119888544Y-92405216D01*
X119987147Y-92257646D01*
X120112646Y-92132147D01*
X120260216Y-92033544D01*
X120424188Y-91965624D01*
X120573488Y-91935927D01*
X120598258Y-91931000D01*
X120775742Y-91931000D01*
X120800512Y-91935927D01*
G37*
G36*
X123340512Y-91935927D02*
G01*
X123489812Y-91965624D01*
X123653784Y-92033544D01*
X123801354Y-92132147D01*
X123926853Y-92257646D01*
X124025456Y-92405216D01*
X124093376Y-92569188D01*
X124128000Y-92743259D01*
X124128000Y-92920741D01*
X124093376Y-93094812D01*
X124025456Y-93258784D01*
X123926853Y-93406354D01*
X123801354Y-93531853D01*
X123653784Y-93630456D01*
X123489812Y-93698376D01*
X123340512Y-93728073D01*
X123315742Y-93733000D01*
X123138258Y-93733000D01*
X123113488Y-93728073D01*
X122964188Y-93698376D01*
X122800216Y-93630456D01*
X122652646Y-93531853D01*
X122527147Y-93406354D01*
X122428544Y-93258784D01*
X122360624Y-93094812D01*
X122326000Y-92920741D01*
X122326000Y-92743259D01*
X122360624Y-92569188D01*
X122428544Y-92405216D01*
X122527147Y-92257646D01*
X122652646Y-92132147D01*
X122800216Y-92033544D01*
X122964188Y-91965624D01*
X123113488Y-91935927D01*
X123138258Y-91931000D01*
X123315742Y-91931000D01*
X123340512Y-91935927D01*
G37*
G36*
X125880512Y-91935927D02*
G01*
X126029812Y-91965624D01*
X126193784Y-92033544D01*
X126341354Y-92132147D01*
X126466853Y-92257646D01*
X126565456Y-92405216D01*
X126633376Y-92569188D01*
X126668000Y-92743259D01*
X126668000Y-92920741D01*
X126633376Y-93094812D01*
X126565456Y-93258784D01*
X126466853Y-93406354D01*
X126341354Y-93531853D01*
X126193784Y-93630456D01*
X126029812Y-93698376D01*
X125880512Y-93728073D01*
X125855742Y-93733000D01*
X125678258Y-93733000D01*
X125653488Y-93728073D01*
X125504188Y-93698376D01*
X125340216Y-93630456D01*
X125192646Y-93531853D01*
X125067147Y-93406354D01*
X124968544Y-93258784D01*
X124900624Y-93094812D01*
X124866000Y-92920741D01*
X124866000Y-92743259D01*
X124900624Y-92569188D01*
X124968544Y-92405216D01*
X125067147Y-92257646D01*
X125192646Y-92132147D01*
X125340216Y-92033544D01*
X125504188Y-91965624D01*
X125653488Y-91935927D01*
X125678258Y-91931000D01*
X125855742Y-91931000D01*
X125880512Y-91935927D01*
G37*
G36*
X113180512Y-91935927D02*
G01*
X113329812Y-91965624D01*
X113493784Y-92033544D01*
X113641354Y-92132147D01*
X113766853Y-92257646D01*
X113865456Y-92405216D01*
X113933376Y-92569188D01*
X113968000Y-92743259D01*
X113968000Y-92920741D01*
X113933376Y-93094812D01*
X113865456Y-93258784D01*
X113766853Y-93406354D01*
X113641354Y-93531853D01*
X113493784Y-93630456D01*
X113329812Y-93698376D01*
X113180512Y-93728073D01*
X113155742Y-93733000D01*
X112978258Y-93733000D01*
X112953488Y-93728073D01*
X112804188Y-93698376D01*
X112640216Y-93630456D01*
X112492646Y-93531853D01*
X112367147Y-93406354D01*
X112268544Y-93258784D01*
X112200624Y-93094812D01*
X112166000Y-92920741D01*
X112166000Y-92743259D01*
X112200624Y-92569188D01*
X112268544Y-92405216D01*
X112367147Y-92257646D01*
X112492646Y-92132147D01*
X112640216Y-92033544D01*
X112804188Y-91965624D01*
X112953488Y-91935927D01*
X112978258Y-91931000D01*
X113155742Y-91931000D01*
X113180512Y-91935927D01*
G37*
G36*
X168904228Y-91891703D02*
G01*
X169059100Y-91955853D01*
X169198481Y-92048985D01*
X169317015Y-92167519D01*
X169410147Y-92306900D01*
X169474297Y-92461772D01*
X169507000Y-92626184D01*
X169507000Y-92793816D01*
X169474297Y-92958228D01*
X169410147Y-93113100D01*
X169317015Y-93252481D01*
X169198481Y-93371015D01*
X169059100Y-93464147D01*
X168904228Y-93528297D01*
X168739816Y-93561000D01*
X168572184Y-93561000D01*
X168407772Y-93528297D01*
X168252900Y-93464147D01*
X168113519Y-93371015D01*
X167994985Y-93252481D01*
X167901853Y-93113100D01*
X167837703Y-92958228D01*
X167805000Y-92793816D01*
X167805000Y-92626184D01*
X167837703Y-92461772D01*
X167901853Y-92306900D01*
X167994985Y-92167519D01*
X168113519Y-92048985D01*
X168252900Y-91955853D01*
X168407772Y-91891703D01*
X168572184Y-91859000D01*
X168739816Y-91859000D01*
X168904228Y-91891703D01*
G37*
G36*
X160072564Y-91171389D02*
G01*
X160263833Y-91250615D01*
X160263835Y-91250616D01*
X160367454Y-91319852D01*
X160435973Y-91365635D01*
X160582365Y-91512027D01*
X160697385Y-91684167D01*
X160776611Y-91875436D01*
X160817000Y-92078484D01*
X160817000Y-92285516D01*
X160776611Y-92488564D01*
X160699172Y-92675519D01*
X160697384Y-92679835D01*
X160582365Y-92851973D01*
X160435973Y-92998365D01*
X160263835Y-93113384D01*
X160263834Y-93113385D01*
X160263833Y-93113385D01*
X160072564Y-93192611D01*
X159869516Y-93233000D01*
X159662484Y-93233000D01*
X159459436Y-93192611D01*
X159268167Y-93113385D01*
X159268166Y-93113385D01*
X159268165Y-93113384D01*
X159096027Y-92998365D01*
X158949635Y-92851973D01*
X158834616Y-92679835D01*
X158832828Y-92675519D01*
X158755389Y-92488564D01*
X158715000Y-92285516D01*
X158715000Y-92078484D01*
X158755389Y-91875436D01*
X158834615Y-91684167D01*
X158949635Y-91512027D01*
X159096027Y-91365635D01*
X159164546Y-91319852D01*
X159268165Y-91250616D01*
X159268167Y-91250615D01*
X159459436Y-91171389D01*
X159662484Y-91131000D01*
X159869516Y-91131000D01*
X160072564Y-91171389D01*
G37*
G36*
X103463512Y-89723927D02*
G01*
X103612812Y-89753624D01*
X103776784Y-89821544D01*
X103924354Y-89920147D01*
X104049853Y-90045646D01*
X104148456Y-90193216D01*
X104216376Y-90357188D01*
X104251000Y-90531259D01*
X104251000Y-90708741D01*
X104216376Y-90882812D01*
X104148456Y-91046784D01*
X104049853Y-91194354D01*
X103924354Y-91319853D01*
X103776784Y-91418456D01*
X103612812Y-91486376D01*
X103483852Y-91512027D01*
X103438742Y-91521000D01*
X103261258Y-91521000D01*
X103216148Y-91512027D01*
X103087188Y-91486376D01*
X102923216Y-91418456D01*
X102775646Y-91319853D01*
X102650147Y-91194354D01*
X102551544Y-91046784D01*
X102483624Y-90882812D01*
X102449000Y-90708741D01*
X102449000Y-90531259D01*
X102483624Y-90357188D01*
X102551544Y-90193216D01*
X102650147Y-90045646D01*
X102775646Y-89920147D01*
X102923216Y-89821544D01*
X103087188Y-89753624D01*
X103236488Y-89723927D01*
X103261258Y-89719000D01*
X103438742Y-89719000D01*
X103463512Y-89723927D01*
G37*
G36*
X103463512Y-87183927D02*
G01*
X103612812Y-87213624D01*
X103776784Y-87281544D01*
X103924354Y-87380147D01*
X104049853Y-87505646D01*
X104148456Y-87653216D01*
X104216376Y-87817188D01*
X104251000Y-87991259D01*
X104251000Y-88168741D01*
X104216376Y-88342812D01*
X104148456Y-88506784D01*
X104049853Y-88654354D01*
X103924354Y-88779853D01*
X103776784Y-88878456D01*
X103612812Y-88946376D01*
X103463512Y-88976073D01*
X103438742Y-88981000D01*
X103261258Y-88981000D01*
X103236488Y-88976073D01*
X103087188Y-88946376D01*
X102923216Y-88878456D01*
X102775646Y-88779853D01*
X102650147Y-88654354D01*
X102551544Y-88506784D01*
X102483624Y-88342812D01*
X102449000Y-88168741D01*
X102449000Y-87991259D01*
X102483624Y-87817188D01*
X102551544Y-87653216D01*
X102650147Y-87505646D01*
X102775646Y-87380147D01*
X102923216Y-87281544D01*
X103087188Y-87213624D01*
X103236488Y-87183927D01*
X103261258Y-87179000D01*
X103438742Y-87179000D01*
X103463512Y-87183927D01*
G37*
G36*
X139948228Y-84779703D02*
G01*
X140103100Y-84843853D01*
X140242481Y-84936985D01*
X140361015Y-85055519D01*
X140454147Y-85194900D01*
X140518297Y-85349772D01*
X140551000Y-85514184D01*
X140551000Y-85681816D01*
X140518297Y-85846228D01*
X140454147Y-86001100D01*
X140361015Y-86140481D01*
X140242481Y-86259015D01*
X140103100Y-86352147D01*
X139948228Y-86416297D01*
X139783816Y-86449000D01*
X139616184Y-86449000D01*
X139451772Y-86416297D01*
X139296900Y-86352147D01*
X139157519Y-86259015D01*
X139038985Y-86140481D01*
X138945853Y-86001100D01*
X138881703Y-85846228D01*
X138849000Y-85681816D01*
X138849000Y-85514184D01*
X138881703Y-85349772D01*
X138945853Y-85194900D01*
X139038985Y-85055519D01*
X139157519Y-84936985D01*
X139296900Y-84843853D01*
X139451772Y-84779703D01*
X139616184Y-84747000D01*
X139783816Y-84747000D01*
X139948228Y-84779703D01*
G37*
G36*
X168904228Y-84271703D02*
G01*
X169059100Y-84335853D01*
X169198481Y-84428985D01*
X169317015Y-84547519D01*
X169410147Y-84686900D01*
X169474297Y-84841772D01*
X169507000Y-85006184D01*
X169507000Y-85173816D01*
X169474297Y-85338228D01*
X169410147Y-85493100D01*
X169317015Y-85632481D01*
X169198481Y-85751015D01*
X169059100Y-85844147D01*
X168904228Y-85908297D01*
X168739816Y-85941000D01*
X168572184Y-85941000D01*
X168407772Y-85908297D01*
X168252900Y-85844147D01*
X168113519Y-85751015D01*
X167994985Y-85632481D01*
X167901853Y-85493100D01*
X167837703Y-85338228D01*
X167805000Y-85173816D01*
X167805000Y-85006184D01*
X167837703Y-84841772D01*
X167901853Y-84686900D01*
X167994985Y-84547519D01*
X168113519Y-84428985D01*
X168252900Y-84335853D01*
X168407772Y-84271703D01*
X168572184Y-84239000D01*
X168739816Y-84239000D01*
X168904228Y-84271703D01*
G37*
G36*
X160817000Y-85633000D02*
G01*
X158715000Y-85633000D01*
X158715000Y-83531000D01*
X160817000Y-83531000D01*
X160817000Y-85633000D01*
G37*
G36*
X127343000Y-84163000D02*
G01*
X125641000Y-84163000D01*
X125641000Y-82461000D01*
X127343000Y-82461000D01*
X127343000Y-84163000D01*
G37*
G36*
X134360228Y-82493703D02*
G01*
X134515100Y-82557853D01*
X134654481Y-82650985D01*
X134773015Y-82769519D01*
X134866147Y-82908900D01*
X134930297Y-83063772D01*
X134963000Y-83228184D01*
X134963000Y-83395816D01*
X134930297Y-83560228D01*
X134866147Y-83715100D01*
X134773015Y-83854481D01*
X134654481Y-83973015D01*
X134515100Y-84066147D01*
X134360228Y-84130297D01*
X134195816Y-84163000D01*
X134028184Y-84163000D01*
X133863772Y-84130297D01*
X133708900Y-84066147D01*
X133569519Y-83973015D01*
X133450985Y-83854481D01*
X133357853Y-83715100D01*
X133293703Y-83560228D01*
X133261000Y-83395816D01*
X133261000Y-83228184D01*
X133293703Y-83063772D01*
X133357853Y-82908900D01*
X133450985Y-82769519D01*
X133569519Y-82650985D01*
X133708900Y-82557853D01*
X133863772Y-82493703D01*
X134028184Y-82461000D01*
X134195816Y-82461000D01*
X134360228Y-82493703D01*
G37*
G36*
X178825256Y-76691298D02*
G01*
X178931579Y-76712447D01*
X179232042Y-76836903D01*
X179502451Y-77017585D01*
X179732415Y-77247549D01*
X179913097Y-77517958D01*
X180037553Y-77818421D01*
X180101000Y-78137391D01*
X180101000Y-78462609D01*
X180037553Y-78781579D01*
X179913097Y-79082042D01*
X179732415Y-79352451D01*
X179502451Y-79582415D01*
X179232042Y-79763097D01*
X178931579Y-79887553D01*
X178825256Y-79908702D01*
X178612611Y-79951000D01*
X178287389Y-79951000D01*
X178074744Y-79908702D01*
X177968421Y-79887553D01*
X177667958Y-79763097D01*
X177397549Y-79582415D01*
X177167585Y-79352451D01*
X176986903Y-79082042D01*
X176862447Y-78781579D01*
X176799000Y-78462609D01*
X176799000Y-78137391D01*
X176862447Y-77818421D01*
X176986903Y-77517958D01*
X177167585Y-77247549D01*
X177397549Y-77017585D01*
X177667958Y-76836903D01*
X177968421Y-76712447D01*
X178074744Y-76691298D01*
X178287389Y-76649000D01*
X178612611Y-76649000D01*
X178825256Y-76691298D01*
G37*
G36*
X214825256Y-76691298D02*
G01*
X214931579Y-76712447D01*
X215232042Y-76836903D01*
X215502451Y-77017585D01*
X215732415Y-77247549D01*
X215913097Y-77517958D01*
X216037553Y-77818421D01*
X216101000Y-78137391D01*
X216101000Y-78462609D01*
X216037553Y-78781579D01*
X215913097Y-79082042D01*
X215732415Y-79352451D01*
X215502451Y-79582415D01*
X215232042Y-79763097D01*
X214931579Y-79887553D01*
X214825256Y-79908702D01*
X214612611Y-79951000D01*
X214287389Y-79951000D01*
X214074744Y-79908702D01*
X213968421Y-79887553D01*
X213667958Y-79763097D01*
X213397549Y-79582415D01*
X213167585Y-79352451D01*
X212986903Y-79082042D01*
X212862447Y-78781579D01*
X212799000Y-78462609D01*
X212799000Y-78137391D01*
X212862447Y-77818421D01*
X212986903Y-77517958D01*
X213167585Y-77247549D01*
X213397549Y-77017585D01*
X213667958Y-76836903D01*
X213968421Y-76712447D01*
X214074744Y-76691298D01*
X214287389Y-76649000D01*
X214612611Y-76649000D01*
X214825256Y-76691298D01*
G37*
G36*
X95625256Y-76691298D02*
G01*
X95731579Y-76712447D01*
X96032042Y-76836903D01*
X96302451Y-77017585D01*
X96532415Y-77247549D01*
X96713097Y-77517958D01*
X96837553Y-77818421D01*
X96901000Y-78137391D01*
X96901000Y-78462609D01*
X96837553Y-78781579D01*
X96713097Y-79082042D01*
X96532415Y-79352451D01*
X96302451Y-79582415D01*
X96032042Y-79763097D01*
X95731579Y-79887553D01*
X95625256Y-79908702D01*
X95412611Y-79951000D01*
X95087389Y-79951000D01*
X94874744Y-79908702D01*
X94768421Y-79887553D01*
X94467958Y-79763097D01*
X94197549Y-79582415D01*
X93967585Y-79352451D01*
X93786903Y-79082042D01*
X93662447Y-78781579D01*
X93599000Y-78462609D01*
X93599000Y-78137391D01*
X93662447Y-77818421D01*
X93786903Y-77517958D01*
X93967585Y-77247549D01*
X94197549Y-77017585D01*
X94467958Y-76836903D01*
X94768421Y-76712447D01*
X94874744Y-76691298D01*
X95087389Y-76649000D01*
X95412611Y-76649000D01*
X95625256Y-76691298D01*
G37*
M02*
