G04 #@! TF.GenerationSoftware,KiCad,Pcbnew,5.0.2-bee76a0~70~ubuntu18.04.1*
G04 #@! TF.CreationDate,2019-01-15T17:32:11-08:00*
G04 #@! TF.ProjectId,Marlin_UIBOX,4d61726c-696e-45f5-9549-424f582e6b69,rev?*
G04 #@! TF.SameCoordinates,PX55c0260PY70276d0*
G04 #@! TF.FileFunction,Copper,L2,Bot*
G04 #@! TF.FilePolarity,Positive*
%FSLAX46Y46*%
G04 Gerber Fmt 4.6, Leading zero omitted, Abs format (unit mm)*
G04 Created by KiCad (PCBNEW 5.0.2-bee76a0~70~ubuntu18.04.1) date Tue 15 Jan 2019 05:32:11 PM PST*
%MOMM*%
%LPD*%
G01*
G04 APERTURE LIST*
G04 #@! TA.AperFunction,ComponentPad*
%ADD10C,5.500000*%
G04 #@! TD*
G04 #@! TA.AperFunction,ComponentPad*
%ADD11R,1.727200X1.727200*%
G04 #@! TD*
G04 #@! TA.AperFunction,ComponentPad*
%ADD12O,1.727200X1.727200*%
G04 #@! TD*
G04 #@! TA.AperFunction,ComponentPad*
%ADD13R,1.700000X1.700000*%
G04 #@! TD*
G04 #@! TA.AperFunction,ComponentPad*
%ADD14O,1.700000X1.700000*%
G04 #@! TD*
G04 #@! TA.AperFunction,ComponentPad*
%ADD15R,1.600000X1.600000*%
G04 #@! TD*
G04 #@! TA.AperFunction,ComponentPad*
%ADD16O,1.600000X1.600000*%
G04 #@! TD*
G04 #@! TA.AperFunction,ComponentPad*
%ADD17R,2.000000X2.000000*%
G04 #@! TD*
G04 #@! TA.AperFunction,ComponentPad*
%ADD18C,2.000000*%
G04 #@! TD*
G04 #@! TA.AperFunction,ComponentPad*
%ADD19O,1.500000X1.050000*%
G04 #@! TD*
G04 #@! TA.AperFunction,ComponentPad*
%ADD20R,1.500000X1.050000*%
G04 #@! TD*
G04 #@! TA.AperFunction,ComponentPad*
%ADD21C,1.600000*%
G04 #@! TD*
G04 #@! TA.AperFunction,Conductor*
%ADD22C,0.250000*%
G04 #@! TD*
G04 #@! TA.AperFunction,Conductor*
%ADD23C,0.400000*%
G04 #@! TD*
G04 #@! TA.AperFunction,Conductor*
%ADD24C,0.254000*%
G04 #@! TD*
G04 APERTURE END LIST*
D10*
G04 #@! TO.P,REF\002A\002A,1*
G04 #@! TO.N,N/C*
X124534000Y3302000D03*
G04 #@! TD*
G04 #@! TO.P,REF\002A\002A,1*
G04 #@! TO.N,N/C*
X124534000Y39302000D03*
G04 #@! TD*
G04 #@! TO.P,REF\002A\002A,1*
G04 #@! TO.N,N/C*
X88534000Y39302000D03*
G04 #@! TD*
G04 #@! TO.P,REF\002A\002A,1*
G04 #@! TO.N,N/C*
X88534000Y3302000D03*
G04 #@! TD*
G04 #@! TO.P,REF\002A\002A,1*
G04 #@! TO.N,N/C*
X5334000Y3302000D03*
G04 #@! TD*
G04 #@! TO.P,REF\002A\002A,1*
G04 #@! TO.N,N/C*
X5334000Y39302000D03*
G04 #@! TD*
D11*
G04 #@! TO.P,J1,1*
G04 #@! TO.N,VCC*
X41607000Y6223000D03*
D12*
G04 #@! TO.P,J1,2*
G04 #@! TO.N,GND*
X41607000Y3683000D03*
G04 #@! TO.P,J1,3*
G04 #@! TO.N,Net-(J1-Pad3)*
X44147000Y6223000D03*
G04 #@! TO.P,J1,4*
G04 #@! TO.N,/LCD_DC*
X44147000Y3683000D03*
G04 #@! TO.P,J1,5*
G04 #@! TO.N,/LCD_CS*
X46687000Y6223000D03*
G04 #@! TO.P,J1,6*
G04 #@! TO.N,Net-(J1-Pad6)*
X46687000Y3683000D03*
G04 #@! TO.P,J1,7*
G04 #@! TO.N,/LCD_RES*
X49227000Y6223000D03*
G04 #@! TO.P,J1,8*
G04 #@! TO.N,Net-(J1-Pad8)*
X49227000Y3683000D03*
G04 #@! TO.P,J1,9*
G04 #@! TO.N,/BT_SW*
X51767000Y6223000D03*
G04 #@! TO.P,J1,10*
G04 #@! TO.N,/BEEPER*
X51767000Y3683000D03*
G04 #@! TD*
G04 #@! TO.P,J2,10*
G04 #@! TO.N,/MISO*
X77407000Y3810000D03*
G04 #@! TO.P,J2,9*
G04 #@! TO.N,/SCK*
X77407000Y6350000D03*
G04 #@! TO.P,J2,8*
G04 #@! TO.N,/BT_EN2*
X74867000Y3810000D03*
G04 #@! TO.P,J2,7*
G04 #@! TO.N,/SD_SS*
X74867000Y6350000D03*
G04 #@! TO.P,J2,6*
G04 #@! TO.N,/BT_EN1*
X72327000Y3810000D03*
G04 #@! TO.P,J2,5*
G04 #@! TO.N,/MOSI*
X72327000Y6350000D03*
G04 #@! TO.P,J2,4*
G04 #@! TO.N,/SD_DET*
X69787000Y3810000D03*
G04 #@! TO.P,J2,3*
G04 #@! TO.N,Net-(J2-Pad3)*
X69787000Y6350000D03*
G04 #@! TO.P,J2,2*
G04 #@! TO.N,GND*
X67247000Y3810000D03*
D11*
G04 #@! TO.P,J2,1*
G04 #@! TO.N,Net-(J2-Pad1)*
X67247000Y6350000D03*
G04 #@! TD*
D13*
G04 #@! TO.P,J4,1*
G04 #@! TO.N,GND*
X20611000Y24770000D03*
D14*
G04 #@! TO.P,J4,2*
G04 #@! TO.N,VCC*
X23151000Y24770000D03*
G04 #@! TO.P,J4,3*
G04 #@! TO.N,/MISO*
X25691000Y24770000D03*
G04 #@! TO.P,J4,4*
G04 #@! TO.N,/MOSI*
X28231000Y24770000D03*
G04 #@! TO.P,J4,5*
G04 #@! TO.N,/SCK*
X30771000Y24770000D03*
G04 #@! TO.P,J4,6*
G04 #@! TO.N,/SD_SS*
X33311000Y24770000D03*
G04 #@! TO.P,J4,7*
G04 #@! TO.N,/SD_DET*
X35851000Y24770000D03*
G04 #@! TD*
D15*
G04 #@! TO.P,D1,1*
G04 #@! TO.N,VCC*
X36576000Y34290000D03*
D16*
G04 #@! TO.P,D1,2*
G04 #@! TO.N,Net-(D1-Pad2)*
X44196000Y34290000D03*
G04 #@! TD*
D13*
G04 #@! TO.P,J3,1*
G04 #@! TO.N,GND*
X13434000Y14282000D03*
D14*
G04 #@! TO.P,J3,2*
G04 #@! TO.N,VCC*
X13434000Y16822000D03*
G04 #@! TO.P,J3,3*
G04 #@! TO.N,/SCK*
X13434000Y19362000D03*
G04 #@! TO.P,J3,4*
G04 #@! TO.N,/MOSI*
X13434000Y21902000D03*
G04 #@! TO.P,J3,5*
G04 #@! TO.N,/LCD_RES*
X13434000Y24442000D03*
G04 #@! TO.P,J3,6*
G04 #@! TO.N,/LCD_DC*
X13434000Y26982000D03*
G04 #@! TO.P,J3,7*
G04 #@! TO.N,/LCD_CS*
X13434000Y29522000D03*
G04 #@! TD*
D13*
G04 #@! TO.P,J5,1*
G04 #@! TO.N,GND*
X101429000Y8893000D03*
D14*
G04 #@! TO.P,J5,2*
G04 #@! TO.N,VCC*
X103969000Y8893000D03*
G04 #@! TO.P,J5,3*
G04 #@! TO.N,/BT_SW*
X106509000Y8893000D03*
G04 #@! TO.P,J5,4*
G04 #@! TO.N,/BT_EN1*
X109049000Y8893000D03*
G04 #@! TO.P,J5,5*
G04 #@! TO.N,/BT_EN2*
X111589000Y8893000D03*
G04 #@! TD*
D17*
G04 #@! TO.P,LS1,1*
G04 #@! TO.N,VCC*
X72136000Y33020000D03*
D18*
G04 #@! TO.P,LS1,2*
G04 #@! TO.N,Net-(D1-Pad2)*
X72136000Y25420000D03*
G04 #@! TD*
D19*
G04 #@! TO.P,Q1,2*
G04 #@! TO.N,Net-(Q1-Pad2)*
X81788000Y20574000D03*
G04 #@! TO.P,Q1,3*
G04 #@! TO.N,Net-(Q1-Pad3)*
X81788000Y21844000D03*
D20*
G04 #@! TO.P,Q1,1*
G04 #@! TO.N,GND*
X81788000Y19304000D03*
G04 #@! TD*
D16*
G04 #@! TO.P,R1,2*
G04 #@! TO.N,Net-(Q1-Pad2)*
X49784000Y32004000D03*
D21*
G04 #@! TO.P,R1,1*
G04 #@! TO.N,/BEEPER*
X49784000Y24384000D03*
G04 #@! TD*
G04 #@! TO.P,R2,1*
G04 #@! TO.N,Net-(D1-Pad2)*
X81788000Y32512000D03*
D16*
G04 #@! TO.P,R2,2*
G04 #@! TO.N,Net-(Q1-Pad3)*
X81788000Y24892000D03*
G04 #@! TD*
D22*
G04 #@! TO.N,Net-(D1-Pad2)*
X81788000Y30988000D02*
X81788000Y32512000D01*
X72136000Y25420000D02*
X76220000Y25420000D01*
X76220000Y25420000D02*
X81788000Y30988000D01*
X67544000Y25420000D02*
X72136000Y25420000D01*
X44196000Y34290000D02*
X58674000Y34290000D01*
X58674000Y34290000D02*
X67544000Y25420000D01*
D23*
G04 #@! TO.N,VCC*
X23151000Y19849000D02*
X23151000Y24770000D01*
X13434000Y16822000D02*
X20124000Y16822000D01*
X20124000Y16822000D02*
X23151000Y19849000D01*
X20124000Y16706000D02*
X20124000Y16822000D01*
X41607000Y6223000D02*
X30607000Y6223000D01*
X30607000Y6223000D02*
X20124000Y16706000D01*
X103969000Y10331000D02*
X103969000Y8893000D01*
X86360000Y13208000D02*
X88646000Y10922000D01*
X88646000Y10922000D02*
X103378000Y10922000D01*
X103378000Y10922000D02*
X103969000Y10331000D01*
X23151000Y26707000D02*
X23151000Y24770000D01*
X72136000Y33020000D02*
X75438000Y33020000D01*
X75438000Y33020000D02*
X77978000Y35560000D01*
X77978000Y35560000D02*
X84074000Y35560000D01*
X86360000Y33274000D02*
X86360000Y27686000D01*
X84074000Y35560000D02*
X86360000Y33274000D01*
X86360000Y28070000D02*
X86360000Y27686000D01*
X86360000Y27686000D02*
X86360000Y13208000D01*
X36576000Y34290000D02*
X30734000Y34290000D01*
X30734000Y34290000D02*
X29464000Y33020000D01*
X29464000Y33020000D02*
X23151000Y26707000D01*
X63500000Y33020000D02*
X72136000Y33020000D01*
X59690000Y36830000D02*
X63500000Y33020000D01*
X36576000Y34290000D02*
X36576000Y35814000D01*
X37592000Y36830000D02*
X59690000Y36830000D01*
X36576000Y35814000D02*
X37592000Y36830000D01*
G04 #@! TO.N,GND*
X89151000Y8893000D02*
X100179000Y8893000D01*
X100179000Y8893000D02*
X101429000Y8893000D01*
X81788000Y19304000D02*
X81788000Y16256000D01*
X81788000Y16256000D02*
X89151000Y8893000D01*
X40385686Y3683000D02*
X41607000Y3683000D01*
X19177000Y3683000D02*
X40385686Y3683000D01*
X13434000Y14282000D02*
X13434000Y9426000D01*
X13434000Y9426000D02*
X19177000Y3683000D01*
D22*
G04 #@! TO.N,/LCD_DC*
X44147000Y2237000D02*
X43180000Y1270000D01*
X44147000Y3683000D02*
X44147000Y2237000D01*
X19558000Y1270000D02*
X9144000Y11684000D01*
X11742000Y26982000D02*
X13434000Y26982000D01*
X9144000Y11684000D02*
X9144000Y24384000D01*
X43180000Y1270000D02*
X19558000Y1270000D01*
X9144000Y24384000D02*
X11742000Y26982000D01*
G04 #@! TO.N,/BEEPER*
X53213000Y3683000D02*
X51767000Y3683000D01*
X54610000Y5080000D02*
X53213000Y3683000D01*
X49784000Y24384000D02*
X51562000Y24384000D01*
X54610000Y21336000D02*
X54610000Y5080000D01*
X51562000Y24384000D02*
X54610000Y21336000D01*
G04 #@! TO.N,/MISO*
X25691000Y26707000D02*
X25691000Y24770000D01*
X78994000Y3810000D02*
X79502000Y4318000D01*
X57912000Y29972000D02*
X28956000Y29972000D01*
X77407000Y3810000D02*
X78994000Y3810000D01*
X79502000Y4318000D02*
X79502000Y8382000D01*
X79502000Y8382000D02*
X57912000Y29972000D01*
X28956000Y29972000D02*
X25691000Y26707000D01*
G04 #@! TO.N,/SCK*
X30771000Y26707000D02*
X30771000Y24770000D01*
X32766000Y28702000D02*
X30771000Y26707000D01*
X56642000Y28702000D02*
X32766000Y28702000D01*
X77407000Y6350000D02*
X77407000Y7937000D01*
X77407000Y7937000D02*
X56642000Y28702000D01*
G04 #@! TO.N,/BT_EN2*
X98044000Y5588000D02*
X109982000Y5588000D01*
X74867000Y2349000D02*
X75184000Y2032000D01*
X74867000Y3810000D02*
X74867000Y2349000D01*
X85090000Y7874000D02*
X95758000Y7874000D01*
X111589000Y7195000D02*
X111589000Y8893000D01*
X109982000Y5588000D02*
X111589000Y7195000D01*
X75184000Y2032000D02*
X79248000Y2032000D01*
X79248000Y2032000D02*
X85090000Y7874000D01*
X95758000Y7874000D02*
X98044000Y5588000D01*
G04 #@! TO.N,/SD_SS*
X55372000Y27432000D02*
X74867000Y7937000D01*
X34036000Y27432000D02*
X55372000Y27432000D01*
X33311000Y24770000D02*
X33311000Y26707000D01*
X74867000Y7937000D02*
X74867000Y6350000D01*
X33311000Y26707000D02*
X34036000Y27432000D01*
G04 #@! TO.N,/BT_EN1*
X109049000Y10243000D02*
X109049000Y8893000D01*
X109728000Y10922000D02*
X109049000Y10243000D01*
X113284000Y10160000D02*
X112522000Y10922000D01*
X113284000Y6604000D02*
X113284000Y10160000D01*
X97536000Y4318000D02*
X110998000Y4318000D01*
X72327000Y3810000D02*
X72327000Y2349000D01*
X112522000Y10922000D02*
X109728000Y10922000D01*
X73660000Y1016000D02*
X80264000Y1016000D01*
X72327000Y2349000D02*
X73660000Y1016000D01*
X80264000Y1016000D02*
X85852000Y6604000D01*
X85852000Y6604000D02*
X95250000Y6604000D01*
X110998000Y4318000D02*
X113284000Y6604000D01*
X95250000Y6604000D02*
X97536000Y4318000D01*
G04 #@! TO.N,/MOSI*
X28231000Y22569000D02*
X28231000Y24770000D01*
X72327000Y7937000D02*
X54102000Y26162000D01*
X43942000Y26162000D02*
X39116000Y21336000D01*
X72327000Y6350000D02*
X72327000Y7937000D01*
X54102000Y26162000D02*
X43942000Y26162000D01*
X39116000Y21336000D02*
X29464000Y21336000D01*
X29464000Y21336000D02*
X28231000Y22569000D01*
G04 #@! TO.N,Net-(Q1-Pad3)*
X81788000Y21844000D02*
X81788000Y24892000D01*
G04 #@! TO.N,Net-(Q1-Pad2)*
X58420000Y32004000D02*
X49784000Y32004000D01*
X81788000Y20574000D02*
X69850000Y20574000D01*
X69850000Y20574000D02*
X58420000Y32004000D01*
G04 #@! TD*
D24*
G04 #@! TO.N,GND*
G36*
X71553610Y7635588D02*
X71246570Y7430430D01*
X71057000Y7146719D01*
X70867430Y7430430D01*
X70371725Y7761650D01*
X69934598Y7848600D01*
X69639402Y7848600D01*
X69202275Y7761650D01*
X68713932Y7435349D01*
X68708757Y7461365D01*
X68568409Y7671409D01*
X68358365Y7811757D01*
X68110600Y7861040D01*
X66383400Y7861040D01*
X66135635Y7811757D01*
X65925591Y7671409D01*
X65785243Y7461365D01*
X65735960Y7213600D01*
X65735960Y5486400D01*
X65785243Y5238635D01*
X65925591Y5028591D01*
X66135635Y4888243D01*
X66227950Y4869881D01*
X66040179Y4698490D01*
X65792032Y4169027D01*
X65912531Y3937000D01*
X67120000Y3937000D01*
X67120000Y3957000D01*
X67374000Y3957000D01*
X67374000Y3937000D01*
X67394000Y3937000D01*
X67394000Y3683000D01*
X67374000Y3683000D01*
X67374000Y2476183D01*
X67606026Y2355042D01*
X68021947Y2527312D01*
X68453821Y2921510D01*
X68505146Y3031021D01*
X68706570Y2729570D01*
X69202275Y2398350D01*
X69639402Y2311400D01*
X69934598Y2311400D01*
X70371725Y2398350D01*
X70867430Y2729570D01*
X71057000Y3013281D01*
X71246570Y2729570D01*
X71567001Y2515465D01*
X71567001Y2423851D01*
X71552112Y2349000D01*
X71567001Y2274148D01*
X71611097Y2052463D01*
X71779072Y1801071D01*
X71842528Y1758671D01*
X72564198Y1037000D01*
X44021801Y1037000D01*
X44631473Y1646671D01*
X44694929Y1689071D01*
X44862904Y1940463D01*
X44907000Y2162148D01*
X44907000Y2162152D01*
X44921888Y2237000D01*
X44907000Y2311848D01*
X44907000Y2388465D01*
X45227430Y2602570D01*
X45417000Y2886281D01*
X45606570Y2602570D01*
X46102275Y2271350D01*
X46539402Y2184400D01*
X46834598Y2184400D01*
X47271725Y2271350D01*
X47767430Y2602570D01*
X47957000Y2886281D01*
X48146570Y2602570D01*
X48642275Y2271350D01*
X49079402Y2184400D01*
X49374598Y2184400D01*
X49811725Y2271350D01*
X50307430Y2602570D01*
X50497000Y2886281D01*
X50686570Y2602570D01*
X51182275Y2271350D01*
X51619402Y2184400D01*
X51914598Y2184400D01*
X52351725Y2271350D01*
X52847430Y2602570D01*
X53061535Y2923000D01*
X53138153Y2923000D01*
X53213000Y2908112D01*
X53287847Y2923000D01*
X53287852Y2923000D01*
X53509537Y2967096D01*
X53760929Y3135071D01*
X53803331Y3198530D01*
X54055774Y3450973D01*
X65792032Y3450973D01*
X66040179Y2921510D01*
X66472053Y2527312D01*
X66887974Y2355042D01*
X67120000Y2476183D01*
X67120000Y3683000D01*
X65912531Y3683000D01*
X65792032Y3450973D01*
X54055774Y3450973D01*
X55094476Y4489673D01*
X55157929Y4532071D01*
X55200327Y4595524D01*
X55200329Y4595526D01*
X55325903Y4783462D01*
X55325904Y4783463D01*
X55370000Y5005148D01*
X55370000Y5005152D01*
X55384888Y5079999D01*
X55370000Y5154846D01*
X55370000Y21261153D01*
X55384888Y21336000D01*
X55370000Y21410847D01*
X55370000Y21410852D01*
X55325904Y21632537D01*
X55157929Y21883929D01*
X55094473Y21926329D01*
X52152331Y24868470D01*
X52109929Y24931929D01*
X51858537Y25099904D01*
X51636852Y25144000D01*
X51636847Y25144000D01*
X51562000Y25158888D01*
X51487153Y25144000D01*
X51022430Y25144000D01*
X51000534Y25196862D01*
X50795396Y25402000D01*
X53787199Y25402000D01*
X71553610Y7635588D01*
X71553610Y7635588D01*
G37*
X71553610Y7635588D02*
X71246570Y7430430D01*
X71057000Y7146719D01*
X70867430Y7430430D01*
X70371725Y7761650D01*
X69934598Y7848600D01*
X69639402Y7848600D01*
X69202275Y7761650D01*
X68713932Y7435349D01*
X68708757Y7461365D01*
X68568409Y7671409D01*
X68358365Y7811757D01*
X68110600Y7861040D01*
X66383400Y7861040D01*
X66135635Y7811757D01*
X65925591Y7671409D01*
X65785243Y7461365D01*
X65735960Y7213600D01*
X65735960Y5486400D01*
X65785243Y5238635D01*
X65925591Y5028591D01*
X66135635Y4888243D01*
X66227950Y4869881D01*
X66040179Y4698490D01*
X65792032Y4169027D01*
X65912531Y3937000D01*
X67120000Y3937000D01*
X67120000Y3957000D01*
X67374000Y3957000D01*
X67374000Y3937000D01*
X67394000Y3937000D01*
X67394000Y3683000D01*
X67374000Y3683000D01*
X67374000Y2476183D01*
X67606026Y2355042D01*
X68021947Y2527312D01*
X68453821Y2921510D01*
X68505146Y3031021D01*
X68706570Y2729570D01*
X69202275Y2398350D01*
X69639402Y2311400D01*
X69934598Y2311400D01*
X70371725Y2398350D01*
X70867430Y2729570D01*
X71057000Y3013281D01*
X71246570Y2729570D01*
X71567001Y2515465D01*
X71567001Y2423851D01*
X71552112Y2349000D01*
X71567001Y2274148D01*
X71611097Y2052463D01*
X71779072Y1801071D01*
X71842528Y1758671D01*
X72564198Y1037000D01*
X44021801Y1037000D01*
X44631473Y1646671D01*
X44694929Y1689071D01*
X44862904Y1940463D01*
X44907000Y2162148D01*
X44907000Y2162152D01*
X44921888Y2237000D01*
X44907000Y2311848D01*
X44907000Y2388465D01*
X45227430Y2602570D01*
X45417000Y2886281D01*
X45606570Y2602570D01*
X46102275Y2271350D01*
X46539402Y2184400D01*
X46834598Y2184400D01*
X47271725Y2271350D01*
X47767430Y2602570D01*
X47957000Y2886281D01*
X48146570Y2602570D01*
X48642275Y2271350D01*
X49079402Y2184400D01*
X49374598Y2184400D01*
X49811725Y2271350D01*
X50307430Y2602570D01*
X50497000Y2886281D01*
X50686570Y2602570D01*
X51182275Y2271350D01*
X51619402Y2184400D01*
X51914598Y2184400D01*
X52351725Y2271350D01*
X52847430Y2602570D01*
X53061535Y2923000D01*
X53138153Y2923000D01*
X53213000Y2908112D01*
X53287847Y2923000D01*
X53287852Y2923000D01*
X53509537Y2967096D01*
X53760929Y3135071D01*
X53803331Y3198530D01*
X54055774Y3450973D01*
X65792032Y3450973D01*
X66040179Y2921510D01*
X66472053Y2527312D01*
X66887974Y2355042D01*
X67120000Y2476183D01*
X67120000Y3683000D01*
X65912531Y3683000D01*
X65792032Y3450973D01*
X54055774Y3450973D01*
X55094476Y4489673D01*
X55157929Y4532071D01*
X55200327Y4595524D01*
X55200329Y4595526D01*
X55325903Y4783462D01*
X55325904Y4783463D01*
X55370000Y5005148D01*
X55370000Y5005152D01*
X55384888Y5079999D01*
X55370000Y5154846D01*
X55370000Y21261153D01*
X55384888Y21336000D01*
X55370000Y21410847D01*
X55370000Y21410852D01*
X55325904Y21632537D01*
X55157929Y21883929D01*
X55094473Y21926329D01*
X52152331Y24868470D01*
X52109929Y24931929D01*
X51858537Y25099904D01*
X51636852Y25144000D01*
X51636847Y25144000D01*
X51562000Y25158888D01*
X51487153Y25144000D01*
X51022430Y25144000D01*
X51000534Y25196862D01*
X50795396Y25402000D01*
X53787199Y25402000D01*
X71553610Y7635588D01*
G36*
X24013090Y38333463D02*
X24054095Y38272095D01*
X24297217Y38109646D01*
X24511612Y38067000D01*
X24511615Y38067000D01*
X24583999Y38052602D01*
X24656383Y38067000D01*
X31511616Y38067000D01*
X31584000Y38052602D01*
X31656384Y38067000D01*
X31656388Y38067000D01*
X31870783Y38109646D01*
X32113905Y38272095D01*
X32154911Y38333465D01*
X35388447Y41567000D01*
X86011888Y41567000D01*
X85664336Y41219448D01*
X85149000Y39975318D01*
X85149000Y38628682D01*
X85664336Y37384552D01*
X86616552Y36432336D01*
X87860682Y35917000D01*
X89207318Y35917000D01*
X90451448Y36432336D01*
X91403664Y37384552D01*
X91919000Y38628682D01*
X91919000Y39975318D01*
X91403664Y41219448D01*
X91056112Y41567000D01*
X122011888Y41567000D01*
X121664336Y41219448D01*
X121149000Y39975318D01*
X121149000Y38628682D01*
X121664336Y37384552D01*
X122616552Y36432336D01*
X123860682Y35917000D01*
X125207318Y35917000D01*
X126451448Y36432336D01*
X127403664Y37384552D01*
X127919000Y38628682D01*
X127919000Y39877553D01*
X128799000Y38997553D01*
X128799001Y3606448D01*
X127919000Y2726447D01*
X127919000Y3975318D01*
X127403664Y5219448D01*
X126451448Y6171664D01*
X125207318Y6687000D01*
X123860682Y6687000D01*
X122616552Y6171664D01*
X121664336Y5219448D01*
X121149000Y3975318D01*
X121149000Y2628682D01*
X121664336Y1384552D01*
X122011888Y1037000D01*
X91056112Y1037000D01*
X91403664Y1384552D01*
X91919000Y2628682D01*
X91919000Y3975318D01*
X91403664Y5219448D01*
X90779112Y5844000D01*
X94935199Y5844000D01*
X96945671Y3833527D01*
X96988071Y3770071D01*
X97239463Y3602096D01*
X97461148Y3558000D01*
X97461152Y3558000D01*
X97535999Y3543112D01*
X97610846Y3558000D01*
X110923153Y3558000D01*
X110998000Y3543112D01*
X111072847Y3558000D01*
X111072852Y3558000D01*
X111294537Y3602096D01*
X111545929Y3770071D01*
X111588331Y3833530D01*
X113768473Y6013671D01*
X113831929Y6056071D01*
X113999904Y6307463D01*
X114044000Y6529148D01*
X114044000Y6529152D01*
X114058888Y6603999D01*
X114044000Y6678846D01*
X114044000Y10085152D01*
X114058888Y10160000D01*
X114044000Y10234848D01*
X114044000Y10234852D01*
X113999904Y10456537D01*
X113999904Y10456538D01*
X113874329Y10644473D01*
X113831929Y10707929D01*
X113768473Y10750329D01*
X113451802Y11067000D01*
X123961612Y11067000D01*
X124034000Y11052601D01*
X124106388Y11067000D01*
X124320783Y11109646D01*
X124563905Y11272095D01*
X124726354Y11515217D01*
X124783399Y11802000D01*
X124769000Y11874388D01*
X124769000Y33143831D01*
X124783398Y33216215D01*
X124769000Y33288601D01*
X124769000Y33288602D01*
X124726354Y33502997D01*
X124563905Y33746119D01*
X124502538Y33787123D01*
X119019125Y39270535D01*
X118978119Y39331905D01*
X118734997Y39494354D01*
X118520602Y39537000D01*
X118520598Y39537000D01*
X118448214Y39551398D01*
X118375830Y39537000D01*
X94692171Y39537000D01*
X94619787Y39551398D01*
X94547403Y39537000D01*
X94547399Y39537000D01*
X94333004Y39494354D01*
X94089882Y39331905D01*
X94048878Y39270538D01*
X88565465Y33787125D01*
X88504095Y33746119D01*
X88341646Y33502996D01*
X88299000Y33288601D01*
X88299000Y33288598D01*
X88284602Y33216214D01*
X88299000Y33143830D01*
X88299001Y12449867D01*
X87195000Y13553867D01*
X87195000Y33191768D01*
X87211357Y33274001D01*
X87195000Y33356236D01*
X87195000Y33356237D01*
X87146552Y33599801D01*
X86962001Y33876001D01*
X86892283Y33922585D01*
X84722587Y36092280D01*
X84676001Y36162001D01*
X84399801Y36346552D01*
X84156237Y36395000D01*
X84156233Y36395000D01*
X84074000Y36411357D01*
X83991767Y36395000D01*
X78060232Y36395000D01*
X77977999Y36411357D01*
X77895766Y36395000D01*
X77895763Y36395000D01*
X77652199Y36346552D01*
X77375999Y36162001D01*
X77329417Y36092285D01*
X75092133Y33855000D01*
X73783440Y33855000D01*
X73783440Y34020000D01*
X73734157Y34267765D01*
X73593809Y34477809D01*
X73383765Y34618157D01*
X73136000Y34667440D01*
X71136000Y34667440D01*
X70888235Y34618157D01*
X70678191Y34477809D01*
X70537843Y34267765D01*
X70488560Y34020000D01*
X70488560Y33855000D01*
X63845868Y33855000D01*
X60338587Y37362280D01*
X60292001Y37432001D01*
X60015801Y37616552D01*
X59772237Y37665000D01*
X59772233Y37665000D01*
X59690000Y37681357D01*
X59607767Y37665000D01*
X37674233Y37665000D01*
X37592000Y37681357D01*
X37509767Y37665000D01*
X37509763Y37665000D01*
X37266199Y37616552D01*
X36989999Y37432001D01*
X36943415Y37362282D01*
X36043718Y36462585D01*
X35974000Y36416001D01*
X35927416Y36346283D01*
X35789448Y36139800D01*
X35724643Y35814000D01*
X35741001Y35731762D01*
X35741001Y35730478D01*
X35528235Y35688157D01*
X35318191Y35547809D01*
X35177843Y35337765D01*
X35135522Y35125000D01*
X30816232Y35125000D01*
X30733999Y35141357D01*
X30651766Y35125000D01*
X30651763Y35125000D01*
X30408199Y35076552D01*
X30131999Y34892001D01*
X30085415Y34822282D01*
X28931719Y33668586D01*
X28931716Y33668584D01*
X22618720Y27355587D01*
X22548999Y27309001D01*
X22364448Y27032800D01*
X22316000Y26789236D01*
X22316000Y26789233D01*
X22299643Y26707000D01*
X22316000Y26624767D01*
X22316000Y25998065D01*
X22080375Y25840625D01*
X22065904Y25818967D01*
X21999327Y25979698D01*
X21820699Y26158327D01*
X21587310Y26255000D01*
X20896750Y26255000D01*
X20738000Y26096250D01*
X20738000Y24897000D01*
X20758000Y24897000D01*
X20758000Y24643000D01*
X20738000Y24643000D01*
X20738000Y23443750D01*
X20896750Y23285000D01*
X21587310Y23285000D01*
X21820699Y23381673D01*
X21999327Y23560302D01*
X22065904Y23721033D01*
X22080375Y23699375D01*
X22316001Y23541935D01*
X22316000Y20194869D01*
X19778133Y17657000D01*
X14662065Y17657000D01*
X14504625Y17892625D01*
X14206239Y18092000D01*
X14504625Y18291375D01*
X14832839Y18782582D01*
X14948092Y19362000D01*
X14832839Y19941418D01*
X14504625Y20432625D01*
X14206239Y20632000D01*
X14504625Y20831375D01*
X14832839Y21322582D01*
X14948092Y21902000D01*
X14832839Y22481418D01*
X14504625Y22972625D01*
X14206239Y23172000D01*
X14504625Y23371375D01*
X14832839Y23862582D01*
X14948092Y24442000D01*
X14939688Y24484250D01*
X19126000Y24484250D01*
X19126000Y23793691D01*
X19222673Y23560302D01*
X19401301Y23381673D01*
X19634690Y23285000D01*
X20325250Y23285000D01*
X20484000Y23443750D01*
X20484000Y24643000D01*
X19284750Y24643000D01*
X19126000Y24484250D01*
X14939688Y24484250D01*
X14832839Y25021418D01*
X14504625Y25512625D01*
X14206239Y25712000D01*
X14257586Y25746309D01*
X19126000Y25746309D01*
X19126000Y25055750D01*
X19284750Y24897000D01*
X20484000Y24897000D01*
X20484000Y26096250D01*
X20325250Y26255000D01*
X19634690Y26255000D01*
X19401301Y26158327D01*
X19222673Y25979698D01*
X19126000Y25746309D01*
X14257586Y25746309D01*
X14504625Y25911375D01*
X14832839Y26402582D01*
X14948092Y26982000D01*
X14832839Y27561418D01*
X14504625Y28052625D01*
X14206239Y28252000D01*
X14504625Y28451375D01*
X14832839Y28942582D01*
X14948092Y29522000D01*
X14832839Y30101418D01*
X14504625Y30592625D01*
X14013418Y30920839D01*
X13580256Y31007000D01*
X13287744Y31007000D01*
X12854582Y30920839D01*
X12363375Y30592625D01*
X12035161Y30101418D01*
X11919908Y29522000D01*
X12035161Y28942582D01*
X12363375Y28451375D01*
X12661761Y28252000D01*
X12363375Y28052625D01*
X12155822Y27742000D01*
X11816848Y27742000D01*
X11742000Y27756888D01*
X11667152Y27742000D01*
X11667148Y27742000D01*
X11493605Y27707480D01*
X11445462Y27697904D01*
X11304571Y27603763D01*
X11194071Y27529929D01*
X11151671Y27466473D01*
X8659528Y24974329D01*
X8596072Y24931929D01*
X8553672Y24868473D01*
X8553671Y24868472D01*
X8428097Y24680537D01*
X8369112Y24384000D01*
X8384001Y24309148D01*
X8384000Y11758847D01*
X8369112Y11684000D01*
X8384000Y11609153D01*
X8384000Y11609149D01*
X8428096Y11387464D01*
X8596071Y11136071D01*
X8659530Y11093669D01*
X18716198Y1037000D01*
X7856112Y1037000D01*
X8203664Y1384552D01*
X8719000Y2628682D01*
X8719000Y3975318D01*
X8203664Y5219448D01*
X7251448Y6171664D01*
X6007318Y6687000D01*
X4660682Y6687000D01*
X3416552Y6171664D01*
X2464336Y5219448D01*
X1949000Y3975318D01*
X1949000Y2726446D01*
X1069000Y3606446D01*
X1069000Y38997554D01*
X1949000Y39877554D01*
X1949000Y38628682D01*
X2464336Y37384552D01*
X3416552Y36432336D01*
X4660682Y35917000D01*
X6007318Y35917000D01*
X7251448Y36432336D01*
X8203664Y37384552D01*
X8719000Y38628682D01*
X8719000Y39975318D01*
X8203664Y41219448D01*
X7856112Y41567000D01*
X20779554Y41567000D01*
X24013090Y38333463D01*
X24013090Y38333463D01*
G37*
X24013090Y38333463D02*
X24054095Y38272095D01*
X24297217Y38109646D01*
X24511612Y38067000D01*
X24511615Y38067000D01*
X24583999Y38052602D01*
X24656383Y38067000D01*
X31511616Y38067000D01*
X31584000Y38052602D01*
X31656384Y38067000D01*
X31656388Y38067000D01*
X31870783Y38109646D01*
X32113905Y38272095D01*
X32154911Y38333465D01*
X35388447Y41567000D01*
X86011888Y41567000D01*
X85664336Y41219448D01*
X85149000Y39975318D01*
X85149000Y38628682D01*
X85664336Y37384552D01*
X86616552Y36432336D01*
X87860682Y35917000D01*
X89207318Y35917000D01*
X90451448Y36432336D01*
X91403664Y37384552D01*
X91919000Y38628682D01*
X91919000Y39975318D01*
X91403664Y41219448D01*
X91056112Y41567000D01*
X122011888Y41567000D01*
X121664336Y41219448D01*
X121149000Y39975318D01*
X121149000Y38628682D01*
X121664336Y37384552D01*
X122616552Y36432336D01*
X123860682Y35917000D01*
X125207318Y35917000D01*
X126451448Y36432336D01*
X127403664Y37384552D01*
X127919000Y38628682D01*
X127919000Y39877553D01*
X128799000Y38997553D01*
X128799001Y3606448D01*
X127919000Y2726447D01*
X127919000Y3975318D01*
X127403664Y5219448D01*
X126451448Y6171664D01*
X125207318Y6687000D01*
X123860682Y6687000D01*
X122616552Y6171664D01*
X121664336Y5219448D01*
X121149000Y3975318D01*
X121149000Y2628682D01*
X121664336Y1384552D01*
X122011888Y1037000D01*
X91056112Y1037000D01*
X91403664Y1384552D01*
X91919000Y2628682D01*
X91919000Y3975318D01*
X91403664Y5219448D01*
X90779112Y5844000D01*
X94935199Y5844000D01*
X96945671Y3833527D01*
X96988071Y3770071D01*
X97239463Y3602096D01*
X97461148Y3558000D01*
X97461152Y3558000D01*
X97535999Y3543112D01*
X97610846Y3558000D01*
X110923153Y3558000D01*
X110998000Y3543112D01*
X111072847Y3558000D01*
X111072852Y3558000D01*
X111294537Y3602096D01*
X111545929Y3770071D01*
X111588331Y3833530D01*
X113768473Y6013671D01*
X113831929Y6056071D01*
X113999904Y6307463D01*
X114044000Y6529148D01*
X114044000Y6529152D01*
X114058888Y6603999D01*
X114044000Y6678846D01*
X114044000Y10085152D01*
X114058888Y10160000D01*
X114044000Y10234848D01*
X114044000Y10234852D01*
X113999904Y10456537D01*
X113999904Y10456538D01*
X113874329Y10644473D01*
X113831929Y10707929D01*
X113768473Y10750329D01*
X113451802Y11067000D01*
X123961612Y11067000D01*
X124034000Y11052601D01*
X124106388Y11067000D01*
X124320783Y11109646D01*
X124563905Y11272095D01*
X124726354Y11515217D01*
X124783399Y11802000D01*
X124769000Y11874388D01*
X124769000Y33143831D01*
X124783398Y33216215D01*
X124769000Y33288601D01*
X124769000Y33288602D01*
X124726354Y33502997D01*
X124563905Y33746119D01*
X124502538Y33787123D01*
X119019125Y39270535D01*
X118978119Y39331905D01*
X118734997Y39494354D01*
X118520602Y39537000D01*
X118520598Y39537000D01*
X118448214Y39551398D01*
X118375830Y39537000D01*
X94692171Y39537000D01*
X94619787Y39551398D01*
X94547403Y39537000D01*
X94547399Y39537000D01*
X94333004Y39494354D01*
X94089882Y39331905D01*
X94048878Y39270538D01*
X88565465Y33787125D01*
X88504095Y33746119D01*
X88341646Y33502996D01*
X88299000Y33288601D01*
X88299000Y33288598D01*
X88284602Y33216214D01*
X88299000Y33143830D01*
X88299001Y12449867D01*
X87195000Y13553867D01*
X87195000Y33191768D01*
X87211357Y33274001D01*
X87195000Y33356236D01*
X87195000Y33356237D01*
X87146552Y33599801D01*
X86962001Y33876001D01*
X86892283Y33922585D01*
X84722587Y36092280D01*
X84676001Y36162001D01*
X84399801Y36346552D01*
X84156237Y36395000D01*
X84156233Y36395000D01*
X84074000Y36411357D01*
X83991767Y36395000D01*
X78060232Y36395000D01*
X77977999Y36411357D01*
X77895766Y36395000D01*
X77895763Y36395000D01*
X77652199Y36346552D01*
X77375999Y36162001D01*
X77329417Y36092285D01*
X75092133Y33855000D01*
X73783440Y33855000D01*
X73783440Y34020000D01*
X73734157Y34267765D01*
X73593809Y34477809D01*
X73383765Y34618157D01*
X73136000Y34667440D01*
X71136000Y34667440D01*
X70888235Y34618157D01*
X70678191Y34477809D01*
X70537843Y34267765D01*
X70488560Y34020000D01*
X70488560Y33855000D01*
X63845868Y33855000D01*
X60338587Y37362280D01*
X60292001Y37432001D01*
X60015801Y37616552D01*
X59772237Y37665000D01*
X59772233Y37665000D01*
X59690000Y37681357D01*
X59607767Y37665000D01*
X37674233Y37665000D01*
X37592000Y37681357D01*
X37509767Y37665000D01*
X37509763Y37665000D01*
X37266199Y37616552D01*
X36989999Y37432001D01*
X36943415Y37362282D01*
X36043718Y36462585D01*
X35974000Y36416001D01*
X35927416Y36346283D01*
X35789448Y36139800D01*
X35724643Y35814000D01*
X35741001Y35731762D01*
X35741001Y35730478D01*
X35528235Y35688157D01*
X35318191Y35547809D01*
X35177843Y35337765D01*
X35135522Y35125000D01*
X30816232Y35125000D01*
X30733999Y35141357D01*
X30651766Y35125000D01*
X30651763Y35125000D01*
X30408199Y35076552D01*
X30131999Y34892001D01*
X30085415Y34822282D01*
X28931719Y33668586D01*
X28931716Y33668584D01*
X22618720Y27355587D01*
X22548999Y27309001D01*
X22364448Y27032800D01*
X22316000Y26789236D01*
X22316000Y26789233D01*
X22299643Y26707000D01*
X22316000Y26624767D01*
X22316000Y25998065D01*
X22080375Y25840625D01*
X22065904Y25818967D01*
X21999327Y25979698D01*
X21820699Y26158327D01*
X21587310Y26255000D01*
X20896750Y26255000D01*
X20738000Y26096250D01*
X20738000Y24897000D01*
X20758000Y24897000D01*
X20758000Y24643000D01*
X20738000Y24643000D01*
X20738000Y23443750D01*
X20896750Y23285000D01*
X21587310Y23285000D01*
X21820699Y23381673D01*
X21999327Y23560302D01*
X22065904Y23721033D01*
X22080375Y23699375D01*
X22316001Y23541935D01*
X22316000Y20194869D01*
X19778133Y17657000D01*
X14662065Y17657000D01*
X14504625Y17892625D01*
X14206239Y18092000D01*
X14504625Y18291375D01*
X14832839Y18782582D01*
X14948092Y19362000D01*
X14832839Y19941418D01*
X14504625Y20432625D01*
X14206239Y20632000D01*
X14504625Y20831375D01*
X14832839Y21322582D01*
X14948092Y21902000D01*
X14832839Y22481418D01*
X14504625Y22972625D01*
X14206239Y23172000D01*
X14504625Y23371375D01*
X14832839Y23862582D01*
X14948092Y24442000D01*
X14939688Y24484250D01*
X19126000Y24484250D01*
X19126000Y23793691D01*
X19222673Y23560302D01*
X19401301Y23381673D01*
X19634690Y23285000D01*
X20325250Y23285000D01*
X20484000Y23443750D01*
X20484000Y24643000D01*
X19284750Y24643000D01*
X19126000Y24484250D01*
X14939688Y24484250D01*
X14832839Y25021418D01*
X14504625Y25512625D01*
X14206239Y25712000D01*
X14257586Y25746309D01*
X19126000Y25746309D01*
X19126000Y25055750D01*
X19284750Y24897000D01*
X20484000Y24897000D01*
X20484000Y26096250D01*
X20325250Y26255000D01*
X19634690Y26255000D01*
X19401301Y26158327D01*
X19222673Y25979698D01*
X19126000Y25746309D01*
X14257586Y25746309D01*
X14504625Y25911375D01*
X14832839Y26402582D01*
X14948092Y26982000D01*
X14832839Y27561418D01*
X14504625Y28052625D01*
X14206239Y28252000D01*
X14504625Y28451375D01*
X14832839Y28942582D01*
X14948092Y29522000D01*
X14832839Y30101418D01*
X14504625Y30592625D01*
X14013418Y30920839D01*
X13580256Y31007000D01*
X13287744Y31007000D01*
X12854582Y30920839D01*
X12363375Y30592625D01*
X12035161Y30101418D01*
X11919908Y29522000D01*
X12035161Y28942582D01*
X12363375Y28451375D01*
X12661761Y28252000D01*
X12363375Y28052625D01*
X12155822Y27742000D01*
X11816848Y27742000D01*
X11742000Y27756888D01*
X11667152Y27742000D01*
X11667148Y27742000D01*
X11493605Y27707480D01*
X11445462Y27697904D01*
X11304571Y27603763D01*
X11194071Y27529929D01*
X11151671Y27466473D01*
X8659528Y24974329D01*
X8596072Y24931929D01*
X8553672Y24868473D01*
X8553671Y24868472D01*
X8428097Y24680537D01*
X8369112Y24384000D01*
X8384001Y24309148D01*
X8384000Y11758847D01*
X8369112Y11684000D01*
X8384000Y11609153D01*
X8384000Y11609149D01*
X8428096Y11387464D01*
X8596071Y11136071D01*
X8659530Y11093669D01*
X18716198Y1037000D01*
X7856112Y1037000D01*
X8203664Y1384552D01*
X8719000Y2628682D01*
X8719000Y3975318D01*
X8203664Y5219448D01*
X7251448Y6171664D01*
X6007318Y6687000D01*
X4660682Y6687000D01*
X3416552Y6171664D01*
X2464336Y5219448D01*
X1949000Y3975318D01*
X1949000Y2726446D01*
X1069000Y3606446D01*
X1069000Y38997554D01*
X1949000Y39877554D01*
X1949000Y38628682D01*
X2464336Y37384552D01*
X3416552Y36432336D01*
X4660682Y35917000D01*
X6007318Y35917000D01*
X7251448Y36432336D01*
X8203664Y37384552D01*
X8719000Y38628682D01*
X8719000Y39975318D01*
X8203664Y41219448D01*
X7856112Y41567000D01*
X20779554Y41567000D01*
X24013090Y38333463D01*
G36*
X12363375Y25911375D02*
X12661761Y25712000D01*
X12363375Y25512625D01*
X12035161Y25021418D01*
X11919908Y24442000D01*
X12035161Y23862582D01*
X12363375Y23371375D01*
X12661761Y23172000D01*
X12363375Y22972625D01*
X12035161Y22481418D01*
X11919908Y21902000D01*
X12035161Y21322582D01*
X12363375Y20831375D01*
X12661761Y20632000D01*
X12363375Y20432625D01*
X12035161Y19941418D01*
X11919908Y19362000D01*
X12035161Y18782582D01*
X12363375Y18291375D01*
X12661761Y18092000D01*
X12363375Y17892625D01*
X12035161Y17401418D01*
X11919908Y16822000D01*
X12035161Y16242582D01*
X12363375Y15751375D01*
X12385033Y15736904D01*
X12224302Y15670327D01*
X12045673Y15491699D01*
X11949000Y15258310D01*
X11949000Y14567750D01*
X12107750Y14409000D01*
X13307000Y14409000D01*
X13307000Y14429000D01*
X13561000Y14429000D01*
X13561000Y14409000D01*
X14760250Y14409000D01*
X14919000Y14567750D01*
X14919000Y15258310D01*
X14822327Y15491699D01*
X14643698Y15670327D01*
X14482967Y15736904D01*
X14504625Y15751375D01*
X14662065Y15987000D01*
X19662133Y15987000D01*
X29958415Y5690717D01*
X30004999Y5620999D01*
X30281199Y5436448D01*
X30524763Y5388000D01*
X30607000Y5371642D01*
X30689237Y5388000D01*
X40095960Y5388000D01*
X40095960Y5359400D01*
X40145243Y5111635D01*
X40285591Y4901591D01*
X40495635Y4761243D01*
X40587950Y4742881D01*
X40400179Y4571490D01*
X40152032Y4042027D01*
X40272531Y3810000D01*
X41480000Y3810000D01*
X41480000Y3830000D01*
X41734000Y3830000D01*
X41734000Y3810000D01*
X41754000Y3810000D01*
X41754000Y3556000D01*
X41734000Y3556000D01*
X41734000Y2349183D01*
X41966026Y2228042D01*
X42381947Y2400312D01*
X42813821Y2794510D01*
X42865146Y2904021D01*
X43066570Y2602570D01*
X43289087Y2453889D01*
X42865199Y2030000D01*
X19872802Y2030000D01*
X18578829Y3323973D01*
X40152032Y3323973D01*
X40400179Y2794510D01*
X40832053Y2400312D01*
X41247974Y2228042D01*
X41480000Y2349183D01*
X41480000Y3556000D01*
X40272531Y3556000D01*
X40152032Y3323973D01*
X18578829Y3323973D01*
X9904000Y11998801D01*
X9904000Y13996250D01*
X11949000Y13996250D01*
X11949000Y13305690D01*
X12045673Y13072301D01*
X12224302Y12893673D01*
X12457691Y12797000D01*
X13148250Y12797000D01*
X13307000Y12955750D01*
X13307000Y14155000D01*
X13561000Y14155000D01*
X13561000Y12955750D01*
X13719750Y12797000D01*
X14410309Y12797000D01*
X14643698Y12893673D01*
X14822327Y13072301D01*
X14919000Y13305690D01*
X14919000Y13996250D01*
X14760250Y14155000D01*
X13561000Y14155000D01*
X13307000Y14155000D01*
X12107750Y14155000D01*
X11949000Y13996250D01*
X9904000Y13996250D01*
X9904000Y24069199D01*
X12056802Y26222000D01*
X12155822Y26222000D01*
X12363375Y25911375D01*
X12363375Y25911375D01*
G37*
X12363375Y25911375D02*
X12661761Y25712000D01*
X12363375Y25512625D01*
X12035161Y25021418D01*
X11919908Y24442000D01*
X12035161Y23862582D01*
X12363375Y23371375D01*
X12661761Y23172000D01*
X12363375Y22972625D01*
X12035161Y22481418D01*
X11919908Y21902000D01*
X12035161Y21322582D01*
X12363375Y20831375D01*
X12661761Y20632000D01*
X12363375Y20432625D01*
X12035161Y19941418D01*
X11919908Y19362000D01*
X12035161Y18782582D01*
X12363375Y18291375D01*
X12661761Y18092000D01*
X12363375Y17892625D01*
X12035161Y17401418D01*
X11919908Y16822000D01*
X12035161Y16242582D01*
X12363375Y15751375D01*
X12385033Y15736904D01*
X12224302Y15670327D01*
X12045673Y15491699D01*
X11949000Y15258310D01*
X11949000Y14567750D01*
X12107750Y14409000D01*
X13307000Y14409000D01*
X13307000Y14429000D01*
X13561000Y14429000D01*
X13561000Y14409000D01*
X14760250Y14409000D01*
X14919000Y14567750D01*
X14919000Y15258310D01*
X14822327Y15491699D01*
X14643698Y15670327D01*
X14482967Y15736904D01*
X14504625Y15751375D01*
X14662065Y15987000D01*
X19662133Y15987000D01*
X29958415Y5690717D01*
X30004999Y5620999D01*
X30281199Y5436448D01*
X30524763Y5388000D01*
X30607000Y5371642D01*
X30689237Y5388000D01*
X40095960Y5388000D01*
X40095960Y5359400D01*
X40145243Y5111635D01*
X40285591Y4901591D01*
X40495635Y4761243D01*
X40587950Y4742881D01*
X40400179Y4571490D01*
X40152032Y4042027D01*
X40272531Y3810000D01*
X41480000Y3810000D01*
X41480000Y3830000D01*
X41734000Y3830000D01*
X41734000Y3810000D01*
X41754000Y3810000D01*
X41754000Y3556000D01*
X41734000Y3556000D01*
X41734000Y2349183D01*
X41966026Y2228042D01*
X42381947Y2400312D01*
X42813821Y2794510D01*
X42865146Y2904021D01*
X43066570Y2602570D01*
X43289087Y2453889D01*
X42865199Y2030000D01*
X19872802Y2030000D01*
X18578829Y3323973D01*
X40152032Y3323973D01*
X40400179Y2794510D01*
X40832053Y2400312D01*
X41247974Y2228042D01*
X41480000Y2349183D01*
X41480000Y3556000D01*
X40272531Y3556000D01*
X40152032Y3323973D01*
X18578829Y3323973D01*
X9904000Y11998801D01*
X9904000Y13996250D01*
X11949000Y13996250D01*
X11949000Y13305690D01*
X12045673Y13072301D01*
X12224302Y12893673D01*
X12457691Y12797000D01*
X13148250Y12797000D01*
X13307000Y12955750D01*
X13307000Y14155000D01*
X13561000Y14155000D01*
X13561000Y12955750D01*
X13719750Y12797000D01*
X14410309Y12797000D01*
X14643698Y12893673D01*
X14822327Y13072301D01*
X14919000Y13305690D01*
X14919000Y13996250D01*
X14760250Y14155000D01*
X13561000Y14155000D01*
X13307000Y14155000D01*
X12107750Y14155000D01*
X11949000Y13996250D01*
X9904000Y13996250D01*
X9904000Y24069199D01*
X12056802Y26222000D01*
X12155822Y26222000D01*
X12363375Y25911375D01*
G36*
X62851415Y32487717D02*
X62897999Y32417999D01*
X63174199Y32233448D01*
X63417763Y32185000D01*
X63500000Y32168642D01*
X63582237Y32185000D01*
X70488560Y32185000D01*
X70488560Y32020000D01*
X70537843Y31772235D01*
X70678191Y31562191D01*
X70888235Y31421843D01*
X71136000Y31372560D01*
X73136000Y31372560D01*
X73383765Y31421843D01*
X73593809Y31562191D01*
X73734157Y31772235D01*
X73783440Y32020000D01*
X73783440Y32185000D01*
X75355767Y32185000D01*
X75438000Y32168643D01*
X75520233Y32185000D01*
X75520237Y32185000D01*
X75763801Y32233448D01*
X76040001Y32417999D01*
X76086587Y32487720D01*
X78323869Y34725000D01*
X83728133Y34725000D01*
X85525000Y32928132D01*
X85525001Y28152241D01*
X85525000Y28152236D01*
X85525000Y27768236D01*
X85525001Y13290238D01*
X85508643Y13208000D01*
X85573448Y12882200D01*
X85573449Y12882199D01*
X85758000Y12605999D01*
X85827718Y12559415D01*
X87997415Y10389717D01*
X88043999Y10319999D01*
X88320199Y10135448D01*
X88563763Y10087000D01*
X88563766Y10087000D01*
X88645999Y10070643D01*
X88728232Y10087000D01*
X100034171Y10087000D01*
X99944000Y9869309D01*
X99944000Y9178750D01*
X100102750Y9020000D01*
X101302000Y9020000D01*
X101302000Y9040000D01*
X101556000Y9040000D01*
X101556000Y9020000D01*
X101576000Y9020000D01*
X101576000Y8766000D01*
X101556000Y8766000D01*
X101556000Y7566750D01*
X101714750Y7408000D01*
X102405310Y7408000D01*
X102638699Y7504673D01*
X102817327Y7683302D01*
X102883904Y7844033D01*
X102898375Y7822375D01*
X103389582Y7494161D01*
X103822744Y7408000D01*
X104115256Y7408000D01*
X104548418Y7494161D01*
X105039625Y7822375D01*
X105239000Y8120761D01*
X105438375Y7822375D01*
X105929582Y7494161D01*
X106362744Y7408000D01*
X106655256Y7408000D01*
X107088418Y7494161D01*
X107579625Y7822375D01*
X107779000Y8120761D01*
X107978375Y7822375D01*
X108469582Y7494161D01*
X108902744Y7408000D01*
X109195256Y7408000D01*
X109628418Y7494161D01*
X110119625Y7822375D01*
X110319000Y8120761D01*
X110518375Y7822375D01*
X110829000Y7614822D01*
X110829000Y7509802D01*
X109667199Y6348000D01*
X98358802Y6348000D01*
X96348331Y8358470D01*
X96305929Y8421929D01*
X96054537Y8589904D01*
X95967333Y8607250D01*
X99944000Y8607250D01*
X99944000Y7916691D01*
X100040673Y7683302D01*
X100219301Y7504673D01*
X100452690Y7408000D01*
X101143250Y7408000D01*
X101302000Y7566750D01*
X101302000Y8766000D01*
X100102750Y8766000D01*
X99944000Y8607250D01*
X95967333Y8607250D01*
X95832852Y8634000D01*
X95832847Y8634000D01*
X95758000Y8648888D01*
X95683153Y8634000D01*
X85164848Y8634000D01*
X85090000Y8648888D01*
X85015152Y8634000D01*
X85015148Y8634000D01*
X84793463Y8589904D01*
X84542071Y8421929D01*
X84499671Y8358473D01*
X80231621Y4090422D01*
X80262000Y4243148D01*
X80262000Y4243152D01*
X80276888Y4317999D01*
X80262000Y4392846D01*
X80262000Y8307152D01*
X80276888Y8382000D01*
X80262000Y8456848D01*
X80262000Y8456852D01*
X80217904Y8678537D01*
X80217904Y8678538D01*
X80092329Y8866473D01*
X80049929Y8929929D01*
X79986473Y8972329D01*
X69940552Y19018250D01*
X80403000Y19018250D01*
X80403000Y18652691D01*
X80499673Y18419302D01*
X80678301Y18240673D01*
X80911690Y18144000D01*
X81502250Y18144000D01*
X81661000Y18302750D01*
X81661000Y19177000D01*
X81915000Y19177000D01*
X81915000Y18302750D01*
X82073750Y18144000D01*
X82664310Y18144000D01*
X82897699Y18240673D01*
X83076327Y18419302D01*
X83173000Y18652691D01*
X83173000Y19018250D01*
X83014250Y19177000D01*
X81915000Y19177000D01*
X81661000Y19177000D01*
X80561750Y19177000D01*
X80403000Y19018250D01*
X69940552Y19018250D01*
X58502331Y30456470D01*
X58459929Y30519929D01*
X58208537Y30687904D01*
X57986852Y30732000D01*
X57986847Y30732000D01*
X57912000Y30746888D01*
X57837153Y30732000D01*
X50463248Y30732000D01*
X50818577Y30969423D01*
X51002043Y31244000D01*
X58105199Y31244000D01*
X69259671Y20089527D01*
X69302071Y20026071D01*
X69553463Y19858096D01*
X69775148Y19814000D01*
X69775152Y19814000D01*
X69849999Y19799112D01*
X69924846Y19814000D01*
X80403000Y19814000D01*
X80403000Y19589750D01*
X80561750Y19431000D01*
X81363290Y19431000D01*
X81448754Y19414000D01*
X82127246Y19414000D01*
X82212710Y19431000D01*
X83014250Y19431000D01*
X83173000Y19589750D01*
X83173000Y19955309D01*
X83104776Y20120016D01*
X83105695Y20121391D01*
X83195725Y20574000D01*
X83105695Y21026609D01*
X82983826Y21209000D01*
X83105695Y21391391D01*
X83195725Y21844000D01*
X83105695Y22296609D01*
X82849313Y22680313D01*
X82548000Y22881643D01*
X82548000Y23673957D01*
X82822577Y23857423D01*
X83139740Y24332091D01*
X83251113Y24892000D01*
X83139740Y25451909D01*
X82822577Y25926577D01*
X82347909Y26243740D01*
X81929333Y26327000D01*
X81646667Y26327000D01*
X81228091Y26243740D01*
X80753423Y25926577D01*
X80436260Y25451909D01*
X80324887Y24892000D01*
X80436260Y24332091D01*
X80753423Y23857423D01*
X81028001Y23673956D01*
X81028000Y22881644D01*
X80726687Y22680313D01*
X80470305Y22296609D01*
X80380275Y21844000D01*
X80470305Y21391391D01*
X80508652Y21334000D01*
X70164802Y21334000D01*
X59010331Y32488470D01*
X58967929Y32551929D01*
X58716537Y32719904D01*
X58494852Y32764000D01*
X58494847Y32764000D01*
X58420000Y32778888D01*
X58345153Y32764000D01*
X51002043Y32764000D01*
X50818577Y33038577D01*
X50343909Y33355740D01*
X49925333Y33439000D01*
X49642667Y33439000D01*
X49224091Y33355740D01*
X48749423Y33038577D01*
X48432260Y32563909D01*
X48320887Y32004000D01*
X48432260Y31444091D01*
X48749423Y30969423D01*
X49104752Y30732000D01*
X29030846Y30732000D01*
X28955999Y30746888D01*
X28881152Y30732000D01*
X28881148Y30732000D01*
X28659463Y30687904D01*
X28408071Y30519929D01*
X28365671Y30456473D01*
X25206530Y27297331D01*
X25143071Y27254929D01*
X24975096Y27003536D01*
X24931000Y26781851D01*
X24931000Y26781847D01*
X24916112Y26707000D01*
X24931000Y26632153D01*
X24931000Y26048178D01*
X24620375Y25840625D01*
X24421000Y25542239D01*
X24221625Y25840625D01*
X23986000Y25998065D01*
X23986000Y26361133D01*
X30112584Y32487716D01*
X30112586Y32487719D01*
X31079868Y33455000D01*
X35135522Y33455000D01*
X35177843Y33242235D01*
X35318191Y33032191D01*
X35528235Y32891843D01*
X35776000Y32842560D01*
X37376000Y32842560D01*
X37623765Y32891843D01*
X37833809Y33032191D01*
X37974157Y33242235D01*
X38023440Y33490000D01*
X38023440Y34290000D01*
X42732887Y34290000D01*
X42844260Y33730091D01*
X43161423Y33255423D01*
X43636091Y32938260D01*
X44054667Y32855000D01*
X44337333Y32855000D01*
X44755909Y32938260D01*
X45230577Y33255423D01*
X45414043Y33530000D01*
X58359199Y33530000D01*
X66953673Y24935524D01*
X66996071Y24872071D01*
X67059524Y24829673D01*
X67059526Y24829671D01*
X67148831Y24770000D01*
X67247463Y24704096D01*
X67469148Y24660000D01*
X67469152Y24660000D01*
X67543999Y24645112D01*
X67618846Y24660000D01*
X70681091Y24660000D01*
X70749914Y24493847D01*
X71209847Y24033914D01*
X71810778Y23785000D01*
X72461222Y23785000D01*
X73062153Y24033914D01*
X73522086Y24493847D01*
X73590909Y24660000D01*
X76145153Y24660000D01*
X76220000Y24645112D01*
X76294847Y24660000D01*
X76294852Y24660000D01*
X76516537Y24704096D01*
X76767929Y24872071D01*
X76810331Y24935530D01*
X82272473Y30397671D01*
X82335929Y30440071D01*
X82503904Y30691463D01*
X82548000Y30913148D01*
X82548000Y30913152D01*
X82562888Y30987999D01*
X82548000Y31062846D01*
X82548000Y31273570D01*
X82600862Y31295466D01*
X83004534Y31699138D01*
X83223000Y32226561D01*
X83223000Y32797439D01*
X83004534Y33324862D01*
X82600862Y33728534D01*
X82073439Y33947000D01*
X81502561Y33947000D01*
X80975138Y33728534D01*
X80571466Y33324862D01*
X80353000Y32797439D01*
X80353000Y32226561D01*
X80571466Y31699138D01*
X80975138Y31295466D01*
X81007330Y31282132D01*
X75905199Y26180000D01*
X73590909Y26180000D01*
X73522086Y26346153D01*
X73062153Y26806086D01*
X72461222Y27055000D01*
X71810778Y27055000D01*
X71209847Y26806086D01*
X70749914Y26346153D01*
X70681091Y26180000D01*
X67858803Y26180000D01*
X59264331Y34774470D01*
X59221929Y34837929D01*
X58970537Y35005904D01*
X58748852Y35050000D01*
X58748847Y35050000D01*
X58674000Y35064888D01*
X58599153Y35050000D01*
X45414043Y35050000D01*
X45230577Y35324577D01*
X44755909Y35641740D01*
X44337333Y35725000D01*
X44054667Y35725000D01*
X43636091Y35641740D01*
X43161423Y35324577D01*
X42844260Y34849909D01*
X42732887Y34290000D01*
X38023440Y34290000D01*
X38023440Y35090000D01*
X37974157Y35337765D01*
X37833809Y35547809D01*
X37628117Y35685249D01*
X37937868Y35995000D01*
X59344133Y35995000D01*
X62851415Y32487717D01*
X62851415Y32487717D01*
G37*
X62851415Y32487717D02*
X62897999Y32417999D01*
X63174199Y32233448D01*
X63417763Y32185000D01*
X63500000Y32168642D01*
X63582237Y32185000D01*
X70488560Y32185000D01*
X70488560Y32020000D01*
X70537843Y31772235D01*
X70678191Y31562191D01*
X70888235Y31421843D01*
X71136000Y31372560D01*
X73136000Y31372560D01*
X73383765Y31421843D01*
X73593809Y31562191D01*
X73734157Y31772235D01*
X73783440Y32020000D01*
X73783440Y32185000D01*
X75355767Y32185000D01*
X75438000Y32168643D01*
X75520233Y32185000D01*
X75520237Y32185000D01*
X75763801Y32233448D01*
X76040001Y32417999D01*
X76086587Y32487720D01*
X78323869Y34725000D01*
X83728133Y34725000D01*
X85525000Y32928132D01*
X85525001Y28152241D01*
X85525000Y28152236D01*
X85525000Y27768236D01*
X85525001Y13290238D01*
X85508643Y13208000D01*
X85573448Y12882200D01*
X85573449Y12882199D01*
X85758000Y12605999D01*
X85827718Y12559415D01*
X87997415Y10389717D01*
X88043999Y10319999D01*
X88320199Y10135448D01*
X88563763Y10087000D01*
X88563766Y10087000D01*
X88645999Y10070643D01*
X88728232Y10087000D01*
X100034171Y10087000D01*
X99944000Y9869309D01*
X99944000Y9178750D01*
X100102750Y9020000D01*
X101302000Y9020000D01*
X101302000Y9040000D01*
X101556000Y9040000D01*
X101556000Y9020000D01*
X101576000Y9020000D01*
X101576000Y8766000D01*
X101556000Y8766000D01*
X101556000Y7566750D01*
X101714750Y7408000D01*
X102405310Y7408000D01*
X102638699Y7504673D01*
X102817327Y7683302D01*
X102883904Y7844033D01*
X102898375Y7822375D01*
X103389582Y7494161D01*
X103822744Y7408000D01*
X104115256Y7408000D01*
X104548418Y7494161D01*
X105039625Y7822375D01*
X105239000Y8120761D01*
X105438375Y7822375D01*
X105929582Y7494161D01*
X106362744Y7408000D01*
X106655256Y7408000D01*
X107088418Y7494161D01*
X107579625Y7822375D01*
X107779000Y8120761D01*
X107978375Y7822375D01*
X108469582Y7494161D01*
X108902744Y7408000D01*
X109195256Y7408000D01*
X109628418Y7494161D01*
X110119625Y7822375D01*
X110319000Y8120761D01*
X110518375Y7822375D01*
X110829000Y7614822D01*
X110829000Y7509802D01*
X109667199Y6348000D01*
X98358802Y6348000D01*
X96348331Y8358470D01*
X96305929Y8421929D01*
X96054537Y8589904D01*
X95967333Y8607250D01*
X99944000Y8607250D01*
X99944000Y7916691D01*
X100040673Y7683302D01*
X100219301Y7504673D01*
X100452690Y7408000D01*
X101143250Y7408000D01*
X101302000Y7566750D01*
X101302000Y8766000D01*
X100102750Y8766000D01*
X99944000Y8607250D01*
X95967333Y8607250D01*
X95832852Y8634000D01*
X95832847Y8634000D01*
X95758000Y8648888D01*
X95683153Y8634000D01*
X85164848Y8634000D01*
X85090000Y8648888D01*
X85015152Y8634000D01*
X85015148Y8634000D01*
X84793463Y8589904D01*
X84542071Y8421929D01*
X84499671Y8358473D01*
X80231621Y4090422D01*
X80262000Y4243148D01*
X80262000Y4243152D01*
X80276888Y4317999D01*
X80262000Y4392846D01*
X80262000Y8307152D01*
X80276888Y8382000D01*
X80262000Y8456848D01*
X80262000Y8456852D01*
X80217904Y8678537D01*
X80217904Y8678538D01*
X80092329Y8866473D01*
X80049929Y8929929D01*
X79986473Y8972329D01*
X69940552Y19018250D01*
X80403000Y19018250D01*
X80403000Y18652691D01*
X80499673Y18419302D01*
X80678301Y18240673D01*
X80911690Y18144000D01*
X81502250Y18144000D01*
X81661000Y18302750D01*
X81661000Y19177000D01*
X81915000Y19177000D01*
X81915000Y18302750D01*
X82073750Y18144000D01*
X82664310Y18144000D01*
X82897699Y18240673D01*
X83076327Y18419302D01*
X83173000Y18652691D01*
X83173000Y19018250D01*
X83014250Y19177000D01*
X81915000Y19177000D01*
X81661000Y19177000D01*
X80561750Y19177000D01*
X80403000Y19018250D01*
X69940552Y19018250D01*
X58502331Y30456470D01*
X58459929Y30519929D01*
X58208537Y30687904D01*
X57986852Y30732000D01*
X57986847Y30732000D01*
X57912000Y30746888D01*
X57837153Y30732000D01*
X50463248Y30732000D01*
X50818577Y30969423D01*
X51002043Y31244000D01*
X58105199Y31244000D01*
X69259671Y20089527D01*
X69302071Y20026071D01*
X69553463Y19858096D01*
X69775148Y19814000D01*
X69775152Y19814000D01*
X69849999Y19799112D01*
X69924846Y19814000D01*
X80403000Y19814000D01*
X80403000Y19589750D01*
X80561750Y19431000D01*
X81363290Y19431000D01*
X81448754Y19414000D01*
X82127246Y19414000D01*
X82212710Y19431000D01*
X83014250Y19431000D01*
X83173000Y19589750D01*
X83173000Y19955309D01*
X83104776Y20120016D01*
X83105695Y20121391D01*
X83195725Y20574000D01*
X83105695Y21026609D01*
X82983826Y21209000D01*
X83105695Y21391391D01*
X83195725Y21844000D01*
X83105695Y22296609D01*
X82849313Y22680313D01*
X82548000Y22881643D01*
X82548000Y23673957D01*
X82822577Y23857423D01*
X83139740Y24332091D01*
X83251113Y24892000D01*
X83139740Y25451909D01*
X82822577Y25926577D01*
X82347909Y26243740D01*
X81929333Y26327000D01*
X81646667Y26327000D01*
X81228091Y26243740D01*
X80753423Y25926577D01*
X80436260Y25451909D01*
X80324887Y24892000D01*
X80436260Y24332091D01*
X80753423Y23857423D01*
X81028001Y23673956D01*
X81028000Y22881644D01*
X80726687Y22680313D01*
X80470305Y22296609D01*
X80380275Y21844000D01*
X80470305Y21391391D01*
X80508652Y21334000D01*
X70164802Y21334000D01*
X59010331Y32488470D01*
X58967929Y32551929D01*
X58716537Y32719904D01*
X58494852Y32764000D01*
X58494847Y32764000D01*
X58420000Y32778888D01*
X58345153Y32764000D01*
X51002043Y32764000D01*
X50818577Y33038577D01*
X50343909Y33355740D01*
X49925333Y33439000D01*
X49642667Y33439000D01*
X49224091Y33355740D01*
X48749423Y33038577D01*
X48432260Y32563909D01*
X48320887Y32004000D01*
X48432260Y31444091D01*
X48749423Y30969423D01*
X49104752Y30732000D01*
X29030846Y30732000D01*
X28955999Y30746888D01*
X28881152Y30732000D01*
X28881148Y30732000D01*
X28659463Y30687904D01*
X28408071Y30519929D01*
X28365671Y30456473D01*
X25206530Y27297331D01*
X25143071Y27254929D01*
X24975096Y27003536D01*
X24931000Y26781851D01*
X24931000Y26781847D01*
X24916112Y26707000D01*
X24931000Y26632153D01*
X24931000Y26048178D01*
X24620375Y25840625D01*
X24421000Y25542239D01*
X24221625Y25840625D01*
X23986000Y25998065D01*
X23986000Y26361133D01*
X30112584Y32487716D01*
X30112586Y32487719D01*
X31079868Y33455000D01*
X35135522Y33455000D01*
X35177843Y33242235D01*
X35318191Y33032191D01*
X35528235Y32891843D01*
X35776000Y32842560D01*
X37376000Y32842560D01*
X37623765Y32891843D01*
X37833809Y33032191D01*
X37974157Y33242235D01*
X38023440Y33490000D01*
X38023440Y34290000D01*
X42732887Y34290000D01*
X42844260Y33730091D01*
X43161423Y33255423D01*
X43636091Y32938260D01*
X44054667Y32855000D01*
X44337333Y32855000D01*
X44755909Y32938260D01*
X45230577Y33255423D01*
X45414043Y33530000D01*
X58359199Y33530000D01*
X66953673Y24935524D01*
X66996071Y24872071D01*
X67059524Y24829673D01*
X67059526Y24829671D01*
X67148831Y24770000D01*
X67247463Y24704096D01*
X67469148Y24660000D01*
X67469152Y24660000D01*
X67543999Y24645112D01*
X67618846Y24660000D01*
X70681091Y24660000D01*
X70749914Y24493847D01*
X71209847Y24033914D01*
X71810778Y23785000D01*
X72461222Y23785000D01*
X73062153Y24033914D01*
X73522086Y24493847D01*
X73590909Y24660000D01*
X76145153Y24660000D01*
X76220000Y24645112D01*
X76294847Y24660000D01*
X76294852Y24660000D01*
X76516537Y24704096D01*
X76767929Y24872071D01*
X76810331Y24935530D01*
X82272473Y30397671D01*
X82335929Y30440071D01*
X82503904Y30691463D01*
X82548000Y30913148D01*
X82548000Y30913152D01*
X82562888Y30987999D01*
X82548000Y31062846D01*
X82548000Y31273570D01*
X82600862Y31295466D01*
X83004534Y31699138D01*
X83223000Y32226561D01*
X83223000Y32797439D01*
X83004534Y33324862D01*
X82600862Y33728534D01*
X82073439Y33947000D01*
X81502561Y33947000D01*
X80975138Y33728534D01*
X80571466Y33324862D01*
X80353000Y32797439D01*
X80353000Y32226561D01*
X80571466Y31699138D01*
X80975138Y31295466D01*
X81007330Y31282132D01*
X75905199Y26180000D01*
X73590909Y26180000D01*
X73522086Y26346153D01*
X73062153Y26806086D01*
X72461222Y27055000D01*
X71810778Y27055000D01*
X71209847Y26806086D01*
X70749914Y26346153D01*
X70681091Y26180000D01*
X67858803Y26180000D01*
X59264331Y34774470D01*
X59221929Y34837929D01*
X58970537Y35005904D01*
X58748852Y35050000D01*
X58748847Y35050000D01*
X58674000Y35064888D01*
X58599153Y35050000D01*
X45414043Y35050000D01*
X45230577Y35324577D01*
X44755909Y35641740D01*
X44337333Y35725000D01*
X44054667Y35725000D01*
X43636091Y35641740D01*
X43161423Y35324577D01*
X42844260Y34849909D01*
X42732887Y34290000D01*
X38023440Y34290000D01*
X38023440Y35090000D01*
X37974157Y35337765D01*
X37833809Y35547809D01*
X37628117Y35685249D01*
X37937868Y35995000D01*
X59344133Y35995000D01*
X62851415Y32487717D01*
G04 #@! TD*
M02*
