G04 #@! TF.GenerationSoftware,KiCad,Pcbnew,5.0.2-bee76a0~70~ubuntu18.04.1*
G04 #@! TF.CreationDate,2019-01-16T04:19:47-08:00*
G04 #@! TF.ProjectId,Marlin_UIBOX,4d61726c-696e-45f5-9549-424f582e6b69,rev?*
G04 #@! TF.SameCoordinates,PX55c0260PY70276d0*
G04 #@! TF.FileFunction,Profile,NP*
%FSLAX46Y46*%
G04 Gerber Fmt 4.6, Leading zero omitted, Abs format (unit mm)*
G04 Created by KiCad (PCBNEW 5.0.2-bee76a0~70~ubuntu18.04.1) date Wed 16 Jan 2019 04:19:47 AM PST*
%MOMM*%
%LPD*%
G01*
G04 APERTURE LIST*
%ADD10C,0.200000*%
G04 APERTURE END LIST*
D10*
X21107400Y302000D02*
X24111000Y3302000D01*
X4334000Y302000D02*
X21107400Y302000D01*
X31111000Y3302000D02*
X34112200Y302000D01*
X24111000Y3302000D02*
X31111000Y3302000D01*
X4334000Y42302000D02*
X20611000Y42302000D01*
X31111000Y38802000D02*
X34611000Y42302000D01*
X20611000Y42302000D02*
X24111000Y38802000D01*
X24111000Y38802000D02*
X31111000Y38802000D01*
X34611000Y42302000D02*
X125534000Y42302000D01*
X334000Y38302000D02*
X4334000Y42302000D01*
X125534000Y42302000D02*
X129534000Y38302000D01*
X129534000Y4302000D02*
X125534000Y302000D01*
X118448214Y38802000D02*
X94619787Y38802000D01*
X124034000Y33216214D02*
X124034000Y11802000D01*
X89034000Y33216214D02*
X89034000Y11802000D01*
X89034000Y33216214D02*
X94619787Y38802000D01*
X118448214Y38802000D02*
X124034000Y33216214D01*
X129534000Y38302000D02*
X129534000Y4302000D01*
X34112200Y302000D02*
X125534000Y302000D01*
X334000Y38302000D02*
X334000Y4302000D01*
X4334000Y302000D02*
X334000Y4302000D01*
X89034000Y11802000D02*
X124034000Y11802000D01*
M02*
