G04 #@! TF.GenerationSoftware,KiCad,Pcbnew,5.0.2-bee76a0~70~ubuntu18.04.1*
G04 #@! TF.CreationDate,2019-01-15T17:32:11-08:00*
G04 #@! TF.ProjectId,Marlin_UIBOX,4d61726c-696e-45f5-9549-424f582e6b69,rev?*
G04 #@! TF.SameCoordinates,PX55c0260PY70276d0*
G04 #@! TF.FileFunction,Copper,L1,Top*
G04 #@! TF.FilePolarity,Positive*
%FSLAX46Y46*%
G04 Gerber Fmt 4.6, Leading zero omitted, Abs format (unit mm)*
G04 Created by KiCad (PCBNEW 5.0.2-bee76a0~70~ubuntu18.04.1) date Tue 15 Jan 2019 05:32:11 PM PST*
%MOMM*%
%LPD*%
G01*
G04 APERTURE LIST*
G04 #@! TA.AperFunction,ComponentPad*
%ADD10C,5.500000*%
G04 #@! TD*
G04 #@! TA.AperFunction,ComponentPad*
%ADD11R,1.727200X1.727200*%
G04 #@! TD*
G04 #@! TA.AperFunction,ComponentPad*
%ADD12O,1.727200X1.727200*%
G04 #@! TD*
G04 #@! TA.AperFunction,ComponentPad*
%ADD13R,1.700000X1.700000*%
G04 #@! TD*
G04 #@! TA.AperFunction,ComponentPad*
%ADD14O,1.700000X1.700000*%
G04 #@! TD*
G04 #@! TA.AperFunction,ComponentPad*
%ADD15R,1.600000X1.600000*%
G04 #@! TD*
G04 #@! TA.AperFunction,ComponentPad*
%ADD16O,1.600000X1.600000*%
G04 #@! TD*
G04 #@! TA.AperFunction,ComponentPad*
%ADD17R,2.000000X2.000000*%
G04 #@! TD*
G04 #@! TA.AperFunction,ComponentPad*
%ADD18C,2.000000*%
G04 #@! TD*
G04 #@! TA.AperFunction,ComponentPad*
%ADD19O,1.500000X1.050000*%
G04 #@! TD*
G04 #@! TA.AperFunction,ComponentPad*
%ADD20R,1.500000X1.050000*%
G04 #@! TD*
G04 #@! TA.AperFunction,ComponentPad*
%ADD21C,1.600000*%
G04 #@! TD*
G04 #@! TA.AperFunction,Conductor*
%ADD22C,0.400000*%
G04 #@! TD*
G04 #@! TA.AperFunction,Conductor*
%ADD23C,0.250000*%
G04 #@! TD*
G04 #@! TA.AperFunction,Conductor*
%ADD24C,0.254000*%
G04 #@! TD*
G04 APERTURE END LIST*
D10*
G04 #@! TO.P,REF\002A\002A,1*
G04 #@! TO.N,N/C*
X124534000Y3302000D03*
G04 #@! TD*
G04 #@! TO.P,REF\002A\002A,1*
G04 #@! TO.N,N/C*
X124534000Y39302000D03*
G04 #@! TD*
G04 #@! TO.P,REF\002A\002A,1*
G04 #@! TO.N,N/C*
X88534000Y39302000D03*
G04 #@! TD*
G04 #@! TO.P,REF\002A\002A,1*
G04 #@! TO.N,N/C*
X88534000Y3302000D03*
G04 #@! TD*
G04 #@! TO.P,REF\002A\002A,1*
G04 #@! TO.N,N/C*
X5334000Y3302000D03*
G04 #@! TD*
G04 #@! TO.P,REF\002A\002A,1*
G04 #@! TO.N,N/C*
X5334000Y39302000D03*
G04 #@! TD*
D11*
G04 #@! TO.P,J1,1*
G04 #@! TO.N,VCC*
X41607000Y6223000D03*
D12*
G04 #@! TO.P,J1,2*
G04 #@! TO.N,GND*
X41607000Y3683000D03*
G04 #@! TO.P,J1,3*
G04 #@! TO.N,Net-(J1-Pad3)*
X44147000Y6223000D03*
G04 #@! TO.P,J1,4*
G04 #@! TO.N,/LCD_DC*
X44147000Y3683000D03*
G04 #@! TO.P,J1,5*
G04 #@! TO.N,/LCD_CS*
X46687000Y6223000D03*
G04 #@! TO.P,J1,6*
G04 #@! TO.N,Net-(J1-Pad6)*
X46687000Y3683000D03*
G04 #@! TO.P,J1,7*
G04 #@! TO.N,/LCD_RES*
X49227000Y6223000D03*
G04 #@! TO.P,J1,8*
G04 #@! TO.N,Net-(J1-Pad8)*
X49227000Y3683000D03*
G04 #@! TO.P,J1,9*
G04 #@! TO.N,/BT_SW*
X51767000Y6223000D03*
G04 #@! TO.P,J1,10*
G04 #@! TO.N,/BEEPER*
X51767000Y3683000D03*
G04 #@! TD*
G04 #@! TO.P,J2,10*
G04 #@! TO.N,/MISO*
X77407000Y3810000D03*
G04 #@! TO.P,J2,9*
G04 #@! TO.N,/SCK*
X77407000Y6350000D03*
G04 #@! TO.P,J2,8*
G04 #@! TO.N,/BT_EN2*
X74867000Y3810000D03*
G04 #@! TO.P,J2,7*
G04 #@! TO.N,/SD_SS*
X74867000Y6350000D03*
G04 #@! TO.P,J2,6*
G04 #@! TO.N,/BT_EN1*
X72327000Y3810000D03*
G04 #@! TO.P,J2,5*
G04 #@! TO.N,/MOSI*
X72327000Y6350000D03*
G04 #@! TO.P,J2,4*
G04 #@! TO.N,/SD_DET*
X69787000Y3810000D03*
G04 #@! TO.P,J2,3*
G04 #@! TO.N,Net-(J2-Pad3)*
X69787000Y6350000D03*
G04 #@! TO.P,J2,2*
G04 #@! TO.N,GND*
X67247000Y3810000D03*
D11*
G04 #@! TO.P,J2,1*
G04 #@! TO.N,Net-(J2-Pad1)*
X67247000Y6350000D03*
G04 #@! TD*
D13*
G04 #@! TO.P,J4,1*
G04 #@! TO.N,GND*
X20611000Y24770000D03*
D14*
G04 #@! TO.P,J4,2*
G04 #@! TO.N,VCC*
X23151000Y24770000D03*
G04 #@! TO.P,J4,3*
G04 #@! TO.N,/MISO*
X25691000Y24770000D03*
G04 #@! TO.P,J4,4*
G04 #@! TO.N,/MOSI*
X28231000Y24770000D03*
G04 #@! TO.P,J4,5*
G04 #@! TO.N,/SCK*
X30771000Y24770000D03*
G04 #@! TO.P,J4,6*
G04 #@! TO.N,/SD_SS*
X33311000Y24770000D03*
G04 #@! TO.P,J4,7*
G04 #@! TO.N,/SD_DET*
X35851000Y24770000D03*
G04 #@! TD*
D15*
G04 #@! TO.P,D1,1*
G04 #@! TO.N,VCC*
X36576000Y34290000D03*
D16*
G04 #@! TO.P,D1,2*
G04 #@! TO.N,Net-(D1-Pad2)*
X44196000Y34290000D03*
G04 #@! TD*
D13*
G04 #@! TO.P,J3,1*
G04 #@! TO.N,GND*
X13434000Y14282000D03*
D14*
G04 #@! TO.P,J3,2*
G04 #@! TO.N,VCC*
X13434000Y16822000D03*
G04 #@! TO.P,J3,3*
G04 #@! TO.N,/SCK*
X13434000Y19362000D03*
G04 #@! TO.P,J3,4*
G04 #@! TO.N,/MOSI*
X13434000Y21902000D03*
G04 #@! TO.P,J3,5*
G04 #@! TO.N,/LCD_RES*
X13434000Y24442000D03*
G04 #@! TO.P,J3,6*
G04 #@! TO.N,/LCD_DC*
X13434000Y26982000D03*
G04 #@! TO.P,J3,7*
G04 #@! TO.N,/LCD_CS*
X13434000Y29522000D03*
G04 #@! TD*
D13*
G04 #@! TO.P,J5,1*
G04 #@! TO.N,GND*
X101429000Y8893000D03*
D14*
G04 #@! TO.P,J5,2*
G04 #@! TO.N,VCC*
X103969000Y8893000D03*
G04 #@! TO.P,J5,3*
G04 #@! TO.N,/BT_SW*
X106509000Y8893000D03*
G04 #@! TO.P,J5,4*
G04 #@! TO.N,/BT_EN1*
X109049000Y8893000D03*
G04 #@! TO.P,J5,5*
G04 #@! TO.N,/BT_EN2*
X111589000Y8893000D03*
G04 #@! TD*
D17*
G04 #@! TO.P,LS1,1*
G04 #@! TO.N,VCC*
X72136000Y33020000D03*
D18*
G04 #@! TO.P,LS1,2*
G04 #@! TO.N,Net-(D1-Pad2)*
X72136000Y25420000D03*
G04 #@! TD*
D19*
G04 #@! TO.P,Q1,2*
G04 #@! TO.N,Net-(Q1-Pad2)*
X81788000Y20574000D03*
G04 #@! TO.P,Q1,3*
G04 #@! TO.N,Net-(Q1-Pad3)*
X81788000Y21844000D03*
D20*
G04 #@! TO.P,Q1,1*
G04 #@! TO.N,GND*
X81788000Y19304000D03*
G04 #@! TD*
D16*
G04 #@! TO.P,R1,2*
G04 #@! TO.N,Net-(Q1-Pad2)*
X49784000Y32004000D03*
D21*
G04 #@! TO.P,R1,1*
G04 #@! TO.N,/BEEPER*
X49784000Y24384000D03*
G04 #@! TD*
G04 #@! TO.P,R2,1*
G04 #@! TO.N,Net-(D1-Pad2)*
X81788000Y32512000D03*
D16*
G04 #@! TO.P,R2,2*
G04 #@! TO.N,Net-(Q1-Pad3)*
X81788000Y24892000D03*
G04 #@! TD*
D22*
G04 #@! TO.N,GND*
X65532000Y19304000D02*
X81788000Y19304000D01*
X64516000Y18288000D02*
X65532000Y19304000D01*
X64516000Y4826000D02*
X64516000Y18288000D01*
X67247000Y3810000D02*
X65532000Y3810000D01*
X65532000Y3810000D02*
X64516000Y4826000D01*
D23*
G04 #@! TO.N,/LCD_CS*
X11742000Y29522000D02*
X13434000Y29522000D01*
X46687000Y7669000D02*
X44958000Y9398000D01*
X44958000Y9398000D02*
X12446000Y9398000D01*
X46687000Y6223000D02*
X46687000Y7669000D01*
X12446000Y9398000D02*
X9906000Y11938000D01*
X9906000Y27686000D02*
X11742000Y29522000D01*
X9906000Y11938000D02*
X9906000Y27686000D01*
G04 #@! TO.N,/LCD_RES*
X49227000Y7669000D02*
X49227000Y6223000D01*
X11742000Y24442000D02*
X10668000Y23368000D01*
X10668000Y12446000D02*
X12700000Y10414000D01*
X13434000Y24442000D02*
X11742000Y24442000D01*
X10668000Y23368000D02*
X10668000Y12446000D01*
X12700000Y10414000D02*
X46482000Y10414000D01*
X46482000Y10414000D02*
X49227000Y7669000D01*
G04 #@! TO.N,/BT_SW*
X59055000Y6223000D02*
X51767000Y6223000D01*
X79248000Y1016000D02*
X64262000Y1016000D01*
X64262000Y1016000D02*
X59055000Y6223000D01*
X106509000Y7195000D02*
X105156000Y5842000D01*
X106509000Y8893000D02*
X106509000Y7195000D01*
X105156000Y5842000D02*
X97028000Y5842000D01*
X97028000Y5842000D02*
X94488000Y8382000D01*
X94488000Y8382000D02*
X86614000Y8382000D01*
X86614000Y8382000D02*
X79248000Y1016000D01*
G04 #@! TO.N,/SCK*
X30771000Y22897000D02*
X30771000Y24770000D01*
X13434000Y19362000D02*
X27236000Y19362000D01*
X27236000Y19362000D02*
X30771000Y22897000D01*
G04 #@! TO.N,/MOSI*
X28231000Y22643000D02*
X28231000Y24770000D01*
X27432000Y21844000D02*
X28231000Y22643000D01*
X13434000Y21902000D02*
X13492000Y21844000D01*
X13492000Y21844000D02*
X27432000Y21844000D01*
G04 #@! TO.N,/SD_DET*
X69787000Y2477000D02*
X69787000Y3810000D01*
X69342000Y2032000D02*
X69787000Y2477000D01*
X64770000Y2032000D02*
X69342000Y2032000D01*
X35851000Y24770000D02*
X42032000Y24770000D01*
X42032000Y24770000D02*
X64770000Y2032000D01*
G04 #@! TD*
D24*
G04 #@! TO.N,GND*
G36*
X24013090Y38333463D02*
X24054095Y38272095D01*
X24297217Y38109646D01*
X24511612Y38067000D01*
X24511615Y38067000D01*
X24583999Y38052602D01*
X24656383Y38067000D01*
X31511616Y38067000D01*
X31584000Y38052602D01*
X31656384Y38067000D01*
X31656388Y38067000D01*
X31870783Y38109646D01*
X32113905Y38272095D01*
X32154911Y38333465D01*
X35388447Y41567000D01*
X86011888Y41567000D01*
X85664336Y41219448D01*
X85149000Y39975318D01*
X85149000Y38628682D01*
X85664336Y37384552D01*
X86616552Y36432336D01*
X87860682Y35917000D01*
X89207318Y35917000D01*
X90451448Y36432336D01*
X91403664Y37384552D01*
X91919000Y38628682D01*
X91919000Y39975318D01*
X91403664Y41219448D01*
X91056112Y41567000D01*
X122011888Y41567000D01*
X121664336Y41219448D01*
X121149000Y39975318D01*
X121149000Y38628682D01*
X121664336Y37384552D01*
X122616552Y36432336D01*
X123860682Y35917000D01*
X125207318Y35917000D01*
X126451448Y36432336D01*
X127403664Y37384552D01*
X127919000Y38628682D01*
X127919000Y39877553D01*
X128799000Y38997553D01*
X128799001Y3606448D01*
X127919000Y2726447D01*
X127919000Y3975318D01*
X127403664Y5219448D01*
X126451448Y6171664D01*
X125207318Y6687000D01*
X123860682Y6687000D01*
X122616552Y6171664D01*
X121664336Y5219448D01*
X121149000Y3975318D01*
X121149000Y2628682D01*
X121664336Y1384552D01*
X122011888Y1037000D01*
X91056112Y1037000D01*
X91403664Y1384552D01*
X91919000Y2628682D01*
X91919000Y3975318D01*
X91403664Y5219448D01*
X90451448Y6171664D01*
X89207318Y6687000D01*
X87860682Y6687000D01*
X86616552Y6171664D01*
X85664336Y5219448D01*
X85149000Y3975318D01*
X85149000Y2628682D01*
X85664336Y1384552D01*
X86011888Y1037000D01*
X80343801Y1037000D01*
X86928802Y7622000D01*
X94173199Y7622000D01*
X96437673Y5357524D01*
X96480071Y5294071D01*
X96543524Y5251673D01*
X96543526Y5251671D01*
X96668902Y5167898D01*
X96731463Y5126096D01*
X96953148Y5082000D01*
X96953152Y5082000D01*
X97027999Y5067112D01*
X97102846Y5082000D01*
X105081153Y5082000D01*
X105156000Y5067112D01*
X105230847Y5082000D01*
X105230852Y5082000D01*
X105452537Y5126096D01*
X105703929Y5294071D01*
X105746331Y5357530D01*
X106993473Y6604671D01*
X107056929Y6647071D01*
X107224904Y6898463D01*
X107269000Y7120148D01*
X107269000Y7120153D01*
X107283888Y7195000D01*
X107269000Y7269847D01*
X107269000Y7614822D01*
X107579625Y7822375D01*
X107779000Y8120761D01*
X107978375Y7822375D01*
X108469582Y7494161D01*
X108902744Y7408000D01*
X109195256Y7408000D01*
X109628418Y7494161D01*
X110119625Y7822375D01*
X110319000Y8120761D01*
X110518375Y7822375D01*
X111009582Y7494161D01*
X111442744Y7408000D01*
X111735256Y7408000D01*
X112168418Y7494161D01*
X112659625Y7822375D01*
X112987839Y8313582D01*
X113103092Y8893000D01*
X112987839Y9472418D01*
X112659625Y9963625D01*
X112168418Y10291839D01*
X111735256Y10378000D01*
X111442744Y10378000D01*
X111009582Y10291839D01*
X110518375Y9963625D01*
X110319000Y9665239D01*
X110119625Y9963625D01*
X109628418Y10291839D01*
X109195256Y10378000D01*
X108902744Y10378000D01*
X108469582Y10291839D01*
X107978375Y9963625D01*
X107779000Y9665239D01*
X107579625Y9963625D01*
X107088418Y10291839D01*
X106655256Y10378000D01*
X106362744Y10378000D01*
X105929582Y10291839D01*
X105438375Y9963625D01*
X105239000Y9665239D01*
X105039625Y9963625D01*
X104548418Y10291839D01*
X104115256Y10378000D01*
X103822744Y10378000D01*
X103389582Y10291839D01*
X102898375Y9963625D01*
X102883904Y9941967D01*
X102817327Y10102698D01*
X102638699Y10281327D01*
X102405310Y10378000D01*
X101714750Y10378000D01*
X101556000Y10219250D01*
X101556000Y9020000D01*
X101576000Y9020000D01*
X101576000Y8766000D01*
X101556000Y8766000D01*
X101556000Y7566750D01*
X101714750Y7408000D01*
X102405310Y7408000D01*
X102638699Y7504673D01*
X102817327Y7683302D01*
X102883904Y7844033D01*
X102898375Y7822375D01*
X103389582Y7494161D01*
X103822744Y7408000D01*
X104115256Y7408000D01*
X104548418Y7494161D01*
X105039625Y7822375D01*
X105239000Y8120761D01*
X105438375Y7822375D01*
X105749001Y7614822D01*
X105749001Y7509803D01*
X104841199Y6602000D01*
X97342803Y6602000D01*
X95337552Y8607250D01*
X99944000Y8607250D01*
X99944000Y7916691D01*
X100040673Y7683302D01*
X100219301Y7504673D01*
X100452690Y7408000D01*
X101143250Y7408000D01*
X101302000Y7566750D01*
X101302000Y8766000D01*
X100102750Y8766000D01*
X99944000Y8607250D01*
X95337552Y8607250D01*
X95078331Y8866470D01*
X95035929Y8929929D01*
X94784537Y9097904D01*
X94562852Y9142000D01*
X94562847Y9142000D01*
X94488000Y9156888D01*
X94413153Y9142000D01*
X86688846Y9142000D01*
X86613999Y9156888D01*
X86539152Y9142000D01*
X86539148Y9142000D01*
X86317463Y9097904D01*
X86066071Y8929929D01*
X86023671Y8866473D01*
X78933199Y1776000D01*
X70160801Y1776000D01*
X70271470Y1886669D01*
X70334929Y1929071D01*
X70502904Y2180463D01*
X70547000Y2402148D01*
X70547000Y2402152D01*
X70561888Y2476999D01*
X70553388Y2519733D01*
X70867430Y2729570D01*
X71057000Y3013281D01*
X71246570Y2729570D01*
X71742275Y2398350D01*
X72179402Y2311400D01*
X72474598Y2311400D01*
X72911725Y2398350D01*
X73407430Y2729570D01*
X73597000Y3013281D01*
X73786570Y2729570D01*
X74282275Y2398350D01*
X74719402Y2311400D01*
X75014598Y2311400D01*
X75451725Y2398350D01*
X75947430Y2729570D01*
X76137000Y3013281D01*
X76326570Y2729570D01*
X76822275Y2398350D01*
X77259402Y2311400D01*
X77554598Y2311400D01*
X77991725Y2398350D01*
X78487430Y2729570D01*
X78818650Y3225275D01*
X78934959Y3810000D01*
X78818650Y4394725D01*
X78487430Y4890430D01*
X78203719Y5080000D01*
X78487430Y5269570D01*
X78818650Y5765275D01*
X78934959Y6350000D01*
X78818650Y6934725D01*
X78487430Y7430430D01*
X77991725Y7761650D01*
X77554598Y7848600D01*
X77259402Y7848600D01*
X76822275Y7761650D01*
X76326570Y7430430D01*
X76137000Y7146719D01*
X75947430Y7430430D01*
X75451725Y7761650D01*
X75014598Y7848600D01*
X74719402Y7848600D01*
X74282275Y7761650D01*
X73786570Y7430430D01*
X73597000Y7146719D01*
X73407430Y7430430D01*
X72911725Y7761650D01*
X72474598Y7848600D01*
X72179402Y7848600D01*
X71742275Y7761650D01*
X71246570Y7430430D01*
X71057000Y7146719D01*
X70867430Y7430430D01*
X70371725Y7761650D01*
X69934598Y7848600D01*
X69639402Y7848600D01*
X69202275Y7761650D01*
X68713932Y7435349D01*
X68708757Y7461365D01*
X68568409Y7671409D01*
X68358365Y7811757D01*
X68110600Y7861040D01*
X66383400Y7861040D01*
X66135635Y7811757D01*
X65925591Y7671409D01*
X65785243Y7461365D01*
X65735960Y7213600D01*
X65735960Y5486400D01*
X65785243Y5238635D01*
X65925591Y5028591D01*
X66135635Y4888243D01*
X66227950Y4869881D01*
X66040179Y4698490D01*
X65792032Y4169027D01*
X65912531Y3937000D01*
X67120000Y3937000D01*
X67120000Y3957000D01*
X67374000Y3957000D01*
X67374000Y3937000D01*
X67394000Y3937000D01*
X67394000Y3683000D01*
X67374000Y3683000D01*
X67374000Y3663000D01*
X67120000Y3663000D01*
X67120000Y3683000D01*
X65912531Y3683000D01*
X65792032Y3450973D01*
X66040179Y2921510D01*
X66182067Y2792000D01*
X65084802Y2792000D01*
X58007493Y9869309D01*
X99944000Y9869309D01*
X99944000Y9178750D01*
X100102750Y9020000D01*
X101302000Y9020000D01*
X101302000Y10219250D01*
X101143250Y10378000D01*
X100452690Y10378000D01*
X100219301Y10281327D01*
X100040673Y10102698D01*
X99944000Y9869309D01*
X58007493Y9869309D01*
X56074802Y11802000D01*
X88284601Y11802000D01*
X88341646Y11515217D01*
X88504095Y11272095D01*
X88747217Y11109646D01*
X88961612Y11067000D01*
X89034000Y11052601D01*
X89106388Y11067000D01*
X123961612Y11067000D01*
X124034000Y11052601D01*
X124106388Y11067000D01*
X124320783Y11109646D01*
X124563905Y11272095D01*
X124726354Y11515217D01*
X124783399Y11802000D01*
X124769000Y11874388D01*
X124769000Y33143831D01*
X124783398Y33216215D01*
X124769000Y33288601D01*
X124769000Y33288602D01*
X124726354Y33502997D01*
X124563905Y33746119D01*
X124502538Y33787123D01*
X119019125Y39270535D01*
X118978119Y39331905D01*
X118734997Y39494354D01*
X118520602Y39537000D01*
X118520598Y39537000D01*
X118448214Y39551398D01*
X118375830Y39537000D01*
X94692171Y39537000D01*
X94619787Y39551398D01*
X94547403Y39537000D01*
X94547399Y39537000D01*
X94333004Y39494354D01*
X94089882Y39331905D01*
X94048878Y39270538D01*
X88565465Y33787125D01*
X88504095Y33746119D01*
X88341646Y33502996D01*
X88299000Y33288601D01*
X88299000Y33288598D01*
X88284602Y33216214D01*
X88299000Y33143830D01*
X88299001Y11874393D01*
X88284601Y11802000D01*
X56074802Y11802000D01*
X48858552Y19018250D01*
X80403000Y19018250D01*
X80403000Y18652691D01*
X80499673Y18419302D01*
X80678301Y18240673D01*
X80911690Y18144000D01*
X81502250Y18144000D01*
X81661000Y18302750D01*
X81661000Y19177000D01*
X81915000Y19177000D01*
X81915000Y18302750D01*
X82073750Y18144000D01*
X82664310Y18144000D01*
X82897699Y18240673D01*
X83076327Y18419302D01*
X83173000Y18652691D01*
X83173000Y19018250D01*
X83014250Y19177000D01*
X81915000Y19177000D01*
X81661000Y19177000D01*
X80561750Y19177000D01*
X80403000Y19018250D01*
X48858552Y19018250D01*
X46032802Y21844000D01*
X80380275Y21844000D01*
X80470305Y21391391D01*
X80592174Y21209000D01*
X80470305Y21026609D01*
X80380275Y20574000D01*
X80470305Y20121391D01*
X80471224Y20120016D01*
X80403000Y19955309D01*
X80403000Y19589750D01*
X80561750Y19431000D01*
X81363290Y19431000D01*
X81448754Y19414000D01*
X82127246Y19414000D01*
X82212710Y19431000D01*
X83014250Y19431000D01*
X83173000Y19589750D01*
X83173000Y19955309D01*
X83104776Y20120016D01*
X83105695Y20121391D01*
X83195725Y20574000D01*
X83105695Y21026609D01*
X82983826Y21209000D01*
X83105695Y21391391D01*
X83195725Y21844000D01*
X83105695Y22296609D01*
X82849313Y22680313D01*
X82465609Y22936695D01*
X82127246Y23004000D01*
X81448754Y23004000D01*
X81110391Y22936695D01*
X80726687Y22680313D01*
X80470305Y22296609D01*
X80380275Y21844000D01*
X46032802Y21844000D01*
X43207363Y24669439D01*
X48349000Y24669439D01*
X48349000Y24098561D01*
X48567466Y23571138D01*
X48971138Y23167466D01*
X49498561Y22949000D01*
X50069439Y22949000D01*
X50596862Y23167466D01*
X51000534Y23571138D01*
X51219000Y24098561D01*
X51219000Y24669439D01*
X51000534Y25196862D01*
X50596862Y25600534D01*
X50247555Y25745222D01*
X70501000Y25745222D01*
X70501000Y25094778D01*
X70749914Y24493847D01*
X71209847Y24033914D01*
X71810778Y23785000D01*
X72461222Y23785000D01*
X73062153Y24033914D01*
X73522086Y24493847D01*
X73687006Y24892000D01*
X80324887Y24892000D01*
X80436260Y24332091D01*
X80753423Y23857423D01*
X81228091Y23540260D01*
X81646667Y23457000D01*
X81929333Y23457000D01*
X82347909Y23540260D01*
X82822577Y23857423D01*
X83139740Y24332091D01*
X83251113Y24892000D01*
X83139740Y25451909D01*
X82822577Y25926577D01*
X82347909Y26243740D01*
X81929333Y26327000D01*
X81646667Y26327000D01*
X81228091Y26243740D01*
X80753423Y25926577D01*
X80436260Y25451909D01*
X80324887Y24892000D01*
X73687006Y24892000D01*
X73771000Y25094778D01*
X73771000Y25745222D01*
X73522086Y26346153D01*
X73062153Y26806086D01*
X72461222Y27055000D01*
X71810778Y27055000D01*
X71209847Y26806086D01*
X70749914Y26346153D01*
X70501000Y25745222D01*
X50247555Y25745222D01*
X50069439Y25819000D01*
X49498561Y25819000D01*
X48971138Y25600534D01*
X48567466Y25196862D01*
X48349000Y24669439D01*
X43207363Y24669439D01*
X42622331Y25254470D01*
X42579929Y25317929D01*
X42328537Y25485904D01*
X42106852Y25530000D01*
X42106847Y25530000D01*
X42032000Y25544888D01*
X41957153Y25530000D01*
X37129178Y25530000D01*
X36921625Y25840625D01*
X36430418Y26168839D01*
X35997256Y26255000D01*
X35704744Y26255000D01*
X35271582Y26168839D01*
X34780375Y25840625D01*
X34581000Y25542239D01*
X34381625Y25840625D01*
X33890418Y26168839D01*
X33457256Y26255000D01*
X33164744Y26255000D01*
X32731582Y26168839D01*
X32240375Y25840625D01*
X32041000Y25542239D01*
X31841625Y25840625D01*
X31350418Y26168839D01*
X30917256Y26255000D01*
X30624744Y26255000D01*
X30191582Y26168839D01*
X29700375Y25840625D01*
X29501000Y25542239D01*
X29301625Y25840625D01*
X28810418Y26168839D01*
X28377256Y26255000D01*
X28084744Y26255000D01*
X27651582Y26168839D01*
X27160375Y25840625D01*
X26961000Y25542239D01*
X26761625Y25840625D01*
X26270418Y26168839D01*
X25837256Y26255000D01*
X25544744Y26255000D01*
X25111582Y26168839D01*
X24620375Y25840625D01*
X24421000Y25542239D01*
X24221625Y25840625D01*
X23730418Y26168839D01*
X23297256Y26255000D01*
X23004744Y26255000D01*
X22571582Y26168839D01*
X22080375Y25840625D01*
X22065904Y25818967D01*
X21999327Y25979698D01*
X21820699Y26158327D01*
X21587310Y26255000D01*
X20896750Y26255000D01*
X20738000Y26096250D01*
X20738000Y24897000D01*
X20758000Y24897000D01*
X20758000Y24643000D01*
X20738000Y24643000D01*
X20738000Y23443750D01*
X20896750Y23285000D01*
X21587310Y23285000D01*
X21820699Y23381673D01*
X21999327Y23560302D01*
X22065904Y23721033D01*
X22080375Y23699375D01*
X22571582Y23371161D01*
X23004744Y23285000D01*
X23297256Y23285000D01*
X23730418Y23371161D01*
X24221625Y23699375D01*
X24421000Y23997761D01*
X24620375Y23699375D01*
X25111582Y23371161D01*
X25544744Y23285000D01*
X25837256Y23285000D01*
X26270418Y23371161D01*
X26761625Y23699375D01*
X26961000Y23997761D01*
X27160375Y23699375D01*
X27471000Y23491822D01*
X27471000Y22957802D01*
X27117199Y22604000D01*
X14750932Y22604000D01*
X14504625Y22972625D01*
X14206239Y23172000D01*
X14504625Y23371375D01*
X14832839Y23862582D01*
X14948092Y24442000D01*
X14939688Y24484250D01*
X19126000Y24484250D01*
X19126000Y23793691D01*
X19222673Y23560302D01*
X19401301Y23381673D01*
X19634690Y23285000D01*
X20325250Y23285000D01*
X20484000Y23443750D01*
X20484000Y24643000D01*
X19284750Y24643000D01*
X19126000Y24484250D01*
X14939688Y24484250D01*
X14832839Y25021418D01*
X14504625Y25512625D01*
X14206239Y25712000D01*
X14257586Y25746309D01*
X19126000Y25746309D01*
X19126000Y25055750D01*
X19284750Y24897000D01*
X20484000Y24897000D01*
X20484000Y26096250D01*
X20325250Y26255000D01*
X19634690Y26255000D01*
X19401301Y26158327D01*
X19222673Y25979698D01*
X19126000Y25746309D01*
X14257586Y25746309D01*
X14504625Y25911375D01*
X14832839Y26402582D01*
X14948092Y26982000D01*
X14832839Y27561418D01*
X14504625Y28052625D01*
X14206239Y28252000D01*
X14504625Y28451375D01*
X14832839Y28942582D01*
X14948092Y29522000D01*
X14832839Y30101418D01*
X14504625Y30592625D01*
X14013418Y30920839D01*
X13580256Y31007000D01*
X13287744Y31007000D01*
X12854582Y30920839D01*
X12363375Y30592625D01*
X12155822Y30282000D01*
X11816846Y30282000D01*
X11741999Y30296888D01*
X11667152Y30282000D01*
X11667148Y30282000D01*
X11445463Y30237904D01*
X11194071Y30069929D01*
X11151671Y30006473D01*
X9421528Y28276329D01*
X9358072Y28233929D01*
X9315672Y28170473D01*
X9315671Y28170472D01*
X9190097Y27982537D01*
X9131112Y27686000D01*
X9146001Y27611148D01*
X9146000Y12012847D01*
X9131112Y11938000D01*
X9146000Y11863153D01*
X9146000Y11863149D01*
X9190096Y11641464D01*
X9358071Y11390071D01*
X9421530Y11347669D01*
X11855673Y8913524D01*
X11898071Y8850071D01*
X11961524Y8807673D01*
X11961526Y8807671D01*
X12086902Y8723898D01*
X12149463Y8682096D01*
X12371148Y8638000D01*
X12371152Y8638000D01*
X12445999Y8623112D01*
X12520846Y8638000D01*
X44643199Y8638000D01*
X45829087Y7452111D01*
X45606570Y7303430D01*
X45417000Y7019719D01*
X45227430Y7303430D01*
X44731725Y7634650D01*
X44294598Y7721600D01*
X43999402Y7721600D01*
X43562275Y7634650D01*
X43073932Y7308349D01*
X43068757Y7334365D01*
X42928409Y7544409D01*
X42718365Y7684757D01*
X42470600Y7734040D01*
X40743400Y7734040D01*
X40495635Y7684757D01*
X40285591Y7544409D01*
X40145243Y7334365D01*
X40095960Y7086600D01*
X40095960Y5359400D01*
X40145243Y5111635D01*
X40285591Y4901591D01*
X40495635Y4761243D01*
X40587950Y4742881D01*
X40400179Y4571490D01*
X40152032Y4042027D01*
X40272531Y3810000D01*
X41480000Y3810000D01*
X41480000Y3830000D01*
X41734000Y3830000D01*
X41734000Y3810000D01*
X41754000Y3810000D01*
X41754000Y3556000D01*
X41734000Y3556000D01*
X41734000Y2349183D01*
X41966026Y2228042D01*
X42381947Y2400312D01*
X42813821Y2794510D01*
X42865146Y2904021D01*
X43066570Y2602570D01*
X43562275Y2271350D01*
X43999402Y2184400D01*
X44294598Y2184400D01*
X44731725Y2271350D01*
X45227430Y2602570D01*
X45417000Y2886281D01*
X45606570Y2602570D01*
X46102275Y2271350D01*
X46539402Y2184400D01*
X46834598Y2184400D01*
X47271725Y2271350D01*
X47767430Y2602570D01*
X47957000Y2886281D01*
X48146570Y2602570D01*
X48642275Y2271350D01*
X49079402Y2184400D01*
X49374598Y2184400D01*
X49811725Y2271350D01*
X50307430Y2602570D01*
X50497000Y2886281D01*
X50686570Y2602570D01*
X51182275Y2271350D01*
X51619402Y2184400D01*
X51914598Y2184400D01*
X52351725Y2271350D01*
X52847430Y2602570D01*
X53178650Y3098275D01*
X53294959Y3683000D01*
X53178650Y4267725D01*
X52847430Y4763430D01*
X52563719Y4953000D01*
X52847430Y5142570D01*
X53061535Y5463000D01*
X58740199Y5463000D01*
X63166198Y1037000D01*
X7856112Y1037000D01*
X8203664Y1384552D01*
X8719000Y2628682D01*
X8719000Y3323973D01*
X40152032Y3323973D01*
X40400179Y2794510D01*
X40832053Y2400312D01*
X41247974Y2228042D01*
X41480000Y2349183D01*
X41480000Y3556000D01*
X40272531Y3556000D01*
X40152032Y3323973D01*
X8719000Y3323973D01*
X8719000Y3975318D01*
X8203664Y5219448D01*
X7251448Y6171664D01*
X6007318Y6687000D01*
X4660682Y6687000D01*
X3416552Y6171664D01*
X2464336Y5219448D01*
X1949000Y3975318D01*
X1949000Y2726446D01*
X1069000Y3606446D01*
X1069000Y32004000D01*
X48320887Y32004000D01*
X48432260Y31444091D01*
X48749423Y30969423D01*
X49224091Y30652260D01*
X49642667Y30569000D01*
X49925333Y30569000D01*
X50343909Y30652260D01*
X50818577Y30969423D01*
X51135740Y31444091D01*
X51247113Y32004000D01*
X51135740Y32563909D01*
X50818577Y33038577D01*
X50343909Y33355740D01*
X49925333Y33439000D01*
X49642667Y33439000D01*
X49224091Y33355740D01*
X48749423Y33038577D01*
X48432260Y32563909D01*
X48320887Y32004000D01*
X1069000Y32004000D01*
X1069000Y35090000D01*
X35128560Y35090000D01*
X35128560Y33490000D01*
X35177843Y33242235D01*
X35318191Y33032191D01*
X35528235Y32891843D01*
X35776000Y32842560D01*
X37376000Y32842560D01*
X37623765Y32891843D01*
X37833809Y33032191D01*
X37974157Y33242235D01*
X38023440Y33490000D01*
X38023440Y34290000D01*
X42732887Y34290000D01*
X42844260Y33730091D01*
X43161423Y33255423D01*
X43636091Y32938260D01*
X44054667Y32855000D01*
X44337333Y32855000D01*
X44755909Y32938260D01*
X45230577Y33255423D01*
X45547740Y33730091D01*
X45605406Y34020000D01*
X70488560Y34020000D01*
X70488560Y32020000D01*
X70537843Y31772235D01*
X70678191Y31562191D01*
X70888235Y31421843D01*
X71136000Y31372560D01*
X73136000Y31372560D01*
X73383765Y31421843D01*
X73593809Y31562191D01*
X73734157Y31772235D01*
X73783440Y32020000D01*
X73783440Y32797439D01*
X80353000Y32797439D01*
X80353000Y32226561D01*
X80571466Y31699138D01*
X80975138Y31295466D01*
X81502561Y31077000D01*
X82073439Y31077000D01*
X82600862Y31295466D01*
X83004534Y31699138D01*
X83223000Y32226561D01*
X83223000Y32797439D01*
X83004534Y33324862D01*
X82600862Y33728534D01*
X82073439Y33947000D01*
X81502561Y33947000D01*
X80975138Y33728534D01*
X80571466Y33324862D01*
X80353000Y32797439D01*
X73783440Y32797439D01*
X73783440Y34020000D01*
X73734157Y34267765D01*
X73593809Y34477809D01*
X73383765Y34618157D01*
X73136000Y34667440D01*
X71136000Y34667440D01*
X70888235Y34618157D01*
X70678191Y34477809D01*
X70537843Y34267765D01*
X70488560Y34020000D01*
X45605406Y34020000D01*
X45659113Y34290000D01*
X45547740Y34849909D01*
X45230577Y35324577D01*
X44755909Y35641740D01*
X44337333Y35725000D01*
X44054667Y35725000D01*
X43636091Y35641740D01*
X43161423Y35324577D01*
X42844260Y34849909D01*
X42732887Y34290000D01*
X38023440Y34290000D01*
X38023440Y35090000D01*
X37974157Y35337765D01*
X37833809Y35547809D01*
X37623765Y35688157D01*
X37376000Y35737440D01*
X35776000Y35737440D01*
X35528235Y35688157D01*
X35318191Y35547809D01*
X35177843Y35337765D01*
X35128560Y35090000D01*
X1069000Y35090000D01*
X1069000Y38997554D01*
X1949000Y39877554D01*
X1949000Y38628682D01*
X2464336Y37384552D01*
X3416552Y36432336D01*
X4660682Y35917000D01*
X6007318Y35917000D01*
X7251448Y36432336D01*
X8203664Y37384552D01*
X8719000Y38628682D01*
X8719000Y39975318D01*
X8203664Y41219448D01*
X7856112Y41567000D01*
X20779554Y41567000D01*
X24013090Y38333463D01*
X24013090Y38333463D01*
G37*
X24013090Y38333463D02*
X24054095Y38272095D01*
X24297217Y38109646D01*
X24511612Y38067000D01*
X24511615Y38067000D01*
X24583999Y38052602D01*
X24656383Y38067000D01*
X31511616Y38067000D01*
X31584000Y38052602D01*
X31656384Y38067000D01*
X31656388Y38067000D01*
X31870783Y38109646D01*
X32113905Y38272095D01*
X32154911Y38333465D01*
X35388447Y41567000D01*
X86011888Y41567000D01*
X85664336Y41219448D01*
X85149000Y39975318D01*
X85149000Y38628682D01*
X85664336Y37384552D01*
X86616552Y36432336D01*
X87860682Y35917000D01*
X89207318Y35917000D01*
X90451448Y36432336D01*
X91403664Y37384552D01*
X91919000Y38628682D01*
X91919000Y39975318D01*
X91403664Y41219448D01*
X91056112Y41567000D01*
X122011888Y41567000D01*
X121664336Y41219448D01*
X121149000Y39975318D01*
X121149000Y38628682D01*
X121664336Y37384552D01*
X122616552Y36432336D01*
X123860682Y35917000D01*
X125207318Y35917000D01*
X126451448Y36432336D01*
X127403664Y37384552D01*
X127919000Y38628682D01*
X127919000Y39877553D01*
X128799000Y38997553D01*
X128799001Y3606448D01*
X127919000Y2726447D01*
X127919000Y3975318D01*
X127403664Y5219448D01*
X126451448Y6171664D01*
X125207318Y6687000D01*
X123860682Y6687000D01*
X122616552Y6171664D01*
X121664336Y5219448D01*
X121149000Y3975318D01*
X121149000Y2628682D01*
X121664336Y1384552D01*
X122011888Y1037000D01*
X91056112Y1037000D01*
X91403664Y1384552D01*
X91919000Y2628682D01*
X91919000Y3975318D01*
X91403664Y5219448D01*
X90451448Y6171664D01*
X89207318Y6687000D01*
X87860682Y6687000D01*
X86616552Y6171664D01*
X85664336Y5219448D01*
X85149000Y3975318D01*
X85149000Y2628682D01*
X85664336Y1384552D01*
X86011888Y1037000D01*
X80343801Y1037000D01*
X86928802Y7622000D01*
X94173199Y7622000D01*
X96437673Y5357524D01*
X96480071Y5294071D01*
X96543524Y5251673D01*
X96543526Y5251671D01*
X96668902Y5167898D01*
X96731463Y5126096D01*
X96953148Y5082000D01*
X96953152Y5082000D01*
X97027999Y5067112D01*
X97102846Y5082000D01*
X105081153Y5082000D01*
X105156000Y5067112D01*
X105230847Y5082000D01*
X105230852Y5082000D01*
X105452537Y5126096D01*
X105703929Y5294071D01*
X105746331Y5357530D01*
X106993473Y6604671D01*
X107056929Y6647071D01*
X107224904Y6898463D01*
X107269000Y7120148D01*
X107269000Y7120153D01*
X107283888Y7195000D01*
X107269000Y7269847D01*
X107269000Y7614822D01*
X107579625Y7822375D01*
X107779000Y8120761D01*
X107978375Y7822375D01*
X108469582Y7494161D01*
X108902744Y7408000D01*
X109195256Y7408000D01*
X109628418Y7494161D01*
X110119625Y7822375D01*
X110319000Y8120761D01*
X110518375Y7822375D01*
X111009582Y7494161D01*
X111442744Y7408000D01*
X111735256Y7408000D01*
X112168418Y7494161D01*
X112659625Y7822375D01*
X112987839Y8313582D01*
X113103092Y8893000D01*
X112987839Y9472418D01*
X112659625Y9963625D01*
X112168418Y10291839D01*
X111735256Y10378000D01*
X111442744Y10378000D01*
X111009582Y10291839D01*
X110518375Y9963625D01*
X110319000Y9665239D01*
X110119625Y9963625D01*
X109628418Y10291839D01*
X109195256Y10378000D01*
X108902744Y10378000D01*
X108469582Y10291839D01*
X107978375Y9963625D01*
X107779000Y9665239D01*
X107579625Y9963625D01*
X107088418Y10291839D01*
X106655256Y10378000D01*
X106362744Y10378000D01*
X105929582Y10291839D01*
X105438375Y9963625D01*
X105239000Y9665239D01*
X105039625Y9963625D01*
X104548418Y10291839D01*
X104115256Y10378000D01*
X103822744Y10378000D01*
X103389582Y10291839D01*
X102898375Y9963625D01*
X102883904Y9941967D01*
X102817327Y10102698D01*
X102638699Y10281327D01*
X102405310Y10378000D01*
X101714750Y10378000D01*
X101556000Y10219250D01*
X101556000Y9020000D01*
X101576000Y9020000D01*
X101576000Y8766000D01*
X101556000Y8766000D01*
X101556000Y7566750D01*
X101714750Y7408000D01*
X102405310Y7408000D01*
X102638699Y7504673D01*
X102817327Y7683302D01*
X102883904Y7844033D01*
X102898375Y7822375D01*
X103389582Y7494161D01*
X103822744Y7408000D01*
X104115256Y7408000D01*
X104548418Y7494161D01*
X105039625Y7822375D01*
X105239000Y8120761D01*
X105438375Y7822375D01*
X105749001Y7614822D01*
X105749001Y7509803D01*
X104841199Y6602000D01*
X97342803Y6602000D01*
X95337552Y8607250D01*
X99944000Y8607250D01*
X99944000Y7916691D01*
X100040673Y7683302D01*
X100219301Y7504673D01*
X100452690Y7408000D01*
X101143250Y7408000D01*
X101302000Y7566750D01*
X101302000Y8766000D01*
X100102750Y8766000D01*
X99944000Y8607250D01*
X95337552Y8607250D01*
X95078331Y8866470D01*
X95035929Y8929929D01*
X94784537Y9097904D01*
X94562852Y9142000D01*
X94562847Y9142000D01*
X94488000Y9156888D01*
X94413153Y9142000D01*
X86688846Y9142000D01*
X86613999Y9156888D01*
X86539152Y9142000D01*
X86539148Y9142000D01*
X86317463Y9097904D01*
X86066071Y8929929D01*
X86023671Y8866473D01*
X78933199Y1776000D01*
X70160801Y1776000D01*
X70271470Y1886669D01*
X70334929Y1929071D01*
X70502904Y2180463D01*
X70547000Y2402148D01*
X70547000Y2402152D01*
X70561888Y2476999D01*
X70553388Y2519733D01*
X70867430Y2729570D01*
X71057000Y3013281D01*
X71246570Y2729570D01*
X71742275Y2398350D01*
X72179402Y2311400D01*
X72474598Y2311400D01*
X72911725Y2398350D01*
X73407430Y2729570D01*
X73597000Y3013281D01*
X73786570Y2729570D01*
X74282275Y2398350D01*
X74719402Y2311400D01*
X75014598Y2311400D01*
X75451725Y2398350D01*
X75947430Y2729570D01*
X76137000Y3013281D01*
X76326570Y2729570D01*
X76822275Y2398350D01*
X77259402Y2311400D01*
X77554598Y2311400D01*
X77991725Y2398350D01*
X78487430Y2729570D01*
X78818650Y3225275D01*
X78934959Y3810000D01*
X78818650Y4394725D01*
X78487430Y4890430D01*
X78203719Y5080000D01*
X78487430Y5269570D01*
X78818650Y5765275D01*
X78934959Y6350000D01*
X78818650Y6934725D01*
X78487430Y7430430D01*
X77991725Y7761650D01*
X77554598Y7848600D01*
X77259402Y7848600D01*
X76822275Y7761650D01*
X76326570Y7430430D01*
X76137000Y7146719D01*
X75947430Y7430430D01*
X75451725Y7761650D01*
X75014598Y7848600D01*
X74719402Y7848600D01*
X74282275Y7761650D01*
X73786570Y7430430D01*
X73597000Y7146719D01*
X73407430Y7430430D01*
X72911725Y7761650D01*
X72474598Y7848600D01*
X72179402Y7848600D01*
X71742275Y7761650D01*
X71246570Y7430430D01*
X71057000Y7146719D01*
X70867430Y7430430D01*
X70371725Y7761650D01*
X69934598Y7848600D01*
X69639402Y7848600D01*
X69202275Y7761650D01*
X68713932Y7435349D01*
X68708757Y7461365D01*
X68568409Y7671409D01*
X68358365Y7811757D01*
X68110600Y7861040D01*
X66383400Y7861040D01*
X66135635Y7811757D01*
X65925591Y7671409D01*
X65785243Y7461365D01*
X65735960Y7213600D01*
X65735960Y5486400D01*
X65785243Y5238635D01*
X65925591Y5028591D01*
X66135635Y4888243D01*
X66227950Y4869881D01*
X66040179Y4698490D01*
X65792032Y4169027D01*
X65912531Y3937000D01*
X67120000Y3937000D01*
X67120000Y3957000D01*
X67374000Y3957000D01*
X67374000Y3937000D01*
X67394000Y3937000D01*
X67394000Y3683000D01*
X67374000Y3683000D01*
X67374000Y3663000D01*
X67120000Y3663000D01*
X67120000Y3683000D01*
X65912531Y3683000D01*
X65792032Y3450973D01*
X66040179Y2921510D01*
X66182067Y2792000D01*
X65084802Y2792000D01*
X58007493Y9869309D01*
X99944000Y9869309D01*
X99944000Y9178750D01*
X100102750Y9020000D01*
X101302000Y9020000D01*
X101302000Y10219250D01*
X101143250Y10378000D01*
X100452690Y10378000D01*
X100219301Y10281327D01*
X100040673Y10102698D01*
X99944000Y9869309D01*
X58007493Y9869309D01*
X56074802Y11802000D01*
X88284601Y11802000D01*
X88341646Y11515217D01*
X88504095Y11272095D01*
X88747217Y11109646D01*
X88961612Y11067000D01*
X89034000Y11052601D01*
X89106388Y11067000D01*
X123961612Y11067000D01*
X124034000Y11052601D01*
X124106388Y11067000D01*
X124320783Y11109646D01*
X124563905Y11272095D01*
X124726354Y11515217D01*
X124783399Y11802000D01*
X124769000Y11874388D01*
X124769000Y33143831D01*
X124783398Y33216215D01*
X124769000Y33288601D01*
X124769000Y33288602D01*
X124726354Y33502997D01*
X124563905Y33746119D01*
X124502538Y33787123D01*
X119019125Y39270535D01*
X118978119Y39331905D01*
X118734997Y39494354D01*
X118520602Y39537000D01*
X118520598Y39537000D01*
X118448214Y39551398D01*
X118375830Y39537000D01*
X94692171Y39537000D01*
X94619787Y39551398D01*
X94547403Y39537000D01*
X94547399Y39537000D01*
X94333004Y39494354D01*
X94089882Y39331905D01*
X94048878Y39270538D01*
X88565465Y33787125D01*
X88504095Y33746119D01*
X88341646Y33502996D01*
X88299000Y33288601D01*
X88299000Y33288598D01*
X88284602Y33216214D01*
X88299000Y33143830D01*
X88299001Y11874393D01*
X88284601Y11802000D01*
X56074802Y11802000D01*
X48858552Y19018250D01*
X80403000Y19018250D01*
X80403000Y18652691D01*
X80499673Y18419302D01*
X80678301Y18240673D01*
X80911690Y18144000D01*
X81502250Y18144000D01*
X81661000Y18302750D01*
X81661000Y19177000D01*
X81915000Y19177000D01*
X81915000Y18302750D01*
X82073750Y18144000D01*
X82664310Y18144000D01*
X82897699Y18240673D01*
X83076327Y18419302D01*
X83173000Y18652691D01*
X83173000Y19018250D01*
X83014250Y19177000D01*
X81915000Y19177000D01*
X81661000Y19177000D01*
X80561750Y19177000D01*
X80403000Y19018250D01*
X48858552Y19018250D01*
X46032802Y21844000D01*
X80380275Y21844000D01*
X80470305Y21391391D01*
X80592174Y21209000D01*
X80470305Y21026609D01*
X80380275Y20574000D01*
X80470305Y20121391D01*
X80471224Y20120016D01*
X80403000Y19955309D01*
X80403000Y19589750D01*
X80561750Y19431000D01*
X81363290Y19431000D01*
X81448754Y19414000D01*
X82127246Y19414000D01*
X82212710Y19431000D01*
X83014250Y19431000D01*
X83173000Y19589750D01*
X83173000Y19955309D01*
X83104776Y20120016D01*
X83105695Y20121391D01*
X83195725Y20574000D01*
X83105695Y21026609D01*
X82983826Y21209000D01*
X83105695Y21391391D01*
X83195725Y21844000D01*
X83105695Y22296609D01*
X82849313Y22680313D01*
X82465609Y22936695D01*
X82127246Y23004000D01*
X81448754Y23004000D01*
X81110391Y22936695D01*
X80726687Y22680313D01*
X80470305Y22296609D01*
X80380275Y21844000D01*
X46032802Y21844000D01*
X43207363Y24669439D01*
X48349000Y24669439D01*
X48349000Y24098561D01*
X48567466Y23571138D01*
X48971138Y23167466D01*
X49498561Y22949000D01*
X50069439Y22949000D01*
X50596862Y23167466D01*
X51000534Y23571138D01*
X51219000Y24098561D01*
X51219000Y24669439D01*
X51000534Y25196862D01*
X50596862Y25600534D01*
X50247555Y25745222D01*
X70501000Y25745222D01*
X70501000Y25094778D01*
X70749914Y24493847D01*
X71209847Y24033914D01*
X71810778Y23785000D01*
X72461222Y23785000D01*
X73062153Y24033914D01*
X73522086Y24493847D01*
X73687006Y24892000D01*
X80324887Y24892000D01*
X80436260Y24332091D01*
X80753423Y23857423D01*
X81228091Y23540260D01*
X81646667Y23457000D01*
X81929333Y23457000D01*
X82347909Y23540260D01*
X82822577Y23857423D01*
X83139740Y24332091D01*
X83251113Y24892000D01*
X83139740Y25451909D01*
X82822577Y25926577D01*
X82347909Y26243740D01*
X81929333Y26327000D01*
X81646667Y26327000D01*
X81228091Y26243740D01*
X80753423Y25926577D01*
X80436260Y25451909D01*
X80324887Y24892000D01*
X73687006Y24892000D01*
X73771000Y25094778D01*
X73771000Y25745222D01*
X73522086Y26346153D01*
X73062153Y26806086D01*
X72461222Y27055000D01*
X71810778Y27055000D01*
X71209847Y26806086D01*
X70749914Y26346153D01*
X70501000Y25745222D01*
X50247555Y25745222D01*
X50069439Y25819000D01*
X49498561Y25819000D01*
X48971138Y25600534D01*
X48567466Y25196862D01*
X48349000Y24669439D01*
X43207363Y24669439D01*
X42622331Y25254470D01*
X42579929Y25317929D01*
X42328537Y25485904D01*
X42106852Y25530000D01*
X42106847Y25530000D01*
X42032000Y25544888D01*
X41957153Y25530000D01*
X37129178Y25530000D01*
X36921625Y25840625D01*
X36430418Y26168839D01*
X35997256Y26255000D01*
X35704744Y26255000D01*
X35271582Y26168839D01*
X34780375Y25840625D01*
X34581000Y25542239D01*
X34381625Y25840625D01*
X33890418Y26168839D01*
X33457256Y26255000D01*
X33164744Y26255000D01*
X32731582Y26168839D01*
X32240375Y25840625D01*
X32041000Y25542239D01*
X31841625Y25840625D01*
X31350418Y26168839D01*
X30917256Y26255000D01*
X30624744Y26255000D01*
X30191582Y26168839D01*
X29700375Y25840625D01*
X29501000Y25542239D01*
X29301625Y25840625D01*
X28810418Y26168839D01*
X28377256Y26255000D01*
X28084744Y26255000D01*
X27651582Y26168839D01*
X27160375Y25840625D01*
X26961000Y25542239D01*
X26761625Y25840625D01*
X26270418Y26168839D01*
X25837256Y26255000D01*
X25544744Y26255000D01*
X25111582Y26168839D01*
X24620375Y25840625D01*
X24421000Y25542239D01*
X24221625Y25840625D01*
X23730418Y26168839D01*
X23297256Y26255000D01*
X23004744Y26255000D01*
X22571582Y26168839D01*
X22080375Y25840625D01*
X22065904Y25818967D01*
X21999327Y25979698D01*
X21820699Y26158327D01*
X21587310Y26255000D01*
X20896750Y26255000D01*
X20738000Y26096250D01*
X20738000Y24897000D01*
X20758000Y24897000D01*
X20758000Y24643000D01*
X20738000Y24643000D01*
X20738000Y23443750D01*
X20896750Y23285000D01*
X21587310Y23285000D01*
X21820699Y23381673D01*
X21999327Y23560302D01*
X22065904Y23721033D01*
X22080375Y23699375D01*
X22571582Y23371161D01*
X23004744Y23285000D01*
X23297256Y23285000D01*
X23730418Y23371161D01*
X24221625Y23699375D01*
X24421000Y23997761D01*
X24620375Y23699375D01*
X25111582Y23371161D01*
X25544744Y23285000D01*
X25837256Y23285000D01*
X26270418Y23371161D01*
X26761625Y23699375D01*
X26961000Y23997761D01*
X27160375Y23699375D01*
X27471000Y23491822D01*
X27471000Y22957802D01*
X27117199Y22604000D01*
X14750932Y22604000D01*
X14504625Y22972625D01*
X14206239Y23172000D01*
X14504625Y23371375D01*
X14832839Y23862582D01*
X14948092Y24442000D01*
X14939688Y24484250D01*
X19126000Y24484250D01*
X19126000Y23793691D01*
X19222673Y23560302D01*
X19401301Y23381673D01*
X19634690Y23285000D01*
X20325250Y23285000D01*
X20484000Y23443750D01*
X20484000Y24643000D01*
X19284750Y24643000D01*
X19126000Y24484250D01*
X14939688Y24484250D01*
X14832839Y25021418D01*
X14504625Y25512625D01*
X14206239Y25712000D01*
X14257586Y25746309D01*
X19126000Y25746309D01*
X19126000Y25055750D01*
X19284750Y24897000D01*
X20484000Y24897000D01*
X20484000Y26096250D01*
X20325250Y26255000D01*
X19634690Y26255000D01*
X19401301Y26158327D01*
X19222673Y25979698D01*
X19126000Y25746309D01*
X14257586Y25746309D01*
X14504625Y25911375D01*
X14832839Y26402582D01*
X14948092Y26982000D01*
X14832839Y27561418D01*
X14504625Y28052625D01*
X14206239Y28252000D01*
X14504625Y28451375D01*
X14832839Y28942582D01*
X14948092Y29522000D01*
X14832839Y30101418D01*
X14504625Y30592625D01*
X14013418Y30920839D01*
X13580256Y31007000D01*
X13287744Y31007000D01*
X12854582Y30920839D01*
X12363375Y30592625D01*
X12155822Y30282000D01*
X11816846Y30282000D01*
X11741999Y30296888D01*
X11667152Y30282000D01*
X11667148Y30282000D01*
X11445463Y30237904D01*
X11194071Y30069929D01*
X11151671Y30006473D01*
X9421528Y28276329D01*
X9358072Y28233929D01*
X9315672Y28170473D01*
X9315671Y28170472D01*
X9190097Y27982537D01*
X9131112Y27686000D01*
X9146001Y27611148D01*
X9146000Y12012847D01*
X9131112Y11938000D01*
X9146000Y11863153D01*
X9146000Y11863149D01*
X9190096Y11641464D01*
X9358071Y11390071D01*
X9421530Y11347669D01*
X11855673Y8913524D01*
X11898071Y8850071D01*
X11961524Y8807673D01*
X11961526Y8807671D01*
X12086902Y8723898D01*
X12149463Y8682096D01*
X12371148Y8638000D01*
X12371152Y8638000D01*
X12445999Y8623112D01*
X12520846Y8638000D01*
X44643199Y8638000D01*
X45829087Y7452111D01*
X45606570Y7303430D01*
X45417000Y7019719D01*
X45227430Y7303430D01*
X44731725Y7634650D01*
X44294598Y7721600D01*
X43999402Y7721600D01*
X43562275Y7634650D01*
X43073932Y7308349D01*
X43068757Y7334365D01*
X42928409Y7544409D01*
X42718365Y7684757D01*
X42470600Y7734040D01*
X40743400Y7734040D01*
X40495635Y7684757D01*
X40285591Y7544409D01*
X40145243Y7334365D01*
X40095960Y7086600D01*
X40095960Y5359400D01*
X40145243Y5111635D01*
X40285591Y4901591D01*
X40495635Y4761243D01*
X40587950Y4742881D01*
X40400179Y4571490D01*
X40152032Y4042027D01*
X40272531Y3810000D01*
X41480000Y3810000D01*
X41480000Y3830000D01*
X41734000Y3830000D01*
X41734000Y3810000D01*
X41754000Y3810000D01*
X41754000Y3556000D01*
X41734000Y3556000D01*
X41734000Y2349183D01*
X41966026Y2228042D01*
X42381947Y2400312D01*
X42813821Y2794510D01*
X42865146Y2904021D01*
X43066570Y2602570D01*
X43562275Y2271350D01*
X43999402Y2184400D01*
X44294598Y2184400D01*
X44731725Y2271350D01*
X45227430Y2602570D01*
X45417000Y2886281D01*
X45606570Y2602570D01*
X46102275Y2271350D01*
X46539402Y2184400D01*
X46834598Y2184400D01*
X47271725Y2271350D01*
X47767430Y2602570D01*
X47957000Y2886281D01*
X48146570Y2602570D01*
X48642275Y2271350D01*
X49079402Y2184400D01*
X49374598Y2184400D01*
X49811725Y2271350D01*
X50307430Y2602570D01*
X50497000Y2886281D01*
X50686570Y2602570D01*
X51182275Y2271350D01*
X51619402Y2184400D01*
X51914598Y2184400D01*
X52351725Y2271350D01*
X52847430Y2602570D01*
X53178650Y3098275D01*
X53294959Y3683000D01*
X53178650Y4267725D01*
X52847430Y4763430D01*
X52563719Y4953000D01*
X52847430Y5142570D01*
X53061535Y5463000D01*
X58740199Y5463000D01*
X63166198Y1037000D01*
X7856112Y1037000D01*
X8203664Y1384552D01*
X8719000Y2628682D01*
X8719000Y3323973D01*
X40152032Y3323973D01*
X40400179Y2794510D01*
X40832053Y2400312D01*
X41247974Y2228042D01*
X41480000Y2349183D01*
X41480000Y3556000D01*
X40272531Y3556000D01*
X40152032Y3323973D01*
X8719000Y3323973D01*
X8719000Y3975318D01*
X8203664Y5219448D01*
X7251448Y6171664D01*
X6007318Y6687000D01*
X4660682Y6687000D01*
X3416552Y6171664D01*
X2464336Y5219448D01*
X1949000Y3975318D01*
X1949000Y2726446D01*
X1069000Y3606446D01*
X1069000Y32004000D01*
X48320887Y32004000D01*
X48432260Y31444091D01*
X48749423Y30969423D01*
X49224091Y30652260D01*
X49642667Y30569000D01*
X49925333Y30569000D01*
X50343909Y30652260D01*
X50818577Y30969423D01*
X51135740Y31444091D01*
X51247113Y32004000D01*
X51135740Y32563909D01*
X50818577Y33038577D01*
X50343909Y33355740D01*
X49925333Y33439000D01*
X49642667Y33439000D01*
X49224091Y33355740D01*
X48749423Y33038577D01*
X48432260Y32563909D01*
X48320887Y32004000D01*
X1069000Y32004000D01*
X1069000Y35090000D01*
X35128560Y35090000D01*
X35128560Y33490000D01*
X35177843Y33242235D01*
X35318191Y33032191D01*
X35528235Y32891843D01*
X35776000Y32842560D01*
X37376000Y32842560D01*
X37623765Y32891843D01*
X37833809Y33032191D01*
X37974157Y33242235D01*
X38023440Y33490000D01*
X38023440Y34290000D01*
X42732887Y34290000D01*
X42844260Y33730091D01*
X43161423Y33255423D01*
X43636091Y32938260D01*
X44054667Y32855000D01*
X44337333Y32855000D01*
X44755909Y32938260D01*
X45230577Y33255423D01*
X45547740Y33730091D01*
X45605406Y34020000D01*
X70488560Y34020000D01*
X70488560Y32020000D01*
X70537843Y31772235D01*
X70678191Y31562191D01*
X70888235Y31421843D01*
X71136000Y31372560D01*
X73136000Y31372560D01*
X73383765Y31421843D01*
X73593809Y31562191D01*
X73734157Y31772235D01*
X73783440Y32020000D01*
X73783440Y32797439D01*
X80353000Y32797439D01*
X80353000Y32226561D01*
X80571466Y31699138D01*
X80975138Y31295466D01*
X81502561Y31077000D01*
X82073439Y31077000D01*
X82600862Y31295466D01*
X83004534Y31699138D01*
X83223000Y32226561D01*
X83223000Y32797439D01*
X83004534Y33324862D01*
X82600862Y33728534D01*
X82073439Y33947000D01*
X81502561Y33947000D01*
X80975138Y33728534D01*
X80571466Y33324862D01*
X80353000Y32797439D01*
X73783440Y32797439D01*
X73783440Y34020000D01*
X73734157Y34267765D01*
X73593809Y34477809D01*
X73383765Y34618157D01*
X73136000Y34667440D01*
X71136000Y34667440D01*
X70888235Y34618157D01*
X70678191Y34477809D01*
X70537843Y34267765D01*
X70488560Y34020000D01*
X45605406Y34020000D01*
X45659113Y34290000D01*
X45547740Y34849909D01*
X45230577Y35324577D01*
X44755909Y35641740D01*
X44337333Y35725000D01*
X44054667Y35725000D01*
X43636091Y35641740D01*
X43161423Y35324577D01*
X42844260Y34849909D01*
X42732887Y34290000D01*
X38023440Y34290000D01*
X38023440Y35090000D01*
X37974157Y35337765D01*
X37833809Y35547809D01*
X37623765Y35688157D01*
X37376000Y35737440D01*
X35776000Y35737440D01*
X35528235Y35688157D01*
X35318191Y35547809D01*
X35177843Y35337765D01*
X35128560Y35090000D01*
X1069000Y35090000D01*
X1069000Y38997554D01*
X1949000Y39877554D01*
X1949000Y38628682D01*
X2464336Y37384552D01*
X3416552Y36432336D01*
X4660682Y35917000D01*
X6007318Y35917000D01*
X7251448Y36432336D01*
X8203664Y37384552D01*
X8719000Y38628682D01*
X8719000Y39975318D01*
X8203664Y41219448D01*
X7856112Y41567000D01*
X20779554Y41567000D01*
X24013090Y38333463D01*
G36*
X58744198Y6983000D02*
X53061535Y6983000D01*
X52847430Y7303430D01*
X52351725Y7634650D01*
X51914598Y7721600D01*
X51619402Y7721600D01*
X51182275Y7634650D01*
X50686570Y7303430D01*
X50497000Y7019719D01*
X50307430Y7303430D01*
X49987000Y7517535D01*
X49987000Y7594154D01*
X50001888Y7669001D01*
X49987000Y7743848D01*
X49987000Y7743852D01*
X49942904Y7965537D01*
X49774929Y8216929D01*
X49711473Y8259329D01*
X47072331Y10898470D01*
X47029929Y10961929D01*
X46778537Y11129904D01*
X46556852Y11174000D01*
X46556847Y11174000D01*
X46482000Y11188888D01*
X46407153Y11174000D01*
X13014802Y11174000D01*
X11428000Y12760801D01*
X11428000Y13996250D01*
X11949000Y13996250D01*
X11949000Y13305690D01*
X12045673Y13072301D01*
X12224302Y12893673D01*
X12457691Y12797000D01*
X13148250Y12797000D01*
X13307000Y12955750D01*
X13307000Y14155000D01*
X13561000Y14155000D01*
X13561000Y12955750D01*
X13719750Y12797000D01*
X14410309Y12797000D01*
X14643698Y12893673D01*
X14822327Y13072301D01*
X14919000Y13305690D01*
X14919000Y13996250D01*
X14760250Y14155000D01*
X13561000Y14155000D01*
X13307000Y14155000D01*
X12107750Y14155000D01*
X11949000Y13996250D01*
X11428000Y13996250D01*
X11428000Y23053199D01*
X12056803Y23682000D01*
X12155822Y23682000D01*
X12363375Y23371375D01*
X12661761Y23172000D01*
X12363375Y22972625D01*
X12035161Y22481418D01*
X11919908Y21902000D01*
X12035161Y21322582D01*
X12363375Y20831375D01*
X12661761Y20632000D01*
X12363375Y20432625D01*
X12035161Y19941418D01*
X11919908Y19362000D01*
X12035161Y18782582D01*
X12363375Y18291375D01*
X12661761Y18092000D01*
X12363375Y17892625D01*
X12035161Y17401418D01*
X11919908Y16822000D01*
X12035161Y16242582D01*
X12363375Y15751375D01*
X12385033Y15736904D01*
X12224302Y15670327D01*
X12045673Y15491699D01*
X11949000Y15258310D01*
X11949000Y14567750D01*
X12107750Y14409000D01*
X13307000Y14409000D01*
X13307000Y14429000D01*
X13561000Y14429000D01*
X13561000Y14409000D01*
X14760250Y14409000D01*
X14919000Y14567750D01*
X14919000Y15258310D01*
X14822327Y15491699D01*
X14643698Y15670327D01*
X14482967Y15736904D01*
X14504625Y15751375D01*
X14832839Y16242582D01*
X14948092Y16822000D01*
X14832839Y17401418D01*
X14504625Y17892625D01*
X14206239Y18092000D01*
X14504625Y18291375D01*
X14712178Y18602000D01*
X27161153Y18602000D01*
X27236000Y18587112D01*
X27310847Y18602000D01*
X27310852Y18602000D01*
X27532537Y18646096D01*
X27783929Y18814071D01*
X27826331Y18877530D01*
X31255473Y22306671D01*
X31318929Y22349071D01*
X31486904Y22600463D01*
X31531000Y22822148D01*
X31531000Y22822153D01*
X31545888Y22897000D01*
X31531000Y22971847D01*
X31531000Y23491822D01*
X31841625Y23699375D01*
X32041000Y23997761D01*
X32240375Y23699375D01*
X32731582Y23371161D01*
X33164744Y23285000D01*
X33457256Y23285000D01*
X33890418Y23371161D01*
X34381625Y23699375D01*
X34581000Y23997761D01*
X34780375Y23699375D01*
X35271582Y23371161D01*
X35704744Y23285000D01*
X35997256Y23285000D01*
X36430418Y23371161D01*
X36921625Y23699375D01*
X37129178Y24010000D01*
X41717199Y24010000D01*
X58744198Y6983000D01*
X58744198Y6983000D01*
G37*
X58744198Y6983000D02*
X53061535Y6983000D01*
X52847430Y7303430D01*
X52351725Y7634650D01*
X51914598Y7721600D01*
X51619402Y7721600D01*
X51182275Y7634650D01*
X50686570Y7303430D01*
X50497000Y7019719D01*
X50307430Y7303430D01*
X49987000Y7517535D01*
X49987000Y7594154D01*
X50001888Y7669001D01*
X49987000Y7743848D01*
X49987000Y7743852D01*
X49942904Y7965537D01*
X49774929Y8216929D01*
X49711473Y8259329D01*
X47072331Y10898470D01*
X47029929Y10961929D01*
X46778537Y11129904D01*
X46556852Y11174000D01*
X46556847Y11174000D01*
X46482000Y11188888D01*
X46407153Y11174000D01*
X13014802Y11174000D01*
X11428000Y12760801D01*
X11428000Y13996250D01*
X11949000Y13996250D01*
X11949000Y13305690D01*
X12045673Y13072301D01*
X12224302Y12893673D01*
X12457691Y12797000D01*
X13148250Y12797000D01*
X13307000Y12955750D01*
X13307000Y14155000D01*
X13561000Y14155000D01*
X13561000Y12955750D01*
X13719750Y12797000D01*
X14410309Y12797000D01*
X14643698Y12893673D01*
X14822327Y13072301D01*
X14919000Y13305690D01*
X14919000Y13996250D01*
X14760250Y14155000D01*
X13561000Y14155000D01*
X13307000Y14155000D01*
X12107750Y14155000D01*
X11949000Y13996250D01*
X11428000Y13996250D01*
X11428000Y23053199D01*
X12056803Y23682000D01*
X12155822Y23682000D01*
X12363375Y23371375D01*
X12661761Y23172000D01*
X12363375Y22972625D01*
X12035161Y22481418D01*
X11919908Y21902000D01*
X12035161Y21322582D01*
X12363375Y20831375D01*
X12661761Y20632000D01*
X12363375Y20432625D01*
X12035161Y19941418D01*
X11919908Y19362000D01*
X12035161Y18782582D01*
X12363375Y18291375D01*
X12661761Y18092000D01*
X12363375Y17892625D01*
X12035161Y17401418D01*
X11919908Y16822000D01*
X12035161Y16242582D01*
X12363375Y15751375D01*
X12385033Y15736904D01*
X12224302Y15670327D01*
X12045673Y15491699D01*
X11949000Y15258310D01*
X11949000Y14567750D01*
X12107750Y14409000D01*
X13307000Y14409000D01*
X13307000Y14429000D01*
X13561000Y14429000D01*
X13561000Y14409000D01*
X14760250Y14409000D01*
X14919000Y14567750D01*
X14919000Y15258310D01*
X14822327Y15491699D01*
X14643698Y15670327D01*
X14482967Y15736904D01*
X14504625Y15751375D01*
X14832839Y16242582D01*
X14948092Y16822000D01*
X14832839Y17401418D01*
X14504625Y17892625D01*
X14206239Y18092000D01*
X14504625Y18291375D01*
X14712178Y18602000D01*
X27161153Y18602000D01*
X27236000Y18587112D01*
X27310847Y18602000D01*
X27310852Y18602000D01*
X27532537Y18646096D01*
X27783929Y18814071D01*
X27826331Y18877530D01*
X31255473Y22306671D01*
X31318929Y22349071D01*
X31486904Y22600463D01*
X31531000Y22822148D01*
X31531000Y22822153D01*
X31545888Y22897000D01*
X31531000Y22971847D01*
X31531000Y23491822D01*
X31841625Y23699375D01*
X32041000Y23997761D01*
X32240375Y23699375D01*
X32731582Y23371161D01*
X33164744Y23285000D01*
X33457256Y23285000D01*
X33890418Y23371161D01*
X34381625Y23699375D01*
X34581000Y23997761D01*
X34780375Y23699375D01*
X35271582Y23371161D01*
X35704744Y23285000D01*
X35997256Y23285000D01*
X36430418Y23371161D01*
X36921625Y23699375D01*
X37129178Y24010000D01*
X41717199Y24010000D01*
X58744198Y6983000D01*
G04 #@! TD*
M02*
